<svg xmlns="http://www.w3.org/2000/svg" viewBox="0 0 64 64">
  <defs>
    <linearGradient id="bg" x1="0" y1="0" x2="1" y2="1">
      <stop offset="0" stop-color="#0f3f2b"/>
      <stop offset="1" stop-color="#173854"/>
    </linearGradient>
    <linearGradient id="gift" x1="0" y1="0" x2="1" y2="1">
      <stop offset="0" stop-color="#e94a57"/>
      <stop offset="1" stop-color="#ffd25f"/>
    </linearGradient>
  </defs>
  <rect width="64" height="64" rx="16" fill="url(#bg)"/>
  <path d="M12 28h40v24H12z" rx="5" fill="url(#gift)"/>
  <path d="M30 28h6v24h-6zM12 36h40v6H12z" fill="#fff6df" opacity=".88"/>
  <path d="M30 27c-6-1-11-4-11-9 0-4 3-7 7-7 5 0 7 5 8 10 1-5 3-10 8-10 4 0 7 3 7 7 0 5-5 8-13 9" fill="none" stroke="#ffd25f" stroke-width="5" stroke-linecap="round"/>
  <circle cx="18" cy="16" r="2" fill="#fff6df" opacity=".9"/>
  <circle cx="50" cy="20" r="2" fill="#fff6df" opacity=".75"/>
</svg>
