<svg xmlns="http://www.w3.org/2000/svg" viewBox="0 0 1600 900" preserveAspectRatio="xMidYMid slice">
  <defs>
    <linearGradient id="sky" x1="0" y1="0" x2="1" y2="1"><stop offset="0" stop-color="#0b3a36"/><stop offset="1" stop-color="#173f55"/></linearGradient>
    <radialGradient id="glow" cx="50%" cy="22%" r="55%"><stop offset="0" stop-color="#fff1aa" stop-opacity=".32"/><stop offset="1" stop-color="#fff1aa" stop-opacity="0"/></radialGradient>
    <filter id="soft"><feGaussianBlur stdDeviation="10"/></filter>
  </defs>
  <rect width="1600" height="900" fill="url(#sky)"/>
  <rect width="1600" height="900" fill="url(#glow)"/>
  <g opacity=".55" fill="#fff8e9">
    <circle cx="168" cy="106" r="3"/><circle cx="320" cy="188" r="2"/><circle cx="472" cy="92" r="3"/><circle cx="612" cy="156" r="2"/><circle cx="790" cy="76" r="3"/><circle cx="1012" cy="150" r="2"/><circle cx="1260" cy="98" r="3"/><circle cx="1460" cy="176" r="2"/><circle cx="1378" cy="54" r="2"/><circle cx="113" cy="292" r="2"/><circle cx="1444" cy="325" r="3"/>
  </g>
  <circle cx="1320" cy="170" r="62" fill="#fff0b5" opacity=".92"/>
  <path d="M0 700 C260 620 390 760 625 690 C850 626 1000 728 1230 650 C1396 592 1484 615 1600 570 L1600 900 L0 900 Z" fill="#e9f7ef" opacity=".92"/>
  <path d="M0 765 C235 705 425 792 612 744 C780 700 920 792 1095 736 C1290 676 1450 724 1600 690 L1600 900 L0 900 Z" fill="#ffffff" opacity=".96"/>
  
  <g transform="translate(180 470)">
    <rect x="0" y="110" width="190" height="150" rx="16" fill="#f4d4a0"/><path d="M-20 125 L95 35 L210 125 Z" fill="#c7504c"/><rect x="32" y="160" width="45" height="52" rx="8" fill="#7aa98f"/><rect x="112" y="155" width="44" height="40" rx="8" fill="#ffe58a"/><path d="M-8 128 H198" stroke="#fff" stroke-width="18" stroke-linecap="round"/>
    <rect x="255" y="80" width="230" height="180" rx="18" fill="#ffe4af"/><path d="M230 92 L370 0 L510 92 Z" fill="#7abf87"/><rect x="292" y="142" width="50" height="52" rx="8" fill="#ffe58a"/><rect x="390" y="140" width="54" height="90" rx="10" fill="#bb6b55"/><path d="M245 98 H495" stroke="#fff" stroke-width="20" stroke-linecap="round"/>
  </g>
  <g transform="translate(1120 390)">
    <path d="M140 0 L40 150 H95 L10 275 H110 L60 380 H220 L170 275 H270 L185 150 H240 Z" fill="#32b86f"/>
    <rect x="126" y="350" width="45" height="88" rx="8" fill="#7e4b2f"/>
    <circle cx="103" cy="158" r="16" fill="#ff6f68"/><circle cx="188" cy="218" r="16" fill="#ffe16f"/><circle cx="144" cy="286" r="16" fill="#fffbdb"/>
    <path d="M140 -44 L157 -8 L197 -3 L168 23 L176 62 L140 42 L104 62 L112 23 L83 -3 L123 -8 Z" fill="#ffe16f"/>
  </g>
  <g transform="translate(790 260)">
    <path d="M30 128 C120 164 245 164 350 120" stroke="#ff705e" stroke-width="26" stroke-linecap="round" fill="none"/>
    <path d="M98 88 H262 Q322 88 344 132 H78 Z" fill="#b83f36"/>
    <path d="M86 132 H370" stroke="#ffd27a" stroke-width="7" stroke-linecap="round"/>
    <circle cx="150" cy="68" r="24" fill="#ffd8b2"/>
    <path d="M122 56 C130 20 178 20 191 54" fill="#e84d47"/>
    <circle cx="194" cy="52" r="8" fill="#fff8e9"/>
    <path d="M126 58 H186" stroke="#fff8e9" stroke-width="10" stroke-linecap="round"/>
    <path d="M132 80 C148 96 166 96 184 80" fill="#fff8e9"/>
    <path d="M190 86 Q224 83 250 100" stroke="#fff8e9" stroke-width="13" stroke-linecap="round" fill="none"/>
    <path d="M392 108 C425 58 500 58 542 108" stroke="#b78355" stroke-width="15" fill="none" stroke-linecap="round"/>
    <ellipse cx="550" cy="112" rx="38" ry="24" fill="#b78355"/>
    <circle cx="582" cy="104" r="15" fill="#b78355"/>
    <circle cx="588" cy="105" r="3" fill="#1f302b"/>
    <circle cx="600" cy="116" r="6" fill="#ff756d"/>
    <path d="M575 84 l22 -34 m-12 35 l32 -22" stroke="#d9a06a" stroke-width="7" stroke-linecap="round"/>
    <path d="M520 132 l-16 42 m52-39 l12 42" stroke="#6c472f" stroke-width="8" stroke-linecap="round"/>
  </g>
  <g transform="translate(1040 660)">
    <rect x="0" y="70" width="170" height="118" rx="18" fill="#b76a38"/>
    <path d="M-8 77 L85 2 L178 77 Z" fill="#9b542e"/>
    <path d="M7 79 C28 90 42 66 64 78 C88 91 101 66 126 78 C143 86 154 83 171 75" stroke="#fff4d2" stroke-width="12" fill="none" stroke-linecap="round"/>
    <rect x="69" y="126" width="34" height="62" rx="14" fill="#5b3322"/>
    <circle cx="42" cy="108" r="12" fill="#7fe0a3"/>
    <circle cx="127" cy="108" r="12" fill="#ff756d"/>
    <path d="M32 148 H55 M114 148 H138" stroke="#fff4d2" stroke-width="8" stroke-linecap="round"/>
    <circle cx="84" cy="154" r="3" fill="#fff4d2"/>
  </g>
</svg>