<svg xmlns="http://www.w3.org/2000/svg" viewBox="0 0 1600 900" preserveAspectRatio="xMidYMid slice"><defs><linearGradient id="bg0" x1="0" y1="0" x2="0" y2="1"><stop offset="0%" stop-color="#64B5F6"/><stop offset="100%" stop-color="#E3F2FD"/></linearGradient><linearGradient id="hill10" x1="0" y1="0" x2="0" y2="1"><stop offset="0%" stop-color="#FFFFFF"/><stop offset="100%" stop-color="#E3F2FD"/></linearGradient><linearGradient id="hill20" x1="0" y1="0" x2="0" y2="1"><stop offset="0%" stop-color="#F5F5F5"/><stop offset="100%" stop-color="#BBDEFB"/></linearGradient></defs><rect width="1600" height="900" fill="url(#bg0)"/><circle cx="1300" cy="200" r="80" fill="#FFEB3B" opacity="0.9"/><path d="M 0 600 Q 400 450 800 600 T 1600 550 L 1600 900 L 0 900 Z" fill="url(#hill20)"/><g transform="translate(961,585) scale(0.9035667001171853)"><rect x="-6" y="-10" width="12" height="20" fill="#795548" rx="2"/><path d="M -40 -10 L 40 -10 L 0 -50 Z" fill="#2E7D32"/><path d="M -30 -30 L 30 -30 L 0 -70 Z" fill="#43A047"/><path d="M -20 -50 L 20 -50 L 0 -90 Z" fill="#4CAF50"/><circle cx="-15" cy="-20" r="3.5" fill="#FF9800"/><circle cx="10" cy="-25" r="3.5" fill="#AB47BC"/><circle cx="-5" cy="-40" r="3.5" fill="#AB47BC"/><circle cx="15" cy="-45" r="3.5" fill="#29B6F6"/><circle cx="-10" cy="-60" r="3.5" fill="#AB47BC"/><circle cx="0" cy="-30" r="3.5" fill="#29B6F6"/><circle cx="20" cy="-15" r="3.5" fill="#FF9800"/><circle cx="-25" cy="-12" r="3.5" fill="#FFEB3B"/><polygon points="0,-95 3,-85 12,-85 5,-80 8,-70 0,-76 -8,-70 -5,-80 -12,-85 -3,-85" fill="#FFC107"/></g><g transform="translate(1133,597) scale(0.9127351377598816)"><rect x="-6" y="-10" width="12" height="20" fill="#795548" rx="2"/><path d="M -40 -10 L 40 -10 L 0 -50 Z" fill="#2E7D32"/><path d="M -30 -30 L 30 -30 L 0 -70 Z" fill="#43A047"/><path d="M -20 -50 L 20 -50 L 0 -90 Z" fill="#4CAF50"/><circle cx="-15" cy="-20" r="3.5" fill="#F44336"/><circle cx="10" cy="-25" r="3.5" fill="#FF9800"/><circle cx="-5" cy="-40" r="3.5" fill="#29B6F6"/><circle cx="15" cy="-45" r="3.5" fill="#FF9800"/><circle cx="-10" cy="-60" r="3.5" fill="#FF9800"/><circle cx="0" cy="-30" r="3.5" fill="#FFEB3B"/><circle cx="20" cy="-15" r="3.5" fill="#29B6F6"/><circle cx="-25" cy="-12" r="3.5" fill="#F44336"/><polygon points="0,-95 3,-85 12,-85 5,-80 8,-70 0,-76 -8,-70 -5,-80 -12,-85 -3,-85" fill="#FFC107"/></g><g transform="translate(251,622) scale(0.9888570861810854)"><rect x="-6" y="-10" width="12" height="20" fill="#795548" rx="2"/><path d="M -40 -10 L 40 -10 L 0 -50 Z" fill="#2E7D32"/><path d="M -30 -30 L 30 -30 L 0 -70 Z" fill="#43A047"/><path d="M -20 -50 L 20 -50 L 0 -90 Z" fill="#4CAF50"/><circle cx="-15" cy="-20" r="3.5" fill="#F44336"/><circle cx="10" cy="-25" r="3.5" fill="#29B6F6"/><circle cx="-5" cy="-40" r="3.5" fill="#AB47BC"/><circle cx="15" cy="-45" r="3.5" fill="#29B6F6"/><circle cx="-10" cy="-60" r="3.5" fill="#FF9800"/><circle cx="0" cy="-30" r="3.5" fill="#FFEB3B"/><circle cx="20" cy="-15" r="3.5" fill="#FF9800"/><circle cx="-25" cy="-12" r="3.5" fill="#AB47BC"/><polygon points="0,-95 3,-85 12,-85 5,-80 8,-70 0,-76 -8,-70 -5,-80 -12,-85 -3,-85" fill="#FFC107"/></g><g transform="translate(1006,646) scale(0.9041969241567838)"><rect x="-6" y="-10" width="12" height="20" fill="#795548" rx="2"/><path d="M -40 -10 L 40 -10 L 0 -50 Z" fill="#2E7D32"/><path d="M -30 -30 L 30 -30 L 0 -70 Z" fill="#43A047"/><path d="M -20 -50 L 20 -50 L 0 -90 Z" fill="#4CAF50"/><circle cx="-15" cy="-20" r="3.5" fill="#FF9800"/><circle cx="10" cy="-25" r="3.5" fill="#F44336"/><circle cx="-5" cy="-40" r="3.5" fill="#F44336"/><circle cx="15" cy="-45" r="3.5" fill="#AB47BC"/><circle cx="-10" cy="-60" r="3.5" fill="#F44336"/><circle cx="0" cy="-30" r="3.5" fill="#FF9800"/><circle cx="20" cy="-15" r="3.5" fill="#AB47BC"/><circle cx="-25" cy="-12" r="3.5" fill="#29B6F6"/><polygon points="0,-95 3,-85 12,-85 5,-80 8,-70 0,-76 -8,-70 -5,-80 -12,-85 -3,-85" fill="#FFC107"/></g><g transform="translate(599,621) scale(1.081457018466208)"><rect x="-6" y="-10" width="12" height="20" fill="#795548" rx="2"/><path d="M -40 -10 L 40 -10 L 0 -50 Z" fill="#2E7D32"/><path d="M -30 -30 L 30 -30 L 0 -70 Z" fill="#43A047"/><path d="M -20 -50 L 20 -50 L 0 -90 Z" fill="#4CAF50"/><circle cx="-15" cy="-20" r="3.5" fill="#F44336"/><circle cx="10" cy="-25" r="3.5" fill="#FFEB3B"/><circle cx="-5" cy="-40" r="3.5" fill="#FF9800"/><circle cx="15" cy="-45" r="3.5" fill="#FFEB3B"/><circle cx="-10" cy="-60" r="3.5" fill="#FFEB3B"/><circle cx="0" cy="-30" r="3.5" fill="#FFEB3B"/><circle cx="20" cy="-15" r="3.5" fill="#FF9800"/><circle cx="-25" cy="-12" r="3.5" fill="#AB47BC"/><polygon points="0,-95 3,-85 12,-85 5,-80 8,-70 0,-76 -8,-70 -5,-80 -12,-85 -3,-85" fill="#FFC107"/></g><g transform="translate(286,590) scale(1.1972886214257912)"><rect x="-6" y="-10" width="12" height="20" fill="#795548" rx="2"/><path d="M -40 -10 L 40 -10 L 0 -50 Z" fill="#2E7D32"/><path d="M -30 -30 L 30 -30 L 0 -70 Z" fill="#43A047"/><path d="M -20 -50 L 20 -50 L 0 -90 Z" fill="#4CAF50"/><circle cx="-15" cy="-20" r="3.5" fill="#FF9800"/><circle cx="10" cy="-25" r="3.5" fill="#AB47BC"/><circle cx="-5" cy="-40" r="3.5" fill="#F44336"/><circle cx="15" cy="-45" r="3.5" fill="#29B6F6"/><circle cx="-10" cy="-60" r="3.5" fill="#FF9800"/><circle cx="0" cy="-30" r="3.5" fill="#29B6F6"/><circle cx="20" cy="-15" r="3.5" fill="#F44336"/><circle cx="-25" cy="-12" r="3.5" fill="#FF9800"/><polygon points="0,-95 3,-85 12,-85 5,-80 8,-70 0,-76 -8,-70 -5,-80 -12,-85 -3,-85" fill="#FFC107"/></g><g transform="translate(781,649) scale(0.8812807409877733)"><rect x="-6" y="-10" width="12" height="20" fill="#795548" rx="2"/><path d="M -40 -10 L 40 -10 L 0 -50 Z" fill="#2E7D32"/><path d="M -30 -30 L 30 -30 L 0 -70 Z" fill="#43A047"/><path d="M -20 -50 L 20 -50 L 0 -90 Z" fill="#4CAF50"/><circle cx="-15" cy="-20" r="3.5" fill="#FF9800"/><circle cx="10" cy="-25" r="3.5" fill="#FF9800"/><circle cx="-5" cy="-40" r="3.5" fill="#FF9800"/><circle cx="15" cy="-45" r="3.5" fill="#29B6F6"/><circle cx="-10" cy="-60" r="3.5" fill="#AB47BC"/><circle cx="0" cy="-30" r="3.5" fill="#F44336"/><circle cx="20" cy="-15" r="3.5" fill="#FF9800"/><circle cx="-25" cy="-12" r="3.5" fill="#AB47BC"/><polygon points="0,-95 3,-85 12,-85 5,-80 8,-70 0,-76 -8,-70 -5,-80 -12,-85 -3,-85" fill="#FFC107"/></g><g transform="translate(749,610) scale(0.9161318009611032)"><rect x="-6" y="-10" width="12" height="20" fill="#795548" rx="2"/><path d="M -40 -10 L 40 -10 L 0 -50 Z" fill="#2E7D32"/><path d="M -30 -30 L 30 -30 L 0 -70 Z" fill="#43A047"/><path d="M -20 -50 L 20 -50 L 0 -90 Z" fill="#4CAF50"/><circle cx="-15" cy="-20" r="3.5" fill="#FFEB3B"/><circle cx="10" cy="-25" r="3.5" fill="#FFEB3B"/><circle cx="-5" cy="-40" r="3.5" fill="#F44336"/><circle cx="15" cy="-45" r="3.5" fill="#FF9800"/><circle cx="-10" cy="-60" r="3.5" fill="#29B6F6"/><circle cx="0" cy="-30" r="3.5" fill="#AB47BC"/><circle cx="20" cy="-15" r="3.5" fill="#F44336"/><circle cx="-25" cy="-12" r="3.5" fill="#F44336"/><polygon points="0,-95 3,-85 12,-85 5,-80 8,-70 0,-76 -8,-70 -5,-80 -12,-85 -3,-85" fill="#FFC107"/></g><path d="M 0 700 Q 600 550 1200 750 T 1600 650 L 1600 900 L 0 900 Z" fill="url(#hill10)"/><g transform="translate(466,699) scale(2.4233810159462807)"><rect x="-40" y="-40" width="80" height="40" fill="#795548"/><rect x="-10" y="-20" width="20" height="20" fill="#FF9800" rx="2"/><circle cx="6" cy="-10" r="2" fill="#FFE082"/><rect x="-30" y="-25" width="12" height="12" fill="#FFF59D" rx="1"/><rect x="18" y="-25" width="12" height="12" fill="#FFF59D" rx="1"/><circle cx="0" cy="-10" r="4" fill="none" stroke="#4CAF50" stroke-width="2"/><circle cx="0" cy="-14" r="1" fill="#F44336"/><path d="M -50 -40 L 0 -80 L 50 -40 Z" fill="#D32F2F"/><path d="M -50 -40 L 0 -80 L 50 -40" fill="none" stroke="#FFFFFF" stroke-width="8" stroke-linecap="round" stroke-linejoin="round"/></g><g transform="translate(364,749) scale(2.183498385483742)"><rect x="-40" y="-40" width="80" height="40" fill="#795548"/><rect x="-10" y="-20" width="20" height="20" fill="#FF9800" rx="2"/><circle cx="6" cy="-10" r="2" fill="#FFE082"/><rect x="-30" y="-25" width="12" height="12" fill="#FFF59D" rx="1"/><rect x="18" y="-25" width="12" height="12" fill="#FFF59D" rx="1"/><circle cx="0" cy="-10" r="4" fill="none" stroke="#4CAF50" stroke-width="2"/><circle cx="0" cy="-14" r="1" fill="#F44336"/><path d="M -50 -40 L 0 -80 L 50 -40 Z" fill="#D32F2F"/><path d="M -50 -40 L 0 -80 L 50 -40" fill="none" stroke="#FFFFFF" stroke-width="8" stroke-linecap="round" stroke-linejoin="round"/></g><g transform="translate(1274,715) scale(2.0217901007207386)"><rect x="-40" y="-40" width="80" height="40" fill="#795548"/><rect x="-10" y="-20" width="20" height="20" fill="#FF9800" rx="2"/><circle cx="6" cy="-10" r="2" fill="#FFE082"/><rect x="-30" y="-25" width="12" height="12" fill="#FFF59D" rx="1"/><rect x="18" y="-25" width="12" height="12" fill="#FFF59D" rx="1"/><circle cx="0" cy="-10" r="4" fill="none" stroke="#4CAF50" stroke-width="2"/><circle cx="0" cy="-14" r="1" fill="#F44336"/><path d="M -50 -40 L 0 -80 L 50 -40 Z" fill="#D32F2F"/><path d="M -50 -40 L 0 -80 L 50 -40" fill="none" stroke="#FFFFFF" stroke-width="8" stroke-linecap="round" stroke-linejoin="round"/></g><g transform="translate(682,707) scale(2.395038967426675)"><rect x="-40" y="-40" width="80" height="40" fill="#795548"/><rect x="-10" y="-20" width="20" height="20" fill="#FF9800" rx="2"/><circle cx="6" cy="-10" r="2" fill="#FFE082"/><rect x="-30" y="-25" width="12" height="12" fill="#FFF59D" rx="1"/><rect x="18" y="-25" width="12" height="12" fill="#FFF59D" rx="1"/><circle cx="0" cy="-10" r="4" fill="none" stroke="#4CAF50" stroke-width="2"/><circle cx="0" cy="-14" r="1" fill="#F44336"/><path d="M -50 -40 L 0 -80 L 50 -40 Z" fill="#D32F2F"/><path d="M -50 -40 L 0 -80 L 50 -40" fill="none" stroke="#FFFFFF" stroke-width="8" stroke-linecap="round" stroke-linejoin="round"/></g><g transform="translate(1307,753) scale(1.5478170064473635)"><rect x="-6" y="-10" width="12" height="20" fill="#795548" rx="2"/><path d="M -40 -10 L 40 -10 L 0 -50 Z" fill="#2E7D32"/><path d="M -30 -30 L 30 -30 L 0 -70 Z" fill="#43A047"/><path d="M -20 -50 L 20 -50 L 0 -90 Z" fill="#4CAF50"/><circle cx="-15" cy="-20" r="3.5" fill="#AB47BC"/><circle cx="10" cy="-25" r="3.5" fill="#AB47BC"/><circle cx="-5" cy="-40" r="3.5" fill="#29B6F6"/><circle cx="15" cy="-45" r="3.5" fill="#F44336"/><circle cx="-10" cy="-60" r="3.5" fill="#29B6F6"/><circle cx="0" cy="-30" r="3.5" fill="#FF9800"/><circle cx="20" cy="-15" r="3.5" fill="#F44336"/><circle cx="-25" cy="-12" r="3.5" fill="#AB47BC"/><polygon points="0,-95 3,-85 12,-85 5,-80 8,-70 0,-76 -8,-70 -5,-80 -12,-85 -3,-85" fill="#FFC107"/></g><g transform="translate(1302,780) scale(1.4011622869003306)"><rect x="-6" y="-10" width="12" height="20" fill="#795548" rx="2"/><path d="M -40 -10 L 40 -10 L 0 -50 Z" fill="#2E7D32"/><path d="M -30 -30 L 30 -30 L 0 -70 Z" fill="#43A047"/><path d="M -20 -50 L 20 -50 L 0 -90 Z" fill="#4CAF50"/><circle cx="-15" cy="-20" r="3.5" fill="#FFEB3B"/><circle cx="10" cy="-25" r="3.5" fill="#FFEB3B"/><circle cx="-5" cy="-40" r="3.5" fill="#F44336"/><circle cx="15" cy="-45" r="3.5" fill="#29B6F6"/><circle cx="-10" cy="-60" r="3.5" fill="#F44336"/><circle cx="0" cy="-30" r="3.5" fill="#FFEB3B"/><circle cx="20" cy="-15" r="3.5" fill="#29B6F6"/><circle cx="-25" cy="-12" r="3.5" fill="#FFEB3B"/><polygon points="0,-95 3,-85 12,-85 5,-80 8,-70 0,-76 -8,-70 -5,-80 -12,-85 -3,-85" fill="#FFC107"/></g><g transform="translate(781,754) scale(1.6895478579201957)"><rect x="-6" y="-10" width="12" height="20" fill="#795548" rx="2"/><path d="M -40 -10 L 40 -10 L 0 -50 Z" fill="#2E7D32"/><path d="M -30 -30 L 30 -30 L 0 -70 Z" fill="#43A047"/><path d="M -20 -50 L 20 -50 L 0 -90 Z" fill="#4CAF50"/><circle cx="-15" cy="-20" r="3.5" fill="#F44336"/><circle cx="10" cy="-25" r="3.5" fill="#FFEB3B"/><circle cx="-5" cy="-40" r="3.5" fill="#FFEB3B"/><circle cx="15" cy="-45" r="3.5" fill="#F44336"/><circle cx="-10" cy="-60" r="3.5" fill="#FF9800"/><circle cx="0" cy="-30" r="3.5" fill="#FF9800"/><circle cx="20" cy="-15" r="3.5" fill="#FF9800"/><circle cx="-25" cy="-12" r="3.5" fill="#F44336"/><polygon points="0,-95 3,-85 12,-85 5,-80 8,-70 0,-76 -8,-70 -5,-80 -12,-85 -3,-85" fill="#FFC107"/></g><g transform="translate(154,715) scale(1.5809999459468749)"><rect x="-6" y="-10" width="12" height="20" fill="#795548" rx="2"/><path d="M -40 -10 L 40 -10 L 0 -50 Z" fill="#2E7D32"/><path d="M -30 -30 L 30 -30 L 0 -70 Z" fill="#43A047"/><path d="M -20 -50 L 20 -50 L 0 -90 Z" fill="#4CAF50"/><circle cx="-15" cy="-20" r="3.5" fill="#FF9800"/><circle cx="10" cy="-25" r="3.5" fill="#FF9800"/><circle cx="-5" cy="-40" r="3.5" fill="#F44336"/><circle cx="15" cy="-45" r="3.5" fill="#AB47BC"/><circle cx="-10" cy="-60" r="3.5" fill="#F44336"/><circle cx="0" cy="-30" r="3.5" fill="#29B6F6"/><circle cx="20" cy="-15" r="3.5" fill="#F44336"/><circle cx="-25" cy="-12" r="3.5" fill="#F44336"/><polygon points="0,-95 3,-85 12,-85 5,-80 8,-70 0,-76 -8,-70 -5,-80 -12,-85 -3,-85" fill="#FFC107"/></g><g transform="translate(1340,702) scale(1.316754573409399)"><rect x="-6" y="-10" width="12" height="20" fill="#795548" rx="2"/><path d="M -40 -10 L 40 -10 L 0 -50 Z" fill="#2E7D32"/><path d="M -30 -30 L 30 -30 L 0 -70 Z" fill="#43A047"/><path d="M -20 -50 L 20 -50 L 0 -90 Z" fill="#4CAF50"/><circle cx="-15" cy="-20" r="3.5" fill="#FFEB3B"/><circle cx="10" cy="-25" r="3.5" fill="#F44336"/><circle cx="-5" cy="-40" r="3.5" fill="#AB47BC"/><circle cx="15" cy="-45" r="3.5" fill="#FFEB3B"/><circle cx="-10" cy="-60" r="3.5" fill="#F44336"/><circle cx="0" cy="-30" r="3.5" fill="#F44336"/><circle cx="20" cy="-15" r="3.5" fill="#FF9800"/><circle cx="-25" cy="-12" r="3.5" fill="#AB47BC"/><polygon points="0,-95 3,-85 12,-85 5,-80 8,-70 0,-76 -8,-70 -5,-80 -12,-85 -3,-85" fill="#FFC107"/></g><circle cx="1270" cy="103" r="5.343610622284409" fill="#FFFFFF" opacity="0.5280017203713335"/><circle cx="147" cy="662" r="3.2042461440054764" fill="#FFFFFF" opacity="0.6744274591813024"/><circle cx="125" cy="515" r="3.868524910193047" fill="#FFFFFF" opacity="0.738593969049815"/><circle cx="1432" cy="400" r="2.797423161868252" fill="#FFFFFF" opacity="0.6434221205246408"/><circle cx="1498" cy="481" r="5.353306260773666" fill="#FFFFFF" opacity="0.8673928247981326"/><circle cx="346" cy="714" r="4.69056225429221" fill="#FFFFFF" opacity="0.8866195612172734"/><circle cx="118" cy="807" r="4.704807137197513" fill="#FFFFFF" opacity="0.8381698374806466"/><circle cx="701" cy="542" r="3.0027493571404467" fill="#FFFFFF" opacity="0.7387165573877644"/><circle cx="905" cy="681" r="2.6992779378057645" fill="#FFFFFF" opacity="0.6886501660385151"/><circle cx="839" cy="582" r="5.499218777078394" fill="#FFFFFF" opacity="0.8670044491036117"/><circle cx="1329" cy="365" r="3.5545689713257898" fill="#FFFFFF" opacity="0.7630464799729963"/><circle cx="314" cy="574" r="4.763291031492839" fill="#FFFFFF" opacity="0.6831816814588737"/><circle cx="161" cy="343" r="4.956064464023605" fill="#FFFFFF" opacity="0.7177277990605926"/><circle cx="276" cy="245" r="5.048666624818127" fill="#FFFFFF" opacity="0.6927308331496285"/><circle cx="1249" cy="294" r="4.693613837933576" fill="#FFFFFF" opacity="0.7361110745278174"/><circle cx="1297" cy="874" r="4.484307382474669" fill="#FFFFFF" opacity="0.7862477401205825"/><circle cx="794" cy="766" r="3.657671953108989" fill="#FFFFFF" opacity="0.7603331449053381"/><circle cx="3" cy="608" r="2.7692381649787032" fill="#FFFFFF" opacity="0.6337606762650007"/><circle cx="490" cy="228" r="4.549597604517201" fill="#FFFFFF" opacity="0.6514592281292377"/><circle cx="1379" cy="581" r="5.498150599432182" fill="#FFFFFF" opacity="0.5126181912489745"/><circle cx="1437" cy="581" r="3.672906213169864" fill="#FFFFFF" opacity="0.764878355589527"/><circle cx="95" cy="169" r="3.7814087588753194" fill="#FFFFFF" opacity="0.6036907693788891"/><circle cx="322" cy="457" r="4.110292520670459" fill="#FFFFFF" opacity="0.6949062404276128"/><circle cx="1149" cy="618" r="5.02193906903473" fill="#FFFFFF" opacity="0.8535500616994804"/><circle cx="1012" cy="333" r="3.248232985667492" fill="#FFFFFF" opacity="0.6867568941410094"/><circle cx="850" cy="192" r="4.19424825905026" fill="#FFFFFF" opacity="0.8852151084932349"/><circle cx="170" cy="857" r="4.90221742184525" fill="#FFFFFF" opacity="0.8947285920820514"/><circle cx="822" cy="694" r="3.6699403022580483" fill="#FFFFFF" opacity="0.5013571238920828"/><circle cx="29" cy="734" r="5.019015282462762" fill="#FFFFFF" opacity="0.8920978570661885"/><circle cx="1383" cy="541" r="4.448247852855454" fill="#FFFFFF" opacity="0.5761839721170183"/><circle cx="1245" cy="664" r="2.79406550150078" fill="#FFFFFF" opacity="0.6209664174317799"/><circle cx="1410" cy="186" r="2.400722756254836" fill="#FFFFFF" opacity="0.8415752438389352"/><circle cx="812" cy="642" r="2.3253816670729366" fill="#FFFFFF" opacity="0.6098855373677048"/><circle cx="927" cy="819" r="5.169366124742609" fill="#FFFFFF" opacity="0.8445439614548944"/><circle cx="273" cy="669" r="4.083462113656795" fill="#FFFFFF" opacity="0.760313295259895"/><circle cx="710" cy="117" r="5.4874553428423445" fill="#FFFFFF" opacity="0.6113639260865442"/><circle cx="38" cy="43" r="2.1626530947010436" fill="#FFFFFF" opacity="0.7723987080444974"/><circle cx="1143" cy="322" r="5.786010216679983" fill="#FFFFFF" opacity="0.8753755198939674"/><circle cx="86" cy="866" r="4.996539293563453" fill="#FFFFFF" opacity="0.7805299270379439"/><circle cx="1342" cy="506" r="4.849430610064967" fill="#FFFFFF" opacity="0.8610840602477323"/><circle cx="1311" cy="445" r="3.489797051889024" fill="#FFFFFF" opacity="0.7151715134927282"/><circle cx="425" cy="384" r="4.348502018780573" fill="#FFFFFF" opacity="0.5035588328196315"/><circle cx="309" cy="277" r="3.3336335521194655" fill="#FFFFFF" opacity="0.8158492635703131"/><circle cx="1471" cy="95" r="3.3530238801067145" fill="#FFFFFF" opacity="0.7482152433266207"/><circle cx="84" cy="276" r="2.655442182702304" fill="#FFFFFF" opacity="0.8927656280501222"/><circle cx="592" cy="369" r="3.5791679319531626" fill="#FFFFFF" opacity="0.7193937186290054"/><circle cx="600" cy="117" r="3.912258676604084" fill="#FFFFFF" opacity="0.5958824334554496"/><circle cx="98" cy="315" r="2.7183473961662226" fill="#FFFFFF" opacity="0.7092200926800393"/><circle cx="145" cy="309" r="3.612676585780374" fill="#FFFFFF" opacity="0.6314082840061948"/><circle cx="849" cy="111" r="2.3976013529548044" fill="#FFFFFF" opacity="0.8634630217587123"/><circle cx="970" cy="345" r="5.363393330510686" fill="#FFFFFF" opacity="0.8904917830596228"/><circle cx="703" cy="127" r="3.9163460766079443" fill="#FFFFFF" opacity="0.7798381164602475"/><circle cx="873" cy="38" r="3.207612464877424" fill="#FFFFFF" opacity="0.793900396487446"/><circle cx="318" cy="170" r="4.50696818722747" fill="#FFFFFF" opacity="0.6502285385314182"/><circle cx="1308" cy="89" r="2.263338709109204" fill="#FFFFFF" opacity="0.5338678276480444"/><circle cx="1535" cy="226" r="2.2446246261838643" fill="#FFFFFF" opacity="0.5031404021325008"/><circle cx="806" cy="569" r="4.076014914805317" fill="#FFFFFF" opacity="0.6794177142386219"/><circle cx="1000" cy="807" r="4.339554807973098" fill="#FFFFFF" opacity="0.7717210269488499"/><circle cx="866" cy="85" r="3.4733258253377035" fill="#FFFFFF" opacity="0.8953836232397159"/><circle cx="534" cy="599" r="5.108400618034038" fill="#FFFFFF" opacity="0.6724884098528177"/><circle cx="734" cy="117" r="2.2554317957753147" fill="#FFFFFF" opacity="0.845431577720817"/><circle cx="1437" cy="28" r="5.612042830163709" fill="#FFFFFF" opacity="0.680644717074747"/><circle cx="1386" cy="206" r="2.475641146215423" fill="#FFFFFF" opacity="0.6591814406409253"/><circle cx="424" cy="656" r="2.168405711562648" fill="#FFFFFF" opacity="0.879184540502528"/><circle cx="442" cy="638" r="2.5854179592320228" fill="#FFFFFF" opacity="0.5791880174231769"/><circle cx="774" cy="370" r="4.185565049260455" fill="#FFFFFF" opacity="0.5605337473891564"/><circle cx="1221" cy="499" r="2.5936080683441194" fill="#FFFFFF" opacity="0.6623627532671795"/><circle cx="1392" cy="433" r="5.510626331604381" fill="#FFFFFF" opacity="0.6981623699644754"/><circle cx="660" cy="853" r="3.9937635659630013" fill="#FFFFFF" opacity="0.6994586367460036"/><circle cx="1372" cy="895" r="2.8079652351978144" fill="#FFFFFF" opacity="0.7439082441667122"/><circle cx="448" cy="9" r="3.360881260204128" fill="#FFFFFF" opacity="0.8850265853018727"/><circle cx="651" cy="837" r="3.287299544676192" fill="#FFFFFF" opacity="0.7100429539333787"/><circle cx="526" cy="617" r="5.136666272756617" fill="#FFFFFF" opacity="0.8369333308309469"/><circle cx="1193" cy="301" r="4.872526607107318" fill="#FFFFFF" opacity="0.8228221519900303"/><circle cx="135" cy="819" r="2.3385725473322805" fill="#FFFFFF" opacity="0.8475581256017515"/><circle cx="80" cy="67" r="2.900362614705984" fill="#FFFFFF" opacity="0.5162528106583604"/><circle cx="31" cy="777" r="5.375818742769631" fill="#FFFFFF" opacity="0.6322377469000321"/><circle cx="329" cy="819" r="2.595277961155638" fill="#FFFFFF" opacity="0.7624334647081348"/><circle cx="760" cy="517" r="3.528930243882253" fill="#FFFFFF" opacity="0.711923064298715"/><circle cx="68" cy="587" r="2.3625875615647836" fill="#FFFFFF" opacity="0.8176580631885231"/><circle cx="1060" cy="776" r="4.400569140628951" fill="#FFFFFF" opacity="0.5305432431309384"/><circle cx="873" cy="772" r="2.824419328262333" fill="#FFFFFF" opacity="0.7141665217314324"/><circle cx="1225" cy="427" r="5.302786468641415" fill="#FFFFFF" opacity="0.6928854252263664"/><circle cx="795" cy="622" r="4.345553822325798" fill="#FFFFFF" opacity="0.8405266429924272"/><circle cx="41" cy="672" r="5.541020184762498" fill="#FFFFFF" opacity="0.7962981616913346"/><circle cx="619" cy="519" r="4.281066544486862" fill="#FFFFFF" opacity="0.6330743255186702"/><circle cx="1010" cy="880" r="3.0480301363154356" fill="#FFFFFF" opacity="0.8300081351483013"/><circle cx="1582" cy="417" r="3.536638909877465" fill="#FFFFFF" opacity="0.653471771068152"/><circle cx="335" cy="656" r="5.7420973517692335" fill="#FFFFFF" opacity="0.5955806800338278"/><circle cx="1493" cy="849" r="3.33609858320734" fill="#FFFFFF" opacity="0.8767448396561558"/><circle cx="985" cy="427" r="2.5636195090958758" fill="#FFFFFF" opacity="0.8559845950106537"/><circle cx="1232" cy="734" r="2.3264785609705387" fill="#FFFFFF" opacity="0.7794785623293333"/><circle cx="722" cy="421" r="2.140719163768615" fill="#FFFFFF" opacity="0.6865115832885593"/><circle cx="939" cy="48" r="2.405922039475715" fill="#FFFFFF" opacity="0.8112593416910403"/><circle cx="41" cy="33" r="4.393201041740191" fill="#FFFFFF" opacity="0.553080781191487"/><circle cx="663" cy="107" r="4.800318764124625" fill="#FFFFFF" opacity="0.7595969031651855"/><circle cx="399" cy="392" r="5.133667879593965" fill="#FFFFFF" opacity="0.8109843954155436"/><circle cx="227" cy="61" r="4.440478971624893" fill="#FFFFFF" opacity="0.6868753660152281"/><circle cx="1294" cy="345" r="4.601888719925993" fill="#FFFFFF" opacity="0.8877941688374568"/><circle cx="1461" cy="636" r="3.185545557396605" fill="#FFFFFF" opacity="0.8396526221248779"/><circle cx="793" cy="818" r="3.175214139130336" fill="#FFFFFF" opacity="0.7983136411682805"/><circle cx="1394" cy="829" r="2.486209616631487" fill="#FFFFFF" opacity="0.8441728734537636"/><circle cx="387" cy="39" r="5.128456425429176" fill="#FFFFFF" opacity="0.6778318416225363"/><circle cx="1549" cy="195" r="3.821880947248751" fill="#FFFFFF" opacity="0.8158234913111133"/><circle cx="154" cy="45" r="5.607710091301488" fill="#FFFFFF" opacity="0.5159922703688297"/><circle cx="523" cy="27" r="5.77913300752828" fill="#FFFFFF" opacity="0.7666044609822534"/><circle cx="1171" cy="896" r="2.8639175364272367" fill="#FFFFFF" opacity="0.5373904877196033"/><circle cx="1284" cy="798" r="4.009651443317605" fill="#FFFFFF" opacity="0.7094846141937706"/><circle cx="1038" cy="312" r="5.781942192120698" fill="#FFFFFF" opacity="0.5582761687814303"/><circle cx="1159" cy="432" r="5.691522332550051" fill="#FFFFFF" opacity="0.8743019077323813"/><circle cx="851" cy="64" r="2.396843952392383" fill="#FFFFFF" opacity="0.8095274929885774"/><circle cx="1503" cy="31" r="5.165371401510196" fill="#FFFFFF" opacity="0.6724345257473532"/><circle cx="854" cy="30" r="3.9864990985179647" fill="#FFFFFF" opacity="0.8456230698890761"/><circle cx="664" cy="739" r="3.010343702987985" fill="#FFFFFF" opacity="0.6410012098262592"/><circle cx="248" cy="367" r="4.7671006032639" fill="#FFFFFF" opacity="0.6381780426140956"/><circle cx="364" cy="10" r="5.321080207059488" fill="#FFFFFF" opacity="0.5921974146932563"/><circle cx="749" cy="72" r="4.386356141967627" fill="#FFFFFF" opacity="0.5573164558648409"/><circle cx="6" cy="209" r="4.636073967032407" fill="#FFFFFF" opacity="0.7928405908890435"/><circle cx="252" cy="765" r="2.028738269009082" fill="#FFFFFF" opacity="0.6476520588680102"/><circle cx="50" cy="619" r="2.9314524191372278" fill="#FFFFFF" opacity="0.556754974088048"/><circle cx="929" cy="115" r="3.9067756338253496" fill="#FFFFFF" opacity="0.7829921929811583"/><circle cx="528" cy="133" r="2.1117449690854326" fill="#FFFFFF" opacity="0.5832480501003261"/><circle cx="686" cy="484" r="5.843628415245771" fill="#FFFFFF" opacity="0.618538656643411"/><circle cx="1132" cy="651" r="3.307936554671691" fill="#FFFFFF" opacity="0.7372077584056609"/><circle cx="165" cy="105" r="4.132911520625632" fill="#FFFFFF" opacity="0.6231049989354701"/><circle cx="771" cy="150" r="5.78271356598246" fill="#FFFFFF" opacity="0.8217561192000431"/><circle cx="646" cy="520" r="2.9713547598319408" fill="#FFFFFF" opacity="0.8019433652876151"/><circle cx="596" cy="381" r="3.6791415114163013" fill="#FFFFFF" opacity="0.5185022707610565"/><circle cx="270" cy="615" r="2.0821984825671067" fill="#FFFFFF" opacity="0.5311684480374144"/><circle cx="149" cy="135" r="3.6809268086965874" fill="#FFFFFF" opacity="0.7203108710549752"/><circle cx="1517" cy="145" r="4.364306075042151" fill="#FFFFFF" opacity="0.6192112435012044"/><circle cx="726" cy="86" r="2.99223400487933" fill="#FFFFFF" opacity="0.753111598996091"/><circle cx="1304" cy="541" r="2.231428455604069" fill="#FFFFFF" opacity="0.6634504884732593"/><circle cx="854" cy="745" r="5.605049321671456" fill="#FFFFFF" opacity="0.6765189534544654"/><circle cx="761" cy="300" r="5.809363736834751" fill="#FFFFFF" opacity="0.5364225952335249"/><circle cx="379" cy="815" r="2.434461065440483" fill="#FFFFFF" opacity="0.5448634968941855"/><circle cx="1240" cy="704" r="2.6155153452055795" fill="#FFFFFF" opacity="0.7810392363255154"/><circle cx="816" cy="189" r="5.0705629712851135" fill="#FFFFFF" opacity="0.6726865982256448"/><circle cx="507" cy="464" r="3.3615516107411576" fill="#FFFFFF" opacity="0.7093394581752046"/><circle cx="727" cy="473" r="4.526067693153129" fill="#FFFFFF" opacity="0.5345997586348294"/><circle cx="1546" cy="208" r="3.1789132953239427" fill="#FFFFFF" opacity="0.8320695063441745"/><circle cx="919" cy="633" r="3.8480433823995783" fill="#FFFFFF" opacity="0.5874936738567356"/><circle cx="234" cy="787" r="5.915210057166826" fill="#FFFFFF" opacity="0.6204635874784235"/><circle cx="1247" cy="159" r="3.696836283990563" fill="#FFFFFF" opacity="0.8005409999830572"/><circle cx="189" cy="694" r="3.9907183873680183" fill="#FFFFFF" opacity="0.8843672342072806"/><circle cx="1113" cy="780" r="3.621220418217432" fill="#FFFFFF" opacity="0.7528262406111215"/><circle cx="44" cy="123" r="3.0803136194860343" fill="#FFFFFF" opacity="0.7673954666869256"/><circle cx="0" cy="262" r="3.5937144317061276" fill="#FFFFFF" opacity="0.8562247234035021"/><circle cx="1454" cy="405" r="3.778338196934215" fill="#FFFFFF" opacity="0.7986203797239306"/><circle cx="724" cy="290" r="5.485192082977976" fill="#FFFFFF" opacity="0.7690189567469785"/></svg>