<svg xmlns="http://www.w3.org/2000/svg" viewBox="0 0 1600 1000" preserveAspectRatio="xMidYMid slice">
  <defs>
    <linearGradient id="g" x1="0" y1="0" x2="1" y2="1">
      <stop offset="0" stop-color="#0e3a2f"/>
      <stop offset=".58" stop-color="#143b4f"/>
      <stop offset="1" stop-color="#0e3a2f"/>
    </linearGradient>
    <radialGradient id="warm" cx=".18" cy=".12" r=".62">
      <stop offset="0" stop-color="#f4c35f" stop-opacity=".32"/>
      <stop offset="1" stop-color="#f4c35f" stop-opacity="0"/>
    </radialGradient>
    <radialGradient id="cool" cx=".86" cy=".24" r=".58">
      <stop offset="0" stop-color="#7ee0a2" stop-opacity=".24"/>
      <stop offset="1" stop-color="#7ee0a2" stop-opacity="0"/>
    </radialGradient>
  </defs>
  <rect width="1600" height="1000" fill="url(#g)"/>
  <rect width="1600" height="1000" fill="url(#warm)"/>
  <rect width="1600" height="1000" fill="url(#cool)"/>
  <circle cx="1280" cy="820" r="360" fill="#ffffff" opacity=".06"/>
  <circle cx="130" cy="930" r="310" fill="#ffffff" opacity=".05"/>
  <circle cx="1388" cy="809" r="133" fill="#f4c35f" opacity="0.09"/>
<circle cx="961" cy="780" r="105" fill="#ff6c73" opacity="0.15"/>
<circle cx="544" cy="1065" r="237" fill="#ff6c73" opacity="0.22"/>
<circle cx="1428" cy="16" r="218" fill="#ff6c73" opacity="0.14"/>
<circle cx="915" cy="625" r="230" fill="#f4c35f" opacity="0.09"/>
<circle cx="300" cy="371" r="106" fill="#ff6c73" opacity="0.12"/>
<circle cx="678" cy="-76" r="123" fill="#7ee0a2" opacity="0.18"/>
<circle cx="975" cy="569" r="124" fill="#f4c35f" opacity="0.13"/>
<circle cx="261" cy="1047" r="129" fill="#7ee0a2" opacity="0.17"/>
<circle cx="-20" cy="613" r="105" fill="#f4c35f" opacity="0.20"/>
<circle cx="709" cy="794" r="120" fill="#7ee0a2" opacity="0.14"/>
<circle cx="300" cy="205" r="98" fill="#ff6c73" opacity="0.19"/>
<circle cx="1255" cy="1043" r="114" fill="#f4c35f" opacity="0.16"/>
<circle cx="1683" cy="321" r="236" fill="#ff6c73" opacity="0.11"/>
<circle cx="365" cy="776" r="76" fill="#ff6c73" opacity="0.17"/>
<circle cx="1224" cy="411" r="139" fill="#f4c35f" opacity="0.16"/><circle cx="1396" cy="622" r="0.9" fill="#fff" opacity="0.45"/>
<circle cx="1529" cy="854" r="1.8" fill="#fff" opacity="0.20"/>
<circle cx="756" cy="448" r="1.6" fill="#fff" opacity="0.23"/>
<circle cx="1398" cy="467" r="1.7" fill="#fff" opacity="0.30"/>
<circle cx="775" cy="996" r="2.0" fill="#fff" opacity="0.38"/>
<circle cx="101" cy="93" r="1.4" fill="#fff" opacity="0.42"/>
<circle cx="739" cy="663" r="1.9" fill="#fff" opacity="0.54"/>
<circle cx="1152" cy="374" r="1.8" fill="#fff" opacity="0.43"/>
<circle cx="69" cy="826" r="1.6" fill="#fff" opacity="0.27"/>
<circle cx="853" cy="64" r="0.7" fill="#fff" opacity="0.47"/>
<circle cx="739" cy="70" r="1.9" fill="#fff" opacity="0.28"/>
<circle cx="663" cy="360" r="1.6" fill="#fff" opacity="0.54"/>
<circle cx="44" cy="745" r="0.7" fill="#fff" opacity="0.59"/>
<circle cx="1507" cy="736" r="1.2" fill="#fff" opacity="0.28"/>
<circle cx="1330" cy="938" r="1.2" fill="#fff" opacity="0.20"/>
<circle cx="558" cy="734" r="1.0" fill="#fff" opacity="0.24"/>
<circle cx="545" cy="632" r="1.8" fill="#fff" opacity="0.37"/>
<circle cx="214" cy="570" r="1.8" fill="#fff" opacity="0.30"/>
<circle cx="489" cy="90" r="1.5" fill="#fff" opacity="0.24"/>
<circle cx="718" cy="30" r="0.9" fill="#fff" opacity="0.25"/>
<circle cx="1183" cy="160" r="1.8" fill="#fff" opacity="0.47"/>
<circle cx="1086" cy="295" r="1.5" fill="#fff" opacity="0.43"/>
<circle cx="1113" cy="899" r="1.2" fill="#fff" opacity="0.27"/>
<circle cx="1422" cy="169" r="1.4" fill="#fff" opacity="0.41"/>
<circle cx="1403" cy="8" r="1.3" fill="#fff" opacity="0.21"/>
<circle cx="110" cy="229" r="2.0" fill="#fff" opacity="0.36"/>
<circle cx="647" cy="69" r="1.0" fill="#fff" opacity="0.61"/>
<circle cx="95" cy="222" r="2.1" fill="#fff" opacity="0.49"/>
<circle cx="1155" cy="718" r="1.5" fill="#fff" opacity="0.51"/>
<circle cx="572" cy="943" r="1.7" fill="#fff" opacity="0.55"/>
<circle cx="1113" cy="689" r="2.1" fill="#fff" opacity="0.50"/>
<circle cx="613" cy="655" r="0.7" fill="#fff" opacity="0.30"/>
<circle cx="1055" cy="894" r="0.7" fill="#fff" opacity="0.44"/>
<circle cx="910" cy="225" r="1.3" fill="#fff" opacity="0.51"/>
<circle cx="1266" cy="365" r="2.3" fill="#fff" opacity="0.56"/>
<circle cx="740" cy="955" r="0.9" fill="#fff" opacity="0.34"/>
<circle cx="140" cy="937" r="1.5" fill="#fff" opacity="0.45"/>
<circle cx="340" cy="669" r="2.1" fill="#fff" opacity="0.50"/>
<circle cx="580" cy="666" r="1.2" fill="#fff" opacity="0.40"/>
<circle cx="88" cy="751" r="1.9" fill="#fff" opacity="0.59"/>
<circle cx="1217" cy="589" r="0.8" fill="#fff" opacity="0.51"/>
<circle cx="357" cy="148" r="1.9" fill="#fff" opacity="0.48"/>
<circle cx="404" cy="169" r="1.0" fill="#fff" opacity="0.60"/>
<circle cx="156" cy="173" r="2.3" fill="#fff" opacity="0.45"/>
<circle cx="217" cy="280" r="1.5" fill="#fff" opacity="0.22"/>
<circle cx="231" cy="368" r="1.6" fill="#fff" opacity="0.60"/>
<circle cx="320" cy="338" r="2.2" fill="#fff" opacity="0.39"/>
<circle cx="1106" cy="76" r="1.8" fill="#fff" opacity="0.21"/>
<circle cx="605" cy="232" r="1.4" fill="#fff" opacity="0.44"/>
<circle cx="1163" cy="59" r="1.4" fill="#fff" opacity="0.40"/>
<circle cx="548" cy="969" r="1.0" fill="#fff" opacity="0.41"/>
<circle cx="61" cy="471" r="2.1" fill="#fff" opacity="0.53"/>
<circle cx="416" cy="1000" r="0.8" fill="#fff" opacity="0.29"/>
<circle cx="931" cy="460" r="1.3" fill="#fff" opacity="0.53"/>
<circle cx="231" cy="802" r="1.0" fill="#fff" opacity="0.54"/>
<circle cx="16" cy="263" r="1.9" fill="#fff" opacity="0.33"/>
<circle cx="1527" cy="155" r="2.3" fill="#fff" opacity="0.58"/>
<circle cx="1170" cy="482" r="2.0" fill="#fff" opacity="0.21"/>
<circle cx="1061" cy="764" r="0.9" fill="#fff" opacity="0.41"/>
<circle cx="509" cy="602" r="1.1" fill="#fff" opacity="0.58"/>
<circle cx="1123" cy="825" r="1.1" fill="#fff" opacity="0.40"/>
<circle cx="582" cy="366" r="2.1" fill="#fff" opacity="0.35"/>
<circle cx="1217" cy="503" r="1.8" fill="#fff" opacity="0.45"/>
<circle cx="1200" cy="522" r="0.8" fill="#fff" opacity="0.53"/>
<circle cx="1257" cy="514" r="1.1" fill="#fff" opacity="0.40"/>
<circle cx="734" cy="669" r="2.0" fill="#fff" opacity="0.23"/>
<circle cx="868" cy="70" r="1.0" fill="#fff" opacity="0.60"/>
<circle cx="1316" cy="415" r="1.3" fill="#fff" opacity="0.24"/>
<circle cx="508" cy="704" r="1.1" fill="#fff" opacity="0.37"/>
<circle cx="910" cy="716" r="2.0" fill="#fff" opacity="0.31"/>
<circle cx="768" cy="512" r="1.9" fill="#fff" opacity="0.61"/>
<circle cx="232" cy="91" r="2.2" fill="#fff" opacity="0.57"/>
<circle cx="1339" cy="52" r="0.8" fill="#fff" opacity="0.30"/>
<circle cx="83" cy="617" r="1.5" fill="#fff" opacity="0.53"/>
<circle cx="525" cy="384" r="1.3" fill="#fff" opacity="0.46"/>
<circle cx="1341" cy="780" r="1.0" fill="#fff" opacity="0.53"/>
<circle cx="169" cy="415" r="1.0" fill="#fff" opacity="0.32"/>
<circle cx="411" cy="352" r="1.5" fill="#fff" opacity="0.33"/>
<circle cx="1486" cy="539" r="2.1" fill="#fff" opacity="0.52"/>
<circle cx="517" cy="783" r="1.8" fill="#fff" opacity="0.53"/>
<circle cx="979" cy="431" r="2.3" fill="#fff" opacity="0.52"/>
<circle cx="1517" cy="910" r="1.6" fill="#fff" opacity="0.34"/>
<circle cx="1332" cy="938" r="0.9" fill="#fff" opacity="0.35"/>
<circle cx="1085" cy="980" r="2.3" fill="#fff" opacity="0.39"/>
<circle cx="1564" cy="815" r="1.9" fill="#fff" opacity="0.23"/>
<circle cx="1200" cy="656" r="0.7" fill="#fff" opacity="0.40"/>
<circle cx="354" cy="812" r="1.9" fill="#fff" opacity="0.58"/>
<circle cx="418" cy="487" r="1.7" fill="#fff" opacity="0.31"/>
<circle cx="938" cy="506" r="2.3" fill="#fff" opacity="0.18"/>
<circle cx="345" cy="477" r="1.8" fill="#fff" opacity="0.32"/>
  <rect width="1600" height="1000" fill="#000" opacity=".08"/>
</svg>