<svg xmlns="http://www.w3.org/2000/svg" viewBox="0 0 1200 800" width="1200" height="800">
  <defs>
    <radialGradient id="g" cx="50%" cy="42%" r="75%">
      <stop offset="0" stop-color="#143d34"/>
      <stop offset="1" stop-color="#0c3028"/>
    </radialGradient>
    <pattern id="snow" width="120" height="120" patternUnits="userSpaceOnUse">
      <circle cx="20" cy="28" r="2.4" fill="#fff" opacity=".55"/>
      <circle cx="90" cy="70" r="1.8" fill="#fff" opacity=".45"/>
      <circle cx="64" cy="18" r="1.3" fill="#fff" opacity=".35"/>
      <circle cx="42" cy="100" r="1.7" fill="#fff" opacity=".4"/>
    </pattern>
    <linearGradient id="shine" x1="0" x2="1" y1="0" y2="1">
      <stop offset="0" stop-color="#ffffff" stop-opacity=".16"/>
      <stop offset="1" stop-color="#ffffff" stop-opacity="0"/>
    </linearGradient>
  </defs>
  <rect width="1200" height="800" fill="url(#g)"/>
  <rect width="1200" height="800" fill="url(#snow)"/>
  <circle cx="-60" cy="820" r="360" fill="#fff" opacity=".08"/>
  <circle cx="1260" cy="-70" r="390" fill="#ffd56c" opacity=".10"/>
  
<g transform="translate(920 255)">
  <path d="M-210 80 C-150 130 30 130 90 82" fill="none" stroke="#ffd56c" stroke-width="10" stroke-linecap="round"/>
  <rect x="-170" y="10" width="150" height="65" rx="28" fill="#d9444b"/>
  <rect x="-45" y="30" width="95" height="50" rx="24" fill="#c62f36"/>
  <circle cx="55" cy="28" r="25" fill="#ffd5b4"/>
  <path d="M33 9 C52 -20 77 0 77 0 L68 9 C57 0 44 5 42 17" fill="#fff1c4"/>
  <path d="M-224 68 L-115 68" stroke="#fff2b8" stroke-width="9" stroke-linecap="round"/>
  <path d="M-190 55 q-55 -12 -95 28" fill="none" stroke="#8b4b2e" stroke-width="7"/>
  <circle cx="-286" cy="82" r="14" fill="#6b3a28"/>
</g>
<g transform="translate(265 590)"><path d="M0 0 h650" stroke="#ffffff" opacity=".24" stroke-width="3"/></g>
  <rect width="1200" height="800" fill="url(#shine)"/>
</svg>