<svg xmlns="http://www.w3.org/2000/svg" viewBox="0 0 1600 900" preserveAspectRatio="xMidYMid slice"><defs><linearGradient id="bg1" x1="0" y1="0" x2="0" y2="1"><stop offset="0%" stop-color="#1A237E"/><stop offset="100%" stop-color="#3949AB"/></linearGradient><linearGradient id="hill11" x1="0" y1="0" x2="0" y2="1"><stop offset="0%" stop-color="#FFFFFF"/><stop offset="100%" stop-color="#E3F2FD"/></linearGradient><linearGradient id="hill21" x1="0" y1="0" x2="0" y2="1"><stop offset="0%" stop-color="#F5F5F5"/><stop offset="100%" stop-color="#BBDEFB"/></linearGradient></defs><rect width="1600" height="900" fill="url(#bg1)"/><circle cx="1300" cy="200" r="60" fill="#FFF9C4" opacity="0.9"/><circle cx="1300" cy="200" r="120" fill="#FFF9C4" opacity="0.1"/><circle cx="163" cy="458" r="2.7449849928585754" fill="#FFFFFF" opacity="0.5868776043269837"/><circle cx="1004" cy="247" r="1.2641422581403605" fill="#FFFFFF" opacity="0.6993319185353672"/><circle cx="651" cy="329" r="2.589018726983382" fill="#FFFFFF" opacity="0.7225699038029851"/><circle cx="199" cy="330" r="2.988753182255732" fill="#FFFFFF" opacity="0.3940014874531304"/><circle cx="541" cy="499" r="2.1418777712158192" fill="#FFFFFF" opacity="0.6510510428973042"/><circle cx="519" cy="203" r="2.761006948109097" fill="#FFFFFF" opacity="0.792764659037053"/><circle cx="464" cy="426" r="2.2625954509127872" fill="#FFFFFF" opacity="0.33743125226273085"/><circle cx="48" cy="492" r="1.4003453201373932" fill="#FFFFFF" opacity="0.7849847811201898"/><circle cx="1024" cy="106" r="1.372606052020324" fill="#FFFFFF" opacity="0.6375195090872557"/><circle cx="337" cy="492" r="2.7700499905119385" fill="#FFFFFF" opacity="0.5758846576644268"/><circle cx="1218" cy="238" r="2.7896323903844107" fill="#FFFFFF" opacity="0.7686795836108267"/><circle cx="753" cy="66" r="2.322303737007171" fill="#FFFFFF" opacity="0.5498307841455583"/><circle cx="30" cy="383" r="1.1101362592420314" fill="#FFFFFF" opacity="0.7950643670237927"/><circle cx="1479" cy="431" r="2.3083091114623873" fill="#FFFFFF" opacity="0.5020034372625671"/><circle cx="561" cy="435" r="2.0030080282173826" fill="#FFFFFF" opacity="0.3211338062271014"/><circle cx="1583" cy="84" r="1.9072411926995811" fill="#FFFFFF" opacity="0.35453214953231493"/><circle cx="1253" cy="283" r="2.586441742950663" fill="#FFFFFF" opacity="0.4047530145484925"/><circle cx="209" cy="407" r="1.1212198467193812" fill="#FFFFFF" opacity="0.308177777819266"/><circle cx="1283" cy="144" r="1.2951290346054483" fill="#FFFFFF" opacity="0.5346155479193808"/><circle cx="693" cy="440" r="1.9338658436095864" fill="#FFFFFF" opacity="0.3497449040207571"/><circle cx="74" cy="209" r="2.047358514123604" fill="#FFFFFF" opacity="0.684876863573739"/><circle cx="1163" cy="48" r="2.71406841162776" fill="#FFFFFF" opacity="0.7911498825961156"/><circle cx="117" cy="142" r="1.7598417926429648" fill="#FFFFFF" opacity="0.4550347539499483"/><circle cx="1576" cy="252" r="1.1021991503320252" fill="#FFFFFF" opacity="0.6092276147514282"/><circle cx="957" cy="23" r="1.1033611813031494" fill="#FFFFFF" opacity="0.7205809115893043"/><circle cx="206" cy="335" r="1.212532851865492" fill="#FFFFFF" opacity="0.7176170828881867"/><circle cx="204" cy="287" r="1.9800476329511136" fill="#FFFFFF" opacity="0.371024438121207"/><circle cx="828" cy="85" r="1.9048157712493279" fill="#FFFFFF" opacity="0.31975700073771623"/><circle cx="614" cy="314" r="2.0591276154893086" fill="#FFFFFF" opacity="0.6837284419926091"/><circle cx="926" cy="24" r="2.9853118082947088" fill="#FFFFFF" opacity="0.7284823480626423"/><circle cx="1188" cy="142" r="2.9349817302759487" fill="#FFFFFF" opacity="0.6008432007279918"/><circle cx="461" cy="180" r="1.0672919685080822" fill="#FFFFFF" opacity="0.5445049603644454"/><circle cx="16" cy="199" r="1.828975907753662" fill="#FFFFFF" opacity="0.5505211433243945"/><circle cx="1533" cy="313" r="1.270163824399183" fill="#FFFFFF" opacity="0.32498705606850686"/><circle cx="442" cy="228" r="1.5639406942420906" fill="#FFFFFF" opacity="0.4209921352856945"/><circle cx="1102" cy="369" r="1.715174644036085" fill="#FFFFFF" opacity="0.6718951076258158"/><circle cx="1597" cy="252" r="1.0795375367738984" fill="#FFFFFF" opacity="0.47534849896903447"/><circle cx="553" cy="204" r="2.1381683754795677" fill="#FFFFFF" opacity="0.35319006493809985"/><circle cx="844" cy="20" r="2.554556047549958" fill="#FFFFFF" opacity="0.49606407085744575"/><circle cx="816" cy="384" r="2.323730086125896" fill="#FFFFFF" opacity="0.3894487829497045"/><circle cx="100" cy="346" r="1.4892680448125524" fill="#FFFFFF" opacity="0.636630001766338"/><circle cx="1577" cy="455" r="2.459843187993272" fill="#FFFFFF" opacity="0.6001050969643624"/><circle cx="1169" cy="204" r="1.5864090157566182" fill="#FFFFFF" opacity="0.5550301542221375"/><circle cx="809" cy="373" r="1.6410162474111663" fill="#FFFFFF" opacity="0.6904861648482851"/><circle cx="1176" cy="491" r="1.6871318499067078" fill="#FFFFFF" opacity="0.411753544802188"/><circle cx="1245" cy="55" r="2.084772888841778" fill="#FFFFFF" opacity="0.39284705415620363"/><circle cx="7" cy="197" r="2.5939410272415917" fill="#FFFFFF" opacity="0.6718713927085017"/><circle cx="441" cy="68" r="2.8784248810356377" fill="#FFFFFF" opacity="0.43798124517787745"/><circle cx="1196" cy="391" r="2.2465182271929303" fill="#FFFFFF" opacity="0.4685159905754793"/><circle cx="1370" cy="134" r="1.8101571073095" fill="#FFFFFF" opacity="0.327526705541508"/><path d="M 0 600 Q 400 450 800 600 T 1600 550 L 1600 900 L 0 900 Z" fill="url(#hill21)"/><g transform="translate(966,634) scale(0.8635100455598143)"><rect x="-6" y="-10" width="12" height="20" fill="#795548" rx="2"/><path d="M -40 -10 L 40 -10 L 0 -50 Z" fill="#2E7D32"/><path d="M -30 -30 L 30 -30 L 0 -70 Z" fill="#43A047"/><path d="M -20 -50 L 20 -50 L 0 -90 Z" fill="#4CAF50"/><circle cx="-15" cy="-20" r="3.5" fill="#AB47BC"/><circle cx="10" cy="-25" r="3.5" fill="#FF9800"/><circle cx="-5" cy="-40" r="3.5" fill="#29B6F6"/><circle cx="15" cy="-45" r="3.5" fill="#AB47BC"/><circle cx="-10" cy="-60" r="3.5" fill="#FF9800"/><circle cx="0" cy="-30" r="3.5" fill="#F44336"/><circle cx="20" cy="-15" r="3.5" fill="#F44336"/><circle cx="-25" cy="-12" r="3.5" fill="#FFEB3B"/><polygon points="0,-95 3,-85 12,-85 5,-80 8,-70 0,-76 -8,-70 -5,-80 -12,-85 -3,-85" fill="#FFC107"/></g><g transform="translate(1356,629) scale(1.149480572058773)"><rect x="-6" y="-10" width="12" height="20" fill="#795548" rx="2"/><path d="M -40 -10 L 40 -10 L 0 -50 Z" fill="#2E7D32"/><path d="M -30 -30 L 30 -30 L 0 -70 Z" fill="#43A047"/><path d="M -20 -50 L 20 -50 L 0 -90 Z" fill="#4CAF50"/><circle cx="-15" cy="-20" r="3.5" fill="#FF9800"/><circle cx="10" cy="-25" r="3.5" fill="#FF9800"/><circle cx="-5" cy="-40" r="3.5" fill="#29B6F6"/><circle cx="15" cy="-45" r="3.5" fill="#F44336"/><circle cx="-10" cy="-60" r="3.5" fill="#FFEB3B"/><circle cx="0" cy="-30" r="3.5" fill="#F44336"/><circle cx="20" cy="-15" r="3.5" fill="#F44336"/><circle cx="-25" cy="-12" r="3.5" fill="#29B6F6"/><polygon points="0,-95 3,-85 12,-85 5,-80 8,-70 0,-76 -8,-70 -5,-80 -12,-85 -3,-85" fill="#FFC107"/></g><g transform="translate(1008,597) scale(1.1256621640731455)"><rect x="-6" y="-10" width="12" height="20" fill="#795548" rx="2"/><path d="M -40 -10 L 40 -10 L 0 -50 Z" fill="#2E7D32"/><path d="M -30 -30 L 30 -30 L 0 -70 Z" fill="#43A047"/><path d="M -20 -50 L 20 -50 L 0 -90 Z" fill="#4CAF50"/><circle cx="-15" cy="-20" r="3.5" fill="#FFEB3B"/><circle cx="10" cy="-25" r="3.5" fill="#F44336"/><circle cx="-5" cy="-40" r="3.5" fill="#FFEB3B"/><circle cx="15" cy="-45" r="3.5" fill="#FFEB3B"/><circle cx="-10" cy="-60" r="3.5" fill="#FF9800"/><circle cx="0" cy="-30" r="3.5" fill="#F44336"/><circle cx="20" cy="-15" r="3.5" fill="#F44336"/><circle cx="-25" cy="-12" r="3.5" fill="#F44336"/><polygon points="0,-95 3,-85 12,-85 5,-80 8,-70 0,-76 -8,-70 -5,-80 -12,-85 -3,-85" fill="#FFC107"/></g><g transform="translate(1195,634) scale(0.9106242118892086)"><rect x="-6" y="-10" width="12" height="20" fill="#795548" rx="2"/><path d="M -40 -10 L 40 -10 L 0 -50 Z" fill="#2E7D32"/><path d="M -30 -30 L 30 -30 L 0 -70 Z" fill="#43A047"/><path d="M -20 -50 L 20 -50 L 0 -90 Z" fill="#4CAF50"/><circle cx="-15" cy="-20" r="3.5" fill="#FF9800"/><circle cx="10" cy="-25" r="3.5" fill="#29B6F6"/><circle cx="-5" cy="-40" r="3.5" fill="#AB47BC"/><circle cx="15" cy="-45" r="3.5" fill="#AB47BC"/><circle cx="-10" cy="-60" r="3.5" fill="#F44336"/><circle cx="0" cy="-30" r="3.5" fill="#FFEB3B"/><circle cx="20" cy="-15" r="3.5" fill="#FFEB3B"/><circle cx="-25" cy="-12" r="3.5" fill="#29B6F6"/><polygon points="0,-95 3,-85 12,-85 5,-80 8,-70 0,-76 -8,-70 -5,-80 -12,-85 -3,-85" fill="#FFC107"/></g><g transform="translate(895,644) scale(1.172888139770397)"><rect x="-6" y="-10" width="12" height="20" fill="#795548" rx="2"/><path d="M -40 -10 L 40 -10 L 0 -50 Z" fill="#2E7D32"/><path d="M -30 -30 L 30 -30 L 0 -70 Z" fill="#43A047"/><path d="M -20 -50 L 20 -50 L 0 -90 Z" fill="#4CAF50"/><circle cx="-15" cy="-20" r="3.5" fill="#AB47BC"/><circle cx="10" cy="-25" r="3.5" fill="#AB47BC"/><circle cx="-5" cy="-40" r="3.5" fill="#FFEB3B"/><circle cx="15" cy="-45" r="3.5" fill="#AB47BC"/><circle cx="-10" cy="-60" r="3.5" fill="#FFEB3B"/><circle cx="0" cy="-30" r="3.5" fill="#F44336"/><circle cx="20" cy="-15" r="3.5" fill="#F44336"/><circle cx="-25" cy="-12" r="3.5" fill="#29B6F6"/><polygon points="0,-95 3,-85 12,-85 5,-80 8,-70 0,-76 -8,-70 -5,-80 -12,-85 -3,-85" fill="#FFC107"/></g><g transform="translate(965,646) scale(0.8064974293706404)"><rect x="-6" y="-10" width="12" height="20" fill="#795548" rx="2"/><path d="M -40 -10 L 40 -10 L 0 -50 Z" fill="#2E7D32"/><path d="M -30 -30 L 30 -30 L 0 -70 Z" fill="#43A047"/><path d="M -20 -50 L 20 -50 L 0 -90 Z" fill="#4CAF50"/><circle cx="-15" cy="-20" r="3.5" fill="#FF9800"/><circle cx="10" cy="-25" r="3.5" fill="#FFEB3B"/><circle cx="-5" cy="-40" r="3.5" fill="#AB47BC"/><circle cx="15" cy="-45" r="3.5" fill="#F44336"/><circle cx="-10" cy="-60" r="3.5" fill="#29B6F6"/><circle cx="0" cy="-30" r="3.5" fill="#FF9800"/><circle cx="20" cy="-15" r="3.5" fill="#FF9800"/><circle cx="-25" cy="-12" r="3.5" fill="#F44336"/><polygon points="0,-95 3,-85 12,-85 5,-80 8,-70 0,-76 -8,-70 -5,-80 -12,-85 -3,-85" fill="#FFC107"/></g><g transform="translate(724,650) scale(0.9632992833973428)"><rect x="-6" y="-10" width="12" height="20" fill="#795548" rx="2"/><path d="M -40 -10 L 40 -10 L 0 -50 Z" fill="#2E7D32"/><path d="M -30 -30 L 30 -30 L 0 -70 Z" fill="#43A047"/><path d="M -20 -50 L 20 -50 L 0 -90 Z" fill="#4CAF50"/><circle cx="-15" cy="-20" r="3.5" fill="#FF9800"/><circle cx="10" cy="-25" r="3.5" fill="#29B6F6"/><circle cx="-5" cy="-40" r="3.5" fill="#29B6F6"/><circle cx="15" cy="-45" r="3.5" fill="#F44336"/><circle cx="-10" cy="-60" r="3.5" fill="#FF9800"/><circle cx="0" cy="-30" r="3.5" fill="#29B6F6"/><circle cx="20" cy="-15" r="3.5" fill="#29B6F6"/><circle cx="-25" cy="-12" r="3.5" fill="#29B6F6"/><polygon points="0,-95 3,-85 12,-85 5,-80 8,-70 0,-76 -8,-70 -5,-80 -12,-85 -3,-85" fill="#FFC107"/></g><g transform="translate(1072,605) scale(1.0585452280751797)"><rect x="-6" y="-10" width="12" height="20" fill="#795548" rx="2"/><path d="M -40 -10 L 40 -10 L 0 -50 Z" fill="#2E7D32"/><path d="M -30 -30 L 30 -30 L 0 -70 Z" fill="#43A047"/><path d="M -20 -50 L 20 -50 L 0 -90 Z" fill="#4CAF50"/><circle cx="-15" cy="-20" r="3.5" fill="#AB47BC"/><circle cx="10" cy="-25" r="3.5" fill="#29B6F6"/><circle cx="-5" cy="-40" r="3.5" fill="#F44336"/><circle cx="15" cy="-45" r="3.5" fill="#FFEB3B"/><circle cx="-10" cy="-60" r="3.5" fill="#FFEB3B"/><circle cx="0" cy="-30" r="3.5" fill="#29B6F6"/><circle cx="20" cy="-15" r="3.5" fill="#FFEB3B"/><circle cx="-25" cy="-12" r="3.5" fill="#FF9800"/><polygon points="0,-95 3,-85 12,-85 5,-80 8,-70 0,-76 -8,-70 -5,-80 -12,-85 -3,-85" fill="#FFC107"/></g><path d="M 0 700 Q 600 550 1200 750 T 1600 650 L 1600 900 L 0 900 Z" fill="url(#hill11)"/><g transform="translate(553,780) scale(2.1199041153594704)"><circle cx="0" cy="-20" r="20" fill="#FFFFFF"/><circle cx="0" cy="-55" r="16" fill="#FFFFFF"/><circle cx="0" cy="-85" r="12" fill="#FFFFFF"/><rect x="-15" y="-95" width="30" height="4" fill="#212121" rx="2"/><rect x="-10" y="-115" width="20" height="20" fill="#212121"/><rect x="-10" y="-99" width="20" height="4" fill="#F44336"/><circle cx="-4" cy="-87" r="1.5" fill="#212121"/><circle cx="4" cy="-87" r="1.5" fill="#212121"/><path d="M 0 -83 L 15 -78 L 0 -77 Z" fill="#FF9800"/><path d="M -12 -70 Q 0 -65 12 -70 L 14 -60 Q 0 -55 -14 -60 Z" fill="#F44336"/><path d="M 8 -65 L 12 -45 L 6 -45 Z" fill="#F44336"/><circle cx="0" cy="-60" r="1.5" fill="#212121"/><circle cx="0" cy="-50" r="1.5" fill="#212121"/><circle cx="0" cy="-25" r="2" fill="#212121"/><circle cx="0" cy="-10" r="2" fill="#212121"/></g><g transform="translate(629,825) scale(2.4507189169937798)"><circle cx="0" cy="-20" r="20" fill="#FFFFFF"/><circle cx="0" cy="-55" r="16" fill="#FFFFFF"/><circle cx="0" cy="-85" r="12" fill="#FFFFFF"/><rect x="-15" y="-95" width="30" height="4" fill="#212121" rx="2"/><rect x="-10" y="-115" width="20" height="20" fill="#212121"/><rect x="-10" y="-99" width="20" height="4" fill="#F44336"/><circle cx="-4" cy="-87" r="1.5" fill="#212121"/><circle cx="4" cy="-87" r="1.5" fill="#212121"/><path d="M 0 -83 L 15 -78 L 0 -77 Z" fill="#FF9800"/><path d="M -12 -70 Q 0 -65 12 -70 L 14 -60 Q 0 -55 -14 -60 Z" fill="#F44336"/><path d="M 8 -65 L 12 -45 L 6 -45 Z" fill="#F44336"/><circle cx="0" cy="-60" r="1.5" fill="#212121"/><circle cx="0" cy="-50" r="1.5" fill="#212121"/><circle cx="0" cy="-25" r="2" fill="#212121"/><circle cx="0" cy="-10" r="2" fill="#212121"/></g><g transform="translate(1110,755) scale(1.5775089962637057)"><circle cx="0" cy="-20" r="20" fill="#FFFFFF"/><circle cx="0" cy="-55" r="16" fill="#FFFFFF"/><circle cx="0" cy="-85" r="12" fill="#FFFFFF"/><rect x="-15" y="-95" width="30" height="4" fill="#212121" rx="2"/><rect x="-10" y="-115" width="20" height="20" fill="#212121"/><rect x="-10" y="-99" width="20" height="4" fill="#F44336"/><circle cx="-4" cy="-87" r="1.5" fill="#212121"/><circle cx="4" cy="-87" r="1.5" fill="#212121"/><path d="M 0 -83 L 15 -78 L 0 -77 Z" fill="#FF9800"/><path d="M -12 -70 Q 0 -65 12 -70 L 14 -60 Q 0 -55 -14 -60 Z" fill="#F44336"/><path d="M 8 -65 L 12 -45 L 6 -45 Z" fill="#F44336"/><circle cx="0" cy="-60" r="1.5" fill="#212121"/><circle cx="0" cy="-50" r="1.5" fill="#212121"/><circle cx="0" cy="-25" r="2" fill="#212121"/><circle cx="0" cy="-10" r="2" fill="#212121"/></g><g transform="translate(606,711) scale(1.547907726789643)"><rect x="-6" y="-10" width="12" height="20" fill="#795548" rx="2"/><path d="M -40 -10 L 40 -10 L 0 -50 Z" fill="#2E7D32"/><path d="M -30 -30 L 30 -30 L 0 -70 Z" fill="#43A047"/><path d="M -20 -50 L 20 -50 L 0 -90 Z" fill="#4CAF50"/><circle cx="-15" cy="-20" r="3.5" fill="#F44336"/><circle cx="10" cy="-25" r="3.5" fill="#FFEB3B"/><circle cx="-5" cy="-40" r="3.5" fill="#29B6F6"/><circle cx="15" cy="-45" r="3.5" fill="#29B6F6"/><circle cx="-10" cy="-60" r="3.5" fill="#FFEB3B"/><circle cx="0" cy="-30" r="3.5" fill="#F44336"/><circle cx="20" cy="-15" r="3.5" fill="#29B6F6"/><circle cx="-25" cy="-12" r="3.5" fill="#AB47BC"/><polygon points="0,-95 3,-85 12,-85 5,-80 8,-70 0,-76 -8,-70 -5,-80 -12,-85 -3,-85" fill="#FFC107"/></g><g transform="translate(998,790) scale(2.1572978843755193)"><rect x="-6" y="-10" width="12" height="20" fill="#795548" rx="2"/><path d="M -40 -10 L 40 -10 L 0 -50 Z" fill="#2E7D32"/><path d="M -30 -30 L 30 -30 L 0 -70 Z" fill="#43A047"/><path d="M -20 -50 L 20 -50 L 0 -90 Z" fill="#4CAF50"/><circle cx="-15" cy="-20" r="3.5" fill="#FF9800"/><circle cx="10" cy="-25" r="3.5" fill="#FF9800"/><circle cx="-5" cy="-40" r="3.5" fill="#FF9800"/><circle cx="15" cy="-45" r="3.5" fill="#29B6F6"/><circle cx="-10" cy="-60" r="3.5" fill="#FF9800"/><circle cx="0" cy="-30" r="3.5" fill="#FF9800"/><circle cx="20" cy="-15" r="3.5" fill="#F44336"/><circle cx="-25" cy="-12" r="3.5" fill="#FF9800"/><polygon points="0,-95 3,-85 12,-85 5,-80 8,-70 0,-76 -8,-70 -5,-80 -12,-85 -3,-85" fill="#FFC107"/></g><g transform="translate(653,795) scale(2.4522600865362802)"><rect x="-6" y="-10" width="12" height="20" fill="#795548" rx="2"/><path d="M -40 -10 L 40 -10 L 0 -50 Z" fill="#2E7D32"/><path d="M -30 -30 L 30 -30 L 0 -70 Z" fill="#43A047"/><path d="M -20 -50 L 20 -50 L 0 -90 Z" fill="#4CAF50"/><circle cx="-15" cy="-20" r="3.5" fill="#AB47BC"/><circle cx="10" cy="-25" r="3.5" fill="#29B6F6"/><circle cx="-5" cy="-40" r="3.5" fill="#29B6F6"/><circle cx="15" cy="-45" r="3.5" fill="#29B6F6"/><circle cx="-10" cy="-60" r="3.5" fill="#F44336"/><circle cx="0" cy="-30" r="3.5" fill="#AB47BC"/><circle cx="20" cy="-15" r="3.5" fill="#FFEB3B"/><circle cx="-25" cy="-12" r="3.5" fill="#29B6F6"/><polygon points="0,-95 3,-85 12,-85 5,-80 8,-70 0,-76 -8,-70 -5,-80 -12,-85 -3,-85" fill="#FFC107"/></g><g transform="translate(1375,751) scale(2.0574696144187437)"><rect x="-6" y="-10" width="12" height="20" fill="#795548" rx="2"/><path d="M -40 -10 L 40 -10 L 0 -50 Z" fill="#2E7D32"/><path d="M -30 -30 L 30 -30 L 0 -70 Z" fill="#43A047"/><path d="M -20 -50 L 20 -50 L 0 -90 Z" fill="#4CAF50"/><circle cx="-15" cy="-20" r="3.5" fill="#29B6F6"/><circle cx="10" cy="-25" r="3.5" fill="#AB47BC"/><circle cx="-5" cy="-40" r="3.5" fill="#FF9800"/><circle cx="15" cy="-45" r="3.5" fill="#FFEB3B"/><circle cx="-10" cy="-60" r="3.5" fill="#FFEB3B"/><circle cx="0" cy="-30" r="3.5" fill="#29B6F6"/><circle cx="20" cy="-15" r="3.5" fill="#F44336"/><circle cx="-25" cy="-12" r="3.5" fill="#AB47BC"/><polygon points="0,-95 3,-85 12,-85 5,-80 8,-70 0,-76 -8,-70 -5,-80 -12,-85 -3,-85" fill="#FFC107"/></g><g transform="translate(1366,765) scale(2.2200754003329917)"><rect x="-6" y="-10" width="12" height="20" fill="#795548" rx="2"/><path d="M -40 -10 L 40 -10 L 0 -50 Z" fill="#2E7D32"/><path d="M -30 -30 L 30 -30 L 0 -70 Z" fill="#43A047"/><path d="M -20 -50 L 20 -50 L 0 -90 Z" fill="#4CAF50"/><circle cx="-15" cy="-20" r="3.5" fill="#F44336"/><circle cx="10" cy="-25" r="3.5" fill="#FF9800"/><circle cx="-5" cy="-40" r="3.5" fill="#FF9800"/><circle cx="15" cy="-45" r="3.5" fill="#FF9800"/><circle cx="-10" cy="-60" r="3.5" fill="#F44336"/><circle cx="0" cy="-30" r="3.5" fill="#29B6F6"/><circle cx="20" cy="-15" r="3.5" fill="#FF9800"/><circle cx="-25" cy="-12" r="3.5" fill="#AB47BC"/><polygon points="0,-95 3,-85 12,-85 5,-80 8,-70 0,-76 -8,-70 -5,-80 -12,-85 -3,-85" fill="#FFC107"/></g><g transform="translate(1072,796) scale(2.2949275538279004)"><rect x="-6" y="-10" width="12" height="20" fill="#795548" rx="2"/><path d="M -40 -10 L 40 -10 L 0 -50 Z" fill="#2E7D32"/><path d="M -30 -30 L 30 -30 L 0 -70 Z" fill="#43A047"/><path d="M -20 -50 L 20 -50 L 0 -90 Z" fill="#4CAF50"/><circle cx="-15" cy="-20" r="3.5" fill="#FF9800"/><circle cx="10" cy="-25" r="3.5" fill="#F44336"/><circle cx="-5" cy="-40" r="3.5" fill="#29B6F6"/><circle cx="15" cy="-45" r="3.5" fill="#29B6F6"/><circle cx="-10" cy="-60" r="3.5" fill="#FF9800"/><circle cx="0" cy="-30" r="3.5" fill="#AB47BC"/><circle cx="20" cy="-15" r="3.5" fill="#FFEB3B"/><circle cx="-25" cy="-12" r="3.5" fill="#29B6F6"/><polygon points="0,-95 3,-85 12,-85 5,-80 8,-70 0,-76 -8,-70 -5,-80 -12,-85 -3,-85" fill="#FFC107"/></g><g transform="translate(740,777) scale(0.8635392923565666)"><rect x="-15" y="-30" width="30" height="30" fill="#9C27B0" rx="2"/><rect x="-4" y="-30" width="8" height="30" fill="#00E676"/><rect x="-15" y="-19" width="30" height="8" fill="#00E676"/><path d="M -2 -30 C -15 -45 0 -45 0 -30 Z" fill="#00E676"/><path d="M 2 -30 C 15 -45 0 -45 0 -30 Z" fill="#00E676"/></g><g transform="translate(704,792) scale(0.8618112511578293) rotate(14)"><path d="M 0 0 L 0 -30 A 10 10 0 0 1 20 -30 L 20 -20" fill="none" stroke="#FFFFFF" stroke-width="8" stroke-linecap="round"/><path d="M 0 -5 L 0 -15" stroke="#F44336" stroke-width="8"/><path d="M 0 -25 A 10 10 0 0 1 10 -40" stroke="#F44336" stroke-width="8" fill="none"/><path d="M 20 -30 L 20 -25" stroke="#F44336" stroke-width="8"/></g><g transform="translate(1244,768) scale(1.1989158430107902)"><rect x="-15" y="-30" width="30" height="30" fill="#9C27B0" rx="2"/><rect x="-4" y="-30" width="8" height="30" fill="#00E676"/><rect x="-15" y="-19" width="30" height="8" fill="#00E676"/><path d="M -2 -30 C -15 -45 0 -45 0 -30 Z" fill="#00E676"/><path d="M 2 -30 C 15 -45 0 -45 0 -30 Z" fill="#00E676"/></g><g transform="translate(163,822) scale(1.3990336226346987) rotate(14)"><path d="M 0 0 L 0 -30 A 10 10 0 0 1 20 -30 L 20 -20" fill="none" stroke="#FFFFFF" stroke-width="8" stroke-linecap="round"/><path d="M 0 -5 L 0 -15" stroke="#F44336" stroke-width="8"/><path d="M 0 -25 A 10 10 0 0 1 10 -40" stroke="#F44336" stroke-width="8" fill="none"/><path d="M 20 -30 L 20 -25" stroke="#F44336" stroke-width="8"/></g><g transform="translate(246,776) scale(1.2675825487157333)"><rect x="-15" y="-30" width="30" height="30" fill="#9C27B0" rx="2"/><rect x="-4" y="-30" width="8" height="30" fill="#00E676"/><rect x="-15" y="-19" width="30" height="8" fill="#00E676"/><path d="M -2 -30 C -15 -45 0 -45 0 -30 Z" fill="#00E676"/><path d="M 2 -30 C 15 -45 0 -45 0 -30 Z" fill="#00E676"/></g><g transform="translate(482,771) scale(1.3675198299918794) rotate(-10)"><path d="M 0 0 L 0 -30 A 10 10 0 0 1 20 -30 L 20 -20" fill="none" stroke="#FFFFFF" stroke-width="8" stroke-linecap="round"/><path d="M 0 -5 L 0 -15" stroke="#F44336" stroke-width="8"/><path d="M 0 -25 A 10 10 0 0 1 10 -40" stroke="#F44336" stroke-width="8" fill="none"/><path d="M 20 -30 L 20 -25" stroke="#F44336" stroke-width="8"/></g><g transform="translate(1453,808) scale(1.3454668131771057)"><rect x="-15" y="-30" width="30" height="30" fill="#2196F3" rx="2"/><rect x="-4" y="-30" width="8" height="30" fill="#F44336"/><rect x="-15" y="-19" width="30" height="8" fill="#F44336"/><path d="M -2 -30 C -15 -45 0 -45 0 -30 Z" fill="#F44336"/><path d="M 2 -30 C 15 -45 0 -45 0 -30 Z" fill="#F44336"/></g><g transform="translate(356,780) scale(0.9796068722652781) rotate(3)"><path d="M 0 0 L 0 -30 A 10 10 0 0 1 20 -30 L 20 -20" fill="none" stroke="#FFFFFF" stroke-width="8" stroke-linecap="round"/><path d="M 0 -5 L 0 -15" stroke="#F44336" stroke-width="8"/><path d="M 0 -25 A 10 10 0 0 1 10 -40" stroke="#F44336" stroke-width="8" fill="none"/><path d="M 20 -30 L 20 -25" stroke="#F44336" stroke-width="8"/></g><g transform="translate(126,794) scale(1.1674326210435537)"><rect x="-15" y="-30" width="30" height="30" fill="#F44336" rx="2"/><rect x="-4" y="-30" width="8" height="30" fill="#FFEB3B"/><rect x="-15" y="-19" width="30" height="8" fill="#FFEB3B"/><path d="M -2 -30 C -15 -45 0 -45 0 -30 Z" fill="#FFEB3B"/><path d="M 2 -30 C 15 -45 0 -45 0 -30 Z" fill="#FFEB3B"/></g><g transform="translate(1095,802) scale(1.0609472090877503) rotate(-18)"><path d="M 0 0 L 0 -30 A 10 10 0 0 1 20 -30 L 20 -20" fill="none" stroke="#FFFFFF" stroke-width="8" stroke-linecap="round"/><path d="M 0 -5 L 0 -15" stroke="#F44336" stroke-width="8"/><path d="M 0 -25 A 10 10 0 0 1 10 -40" stroke="#F44336" stroke-width="8" fill="none"/><path d="M 20 -30 L 20 -25" stroke="#F44336" stroke-width="8"/></g><circle cx="376" cy="182" r="3.9302964644843104" fill="#FFFFFF" opacity="0.5575254704642144"/><circle cx="814" cy="608" r="2.2108323824089133" fill="#FFFFFF" opacity="0.8274980845865771"/><circle cx="1385" cy="531" r="5.927498417367764" fill="#FFFFFF" opacity="0.6578101914759535"/><circle cx="231" cy="400" r="2.0281920837105503" fill="#FFFFFF" opacity="0.8371902487002476"/><circle cx="637" cy="166" r="2.2097117898833516" fill="#FFFFFF" opacity="0.6648561791422413"/><circle cx="1378" cy="704" r="3.367185217032957" fill="#FFFFFF" opacity="0.5928296184013888"/><circle cx="1457" cy="861" r="4.029227617210758" fill="#FFFFFF" opacity="0.5506969333766205"/><circle cx="65" cy="686" r="3.1117777097176904" fill="#FFFFFF" opacity="0.6396544071038051"/><circle cx="131" cy="457" r="3.9258403854282196" fill="#FFFFFF" opacity="0.573276032710524"/><circle cx="968" cy="310" r="3.3221551409188455" fill="#FFFFFF" opacity="0.7717196512227129"/><circle cx="485" cy="527" r="2.2472301991374053" fill="#FFFFFF" opacity="0.7987076453322878"/><circle cx="358" cy="321" r="5.2087335888596655" fill="#FFFFFF" opacity="0.8072383080667949"/><circle cx="991" cy="863" r="5.495914317301761" fill="#FFFFFF" opacity="0.7661554913678594"/><circle cx="999" cy="531" r="5.318590341993278" fill="#FFFFFF" opacity="0.5085776189231368"/><circle cx="1251" cy="406" r="3.519781582336832" fill="#FFFFFF" opacity="0.5369278599930588"/><circle cx="876" cy="5" r="2.7762515011880033" fill="#FFFFFF" opacity="0.8289070487462376"/><circle cx="337" cy="866" r="5.231920355862941" fill="#FFFFFF" opacity="0.5223029929188528"/><circle cx="245" cy="727" r="2.2339707222929754" fill="#FFFFFF" opacity="0.7544705978635139"/><circle cx="148" cy="210" r="2.7416429254066417" fill="#FFFFFF" opacity="0.5086356150118428"/><circle cx="1284" cy="228" r="2.2162278632267443" fill="#FFFFFF" opacity="0.5855848291816385"/><circle cx="596" cy="695" r="4.980683952737195" fill="#FFFFFF" opacity="0.5443584104937198"/><circle cx="1163" cy="415" r="3.23029299244707" fill="#FFFFFF" opacity="0.5733110155487326"/><circle cx="1240" cy="0" r="3.893314513546788" fill="#FFFFFF" opacity="0.7586683228065616"/><circle cx="30" cy="501" r="2.8247042161782607" fill="#FFFFFF" opacity="0.8982181820859717"/><circle cx="236" cy="836" r="3.7749156926137966" fill="#FFFFFF" opacity="0.6846600005790643"/><circle cx="866" cy="461" r="5.741147607165143" fill="#FFFFFF" opacity="0.6041269776745143"/><circle cx="1240" cy="100" r="5.10614276191645" fill="#FFFFFF" opacity="0.5142024311816046"/><circle cx="764" cy="294" r="2.1872809207578774" fill="#FFFFFF" opacity="0.8198722873120577"/><circle cx="796" cy="154" r="2.2590550302557" fill="#FFFFFF" opacity="0.8939732976189596"/><circle cx="677" cy="572" r="2.66758555921219" fill="#FFFFFF" opacity="0.899079461220714"/><circle cx="315" cy="787" r="4.1177261861335115" fill="#FFFFFF" opacity="0.6119219255594119"/><circle cx="416" cy="847" r="3.320138877017693" fill="#FFFFFF" opacity="0.5321022989585724"/><circle cx="281" cy="186" r="5.754619252090867" fill="#FFFFFF" opacity="0.7251917134407714"/><circle cx="815" cy="601" r="3.9911483255706606" fill="#FFFFFF" opacity="0.7982332726675112"/><circle cx="824" cy="490" r="5.40483867560158" fill="#FFFFFF" opacity="0.8058161020527089"/><circle cx="7" cy="843" r="2.5435248153393424" fill="#FFFFFF" opacity="0.5834929162107718"/><circle cx="104" cy="117" r="2.194202928020393" fill="#FFFFFF" opacity="0.643288278722763"/><circle cx="269" cy="655" r="5.577605997980971" fill="#FFFFFF" opacity="0.6423352170375874"/><circle cx="1000" cy="317" r="3.346554779757019" fill="#FFFFFF" opacity="0.5438926383122987"/><circle cx="768" cy="693" r="4.948247924373865" fill="#FFFFFF" opacity="0.779339289005305"/><circle cx="1419" cy="755" r="2.391977537633995" fill="#FFFFFF" opacity="0.7572097181813069"/><circle cx="1565" cy="551" r="3.183202810319315" fill="#FFFFFF" opacity="0.5433887007251295"/><circle cx="593" cy="485" r="2.2830597206070826" fill="#FFFFFF" opacity="0.6616544441630148"/><circle cx="850" cy="26" r="4.553553161538622" fill="#FFFFFF" opacity="0.588694676617324"/><circle cx="1386" cy="396" r="2.030949481722613" fill="#FFFFFF" opacity="0.5735670089578587"/><circle cx="1017" cy="196" r="4.1391557059696265" fill="#FFFFFF" opacity="0.7696185593233329"/><circle cx="116" cy="222" r="4.225961759337249" fill="#FFFFFF" opacity="0.5156057988834711"/><circle cx="1321" cy="583" r="5.365036482263093" fill="#FFFFFF" opacity="0.6321939353167998"/><circle cx="1313" cy="92" r="3.426512572140208" fill="#FFFFFF" opacity="0.6765677827399975"/><circle cx="597" cy="327" r="5.149903639575756" fill="#FFFFFF" opacity="0.7989363357870389"/><circle cx="50" cy="774" r="3.480890275758332" fill="#FFFFFF" opacity="0.6424714072484676"/><circle cx="800" cy="657" r="5.925309111459619" fill="#FFFFFF" opacity="0.5822268454365322"/><circle cx="1371" cy="456" r="5.876924073223115" fill="#FFFFFF" opacity="0.6658205512428822"/><circle cx="846" cy="454" r="5.150637587828838" fill="#FFFFFF" opacity="0.6317677335087828"/><circle cx="225" cy="68" r="3.0528657391278986" fill="#FFFFFF" opacity="0.7558895430835582"/><circle cx="475" cy="717" r="4.448759385733812" fill="#FFFFFF" opacity="0.6530032770543617"/><circle cx="756" cy="487" r="2.7336785526469134" fill="#FFFFFF" opacity="0.8660851953498879"/><circle cx="1570" cy="838" r="3.1721274851414725" fill="#FFFFFF" opacity="0.6553773496133615"/><circle cx="578" cy="665" r="5.597312403754557" fill="#FFFFFF" opacity="0.7104657526452435"/><circle cx="432" cy="340" r="2.3262856061672403" fill="#FFFFFF" opacity="0.5308829034364555"/><circle cx="1152" cy="819" r="5.596502272901053" fill="#FFFFFF" opacity="0.5308830764713786"/><circle cx="44" cy="203" r="2.8804825758762735" fill="#FFFFFF" opacity="0.5584182349957497"/><circle cx="274" cy="709" r="3.3033095809856343" fill="#FFFFFF" opacity="0.6601127015664634"/><circle cx="1033" cy="182" r="5.264041335003343" fill="#FFFFFF" opacity="0.7145020111183722"/><circle cx="1247" cy="112" r="3.797155229615751" fill="#FFFFFF" opacity="0.5083554783685881"/><circle cx="448" cy="853" r="5.284552864323526" fill="#FFFFFF" opacity="0.67899037483012"/><circle cx="472" cy="770" r="5.896815769854878" fill="#FFFFFF" opacity="0.5667028066470791"/><circle cx="1061" cy="639" r="4.427723155701372" fill="#FFFFFF" opacity="0.7624531332169712"/><circle cx="1043" cy="673" r="3.2592832065595982" fill="#FFFFFF" opacity="0.8693976391447928"/><circle cx="679" cy="183" r="3.9121690172048695" fill="#FFFFFF" opacity="0.5839460761910331"/><circle cx="45" cy="319" r="2.233911493353193" fill="#FFFFFF" opacity="0.8727393177621394"/><circle cx="1510" cy="856" r="3.115586238507363" fill="#FFFFFF" opacity="0.736444402073192"/><circle cx="1552" cy="305" r="2.422635079533566" fill="#FFFFFF" opacity="0.603480108556663"/><circle cx="270" cy="48" r="4.657370345855539" fill="#FFFFFF" opacity="0.5137506080001597"/><circle cx="615" cy="96" r="5.3989846855282835" fill="#FFFFFF" opacity="0.5339687834344061"/><circle cx="1089" cy="58" r="3.7684483671917923" fill="#FFFFFF" opacity="0.873868847833186"/><circle cx="888" cy="753" r="4.764325282292775" fill="#FFFFFF" opacity="0.5655307197497998"/><circle cx="1422" cy="511" r="5.741664540466012" fill="#FFFFFF" opacity="0.5615296216290323"/><circle cx="981" cy="23" r="3.3738680770354104" fill="#FFFFFF" opacity="0.8635497405162141"/><circle cx="246" cy="462" r="2.374426755274467" fill="#FFFFFF" opacity="0.5409252914037568"/><circle cx="580" cy="313" r="4.408577557974663" fill="#FFFFFF" opacity="0.7148420715561902"/><circle cx="594" cy="18" r="2.7566137892683487" fill="#FFFFFF" opacity="0.8468734339417365"/><circle cx="227" cy="817" r="2.937234398687961" fill="#FFFFFF" opacity="0.5248256295116283"/><circle cx="62" cy="720" r="5.5550585160026404" fill="#FFFFFF" opacity="0.624596469313432"/><circle cx="980" cy="170" r="2.362127761974572" fill="#FFFFFF" opacity="0.7809700649988892"/><circle cx="530" cy="476" r="4.871473969426142" fill="#FFFFFF" opacity="0.7076986171715779"/><circle cx="939" cy="293" r="2.852983149091594" fill="#FFFFFF" opacity="0.806557178883912"/><circle cx="150" cy="443" r="2.27170909221422" fill="#FFFFFF" opacity="0.6493320301261397"/><circle cx="831" cy="748" r="2.1544060447427267" fill="#FFFFFF" opacity="0.7794992291255218"/><circle cx="65" cy="748" r="3.9135075467165312" fill="#FFFFFF" opacity="0.8528029573998337"/><circle cx="1360" cy="566" r="2.474990715056782" fill="#FFFFFF" opacity="0.6503487390947338"/><circle cx="315" cy="462" r="5.9081410882159275" fill="#FFFFFF" opacity="0.5607307349126467"/><circle cx="1024" cy="5" r="4.218654111702913" fill="#FFFFFF" opacity="0.7287080633810544"/><circle cx="206" cy="535" r="2.5958102163446486" fill="#FFFFFF" opacity="0.5991487122639612"/><circle cx="1291" cy="731" r="2.513650028544153" fill="#FFFFFF" opacity="0.7166078025587325"/><circle cx="1128" cy="289" r="3.2401511314694535" fill="#FFFFFF" opacity="0.7379510060697713"/><circle cx="719" cy="549" r="3.6705521886285686" fill="#FFFFFF" opacity="0.7037141052668674"/><circle cx="375" cy="737" r="4.707335525267597" fill="#FFFFFF" opacity="0.7543339904359907"/><circle cx="1547" cy="98" r="3.8052717008104104" fill="#FFFFFF" opacity="0.7109197724321441"/><circle cx="1195" cy="256" r="2.7079029182234136" fill="#FFFFFF" opacity="0.8945044126810092"/><circle cx="704" cy="15" r="3.9196010803099344" fill="#FFFFFF" opacity="0.5845089855838329"/><circle cx="1303" cy="464" r="3.7160846298086407" fill="#FFFFFF" opacity="0.7721392575059933"/><circle cx="589" cy="879" r="3.5565794661334866" fill="#FFFFFF" opacity="0.6157592254887801"/><circle cx="1499" cy="441" r="2.317408303174772" fill="#FFFFFF" opacity="0.6990568672263794"/><circle cx="35" cy="284" r="2.3235771173660695" fill="#FFFFFF" opacity="0.8176846628386757"/><circle cx="632" cy="123" r="4.2045090124380735" fill="#FFFFFF" opacity="0.6833984407510432"/><circle cx="116" cy="82" r="5.041309426194602" fill="#FFFFFF" opacity="0.6765266547340538"/><circle cx="397" cy="771" r="4.5734793059945495" fill="#FFFFFF" opacity="0.5574925505991022"/><circle cx="258" cy="643" r="5.649450913091806" fill="#FFFFFF" opacity="0.7026260248869356"/><circle cx="355" cy="206" r="5.34005236843095" fill="#FFFFFF" opacity="0.6832556047643785"/><circle cx="579" cy="271" r="4.161514069004187" fill="#FFFFFF" opacity="0.6649588299407109"/><circle cx="1584" cy="727" r="2.567306254155903" fill="#FFFFFF" opacity="0.6242993808524723"/><circle cx="827" cy="740" r="3.0938501643224154" fill="#FFFFFF" opacity="0.5051750934036304"/><circle cx="177" cy="601" r="5.564659825159271" fill="#FFFFFF" opacity="0.8442506652376698"/><circle cx="686" cy="230" r="5.398735849822986" fill="#FFFFFF" opacity="0.8808339532514251"/><circle cx="1408" cy="264" r="5.019202333917274" fill="#FFFFFF" opacity="0.6538492715931052"/><circle cx="270" cy="201" r="4.8989660223024485" fill="#FFFFFF" opacity="0.6691416589575019"/><circle cx="1062" cy="874" r="2.9165277288453386" fill="#FFFFFF" opacity="0.6103307132007948"/><circle cx="389" cy="326" r="2.499901953620142" fill="#FFFFFF" opacity="0.6180558761783925"/><circle cx="762" cy="375" r="5.285814741146911" fill="#FFFFFF" opacity="0.539744675515161"/><circle cx="202" cy="594" r="4.252358627203414" fill="#FFFFFF" opacity="0.8983891275288309"/><circle cx="506" cy="16" r="5.874979372817107" fill="#FFFFFF" opacity="0.7036258240926421"/><circle cx="1136" cy="354" r="2.309927811091752" fill="#FFFFFF" opacity="0.7421701655389724"/><circle cx="924" cy="729" r="2.543655277715324" fill="#FFFFFF" opacity="0.5793150565663838"/><circle cx="805" cy="175" r="3.189448048872016" fill="#FFFFFF" opacity="0.8258495012689755"/><circle cx="196" cy="318" r="4.195416995208673" fill="#FFFFFF" opacity="0.6796946829314495"/><circle cx="1421" cy="320" r="2.3751513788721494" fill="#FFFFFF" opacity="0.7004642901439376"/><circle cx="175" cy="874" r="5.849443281251798" fill="#FFFFFF" opacity="0.7065636103565933"/><circle cx="411" cy="185" r="2.784096941745441" fill="#FFFFFF" opacity="0.5990463335134306"/><circle cx="829" cy="871" r="3.8879599819777977" fill="#FFFFFF" opacity="0.7007829284839002"/><circle cx="53" cy="618" r="2.425272271425379" fill="#FFFFFF" opacity="0.5731623601137295"/><circle cx="1457" cy="10" r="3.7514925048981422" fill="#FFFFFF" opacity="0.604125140378098"/><circle cx="991" cy="292" r="3.0928498099017943" fill="#FFFFFF" opacity="0.8236318768978967"/><circle cx="1285" cy="588" r="2.5691801547997746" fill="#FFFFFF" opacity="0.7640567004295991"/><circle cx="648" cy="16" r="2.4257225922975993" fill="#FFFFFF" opacity="0.5704301231587212"/><circle cx="421" cy="178" r="3.804475573900356" fill="#FFFFFF" opacity="0.8679537712996609"/><circle cx="557" cy="732" r="2.6241548824428005" fill="#FFFFFF" opacity="0.6639028332781549"/><circle cx="630" cy="48" r="2.0998131555353465" fill="#FFFFFF" opacity="0.7807640140033016"/><circle cx="721" cy="752" r="2.8488857124246385" fill="#FFFFFF" opacity="0.5042369450749644"/><circle cx="328" cy="486" r="5.296234470819575" fill="#FFFFFF" opacity="0.8990585596082604"/><circle cx="456" cy="879" r="3.905327771126525" fill="#FFFFFF" opacity="0.5701503059629338"/><circle cx="1051" cy="338" r="3.8487088071028612" fill="#FFFFFF" opacity="0.851127128881553"/><circle cx="1368" cy="79" r="4.128355658066672" fill="#FFFFFF" opacity="0.5213831734444998"/><circle cx="276" cy="898" r="2.829960973781984" fill="#FFFFFF" opacity="0.6763672427054113"/><circle cx="1293" cy="532" r="5.441776690413456" fill="#FFFFFF" opacity="0.8372011710057593"/><circle cx="811" cy="43" r="3.0306243415159653" fill="#FFFFFF" opacity="0.8483166676762637"/><circle cx="861" cy="899" r="2.648717230292835" fill="#FFFFFF" opacity="0.874292137197867"/><circle cx="228" cy="592" r="5.640366248659689" fill="#FFFFFF" opacity="0.7112689027951843"/><circle cx="1138" cy="617" r="4.229055494853617" fill="#FFFFFF" opacity="0.7596813626340502"/><circle cx="289" cy="444" r="2.0472481243134992" fill="#FFFFFF" opacity="0.6946139417845192"/></svg>