<svg xmlns="http://www.w3.org/2000/svg" viewBox="0 0 1600 1000" preserveAspectRatio="xMidYMid slice">
  <defs>
    <linearGradient id="g" x1="0" y1="0" x2="1" y2="1">
      <stop offset="0" stop-color="#173d35"/>
      <stop offset=".58" stop-color="#2c4d35"/>
      <stop offset="1" stop-color="#173d35"/>
    </linearGradient>
    <radialGradient id="warm" cx=".18" cy=".12" r=".62">
      <stop offset="0" stop-color="#ffe08a" stop-opacity=".32"/>
      <stop offset="1" stop-color="#ffe08a" stop-opacity="0"/>
    </radialGradient>
    <radialGradient id="cool" cx=".86" cy=".24" r=".58">
      <stop offset="0" stop-color="#8be6a7" stop-opacity=".24"/>
      <stop offset="1" stop-color="#8be6a7" stop-opacity="0"/>
    </radialGradient>
  </defs>
  <rect width="1600" height="1000" fill="url(#g)"/>
  <rect width="1600" height="1000" fill="url(#warm)"/>
  <rect width="1600" height="1000" fill="url(#cool)"/>
  <circle cx="1280" cy="820" r="360" fill="#ffffff" opacity=".06"/>
  <circle cx="130" cy="930" r="310" fill="#ffffff" opacity=".05"/>
  <circle cx="537" cy="1069" r="210" fill="#ffe08a" opacity="0.12"/>
<circle cx="776" cy="918" r="166" fill="#ee6570" opacity="0.14"/>
<circle cx="1605" cy="348" r="139" fill="#ee6570" opacity="0.17"/>
<circle cx="1182" cy="746" r="173" fill="#ffe08a" opacity="0.16"/>
<circle cx="702" cy="589" r="239" fill="#ffe08a" opacity="0.11"/>
<circle cx="277" cy="-1" r="81" fill="#ffe08a" opacity="0.18"/>
<circle cx="931" cy="513" r="82" fill="#ffe08a" opacity="0.21"/>
<circle cx="738" cy="957" r="160" fill="#8be6a7" opacity="0.16"/>
<circle cx="354" cy="61" r="138" fill="#8be6a7" opacity="0.09"/>
<circle cx="862" cy="1075" r="169" fill="#ee6570" opacity="0.18"/>
<circle cx="1397" cy="437" r="101" fill="#ffe08a" opacity="0.17"/>
<circle cx="162" cy="408" r="95" fill="#8be6a7" opacity="0.15"/>
<circle cx="521" cy="1089" r="136" fill="#8be6a7" opacity="0.13"/>
<circle cx="821" cy="260" r="185" fill="#ffe08a" opacity="0.16"/>
<circle cx="1444" cy="123" r="131" fill="#ffe08a" opacity="0.10"/>
<circle cx="1356" cy="474" r="80" fill="#ffe08a" opacity="0.15"/>
    <pattern id="plaid" width="96" height="96" patternUnits="userSpaceOnUse">
      <rect width="96" height="96" fill="transparent"/>
      <path d="M0 24H96 M0 72H96 M24 0V96 M72 0V96" stroke="#ffe08a" stroke-width="2" opacity=".18"/>
      <path d="M0 48H96 M48 0V96" stroke="#8be6a7" stroke-width="8" opacity=".06"/>
    </pattern>
    <rect width="1600" height="1000" fill="url(#plaid)" opacity=".9"/><circle cx="1250" cy="527" r="2.2" fill="#fff" opacity="0.32"/>
<circle cx="633" cy="186" r="2.2" fill="#fff" opacity="0.59"/>
<circle cx="719" cy="122" r="1.5" fill="#fff" opacity="0.38"/>
<circle cx="569" cy="456" r="1.0" fill="#fff" opacity="0.30"/>
<circle cx="1279" cy="3" r="1.9" fill="#fff" opacity="0.20"/>
<circle cx="467" cy="448" r="1.0" fill="#fff" opacity="0.44"/>
<circle cx="481" cy="275" r="1.1" fill="#fff" opacity="0.47"/>
<circle cx="894" cy="0" r="1.6" fill="#fff" opacity="0.27"/>
<circle cx="1358" cy="948" r="1.0" fill="#fff" opacity="0.20"/>
<circle cx="444" cy="733" r="2.3" fill="#fff" opacity="0.20"/>
<circle cx="37" cy="706" r="2.1" fill="#fff" opacity="0.59"/>
<circle cx="810" cy="709" r="1.7" fill="#fff" opacity="0.50"/>
<circle cx="298" cy="714" r="1.0" fill="#fff" opacity="0.26"/>
<circle cx="880" cy="473" r="1.5" fill="#fff" opacity="0.45"/>
<circle cx="467" cy="190" r="2.3" fill="#fff" opacity="0.20"/>
<circle cx="1021" cy="129" r="1.5" fill="#fff" opacity="0.26"/>
<circle cx="627" cy="676" r="0.7" fill="#fff" opacity="0.47"/>
<circle cx="1129" cy="314" r="1.6" fill="#fff" opacity="0.31"/>
<circle cx="363" cy="383" r="2.1" fill="#fff" opacity="0.27"/>
<circle cx="355" cy="662" r="1.6" fill="#fff" opacity="0.36"/>
<circle cx="1467" cy="792" r="1.1" fill="#fff" opacity="0.50"/>
<circle cx="185" cy="904" r="2.2" fill="#fff" opacity="0.23"/>
<circle cx="990" cy="217" r="0.9" fill="#fff" opacity="0.55"/>
<circle cx="591" cy="556" r="0.9" fill="#fff" opacity="0.49"/>
<circle cx="1145" cy="637" r="1.5" fill="#fff" opacity="0.50"/>
<circle cx="176" cy="938" r="2.3" fill="#fff" opacity="0.39"/>
<circle cx="817" cy="980" r="2.2" fill="#fff" opacity="0.20"/>
<circle cx="1437" cy="887" r="2.0" fill="#fff" opacity="0.26"/>
<circle cx="857" cy="502" r="2.1" fill="#fff" opacity="0.40"/>
<circle cx="269" cy="581" r="1.5" fill="#fff" opacity="0.60"/>
<circle cx="296" cy="520" r="1.2" fill="#fff" opacity="0.41"/>
<circle cx="945" cy="573" r="1.9" fill="#fff" opacity="0.27"/>
<circle cx="1242" cy="843" r="1.0" fill="#fff" opacity="0.29"/>
<circle cx="586" cy="695" r="1.0" fill="#fff" opacity="0.27"/>
<circle cx="789" cy="755" r="1.7" fill="#fff" opacity="0.23"/>
<circle cx="317" cy="705" r="1.7" fill="#fff" opacity="0.26"/>
<circle cx="206" cy="617" r="1.1" fill="#fff" opacity="0.53"/>
<circle cx="701" cy="159" r="1.0" fill="#fff" opacity="0.24"/>
<circle cx="845" cy="634" r="1.1" fill="#fff" opacity="0.38"/>
<circle cx="846" cy="893" r="1.8" fill="#fff" opacity="0.25"/>
<circle cx="344" cy="852" r="1.1" fill="#fff" opacity="0.47"/>
<circle cx="222" cy="688" r="1.6" fill="#fff" opacity="0.35"/>
<circle cx="1163" cy="291" r="2.2" fill="#fff" opacity="0.34"/>
<circle cx="1087" cy="277" r="1.7" fill="#fff" opacity="0.57"/>
<circle cx="180" cy="187" r="1.2" fill="#fff" opacity="0.42"/>
<circle cx="1003" cy="552" r="1.0" fill="#fff" opacity="0.28"/>
<circle cx="138" cy="743" r="1.1" fill="#fff" opacity="0.19"/>
<circle cx="108" cy="705" r="1.6" fill="#fff" opacity="0.56"/>
<circle cx="775" cy="467" r="1.4" fill="#fff" opacity="0.40"/>
<circle cx="536" cy="490" r="1.8" fill="#fff" opacity="0.38"/>
<circle cx="1146" cy="194" r="0.7" fill="#fff" opacity="0.49"/>
<circle cx="773" cy="730" r="2.2" fill="#fff" opacity="0.58"/>
<circle cx="1343" cy="82" r="1.3" fill="#fff" opacity="0.47"/>
<circle cx="91" cy="271" r="1.4" fill="#fff" opacity="0.47"/>
<circle cx="315" cy="510" r="1.8" fill="#fff" opacity="0.54"/>
<circle cx="432" cy="621" r="1.1" fill="#fff" opacity="0.61"/>
<circle cx="1154" cy="211" r="0.9" fill="#fff" opacity="0.59"/>
<circle cx="658" cy="888" r="0.7" fill="#fff" opacity="0.61"/>
<circle cx="1434" cy="772" r="2.1" fill="#fff" opacity="0.48"/>
<circle cx="515" cy="521" r="0.8" fill="#fff" opacity="0.37"/>
<circle cx="809" cy="881" r="1.7" fill="#fff" opacity="0.41"/>
<circle cx="1188" cy="62" r="1.3" fill="#fff" opacity="0.44"/>
<circle cx="19" cy="927" r="2.0" fill="#fff" opacity="0.43"/>
<circle cx="260" cy="109" r="1.1" fill="#fff" opacity="0.48"/>
<circle cx="245" cy="985" r="2.4" fill="#fff" opacity="0.52"/>
<circle cx="392" cy="795" r="1.1" fill="#fff" opacity="0.36"/>
<circle cx="1018" cy="218" r="2.0" fill="#fff" opacity="0.35"/>
<circle cx="634" cy="866" r="1.1" fill="#fff" opacity="0.47"/>
<circle cx="603" cy="510" r="1.4" fill="#fff" opacity="0.20"/>
<circle cx="1419" cy="188" r="1.6" fill="#fff" opacity="0.58"/>
<circle cx="1461" cy="151" r="1.1" fill="#fff" opacity="0.59"/>
<circle cx="20" cy="336" r="1.2" fill="#fff" opacity="0.45"/>
<circle cx="673" cy="781" r="1.0" fill="#fff" opacity="0.42"/>
<circle cx="1100" cy="374" r="1.9" fill="#fff" opacity="0.50"/>
<circle cx="135" cy="791" r="0.9" fill="#fff" opacity="0.25"/>
<circle cx="1082" cy="763" r="2.3" fill="#fff" opacity="0.27"/>
<circle cx="625" cy="20" r="2.0" fill="#fff" opacity="0.52"/>
<circle cx="1392" cy="599" r="1.1" fill="#fff" opacity="0.62"/>
<circle cx="1227" cy="849" r="2.2" fill="#fff" opacity="0.44"/>
<circle cx="252" cy="869" r="2.4" fill="#fff" opacity="0.26"/>
<circle cx="1100" cy="780" r="1.6" fill="#fff" opacity="0.37"/>
<circle cx="421" cy="26" r="1.3" fill="#fff" opacity="0.54"/>
<circle cx="291" cy="360" r="1.8" fill="#fff" opacity="0.54"/>
<circle cx="850" cy="489" r="1.9" fill="#fff" opacity="0.50"/>
<circle cx="937" cy="716" r="1.0" fill="#fff" opacity="0.43"/>
<circle cx="1449" cy="970" r="1.2" fill="#fff" opacity="0.42"/>
<circle cx="62" cy="204" r="1.2" fill="#fff" opacity="0.40"/>
<circle cx="992" cy="358" r="1.8" fill="#fff" opacity="0.45"/>
<circle cx="300" cy="379" r="0.8" fill="#fff" opacity="0.26"/>
<circle cx="323" cy="733" r="1.9" fill="#fff" opacity="0.50"/>
<circle cx="891" cy="594" r="2.1" fill="#fff" opacity="0.46"/>
<circle cx="1348" cy="687" r="1.1" fill="#fff" opacity="0.48"/>
<circle cx="133" cy="324" r="1.9" fill="#fff" opacity="0.43"/>
<circle cx="258" cy="890" r="1.9" fill="#fff" opacity="0.55"/>
<circle cx="579" cy="83" r="1.9" fill="#fff" opacity="0.60"/>
<circle cx="570" cy="536" r="1.4" fill="#fff" opacity="0.21"/>
<circle cx="748" cy="222" r="1.7" fill="#fff" opacity="0.32"/>
<circle cx="1365" cy="310" r="1.8" fill="#fff" opacity="0.39"/>
<circle cx="48" cy="910" r="1.9" fill="#fff" opacity="0.46"/>
<circle cx="1307" cy="874" r="0.7" fill="#fff" opacity="0.29"/>
<circle cx="1366" cy="557" r="2.0" fill="#fff" opacity="0.59"/>
<circle cx="998" cy="636" r="0.9" fill="#fff" opacity="0.26"/>
<circle cx="122" cy="104" r="1.2" fill="#fff" opacity="0.26"/>
<circle cx="101" cy="857" r="1.5" fill="#fff" opacity="0.33"/>
<circle cx="1054" cy="985" r="1.5" fill="#fff" opacity="0.23"/>
<circle cx="1064" cy="104" r="2.2" fill="#fff" opacity="0.42"/>
<circle cx="1339" cy="232" r="2.1" fill="#fff" opacity="0.40"/>
<circle cx="22" cy="734" r="1.4" fill="#fff" opacity="0.19"/>
<circle cx="671" cy="306" r="1.4" fill="#fff" opacity="0.24"/>
<circle cx="90" cy="865" r="2.0" fill="#fff" opacity="0.58"/>
  <rect width="1600" height="1000" fill="#000" opacity=".08"/>
</svg>