<svg xmlns="http://www.w3.org/2000/svg" viewBox="0 0 1200 800" width="1200" height="800">
  <defs>
    <radialGradient id="g" cx="50%" cy="42%" r="75%">
      <stop offset="0" stop-color="#173f59"/>
      <stop offset="1" stop-color="#113652"/>
    </radialGradient>
    <pattern id="snow" width="120" height="120" patternUnits="userSpaceOnUse">
      <circle cx="20" cy="28" r="2.4" fill="#fff" opacity=".55"/>
      <circle cx="90" cy="70" r="1.8" fill="#fff" opacity=".45"/>
      <circle cx="64" cy="18" r="1.3" fill="#fff" opacity=".35"/>
      <circle cx="42" cy="100" r="1.7" fill="#fff" opacity=".4"/>
    </pattern>
    <linearGradient id="shine" x1="0" x2="1" y1="0" y2="1">
      <stop offset="0" stop-color="#ffffff" stop-opacity=".16"/>
      <stop offset="1" stop-color="#ffffff" stop-opacity="0"/>
    </linearGradient>
  </defs>
  <rect width="1200" height="800" fill="url(#g)"/>
  <rect width="1200" height="800" fill="url(#snow)"/>
  <circle cx="-60" cy="820" r="360" fill="#fff" opacity=".08"/>
  <circle cx="1260" cy="-70" r="390" fill="#ffef9e" opacity=".10"/>
  
<g transform="translate(710 300)">
 <rect x="-14" y="0" width="28" height="260" rx="14" fill="#fff5d2"/>
 <path d="M-14 25 h28 v32 h-28zM-14 94 h28 v32 h-28zM-14 163 h28 v32 h-28z" fill="#e84855"/>
 <path d="M0 0 C100 -50 220 -30 285 30 C205 88 90 77 0 45z" fill="#e84855"/>
 <text x="85" y="35" font-size="38" font-family="Arial" font-weight="900" fill="#fff5d2">NORTH POLE</text>
</g>
<g transform="translate(190 625)"><path d="M0 0 C160 -80 310 -80 455 0" fill="#ffffff" opacity=".18"/></g>
  <rect width="1200" height="800" fill="url(#shine)"/>
</svg>