<svg xmlns="http://www.w3.org/2000/svg" viewBox="0 0 1600 900" preserveAspectRatio="xMidYMid slice"><defs><linearGradient id="bg2" x1="0" y1="0" x2="0" y2="1"><stop offset="0%" stop-color="#1A237E"/><stop offset="100%" stop-color="#3949AB"/></linearGradient><linearGradient id="hill12" x1="0" y1="0" x2="0" y2="1"><stop offset="0%" stop-color="#FFFFFF"/><stop offset="100%" stop-color="#E3F2FD"/></linearGradient><linearGradient id="hill22" x1="0" y1="0" x2="0" y2="1"><stop offset="0%" stop-color="#F5F5F5"/><stop offset="100%" stop-color="#BBDEFB"/></linearGradient></defs><rect width="1600" height="900" fill="url(#bg2)"/><circle cx="1300" cy="200" r="60" fill="#FFF9C4" opacity="0.9"/><circle cx="1300" cy="200" r="120" fill="#FFF9C4" opacity="0.1"/><circle cx="412" cy="64" r="1.7491176388094831" fill="#FFFFFF" opacity="0.3845942016694245"/><circle cx="607" cy="153" r="2.5673923078583947" fill="#FFFFFF" opacity="0.5185751810061575"/><circle cx="827" cy="383" r="1.9183082409882075" fill="#FFFFFF" opacity="0.39365441249399286"/><circle cx="891" cy="277" r="1.4385944038513476" fill="#FFFFFF" opacity="0.3935776467000159"/><circle cx="548" cy="13" r="1.8854919158423968" fill="#FFFFFF" opacity="0.7868202632892709"/><circle cx="172" cy="66" r="2.248016744967779" fill="#FFFFFF" opacity="0.6505824853496198"/><circle cx="1164" cy="105" r="1.7861002293214523" fill="#FFFFFF" opacity="0.3319584928503259"/><circle cx="1477" cy="181" r="2.182702056675004" fill="#FFFFFF" opacity="0.40525123308153227"/><circle cx="316" cy="207" r="1.8564046489454087" fill="#FFFFFF" opacity="0.534383466890338"/><circle cx="1301" cy="484" r="2.668255375950782" fill="#FFFFFF" opacity="0.579309402775511"/><circle cx="1045" cy="285" r="2.4181666794626064" fill="#FFFFFF" opacity="0.3594956700621301"/><circle cx="104" cy="22" r="1.6239945871975534" fill="#FFFFFF" opacity="0.3202944974371537"/><circle cx="781" cy="204" r="1.6958348581130092" fill="#FFFFFF" opacity="0.5971795270580448"/><circle cx="87" cy="393" r="2.3253032029898977" fill="#FFFFFF" opacity="0.5084650596854949"/><circle cx="937" cy="437" r="2.7144934200558954" fill="#FFFFFF" opacity="0.7183474695502508"/><circle cx="554" cy="369" r="1.8104531710775393" fill="#FFFFFF" opacity="0.4594592695589081"/><circle cx="1066" cy="481" r="1.0627678304332209" fill="#FFFFFF" opacity="0.4785408101864807"/><circle cx="542" cy="332" r="2.820044733168065" fill="#FFFFFF" opacity="0.4526914524794219"/><circle cx="531" cy="162" r="2.067245489488112" fill="#FFFFFF" opacity="0.6719307286149498"/><circle cx="253" cy="363" r="1.7328690230410104" fill="#FFFFFF" opacity="0.5953536104663235"/><circle cx="1166" cy="417" r="2.6584968034298884" fill="#FFFFFF" opacity="0.39027583078044925"/><circle cx="1162" cy="343" r="2.0356862278624073" fill="#FFFFFF" opacity="0.7104921620402178"/><circle cx="818" cy="335" r="1.7456672436410767" fill="#FFFFFF" opacity="0.5831037890859713"/><circle cx="870" cy="414" r="2.596427987156146" fill="#FFFFFF" opacity="0.691974896400963"/><circle cx="1025" cy="421" r="1.725651785455015" fill="#FFFFFF" opacity="0.3367503246461097"/><circle cx="752" cy="318" r="2.657542985964108" fill="#FFFFFF" opacity="0.4466438811323169"/><circle cx="179" cy="397" r="2.272424597477412" fill="#FFFFFF" opacity="0.38394471103374983"/><circle cx="1166" cy="347" r="1.5255558574037227" fill="#FFFFFF" opacity="0.4472975451610655"/><circle cx="794" cy="380" r="2.472145086409883" fill="#FFFFFF" opacity="0.6938897027462567"/><circle cx="734" cy="192" r="2.8542096293457746" fill="#FFFFFF" opacity="0.4943973118593211"/><circle cx="1401" cy="174" r="2.455799078189853" fill="#FFFFFF" opacity="0.7675005674643267"/><circle cx="262" cy="81" r="1.6389046320153484" fill="#FFFFFF" opacity="0.4380394713363375"/><circle cx="989" cy="490" r="2.3401674789010514" fill="#FFFFFF" opacity="0.7656838991056545"/><circle cx="948" cy="360" r="1.5558421927250796" fill="#FFFFFF" opacity="0.40370443584524596"/><circle cx="855" cy="451" r="1.9437447350287789" fill="#FFFFFF" opacity="0.5469418513444646"/><circle cx="1173" cy="4" r="2.4905911214897873" fill="#FFFFFF" opacity="0.6743989441869632"/><circle cx="852" cy="312" r="1.337087658898117" fill="#FFFFFF" opacity="0.6027228152761461"/><circle cx="531" cy="87" r="1.2129899757794576" fill="#FFFFFF" opacity="0.447383808469079"/><circle cx="1328" cy="430" r="2.5096179545581574" fill="#FFFFFF" opacity="0.4356394379334988"/><circle cx="408" cy="490" r="1.938591866093562" fill="#FFFFFF" opacity="0.5918890195908859"/><circle cx="1440" cy="166" r="2.3280323750109004" fill="#FFFFFF" opacity="0.662745218533553"/><circle cx="168" cy="441" r="1.4285711323445542" fill="#FFFFFF" opacity="0.6526598973494002"/><circle cx="1168" cy="120" r="2.343002474278352" fill="#FFFFFF" opacity="0.4385148767101705"/><circle cx="255" cy="377" r="2.7521526531416756" fill="#FFFFFF" opacity="0.5579732037669773"/><circle cx="1057" cy="458" r="1.9036004123847476" fill="#FFFFFF" opacity="0.7496143325245184"/><circle cx="788" cy="42" r="2.1962263942441056" fill="#FFFFFF" opacity="0.7801352583385766"/><circle cx="528" cy="274" r="2.599276549065336" fill="#FFFFFF" opacity="0.5209872660635377"/><circle cx="1131" cy="41" r="1.6545344304396514" fill="#FFFFFF" opacity="0.7557881425229417"/><circle cx="601" cy="205" r="1.420032784252192" fill="#FFFFFF" opacity="0.5278989236431305"/><circle cx="635" cy="381" r="1.8951405052764376" fill="#FFFFFF" opacity="0.5301552467798418"/><path d="M 0 600 Q 400 450 800 600 T 1600 550 L 1600 900 L 0 900 Z" fill="url(#hill22)"/><g transform="translate(1417,601) scale(0.9547900503961166)"><rect x="-6" y="-10" width="12" height="20" fill="#795548" rx="2"/><path d="M -40 -10 L 40 -10 L 0 -50 Z" fill="#2E7D32"/><path d="M -30 -30 L 30 -30 L 0 -70 Z" fill="#43A047"/><path d="M -20 -50 L 20 -50 L 0 -90 Z" fill="#4CAF50"/><circle cx="-15" cy="-20" r="3.5" fill="#F44336"/><circle cx="10" cy="-25" r="3.5" fill="#29B6F6"/><circle cx="-5" cy="-40" r="3.5" fill="#AB47BC"/><circle cx="15" cy="-45" r="3.5" fill="#AB47BC"/><circle cx="-10" cy="-60" r="3.5" fill="#F44336"/><circle cx="0" cy="-30" r="3.5" fill="#FF9800"/><circle cx="20" cy="-15" r="3.5" fill="#FF9800"/><circle cx="-25" cy="-12" r="3.5" fill="#AB47BC"/><polygon points="0,-95 3,-85 12,-85 5,-80 8,-70 0,-76 -8,-70 -5,-80 -12,-85 -3,-85" fill="#FFC107"/></g><g transform="translate(1355,621) scale(0.8276430441959154)"><rect x="-6" y="-10" width="12" height="20" fill="#795548" rx="2"/><path d="M -40 -10 L 40 -10 L 0 -50 Z" fill="#2E7D32"/><path d="M -30 -30 L 30 -30 L 0 -70 Z" fill="#43A047"/><path d="M -20 -50 L 20 -50 L 0 -90 Z" fill="#4CAF50"/><circle cx="-15" cy="-20" r="3.5" fill="#29B6F6"/><circle cx="10" cy="-25" r="3.5" fill="#FF9800"/><circle cx="-5" cy="-40" r="3.5" fill="#29B6F6"/><circle cx="15" cy="-45" r="3.5" fill="#FF9800"/><circle cx="-10" cy="-60" r="3.5" fill="#F44336"/><circle cx="0" cy="-30" r="3.5" fill="#29B6F6"/><circle cx="20" cy="-15" r="3.5" fill="#29B6F6"/><circle cx="-25" cy="-12" r="3.5" fill="#FF9800"/><polygon points="0,-95 3,-85 12,-85 5,-80 8,-70 0,-76 -8,-70 -5,-80 -12,-85 -3,-85" fill="#FFC107"/></g><g transform="translate(422,602) scale(1.0228299173313806)"><rect x="-6" y="-10" width="12" height="20" fill="#795548" rx="2"/><path d="M -40 -10 L 40 -10 L 0 -50 Z" fill="#2E7D32"/><path d="M -30 -30 L 30 -30 L 0 -70 Z" fill="#43A047"/><path d="M -20 -50 L 20 -50 L 0 -90 Z" fill="#4CAF50"/><circle cx="-15" cy="-20" r="3.5" fill="#29B6F6"/><circle cx="10" cy="-25" r="3.5" fill="#F44336"/><circle cx="-5" cy="-40" r="3.5" fill="#F44336"/><circle cx="15" cy="-45" r="3.5" fill="#AB47BC"/><circle cx="-10" cy="-60" r="3.5" fill="#F44336"/><circle cx="0" cy="-30" r="3.5" fill="#FF9800"/><circle cx="20" cy="-15" r="3.5" fill="#F44336"/><circle cx="-25" cy="-12" r="3.5" fill="#FF9800"/><polygon points="0,-95 3,-85 12,-85 5,-80 8,-70 0,-76 -8,-70 -5,-80 -12,-85 -3,-85" fill="#FFC107"/></g><g transform="translate(1286,647) scale(1.0610401982914384)"><rect x="-6" y="-10" width="12" height="20" fill="#795548" rx="2"/><path d="M -40 -10 L 40 -10 L 0 -50 Z" fill="#2E7D32"/><path d="M -30 -30 L 30 -30 L 0 -70 Z" fill="#43A047"/><path d="M -20 -50 L 20 -50 L 0 -90 Z" fill="#4CAF50"/><circle cx="-15" cy="-20" r="3.5" fill="#FFEB3B"/><circle cx="10" cy="-25" r="3.5" fill="#AB47BC"/><circle cx="-5" cy="-40" r="3.5" fill="#AB47BC"/><circle cx="15" cy="-45" r="3.5" fill="#29B6F6"/><circle cx="-10" cy="-60" r="3.5" fill="#29B6F6"/><circle cx="0" cy="-30" r="3.5" fill="#FFEB3B"/><circle cx="20" cy="-15" r="3.5" fill="#29B6F6"/><circle cx="-25" cy="-12" r="3.5" fill="#FFEB3B"/><polygon points="0,-95 3,-85 12,-85 5,-80 8,-70 0,-76 -8,-70 -5,-80 -12,-85 -3,-85" fill="#FFC107"/></g><g transform="translate(1227,580) scale(1.1613297421479496)"><rect x="-6" y="-10" width="12" height="20" fill="#795548" rx="2"/><path d="M -40 -10 L 40 -10 L 0 -50 Z" fill="#2E7D32"/><path d="M -30 -30 L 30 -30 L 0 -70 Z" fill="#43A047"/><path d="M -20 -50 L 20 -50 L 0 -90 Z" fill="#4CAF50"/><circle cx="-15" cy="-20" r="3.5" fill="#AB47BC"/><circle cx="10" cy="-25" r="3.5" fill="#FF9800"/><circle cx="-5" cy="-40" r="3.5" fill="#FFEB3B"/><circle cx="15" cy="-45" r="3.5" fill="#29B6F6"/><circle cx="-10" cy="-60" r="3.5" fill="#F44336"/><circle cx="0" cy="-30" r="3.5" fill="#FFEB3B"/><circle cx="20" cy="-15" r="3.5" fill="#FFEB3B"/><circle cx="-25" cy="-12" r="3.5" fill="#FF9800"/><polygon points="0,-95 3,-85 12,-85 5,-80 8,-70 0,-76 -8,-70 -5,-80 -12,-85 -3,-85" fill="#FFC107"/></g><g transform="translate(596,638) scale(1.0817002125415935)"><rect x="-6" y="-10" width="12" height="20" fill="#795548" rx="2"/><path d="M -40 -10 L 40 -10 L 0 -50 Z" fill="#2E7D32"/><path d="M -30 -30 L 30 -30 L 0 -70 Z" fill="#43A047"/><path d="M -20 -50 L 20 -50 L 0 -90 Z" fill="#4CAF50"/><circle cx="-15" cy="-20" r="3.5" fill="#F44336"/><circle cx="10" cy="-25" r="3.5" fill="#FFEB3B"/><circle cx="-5" cy="-40" r="3.5" fill="#FF9800"/><circle cx="15" cy="-45" r="3.5" fill="#FF9800"/><circle cx="-10" cy="-60" r="3.5" fill="#29B6F6"/><circle cx="0" cy="-30" r="3.5" fill="#F44336"/><circle cx="20" cy="-15" r="3.5" fill="#FFEB3B"/><circle cx="-25" cy="-12" r="3.5" fill="#F44336"/><polygon points="0,-95 3,-85 12,-85 5,-80 8,-70 0,-76 -8,-70 -5,-80 -12,-85 -3,-85" fill="#FFC107"/></g><g transform="translate(951,599) scale(0.9229396425133148)"><rect x="-6" y="-10" width="12" height="20" fill="#795548" rx="2"/><path d="M -40 -10 L 40 -10 L 0 -50 Z" fill="#2E7D32"/><path d="M -30 -30 L 30 -30 L 0 -70 Z" fill="#43A047"/><path d="M -20 -50 L 20 -50 L 0 -90 Z" fill="#4CAF50"/><circle cx="-15" cy="-20" r="3.5" fill="#F44336"/><circle cx="10" cy="-25" r="3.5" fill="#AB47BC"/><circle cx="-5" cy="-40" r="3.5" fill="#AB47BC"/><circle cx="15" cy="-45" r="3.5" fill="#29B6F6"/><circle cx="-10" cy="-60" r="3.5" fill="#FFEB3B"/><circle cx="0" cy="-30" r="3.5" fill="#F44336"/><circle cx="20" cy="-15" r="3.5" fill="#AB47BC"/><circle cx="-25" cy="-12" r="3.5" fill="#AB47BC"/><polygon points="0,-95 3,-85 12,-85 5,-80 8,-70 0,-76 -8,-70 -5,-80 -12,-85 -3,-85" fill="#FFC107"/></g><g transform="translate(1385,585) scale(0.8929016240281872)"><rect x="-6" y="-10" width="12" height="20" fill="#795548" rx="2"/><path d="M -40 -10 L 40 -10 L 0 -50 Z" fill="#2E7D32"/><path d="M -30 -30 L 30 -30 L 0 -70 Z" fill="#43A047"/><path d="M -20 -50 L 20 -50 L 0 -90 Z" fill="#4CAF50"/><circle cx="-15" cy="-20" r="3.5" fill="#FFEB3B"/><circle cx="10" cy="-25" r="3.5" fill="#FFEB3B"/><circle cx="-5" cy="-40" r="3.5" fill="#FFEB3B"/><circle cx="15" cy="-45" r="3.5" fill="#FF9800"/><circle cx="-10" cy="-60" r="3.5" fill="#29B6F6"/><circle cx="0" cy="-30" r="3.5" fill="#FF9800"/><circle cx="20" cy="-15" r="3.5" fill="#FF9800"/><circle cx="-25" cy="-12" r="3.5" fill="#F44336"/><polygon points="0,-95 3,-85 12,-85 5,-80 8,-70 0,-76 -8,-70 -5,-80 -12,-85 -3,-85" fill="#FFC107"/></g><path d="M 0 700 Q 600 550 1200 750 T 1600 650 L 1600 900 L 0 900 Z" fill="url(#hill12)"/><g transform="translate(1315,760) scale(2.338055106067293)"><circle cx="0" cy="-20" r="20" fill="#FFFFFF"/><circle cx="0" cy="-55" r="16" fill="#FFFFFF"/><circle cx="0" cy="-85" r="12" fill="#FFFFFF"/><rect x="-15" y="-95" width="30" height="4" fill="#212121" rx="2"/><rect x="-10" y="-115" width="20" height="20" fill="#212121"/><rect x="-10" y="-99" width="20" height="4" fill="#F44336"/><circle cx="-4" cy="-87" r="1.5" fill="#212121"/><circle cx="4" cy="-87" r="1.5" fill="#212121"/><path d="M 0 -83 L 15 -78 L 0 -77 Z" fill="#FF9800"/><path d="M -12 -70 Q 0 -65 12 -70 L 14 -60 Q 0 -55 -14 -60 Z" fill="#F44336"/><path d="M 8 -65 L 12 -45 L 6 -45 Z" fill="#F44336"/><circle cx="0" cy="-60" r="1.5" fill="#212121"/><circle cx="0" cy="-50" r="1.5" fill="#212121"/><circle cx="0" cy="-25" r="2" fill="#212121"/><circle cx="0" cy="-10" r="2" fill="#212121"/></g><g transform="translate(459,808) scale(2.4420925647900904)"><circle cx="0" cy="-20" r="20" fill="#FFFFFF"/><circle cx="0" cy="-55" r="16" fill="#FFFFFF"/><circle cx="0" cy="-85" r="12" fill="#FFFFFF"/><rect x="-15" y="-95" width="30" height="4" fill="#212121" rx="2"/><rect x="-10" y="-115" width="20" height="20" fill="#212121"/><rect x="-10" y="-99" width="20" height="4" fill="#F44336"/><circle cx="-4" cy="-87" r="1.5" fill="#212121"/><circle cx="4" cy="-87" r="1.5" fill="#212121"/><path d="M 0 -83 L 15 -78 L 0 -77 Z" fill="#FF9800"/><path d="M -12 -70 Q 0 -65 12 -70 L 14 -60 Q 0 -55 -14 -60 Z" fill="#F44336"/><path d="M 8 -65 L 12 -45 L 6 -45 Z" fill="#F44336"/><circle cx="0" cy="-60" r="1.5" fill="#212121"/><circle cx="0" cy="-50" r="1.5" fill="#212121"/><circle cx="0" cy="-25" r="2" fill="#212121"/><circle cx="0" cy="-10" r="2" fill="#212121"/></g><g transform="translate(280,703) scale(2.419742862943862)"><circle cx="0" cy="-20" r="20" fill="#FFFFFF"/><circle cx="0" cy="-55" r="16" fill="#FFFFFF"/><circle cx="0" cy="-85" r="12" fill="#FFFFFF"/><rect x="-15" y="-95" width="30" height="4" fill="#212121" rx="2"/><rect x="-10" y="-115" width="20" height="20" fill="#212121"/><rect x="-10" y="-99" width="20" height="4" fill="#F44336"/><circle cx="-4" cy="-87" r="1.5" fill="#212121"/><circle cx="4" cy="-87" r="1.5" fill="#212121"/><path d="M 0 -83 L 15 -78 L 0 -77 Z" fill="#FF9800"/><path d="M -12 -70 Q 0 -65 12 -70 L 14 -60 Q 0 -55 -14 -60 Z" fill="#F44336"/><path d="M 8 -65 L 12 -45 L 6 -45 Z" fill="#F44336"/><circle cx="0" cy="-60" r="1.5" fill="#212121"/><circle cx="0" cy="-50" r="1.5" fill="#212121"/><circle cx="0" cy="-25" r="2" fill="#212121"/><circle cx="0" cy="-10" r="2" fill="#212121"/></g><g transform="translate(1081,767) scale(1.9679394483484538)"><rect x="-6" y="-10" width="12" height="20" fill="#795548" rx="2"/><path d="M -40 -10 L 40 -10 L 0 -50 Z" fill="#2E7D32"/><path d="M -30 -30 L 30 -30 L 0 -70 Z" fill="#43A047"/><path d="M -20 -50 L 20 -50 L 0 -90 Z" fill="#4CAF50"/><circle cx="-15" cy="-20" r="3.5" fill="#29B6F6"/><circle cx="10" cy="-25" r="3.5" fill="#FFEB3B"/><circle cx="-5" cy="-40" r="3.5" fill="#F44336"/><circle cx="15" cy="-45" r="3.5" fill="#29B6F6"/><circle cx="-10" cy="-60" r="3.5" fill="#FFEB3B"/><circle cx="0" cy="-30" r="3.5" fill="#FFEB3B"/><circle cx="20" cy="-15" r="3.5" fill="#FFEB3B"/><circle cx="-25" cy="-12" r="3.5" fill="#FFEB3B"/><polygon points="0,-95 3,-85 12,-85 5,-80 8,-70 0,-76 -8,-70 -5,-80 -12,-85 -3,-85" fill="#FFC107"/></g><g transform="translate(1002,787) scale(1.7882448610620245)"><rect x="-6" y="-10" width="12" height="20" fill="#795548" rx="2"/><path d="M -40 -10 L 40 -10 L 0 -50 Z" fill="#2E7D32"/><path d="M -30 -30 L 30 -30 L 0 -70 Z" fill="#43A047"/><path d="M -20 -50 L 20 -50 L 0 -90 Z" fill="#4CAF50"/><circle cx="-15" cy="-20" r="3.5" fill="#29B6F6"/><circle cx="10" cy="-25" r="3.5" fill="#FFEB3B"/><circle cx="-5" cy="-40" r="3.5" fill="#F44336"/><circle cx="15" cy="-45" r="3.5" fill="#F44336"/><circle cx="-10" cy="-60" r="3.5" fill="#FFEB3B"/><circle cx="0" cy="-30" r="3.5" fill="#F44336"/><circle cx="20" cy="-15" r="3.5" fill="#AB47BC"/><circle cx="-25" cy="-12" r="3.5" fill="#AB47BC"/><polygon points="0,-95 3,-85 12,-85 5,-80 8,-70 0,-76 -8,-70 -5,-80 -12,-85 -3,-85" fill="#FFC107"/></g><g transform="translate(364,724) scale(2.0705873670961363)"><rect x="-6" y="-10" width="12" height="20" fill="#795548" rx="2"/><path d="M -40 -10 L 40 -10 L 0 -50 Z" fill="#2E7D32"/><path d="M -30 -30 L 30 -30 L 0 -70 Z" fill="#43A047"/><path d="M -20 -50 L 20 -50 L 0 -90 Z" fill="#4CAF50"/><circle cx="-15" cy="-20" r="3.5" fill="#AB47BC"/><circle cx="10" cy="-25" r="3.5" fill="#FFEB3B"/><circle cx="-5" cy="-40" r="3.5" fill="#29B6F6"/><circle cx="15" cy="-45" r="3.5" fill="#F44336"/><circle cx="-10" cy="-60" r="3.5" fill="#FF9800"/><circle cx="0" cy="-30" r="3.5" fill="#29B6F6"/><circle cx="20" cy="-15" r="3.5" fill="#AB47BC"/><circle cx="-25" cy="-12" r="3.5" fill="#AB47BC"/><polygon points="0,-95 3,-85 12,-85 5,-80 8,-70 0,-76 -8,-70 -5,-80 -12,-85 -3,-85" fill="#FFC107"/></g><g transform="translate(130,705) scale(1.566947177296306)"><rect x="-6" y="-10" width="12" height="20" fill="#795548" rx="2"/><path d="M -40 -10 L 40 -10 L 0 -50 Z" fill="#2E7D32"/><path d="M -30 -30 L 30 -30 L 0 -70 Z" fill="#43A047"/><path d="M -20 -50 L 20 -50 L 0 -90 Z" fill="#4CAF50"/><circle cx="-15" cy="-20" r="3.5" fill="#29B6F6"/><circle cx="10" cy="-25" r="3.5" fill="#FFEB3B"/><circle cx="-5" cy="-40" r="3.5" fill="#AB47BC"/><circle cx="15" cy="-45" r="3.5" fill="#FFEB3B"/><circle cx="-10" cy="-60" r="3.5" fill="#29B6F6"/><circle cx="0" cy="-30" r="3.5" fill="#AB47BC"/><circle cx="20" cy="-15" r="3.5" fill="#FFEB3B"/><circle cx="-25" cy="-12" r="3.5" fill="#FF9800"/><polygon points="0,-95 3,-85 12,-85 5,-80 8,-70 0,-76 -8,-70 -5,-80 -12,-85 -3,-85" fill="#FFC107"/></g><g transform="translate(1160,720) scale(1.9972445451397531)"><rect x="-6" y="-10" width="12" height="20" fill="#795548" rx="2"/><path d="M -40 -10 L 40 -10 L 0 -50 Z" fill="#2E7D32"/><path d="M -30 -30 L 30 -30 L 0 -70 Z" fill="#43A047"/><path d="M -20 -50 L 20 -50 L 0 -90 Z" fill="#4CAF50"/><circle cx="-15" cy="-20" r="3.5" fill="#FF9800"/><circle cx="10" cy="-25" r="3.5" fill="#29B6F6"/><circle cx="-5" cy="-40" r="3.5" fill="#F44336"/><circle cx="15" cy="-45" r="3.5" fill="#AB47BC"/><circle cx="-10" cy="-60" r="3.5" fill="#29B6F6"/><circle cx="0" cy="-30" r="3.5" fill="#29B6F6"/><circle cx="20" cy="-15" r="3.5" fill="#F44336"/><circle cx="-25" cy="-12" r="3.5" fill="#AB47BC"/><polygon points="0,-95 3,-85 12,-85 5,-80 8,-70 0,-76 -8,-70 -5,-80 -12,-85 -3,-85" fill="#FFC107"/></g><g transform="translate(329,708) scale(2.3627547463331737)"><rect x="-6" y="-10" width="12" height="20" fill="#795548" rx="2"/><path d="M -40 -10 L 40 -10 L 0 -50 Z" fill="#2E7D32"/><path d="M -30 -30 L 30 -30 L 0 -70 Z" fill="#43A047"/><path d="M -20 -50 L 20 -50 L 0 -90 Z" fill="#4CAF50"/><circle cx="-15" cy="-20" r="3.5" fill="#FF9800"/><circle cx="10" cy="-25" r="3.5" fill="#FFEB3B"/><circle cx="-5" cy="-40" r="3.5" fill="#FFEB3B"/><circle cx="15" cy="-45" r="3.5" fill="#FFEB3B"/><circle cx="-10" cy="-60" r="3.5" fill="#FF9800"/><circle cx="0" cy="-30" r="3.5" fill="#29B6F6"/><circle cx="20" cy="-15" r="3.5" fill="#29B6F6"/><circle cx="-25" cy="-12" r="3.5" fill="#AB47BC"/><polygon points="0,-95 3,-85 12,-85 5,-80 8,-70 0,-76 -8,-70 -5,-80 -12,-85 -3,-85" fill="#FFC107"/></g><g transform="translate(1238,757) scale(1.0219276659588894)"><rect x="-15" y="-30" width="30" height="30" fill="#9C27B0" rx="2"/><rect x="-4" y="-30" width="8" height="30" fill="#00E676"/><rect x="-15" y="-19" width="30" height="8" fill="#00E676"/><path d="M -2 -30 C -15 -45 0 -45 0 -30 Z" fill="#00E676"/><path d="M 2 -30 C 15 -45 0 -45 0 -30 Z" fill="#00E676"/></g><g transform="translate(1156,793) scale(1.2579837293859937) rotate(11)"><path d="M 0 0 L 0 -30 A 10 10 0 0 1 20 -30 L 20 -20" fill="none" stroke="#FFFFFF" stroke-width="8" stroke-linecap="round"/><path d="M 0 -5 L 0 -15" stroke="#F44336" stroke-width="8"/><path d="M 0 -25 A 10 10 0 0 1 10 -40" stroke="#F44336" stroke-width="8" fill="none"/><path d="M 20 -30 L 20 -25" stroke="#F44336" stroke-width="8"/></g><g transform="translate(1150,837) scale(1.0274839387909385)"><rect x="-15" y="-30" width="30" height="30" fill="#9C27B0" rx="2"/><rect x="-4" y="-30" width="8" height="30" fill="#00E676"/><rect x="-15" y="-19" width="30" height="8" fill="#00E676"/><path d="M -2 -30 C -15 -45 0 -45 0 -30 Z" fill="#00E676"/><path d="M 2 -30 C 15 -45 0 -45 0 -30 Z" fill="#00E676"/></g><g transform="translate(480,814) scale(0.829995898054391) rotate(-12)"><path d="M 0 0 L 0 -30 A 10 10 0 0 1 20 -30 L 20 -20" fill="none" stroke="#FFFFFF" stroke-width="8" stroke-linecap="round"/><path d="M 0 -5 L 0 -15" stroke="#F44336" stroke-width="8"/><path d="M 0 -25 A 10 10 0 0 1 10 -40" stroke="#F44336" stroke-width="8" fill="none"/><path d="M 20 -30 L 20 -25" stroke="#F44336" stroke-width="8"/></g><g transform="translate(1064,773) scale(0.8341026647849308)"><rect x="-15" y="-30" width="30" height="30" fill="#F44336" rx="2"/><rect x="-4" y="-30" width="8" height="30" fill="#FFEB3B"/><rect x="-15" y="-19" width="30" height="8" fill="#FFEB3B"/><path d="M -2 -30 C -15 -45 0 -45 0 -30 Z" fill="#FFEB3B"/><path d="M 2 -30 C 15 -45 0 -45 0 -30 Z" fill="#FFEB3B"/></g><g transform="translate(539,810) scale(0.841122108334306) rotate(-4)"><path d="M 0 0 L 0 -30 A 10 10 0 0 1 20 -30 L 20 -20" fill="none" stroke="#FFFFFF" stroke-width="8" stroke-linecap="round"/><path d="M 0 -5 L 0 -15" stroke="#F44336" stroke-width="8"/><path d="M 0 -25 A 10 10 0 0 1 10 -40" stroke="#F44336" stroke-width="8" fill="none"/><path d="M 20 -30 L 20 -25" stroke="#F44336" stroke-width="8"/></g><g transform="translate(676,847) scale(1.4016342223316312)"><rect x="-15" y="-30" width="30" height="30" fill="#F44336" rx="2"/><rect x="-4" y="-30" width="8" height="30" fill="#FFEB3B"/><rect x="-15" y="-19" width="30" height="8" fill="#FFEB3B"/><path d="M -2 -30 C -15 -45 0 -45 0 -30 Z" fill="#FFEB3B"/><path d="M 2 -30 C 15 -45 0 -45 0 -30 Z" fill="#FFEB3B"/></g><g transform="translate(713,755) scale(1.0949368185959876) rotate(7)"><path d="M 0 0 L 0 -30 A 10 10 0 0 1 20 -30 L 20 -20" fill="none" stroke="#FFFFFF" stroke-width="8" stroke-linecap="round"/><path d="M 0 -5 L 0 -15" stroke="#F44336" stroke-width="8"/><path d="M 0 -25 A 10 10 0 0 1 10 -40" stroke="#F44336" stroke-width="8" fill="none"/><path d="M 20 -30 L 20 -25" stroke="#F44336" stroke-width="8"/></g><g transform="translate(1363,795) scale(0.8749374460245531)"><rect x="-15" y="-30" width="30" height="30" fill="#2196F3" rx="2"/><rect x="-4" y="-30" width="8" height="30" fill="#F44336"/><rect x="-15" y="-19" width="30" height="8" fill="#F44336"/><path d="M -2 -30 C -15 -45 0 -45 0 -30 Z" fill="#F44336"/><path d="M 2 -30 C 15 -45 0 -45 0 -30 Z" fill="#F44336"/></g><g transform="translate(999,791) scale(0.8774460559375774) rotate(16)"><path d="M 0 0 L 0 -30 A 10 10 0 0 1 20 -30 L 20 -20" fill="none" stroke="#FFFFFF" stroke-width="8" stroke-linecap="round"/><path d="M 0 -5 L 0 -15" stroke="#F44336" stroke-width="8"/><path d="M 0 -25 A 10 10 0 0 1 10 -40" stroke="#F44336" stroke-width="8" fill="none"/><path d="M 20 -30 L 20 -25" stroke="#F44336" stroke-width="8"/></g><circle cx="1373" cy="598" r="5.753109460949608" fill="#FFFFFF" opacity="0.7504888187241132"/><circle cx="1388" cy="87" r="2.6040161959959076" fill="#FFFFFF" opacity="0.7419113927100834"/><circle cx="1181" cy="799" r="5.325382640403848" fill="#FFFFFF" opacity="0.554992630271087"/><circle cx="1171" cy="131" r="2.6352747824592537" fill="#FFFFFF" opacity="0.7341298851862221"/><circle cx="253" cy="64" r="3.9847417341204543" fill="#FFFFFF" opacity="0.552711667915253"/><circle cx="1301" cy="426" r="3.3554607143135624" fill="#FFFFFF" opacity="0.807554530973801"/><circle cx="1333" cy="736" r="5.37862632444776" fill="#FFFFFF" opacity="0.7000343572847069"/><circle cx="505" cy="829" r="3.9015257322321224" fill="#FFFFFF" opacity="0.61332587462656"/><circle cx="917" cy="850" r="5.43715138427455" fill="#FFFFFF" opacity="0.7247252769971144"/><circle cx="851" cy="605" r="4.41661696875442" fill="#FFFFFF" opacity="0.7756035000514707"/><circle cx="1022" cy="312" r="4.443367226944459" fill="#FFFFFF" opacity="0.6641725977947075"/><circle cx="635" cy="512" r="5.834893691841172" fill="#FFFFFF" opacity="0.5714370376790677"/><circle cx="570" cy="185" r="5.231279760677878" fill="#FFFFFF" opacity="0.7787857506038482"/><circle cx="1523" cy="138" r="4.650354297922679" fill="#FFFFFF" opacity="0.553373279483758"/><circle cx="952" cy="602" r="3.186127064596609" fill="#FFFFFF" opacity="0.7375714708100058"/><circle cx="75" cy="445" r="4.44202791695346" fill="#FFFFFF" opacity="0.6407089152379453"/><circle cx="1319" cy="894" r="5.0783892587260056" fill="#FFFFFF" opacity="0.557698044602482"/><circle cx="134" cy="373" r="5.133768324878774" fill="#FFFFFF" opacity="0.8113792579460299"/><circle cx="761" cy="58" r="5.346844754063374" fill="#FFFFFF" opacity="0.7046664433798875"/><circle cx="730" cy="644" r="2.1901290403574083" fill="#FFFFFF" opacity="0.6036856549711312"/><circle cx="332" cy="573" r="2.6653516047561805" fill="#FFFFFF" opacity="0.7394241892670932"/><circle cx="429" cy="672" r="4.06400471553358" fill="#FFFFFF" opacity="0.7565465075528013"/><circle cx="530" cy="797" r="3.9529352286440376" fill="#FFFFFF" opacity="0.529303713642808"/><circle cx="167" cy="35" r="4.898413443102848" fill="#FFFFFF" opacity="0.700452898690153"/><circle cx="729" cy="92" r="4.328108570257349" fill="#FFFFFF" opacity="0.68512095577271"/><circle cx="290" cy="31" r="3.0698179404155885" fill="#FFFFFF" opacity="0.5979583581769387"/><circle cx="631" cy="844" r="4.141723551978585" fill="#FFFFFF" opacity="0.5316132726489398"/><circle cx="369" cy="641" r="2.852971357656721" fill="#FFFFFF" opacity="0.6453105819476025"/><circle cx="786" cy="177" r="4.656015855591246" fill="#FFFFFF" opacity="0.649282490472374"/><circle cx="1149" cy="419" r="3.1883425391309723" fill="#FFFFFF" opacity="0.6735195807591188"/><circle cx="508" cy="425" r="3.007613015177458" fill="#FFFFFF" opacity="0.835425372771448"/><circle cx="304" cy="620" r="4.544797103947662" fill="#FFFFFF" opacity="0.8427017265986281"/><circle cx="1330" cy="432" r="2.219914842002608" fill="#FFFFFF" opacity="0.7364042119639798"/><circle cx="338" cy="626" r="3.1322891995537914" fill="#FFFFFF" opacity="0.6530759404410177"/><circle cx="386" cy="275" r="2.214422383013897" fill="#FFFFFF" opacity="0.791766042376814"/><circle cx="1392" cy="172" r="3.9138571089672887" fill="#FFFFFF" opacity="0.8252474574780508"/><circle cx="5" cy="516" r="5.442274511797773" fill="#FFFFFF" opacity="0.6852424277374"/><circle cx="734" cy="145" r="3.9142061972510946" fill="#FFFFFF" opacity="0.7891022129492187"/><circle cx="1165" cy="844" r="2.9205862256324853" fill="#FFFFFF" opacity="0.681583889413866"/><circle cx="275" cy="871" r="2.9851293379667023" fill="#FFFFFF" opacity="0.6736254570334251"/><circle cx="1253" cy="756" r="4.915050449067339" fill="#FFFFFF" opacity="0.7396624662821148"/><circle cx="1548" cy="857" r="2.8696897625143962" fill="#FFFFFF" opacity="0.7632344443255048"/><circle cx="430" cy="75" r="5.954008975838619" fill="#FFFFFF" opacity="0.7375750729877619"/><circle cx="245" cy="183" r="5.466429297356338" fill="#FFFFFF" opacity="0.6889580988793473"/><circle cx="1199" cy="358" r="3.506420300325835" fill="#FFFFFF" opacity="0.6574867214596769"/><circle cx="104" cy="818" r="2.340752898470854" fill="#FFFFFF" opacity="0.5006200320254983"/><circle cx="502" cy="794" r="4.32565228871624" fill="#FFFFFF" opacity="0.6489681336925539"/><circle cx="1492" cy="361" r="5.247774743145353" fill="#FFFFFF" opacity="0.7590526934507673"/><circle cx="1383" cy="431" r="4.21190885158839" fill="#FFFFFF" opacity="0.7103877033718702"/><circle cx="283" cy="241" r="3.342299137484793" fill="#FFFFFF" opacity="0.771571834419627"/><circle cx="150" cy="142" r="3.8909272847163443" fill="#FFFFFF" opacity="0.8024882189829632"/><circle cx="194" cy="127" r="3.444455629012662" fill="#FFFFFF" opacity="0.5277574700267438"/><circle cx="503" cy="865" r="2.966112016714937" fill="#FFFFFF" opacity="0.6218678801537592"/><circle cx="621" cy="289" r="4.488235862126853" fill="#FFFFFF" opacity="0.5004353542512265"/><circle cx="812" cy="591" r="4.010642664658834" fill="#FFFFFF" opacity="0.5973122947218531"/><circle cx="78" cy="783" r="2.0816277145849322" fill="#FFFFFF" opacity="0.5013244760249093"/><circle cx="554" cy="818" r="2.4498736816605207" fill="#FFFFFF" opacity="0.790641515378798"/><circle cx="1175" cy="574" r="4.377310185866168" fill="#FFFFFF" opacity="0.5031562679720121"/><circle cx="877" cy="840" r="4.022364194110139" fill="#FFFFFF" opacity="0.5844435714278335"/><circle cx="974" cy="87" r="5.298151429303385" fill="#FFFFFF" opacity="0.7978530645209105"/><circle cx="1426" cy="863" r="5.787276467311363" fill="#FFFFFF" opacity="0.7939555460864675"/><circle cx="1380" cy="113" r="5.294663838684622" fill="#FFFFFF" opacity="0.5661510812883332"/><circle cx="1099" cy="420" r="5.828114885609754" fill="#FFFFFF" opacity="0.5907689168558689"/><circle cx="1326" cy="464" r="2.787596526683722" fill="#FFFFFF" opacity="0.5382894491045107"/><circle cx="1193" cy="384" r="4.52674913289105" fill="#FFFFFF" opacity="0.7067802998716288"/><circle cx="265" cy="383" r="3.310822339154369" fill="#FFFFFF" opacity="0.8266535070622474"/><circle cx="663" cy="455" r="2.387413442293049" fill="#FFFFFF" opacity="0.7861534741841334"/><circle cx="179" cy="363" r="3.6037894958514975" fill="#FFFFFF" opacity="0.6705305429754974"/><circle cx="944" cy="822" r="3.0019662772145264" fill="#FFFFFF" opacity="0.5462178522946415"/><circle cx="1223" cy="605" r="3.2477794636131954" fill="#FFFFFF" opacity="0.7248628967798523"/><circle cx="243" cy="476" r="4.63222092383401" fill="#FFFFFF" opacity="0.7126683680701731"/><circle cx="1516" cy="32" r="2.3568085776293075" fill="#FFFFFF" opacity="0.7630222439429746"/><circle cx="412" cy="446" r="5.6915059985157805" fill="#FFFFFF" opacity="0.5598256781552591"/><circle cx="859" cy="30" r="3.1754878880618587" fill="#FFFFFF" opacity="0.6435109957301111"/><circle cx="177" cy="208" r="4.019708868165635" fill="#FFFFFF" opacity="0.8101812870776517"/><circle cx="1287" cy="567" r="5.113396347122892" fill="#FFFFFF" opacity="0.5737608857270137"/><circle cx="1495" cy="606" r="3.7859327647648606" fill="#FFFFFF" opacity="0.8178820601323731"/><circle cx="1517" cy="692" r="2.140673370456637" fill="#FFFFFF" opacity="0.7130656903226381"/><circle cx="944" cy="194" r="2.8679670022479247" fill="#FFFFFF" opacity="0.6092821398179761"/><circle cx="721" cy="857" r="4.383191022803199" fill="#FFFFFF" opacity="0.5566247839203238"/><circle cx="549" cy="71" r="3.6726114807849166" fill="#FFFFFF" opacity="0.6898699814421074"/><circle cx="71" cy="265" r="5.1834180375909895" fill="#FFFFFF" opacity="0.8341057675325856"/><circle cx="554" cy="704" r="3.2990838077227322" fill="#FFFFFF" opacity="0.6013994520063619"/><circle cx="618" cy="848" r="4.4537118520390315" fill="#FFFFFF" opacity="0.6679628205532596"/><circle cx="826" cy="84" r="3.6015291060978827" fill="#FFFFFF" opacity="0.6114825214723567"/><circle cx="150" cy="831" r="2.4111441880873303" fill="#FFFFFF" opacity="0.7861957602178025"/><circle cx="1486" cy="432" r="5.0491800691818165" fill="#FFFFFF" opacity="0.7668181355029033"/><circle cx="1316" cy="732" r="4.0421795899777235" fill="#FFFFFF" opacity="0.8442156652906065"/><circle cx="305" cy="259" r="2.945507876366134" fill="#FFFFFF" opacity="0.5034204301294042"/><circle cx="1527" cy="431" r="4.016561253844097" fill="#FFFFFF" opacity="0.5444071120491417"/><circle cx="652" cy="393" r="2.6743563493501146" fill="#FFFFFF" opacity="0.671284602024232"/><circle cx="958" cy="142" r="4.0617558282859" fill="#FFFFFF" opacity="0.6281683689424888"/><circle cx="428" cy="354" r="2.5553934789718777" fill="#FFFFFF" opacity="0.7497119659752445"/><circle cx="906" cy="558" r="3.424693547349565" fill="#FFFFFF" opacity="0.7896733285400146"/><circle cx="388" cy="810" r="4.990202530295258" fill="#FFFFFF" opacity="0.6759603835616004"/><circle cx="398" cy="179" r="2.503854605679711" fill="#FFFFFF" opacity="0.621020744467849"/><circle cx="1372" cy="94" r="3.6163399441261865" fill="#FFFFFF" opacity="0.8410326152441403"/><circle cx="295" cy="848" r="5.5641347726711246" fill="#FFFFFF" opacity="0.5187089904849598"/><circle cx="73" cy="502" r="3.25024656769292" fill="#FFFFFF" opacity="0.663650516987149"/><circle cx="1492" cy="414" r="4.579428978476086" fill="#FFFFFF" opacity="0.8906840925597683"/><circle cx="1342" cy="633" r="3.4518042280254595" fill="#FFFFFF" opacity="0.5739593088866082"/><circle cx="420" cy="431" r="5.326322176299961" fill="#FFFFFF" opacity="0.7983583774373819"/><circle cx="481" cy="512" r="5.031490785945513" fill="#FFFFFF" opacity="0.802857534853208"/><circle cx="1564" cy="516" r="5.981890147152644" fill="#FFFFFF" opacity="0.8745545804175755"/><circle cx="661" cy="728" r="2.524031663438751" fill="#FFFFFF" opacity="0.767973198838064"/><circle cx="1305" cy="429" r="3.681935814814393" fill="#FFFFFF" opacity="0.7285351169066755"/><circle cx="1234" cy="48" r="2.431079479737299" fill="#FFFFFF" opacity="0.5999329434588891"/><circle cx="1073" cy="112" r="2.0039726519416727" fill="#FFFFFF" opacity="0.785119697519834"/><circle cx="956" cy="115" r="3.4243813057976595" fill="#FFFFFF" opacity="0.6084235459211715"/><circle cx="990" cy="312" r="2.3241717428412336" fill="#FFFFFF" opacity="0.6539404922314127"/><circle cx="891" cy="334" r="2.161039790080429" fill="#FFFFFF" opacity="0.6509868879234488"/><circle cx="592" cy="886" r="3.9191936519405806" fill="#FFFFFF" opacity="0.6019768517004965"/><circle cx="672" cy="685" r="4.023389346711944" fill="#FFFFFF" opacity="0.7755037660267585"/><circle cx="555" cy="852" r="5.233756550696541" fill="#FFFFFF" opacity="0.8616720235184978"/><circle cx="921" cy="196" r="2.7320689081276712" fill="#FFFFFF" opacity="0.8377598829149392"/><circle cx="704" cy="212" r="5.491238433819963" fill="#FFFFFF" opacity="0.741567368478472"/><circle cx="993" cy="210" r="4.048742817846347" fill="#FFFFFF" opacity="0.8069586547275184"/><circle cx="313" cy="169" r="3.401048661431149" fill="#FFFFFF" opacity="0.8260117517521925"/><circle cx="816" cy="143" r="3.5010657875132725" fill="#FFFFFF" opacity="0.5163228635063287"/><circle cx="774" cy="275" r="5.807537340565207" fill="#FFFFFF" opacity="0.7961004596590326"/><circle cx="762" cy="828" r="3.6814373967448724" fill="#FFFFFF" opacity="0.6508528010956208"/><circle cx="63" cy="270" r="3.3416943503901653" fill="#FFFFFF" opacity="0.7486690717966721"/><circle cx="356" cy="862" r="4.912505835367168" fill="#FFFFFF" opacity="0.5181481817548211"/><circle cx="1519" cy="371" r="4.613210836243908" fill="#FFFFFF" opacity="0.8620580512444029"/><circle cx="1008" cy="351" r="5.941004747234377" fill="#FFFFFF" opacity="0.6331852217560903"/><circle cx="429" cy="63" r="2.5249082936733087" fill="#FFFFFF" opacity="0.7677115739494177"/><circle cx="1423" cy="890" r="3.847403338817632" fill="#FFFFFF" opacity="0.7603064266012991"/><circle cx="981" cy="437" r="3.346478928824451" fill="#FFFFFF" opacity="0.8900523945776968"/><circle cx="76" cy="815" r="5.5348282341096615" fill="#FFFFFF" opacity="0.6975404409810892"/><circle cx="224" cy="534" r="4.5475260163266835" fill="#FFFFFF" opacity="0.6730202055027523"/><circle cx="1096" cy="865" r="4.147947475116268" fill="#FFFFFF" opacity="0.7592121550098059"/><circle cx="1219" cy="91" r="2.2396933902624467" fill="#FFFFFF" opacity="0.6066684584512173"/><circle cx="827" cy="165" r="2.7010688311093896" fill="#FFFFFF" opacity="0.8903958700127221"/><circle cx="521" cy="829" r="3.6765340995900213" fill="#FFFFFF" opacity="0.8605371735513758"/><circle cx="426" cy="179" r="3.798519651193412" fill="#FFFFFF" opacity="0.6500485937269285"/><circle cx="1165" cy="242" r="5.422120907814757" fill="#FFFFFF" opacity="0.6040073910036586"/><circle cx="1115" cy="297" r="5.111742057958314" fill="#FFFFFF" opacity="0.8875915474586287"/><circle cx="424" cy="712" r="3.1833851023824824" fill="#FFFFFF" opacity="0.8390099597604764"/><circle cx="79" cy="837" r="2.7546207551460364" fill="#FFFFFF" opacity="0.66226759893521"/><circle cx="1037" cy="707" r="5.642108818711469" fill="#FFFFFF" opacity="0.6183452859300436"/><circle cx="1191" cy="287" r="4.280106345439716" fill="#FFFFFF" opacity="0.650204343557934"/><circle cx="471" cy="193" r="5.567316049676185" fill="#FFFFFF" opacity="0.6377613181043019"/><circle cx="1122" cy="524" r="4.9660259264926845" fill="#FFFFFF" opacity="0.7076581177279566"/><circle cx="972" cy="865" r="4.075055289364688" fill="#FFFFFF" opacity="0.5956139652693333"/><circle cx="830" cy="356" r="2.905386872220216" fill="#FFFFFF" opacity="0.8999625119679203"/><circle cx="1367" cy="245" r="5.804099558303328" fill="#FFFFFF" opacity="0.785615076249027"/><circle cx="205" cy="305" r="3.749539238691356" fill="#FFFFFF" opacity="0.5807672879760919"/><circle cx="510" cy="149" r="5.253496941364425" fill="#FFFFFF" opacity="0.6468583715145201"/><circle cx="1274" cy="578" r="5.078789041475316" fill="#FFFFFF" opacity="0.6986024072488681"/><circle cx="1247" cy="348" r="4.672570328646838" fill="#FFFFFF" opacity="0.8423798205529065"/></svg>