<svg xmlns="http://www.w3.org/2000/svg" viewBox="0 0 1600 900" preserveAspectRatio="xMidYMid slice">
  <defs>
    <linearGradient id="sky" x1="0" y1="0" x2="1" y2="1"><stop offset="0" stop-color="#123a43"/><stop offset="1" stop-color="#235f5a"/></linearGradient>
    <radialGradient id="glow" cx="50%" cy="22%" r="55%"><stop offset="0" stop-color="#fff1aa" stop-opacity=".32"/><stop offset="1" stop-color="#fff1aa" stop-opacity="0"/></radialGradient>
    <filter id="soft"><feGaussianBlur stdDeviation="10"/></filter>
  </defs>
  <rect width="1600" height="900" fill="url(#sky)"/>
  <rect width="1600" height="900" fill="url(#glow)"/>
  <g opacity=".55" fill="#fff8e9">
    <circle cx="168" cy="106" r="3"/><circle cx="320" cy="188" r="2"/><circle cx="472" cy="92" r="3"/><circle cx="612" cy="156" r="2"/><circle cx="790" cy="76" r="3"/><circle cx="1012" cy="150" r="2"/><circle cx="1260" cy="98" r="3"/><circle cx="1460" cy="176" r="2"/><circle cx="1378" cy="54" r="2"/><circle cx="113" cy="292" r="2"/><circle cx="1444" cy="325" r="3"/>
  </g>
  <circle cx="1320" cy="170" r="62" fill="#fff0b5" opacity=".92"/>
  <path d="M0 700 C260 620 390 760 625 690 C850 626 1000 728 1230 650 C1396 592 1484 615 1600 570 L1600 900 L0 900 Z" fill="#e9f7ef" opacity=".92"/>
  <path d="M0 765 C235 705 425 792 612 744 C780 700 920 792 1095 736 C1290 676 1450 724 1600 690 L1600 900 L0 900 Z" fill="#ffffff" opacity=".96"/>
  
  <g transform="translate(1120 390)">
    <path d="M140 0 L40 150 H95 L10 275 H110 L60 380 H220 L170 275 H270 L185 150 H240 Z" fill="#32b86f"/>
    <rect x="126" y="350" width="45" height="88" rx="8" fill="#7e4b2f"/>
    <circle cx="103" cy="158" r="16" fill="#ff6f68"/><circle cx="188" cy="218" r="16" fill="#ffe16f"/><circle cx="144" cy="286" r="16" fill="#fffbdb"/>
    <path d="M140 -44 L157 -8 L197 -3 L168 23 L176 62 L140 42 L104 62 L112 23 L83 -3 L123 -8 Z" fill="#ffe16f"/>
  </g><g transform="translate(365 430)"><rect x="0" y="0" width="28" height="310" rx="12" fill="#fff8e9"/><path d="M28 40 H260 L225 95 H28 Z" fill="#ff6f68"/><text x="54" y="78" font-family="Arial" font-size="34" font-weight="900" fill="#fff8e9">NORTH POLE</text></g>
</svg>