<svg xmlns="http://www.w3.org/2000/svg" viewBox="0 0 1600 900" preserveAspectRatio="xMidYMid slice"><defs><linearGradient id="bg3" x1="0" y1="0" x2="0" y2="1"><stop offset="0%" stop-color="#64B5F6"/><stop offset="100%" stop-color="#E3F2FD"/></linearGradient><linearGradient id="hill13" x1="0" y1="0" x2="0" y2="1"><stop offset="0%" stop-color="#FFFFFF"/><stop offset="100%" stop-color="#E3F2FD"/></linearGradient><linearGradient id="hill23" x1="0" y1="0" x2="0" y2="1"><stop offset="0%" stop-color="#F5F5F5"/><stop offset="100%" stop-color="#BBDEFB"/></linearGradient></defs><rect width="1600" height="900" fill="url(#bg3)"/><circle cx="1300" cy="200" r="80" fill="#FFEB3B" opacity="0.9"/><path d="M 0 600 Q 400 450 800 600 T 1600 550 L 1600 900 L 0 900 Z" fill="url(#hill23)"/><g transform="translate(565,585) scale(0.9385199831345988)"><rect x="-6" y="-10" width="12" height="20" fill="#795548" rx="2"/><path d="M -40 -10 L 40 -10 L 0 -50 Z" fill="#2E7D32"/><path d="M -30 -30 L 30 -30 L 0 -70 Z" fill="#43A047"/><path d="M -20 -50 L 20 -50 L 0 -90 Z" fill="#4CAF50"/><circle cx="-15" cy="-20" r="3.5" fill="#AB47BC"/><circle cx="10" cy="-25" r="3.5" fill="#29B6F6"/><circle cx="-5" cy="-40" r="3.5" fill="#FF9800"/><circle cx="15" cy="-45" r="3.5" fill="#FF9800"/><circle cx="-10" cy="-60" r="3.5" fill="#FF9800"/><circle cx="0" cy="-30" r="3.5" fill="#FFEB3B"/><circle cx="20" cy="-15" r="3.5" fill="#29B6F6"/><circle cx="-25" cy="-12" r="3.5" fill="#F44336"/><polygon points="0,-95 3,-85 12,-85 5,-80 8,-70 0,-76 -8,-70 -5,-80 -12,-85 -3,-85" fill="#FFC107"/></g><g transform="translate(184,597) scale(1.059397532278966)"><rect x="-6" y="-10" width="12" height="20" fill="#795548" rx="2"/><path d="M -40 -10 L 40 -10 L 0 -50 Z" fill="#2E7D32"/><path d="M -30 -30 L 30 -30 L 0 -70 Z" fill="#43A047"/><path d="M -20 -50 L 20 -50 L 0 -90 Z" fill="#4CAF50"/><circle cx="-15" cy="-20" r="3.5" fill="#AB47BC"/><circle cx="10" cy="-25" r="3.5" fill="#FF9800"/><circle cx="-5" cy="-40" r="3.5" fill="#FF9800"/><circle cx="15" cy="-45" r="3.5" fill="#FFEB3B"/><circle cx="-10" cy="-60" r="3.5" fill="#FF9800"/><circle cx="0" cy="-30" r="3.5" fill="#FFEB3B"/><circle cx="20" cy="-15" r="3.5" fill="#FF9800"/><circle cx="-25" cy="-12" r="3.5" fill="#AB47BC"/><polygon points="0,-95 3,-85 12,-85 5,-80 8,-70 0,-76 -8,-70 -5,-80 -12,-85 -3,-85" fill="#FFC107"/></g><g transform="translate(438,585) scale(1.185961699762554)"><rect x="-6" y="-10" width="12" height="20" fill="#795548" rx="2"/><path d="M -40 -10 L 40 -10 L 0 -50 Z" fill="#2E7D32"/><path d="M -30 -30 L 30 -30 L 0 -70 Z" fill="#43A047"/><path d="M -20 -50 L 20 -50 L 0 -90 Z" fill="#4CAF50"/><circle cx="-15" cy="-20" r="3.5" fill="#29B6F6"/><circle cx="10" cy="-25" r="3.5" fill="#FF9800"/><circle cx="-5" cy="-40" r="3.5" fill="#29B6F6"/><circle cx="15" cy="-45" r="3.5" fill="#AB47BC"/><circle cx="-10" cy="-60" r="3.5" fill="#FF9800"/><circle cx="0" cy="-30" r="3.5" fill="#F44336"/><circle cx="20" cy="-15" r="3.5" fill="#FFEB3B"/><circle cx="-25" cy="-12" r="3.5" fill="#FFEB3B"/><polygon points="0,-95 3,-85 12,-85 5,-80 8,-70 0,-76 -8,-70 -5,-80 -12,-85 -3,-85" fill="#FFC107"/></g><g transform="translate(1166,634) scale(0.9032618546098239)"><rect x="-6" y="-10" width="12" height="20" fill="#795548" rx="2"/><path d="M -40 -10 L 40 -10 L 0 -50 Z" fill="#2E7D32"/><path d="M -30 -30 L 30 -30 L 0 -70 Z" fill="#43A047"/><path d="M -20 -50 L 20 -50 L 0 -90 Z" fill="#4CAF50"/><circle cx="-15" cy="-20" r="3.5" fill="#FFEB3B"/><circle cx="10" cy="-25" r="3.5" fill="#FFEB3B"/><circle cx="-5" cy="-40" r="3.5" fill="#AB47BC"/><circle cx="15" cy="-45" r="3.5" fill="#FF9800"/><circle cx="-10" cy="-60" r="3.5" fill="#29B6F6"/><circle cx="0" cy="-30" r="3.5" fill="#FF9800"/><circle cx="20" cy="-15" r="3.5" fill="#AB47BC"/><circle cx="-25" cy="-12" r="3.5" fill="#FFEB3B"/><polygon points="0,-95 3,-85 12,-85 5,-80 8,-70 0,-76 -8,-70 -5,-80 -12,-85 -3,-85" fill="#FFC107"/></g><g transform="translate(1114,615) scale(0.8259316218816344)"><rect x="-6" y="-10" width="12" height="20" fill="#795548" rx="2"/><path d="M -40 -10 L 40 -10 L 0 -50 Z" fill="#2E7D32"/><path d="M -30 -30 L 30 -30 L 0 -70 Z" fill="#43A047"/><path d="M -20 -50 L 20 -50 L 0 -90 Z" fill="#4CAF50"/><circle cx="-15" cy="-20" r="3.5" fill="#FFEB3B"/><circle cx="10" cy="-25" r="3.5" fill="#AB47BC"/><circle cx="-5" cy="-40" r="3.5" fill="#AB47BC"/><circle cx="15" cy="-45" r="3.5" fill="#FFEB3B"/><circle cx="-10" cy="-60" r="3.5" fill="#FF9800"/><circle cx="0" cy="-30" r="3.5" fill="#29B6F6"/><circle cx="20" cy="-15" r="3.5" fill="#FF9800"/><circle cx="-25" cy="-12" r="3.5" fill="#AB47BC"/><polygon points="0,-95 3,-85 12,-85 5,-80 8,-70 0,-76 -8,-70 -5,-80 -12,-85 -3,-85" fill="#FFC107"/></g><g transform="translate(1195,616) scale(0.8060172045075051)"><rect x="-6" y="-10" width="12" height="20" fill="#795548" rx="2"/><path d="M -40 -10 L 40 -10 L 0 -50 Z" fill="#2E7D32"/><path d="M -30 -30 L 30 -30 L 0 -70 Z" fill="#43A047"/><path d="M -20 -50 L 20 -50 L 0 -90 Z" fill="#4CAF50"/><circle cx="-15" cy="-20" r="3.5" fill="#29B6F6"/><circle cx="10" cy="-25" r="3.5" fill="#F44336"/><circle cx="-5" cy="-40" r="3.5" fill="#29B6F6"/><circle cx="15" cy="-45" r="3.5" fill="#FFEB3B"/><circle cx="-10" cy="-60" r="3.5" fill="#AB47BC"/><circle cx="0" cy="-30" r="3.5" fill="#F44336"/><circle cx="20" cy="-15" r="3.5" fill="#F44336"/><circle cx="-25" cy="-12" r="3.5" fill="#F44336"/><polygon points="0,-95 3,-85 12,-85 5,-80 8,-70 0,-76 -8,-70 -5,-80 -12,-85 -3,-85" fill="#FFC107"/></g><g transform="translate(1323,588) scale(0.8251800131095542)"><rect x="-6" y="-10" width="12" height="20" fill="#795548" rx="2"/><path d="M -40 -10 L 40 -10 L 0 -50 Z" fill="#2E7D32"/><path d="M -30 -30 L 30 -30 L 0 -70 Z" fill="#43A047"/><path d="M -20 -50 L 20 -50 L 0 -90 Z" fill="#4CAF50"/><circle cx="-15" cy="-20" r="3.5" fill="#F44336"/><circle cx="10" cy="-25" r="3.5" fill="#FFEB3B"/><circle cx="-5" cy="-40" r="3.5" fill="#FFEB3B"/><circle cx="15" cy="-45" r="3.5" fill="#FF9800"/><circle cx="-10" cy="-60" r="3.5" fill="#F44336"/><circle cx="0" cy="-30" r="3.5" fill="#29B6F6"/><circle cx="20" cy="-15" r="3.5" fill="#FFEB3B"/><circle cx="-25" cy="-12" r="3.5" fill="#29B6F6"/><polygon points="0,-95 3,-85 12,-85 5,-80 8,-70 0,-76 -8,-70 -5,-80 -12,-85 -3,-85" fill="#FFC107"/></g><g transform="translate(326,592) scale(1.014765991028316)"><rect x="-6" y="-10" width="12" height="20" fill="#795548" rx="2"/><path d="M -40 -10 L 40 -10 L 0 -50 Z" fill="#2E7D32"/><path d="M -30 -30 L 30 -30 L 0 -70 Z" fill="#43A047"/><path d="M -20 -50 L 20 -50 L 0 -90 Z" fill="#4CAF50"/><circle cx="-15" cy="-20" r="3.5" fill="#F44336"/><circle cx="10" cy="-25" r="3.5" fill="#AB47BC"/><circle cx="-5" cy="-40" r="3.5" fill="#F44336"/><circle cx="15" cy="-45" r="3.5" fill="#FFEB3B"/><circle cx="-10" cy="-60" r="3.5" fill="#F44336"/><circle cx="0" cy="-30" r="3.5" fill="#FF9800"/><circle cx="20" cy="-15" r="3.5" fill="#FFEB3B"/><circle cx="-25" cy="-12" r="3.5" fill="#FFEB3B"/><polygon points="0,-95 3,-85 12,-85 5,-80 8,-70 0,-76 -8,-70 -5,-80 -12,-85 -3,-85" fill="#FFC107"/></g><path d="M 0 700 Q 600 550 1200 750 T 1600 650 L 1600 900 L 0 900 Z" fill="url(#hill13)"/><g transform="translate(800,750) scale(4.0)"><rect x="-40" y="-40" width="80" height="40" fill="#795548"/><rect x="-10" y="-20" width="20" height="20" fill="#FF9800" rx="2"/><circle cx="6" cy="-10" r="2" fill="#FFE082"/><rect x="-30" y="-25" width="12" height="12" fill="#FFF59D" rx="1"/><rect x="18" y="-25" width="12" height="12" fill="#FFF59D" rx="1"/><circle cx="0" cy="-10" r="4" fill="none" stroke="#4CAF50" stroke-width="2"/><circle cx="0" cy="-14" r="1" fill="#F44336"/><path d="M -50 -40 L 0 -80 L 50 -40 Z" fill="#D32F2F"/><path d="M -50 -40 L 0 -80 L 50 -40" fill="none" stroke="#FFFFFF" stroke-width="8" stroke-linecap="round" stroke-linejoin="round"/></g><g transform="translate(500,780) scale(2.0)"><rect x="-6" y="-10" width="12" height="20" fill="#795548" rx="2"/><path d="M -40 -10 L 40 -10 L 0 -50 Z" fill="#2E7D32"/><path d="M -30 -30 L 30 -30 L 0 -70 Z" fill="#43A047"/><path d="M -20 -50 L 20 -50 L 0 -90 Z" fill="#4CAF50"/><circle cx="-15" cy="-20" r="3.5" fill="#FFEB3B"/><circle cx="10" cy="-25" r="3.5" fill="#AB47BC"/><circle cx="-5" cy="-40" r="3.5" fill="#FF9800"/><circle cx="15" cy="-45" r="3.5" fill="#AB47BC"/><circle cx="-10" cy="-60" r="3.5" fill="#FF9800"/><circle cx="0" cy="-30" r="3.5" fill="#F44336"/><circle cx="20" cy="-15" r="3.5" fill="#F44336"/><circle cx="-25" cy="-12" r="3.5" fill="#29B6F6"/><polygon points="0,-95 3,-85 12,-85 5,-80 8,-70 0,-76 -8,-70 -5,-80 -12,-85 -3,-85" fill="#FFC107"/></g><g transform="translate(1100,760) scale(1.8)"><rect x="-6" y="-10" width="12" height="20" fill="#795548" rx="2"/><path d="M -40 -10 L 40 -10 L 0 -50 Z" fill="#2E7D32"/><path d="M -30 -30 L 30 -30 L 0 -70 Z" fill="#43A047"/><path d="M -20 -50 L 20 -50 L 0 -90 Z" fill="#4CAF50"/><circle cx="-15" cy="-20" r="3.5" fill="#FF9800"/><circle cx="10" cy="-25" r="3.5" fill="#FFEB3B"/><circle cx="-5" cy="-40" r="3.5" fill="#29B6F6"/><circle cx="15" cy="-45" r="3.5" fill="#AB47BC"/><circle cx="-10" cy="-60" r="3.5" fill="#29B6F6"/><circle cx="0" cy="-30" r="3.5" fill="#FF9800"/><circle cx="20" cy="-15" r="3.5" fill="#FFEB3B"/><circle cx="-25" cy="-12" r="3.5" fill="#F44336"/><polygon points="0,-95 3,-85 12,-85 5,-80 8,-70 0,-76 -8,-70 -5,-80 -12,-85 -3,-85" fill="#FFC107"/></g><g transform="translate(1000,820) scale(1.5)"><circle cx="0" cy="-20" r="20" fill="#FFFFFF"/><circle cx="0" cy="-55" r="16" fill="#FFFFFF"/><circle cx="0" cy="-85" r="12" fill="#FFFFFF"/><rect x="-15" y="-95" width="30" height="4" fill="#212121" rx="2"/><rect x="-10" y="-115" width="20" height="20" fill="#212121"/><rect x="-10" y="-99" width="20" height="4" fill="#F44336"/><circle cx="-4" cy="-87" r="1.5" fill="#212121"/><circle cx="4" cy="-87" r="1.5" fill="#212121"/><path d="M 0 -83 L 15 -78 L 0 -77 Z" fill="#FF9800"/><path d="M -12 -70 Q 0 -65 12 -70 L 14 -60 Q 0 -55 -14 -60 Z" fill="#F44336"/><path d="M 8 -65 L 12 -45 L 6 -45 Z" fill="#F44336"/><circle cx="0" cy="-60" r="1.5" fill="#212121"/><circle cx="0" cy="-50" r="1.5" fill="#212121"/><circle cx="0" cy="-25" r="2" fill="#212121"/><circle cx="0" cy="-10" r="2" fill="#212121"/></g><g transform="translate(650,800) scale(1.2)"><rect x="-15" y="-30" width="30" height="30" fill="#F44336" rx="2"/><rect x="-4" y="-30" width="8" height="30" fill="#FFEB3B"/><rect x="-15" y="-19" width="30" height="8" fill="#FFEB3B"/><path d="M -2 -30 C -15 -45 0 -45 0 -30 Z" fill="#FFEB3B"/><path d="M 2 -30 C 15 -45 0 -45 0 -30 Z" fill="#FFEB3B"/></g><g transform="translate(700,810) scale(0.9)"><rect x="-15" y="-30" width="30" height="30" fill="#F44336" rx="2"/><rect x="-4" y="-30" width="8" height="30" fill="#FFEB3B"/><rect x="-15" y="-19" width="30" height="8" fill="#FFEB3B"/><path d="M -2 -30 C -15 -45 0 -45 0 -30 Z" fill="#FFEB3B"/><path d="M 2 -30 C 15 -45 0 -45 0 -30 Z" fill="#FFEB3B"/></g><circle cx="889" cy="359" r="3.9285232977025646" fill="#FFFFFF" opacity="0.8601765312049382"/><circle cx="293" cy="364" r="5.055281082490758" fill="#FFFFFF" opacity="0.6137122101410551"/><circle cx="296" cy="466" r="4.838611390500672" fill="#FFFFFF" opacity="0.8793635255560606"/><circle cx="1306" cy="262" r="2.7665413458135233" fill="#FFFFFF" opacity="0.7549999469204229"/><circle cx="552" cy="793" r="2.589768344761175" fill="#FFFFFF" opacity="0.8872716672636742"/><circle cx="48" cy="391" r="2.0735721937331433" fill="#FFFFFF" opacity="0.5187880394819187"/><circle cx="280" cy="419" r="3.571347280764599" fill="#FFFFFF" opacity="0.8390922669756107"/><circle cx="1305" cy="433" r="2.83567103414879" fill="#FFFFFF" opacity="0.5088559595097781"/><circle cx="523" cy="257" r="4.571114051325987" fill="#FFFFFF" opacity="0.8097754742047043"/><circle cx="992" cy="812" r="5.330995588645736" fill="#FFFFFF" opacity="0.6625538234109126"/><circle cx="893" cy="300" r="3.8943289641049352" fill="#FFFFFF" opacity="0.528005176752519"/><circle cx="16" cy="20" r="2.3358275791598384" fill="#FFFFFF" opacity="0.8113539325656418"/><circle cx="84" cy="163" r="3.710980079233634" fill="#FFFFFF" opacity="0.8842373416602325"/><circle cx="662" cy="3" r="5.145872917565505" fill="#FFFFFF" opacity="0.8115787734645427"/><circle cx="1087" cy="832" r="2.6184841233012417" fill="#FFFFFF" opacity="0.8963950787929598"/><circle cx="675" cy="572" r="4.299433290156427" fill="#FFFFFF" opacity="0.5469918482717606"/><circle cx="403" cy="410" r="2.010373816405684" fill="#FFFFFF" opacity="0.6195597706233631"/><circle cx="1575" cy="468" r="3.9883231743961978" fill="#FFFFFF" opacity="0.817672368118181"/><circle cx="1536" cy="677" r="3.8332771188241876" fill="#FFFFFF" opacity="0.8620603126143318"/><circle cx="1529" cy="567" r="4.72015922289742" fill="#FFFFFF" opacity="0.6515431713614372"/><circle cx="1347" cy="373" r="5.917295571284837" fill="#FFFFFF" opacity="0.7804383861149242"/><circle cx="556" cy="106" r="4.763472485537765" fill="#FFFFFF" opacity="0.6127241038658688"/><circle cx="1201" cy="31" r="4.64099929267868" fill="#FFFFFF" opacity="0.7091519051774317"/><circle cx="1062" cy="711" r="2.339284248466037" fill="#FFFFFF" opacity="0.7421782330450368"/><circle cx="283" cy="843" r="5.22723357897083" fill="#FFFFFF" opacity="0.751619356826273"/><circle cx="253" cy="13" r="5.247778632489515" fill="#FFFFFF" opacity="0.6287061676853057"/><circle cx="184" cy="38" r="5.407367592045178" fill="#FFFFFF" opacity="0.8632964817931528"/><circle cx="647" cy="508" r="4.15977393058437" fill="#FFFFFF" opacity="0.638349541227856"/><circle cx="158" cy="723" r="2.935295009522864" fill="#FFFFFF" opacity="0.7477086995331903"/><circle cx="223" cy="880" r="3.256765269278522" fill="#FFFFFF" opacity="0.7448980809963259"/><circle cx="405" cy="747" r="5.360958546100708" fill="#FFFFFF" opacity="0.7103112272256107"/><circle cx="1035" cy="350" r="2.5747608824648065" fill="#FFFFFF" opacity="0.8606043314887879"/><circle cx="1137" cy="409" r="2.7543943099727377" fill="#FFFFFF" opacity="0.6027671167560982"/><circle cx="206" cy="461" r="5.709258122756587" fill="#FFFFFF" opacity="0.8647862334679761"/><circle cx="595" cy="236" r="5.231823858578761" fill="#FFFFFF" opacity="0.7725036415775643"/><circle cx="1434" cy="572" r="4.223413204233749" fill="#FFFFFF" opacity="0.6781587315795107"/><circle cx="145" cy="668" r="4.845169603838492" fill="#FFFFFF" opacity="0.8243618042069725"/><circle cx="653" cy="636" r="5.099341405807397" fill="#FFFFFF" opacity="0.5377838500073291"/><circle cx="1198" cy="651" r="4.683943771937097" fill="#FFFFFF" opacity="0.7970178693066647"/><circle cx="46" cy="388" r="4.364074355302358" fill="#FFFFFF" opacity="0.8171803804192068"/><circle cx="1372" cy="244" r="5.899645032241454" fill="#FFFFFF" opacity="0.5950842060726105"/><circle cx="946" cy="818" r="4.949490538668501" fill="#FFFFFF" opacity="0.7714465116583662"/><circle cx="743" cy="761" r="5.754009182178535" fill="#FFFFFF" opacity="0.5623992955779161"/><circle cx="105" cy="375" r="4.330599108747741" fill="#FFFFFF" opacity="0.610106533693059"/><circle cx="963" cy="369" r="4.359930819640522" fill="#FFFFFF" opacity="0.5572088498879155"/><circle cx="959" cy="330" r="4.757411585831912" fill="#FFFFFF" opacity="0.687060802889981"/><circle cx="450" cy="801" r="2.1653453870312798" fill="#FFFFFF" opacity="0.7517634418392747"/><circle cx="436" cy="857" r="4.526816242970112" fill="#FFFFFF" opacity="0.7195952786850841"/><circle cx="1155" cy="9" r="5.219346991225743" fill="#FFFFFF" opacity="0.6980125707665304"/><circle cx="808" cy="532" r="3.973215864694771" fill="#FFFFFF" opacity="0.7648770801429983"/><circle cx="305" cy="767" r="4.211623922162433" fill="#FFFFFF" opacity="0.85451578896862"/><circle cx="257" cy="254" r="4.643891626547825" fill="#FFFFFF" opacity="0.5867309968451645"/><circle cx="1585" cy="440" r="2.993116483091937" fill="#FFFFFF" opacity="0.7029528784358517"/><circle cx="406" cy="114" r="4.526564803197825" fill="#FFFFFF" opacity="0.5628712976196077"/><circle cx="978" cy="85" r="2.1388887436996247" fill="#FFFFFF" opacity="0.7467585088759958"/><circle cx="1579" cy="310" r="5.087909301958728" fill="#FFFFFF" opacity="0.6955188619497498"/><circle cx="937" cy="187" r="5.492000430017155" fill="#FFFFFF" opacity="0.8342143656258062"/><circle cx="776" cy="357" r="2.526865197194169" fill="#FFFFFF" opacity="0.8664861084389883"/><circle cx="1165" cy="679" r="3.2583842883595837" fill="#FFFFFF" opacity="0.8670167562145584"/><circle cx="1123" cy="685" r="4.79090889413513" fill="#FFFFFF" opacity="0.8014601629488067"/><circle cx="321" cy="742" r="5.906324914974215" fill="#FFFFFF" opacity="0.7818455660753141"/><circle cx="887" cy="532" r="2.1124239180057676" fill="#FFFFFF" opacity="0.8038193613966098"/><circle cx="887" cy="516" r="4.465147082544006" fill="#FFFFFF" opacity="0.7446745424625211"/><circle cx="1466" cy="398" r="3.019774103661797" fill="#FFFFFF" opacity="0.6531968468452545"/><circle cx="413" cy="806" r="5.713209643002177" fill="#FFFFFF" opacity="0.855761858278375"/><circle cx="1464" cy="689" r="5.882750011543358" fill="#FFFFFF" opacity="0.5674209434507412"/><circle cx="413" cy="40" r="5.825453994989641" fill="#FFFFFF" opacity="0.6209354213642342"/><circle cx="478" cy="467" r="2.905225243670422" fill="#FFFFFF" opacity="0.7977704443874523"/><circle cx="413" cy="260" r="5.4645281625084525" fill="#FFFFFF" opacity="0.8471976820896983"/><circle cx="497" cy="201" r="5.9607550158477824" fill="#FFFFFF" opacity="0.8211493544526478"/><circle cx="171" cy="571" r="2.98935385330606" fill="#FFFFFF" opacity="0.7288091280858369"/><circle cx="7" cy="871" r="3.143066028603026" fill="#FFFFFF" opacity="0.6765076302927167"/><circle cx="33" cy="50" r="2.7774688712984825" fill="#FFFFFF" opacity="0.711061236205319"/><circle cx="606" cy="483" r="3.254137299757289" fill="#FFFFFF" opacity="0.528315480201665"/><circle cx="56" cy="606" r="4.701880432029287" fill="#FFFFFF" opacity="0.5219373568441377"/><circle cx="705" cy="731" r="5.360741433357692" fill="#FFFFFF" opacity="0.5184164629263047"/><circle cx="465" cy="369" r="4.875966053779949" fill="#FFFFFF" opacity="0.5325318023654373"/><circle cx="204" cy="568" r="5.141924281674012" fill="#FFFFFF" opacity="0.6503595508729103"/><circle cx="106" cy="228" r="3.97948534286802" fill="#FFFFFF" opacity="0.5587852188494811"/><circle cx="632" cy="542" r="5.7228677645425705" fill="#FFFFFF" opacity="0.8886997981485425"/><circle cx="106" cy="312" r="5.572129472227859" fill="#FFFFFF" opacity="0.6220981215769746"/><circle cx="1515" cy="440" r="2.891562407282824" fill="#FFFFFF" opacity="0.8567056350365152"/><circle cx="101" cy="539" r="3.6155091113675843" fill="#FFFFFF" opacity="0.6406515784156843"/><circle cx="1593" cy="777" r="5.8150417633151115" fill="#FFFFFF" opacity="0.6747237051699574"/><circle cx="1154" cy="476" r="3.6587080366124427" fill="#FFFFFF" opacity="0.8775483661502532"/><circle cx="907" cy="149" r="4.871947178668124" fill="#FFFFFF" opacity="0.7721755289147532"/><circle cx="1166" cy="900" r="2.5175442148116853" fill="#FFFFFF" opacity="0.8631616252416776"/><circle cx="308" cy="92" r="5.670513622816424" fill="#FFFFFF" opacity="0.852923963788017"/><circle cx="97" cy="538" r="4.084609457733471" fill="#FFFFFF" opacity="0.5223674510326404"/><circle cx="1163" cy="780" r="2.3183110010699446" fill="#FFFFFF" opacity="0.5462299945809352"/><circle cx="276" cy="378" r="5.864542479689532" fill="#FFFFFF" opacity="0.5965766863622778"/><circle cx="1528" cy="704" r="5.396939307723356" fill="#FFFFFF" opacity="0.8923039976123875"/><circle cx="820" cy="284" r="5.2501271920886845" fill="#FFFFFF" opacity="0.781488960268714"/><circle cx="1550" cy="27" r="3.62470828585003" fill="#FFFFFF" opacity="0.5431114713350895"/><circle cx="1283" cy="167" r="5.6226733595280916" fill="#FFFFFF" opacity="0.5021572625009332"/><circle cx="364" cy="620" r="4.485965710180039" fill="#FFFFFF" opacity="0.533937352752478"/><circle cx="1304" cy="624" r="2.4796795640476597" fill="#FFFFFF" opacity="0.7061381763069019"/><circle cx="1420" cy="554" r="4.232381144797953" fill="#FFFFFF" opacity="0.8474334585183616"/><circle cx="473" cy="46" r="3.754477969007372" fill="#FFFFFF" opacity="0.863992510026275"/><circle cx="1341" cy="205" r="5.370902847540384" fill="#FFFFFF" opacity="0.5761142811727193"/><circle cx="1408" cy="431" r="3.8851538335008615" fill="#FFFFFF" opacity="0.5752681674902073"/><circle cx="336" cy="801" r="5.195366426985894" fill="#FFFFFF" opacity="0.515150451249319"/><circle cx="1292" cy="614" r="5.007272988283237" fill="#FFFFFF" opacity="0.7011511158860729"/><circle cx="996" cy="52" r="4.1808431368469225" fill="#FFFFFF" opacity="0.6285664049646279"/><circle cx="453" cy="41" r="3.7772115758928853" fill="#FFFFFF" opacity="0.6298832822071385"/><circle cx="841" cy="458" r="2.7951100557290665" fill="#FFFFFF" opacity="0.6078927558258417"/><circle cx="162" cy="792" r="5.580002337623307" fill="#FFFFFF" opacity="0.7786391406680935"/><circle cx="914" cy="492" r="5.952829460792739" fill="#FFFFFF" opacity="0.550525528710441"/><circle cx="1420" cy="132" r="5.548741616234939" fill="#FFFFFF" opacity="0.8106347383480559"/><circle cx="508" cy="441" r="2.0918393715380956" fill="#FFFFFF" opacity="0.7100250280351161"/><circle cx="1553" cy="94" r="5.676870754142319" fill="#FFFFFF" opacity="0.7492389804253294"/><circle cx="1230" cy="165" r="5.224425278813728" fill="#FFFFFF" opacity="0.7339281099150856"/><circle cx="1003" cy="818" r="3.5235646979629176" fill="#FFFFFF" opacity="0.5409372245926914"/><circle cx="1018" cy="708" r="4.979229756096899" fill="#FFFFFF" opacity="0.5769986792962519"/><circle cx="846" cy="446" r="5.853638849497973" fill="#FFFFFF" opacity="0.5974313455469653"/><circle cx="202" cy="225" r="2.082679615297494" fill="#FFFFFF" opacity="0.7740860517194627"/><circle cx="47" cy="506" r="5.5360926896417695" fill="#FFFFFF" opacity="0.8501314530548243"/><circle cx="35" cy="716" r="5.834275719882032" fill="#FFFFFF" opacity="0.5385507923579518"/><circle cx="29" cy="22" r="2.242063017989149" fill="#FFFFFF" opacity="0.5288655524942385"/><circle cx="1388" cy="393" r="5.890144395073525" fill="#FFFFFF" opacity="0.57767733980145"/><circle cx="352" cy="740" r="4.7613990484331215" fill="#FFFFFF" opacity="0.562602190169313"/><circle cx="1220" cy="9" r="3.7639212315988133" fill="#FFFFFF" opacity="0.6709308422592721"/><circle cx="24" cy="0" r="5.917415402549771" fill="#FFFFFF" opacity="0.8098656798191697"/><circle cx="303" cy="682" r="5.383958355703452" fill="#FFFFFF" opacity="0.5747375113074314"/><circle cx="213" cy="718" r="2.9794454664791274" fill="#FFFFFF" opacity="0.8785901565081742"/><circle cx="750" cy="25" r="3.231082617580232" fill="#FFFFFF" opacity="0.6614635137942565"/><circle cx="697" cy="8" r="2.916682123674464" fill="#FFFFFF" opacity="0.7632582660126255"/><circle cx="1387" cy="443" r="4.449481322921778" fill="#FFFFFF" opacity="0.8119872882589539"/><circle cx="159" cy="848" r="3.148523954712744" fill="#FFFFFF" opacity="0.7333840723077653"/><circle cx="550" cy="357" r="3.7937478023334963" fill="#FFFFFF" opacity="0.5049809014251723"/><circle cx="315" cy="440" r="5.765088802322186" fill="#FFFFFF" opacity="0.7381401863504069"/><circle cx="586" cy="125" r="5.230284888122998" fill="#FFFFFF" opacity="0.5035291398408236"/><circle cx="807" cy="502" r="3.21210634096751" fill="#FFFFFF" opacity="0.5881359502975696"/><circle cx="1299" cy="233" r="2.230851617064446" fill="#FFFFFF" opacity="0.5534920823919515"/><circle cx="129" cy="613" r="5.270524262233126" fill="#FFFFFF" opacity="0.8568415597699699"/><circle cx="115" cy="792" r="4.702417080507168" fill="#FFFFFF" opacity="0.7855079889533312"/><circle cx="872" cy="863" r="5.950706437147972" fill="#FFFFFF" opacity="0.5456877186649549"/><circle cx="1259" cy="639" r="4.747870414388616" fill="#FFFFFF" opacity="0.6347468573584958"/><circle cx="484" cy="73" r="2.08554026479938" fill="#FFFFFF" opacity="0.7792874631862892"/><circle cx="90" cy="335" r="2.568392926772178" fill="#FFFFFF" opacity="0.6415208105597526"/><circle cx="171" cy="370" r="2.982604067728834" fill="#FFFFFF" opacity="0.5966138744512288"/><circle cx="1085" cy="200" r="5.807576181339874" fill="#FFFFFF" opacity="0.7040769949190063"/><circle cx="733" cy="597" r="5.957601923190136" fill="#FFFFFF" opacity="0.6466386104457235"/><circle cx="853" cy="76" r="4.6118200208233" fill="#FFFFFF" opacity="0.7773053745936185"/><circle cx="278" cy="845" r="5.244896772586234" fill="#FFFFFF" opacity="0.5873336958803499"/><circle cx="1134" cy="426" r="4.799867869650894" fill="#FFFFFF" opacity="0.8488272171742697"/><circle cx="922" cy="610" r="4.447744846763939" fill="#FFFFFF" opacity="0.8259885386632564"/><circle cx="203" cy="831" r="4.415421577335115" fill="#FFFFFF" opacity="0.6707621636691015"/><circle cx="1363" cy="814" r="5.591919592241373" fill="#FFFFFF" opacity="0.8131448992414645"/><circle cx="573" cy="571" r="2.321365948533039" fill="#FFFFFF" opacity="0.7045935837510294"/></svg>