<svg xmlns="http://www.w3.org/2000/svg" viewBox="0 0 1200 800" width="1200" height="800">
  <defs>
    <radialGradient id="g" cx="50%" cy="42%" r="75%">
      <stop offset="0" stop-color="#345249"/>
      <stop offset="1" stop-color="#1d3e39"/>
    </radialGradient>
    <pattern id="snow" width="120" height="120" patternUnits="userSpaceOnUse">
      <circle cx="20" cy="28" r="2.4" fill="#fff" opacity=".55"/>
      <circle cx="90" cy="70" r="1.8" fill="#fff" opacity=".45"/>
      <circle cx="64" cy="18" r="1.3" fill="#fff" opacity=".35"/>
      <circle cx="42" cy="100" r="1.7" fill="#fff" opacity=".4"/>
    </pattern>
    <linearGradient id="shine" x1="0" x2="1" y1="0" y2="1">
      <stop offset="0" stop-color="#ffffff" stop-opacity=".16"/>
      <stop offset="1" stop-color="#ffffff" stop-opacity="0"/>
    </linearGradient>
  </defs>
  <rect width="1200" height="800" fill="url(#g)"/>
  <rect width="1200" height="800" fill="url(#snow)"/>
  <circle cx="-60" cy="820" r="360" fill="#fff" opacity=".08"/>
  <circle cx="1260" cy="-70" r="390" fill="#ffba6b" opacity=".10"/>
  
<g transform="translate(720 385)">
 <path d="M-180 105 h360 v145 h-360z" fill="#6b3f2a"/>
 <path d="M-210 110 L0 -45 L210 110z" fill="#b74a35"/>
 <path d="M-115 145 h82 v76 h-82zM48 145 h95 v55h-95z" fill="#ffd978" opacity=".95"/>
 <rect x="-15" y="155" width="55" height="95" fill="#3a241c"/>
 <path d="M-220 250 h440" stroke="#fff" stroke-width="24" opacity=".32"/>
</g>
<g opacity=".45"><circle cx="365" cy="145" r="64" fill="#ffe6a3"/></g>
  <rect width="1200" height="800" fill="url(#shine)"/>
</svg>