<svg xmlns="http://www.w3.org/2000/svg" viewBox="0 0 1600 1000" preserveAspectRatio="xMidYMid slice">
  <defs>
    <linearGradient id="g" x1="0" y1="0" x2="1" y2="1">
      <stop offset="0" stop-color="#2b2418"/>
      <stop offset=".58" stop-color="#5a3725"/>
      <stop offset="1" stop-color="#2b2418"/>
    </linearGradient>
    <radialGradient id="warm" cx=".18" cy=".12" r=".62">
      <stop offset="0" stop-color="#ffcf73" stop-opacity=".32"/>
      <stop offset="1" stop-color="#ffcf73" stop-opacity="0"/>
    </radialGradient>
    <radialGradient id="cool" cx=".86" cy=".24" r=".58">
      <stop offset="0" stop-color="#8adf92" stop-opacity=".24"/>
      <stop offset="1" stop-color="#8adf92" stop-opacity="0"/>
    </radialGradient>
  </defs>
  <rect width="1600" height="1000" fill="url(#g)"/>
  <rect width="1600" height="1000" fill="url(#warm)"/>
  <rect width="1600" height="1000" fill="url(#cool)"/>
  <circle cx="1280" cy="820" r="360" fill="#ffffff" opacity=".06"/>
  <circle cx="130" cy="930" r="310" fill="#ffffff" opacity=".05"/>
  <circle cx="1214" cy="265" r="216" fill="#8adf92" opacity="0.16"/>
<circle cx="1477" cy="372" r="98" fill="#8adf92" opacity="0.20"/>
<circle cx="601" cy="902" r="216" fill="#8adf92" opacity="0.19"/>
<circle cx="113" cy="53" r="158" fill="#ffcf73" opacity="0.21"/>
<circle cx="-63" cy="608" r="214" fill="#8adf92" opacity="0.13"/>
<circle cx="-56" cy="170" r="204" fill="#8adf92" opacity="0.21"/>
<circle cx="-64" cy="676" r="167" fill="#ef7460" opacity="0.21"/>
<circle cx="414" cy="417" r="99" fill="#8adf92" opacity="0.20"/>
<circle cx="239" cy="622" r="138" fill="#ffcf73" opacity="0.16"/>
<circle cx="1061" cy="498" r="99" fill="#ef7460" opacity="0.20"/>
<circle cx="727" cy="-3" r="239" fill="#ffcf73" opacity="0.09"/>
<circle cx="439" cy="87" r="93" fill="#ffcf73" opacity="0.15"/>
<circle cx="1013" cy="540" r="148" fill="#8adf92" opacity="0.13"/>
<circle cx="435" cy="452" r="128" fill="#ffcf73" opacity="0.22"/>
<circle cx="631" cy="237" r="125" fill="#ef7460" opacity="0.19"/>
<circle cx="1079" cy="499" r="85" fill="#ef7460" opacity="0.19"/>
    <pattern id="plaid" width="96" height="96" patternUnits="userSpaceOnUse">
      <rect width="96" height="96" fill="transparent"/>
      <path d="M0 24H96 M0 72H96 M24 0V96 M72 0V96" stroke="#ffcf73" stroke-width="2" opacity=".18"/>
      <path d="M0 48H96 M48 0V96" stroke="#8adf92" stroke-width="8" opacity=".06"/>
    </pattern>
    <rect width="1600" height="1000" fill="url(#plaid)" opacity=".9"/><path d="M0 120 C280 30, 520 180, 800 90 S1300 40, 1600 120" fill="none" stroke="#fff" stroke-width="2" opacity=".22"/>
<ellipse cx="41" cy="114.0" rx="12" ry="18" fill="#ffcf73" opacity=".82"/>
<circle cx="41" cy="114.0" r="38" fill="#ffcf73" opacity=".10"/>
<ellipse cx="142" cy="137.1074631814833" rx="12" ry="18" fill="#ffcf73" opacity=".82"/>
<circle cx="142" cy="137.1074631814833" r="38" fill="#ffcf73" opacity=".10"/>
<ellipse cx="228" cy="141.98507610645268" rx="12" ry="18" fill="#ef7460" opacity=".82"/>
<circle cx="228" cy="141.98507610645268" r="38" fill="#ef7460" opacity=".10"/>
<ellipse cx="322" cy="132.64121131929028" rx="12" ry="18" fill="#ffcf73" opacity=".82"/>
<circle cx="322" cy="132.64121131929028" r="38" fill="#ffcf73" opacity=".10"/>
<ellipse cx="409" cy="114.9569049800347" rx="12" ry="18" fill="#8adf92" opacity=".82"/>
<circle cx="409" cy="114.9569049800347" r="38" fill="#8adf92" opacity=".10"/>
<ellipse cx="478" cy="89.5119126642225" rx="12" ry="18" fill="#ffcf73" opacity=".82"/>
<circle cx="478" cy="89.5119126642225" r="38" fill="#ffcf73" opacity=".10"/>
<ellipse cx="574" cy="80.13423869074558" rx="12" ry="18" fill="#ffcf73" opacity=".82"/>
<circle cx="574" cy="80.13423869074558" r="38" fill="#ffcf73" opacity=".10"/>
<ellipse cx="668" cy="84.90566767446877" rx="12" ry="18" fill="#ffcf73" opacity=".82"/>
<circle cx="668" cy="84.90566767446877" r="38" fill="#ffcf73" opacity=".10"/>
<ellipse cx="762" cy="119.07922216976728" rx="12" ry="18" fill="#ef7460" opacity=".82"/>
<circle cx="762" cy="119.07922216976728" r="38" fill="#ef7460" opacity=".10"/>
<ellipse cx="852" cy="137.77837523472036" rx="12" ry="18" fill="#8adf92" opacity=".82"/>
<circle cx="852" cy="137.77837523472036" r="38" fill="#8adf92" opacity=".10"/>
<ellipse cx="951" cy="137.62753863181837" rx="12" ry="18" fill="#ef7460" opacity=".82"/>
<circle cx="951" cy="137.62753863181837" r="38" fill="#ef7460" opacity=".10"/>
<ellipse cx="1023" cy="132.47210175121165" rx="12" ry="18" fill="#ffcf73" opacity=".82"/>
<circle cx="1023" cy="132.47210175121165" r="38" fill="#ffcf73" opacity=".10"/>
<ellipse cx="1116" cy="99.89856265719565" rx="12" ry="18" fill="#ef7460" opacity=".82"/>
<circle cx="1116" cy="99.89856265719565" r="38" fill="#ef7460" opacity=".10"/>
<ellipse cx="1221" cy="85.02607358200211" rx="12" ry="18" fill="#8adf92" opacity=".82"/>
<circle cx="1221" cy="85.02607358200211" r="38" fill="#8adf92" opacity=".10"/>
<ellipse cx="1300" cy="79.72877947970392" rx="12" ry="18" fill="#ffcf73" opacity=".82"/>
<circle cx="1300" cy="79.72877947970392" r="38" fill="#ffcf73" opacity=".10"/>
<ellipse cx="1399" cy="85.21994786998478" rx="12" ry="18" fill="#ef7460" opacity=".82"/>
<circle cx="1399" cy="85.21994786998478" r="38" fill="#ef7460" opacity=".10"/>
<ellipse cx="1489" cy="120.10284387855387" rx="12" ry="18" fill="#8adf92" opacity=".82"/>
<circle cx="1489" cy="120.10284387855387" r="38" fill="#8adf92" opacity=".10"/>
<ellipse cx="1558" cy="135.0706635199774" rx="12" ry="18" fill="#ffcf73" opacity=".82"/>
<circle cx="1558" cy="135.0706635199774" r="38" fill="#ffcf73" opacity=".10"/><circle cx="826" cy="719" r="1.8" fill="#fff" opacity="0.61"/>
<circle cx="79" cy="881" r="1.9" fill="#fff" opacity="0.61"/>
<circle cx="581" cy="279" r="0.9" fill="#fff" opacity="0.40"/>
<circle cx="158" cy="977" r="1.1" fill="#fff" opacity="0.54"/>
<circle cx="1349" cy="590" r="1.9" fill="#fff" opacity="0.36"/>
<circle cx="838" cy="624" r="0.7" fill="#fff" opacity="0.33"/>
<circle cx="1412" cy="307" r="0.7" fill="#fff" opacity="0.54"/>
<circle cx="677" cy="607" r="1.8" fill="#fff" opacity="0.26"/>
<circle cx="147" cy="273" r="2.4" fill="#fff" opacity="0.37"/>
<circle cx="879" cy="644" r="2.3" fill="#fff" opacity="0.38"/>
<circle cx="260" cy="387" r="1.6" fill="#fff" opacity="0.57"/>
<circle cx="1109" cy="978" r="1.2" fill="#fff" opacity="0.49"/>
<circle cx="1153" cy="482" r="1.1" fill="#fff" opacity="0.47"/>
<circle cx="1407" cy="157" r="2.2" fill="#fff" opacity="0.51"/>
<circle cx="569" cy="966" r="1.5" fill="#fff" opacity="0.59"/>
<circle cx="826" cy="277" r="2.1" fill="#fff" opacity="0.37"/>
<circle cx="1112" cy="982" r="1.6" fill="#fff" opacity="0.32"/>
<circle cx="1519" cy="11" r="1.8" fill="#fff" opacity="0.20"/>
<circle cx="448" cy="558" r="1.6" fill="#fff" opacity="0.48"/>
<circle cx="1264" cy="782" r="2.3" fill="#fff" opacity="0.26"/>
<circle cx="871" cy="458" r="1.2" fill="#fff" opacity="0.31"/>
<circle cx="1048" cy="221" r="0.7" fill="#fff" opacity="0.32"/>
<circle cx="20" cy="800" r="1.3" fill="#fff" opacity="0.37"/>
<circle cx="1123" cy="857" r="0.8" fill="#fff" opacity="0.55"/>
<circle cx="1420" cy="613" r="0.9" fill="#fff" opacity="0.48"/>
<circle cx="498" cy="378" r="0.8" fill="#fff" opacity="0.19"/>
<circle cx="903" cy="752" r="2.1" fill="#fff" opacity="0.59"/>
<circle cx="1297" cy="155" r="1.2" fill="#fff" opacity="0.43"/>
<circle cx="122" cy="672" r="1.2" fill="#fff" opacity="0.44"/>
<circle cx="566" cy="146" r="0.9" fill="#fff" opacity="0.45"/>
<circle cx="335" cy="129" r="2.1" fill="#fff" opacity="0.36"/>
<circle cx="1101" cy="531" r="2.1" fill="#fff" opacity="0.32"/>
<circle cx="166" cy="198" r="1.4" fill="#fff" opacity="0.27"/>
<circle cx="165" cy="587" r="2.3" fill="#fff" opacity="0.43"/>
<circle cx="704" cy="823" r="0.8" fill="#fff" opacity="0.32"/>
<circle cx="1304" cy="167" r="2.1" fill="#fff" opacity="0.53"/>
<circle cx="64" cy="547" r="2.1" fill="#fff" opacity="0.54"/>
<circle cx="129" cy="735" r="1.4" fill="#fff" opacity="0.38"/>
<circle cx="1274" cy="922" r="1.5" fill="#fff" opacity="0.22"/>
<circle cx="1529" cy="946" r="1.2" fill="#fff" opacity="0.49"/>
<circle cx="203" cy="172" r="1.3" fill="#fff" opacity="0.61"/>
<circle cx="815" cy="798" r="1.1" fill="#fff" opacity="0.47"/>
<circle cx="225" cy="357" r="1.7" fill="#fff" opacity="0.55"/>
<circle cx="1140" cy="11" r="2.2" fill="#fff" opacity="0.34"/>
<circle cx="308" cy="215" r="0.9" fill="#fff" opacity="0.36"/>
<circle cx="1193" cy="450" r="1.3" fill="#fff" opacity="0.26"/>
<circle cx="1301" cy="786" r="1.2" fill="#fff" opacity="0.46"/>
<circle cx="973" cy="110" r="1.9" fill="#fff" opacity="0.35"/>
<circle cx="1231" cy="870" r="0.7" fill="#fff" opacity="0.42"/>
<circle cx="827" cy="251" r="1.7" fill="#fff" opacity="0.52"/>
<circle cx="446" cy="467" r="2.0" fill="#fff" opacity="0.46"/>
<circle cx="325" cy="632" r="2.2" fill="#fff" opacity="0.28"/>
<circle cx="312" cy="148" r="1.9" fill="#fff" opacity="0.45"/>
<circle cx="422" cy="682" r="2.3" fill="#fff" opacity="0.20"/>
<circle cx="1477" cy="422" r="2.0" fill="#fff" opacity="0.39"/>
<circle cx="1036" cy="503" r="1.5" fill="#fff" opacity="0.24"/>
<circle cx="234" cy="693" r="1.6" fill="#fff" opacity="0.26"/>
<circle cx="43" cy="23" r="1.6" fill="#fff" opacity="0.23"/>
<circle cx="1198" cy="475" r="2.3" fill="#fff" opacity="0.52"/>
<circle cx="285" cy="787" r="1.3" fill="#fff" opacity="0.27"/>
<circle cx="810" cy="551" r="1.7" fill="#fff" opacity="0.45"/>
<circle cx="7" cy="181" r="1.1" fill="#fff" opacity="0.57"/>
<circle cx="1279" cy="681" r="2.2" fill="#fff" opacity="0.44"/>
<circle cx="144" cy="182" r="2.3" fill="#fff" opacity="0.41"/>
<circle cx="135" cy="260" r="2.1" fill="#fff" opacity="0.46"/>
<circle cx="1235" cy="939" r="1.8" fill="#fff" opacity="0.26"/>
<circle cx="59" cy="585" r="1.3" fill="#fff" opacity="0.37"/>
<circle cx="1375" cy="247" r="1.8" fill="#fff" opacity="0.46"/>
<circle cx="1512" cy="890" r="2.0" fill="#fff" opacity="0.47"/>
<circle cx="1457" cy="152" r="1.5" fill="#fff" opacity="0.34"/>
  <rect width="1600" height="1000" fill="#000" opacity=".08"/>
</svg>