<svg xmlns="http://www.w3.org/2000/svg" viewBox="0 0 1200 800" width="1200" height="800">
  <defs>
    <radialGradient id="g" cx="50%" cy="42%" r="75%">
      <stop offset="0" stop-color="#42304a"/>
      <stop offset="1" stop-color="#1d2f39"/>
    </radialGradient>
    <pattern id="snow" width="120" height="120" patternUnits="userSpaceOnUse">
      <circle cx="20" cy="28" r="2.4" fill="#fff" opacity=".55"/>
      <circle cx="90" cy="70" r="1.8" fill="#fff" opacity=".45"/>
      <circle cx="64" cy="18" r="1.3" fill="#fff" opacity=".35"/>
      <circle cx="42" cy="100" r="1.7" fill="#fff" opacity=".4"/>
    </pattern>
    <linearGradient id="shine" x1="0" x2="1" y1="0" y2="1">
      <stop offset="0" stop-color="#ffffff" stop-opacity=".16"/>
      <stop offset="1" stop-color="#ffffff" stop-opacity="0"/>
    </linearGradient>
  </defs>
  <rect width="1200" height="800" fill="url(#g)"/>
  <rect width="1200" height="800" fill="url(#snow)"/>
  <circle cx="-60" cy="820" r="360" fill="#fff" opacity=".08"/>
  <circle cx="1260" cy="-70" r="390" fill="#ffd36a" opacity=".10"/>
  
<g transform="translate(690 375)">
 <rect x="-250" y="80" width="500" height="150" rx="24" fill="#5c3b30"/>
 <rect x="-190" y="-20" width="90" height="100" rx="16" fill="#ffcd6a"/>
 <rect x="-40" y="-70" width="110" height="150" rx="18" fill="#79df98"/>
 <rect x="120" y="5" width="120" height="75" rx="16" fill="#f15d6a"/>
 <path d="M-250 80 h500" stroke="#fff3bc" stroke-width="10" opacity=".5"/>
 <circle cx="-145" cy="30" r="24" fill="#fff2c7"/><circle cx="15" cy="0" r="24" fill="#fff2c7"/><circle cx="175" cy="40" r="24" fill="#fff2c7"/>
</g>
  <rect width="1200" height="800" fill="url(#shine)"/>
</svg>