<svg xmlns="http://www.w3.org/2000/svg" viewBox="0 0 1600 900" preserveAspectRatio="xMidYMid slice"><defs><linearGradient id="bg4" x1="0" y1="0" x2="0" y2="1"><stop offset="0%" stop-color="#9C27B0"/><stop offset="100%" stop-color="#FF4081"/></linearGradient><linearGradient id="hill14" x1="0" y1="0" x2="0" y2="1"><stop offset="0%" stop-color="#FFFFFF"/><stop offset="100%" stop-color="#E3F2FD"/></linearGradient><linearGradient id="hill24" x1="0" y1="0" x2="0" y2="1"><stop offset="0%" stop-color="#F5F5F5"/><stop offset="100%" stop-color="#BBDEFB"/></linearGradient></defs><rect width="1600" height="900" fill="url(#bg4)"/><circle cx="1300" cy="200" r="80" fill="#FFD54F" opacity="0.9"/><circle cx="491" cy="452" r="1.4868563039315543" fill="#FFFFFF" opacity="0.6018559008548325"/><circle cx="564" cy="344" r="2.4008957495396093" fill="#FFFFFF" opacity="0.39219882063078726"/><circle cx="358" cy="465" r="2.3212795690108545" fill="#FFFFFF" opacity="0.6799377787310599"/><circle cx="1532" cy="344" r="1.6497021114507342" fill="#FFFFFF" opacity="0.5236084548846514"/><circle cx="967" cy="58" r="2.662305548470012" fill="#FFFFFF" opacity="0.7558955195011572"/><circle cx="107" cy="118" r="1.701051194382679" fill="#FFFFFF" opacity="0.5000472529221622"/><circle cx="231" cy="265" r="2.015014960821443" fill="#FFFFFF" opacity="0.42066304685606015"/><circle cx="728" cy="202" r="2.0788638601304" fill="#FFFFFF" opacity="0.6034696375294772"/><circle cx="552" cy="230" r="1.2409568043168404" fill="#FFFFFF" opacity="0.4395659325142585"/><circle cx="1419" cy="4" r="1.7175066264503314" fill="#FFFFFF" opacity="0.40792811172926235"/><circle cx="1584" cy="324" r="1.8593302417204962" fill="#FFFFFF" opacity="0.42532446163946197"/><circle cx="1137" cy="469" r="1.9468886151046647" fill="#FFFFFF" opacity="0.3086601363122111"/><circle cx="1152" cy="435" r="1.3397772362021014" fill="#FFFFFF" opacity="0.44239149452457005"/><circle cx="1215" cy="341" r="2.6633667951099094" fill="#FFFFFF" opacity="0.648014928262134"/><circle cx="1121" cy="443" r="2.0698832307019535" fill="#FFFFFF" opacity="0.7421767760447675"/><circle cx="1548" cy="273" r="2.7562617201244426" fill="#FFFFFF" opacity="0.5647502766679402"/><circle cx="850" cy="240" r="1.0527357483750583" fill="#FFFFFF" opacity="0.7877811978657319"/><circle cx="197" cy="441" r="2.6966214774992974" fill="#FFFFFF" opacity="0.6078287413905803"/><circle cx="1192" cy="158" r="2.0813119157415167" fill="#FFFFFF" opacity="0.48625111085792705"/><circle cx="824" cy="265" r="2.4231261841516463" fill="#FFFFFF" opacity="0.4521013609862597"/><circle cx="560" cy="69" r="2.410144283980952" fill="#FFFFFF" opacity="0.6364446363664142"/><circle cx="1502" cy="444" r="1.3973317127933937" fill="#FFFFFF" opacity="0.4073555975707207"/><circle cx="1579" cy="191" r="2.226341468563355" fill="#FFFFFF" opacity="0.527877721734002"/><circle cx="1323" cy="82" r="1.8893009454400354" fill="#FFFFFF" opacity="0.3288266253417733"/><circle cx="1417" cy="111" r="2.551277157061625" fill="#FFFFFF" opacity="0.30728423745775396"/><circle cx="1129" cy="245" r="2.9758624384600676" fill="#FFFFFF" opacity="0.5374811681100059"/><circle cx="543" cy="175" r="1.5622923916730973" fill="#FFFFFF" opacity="0.771310401183916"/><circle cx="500" cy="355" r="2.968336174791303" fill="#FFFFFF" opacity="0.6792249172307112"/><circle cx="914" cy="178" r="2.519498276495022" fill="#FFFFFF" opacity="0.7566393102887952"/><circle cx="130" cy="233" r="2.4561786949431754" fill="#FFFFFF" opacity="0.6071151222233506"/><circle cx="1314" cy="60" r="1.7593683639447621" fill="#FFFFFF" opacity="0.5360926902708556"/><circle cx="476" cy="372" r="1.5114653202630355" fill="#FFFFFF" opacity="0.3067337736802051"/><circle cx="506" cy="203" r="2.6403035892989766" fill="#FFFFFF" opacity="0.7529575033933819"/><circle cx="62" cy="459" r="1.6893868909529033" fill="#FFFFFF" opacity="0.42490464071901274"/><circle cx="775" cy="410" r="1.4030980417450778" fill="#FFFFFF" opacity="0.5669721935176504"/><circle cx="443" cy="23" r="2.5417750346363386" fill="#FFFFFF" opacity="0.6607681866889634"/><circle cx="903" cy="246" r="1.0175511782305868" fill="#FFFFFF" opacity="0.5244257760116996"/><circle cx="1250" cy="431" r="1.9417632328781778" fill="#FFFFFF" opacity="0.36205450310208837"/><circle cx="688" cy="280" r="2.89219809051093" fill="#FFFFFF" opacity="0.32155864576663773"/><circle cx="549" cy="90" r="1.1237664195317723" fill="#FFFFFF" opacity="0.7092846895825163"/><circle cx="861" cy="56" r="1.9032435880236287" fill="#FFFFFF" opacity="0.790218362049045"/><circle cx="882" cy="184" r="1.4258847200685136" fill="#FFFFFF" opacity="0.6733778416132599"/><circle cx="800" cy="413" r="1.0990683838246162" fill="#FFFFFF" opacity="0.5805570583283556"/><circle cx="1505" cy="40" r="1.4389663847986767" fill="#FFFFFF" opacity="0.3877914970381877"/><circle cx="1042" cy="443" r="1.0152542045439361" fill="#FFFFFF" opacity="0.7289596871913329"/><circle cx="1403" cy="255" r="2.4018997427607767" fill="#FFFFFF" opacity="0.35388991410479775"/><circle cx="1290" cy="360" r="2.505396346798946" fill="#FFFFFF" opacity="0.4501098179476422"/><circle cx="358" cy="146" r="1.3867506546967812" fill="#FFFFFF" opacity="0.6396996832119132"/><circle cx="745" cy="122" r="1.7143141121492576" fill="#FFFFFF" opacity="0.7612938617367164"/><circle cx="758" cy="343" r="1.9121200660179856" fill="#FFFFFF" opacity="0.6810482230241184"/><path d="M 0 600 Q 400 450 800 600 T 1600 550 L 1600 900 L 0 900 Z" fill="url(#hill24)"/><g transform="translate(1131,631) scale(1.0829612752531916)"><rect x="-6" y="-10" width="12" height="20" fill="#795548" rx="2"/><path d="M -40 -10 L 40 -10 L 0 -50 Z" fill="#2E7D32"/><path d="M -30 -30 L 30 -30 L 0 -70 Z" fill="#43A047"/><path d="M -20 -50 L 20 -50 L 0 -90 Z" fill="#4CAF50"/><circle cx="-15" cy="-20" r="3.5" fill="#FFEB3B"/><circle cx="10" cy="-25" r="3.5" fill="#FFEB3B"/><circle cx="-5" cy="-40" r="3.5" fill="#FFEB3B"/><circle cx="15" cy="-45" r="3.5" fill="#AB47BC"/><circle cx="-10" cy="-60" r="3.5" fill="#FF9800"/><circle cx="0" cy="-30" r="3.5" fill="#F44336"/><circle cx="20" cy="-15" r="3.5" fill="#29B6F6"/><circle cx="-25" cy="-12" r="3.5" fill="#FF9800"/><polygon points="0,-95 3,-85 12,-85 5,-80 8,-70 0,-76 -8,-70 -5,-80 -12,-85 -3,-85" fill="#FFC107"/></g><g transform="translate(628,632) scale(0.9738732225241634)"><rect x="-6" y="-10" width="12" height="20" fill="#795548" rx="2"/><path d="M -40 -10 L 40 -10 L 0 -50 Z" fill="#2E7D32"/><path d="M -30 -30 L 30 -30 L 0 -70 Z" fill="#43A047"/><path d="M -20 -50 L 20 -50 L 0 -90 Z" fill="#4CAF50"/><circle cx="-15" cy="-20" r="3.5" fill="#29B6F6"/><circle cx="10" cy="-25" r="3.5" fill="#FF9800"/><circle cx="-5" cy="-40" r="3.5" fill="#FFEB3B"/><circle cx="15" cy="-45" r="3.5" fill="#29B6F6"/><circle cx="-10" cy="-60" r="3.5" fill="#FFEB3B"/><circle cx="0" cy="-30" r="3.5" fill="#AB47BC"/><circle cx="20" cy="-15" r="3.5" fill="#AB47BC"/><circle cx="-25" cy="-12" r="3.5" fill="#FF9800"/><polygon points="0,-95 3,-85 12,-85 5,-80 8,-70 0,-76 -8,-70 -5,-80 -12,-85 -3,-85" fill="#FFC107"/></g><g transform="translate(613,636) scale(1.1164111795807814)"><rect x="-6" y="-10" width="12" height="20" fill="#795548" rx="2"/><path d="M -40 -10 L 40 -10 L 0 -50 Z" fill="#2E7D32"/><path d="M -30 -30 L 30 -30 L 0 -70 Z" fill="#43A047"/><path d="M -20 -50 L 20 -50 L 0 -90 Z" fill="#4CAF50"/><circle cx="-15" cy="-20" r="3.5" fill="#FFEB3B"/><circle cx="10" cy="-25" r="3.5" fill="#AB47BC"/><circle cx="-5" cy="-40" r="3.5" fill="#FFEB3B"/><circle cx="15" cy="-45" r="3.5" fill="#AB47BC"/><circle cx="-10" cy="-60" r="3.5" fill="#AB47BC"/><circle cx="0" cy="-30" r="3.5" fill="#FF9800"/><circle cx="20" cy="-15" r="3.5" fill="#F44336"/><circle cx="-25" cy="-12" r="3.5" fill="#FFEB3B"/><polygon points="0,-95 3,-85 12,-85 5,-80 8,-70 0,-76 -8,-70 -5,-80 -12,-85 -3,-85" fill="#FFC107"/></g><g transform="translate(1443,586) scale(1.1160281443987867)"><rect x="-6" y="-10" width="12" height="20" fill="#795548" rx="2"/><path d="M -40 -10 L 40 -10 L 0 -50 Z" fill="#2E7D32"/><path d="M -30 -30 L 30 -30 L 0 -70 Z" fill="#43A047"/><path d="M -20 -50 L 20 -50 L 0 -90 Z" fill="#4CAF50"/><circle cx="-15" cy="-20" r="3.5" fill="#AB47BC"/><circle cx="10" cy="-25" r="3.5" fill="#29B6F6"/><circle cx="-5" cy="-40" r="3.5" fill="#29B6F6"/><circle cx="15" cy="-45" r="3.5" fill="#FFEB3B"/><circle cx="-10" cy="-60" r="3.5" fill="#F44336"/><circle cx="0" cy="-30" r="3.5" fill="#FFEB3B"/><circle cx="20" cy="-15" r="3.5" fill="#29B6F6"/><circle cx="-25" cy="-12" r="3.5" fill="#29B6F6"/><polygon points="0,-95 3,-85 12,-85 5,-80 8,-70 0,-76 -8,-70 -5,-80 -12,-85 -3,-85" fill="#FFC107"/></g><g transform="translate(318,632) scale(0.9364560981324547)"><rect x="-6" y="-10" width="12" height="20" fill="#795548" rx="2"/><path d="M -40 -10 L 40 -10 L 0 -50 Z" fill="#2E7D32"/><path d="M -30 -30 L 30 -30 L 0 -70 Z" fill="#43A047"/><path d="M -20 -50 L 20 -50 L 0 -90 Z" fill="#4CAF50"/><circle cx="-15" cy="-20" r="3.5" fill="#FF9800"/><circle cx="10" cy="-25" r="3.5" fill="#29B6F6"/><circle cx="-5" cy="-40" r="3.5" fill="#FFEB3B"/><circle cx="15" cy="-45" r="3.5" fill="#FFEB3B"/><circle cx="-10" cy="-60" r="3.5" fill="#29B6F6"/><circle cx="0" cy="-30" r="3.5" fill="#FFEB3B"/><circle cx="20" cy="-15" r="3.5" fill="#FFEB3B"/><circle cx="-25" cy="-12" r="3.5" fill="#29B6F6"/><polygon points="0,-95 3,-85 12,-85 5,-80 8,-70 0,-76 -8,-70 -5,-80 -12,-85 -3,-85" fill="#FFC107"/></g><g transform="translate(465,611) scale(0.8370541851884407)"><rect x="-6" y="-10" width="12" height="20" fill="#795548" rx="2"/><path d="M -40 -10 L 40 -10 L 0 -50 Z" fill="#2E7D32"/><path d="M -30 -30 L 30 -30 L 0 -70 Z" fill="#43A047"/><path d="M -20 -50 L 20 -50 L 0 -90 Z" fill="#4CAF50"/><circle cx="-15" cy="-20" r="3.5" fill="#F44336"/><circle cx="10" cy="-25" r="3.5" fill="#F44336"/><circle cx="-5" cy="-40" r="3.5" fill="#FF9800"/><circle cx="15" cy="-45" r="3.5" fill="#F44336"/><circle cx="-10" cy="-60" r="3.5" fill="#AB47BC"/><circle cx="0" cy="-30" r="3.5" fill="#FF9800"/><circle cx="20" cy="-15" r="3.5" fill="#AB47BC"/><circle cx="-25" cy="-12" r="3.5" fill="#F44336"/><polygon points="0,-95 3,-85 12,-85 5,-80 8,-70 0,-76 -8,-70 -5,-80 -12,-85 -3,-85" fill="#FFC107"/></g><g transform="translate(1234,626) scale(1.1431594755861072)"><rect x="-6" y="-10" width="12" height="20" fill="#795548" rx="2"/><path d="M -40 -10 L 40 -10 L 0 -50 Z" fill="#2E7D32"/><path d="M -30 -30 L 30 -30 L 0 -70 Z" fill="#43A047"/><path d="M -20 -50 L 20 -50 L 0 -90 Z" fill="#4CAF50"/><circle cx="-15" cy="-20" r="3.5" fill="#29B6F6"/><circle cx="10" cy="-25" r="3.5" fill="#F44336"/><circle cx="-5" cy="-40" r="3.5" fill="#FFEB3B"/><circle cx="15" cy="-45" r="3.5" fill="#FFEB3B"/><circle cx="-10" cy="-60" r="3.5" fill="#AB47BC"/><circle cx="0" cy="-30" r="3.5" fill="#F44336"/><circle cx="20" cy="-15" r="3.5" fill="#F44336"/><circle cx="-25" cy="-12" r="3.5" fill="#AB47BC"/><polygon points="0,-95 3,-85 12,-85 5,-80 8,-70 0,-76 -8,-70 -5,-80 -12,-85 -3,-85" fill="#FFC107"/></g><g transform="translate(1334,626) scale(0.9713820455553114)"><rect x="-6" y="-10" width="12" height="20" fill="#795548" rx="2"/><path d="M -40 -10 L 40 -10 L 0 -50 Z" fill="#2E7D32"/><path d="M -30 -30 L 30 -30 L 0 -70 Z" fill="#43A047"/><path d="M -20 -50 L 20 -50 L 0 -90 Z" fill="#4CAF50"/><circle cx="-15" cy="-20" r="3.5" fill="#29B6F6"/><circle cx="10" cy="-25" r="3.5" fill="#F44336"/><circle cx="-5" cy="-40" r="3.5" fill="#FF9800"/><circle cx="15" cy="-45" r="3.5" fill="#29B6F6"/><circle cx="-10" cy="-60" r="3.5" fill="#29B6F6"/><circle cx="0" cy="-30" r="3.5" fill="#29B6F6"/><circle cx="20" cy="-15" r="3.5" fill="#F44336"/><circle cx="-25" cy="-12" r="3.5" fill="#FF9800"/><polygon points="0,-95 3,-85 12,-85 5,-80 8,-70 0,-76 -8,-70 -5,-80 -12,-85 -3,-85" fill="#FFC107"/></g><path d="M 0 700 Q 600 550 1200 750 T 1600 650 L 1600 900 L 0 900 Z" fill="url(#hill14)"/><g transform="translate(800,750) scale(4.0)"><rect x="-40" y="-40" width="80" height="40" fill="#795548"/><rect x="-10" y="-20" width="20" height="20" fill="#FF9800" rx="2"/><circle cx="6" cy="-10" r="2" fill="#FFE082"/><rect x="-30" y="-25" width="12" height="12" fill="#FFF59D" rx="1"/><rect x="18" y="-25" width="12" height="12" fill="#FFF59D" rx="1"/><circle cx="0" cy="-10" r="4" fill="none" stroke="#4CAF50" stroke-width="2"/><circle cx="0" cy="-14" r="1" fill="#F44336"/><path d="M -50 -40 L 0 -80 L 50 -40 Z" fill="#D32F2F"/><path d="M -50 -40 L 0 -80 L 50 -40" fill="none" stroke="#FFFFFF" stroke-width="8" stroke-linecap="round" stroke-linejoin="round"/></g><g transform="translate(500,780) scale(2.0)"><rect x="-6" y="-10" width="12" height="20" fill="#795548" rx="2"/><path d="M -40 -10 L 40 -10 L 0 -50 Z" fill="#2E7D32"/><path d="M -30 -30 L 30 -30 L 0 -70 Z" fill="#43A047"/><path d="M -20 -50 L 20 -50 L 0 -90 Z" fill="#4CAF50"/><circle cx="-15" cy="-20" r="3.5" fill="#29B6F6"/><circle cx="10" cy="-25" r="3.5" fill="#29B6F6"/><circle cx="-5" cy="-40" r="3.5" fill="#29B6F6"/><circle cx="15" cy="-45" r="3.5" fill="#AB47BC"/><circle cx="-10" cy="-60" r="3.5" fill="#F44336"/><circle cx="0" cy="-30" r="3.5" fill="#FFEB3B"/><circle cx="20" cy="-15" r="3.5" fill="#FF9800"/><circle cx="-25" cy="-12" r="3.5" fill="#FF9800"/><polygon points="0,-95 3,-85 12,-85 5,-80 8,-70 0,-76 -8,-70 -5,-80 -12,-85 -3,-85" fill="#FFC107"/></g><g transform="translate(1100,760) scale(1.8)"><rect x="-6" y="-10" width="12" height="20" fill="#795548" rx="2"/><path d="M -40 -10 L 40 -10 L 0 -50 Z" fill="#2E7D32"/><path d="M -30 -30 L 30 -30 L 0 -70 Z" fill="#43A047"/><path d="M -20 -50 L 20 -50 L 0 -90 Z" fill="#4CAF50"/><circle cx="-15" cy="-20" r="3.5" fill="#F44336"/><circle cx="10" cy="-25" r="3.5" fill="#FFEB3B"/><circle cx="-5" cy="-40" r="3.5" fill="#29B6F6"/><circle cx="15" cy="-45" r="3.5" fill="#AB47BC"/><circle cx="-10" cy="-60" r="3.5" fill="#FFEB3B"/><circle cx="0" cy="-30" r="3.5" fill="#F44336"/><circle cx="20" cy="-15" r="3.5" fill="#FFEB3B"/><circle cx="-25" cy="-12" r="3.5" fill="#FFEB3B"/><polygon points="0,-95 3,-85 12,-85 5,-80 8,-70 0,-76 -8,-70 -5,-80 -12,-85 -3,-85" fill="#FFC107"/></g><g transform="translate(1000,820) scale(1.5)"><circle cx="0" cy="-20" r="20" fill="#FFFFFF"/><circle cx="0" cy="-55" r="16" fill="#FFFFFF"/><circle cx="0" cy="-85" r="12" fill="#FFFFFF"/><rect x="-15" y="-95" width="30" height="4" fill="#212121" rx="2"/><rect x="-10" y="-115" width="20" height="20" fill="#212121"/><rect x="-10" y="-99" width="20" height="4" fill="#F44336"/><circle cx="-4" cy="-87" r="1.5" fill="#212121"/><circle cx="4" cy="-87" r="1.5" fill="#212121"/><path d="M 0 -83 L 15 -78 L 0 -77 Z" fill="#FF9800"/><path d="M -12 -70 Q 0 -65 12 -70 L 14 -60 Q 0 -55 -14 -60 Z" fill="#F44336"/><path d="M 8 -65 L 12 -45 L 6 -45 Z" fill="#F44336"/><circle cx="0" cy="-60" r="1.5" fill="#212121"/><circle cx="0" cy="-50" r="1.5" fill="#212121"/><circle cx="0" cy="-25" r="2" fill="#212121"/><circle cx="0" cy="-10" r="2" fill="#212121"/></g><g transform="translate(650,800) scale(1.2)"><rect x="-15" y="-30" width="30" height="30" fill="#2196F3" rx="2"/><rect x="-4" y="-30" width="8" height="30" fill="#F44336"/><rect x="-15" y="-19" width="30" height="8" fill="#F44336"/><path d="M -2 -30 C -15 -45 0 -45 0 -30 Z" fill="#F44336"/><path d="M 2 -30 C 15 -45 0 -45 0 -30 Z" fill="#F44336"/></g><g transform="translate(700,810) scale(0.9)"><rect x="-15" y="-30" width="30" height="30" fill="#2196F3" rx="2"/><rect x="-4" y="-30" width="8" height="30" fill="#F44336"/><rect x="-15" y="-19" width="30" height="8" fill="#F44336"/><path d="M -2 -30 C -15 -45 0 -45 0 -30 Z" fill="#F44336"/><path d="M 2 -30 C 15 -45 0 -45 0 -30 Z" fill="#F44336"/></g><circle cx="157" cy="789" r="2.8764778288344504" fill="#FFFFFF" opacity="0.7480045219442311"/><circle cx="38" cy="229" r="4.583598688290473" fill="#FFFFFF" opacity="0.892117866149439"/><circle cx="1027" cy="473" r="5.416470950945362" fill="#FFFFFF" opacity="0.5500669664310097"/><circle cx="1131" cy="28" r="5.341993192648909" fill="#FFFFFF" opacity="0.6107442570290954"/><circle cx="1398" cy="186" r="2.305096592554551" fill="#FFFFFF" opacity="0.6733768450389468"/><circle cx="876" cy="881" r="5.999061585573667" fill="#FFFFFF" opacity="0.5522727024532852"/><circle cx="243" cy="5" r="3.0024816545627484" fill="#FFFFFF" opacity="0.6844786571443686"/><circle cx="1524" cy="30" r="5.988085747847389" fill="#FFFFFF" opacity="0.5203891309936138"/><circle cx="1127" cy="369" r="3.892287663858297" fill="#FFFFFF" opacity="0.7147680981341413"/><circle cx="588" cy="389" r="4.501456883741991" fill="#FFFFFF" opacity="0.7327885566177325"/><circle cx="507" cy="114" r="3.634143297354173" fill="#FFFFFF" opacity="0.5048088756607113"/><circle cx="225" cy="33" r="5.505078582464604" fill="#FFFFFF" opacity="0.7209835895516635"/><circle cx="134" cy="131" r="3.97400607755487" fill="#FFFFFF" opacity="0.6683334255734984"/><circle cx="1095" cy="630" r="5.252661068909702" fill="#FFFFFF" opacity="0.895160022779681"/><circle cx="782" cy="57" r="4.477065811869291" fill="#FFFFFF" opacity="0.6431641148428756"/><circle cx="509" cy="882" r="5.209275923232116" fill="#FFFFFF" opacity="0.8094317375775876"/><circle cx="986" cy="174" r="5.821371871073753" fill="#FFFFFF" opacity="0.6979781563577575"/><circle cx="1027" cy="89" r="4.036683553835312" fill="#FFFFFF" opacity="0.5160506037412984"/><circle cx="603" cy="537" r="2.639657423540246" fill="#FFFFFF" opacity="0.7171927669358645"/><circle cx="680" cy="345" r="5.421184587373434" fill="#FFFFFF" opacity="0.5097697053053644"/><circle cx="231" cy="571" r="5.786739230375212" fill="#FFFFFF" opacity="0.8422996586033946"/><circle cx="243" cy="50" r="2.521866031564773" fill="#FFFFFF" opacity="0.7103634196427726"/><circle cx="689" cy="737" r="3.2787491278263987" fill="#FFFFFF" opacity="0.6498665948198701"/><circle cx="1068" cy="754" r="3.1629057524994364" fill="#FFFFFF" opacity="0.6475433865308848"/><circle cx="887" cy="597" r="5.101612370482982" fill="#FFFFFF" opacity="0.5604672338807777"/><circle cx="1335" cy="33" r="3.4160294551486725" fill="#FFFFFF" opacity="0.8302693842406448"/><circle cx="562" cy="627" r="2.7871792022736415" fill="#FFFFFF" opacity="0.8777752946723241"/><circle cx="87" cy="418" r="5.010972594782565" fill="#FFFFFF" opacity="0.8783522289360044"/><circle cx="842" cy="762" r="5.471016381739872" fill="#FFFFFF" opacity="0.8766369692834233"/><circle cx="1458" cy="794" r="3.0340985668986433" fill="#FFFFFF" opacity="0.6052290927591815"/><circle cx="659" cy="404" r="5.68662956012307" fill="#FFFFFF" opacity="0.6119698220877566"/><circle cx="892" cy="621" r="5.381949740615596" fill="#FFFFFF" opacity="0.6841635126840252"/><circle cx="1432" cy="230" r="4.643510061437398" fill="#FFFFFF" opacity="0.5613330521786989"/><circle cx="1548" cy="882" r="2.030399061329845" fill="#FFFFFF" opacity="0.6326018868382309"/><circle cx="1014" cy="743" r="5.680216539662003" fill="#FFFFFF" opacity="0.7793814873627336"/><circle cx="1319" cy="46" r="5.83703069184217" fill="#FFFFFF" opacity="0.6609005545496957"/><circle cx="633" cy="348" r="2.156736803318577" fill="#FFFFFF" opacity="0.7855609016063814"/><circle cx="1543" cy="115" r="5.008384337589993" fill="#FFFFFF" opacity="0.5817784341180992"/><circle cx="1133" cy="407" r="2.8345132766573315" fill="#FFFFFF" opacity="0.8605077750477055"/><circle cx="697" cy="855" r="2.130931693956355" fill="#FFFFFF" opacity="0.5192980416485876"/><circle cx="109" cy="720" r="4.533423000650425" fill="#FFFFFF" opacity="0.6417030034041771"/><circle cx="604" cy="154" r="5.096706239641524" fill="#FFFFFF" opacity="0.5000270814738105"/><circle cx="1016" cy="794" r="5.397970008774788" fill="#FFFFFF" opacity="0.7997258465616861"/><circle cx="544" cy="652" r="4.431991318837666" fill="#FFFFFF" opacity="0.5105551422050836"/><circle cx="762" cy="422" r="5.068978565554037" fill="#FFFFFF" opacity="0.7516810143571885"/><circle cx="1598" cy="287" r="4.001930843988996" fill="#FFFFFF" opacity="0.710356793357419"/><circle cx="1222" cy="798" r="2.248033444820495" fill="#FFFFFF" opacity="0.5299190305687824"/><circle cx="956" cy="648" r="2.3127412179760514" fill="#FFFFFF" opacity="0.6592746267388992"/><circle cx="438" cy="111" r="4.902528082597744" fill="#FFFFFF" opacity="0.7884395099289817"/><circle cx="688" cy="551" r="2.1361506586251764" fill="#FFFFFF" opacity="0.7294945180670452"/><circle cx="120" cy="168" r="5.635719658815214" fill="#FFFFFF" opacity="0.8237747581000365"/><circle cx="1539" cy="433" r="3.8554743162900094" fill="#FFFFFF" opacity="0.8431406252726725"/><circle cx="297" cy="744" r="4.404624759460268" fill="#FFFFFF" opacity="0.8251298432484775"/><circle cx="479" cy="823" r="2.3179202818654874" fill="#FFFFFF" opacity="0.6378454742998391"/><circle cx="301" cy="869" r="2.8473778372257894" fill="#FFFFFF" opacity="0.8502706468053172"/><circle cx="10" cy="560" r="2.75702117884866" fill="#FFFFFF" opacity="0.6971560126004906"/><circle cx="1075" cy="241" r="4.2581590239612215" fill="#FFFFFF" opacity="0.5451917143317953"/><circle cx="513" cy="171" r="2.896626202194889" fill="#FFFFFF" opacity="0.8307788612926774"/><circle cx="372" cy="546" r="5.263459126236736" fill="#FFFFFF" opacity="0.6669015732252322"/><circle cx="1275" cy="720" r="4.006933784660623" fill="#FFFFFF" opacity="0.6230651242686314"/><circle cx="473" cy="366" r="2.0242123891704895" fill="#FFFFFF" opacity="0.707224878174621"/><circle cx="437" cy="650" r="3.9393075719074027" fill="#FFFFFF" opacity="0.534487510267287"/><circle cx="597" cy="859" r="4.945551914633043" fill="#FFFFFF" opacity="0.5671003605414076"/><circle cx="1273" cy="864" r="5.206794987406028" fill="#FFFFFF" opacity="0.8607402182840037"/><circle cx="1215" cy="217" r="2.4163873835654814" fill="#FFFFFF" opacity="0.7349837279940197"/><circle cx="1483" cy="492" r="3.9130427375245014" fill="#FFFFFF" opacity="0.7715223872854855"/><circle cx="1094" cy="842" r="5.844372761645047" fill="#FFFFFF" opacity="0.6753422076161699"/><circle cx="1580" cy="122" r="5.823187763575076" fill="#FFFFFF" opacity="0.7626235858222481"/><circle cx="612" cy="652" r="5.554431032045268" fill="#FFFFFF" opacity="0.8206777262668117"/><circle cx="1128" cy="554" r="4.996396569729967" fill="#FFFFFF" opacity="0.628008113308774"/><circle cx="139" cy="662" r="3.8555985180463024" fill="#FFFFFF" opacity="0.6789034739498152"/><circle cx="553" cy="592" r="3.880118812422565" fill="#FFFFFF" opacity="0.8483302948270651"/><circle cx="1379" cy="23" r="5.599328649384038" fill="#FFFFFF" opacity="0.8121839060226513"/><circle cx="676" cy="495" r="3.6970951750089402" fill="#FFFFFF" opacity="0.7007983809776097"/><circle cx="421" cy="553" r="3.108460108523124" fill="#FFFFFF" opacity="0.8511124594365778"/><circle cx="427" cy="62" r="3.0058816502281873" fill="#FFFFFF" opacity="0.820445438252067"/><circle cx="164" cy="337" r="5.38718222897211" fill="#FFFFFF" opacity="0.5759346674699837"/><circle cx="1328" cy="838" r="3.9795407078592655" fill="#FFFFFF" opacity="0.5431721994619244"/><circle cx="972" cy="188" r="3.523197119053059" fill="#FFFFFF" opacity="0.5184217392196545"/><circle cx="325" cy="757" r="4.527001826637157" fill="#FFFFFF" opacity="0.5680495488009134"/><circle cx="610" cy="497" r="4.816857398966624" fill="#FFFFFF" opacity="0.7232308562843438"/><circle cx="411" cy="487" r="4.971968797629376" fill="#FFFFFF" opacity="0.6323238412606305"/><circle cx="1150" cy="885" r="3.242923056707646" fill="#FFFFFF" opacity="0.5392966983948928"/><circle cx="351" cy="427" r="2.9721720471689497" fill="#FFFFFF" opacity="0.8185970843149151"/><circle cx="835" cy="110" r="5.592929278736849" fill="#FFFFFF" opacity="0.794539742089637"/><circle cx="1587" cy="588" r="5.004668069537356" fill="#FFFFFF" opacity="0.7990131488376869"/><circle cx="793" cy="141" r="3.94542227902036" fill="#FFFFFF" opacity="0.8165308272450635"/><circle cx="587" cy="527" r="2.343482324163798" fill="#FFFFFF" opacity="0.7781381110012626"/><circle cx="934" cy="165" r="2.210146363559437" fill="#FFFFFF" opacity="0.5712810442098567"/><circle cx="85" cy="666" r="3.4151686644507055" fill="#FFFFFF" opacity="0.781873527180986"/><circle cx="259" cy="237" r="3.8964087548438586" fill="#FFFFFF" opacity="0.8903055813193701"/><circle cx="333" cy="163" r="5.929759904180294" fill="#FFFFFF" opacity="0.8307167568666911"/><circle cx="1145" cy="685" r="3.20891582898839" fill="#FFFFFF" opacity="0.6181947546456332"/><circle cx="646" cy="358" r="5.8994579388316915" fill="#FFFFFF" opacity="0.5199213415055655"/><circle cx="1176" cy="508" r="5.791287041306594" fill="#FFFFFF" opacity="0.7670295058153841"/><circle cx="1334" cy="581" r="2.581739373734007" fill="#FFFFFF" opacity="0.6633655408357078"/><circle cx="1279" cy="491" r="5.603047968524975" fill="#FFFFFF" opacity="0.7314256059598157"/><circle cx="1266" cy="213" r="5.345581495868415" fill="#FFFFFF" opacity="0.765673628450495"/><circle cx="395" cy="648" r="4.969995147433539" fill="#FFFFFF" opacity="0.5799302909373673"/><circle cx="1302" cy="277" r="2.4073948990914174" fill="#FFFFFF" opacity="0.7976509232987445"/><circle cx="754" cy="759" r="5.355172784307678" fill="#FFFFFF" opacity="0.6634160260053875"/><circle cx="1342" cy="554" r="3.186275634050774" fill="#FFFFFF" opacity="0.5182889037995977"/><circle cx="1505" cy="462" r="3.1277765112782436" fill="#FFFFFF" opacity="0.7128370058829456"/><circle cx="325" cy="504" r="3.163770803758063" fill="#FFFFFF" opacity="0.7841176795820253"/><circle cx="3" cy="531" r="5.182194326540143" fill="#FFFFFF" opacity="0.5172734441849527"/><circle cx="1212" cy="381" r="5.159161244058385" fill="#FFFFFF" opacity="0.8395626418166391"/><circle cx="1449" cy="525" r="4.710432640914948" fill="#FFFFFF" opacity="0.8913271255084668"/><circle cx="1451" cy="427" r="4.009456622937383" fill="#FFFFFF" opacity="0.7047777566505766"/><circle cx="23" cy="75" r="4.379385227717035" fill="#FFFFFF" opacity="0.5716932534069818"/><circle cx="355" cy="188" r="4.252591416010636" fill="#FFFFFF" opacity="0.6067729472457837"/><circle cx="434" cy="219" r="3.9963201334688874" fill="#FFFFFF" opacity="0.8924802396993169"/><circle cx="947" cy="262" r="4.9094919625480085" fill="#FFFFFF" opacity="0.7743297941870217"/><circle cx="1570" cy="673" r="4.219305725773793" fill="#FFFFFF" opacity="0.8782000816686093"/><circle cx="1523" cy="611" r="3.8471813752749515" fill="#FFFFFF" opacity="0.6825890333036908"/><circle cx="1449" cy="664" r="2.6595023845932353" fill="#FFFFFF" opacity="0.6970520114190943"/><circle cx="604" cy="81" r="5.055164128367606" fill="#FFFFFF" opacity="0.6727171774390991"/><circle cx="688" cy="51" r="5.17641031342171" fill="#FFFFFF" opacity="0.5949711286168832"/><circle cx="584" cy="540" r="2.3542331832733687" fill="#FFFFFF" opacity="0.8076062972997404"/><circle cx="204" cy="176" r="4.266753611908621" fill="#FFFFFF" opacity="0.7664467128819219"/><circle cx="666" cy="77" r="4.304675436050977" fill="#FFFFFF" opacity="0.8152581670728403"/><circle cx="1589" cy="533" r="3.6035343945902456" fill="#FFFFFF" opacity="0.6336476531236732"/><circle cx="1473" cy="886" r="2.7055458363930613" fill="#FFFFFF" opacity="0.8209689918439779"/><circle cx="1596" cy="436" r="4.375149666778691" fill="#FFFFFF" opacity="0.7583836070765444"/><circle cx="1094" cy="336" r="2.7859915878871107" fill="#FFFFFF" opacity="0.8216978152325896"/><circle cx="439" cy="616" r="5.049411338307605" fill="#FFFFFF" opacity="0.7935647068051511"/><circle cx="229" cy="50" r="2.5804457438778385" fill="#FFFFFF" opacity="0.6790737387353218"/><circle cx="736" cy="266" r="3.5446810205607124" fill="#FFFFFF" opacity="0.5797187993203528"/><circle cx="1045" cy="165" r="3.8307433870281935" fill="#FFFFFF" opacity="0.8373149789422715"/><circle cx="669" cy="826" r="2.353964847022621" fill="#FFFFFF" opacity="0.6757950789864"/><circle cx="1246" cy="553" r="4.154604026088952" fill="#FFFFFF" opacity="0.5077978449471715"/><circle cx="1077" cy="85" r="5.153531551745609" fill="#FFFFFF" opacity="0.7624642633729003"/><circle cx="1236" cy="155" r="3.3937562588118655" fill="#FFFFFF" opacity="0.8988346668944127"/><circle cx="1365" cy="696" r="2.4927871698974147" fill="#FFFFFF" opacity="0.6734760106112178"/><circle cx="1013" cy="532" r="5.53727403367351" fill="#FFFFFF" opacity="0.8677396422891835"/><circle cx="333" cy="504" r="4.0132386321137705" fill="#FFFFFF" opacity="0.626317782910382"/><circle cx="568" cy="878" r="5.432642710444558" fill="#FFFFFF" opacity="0.6113051228287502"/><circle cx="893" cy="284" r="2.6912072798692788" fill="#FFFFFF" opacity="0.5356774674915915"/><circle cx="571" cy="150" r="3.65346781521238" fill="#FFFFFF" opacity="0.529570460477076"/><circle cx="584" cy="367" r="2.5254374250385285" fill="#FFFFFF" opacity="0.6216680207346308"/><circle cx="348" cy="122" r="2.5407551221510745" fill="#FFFFFF" opacity="0.5047025205587709"/><circle cx="855" cy="764" r="5.174548986957528" fill="#FFFFFF" opacity="0.5704216599655527"/><circle cx="1517" cy="718" r="4.0751448890899535" fill="#FFFFFF" opacity="0.6620768044966565"/><circle cx="722" cy="335" r="2.1904402800834335" fill="#FFFFFF" opacity="0.8610206157072959"/><circle cx="854" cy="409" r="4.445767927979013" fill="#FFFFFF" opacity="0.8981638233889346"/><circle cx="1381" cy="328" r="3.687842412387693" fill="#FFFFFF" opacity="0.6121449083538525"/><circle cx="247" cy="325" r="2.4558404066188158" fill="#FFFFFF" opacity="0.7995177952875658"/><circle cx="463" cy="290" r="3.803568198155815" fill="#FFFFFF" opacity="0.5319424784633358"/><circle cx="674" cy="863" r="4.386733703391506" fill="#FFFFFF" opacity="0.8812624802025251"/><circle cx="878" cy="841" r="3.175284249118248" fill="#FFFFFF" opacity="0.5142259326500684"/><circle cx="749" cy="818" r="2.875695655326411" fill="#FFFFFF" opacity="0.6866826576283533"/></svg>