<svg xmlns="http://www.w3.org/2000/svg" viewBox="0 0 1600 1000" preserveAspectRatio="xMidYMid slice">
  <defs>
    <linearGradient id="g" x1="0" y1="0" x2="1" y2="1">
      <stop offset="0" stop-color="#1b243a"/>
      <stop offset=".58" stop-color="#122f4a"/>
      <stop offset="1" stop-color="#1b243a"/>
    </linearGradient>
    <radialGradient id="warm" cx=".18" cy=".12" r=".62">
      <stop offset="0" stop-color="#dcefff" stop-opacity=".32"/>
      <stop offset="1" stop-color="#dcefff" stop-opacity="0"/>
    </radialGradient>
    <radialGradient id="cool" cx=".86" cy=".24" r=".58">
      <stop offset="0" stop-color="#90e4ff" stop-opacity=".24"/>
      <stop offset="1" stop-color="#90e4ff" stop-opacity="0"/>
    </radialGradient>
  </defs>
  <rect width="1600" height="1000" fill="url(#g)"/>
  <rect width="1600" height="1000" fill="url(#warm)"/>
  <rect width="1600" height="1000" fill="url(#cool)"/>
  <circle cx="1280" cy="820" r="360" fill="#ffffff" opacity=".06"/>
  <circle cx="130" cy="930" r="310" fill="#ffffff" opacity=".05"/>
  <circle cx="509" cy="70" r="132" fill="#dcefff" opacity="0.12"/>
<circle cx="-70" cy="195" r="111" fill="#ff8a9c" opacity="0.12"/>
<circle cx="1343" cy="175" r="77" fill="#ff8a9c" opacity="0.12"/>
<circle cx="60" cy="830" r="226" fill="#dcefff" opacity="0.19"/>
<circle cx="-7" cy="556" r="100" fill="#90e4ff" opacity="0.11"/>
<circle cx="165" cy="937" r="127" fill="#dcefff" opacity="0.18"/>
<circle cx="1274" cy="832" r="117" fill="#90e4ff" opacity="0.14"/>
<circle cx="1205" cy="103" r="122" fill="#dcefff" opacity="0.11"/>
<circle cx="134" cy="550" r="213" fill="#dcefff" opacity="0.15"/>
<circle cx="971" cy="721" r="185" fill="#90e4ff" opacity="0.13"/>
<circle cx="1448" cy="-83" r="114" fill="#dcefff" opacity="0.11"/>
<circle cx="67" cy="248" r="200" fill="#ff8a9c" opacity="0.13"/>
<circle cx="189" cy="1033" r="233" fill="#90e4ff" opacity="0.18"/>
<circle cx="839" cy="679" r="154" fill="#ff8a9c" opacity="0.20"/>
<circle cx="481" cy="813" r="110" fill="#ff8a9c" opacity="0.08"/>
<circle cx="695" cy="37" r="141" fill="#ff8a9c" opacity="0.13"/><path d="M-100 755 C300 595, 600 935, 1000 755 S1400 605, 1700 795" fill="none" stroke="#90e4ff" stroke-width="34" opacity="0.09"/>
<path d="M-100 434 C300 274, 600 614, 1000 434 S1400 284, 1700 474" fill="none" stroke="#90e4ff" stroke-width="34" opacity="0.13"/>
<path d="M-100 734 C300 574, 600 914, 1000 734 S1400 584, 1700 774" fill="none" stroke="#90e4ff" stroke-width="34" opacity="0.09"/>
<path d="M-100 359 C300 199, 600 539, 1000 359 S1400 209, 1700 399" fill="none" stroke="#dcefff" stroke-width="34" opacity="0.16"/>
<path d="M-100 736 C300 576, 600 916, 1000 736 S1400 586, 1700 776" fill="none" stroke="#90e4ff" stroke-width="34" opacity="0.14"/>
<path d="M-100 677 C300 517, 600 857, 1000 677 S1400 527, 1700 717" fill="none" stroke="#ff8a9c" stroke-width="34" opacity="0.16"/><circle cx="231" cy="155" r="1.0" fill="#fff" opacity="0.56"/>
<circle cx="994" cy="487" r="2.0" fill="#fff" opacity="0.26"/>
<circle cx="1190" cy="794" r="2.3" fill="#fff" opacity="0.55"/>
<circle cx="542" cy="447" r="2.2" fill="#fff" opacity="0.19"/>
<circle cx="1304" cy="997" r="1.1" fill="#fff" opacity="0.56"/>
<circle cx="532" cy="540" r="1.7" fill="#fff" opacity="0.39"/>
<circle cx="377" cy="730" r="1.7" fill="#fff" opacity="0.33"/>
<circle cx="1205" cy="135" r="0.9" fill="#fff" opacity="0.26"/>
<circle cx="1025" cy="790" r="0.8" fill="#fff" opacity="0.36"/>
<circle cx="1592" cy="361" r="0.8" fill="#fff" opacity="0.60"/>
<circle cx="1330" cy="237" r="0.9" fill="#fff" opacity="0.54"/>
<circle cx="762" cy="398" r="1.2" fill="#fff" opacity="0.50"/>
<circle cx="336" cy="578" r="1.9" fill="#fff" opacity="0.33"/>
<circle cx="1015" cy="708" r="0.8" fill="#fff" opacity="0.50"/>
<circle cx="1568" cy="261" r="1.5" fill="#fff" opacity="0.62"/>
<circle cx="127" cy="98" r="1.2" fill="#fff" opacity="0.29"/>
<circle cx="378" cy="980" r="1.9" fill="#fff" opacity="0.49"/>
<circle cx="537" cy="721" r="2.0" fill="#fff" opacity="0.21"/>
<circle cx="1195" cy="670" r="2.3" fill="#fff" opacity="0.23"/>
<circle cx="874" cy="600" r="0.8" fill="#fff" opacity="0.43"/>
<circle cx="967" cy="345" r="1.1" fill="#fff" opacity="0.45"/>
<circle cx="1020" cy="149" r="1.3" fill="#fff" opacity="0.61"/>
<circle cx="782" cy="938" r="0.8" fill="#fff" opacity="0.31"/>
<circle cx="1591" cy="215" r="2.0" fill="#fff" opacity="0.56"/>
<circle cx="571" cy="735" r="1.3" fill="#fff" opacity="0.60"/>
<circle cx="163" cy="654" r="1.4" fill="#fff" opacity="0.62"/>
<circle cx="1085" cy="751" r="1.7" fill="#fff" opacity="0.35"/>
<circle cx="1425" cy="120" r="0.8" fill="#fff" opacity="0.30"/>
<circle cx="396" cy="649" r="1.4" fill="#fff" opacity="0.55"/>
<circle cx="1254" cy="350" r="1.0" fill="#fff" opacity="0.57"/>
<circle cx="145" cy="568" r="1.2" fill="#fff" opacity="0.34"/>
<circle cx="971" cy="283" r="2.3" fill="#fff" opacity="0.49"/>
<circle cx="148" cy="777" r="2.0" fill="#fff" opacity="0.51"/>
<circle cx="1509" cy="868" r="1.4" fill="#fff" opacity="0.28"/>
<circle cx="1117" cy="789" r="2.0" fill="#fff" opacity="0.29"/>
<circle cx="610" cy="808" r="2.0" fill="#fff" opacity="0.39"/>
<circle cx="1443" cy="802" r="2.3" fill="#fff" opacity="0.32"/>
<circle cx="796" cy="948" r="1.0" fill="#fff" opacity="0.22"/>
<circle cx="781" cy="765" r="1.0" fill="#fff" opacity="0.28"/>
<circle cx="957" cy="612" r="1.6" fill="#fff" opacity="0.54"/>
<circle cx="358" cy="113" r="2.1" fill="#fff" opacity="0.35"/>
<circle cx="1129" cy="99" r="1.3" fill="#fff" opacity="0.20"/>
<circle cx="1384" cy="934" r="1.7" fill="#fff" opacity="0.19"/>
<circle cx="191" cy="713" r="1.7" fill="#fff" opacity="0.18"/>
<circle cx="287" cy="73" r="1.7" fill="#fff" opacity="0.59"/>
<circle cx="1575" cy="62" r="2.4" fill="#fff" opacity="0.47"/>
<circle cx="1031" cy="691" r="0.9" fill="#fff" opacity="0.24"/>
<circle cx="1594" cy="159" r="2.2" fill="#fff" opacity="0.26"/>
<circle cx="48" cy="685" r="1.9" fill="#fff" opacity="0.29"/>
<circle cx="1231" cy="542" r="1.5" fill="#fff" opacity="0.25"/>
<circle cx="1329" cy="643" r="1.2" fill="#fff" opacity="0.49"/>
<circle cx="1247" cy="926" r="0.8" fill="#fff" opacity="0.58"/>
<circle cx="1292" cy="425" r="1.4" fill="#fff" opacity="0.34"/>
<circle cx="943" cy="19" r="2.2" fill="#fff" opacity="0.33"/>
<circle cx="827" cy="831" r="2.2" fill="#fff" opacity="0.34"/>
<circle cx="919" cy="426" r="2.2" fill="#fff" opacity="0.28"/>
<circle cx="425" cy="267" r="1.7" fill="#fff" opacity="0.35"/>
<circle cx="1112" cy="410" r="1.8" fill="#fff" opacity="0.46"/>
<circle cx="596" cy="599" r="1.7" fill="#fff" opacity="0.35"/>
<circle cx="991" cy="15" r="0.8" fill="#fff" opacity="0.50"/>
<circle cx="875" cy="888" r="1.9" fill="#fff" opacity="0.49"/>
<circle cx="309" cy="1000" r="1.8" fill="#fff" opacity="0.61"/>
<circle cx="1320" cy="859" r="1.5" fill="#fff" opacity="0.34"/>
<circle cx="160" cy="628" r="1.5" fill="#fff" opacity="0.46"/>
<circle cx="908" cy="999" r="0.8" fill="#fff" opacity="0.48"/>
<circle cx="1597" cy="700" r="1.1" fill="#fff" opacity="0.20"/>
<circle cx="1354" cy="470" r="2.0" fill="#fff" opacity="0.53"/>
<circle cx="616" cy="882" r="1.0" fill="#fff" opacity="0.49"/>
<circle cx="583" cy="311" r="2.2" fill="#fff" opacity="0.39"/>
<circle cx="426" cy="151" r="1.1" fill="#fff" opacity="0.49"/>
<circle cx="1155" cy="504" r="0.9" fill="#fff" opacity="0.28"/>
<circle cx="573" cy="441" r="1.8" fill="#fff" opacity="0.58"/>
<circle cx="40" cy="817" r="1.0" fill="#fff" opacity="0.39"/>
<circle cx="618" cy="774" r="1.0" fill="#fff" opacity="0.37"/>
<circle cx="1147" cy="299" r="1.9" fill="#fff" opacity="0.55"/>
<circle cx="506" cy="754" r="1.0" fill="#fff" opacity="0.49"/>
<circle cx="1346" cy="325" r="2.0" fill="#fff" opacity="0.53"/>
<circle cx="1480" cy="867" r="1.9" fill="#fff" opacity="0.58"/>
<circle cx="341" cy="922" r="2.0" fill="#fff" opacity="0.34"/>
<circle cx="764" cy="392" r="0.8" fill="#fff" opacity="0.47"/>
<circle cx="1576" cy="434" r="2.3" fill="#fff" opacity="0.45"/>
<circle cx="1592" cy="48" r="1.0" fill="#fff" opacity="0.30"/>
<circle cx="1024" cy="636" r="1.9" fill="#fff" opacity="0.39"/>
<circle cx="388" cy="520" r="2.4" fill="#fff" opacity="0.19"/>
<circle cx="474" cy="515" r="2.0" fill="#fff" opacity="0.44"/>
<circle cx="377" cy="292" r="1.7" fill="#fff" opacity="0.19"/>
<circle cx="639" cy="529" r="1.8" fill="#fff" opacity="0.19"/>
<circle cx="1298" cy="225" r="2.0" fill="#fff" opacity="0.29"/>
<circle cx="275" cy="346" r="2.1" fill="#fff" opacity="0.35"/>
<circle cx="378" cy="260" r="1.3" fill="#fff" opacity="0.45"/>
  <rect width="1600" height="1000" fill="#000" opacity=".08"/>
</svg>