<svg xmlns="http://www.w3.org/2000/svg" viewBox="0 0 1200 800" width="1200" height="800">
  <defs>
    <radialGradient id="g" cx="50%" cy="42%" r="75%">
      <stop offset="0" stop-color="#163b43"/>
      <stop offset="1" stop-color="#071d2e"/>
    </radialGradient>
    <pattern id="snow" width="120" height="120" patternUnits="userSpaceOnUse">
      <circle cx="20" cy="28" r="2.4" fill="#fff" opacity=".55"/>
      <circle cx="90" cy="70" r="1.8" fill="#fff" opacity=".45"/>
      <circle cx="64" cy="18" r="1.3" fill="#fff" opacity=".35"/>
      <circle cx="42" cy="100" r="1.7" fill="#fff" opacity=".4"/>
    </pattern>
    <linearGradient id="shine" x1="0" x2="1" y1="0" y2="1">
      <stop offset="0" stop-color="#ffffff" stop-opacity=".16"/>
      <stop offset="1" stop-color="#ffffff" stop-opacity="0"/>
    </linearGradient>
  </defs>
  <rect width="1200" height="800" fill="url(#g)"/>
  <rect width="1200" height="800" fill="url(#snow)"/>
  <circle cx="-60" cy="820" r="360" fill="#fff" opacity=".08"/>
  <circle cx="1260" cy="-70" r="390" fill="#bcecff" opacity=".10"/>
  
<g transform="translate(760 430)" fill="none" stroke="#d9aa73" stroke-width="16" stroke-linecap="round" stroke-linejoin="round">
 <path d="M-160 78 C-100 -20 40 -20 95 76" fill="#7c4a2c" stroke="#7c4a2c"/>
 <path d="M100 75 q45 -30 70 4" fill="#8a5230" stroke="#8a5230"/>
 <path d="M-90 70 v92M35 70 v92"/>
 <path d="M152 52 l35 -52M152 52 l55 -24M152 52 l22 -70"/>
 <circle cx="177" cy="84" r="7" fill="#ff5c67" stroke="none"/>
</g>
<circle cx="300" cy="170" r="72" fill="#fff6c9" opacity=".85"/>
  <rect width="1200" height="800" fill="url(#shine)"/>
</svg>