<svg xmlns="http://www.w3.org/2000/svg" viewBox="0 0 1600 900" preserveAspectRatio="xMidYMid slice">
  <defs>
    <linearGradient id="sky" x1="0" y1="0" x2="1" y2="1"><stop offset="0" stop-color="#0d3040"/><stop offset="1" stop-color="#204d4b"/></linearGradient>
    <radialGradient id="glow" cx="50%" cy="22%" r="55%"><stop offset="0" stop-color="#fff1aa" stop-opacity=".32"/><stop offset="1" stop-color="#fff1aa" stop-opacity="0"/></radialGradient>
    <filter id="soft"><feGaussianBlur stdDeviation="10"/></filter>
  </defs>
  <rect width="1600" height="900" fill="url(#sky)"/>
  <rect width="1600" height="900" fill="url(#glow)"/>
  <g opacity=".55" fill="#fff8e9">
    <circle cx="168" cy="106" r="3"/><circle cx="320" cy="188" r="2"/><circle cx="472" cy="92" r="3"/><circle cx="612" cy="156" r="2"/><circle cx="790" cy="76" r="3"/><circle cx="1012" cy="150" r="2"/><circle cx="1260" cy="98" r="3"/><circle cx="1460" cy="176" r="2"/><circle cx="1378" cy="54" r="2"/><circle cx="113" cy="292" r="2"/><circle cx="1444" cy="325" r="3"/>
  </g>
  <circle cx="1320" cy="170" r="62" fill="#fff0b5" opacity=".92"/>
  <path d="M0 700 C260 620 390 760 625 690 C850 626 1000 728 1230 650 C1396 592 1484 615 1600 570 L1600 900 L0 900 Z" fill="#e9f7ef" opacity=".92"/>
  <path d="M0 765 C235 705 425 792 612 744 C780 700 920 792 1095 736 C1290 676 1450 724 1600 690 L1600 900 L0 900 Z" fill="#ffffff" opacity=".96"/>
  
  <g transform="translate(820 250)">
    <path d="M10 100 C120 154 238 150 346 104" stroke="#ff705e" stroke-width="28" stroke-linecap="round" fill="none"/>
    <path d="M92 72 H254 Q314 72 334 122 H80 Z" fill="#c94f45"/>
    <circle cx="148" cy="55" r="34" fill="#fff3c8"/><path d="M128 28 Q158 -10 200 30" stroke="#fff" stroke-width="20" fill="none" stroke-linecap="round"/>
    <path d="M385 82 C440 20 510 50 552 100" stroke="#d39b61" stroke-width="17" fill="none" stroke-linecap="round"/>
    <path d="M520 38 l25 -36 m-13 34 l34 -24" stroke="#d39b61" stroke-width="8" stroke-linecap="round"/>
    <circle cx="559" cy="108" r="8" fill="#ff756d"/>
  </g><g transform="translate(280 565)"><path d="M0 100 C45 30 118 38 155 98" stroke="#c38b5a" stroke-width="22" fill="none" stroke-linecap="round"/><path d="M135 42 l25 -40 m-13 37 l35 -23" stroke="#c38b5a" stroke-width="9" stroke-linecap="round"/><circle cx="165" cy="106" r="10" fill="#ff6f68"/></g>
</svg>