<svg xmlns="http://www.w3.org/2000/svg" viewBox="0 0 1600 900" preserveAspectRatio="xMidYMid slice"><defs><linearGradient id="bg5" x1="0" y1="0" x2="0" y2="1"><stop offset="0%" stop-color="#1A237E"/><stop offset="100%" stop-color="#3949AB"/></linearGradient><linearGradient id="hill15" x1="0" y1="0" x2="0" y2="1"><stop offset="0%" stop-color="#FFFFFF"/><stop offset="100%" stop-color="#E3F2FD"/></linearGradient><linearGradient id="hill25" x1="0" y1="0" x2="0" y2="1"><stop offset="0%" stop-color="#F5F5F5"/><stop offset="100%" stop-color="#BBDEFB"/></linearGradient></defs><rect width="1600" height="900" fill="url(#bg5)"/><circle cx="1300" cy="200" r="60" fill="#FFF9C4" opacity="0.9"/><circle cx="1300" cy="200" r="120" fill="#FFF9C4" opacity="0.1"/><circle cx="478" cy="411" r="2.7269282383040183" fill="#FFFFFF" opacity="0.4845313002772581"/><circle cx="1502" cy="147" r="2.413589566640845" fill="#FFFFFF" opacity="0.6722287811667039"/><circle cx="224" cy="401" r="1.5531267953668473" fill="#FFFFFF" opacity="0.5934660589272696"/><circle cx="1257" cy="25" r="1.6229556480538567" fill="#FFFFFF" opacity="0.727238232127277"/><circle cx="289" cy="105" r="1.1275822760034628" fill="#FFFFFF" opacity="0.7878540038099184"/><circle cx="1372" cy="215" r="1.90018965615808" fill="#FFFFFF" opacity="0.42823104325820527"/><circle cx="962" cy="500" r="2.0742454112519835" fill="#FFFFFF" opacity="0.680564569880489"/><circle cx="26" cy="91" r="1.1317669506429446" fill="#FFFFFF" opacity="0.3144251472860258"/><circle cx="339" cy="35" r="1.187002161533578" fill="#FFFFFF" opacity="0.31216347593355703"/><circle cx="885" cy="155" r="2.208838068294213" fill="#FFFFFF" opacity="0.7264766259414418"/><circle cx="1398" cy="456" r="2.5032693591122994" fill="#FFFFFF" opacity="0.42789549652053355"/><circle cx="702" cy="432" r="1.1153775039000702" fill="#FFFFFF" opacity="0.7893598869392542"/><circle cx="1491" cy="400" r="1.5552421177060154" fill="#FFFFFF" opacity="0.7382662110319652"/><circle cx="717" cy="373" r="1.1050160347488132" fill="#FFFFFF" opacity="0.5244059442576643"/><circle cx="599" cy="11" r="2.8651494054690874" fill="#FFFFFF" opacity="0.7256256644867687"/><circle cx="339" cy="118" r="2.5370329415274666" fill="#FFFFFF" opacity="0.6434833256098338"/><circle cx="1199" cy="175" r="1.4924203821388333" fill="#FFFFFF" opacity="0.41753525348213877"/><circle cx="1502" cy="149" r="1.2371383493746122" fill="#FFFFFF" opacity="0.4269751925246758"/><circle cx="918" cy="109" r="1.458393797152794" fill="#FFFFFF" opacity="0.5134708095341604"/><circle cx="927" cy="287" r="2.107686004844117" fill="#FFFFFF" opacity="0.6724493682206798"/><circle cx="1521" cy="99" r="1.750309309166138" fill="#FFFFFF" opacity="0.7828524140253524"/><circle cx="736" cy="162" r="1.8231094350958237" fill="#FFFFFF" opacity="0.7152786086266341"/><circle cx="994" cy="309" r="2.2306698012180446" fill="#FFFFFF" opacity="0.4314467681394681"/><circle cx="1319" cy="48" r="1.2505038831995294" fill="#FFFFFF" opacity="0.4724115412021861"/><circle cx="1348" cy="242" r="2.778454444978993" fill="#FFFFFF" opacity="0.737544236407027"/><circle cx="766" cy="54" r="1.0148510699678488" fill="#FFFFFF" opacity="0.47103211515986726"/><circle cx="1548" cy="195" r="2.3659543466456716" fill="#FFFFFF" opacity="0.5331026437388888"/><circle cx="79" cy="480" r="1.3761488707481144" fill="#FFFFFF" opacity="0.45713974536337704"/><circle cx="835" cy="89" r="1.1235339577339634" fill="#FFFFFF" opacity="0.6393748347869002"/><circle cx="1180" cy="124" r="2.2550859118786244" fill="#FFFFFF" opacity="0.7376163230849686"/><circle cx="278" cy="48" r="1.9822080167091898" fill="#FFFFFF" opacity="0.4334673964084909"/><circle cx="520" cy="164" r="2.0280585157863715" fill="#FFFFFF" opacity="0.43213440950139165"/><circle cx="1425" cy="425" r="1.8998190374134762" fill="#FFFFFF" opacity="0.6619319148633861"/><circle cx="220" cy="236" r="1.1317057665907004" fill="#FFFFFF" opacity="0.3940619594752473"/><circle cx="339" cy="82" r="2.9673847450029847" fill="#FFFFFF" opacity="0.4796300648992052"/><circle cx="1011" cy="149" r="2.7280763279023676" fill="#FFFFFF" opacity="0.5937241312849686"/><circle cx="832" cy="263" r="2.6498191571662604" fill="#FFFFFF" opacity="0.7688081531290867"/><circle cx="107" cy="477" r="1.2268210669528743" fill="#FFFFFF" opacity="0.3269840372938003"/><circle cx="917" cy="34" r="1.7150024516364297" fill="#FFFFFF" opacity="0.6480018471203153"/><circle cx="683" cy="350" r="2.5085712445817565" fill="#FFFFFF" opacity="0.5201240867897694"/><circle cx="938" cy="247" r="1.2937080678226893" fill="#FFFFFF" opacity="0.749668148950583"/><circle cx="778" cy="489" r="2.7606375899203695" fill="#FFFFFF" opacity="0.6470939485205107"/><circle cx="1318" cy="454" r="2.593825948264891" fill="#FFFFFF" opacity="0.31082182481531834"/><circle cx="1158" cy="192" r="2.4523304410947553" fill="#FFFFFF" opacity="0.5830434805313303"/><circle cx="778" cy="96" r="1.208462837350251" fill="#FFFFFF" opacity="0.4497860884092256"/><circle cx="234" cy="250" r="2.705245741158466" fill="#FFFFFF" opacity="0.3288157331978258"/><circle cx="1410" cy="362" r="1.7033430076744207" fill="#FFFFFF" opacity="0.7800925378437102"/><circle cx="850" cy="75" r="2.5456879569259896" fill="#FFFFFF" opacity="0.6943781810944913"/><circle cx="999" cy="366" r="2.2371079793882176" fill="#FFFFFF" opacity="0.3282373562116755"/><circle cx="1139" cy="440" r="2.4641156605596333" fill="#FFFFFF" opacity="0.4211442979433447"/><path d="M 0 600 Q 400 450 800 600 T 1600 550 L 1600 900 L 0 900 Z" fill="url(#hill25)"/><g transform="translate(577,611) scale(1.0444392915389111)"><rect x="-6" y="-10" width="12" height="20" fill="#795548" rx="2"/><path d="M -40 -10 L 40 -10 L 0 -50 Z" fill="#2E7D32"/><path d="M -30 -30 L 30 -30 L 0 -70 Z" fill="#43A047"/><path d="M -20 -50 L 20 -50 L 0 -90 Z" fill="#4CAF50"/><circle cx="-15" cy="-20" r="3.5" fill="#29B6F6"/><circle cx="10" cy="-25" r="3.5" fill="#AB47BC"/><circle cx="-5" cy="-40" r="3.5" fill="#FF9800"/><circle cx="15" cy="-45" r="3.5" fill="#FF9800"/><circle cx="-10" cy="-60" r="3.5" fill="#AB47BC"/><circle cx="0" cy="-30" r="3.5" fill="#29B6F6"/><circle cx="20" cy="-15" r="3.5" fill="#AB47BC"/><circle cx="-25" cy="-12" r="3.5" fill="#AB47BC"/><polygon points="0,-95 3,-85 12,-85 5,-80 8,-70 0,-76 -8,-70 -5,-80 -12,-85 -3,-85" fill="#FFC107"/></g><g transform="translate(661,629) scale(1.0156717112429037)"><rect x="-6" y="-10" width="12" height="20" fill="#795548" rx="2"/><path d="M -40 -10 L 40 -10 L 0 -50 Z" fill="#2E7D32"/><path d="M -30 -30 L 30 -30 L 0 -70 Z" fill="#43A047"/><path d="M -20 -50 L 20 -50 L 0 -90 Z" fill="#4CAF50"/><circle cx="-15" cy="-20" r="3.5" fill="#FF9800"/><circle cx="10" cy="-25" r="3.5" fill="#F44336"/><circle cx="-5" cy="-40" r="3.5" fill="#F44336"/><circle cx="15" cy="-45" r="3.5" fill="#29B6F6"/><circle cx="-10" cy="-60" r="3.5" fill="#AB47BC"/><circle cx="0" cy="-30" r="3.5" fill="#29B6F6"/><circle cx="20" cy="-15" r="3.5" fill="#FF9800"/><circle cx="-25" cy="-12" r="3.5" fill="#FFEB3B"/><polygon points="0,-95 3,-85 12,-85 5,-80 8,-70 0,-76 -8,-70 -5,-80 -12,-85 -3,-85" fill="#FFC107"/></g><g transform="translate(606,581) scale(0.9872906595890265)"><rect x="-6" y="-10" width="12" height="20" fill="#795548" rx="2"/><path d="M -40 -10 L 40 -10 L 0 -50 Z" fill="#2E7D32"/><path d="M -30 -30 L 30 -30 L 0 -70 Z" fill="#43A047"/><path d="M -20 -50 L 20 -50 L 0 -90 Z" fill="#4CAF50"/><circle cx="-15" cy="-20" r="3.5" fill="#FF9800"/><circle cx="10" cy="-25" r="3.5" fill="#F44336"/><circle cx="-5" cy="-40" r="3.5" fill="#FFEB3B"/><circle cx="15" cy="-45" r="3.5" fill="#29B6F6"/><circle cx="-10" cy="-60" r="3.5" fill="#FF9800"/><circle cx="0" cy="-30" r="3.5" fill="#F44336"/><circle cx="20" cy="-15" r="3.5" fill="#F44336"/><circle cx="-25" cy="-12" r="3.5" fill="#FF9800"/><polygon points="0,-95 3,-85 12,-85 5,-80 8,-70 0,-76 -8,-70 -5,-80 -12,-85 -3,-85" fill="#FFC107"/></g><g transform="translate(805,636) scale(0.8104649512397036)"><rect x="-6" y="-10" width="12" height="20" fill="#795548" rx="2"/><path d="M -40 -10 L 40 -10 L 0 -50 Z" fill="#2E7D32"/><path d="M -30 -30 L 30 -30 L 0 -70 Z" fill="#43A047"/><path d="M -20 -50 L 20 -50 L 0 -90 Z" fill="#4CAF50"/><circle cx="-15" cy="-20" r="3.5" fill="#FF9800"/><circle cx="10" cy="-25" r="3.5" fill="#FFEB3B"/><circle cx="-5" cy="-40" r="3.5" fill="#F44336"/><circle cx="15" cy="-45" r="3.5" fill="#F44336"/><circle cx="-10" cy="-60" r="3.5" fill="#FFEB3B"/><circle cx="0" cy="-30" r="3.5" fill="#F44336"/><circle cx="20" cy="-15" r="3.5" fill="#FF9800"/><circle cx="-25" cy="-12" r="3.5" fill="#F44336"/><polygon points="0,-95 3,-85 12,-85 5,-80 8,-70 0,-76 -8,-70 -5,-80 -12,-85 -3,-85" fill="#FFC107"/></g><g transform="translate(1138,649) scale(1.1638947609651753)"><rect x="-6" y="-10" width="12" height="20" fill="#795548" rx="2"/><path d="M -40 -10 L 40 -10 L 0 -50 Z" fill="#2E7D32"/><path d="M -30 -30 L 30 -30 L 0 -70 Z" fill="#43A047"/><path d="M -20 -50 L 20 -50 L 0 -90 Z" fill="#4CAF50"/><circle cx="-15" cy="-20" r="3.5" fill="#AB47BC"/><circle cx="10" cy="-25" r="3.5" fill="#AB47BC"/><circle cx="-5" cy="-40" r="3.5" fill="#29B6F6"/><circle cx="15" cy="-45" r="3.5" fill="#FF9800"/><circle cx="-10" cy="-60" r="3.5" fill="#AB47BC"/><circle cx="0" cy="-30" r="3.5" fill="#F44336"/><circle cx="20" cy="-15" r="3.5" fill="#FFEB3B"/><circle cx="-25" cy="-12" r="3.5" fill="#FFEB3B"/><polygon points="0,-95 3,-85 12,-85 5,-80 8,-70 0,-76 -8,-70 -5,-80 -12,-85 -3,-85" fill="#FFC107"/></g><g transform="translate(747,607) scale(0.9915028920111884)"><rect x="-6" y="-10" width="12" height="20" fill="#795548" rx="2"/><path d="M -40 -10 L 40 -10 L 0 -50 Z" fill="#2E7D32"/><path d="M -30 -30 L 30 -30 L 0 -70 Z" fill="#43A047"/><path d="M -20 -50 L 20 -50 L 0 -90 Z" fill="#4CAF50"/><circle cx="-15" cy="-20" r="3.5" fill="#FFEB3B"/><circle cx="10" cy="-25" r="3.5" fill="#F44336"/><circle cx="-5" cy="-40" r="3.5" fill="#AB47BC"/><circle cx="15" cy="-45" r="3.5" fill="#F44336"/><circle cx="-10" cy="-60" r="3.5" fill="#F44336"/><circle cx="0" cy="-30" r="3.5" fill="#FF9800"/><circle cx="20" cy="-15" r="3.5" fill="#29B6F6"/><circle cx="-25" cy="-12" r="3.5" fill="#29B6F6"/><polygon points="0,-95 3,-85 12,-85 5,-80 8,-70 0,-76 -8,-70 -5,-80 -12,-85 -3,-85" fill="#FFC107"/></g><g transform="translate(522,589) scale(1.1027321435153563)"><rect x="-6" y="-10" width="12" height="20" fill="#795548" rx="2"/><path d="M -40 -10 L 40 -10 L 0 -50 Z" fill="#2E7D32"/><path d="M -30 -30 L 30 -30 L 0 -70 Z" fill="#43A047"/><path d="M -20 -50 L 20 -50 L 0 -90 Z" fill="#4CAF50"/><circle cx="-15" cy="-20" r="3.5" fill="#FFEB3B"/><circle cx="10" cy="-25" r="3.5" fill="#AB47BC"/><circle cx="-5" cy="-40" r="3.5" fill="#F44336"/><circle cx="15" cy="-45" r="3.5" fill="#29B6F6"/><circle cx="-10" cy="-60" r="3.5" fill="#29B6F6"/><circle cx="0" cy="-30" r="3.5" fill="#AB47BC"/><circle cx="20" cy="-15" r="3.5" fill="#29B6F6"/><circle cx="-25" cy="-12" r="3.5" fill="#AB47BC"/><polygon points="0,-95 3,-85 12,-85 5,-80 8,-70 0,-76 -8,-70 -5,-80 -12,-85 -3,-85" fill="#FFC107"/></g><g transform="translate(643,649) scale(1.043159309350248)"><rect x="-6" y="-10" width="12" height="20" fill="#795548" rx="2"/><path d="M -40 -10 L 40 -10 L 0 -50 Z" fill="#2E7D32"/><path d="M -30 -30 L 30 -30 L 0 -70 Z" fill="#43A047"/><path d="M -20 -50 L 20 -50 L 0 -90 Z" fill="#4CAF50"/><circle cx="-15" cy="-20" r="3.5" fill="#FFEB3B"/><circle cx="10" cy="-25" r="3.5" fill="#AB47BC"/><circle cx="-5" cy="-40" r="3.5" fill="#29B6F6"/><circle cx="15" cy="-45" r="3.5" fill="#AB47BC"/><circle cx="-10" cy="-60" r="3.5" fill="#29B6F6"/><circle cx="0" cy="-30" r="3.5" fill="#29B6F6"/><circle cx="20" cy="-15" r="3.5" fill="#FFEB3B"/><circle cx="-25" cy="-12" r="3.5" fill="#AB47BC"/><polygon points="0,-95 3,-85 12,-85 5,-80 8,-70 0,-76 -8,-70 -5,-80 -12,-85 -3,-85" fill="#FFC107"/></g><path d="M 0 700 Q 600 550 1200 750 T 1600 650 L 1600 900 L 0 900 Z" fill="url(#hill15)"/><g transform="translate(1056,736) scale(1.9235822031895315)"><circle cx="0" cy="-20" r="20" fill="#FFFFFF"/><circle cx="0" cy="-55" r="16" fill="#FFFFFF"/><circle cx="0" cy="-85" r="12" fill="#FFFFFF"/><rect x="-15" y="-95" width="30" height="4" fill="#212121" rx="2"/><rect x="-10" y="-115" width="20" height="20" fill="#212121"/><rect x="-10" y="-99" width="20" height="4" fill="#F44336"/><circle cx="-4" cy="-87" r="1.5" fill="#212121"/><circle cx="4" cy="-87" r="1.5" fill="#212121"/><path d="M 0 -83 L 15 -78 L 0 -77 Z" fill="#FF9800"/><path d="M -12 -70 Q 0 -65 12 -70 L 14 -60 Q 0 -55 -14 -60 Z" fill="#F44336"/><path d="M 8 -65 L 12 -45 L 6 -45 Z" fill="#F44336"/><circle cx="0" cy="-60" r="1.5" fill="#212121"/><circle cx="0" cy="-50" r="1.5" fill="#212121"/><circle cx="0" cy="-25" r="2" fill="#212121"/><circle cx="0" cy="-10" r="2" fill="#212121"/></g><g transform="translate(842,832) scale(2.038877800434385)"><circle cx="0" cy="-20" r="20" fill="#FFFFFF"/><circle cx="0" cy="-55" r="16" fill="#FFFFFF"/><circle cx="0" cy="-85" r="12" fill="#FFFFFF"/><rect x="-15" y="-95" width="30" height="4" fill="#212121" rx="2"/><rect x="-10" y="-115" width="20" height="20" fill="#212121"/><rect x="-10" y="-99" width="20" height="4" fill="#F44336"/><circle cx="-4" cy="-87" r="1.5" fill="#212121"/><circle cx="4" cy="-87" r="1.5" fill="#212121"/><path d="M 0 -83 L 15 -78 L 0 -77 Z" fill="#FF9800"/><path d="M -12 -70 Q 0 -65 12 -70 L 14 -60 Q 0 -55 -14 -60 Z" fill="#F44336"/><path d="M 8 -65 L 12 -45 L 6 -45 Z" fill="#F44336"/><circle cx="0" cy="-60" r="1.5" fill="#212121"/><circle cx="0" cy="-50" r="1.5" fill="#212121"/><circle cx="0" cy="-25" r="2" fill="#212121"/><circle cx="0" cy="-10" r="2" fill="#212121"/></g><g transform="translate(410,765) scale(1.9038655899667405)"><circle cx="0" cy="-20" r="20" fill="#FFFFFF"/><circle cx="0" cy="-55" r="16" fill="#FFFFFF"/><circle cx="0" cy="-85" r="12" fill="#FFFFFF"/><rect x="-15" y="-95" width="30" height="4" fill="#212121" rx="2"/><rect x="-10" y="-115" width="20" height="20" fill="#212121"/><rect x="-10" y="-99" width="20" height="4" fill="#F44336"/><circle cx="-4" cy="-87" r="1.5" fill="#212121"/><circle cx="4" cy="-87" r="1.5" fill="#212121"/><path d="M 0 -83 L 15 -78 L 0 -77 Z" fill="#FF9800"/><path d="M -12 -70 Q 0 -65 12 -70 L 14 -60 Q 0 -55 -14 -60 Z" fill="#F44336"/><path d="M 8 -65 L 12 -45 L 6 -45 Z" fill="#F44336"/><circle cx="0" cy="-60" r="1.5" fill="#212121"/><circle cx="0" cy="-50" r="1.5" fill="#212121"/><circle cx="0" cy="-25" r="2" fill="#212121"/><circle cx="0" cy="-10" r="2" fill="#212121"/></g><g transform="translate(858,769) scale(1.731453882348213)"><rect x="-6" y="-10" width="12" height="20" fill="#795548" rx="2"/><path d="M -40 -10 L 40 -10 L 0 -50 Z" fill="#2E7D32"/><path d="M -30 -30 L 30 -30 L 0 -70 Z" fill="#43A047"/><path d="M -20 -50 L 20 -50 L 0 -90 Z" fill="#4CAF50"/><circle cx="-15" cy="-20" r="3.5" fill="#F44336"/><circle cx="10" cy="-25" r="3.5" fill="#F44336"/><circle cx="-5" cy="-40" r="3.5" fill="#FF9800"/><circle cx="15" cy="-45" r="3.5" fill="#FF9800"/><circle cx="-10" cy="-60" r="3.5" fill="#AB47BC"/><circle cx="0" cy="-30" r="3.5" fill="#FF9800"/><circle cx="20" cy="-15" r="3.5" fill="#FF9800"/><circle cx="-25" cy="-12" r="3.5" fill="#FF9800"/><polygon points="0,-95 3,-85 12,-85 5,-80 8,-70 0,-76 -8,-70 -5,-80 -12,-85 -3,-85" fill="#FFC107"/></g><g transform="translate(1051,711) scale(2.4830518563079975)"><rect x="-6" y="-10" width="12" height="20" fill="#795548" rx="2"/><path d="M -40 -10 L 40 -10 L 0 -50 Z" fill="#2E7D32"/><path d="M -30 -30 L 30 -30 L 0 -70 Z" fill="#43A047"/><path d="M -20 -50 L 20 -50 L 0 -90 Z" fill="#4CAF50"/><circle cx="-15" cy="-20" r="3.5" fill="#F44336"/><circle cx="10" cy="-25" r="3.5" fill="#FF9800"/><circle cx="-5" cy="-40" r="3.5" fill="#F44336"/><circle cx="15" cy="-45" r="3.5" fill="#AB47BC"/><circle cx="-10" cy="-60" r="3.5" fill="#29B6F6"/><circle cx="0" cy="-30" r="3.5" fill="#FF9800"/><circle cx="20" cy="-15" r="3.5" fill="#AB47BC"/><circle cx="-25" cy="-12" r="3.5" fill="#FF9800"/><polygon points="0,-95 3,-85 12,-85 5,-80 8,-70 0,-76 -8,-70 -5,-80 -12,-85 -3,-85" fill="#FFC107"/></g><g transform="translate(368,708) scale(2.0303183269727167)"><rect x="-6" y="-10" width="12" height="20" fill="#795548" rx="2"/><path d="M -40 -10 L 40 -10 L 0 -50 Z" fill="#2E7D32"/><path d="M -30 -30 L 30 -30 L 0 -70 Z" fill="#43A047"/><path d="M -20 -50 L 20 -50 L 0 -90 Z" fill="#4CAF50"/><circle cx="-15" cy="-20" r="3.5" fill="#F44336"/><circle cx="10" cy="-25" r="3.5" fill="#AB47BC"/><circle cx="-5" cy="-40" r="3.5" fill="#29B6F6"/><circle cx="15" cy="-45" r="3.5" fill="#F44336"/><circle cx="-10" cy="-60" r="3.5" fill="#29B6F6"/><circle cx="0" cy="-30" r="3.5" fill="#29B6F6"/><circle cx="20" cy="-15" r="3.5" fill="#AB47BC"/><circle cx="-25" cy="-12" r="3.5" fill="#29B6F6"/><polygon points="0,-95 3,-85 12,-85 5,-80 8,-70 0,-76 -8,-70 -5,-80 -12,-85 -3,-85" fill="#FFC107"/></g><g transform="translate(1395,732) scale(2.2506866719443477)"><rect x="-6" y="-10" width="12" height="20" fill="#795548" rx="2"/><path d="M -40 -10 L 40 -10 L 0 -50 Z" fill="#2E7D32"/><path d="M -30 -30 L 30 -30 L 0 -70 Z" fill="#43A047"/><path d="M -20 -50 L 20 -50 L 0 -90 Z" fill="#4CAF50"/><circle cx="-15" cy="-20" r="3.5" fill="#AB47BC"/><circle cx="10" cy="-25" r="3.5" fill="#F44336"/><circle cx="-5" cy="-40" r="3.5" fill="#FF9800"/><circle cx="15" cy="-45" r="3.5" fill="#FFEB3B"/><circle cx="-10" cy="-60" r="3.5" fill="#29B6F6"/><circle cx="0" cy="-30" r="3.5" fill="#AB47BC"/><circle cx="20" cy="-15" r="3.5" fill="#FFEB3B"/><circle cx="-25" cy="-12" r="3.5" fill="#29B6F6"/><polygon points="0,-95 3,-85 12,-85 5,-80 8,-70 0,-76 -8,-70 -5,-80 -12,-85 -3,-85" fill="#FFC107"/></g><g transform="translate(309,792) scale(2.0902023641368164)"><rect x="-6" y="-10" width="12" height="20" fill="#795548" rx="2"/><path d="M -40 -10 L 40 -10 L 0 -50 Z" fill="#2E7D32"/><path d="M -30 -30 L 30 -30 L 0 -70 Z" fill="#43A047"/><path d="M -20 -50 L 20 -50 L 0 -90 Z" fill="#4CAF50"/><circle cx="-15" cy="-20" r="3.5" fill="#FFEB3B"/><circle cx="10" cy="-25" r="3.5" fill="#FF9800"/><circle cx="-5" cy="-40" r="3.5" fill="#FFEB3B"/><circle cx="15" cy="-45" r="3.5" fill="#AB47BC"/><circle cx="-10" cy="-60" r="3.5" fill="#AB47BC"/><circle cx="0" cy="-30" r="3.5" fill="#AB47BC"/><circle cx="20" cy="-15" r="3.5" fill="#29B6F6"/><circle cx="-25" cy="-12" r="3.5" fill="#29B6F6"/><polygon points="0,-95 3,-85 12,-85 5,-80 8,-70 0,-76 -8,-70 -5,-80 -12,-85 -3,-85" fill="#FFC107"/></g><g transform="translate(1075,727) scale(2.126764801699626)"><rect x="-6" y="-10" width="12" height="20" fill="#795548" rx="2"/><path d="M -40 -10 L 40 -10 L 0 -50 Z" fill="#2E7D32"/><path d="M -30 -30 L 30 -30 L 0 -70 Z" fill="#43A047"/><path d="M -20 -50 L 20 -50 L 0 -90 Z" fill="#4CAF50"/><circle cx="-15" cy="-20" r="3.5" fill="#29B6F6"/><circle cx="10" cy="-25" r="3.5" fill="#AB47BC"/><circle cx="-5" cy="-40" r="3.5" fill="#F44336"/><circle cx="15" cy="-45" r="3.5" fill="#FFEB3B"/><circle cx="-10" cy="-60" r="3.5" fill="#FFEB3B"/><circle cx="0" cy="-30" r="3.5" fill="#FFEB3B"/><circle cx="20" cy="-15" r="3.5" fill="#29B6F6"/><circle cx="-25" cy="-12" r="3.5" fill="#29B6F6"/><polygon points="0,-95 3,-85 12,-85 5,-80 8,-70 0,-76 -8,-70 -5,-80 -12,-85 -3,-85" fill="#FFC107"/></g><g transform="translate(296,829) scale(1.3836234101883909)"><rect x="-15" y="-30" width="30" height="30" fill="#9C27B0" rx="2"/><rect x="-4" y="-30" width="8" height="30" fill="#00E676"/><rect x="-15" y="-19" width="30" height="8" fill="#00E676"/><path d="M -2 -30 C -15 -45 0 -45 0 -30 Z" fill="#00E676"/><path d="M 2 -30 C 15 -45 0 -45 0 -30 Z" fill="#00E676"/></g><g transform="translate(1188,785) scale(1.0508271267990312) rotate(-6)"><path d="M 0 0 L 0 -30 A 10 10 0 0 1 20 -30 L 20 -20" fill="none" stroke="#FFFFFF" stroke-width="8" stroke-linecap="round"/><path d="M 0 -5 L 0 -15" stroke="#F44336" stroke-width="8"/><path d="M 0 -25 A 10 10 0 0 1 10 -40" stroke="#F44336" stroke-width="8" fill="none"/><path d="M 20 -30 L 20 -25" stroke="#F44336" stroke-width="8"/></g><g transform="translate(983,763) scale(0.9946260108706974)"><rect x="-15" y="-30" width="30" height="30" fill="#2196F3" rx="2"/><rect x="-4" y="-30" width="8" height="30" fill="#F44336"/><rect x="-15" y="-19" width="30" height="8" fill="#F44336"/><path d="M -2 -30 C -15 -45 0 -45 0 -30 Z" fill="#F44336"/><path d="M 2 -30 C 15 -45 0 -45 0 -30 Z" fill="#F44336"/></g><g transform="translate(941,843) scale(1.458354880045761) rotate(10)"><path d="M 0 0 L 0 -30 A 10 10 0 0 1 20 -30 L 20 -20" fill="none" stroke="#FFFFFF" stroke-width="8" stroke-linecap="round"/><path d="M 0 -5 L 0 -15" stroke="#F44336" stroke-width="8"/><path d="M 0 -25 A 10 10 0 0 1 10 -40" stroke="#F44336" stroke-width="8" fill="none"/><path d="M 20 -30 L 20 -25" stroke="#F44336" stroke-width="8"/></g><g transform="translate(644,787) scale(1.1401947849662344)"><rect x="-15" y="-30" width="30" height="30" fill="#9C27B0" rx="2"/><rect x="-4" y="-30" width="8" height="30" fill="#00E676"/><rect x="-15" y="-19" width="30" height="8" fill="#00E676"/><path d="M -2 -30 C -15 -45 0 -45 0 -30 Z" fill="#00E676"/><path d="M 2 -30 C 15 -45 0 -45 0 -30 Z" fill="#00E676"/></g><g transform="translate(369,797) scale(1.4601068483308726) rotate(-16)"><path d="M 0 0 L 0 -30 A 10 10 0 0 1 20 -30 L 20 -20" fill="none" stroke="#FFFFFF" stroke-width="8" stroke-linecap="round"/><path d="M 0 -5 L 0 -15" stroke="#F44336" stroke-width="8"/><path d="M 0 -25 A 10 10 0 0 1 10 -40" stroke="#F44336" stroke-width="8" fill="none"/><path d="M 20 -30 L 20 -25" stroke="#F44336" stroke-width="8"/></g><g transform="translate(886,780) scale(1.0771826981683348)"><rect x="-15" y="-30" width="30" height="30" fill="#F44336" rx="2"/><rect x="-4" y="-30" width="8" height="30" fill="#FFEB3B"/><rect x="-15" y="-19" width="30" height="8" fill="#FFEB3B"/><path d="M -2 -30 C -15 -45 0 -45 0 -30 Z" fill="#FFEB3B"/><path d="M 2 -30 C 15 -45 0 -45 0 -30 Z" fill="#FFEB3B"/></g><g transform="translate(993,763) scale(1.4996388484272059) rotate(-14)"><path d="M 0 0 L 0 -30 A 10 10 0 0 1 20 -30 L 20 -20" fill="none" stroke="#FFFFFF" stroke-width="8" stroke-linecap="round"/><path d="M 0 -5 L 0 -15" stroke="#F44336" stroke-width="8"/><path d="M 0 -25 A 10 10 0 0 1 10 -40" stroke="#F44336" stroke-width="8" fill="none"/><path d="M 20 -30 L 20 -25" stroke="#F44336" stroke-width="8"/></g><g transform="translate(1460,837) scale(0.954128594523336)"><rect x="-15" y="-30" width="30" height="30" fill="#2196F3" rx="2"/><rect x="-4" y="-30" width="8" height="30" fill="#F44336"/><rect x="-15" y="-19" width="30" height="8" fill="#F44336"/><path d="M -2 -30 C -15 -45 0 -45 0 -30 Z" fill="#F44336"/><path d="M 2 -30 C 15 -45 0 -45 0 -30 Z" fill="#F44336"/></g><g transform="translate(555,848) scale(1.2824700216557237) rotate(17)"><path d="M 0 0 L 0 -30 A 10 10 0 0 1 20 -30 L 20 -20" fill="none" stroke="#FFFFFF" stroke-width="8" stroke-linecap="round"/><path d="M 0 -5 L 0 -15" stroke="#F44336" stroke-width="8"/><path d="M 0 -25 A 10 10 0 0 1 10 -40" stroke="#F44336" stroke-width="8" fill="none"/><path d="M 20 -30 L 20 -25" stroke="#F44336" stroke-width="8"/></g><circle cx="365" cy="859" r="4.9576914649183434" fill="#FFFFFF" opacity="0.682879153405438"/><circle cx="315" cy="531" r="3.788904394136574" fill="#FFFFFF" opacity="0.8852995476027574"/><circle cx="1266" cy="95" r="4.923771950388147" fill="#FFFFFF" opacity="0.6153421740272164"/><circle cx="1426" cy="538" r="2.6853189264359862" fill="#FFFFFF" opacity="0.5078678153112925"/><circle cx="1119" cy="2" r="2.5691936228841343" fill="#FFFFFF" opacity="0.7043130658404388"/><circle cx="1307" cy="509" r="5.940992026342276" fill="#FFFFFF" opacity="0.7214891375526302"/><circle cx="209" cy="719" r="2.965943988835255" fill="#FFFFFF" opacity="0.7020032849967748"/><circle cx="1535" cy="867" r="2.141879509414332" fill="#FFFFFF" opacity="0.6615088971479489"/><circle cx="656" cy="313" r="5.867789855212349" fill="#FFFFFF" opacity="0.5475720589532835"/><circle cx="278" cy="157" r="5.98102521168264" fill="#FFFFFF" opacity="0.7922041019452907"/><circle cx="251" cy="222" r="4.89819922792039" fill="#FFFFFF" opacity="0.8328797523570206"/><circle cx="1284" cy="612" r="5.55875828643672" fill="#FFFFFF" opacity="0.7604960040903866"/><circle cx="1329" cy="586" r="5.067838632887193" fill="#FFFFFF" opacity="0.7991647196506049"/><circle cx="286" cy="60" r="5.598437057669942" fill="#FFFFFF" opacity="0.8213735124959833"/><circle cx="534" cy="736" r="2.1597634324504034" fill="#FFFFFF" opacity="0.6169064539385078"/><circle cx="1137" cy="759" r="3.1135406358001405" fill="#FFFFFF" opacity="0.5009898969900942"/><circle cx="72" cy="167" r="4.427414299842562" fill="#FFFFFF" opacity="0.5481854327962099"/><circle cx="1294" cy="754" r="4.372802775252319" fill="#FFFFFF" opacity="0.862726563595581"/><circle cx="887" cy="526" r="2.00041265853041" fill="#FFFFFF" opacity="0.5830462946001801"/><circle cx="1588" cy="75" r="4.730601832137057" fill="#FFFFFF" opacity="0.7892378711734969"/><circle cx="1391" cy="477" r="4.852492550969846" fill="#FFFFFF" opacity="0.6633694319967308"/><circle cx="1590" cy="429" r="5.989453985825191" fill="#FFFFFF" opacity="0.6893917639244819"/><circle cx="872" cy="354" r="2.8758050829975996" fill="#FFFFFF" opacity="0.7425135837499952"/><circle cx="361" cy="552" r="5.122520548520666" fill="#FFFFFF" opacity="0.651215984878615"/><circle cx="1436" cy="1" r="2.823505954049949" fill="#FFFFFF" opacity="0.7613789305022711"/><circle cx="33" cy="335" r="3.1584132255542303" fill="#FFFFFF" opacity="0.6385495976728769"/><circle cx="349" cy="69" r="5.359307601753326" fill="#FFFFFF" opacity="0.5830365406607654"/><circle cx="60" cy="854" r="2.1788699217671006" fill="#FFFFFF" opacity="0.7555988217861989"/><circle cx="1201" cy="232" r="5.822517128837336" fill="#FFFFFF" opacity="0.8088302453518085"/><circle cx="779" cy="709" r="4.109247903661989" fill="#FFFFFF" opacity="0.6613085806850523"/><circle cx="1338" cy="4" r="3.22344776365876" fill="#FFFFFF" opacity="0.5838325468312202"/><circle cx="729" cy="417" r="5.4151224318506115" fill="#FFFFFF" opacity="0.5775033717620316"/><circle cx="755" cy="471" r="2.12784184120547" fill="#FFFFFF" opacity="0.7035970119583987"/><circle cx="1434" cy="295" r="5.575473390875436" fill="#FFFFFF" opacity="0.6451729843917552"/><circle cx="696" cy="206" r="2.746124712675922" fill="#FFFFFF" opacity="0.578188966107656"/><circle cx="752" cy="118" r="4.70456633595643" fill="#FFFFFF" opacity="0.8112420115812979"/><circle cx="553" cy="277" r="3.165362387075994" fill="#FFFFFF" opacity="0.5451741570633796"/><circle cx="1066" cy="365" r="2.5562133192381067" fill="#FFFFFF" opacity="0.6626545577601374"/><circle cx="881" cy="541" r="5.36183725274209" fill="#FFFFFF" opacity="0.5882654917072394"/><circle cx="737" cy="794" r="4.9977326446386945" fill="#FFFFFF" opacity="0.8455670784206835"/><circle cx="1402" cy="604" r="3.417813972436328" fill="#FFFFFF" opacity="0.6427399542856542"/><circle cx="288" cy="728" r="3.6773556608026006" fill="#FFFFFF" opacity="0.8384570030449601"/><circle cx="1127" cy="644" r="3.1768256086174183" fill="#FFFFFF" opacity="0.7185465899614603"/><circle cx="617" cy="520" r="5.730878668047735" fill="#FFFFFF" opacity="0.6292198652243778"/><circle cx="825" cy="248" r="5.286291628340439" fill="#FFFFFF" opacity="0.648128289148913"/><circle cx="628" cy="676" r="5.869656704655676" fill="#FFFFFF" opacity="0.7985145034656422"/><circle cx="1264" cy="6" r="4.549735682837433" fill="#FFFFFF" opacity="0.8918764272311577"/><circle cx="519" cy="58" r="2.879893632036938" fill="#FFFFFF" opacity="0.5612678685765297"/><circle cx="1123" cy="380" r="3.575385887083381" fill="#FFFFFF" opacity="0.5803874336992234"/><circle cx="899" cy="564" r="3.981868210115349" fill="#FFFFFF" opacity="0.6358777892463306"/><circle cx="581" cy="769" r="2.5814994876551425" fill="#FFFFFF" opacity="0.7595599686577916"/><circle cx="312" cy="479" r="3.7695706452171893" fill="#FFFFFF" opacity="0.6500626727324307"/><circle cx="771" cy="129" r="4.5852108105796106" fill="#FFFFFF" opacity="0.5711758352394252"/><circle cx="1278" cy="63" r="3.9380752569201296" fill="#FFFFFF" opacity="0.6458982350816744"/><circle cx="48" cy="124" r="3.4912802253192834" fill="#FFFFFF" opacity="0.6912572283994562"/><circle cx="260" cy="518" r="3.298257260423325" fill="#FFFFFF" opacity="0.6255904856900074"/><circle cx="770" cy="342" r="5.5799146021223205" fill="#FFFFFF" opacity="0.7981583627551609"/><circle cx="908" cy="274" r="5.223079637367037" fill="#FFFFFF" opacity="0.8184804680118647"/><circle cx="1273" cy="133" r="2.9684866652903956" fill="#FFFFFF" opacity="0.6000082877475243"/><circle cx="1025" cy="552" r="3.7542870983345824" fill="#FFFFFF" opacity="0.7366164955062249"/><circle cx="1490" cy="737" r="5.876198503461131" fill="#FFFFFF" opacity="0.6563423943014652"/><circle cx="943" cy="745" r="5.226442518972728" fill="#FFFFFF" opacity="0.767358686748083"/><circle cx="752" cy="123" r="3.906510239087077" fill="#FFFFFF" opacity="0.6381011807113001"/><circle cx="989" cy="788" r="3.4160813551243123" fill="#FFFFFF" opacity="0.682132422886905"/><circle cx="886" cy="571" r="3.649133741308395" fill="#FFFFFF" opacity="0.5036338908444847"/><circle cx="388" cy="648" r="3.8837704831413378" fill="#FFFFFF" opacity="0.5507272433901029"/><circle cx="1154" cy="861" r="2.0592652106745533" fill="#FFFFFF" opacity="0.5867397911074617"/><circle cx="1496" cy="100" r="3.568625594914107" fill="#FFFFFF" opacity="0.727822459665676"/><circle cx="1060" cy="311" r="2.8328187371364955" fill="#FFFFFF" opacity="0.5409208344763982"/><circle cx="1305" cy="765" r="5.475241372586634" fill="#FFFFFF" opacity="0.7785386562935763"/><circle cx="1258" cy="530" r="5.588506186930516" fill="#FFFFFF" opacity="0.5234208145011886"/><circle cx="797" cy="702" r="3.888778156188024" fill="#FFFFFF" opacity="0.7040182282724432"/><circle cx="777" cy="653" r="5.411187577094653" fill="#FFFFFF" opacity="0.7236680941738195"/><circle cx="821" cy="364" r="3.158371506585665" fill="#FFFFFF" opacity="0.6954277570925036"/><circle cx="1170" cy="863" r="5.485909508460354" fill="#FFFFFF" opacity="0.8066002200088125"/><circle cx="1544" cy="654" r="3.3306496592741093" fill="#FFFFFF" opacity="0.6211466420699389"/><circle cx="1010" cy="733" r="3.718258478048186" fill="#FFFFFF" opacity="0.5427148451780961"/><circle cx="934" cy="471" r="2.1081933435722924" fill="#FFFFFF" opacity="0.6616551341626801"/><circle cx="743" cy="885" r="5.427614605844279" fill="#FFFFFF" opacity="0.5489657078729354"/><circle cx="1273" cy="581" r="2.390843167132006" fill="#FFFFFF" opacity="0.7797832207457698"/><circle cx="1564" cy="402" r="5.755401702668442" fill="#FFFFFF" opacity="0.7023723911751101"/><circle cx="377" cy="604" r="2.568019278692162" fill="#FFFFFF" opacity="0.8731514718420664"/><circle cx="907" cy="301" r="3.8302000112189383" fill="#FFFFFF" opacity="0.6253107001313662"/><circle cx="132" cy="792" r="2.2721413132702444" fill="#FFFFFF" opacity="0.7484149627819114"/><circle cx="380" cy="636" r="2.0563384168121197" fill="#FFFFFF" opacity="0.6178673614375141"/><circle cx="1035" cy="631" r="4.826585324341593" fill="#FFFFFF" opacity="0.8179387622371199"/><circle cx="232" cy="609" r="3.2586858121871973" fill="#FFFFFF" opacity="0.7040202898556414"/><circle cx="1279" cy="10" r="4.241568254310252" fill="#FFFFFF" opacity="0.544206978540456"/><circle cx="993" cy="608" r="4.644058560988016" fill="#FFFFFF" opacity="0.8885382749424435"/><circle cx="311" cy="511" r="5.612230259529133" fill="#FFFFFF" opacity="0.7197417504302275"/><circle cx="184" cy="424" r="2.561033772058596" fill="#FFFFFF" opacity="0.7217332467533604"/><circle cx="263" cy="165" r="5.802168361637147" fill="#FFFFFF" opacity="0.5771746221765456"/><circle cx="1586" cy="444" r="2.630397733345286" fill="#FFFFFF" opacity="0.560146187341262"/><circle cx="23" cy="826" r="2.1167162289892105" fill="#FFFFFF" opacity="0.8599945579326107"/><circle cx="958" cy="414" r="4.2404841894209" fill="#FFFFFF" opacity="0.6340437056312912"/><circle cx="443" cy="446" r="2.311083087023202" fill="#FFFFFF" opacity="0.8803613649175184"/><circle cx="226" cy="877" r="4.212559821201932" fill="#FFFFFF" opacity="0.6099752909128442"/><circle cx="635" cy="593" r="3.4276148404298796" fill="#FFFFFF" opacity="0.6611058746646314"/><circle cx="1194" cy="425" r="5.190867497078271" fill="#FFFFFF" opacity="0.7323230709643289"/><circle cx="819" cy="124" r="4.12196682102342" fill="#FFFFFF" opacity="0.6841811269262918"/><circle cx="1597" cy="383" r="2.4756415917096533" fill="#FFFFFF" opacity="0.6539920222277226"/><circle cx="649" cy="565" r="4.8804606847769385" fill="#FFFFFF" opacity="0.8036200666248272"/><circle cx="356" cy="86" r="3.0025407818367778" fill="#FFFFFF" opacity="0.8601532394593319"/><circle cx="1504" cy="346" r="4.754981327484966" fill="#FFFFFF" opacity="0.7101188136029682"/><circle cx="1516" cy="366" r="3.492337434364696" fill="#FFFFFF" opacity="0.5522901078526328"/><circle cx="1422" cy="589" r="4.6230126536334755" fill="#FFFFFF" opacity="0.5028117923227347"/><circle cx="999" cy="686" r="2.511958634192953" fill="#FFFFFF" opacity="0.7376028150949986"/><circle cx="1041" cy="579" r="4.64908885026214" fill="#FFFFFF" opacity="0.566611692111381"/><circle cx="129" cy="610" r="3.116008361295385" fill="#FFFFFF" opacity="0.5726028725133336"/><circle cx="174" cy="114" r="5.128601431331893" fill="#FFFFFF" opacity="0.7354098450294896"/><circle cx="1119" cy="277" r="2.921592467845356" fill="#FFFFFF" opacity="0.7410277997472434"/><circle cx="385" cy="6" r="3.7895814728730333" fill="#FFFFFF" opacity="0.6567389574535907"/><circle cx="1367" cy="756" r="4.031772239081345" fill="#FFFFFF" opacity="0.534067731529605"/><circle cx="58" cy="764" r="5.815135167744653" fill="#FFFFFF" opacity="0.6078346579011975"/><circle cx="597" cy="639" r="5.918537131772352" fill="#FFFFFF" opacity="0.8552146147700486"/><circle cx="1077" cy="313" r="4.284640590244853" fill="#FFFFFF" opacity="0.6770665109523776"/><circle cx="1433" cy="85" r="4.1051900063174465" fill="#FFFFFF" opacity="0.6583865336181078"/><circle cx="1273" cy="760" r="5.747557346827034" fill="#FFFFFF" opacity="0.7236009325299566"/><circle cx="1151" cy="457" r="5.955836888700887" fill="#FFFFFF" opacity="0.7616911436425131"/><circle cx="1281" cy="305" r="4.200845089739268" fill="#FFFFFF" opacity="0.7475872074418725"/><circle cx="926" cy="524" r="2.6279455362613753" fill="#FFFFFF" opacity="0.5277425795440784"/><circle cx="4" cy="336" r="4.94926246264854" fill="#FFFFFF" opacity="0.8172523054737667"/><circle cx="331" cy="245" r="5.131474111698729" fill="#FFFFFF" opacity="0.6064120007894005"/><circle cx="483" cy="249" r="3.99189414894319" fill="#FFFFFF" opacity="0.6160616114110893"/><circle cx="924" cy="32" r="4.610314098142487" fill="#FFFFFF" opacity="0.815562147519504"/><circle cx="339" cy="884" r="2.6703287785356142" fill="#FFFFFF" opacity="0.6354426676273222"/><circle cx="950" cy="163" r="3.025315656039372" fill="#FFFFFF" opacity="0.7294220018043664"/><circle cx="36" cy="193" r="3.7417743515211908" fill="#FFFFFF" opacity="0.8642736635576465"/><circle cx="1328" cy="206" r="4.575911533445014" fill="#FFFFFF" opacity="0.8018933345512582"/><circle cx="536" cy="394" r="5.796707948421698" fill="#FFFFFF" opacity="0.8189002635771412"/><circle cx="305" cy="802" r="4.008520517559876" fill="#FFFFFF" opacity="0.5557272924983918"/><circle cx="1030" cy="98" r="3.8412223645587047" fill="#FFFFFF" opacity="0.6472076688764145"/><circle cx="1398" cy="622" r="2.113516102167829" fill="#FFFFFF" opacity="0.8231655817889003"/><circle cx="1557" cy="301" r="2.3776738743733308" fill="#FFFFFF" opacity="0.8659563551048939"/><circle cx="1334" cy="335" r="2.813857838368629" fill="#FFFFFF" opacity="0.656523018780306"/><circle cx="1475" cy="50" r="5.402040766986212" fill="#FFFFFF" opacity="0.6032307958807348"/><circle cx="1557" cy="330" r="2.8142186317690334" fill="#FFFFFF" opacity="0.5418592158198647"/><circle cx="668" cy="329" r="5.900397147378218" fill="#FFFFFF" opacity="0.611586297889367"/><circle cx="1433" cy="539" r="3.026759606881619" fill="#FFFFFF" opacity="0.6919103900831219"/><circle cx="419" cy="670" r="2.1759539658725764" fill="#FFFFFF" opacity="0.542555528208362"/><circle cx="393" cy="766" r="2.5008621607414634" fill="#FFFFFF" opacity="0.6640451754144762"/><circle cx="325" cy="682" r="5.152746645839306" fill="#FFFFFF" opacity="0.5310456693767601"/><circle cx="774" cy="752" r="4.9943253119983915" fill="#FFFFFF" opacity="0.7720856814181007"/><circle cx="1334" cy="125" r="4.250334778637869" fill="#FFFFFF" opacity="0.8111767625815923"/><circle cx="1548" cy="369" r="2.477970121498996" fill="#FFFFFF" opacity="0.6358348252449796"/><circle cx="841" cy="604" r="3.1128957446127234" fill="#FFFFFF" opacity="0.802881232118233"/><circle cx="1459" cy="801" r="2.4332788065316233" fill="#FFFFFF" opacity="0.5446675755216133"/><circle cx="1459" cy="510" r="3.983854015893436" fill="#FFFFFF" opacity="0.7960858267896234"/><circle cx="366" cy="38" r="4.9992783769648295" fill="#FFFFFF" opacity="0.7584914329871997"/><circle cx="369" cy="483" r="5.816942228177866" fill="#FFFFFF" opacity="0.8315683181819203"/></svg>