<svg xmlns="http://www.w3.org/2000/svg" viewBox="0 0 1600 1000" preserveAspectRatio="xMidYMid slice">
  <defs>
    <linearGradient id="g" x1="0" y1="0" x2="1" y2="1">
      <stop offset="0" stop-color="#2a1320"/>
      <stop offset=".58" stop-color="#4a2938"/>
      <stop offset="1" stop-color="#2a1320"/>
    </linearGradient>
    <radialGradient id="warm" cx=".18" cy=".12" r=".62">
      <stop offset="0" stop-color="#ffd580" stop-opacity=".32"/>
      <stop offset="1" stop-color="#ffd580" stop-opacity="0"/>
    </radialGradient>
    <radialGradient id="cool" cx=".86" cy=".24" r=".58">
      <stop offset="0" stop-color="#96e69b" stop-opacity=".24"/>
      <stop offset="1" stop-color="#96e69b" stop-opacity="0"/>
    </radialGradient>
  </defs>
  <rect width="1600" height="1000" fill="url(#g)"/>
  <rect width="1600" height="1000" fill="url(#warm)"/>
  <rect width="1600" height="1000" fill="url(#cool)"/>
  <circle cx="1280" cy="820" r="360" fill="#ffffff" opacity=".06"/>
  <circle cx="130" cy="930" r="310" fill="#ffffff" opacity=".05"/>
  <circle cx="1150" cy="210" r="116" fill="#96e69b" opacity="0.20"/>
<circle cx="794" cy="470" r="107" fill="#96e69b" opacity="0.11"/>
<circle cx="1372" cy="1013" r="135" fill="#ffd580" opacity="0.21"/>
<circle cx="243" cy="495" r="190" fill="#f06776" opacity="0.09"/>
<circle cx="1567" cy="-39" r="114" fill="#96e69b" opacity="0.13"/>
<circle cx="721" cy="768" r="231" fill="#ffd580" opacity="0.17"/>
<circle cx="354" cy="16" r="96" fill="#f06776" opacity="0.11"/>
<circle cx="-25" cy="1008" r="133" fill="#96e69b" opacity="0.16"/>
<circle cx="1620" cy="951" r="88" fill="#f06776" opacity="0.14"/>
<circle cx="1053" cy="726" r="158" fill="#ffd580" opacity="0.17"/>
<circle cx="616" cy="462" r="192" fill="#ffd580" opacity="0.18"/>
<circle cx="708" cy="146" r="145" fill="#96e69b" opacity="0.12"/>
<circle cx="210" cy="-40" r="185" fill="#96e69b" opacity="0.09"/>
<circle cx="533" cy="833" r="211" fill="#ffd580" opacity="0.14"/>
<circle cx="1056" cy="490" r="128" fill="#ffd580" opacity="0.10"/>
<circle cx="788" cy="-13" r="228" fill="#ffd580" opacity="0.08"/>
    <pattern id="plaid" width="96" height="96" patternUnits="userSpaceOnUse">
      <rect width="96" height="96" fill="transparent"/>
      <path d="M0 24H96 M0 72H96 M24 0V96 M72 0V96" stroke="#ffd580" stroke-width="2" opacity=".18"/>
      <path d="M0 48H96 M48 0V96" stroke="#96e69b" stroke-width="8" opacity=".06"/>
    </pattern>
    <rect width="1600" height="1000" fill="url(#plaid)" opacity=".9"/><path d="M-101 1047 L-31 644 L39 1047 Z" fill="#071f18" opacity="0.21"/>
<path d="M-81 967 L-31 604 L19 967 Z" fill="#071f18" opacity="0.26"/>
<path d="M100 1010 L170 763 L240 1010 Z" fill="#071f18" opacity="0.42"/>
<path d="M120 930 L170 723 L220 930 Z" fill="#071f18" opacity="0.47"/>
<path d="M289 1074 L359 748 L429 1074 Z" fill="#071f18" opacity="0.45"/>
<path d="M309 994 L359 708 L409 994 Z" fill="#071f18" opacity="0.50"/>
<path d="M449 1023 L519 790 L589 1023 Z" fill="#071f18" opacity="0.39"/>
<path d="M469 943 L519 750 L569 943 Z" fill="#071f18" opacity="0.44"/>
<path d="M634 1080 L704 875 L774 1080 Z" fill="#071f18" opacity="0.41"/>
<path d="M654 1000 L704 835 L754 1000 Z" fill="#071f18" opacity="0.46"/>
<path d="M860 1068 L930 827 L1000 1068 Z" fill="#071f18" opacity="0.44"/>
<path d="M880 988 L930 787 L980 988 Z" fill="#071f18" opacity="0.49"/>
<path d="M1023 1025 L1093 670 L1163 1025 Z" fill="#071f18" opacity="0.25"/>
<path d="M1043 945 L1093 630 L1143 945 Z" fill="#071f18" opacity="0.30"/>
<path d="M1249 1052 L1319 823 L1389 1052 Z" fill="#071f18" opacity="0.45"/>
<path d="M1269 972 L1319 783 L1369 972 Z" fill="#071f18" opacity="0.50"/>
<path d="M1419 982 L1489 668 L1559 982 Z" fill="#071f18" opacity="0.43"/>
<path d="M1439 902 L1489 628 L1539 902 Z" fill="#071f18" opacity="0.48"/>
<path d="M1622 986 L1692 734 L1762 986 Z" fill="#071f18" opacity="0.20"/>
<path d="M1642 906 L1692 694 L1742 906 Z" fill="#071f18" opacity="0.25"/><circle cx="1595" cy="110" r="1.1" fill="#fff" opacity="0.31"/>
<circle cx="59" cy="493" r="1.1" fill="#fff" opacity="0.51"/>
<circle cx="903" cy="463" r="0.8" fill="#fff" opacity="0.19"/>
<circle cx="856" cy="72" r="2.3" fill="#fff" opacity="0.47"/>
<circle cx="417" cy="375" r="1.9" fill="#fff" opacity="0.40"/>
<circle cx="898" cy="452" r="1.0" fill="#fff" opacity="0.28"/>
<circle cx="128" cy="832" r="1.2" fill="#fff" opacity="0.19"/>
<circle cx="1044" cy="397" r="1.8" fill="#fff" opacity="0.40"/>
<circle cx="181" cy="303" r="1.2" fill="#fff" opacity="0.26"/>
<circle cx="1526" cy="857" r="2.1" fill="#fff" opacity="0.45"/>
<circle cx="1066" cy="191" r="2.2" fill="#fff" opacity="0.45"/>
<circle cx="410" cy="800" r="2.2" fill="#fff" opacity="0.45"/>
<circle cx="408" cy="377" r="1.8" fill="#fff" opacity="0.51"/>
<circle cx="1217" cy="555" r="1.6" fill="#fff" opacity="0.22"/>
<circle cx="680" cy="365" r="1.2" fill="#fff" opacity="0.29"/>
<circle cx="1087" cy="704" r="1.0" fill="#fff" opacity="0.34"/>
<circle cx="826" cy="289" r="2.2" fill="#fff" opacity="0.36"/>
<circle cx="125" cy="870" r="1.2" fill="#fff" opacity="0.57"/>
<circle cx="637" cy="843" r="1.9" fill="#fff" opacity="0.41"/>
<circle cx="977" cy="421" r="2.1" fill="#fff" opacity="0.48"/>
<circle cx="643" cy="111" r="0.9" fill="#fff" opacity="0.41"/>
<circle cx="1186" cy="31" r="1.5" fill="#fff" opacity="0.27"/>
<circle cx="1466" cy="193" r="2.4" fill="#fff" opacity="0.51"/>
<circle cx="795" cy="490" r="2.0" fill="#fff" opacity="0.49"/>
<circle cx="1413" cy="86" r="0.9" fill="#fff" opacity="0.23"/>
<circle cx="169" cy="779" r="1.0" fill="#fff" opacity="0.54"/>
<circle cx="611" cy="887" r="1.9" fill="#fff" opacity="0.56"/>
<circle cx="757" cy="784" r="1.6" fill="#fff" opacity="0.45"/>
<circle cx="376" cy="963" r="1.5" fill="#fff" opacity="0.47"/>
<circle cx="202" cy="329" r="1.9" fill="#fff" opacity="0.39"/>
<circle cx="1344" cy="351" r="1.7" fill="#fff" opacity="0.32"/>
<circle cx="1138" cy="37" r="1.6" fill="#fff" opacity="0.41"/>
<circle cx="804" cy="511" r="0.8" fill="#fff" opacity="0.28"/>
<circle cx="1101" cy="555" r="0.7" fill="#fff" opacity="0.44"/>
<circle cx="191" cy="733" r="1.5" fill="#fff" opacity="0.43"/>
<circle cx="120" cy="718" r="1.0" fill="#fff" opacity="0.48"/>
<circle cx="1082" cy="249" r="2.3" fill="#fff" opacity="0.19"/>
<circle cx="1272" cy="270" r="0.8" fill="#fff" opacity="0.37"/>
<circle cx="476" cy="706" r="2.4" fill="#fff" opacity="0.48"/>
<circle cx="1118" cy="720" r="0.8" fill="#fff" opacity="0.29"/>
<circle cx="1576" cy="447" r="1.9" fill="#fff" opacity="0.57"/>
<circle cx="1563" cy="249" r="1.3" fill="#fff" opacity="0.40"/>
<circle cx="554" cy="120" r="1.7" fill="#fff" opacity="0.58"/>
<circle cx="792" cy="314" r="2.0" fill="#fff" opacity="0.31"/>
<circle cx="869" cy="218" r="1.9" fill="#fff" opacity="0.21"/>
<circle cx="1169" cy="556" r="1.6" fill="#fff" opacity="0.59"/>
<circle cx="1287" cy="650" r="1.5" fill="#fff" opacity="0.34"/>
<circle cx="438" cy="6" r="1.3" fill="#fff" opacity="0.50"/>
<circle cx="1281" cy="448" r="2.2" fill="#fff" opacity="0.19"/>
<circle cx="704" cy="952" r="0.8" fill="#fff" opacity="0.56"/>
<circle cx="319" cy="123" r="2.3" fill="#fff" opacity="0.29"/>
<circle cx="829" cy="192" r="1.7" fill="#fff" opacity="0.58"/>
<circle cx="477" cy="391" r="1.5" fill="#fff" opacity="0.50"/>
<circle cx="781" cy="908" r="1.3" fill="#fff" opacity="0.37"/>
<circle cx="460" cy="654" r="1.2" fill="#fff" opacity="0.47"/>
<circle cx="1360" cy="872" r="1.8" fill="#fff" opacity="0.35"/>
<circle cx="1380" cy="785" r="1.9" fill="#fff" opacity="0.36"/>
<circle cx="332" cy="525" r="1.5" fill="#fff" opacity="0.44"/>
<circle cx="847" cy="524" r="0.9" fill="#fff" opacity="0.40"/>
<circle cx="1366" cy="338" r="1.3" fill="#fff" opacity="0.39"/>
<circle cx="1088" cy="307" r="1.1" fill="#fff" opacity="0.22"/>
<circle cx="762" cy="238" r="2.3" fill="#fff" opacity="0.49"/>
<circle cx="8" cy="456" r="2.1" fill="#fff" opacity="0.49"/>
<circle cx="545" cy="849" r="1.3" fill="#fff" opacity="0.36"/>
<circle cx="250" cy="229" r="2.4" fill="#fff" opacity="0.27"/>
<circle cx="1036" cy="321" r="1.9" fill="#fff" opacity="0.60"/>
<circle cx="1258" cy="955" r="2.2" fill="#fff" opacity="0.26"/>
<circle cx="665" cy="748" r="2.3" fill="#fff" opacity="0.26"/>
<circle cx="45" cy="156" r="1.7" fill="#fff" opacity="0.43"/>
<circle cx="714" cy="705" r="1.9" fill="#fff" opacity="0.32"/>
<circle cx="1403" cy="820" r="0.8" fill="#fff" opacity="0.21"/>
<circle cx="384" cy="728" r="2.0" fill="#fff" opacity="0.60"/>
<circle cx="1391" cy="347" r="2.0" fill="#fff" opacity="0.45"/>
<circle cx="376" cy="357" r="1.9" fill="#fff" opacity="0.55"/>
<circle cx="1222" cy="962" r="1.1" fill="#fff" opacity="0.25"/>
<circle cx="4" cy="33" r="1.1" fill="#fff" opacity="0.38"/>
<circle cx="474" cy="815" r="1.4" fill="#fff" opacity="0.55"/>
<circle cx="393" cy="873" r="1.4" fill="#fff" opacity="0.31"/>
<circle cx="579" cy="116" r="1.6" fill="#fff" opacity="0.59"/>
<circle cx="693" cy="771" r="2.3" fill="#fff" opacity="0.29"/>
<circle cx="1509" cy="454" r="1.5" fill="#fff" opacity="0.44"/>
<circle cx="453" cy="660" r="2.2" fill="#fff" opacity="0.32"/>
<circle cx="895" cy="699" r="1.5" fill="#fff" opacity="0.44"/>
<circle cx="176" cy="620" r="1.1" fill="#fff" opacity="0.24"/>
<circle cx="355" cy="94" r="1.4" fill="#fff" opacity="0.38"/>
<circle cx="1437" cy="680" r="1.5" fill="#fff" opacity="0.18"/>
<circle cx="864" cy="849" r="1.5" fill="#fff" opacity="0.36"/>
<circle cx="1112" cy="246" r="1.9" fill="#fff" opacity="0.53"/>
<circle cx="1430" cy="986" r="1.1" fill="#fff" opacity="0.48"/>
<circle cx="764" cy="593" r="2.3" fill="#fff" opacity="0.36"/>
<circle cx="1517" cy="307" r="1.8" fill="#fff" opacity="0.37"/>
<circle cx="474" cy="795" r="1.6" fill="#fff" opacity="0.45"/>
<circle cx="807" cy="899" r="1.3" fill="#fff" opacity="0.21"/>
<circle cx="1142" cy="355" r="2.0" fill="#fff" opacity="0.56"/>
<circle cx="1024" cy="642" r="1.6" fill="#fff" opacity="0.36"/>
<circle cx="1505" cy="766" r="2.3" fill="#fff" opacity="0.56"/>
<circle cx="1526" cy="590" r="0.7" fill="#fff" opacity="0.41"/>
<circle cx="321" cy="87" r="1.6" fill="#fff" opacity="0.47"/>
<circle cx="1240" cy="65" r="1.3" fill="#fff" opacity="0.40"/>
<circle cx="1307" cy="892" r="1.1" fill="#fff" opacity="0.30"/>
<circle cx="869" cy="1000" r="1.3" fill="#fff" opacity="0.24"/>
<circle cx="843" cy="180" r="1.3" fill="#fff" opacity="0.21"/>
<circle cx="343" cy="935" r="1.7" fill="#fff" opacity="0.55"/>
<circle cx="216" cy="76" r="1.4" fill="#fff" opacity="0.42"/>
<circle cx="606" cy="179" r="0.9" fill="#fff" opacity="0.59"/>
<circle cx="420" cy="286" r="1.7" fill="#fff" opacity="0.47"/>
<circle cx="1314" cy="84" r="2.3" fill="#fff" opacity="0.24"/>
<circle cx="1128" cy="402" r="2.1" fill="#fff" opacity="0.58"/>
<circle cx="304" cy="586" r="1.3" fill="#fff" opacity="0.41"/>
<circle cx="916" cy="288" r="2.3" fill="#fff" opacity="0.46"/>
  <rect width="1600" height="1000" fill="#000" opacity=".08"/>
</svg>