<svg xmlns="http://www.w3.org/2000/svg" viewBox="0 0 1200 800" width="1200" height="800">
  <defs>
    <radialGradient id="g" cx="50%" cy="42%" r="75%">
      <stop offset="0" stop-color="#253f4b"/>
      <stop offset="1" stop-color="#133832"/>
    </radialGradient>
    <pattern id="snow" width="120" height="120" patternUnits="userSpaceOnUse">
      <circle cx="20" cy="28" r="2.4" fill="#fff" opacity=".55"/>
      <circle cx="90" cy="70" r="1.8" fill="#fff" opacity=".45"/>
      <circle cx="64" cy="18" r="1.3" fill="#fff" opacity=".35"/>
      <circle cx="42" cy="100" r="1.7" fill="#fff" opacity=".4"/>
    </pattern>
    <linearGradient id="shine" x1="0" x2="1" y1="0" y2="1">
      <stop offset="0" stop-color="#ffffff" stop-opacity=".16"/>
      <stop offset="1" stop-color="#ffffff" stop-opacity="0"/>
    </linearGradient>
  </defs>
  <rect width="1200" height="800" fill="url(#g)"/>
  <rect width="1200" height="800" fill="url(#snow)"/>
  <circle cx="-60" cy="820" r="360" fill="#fff" opacity=".08"/>
  <circle cx="1260" cy="-70" r="390" fill="#ffd76e" opacity=".10"/>
  
<g transform="translate(190 470)">
 <rect x="0" y="120" width="170" height="120" fill="#5f3a2c"/><path d="M-20 120 L85 45 L190 120z" fill="#c94f45"/>
 <rect x="230" y="85" width="210" height="155" fill="#3d5b48"/><path d="M210 85 L335 0 L460 85z" fill="#e4a240"/>
 <rect x="500" y="130" width="180" height="110" fill="#4e3d5f"/><path d="M480 130 L590 55 L700 130z" fill="#d7535b"/>
 <rect x="65" y="155" width="45" height="55" fill="#ffdd82"/><rect x="300" y="130" width="50" height="52" fill="#ffdd82"/><rect x="565" y="158" width="50" height="45" fill="#ffdd82"/>
</g>
  <rect width="1200" height="800" fill="url(#shine)"/>
</svg>