<svg xmlns="http://www.w3.org/2000/svg" viewBox="0 0 1600 900" preserveAspectRatio="xMidYMid slice"><defs><linearGradient id="bg6" x1="0" y1="0" x2="0" y2="1"><stop offset="0%" stop-color="#9C27B0"/><stop offset="100%" stop-color="#FF4081"/></linearGradient><linearGradient id="hill16" x1="0" y1="0" x2="0" y2="1"><stop offset="0%" stop-color="#FFFFFF"/><stop offset="100%" stop-color="#E3F2FD"/></linearGradient><linearGradient id="hill26" x1="0" y1="0" x2="0" y2="1"><stop offset="0%" stop-color="#F5F5F5"/><stop offset="100%" stop-color="#BBDEFB"/></linearGradient></defs><rect width="1600" height="900" fill="url(#bg6)"/><circle cx="1300" cy="200" r="80" fill="#FFD54F" opacity="0.9"/><circle cx="128" cy="131" r="2.3530657584475754" fill="#FFFFFF" opacity="0.7682496980794253"/><circle cx="1010" cy="278" r="2.79782419746781" fill="#FFFFFF" opacity="0.770425851657097"/><circle cx="1542" cy="0" r="1.7981540760948436" fill="#FFFFFF" opacity="0.7878345658777899"/><circle cx="987" cy="414" r="2.0418219260813526" fill="#FFFFFF" opacity="0.7680112605774333"/><circle cx="151" cy="497" r="1.062743214913815" fill="#FFFFFF" opacity="0.7865576589136971"/><circle cx="123" cy="111" r="2.951086851565819" fill="#FFFFFF" opacity="0.4540326206873865"/><circle cx="1531" cy="259" r="1.3053064826831875" fill="#FFFFFF" opacity="0.4133252138498514"/><circle cx="983" cy="408" r="1.7954207033400655" fill="#FFFFFF" opacity="0.5083329628936821"/><circle cx="853" cy="369" r="1.2042960100465987" fill="#FFFFFF" opacity="0.6918659400047257"/><circle cx="847" cy="251" r="1.9971691023362865" fill="#FFFFFF" opacity="0.5852078769068553"/><circle cx="993" cy="250" r="2.6156052670707037" fill="#FFFFFF" opacity="0.3077339309566363"/><circle cx="74" cy="393" r="1.7871137476491012" fill="#FFFFFF" opacity="0.3195953771291937"/><circle cx="548" cy="403" r="1.4745341406882255" fill="#FFFFFF" opacity="0.5373396617126717"/><circle cx="553" cy="472" r="1.6251192629370148" fill="#FFFFFF" opacity="0.6666584141023355"/><circle cx="154" cy="350" r="2.576922098016131" fill="#FFFFFF" opacity="0.4834578256741901"/><circle cx="1299" cy="385" r="1.4856585979942027" fill="#FFFFFF" opacity="0.3120024533594424"/><circle cx="214" cy="200" r="2.5820197255318416" fill="#FFFFFF" opacity="0.7775496877203214"/><circle cx="18" cy="4" r="1.3738376050075902" fill="#FFFFFF" opacity="0.444893740616031"/><circle cx="366" cy="255" r="1.1216102372377332" fill="#FFFFFF" opacity="0.5982866634420027"/><circle cx="1016" cy="424" r="2.323852291434564" fill="#FFFFFF" opacity="0.30331670740768263"/><circle cx="985" cy="377" r="1.966463938106046" fill="#FFFFFF" opacity="0.4038385621326346"/><circle cx="1539" cy="453" r="1.9115566177924106" fill="#FFFFFF" opacity="0.44013347052533647"/><circle cx="568" cy="370" r="1.0555342841565856" fill="#FFFFFF" opacity="0.31419861882043215"/><circle cx="1538" cy="47" r="2.4320845186973683" fill="#FFFFFF" opacity="0.7034240092736204"/><circle cx="1445" cy="362" r="1.4352036538926771" fill="#FFFFFF" opacity="0.35146071587705907"/><circle cx="332" cy="130" r="1.4752317588727768" fill="#FFFFFF" opacity="0.3008999305518429"/><circle cx="727" cy="101" r="1.642765059880399" fill="#FFFFFF" opacity="0.4112311660383531"/><circle cx="164" cy="240" r="1.4843854632840099" fill="#FFFFFF" opacity="0.5701996945300007"/><circle cx="245" cy="450" r="2.3751781846919817" fill="#FFFFFF" opacity="0.6344114342065337"/><circle cx="969" cy="333" r="2.6530510530817324" fill="#FFFFFF" opacity="0.570062743984211"/><circle cx="1433" cy="454" r="1.9728970392069654" fill="#FFFFFF" opacity="0.646986424562254"/><circle cx="153" cy="470" r="1.9914062217556157" fill="#FFFFFF" opacity="0.6558606830575892"/><circle cx="1256" cy="58" r="2.7487944056015774" fill="#FFFFFF" opacity="0.7673366546254927"/><circle cx="1175" cy="258" r="2.9149814881007226" fill="#FFFFFF" opacity="0.40272828963274804"/><circle cx="829" cy="421" r="2.73109404245863" fill="#FFFFFF" opacity="0.7780157055616925"/><circle cx="621" cy="38" r="1.9844968948648696" fill="#FFFFFF" opacity="0.6587713122013286"/><circle cx="747" cy="32" r="1.0036087422067543" fill="#FFFFFF" opacity="0.7214529953120903"/><circle cx="280" cy="488" r="2.529680106724819" fill="#FFFFFF" opacity="0.6397269831261067"/><circle cx="922" cy="181" r="2.090481392437938" fill="#FFFFFF" opacity="0.5730806192713949"/><circle cx="825" cy="136" r="1.8857728869514814" fill="#FFFFFF" opacity="0.5015078315690892"/><circle cx="10" cy="414" r="1.070456491476506" fill="#FFFFFF" opacity="0.6046408982597361"/><circle cx="1180" cy="453" r="1.964520497232316" fill="#FFFFFF" opacity="0.33640959026502865"/><circle cx="1368" cy="169" r="1.9859494813216905" fill="#FFFFFF" opacity="0.4915804278942311"/><circle cx="405" cy="354" r="2.548398046096601" fill="#FFFFFF" opacity="0.463573902814939"/><circle cx="903" cy="282" r="2.497607945103839" fill="#FFFFFF" opacity="0.3722539013342108"/><circle cx="1068" cy="154" r="1.0560033837988396" fill="#FFFFFF" opacity="0.6596233190123637"/><circle cx="49" cy="288" r="1.816897725484764" fill="#FFFFFF" opacity="0.6727669126863198"/><circle cx="132" cy="295" r="2.6889829053071765" fill="#FFFFFF" opacity="0.4350176286650516"/><circle cx="1383" cy="322" r="1.8579506121288198" fill="#FFFFFF" opacity="0.7357685271965552"/><circle cx="1333" cy="11" r="1.4816727039088575" fill="#FFFFFF" opacity="0.5655404066265511"/><path d="M 0 600 Q 400 450 800 600 T 1600 550 L 1600 900 L 0 900 Z" fill="url(#hill26)"/><g transform="translate(732,610) scale(1.147422367105273)"><rect x="-6" y="-10" width="12" height="20" fill="#795548" rx="2"/><path d="M -40 -10 L 40 -10 L 0 -50 Z" fill="#2E7D32"/><path d="M -30 -30 L 30 -30 L 0 -70 Z" fill="#43A047"/><path d="M -20 -50 L 20 -50 L 0 -90 Z" fill="#4CAF50"/><circle cx="-15" cy="-20" r="3.5" fill="#FF9800"/><circle cx="10" cy="-25" r="3.5" fill="#FFEB3B"/><circle cx="-5" cy="-40" r="3.5" fill="#FFEB3B"/><circle cx="15" cy="-45" r="3.5" fill="#FFEB3B"/><circle cx="-10" cy="-60" r="3.5" fill="#FF9800"/><circle cx="0" cy="-30" r="3.5" fill="#FF9800"/><circle cx="20" cy="-15" r="3.5" fill="#F44336"/><circle cx="-25" cy="-12" r="3.5" fill="#F44336"/><polygon points="0,-95 3,-85 12,-85 5,-80 8,-70 0,-76 -8,-70 -5,-80 -12,-85 -3,-85" fill="#FFC107"/></g><g transform="translate(1045,644) scale(0.9243300108451102)"><rect x="-6" y="-10" width="12" height="20" fill="#795548" rx="2"/><path d="M -40 -10 L 40 -10 L 0 -50 Z" fill="#2E7D32"/><path d="M -30 -30 L 30 -30 L 0 -70 Z" fill="#43A047"/><path d="M -20 -50 L 20 -50 L 0 -90 Z" fill="#4CAF50"/><circle cx="-15" cy="-20" r="3.5" fill="#29B6F6"/><circle cx="10" cy="-25" r="3.5" fill="#FFEB3B"/><circle cx="-5" cy="-40" r="3.5" fill="#F44336"/><circle cx="15" cy="-45" r="3.5" fill="#FF9800"/><circle cx="-10" cy="-60" r="3.5" fill="#FF9800"/><circle cx="0" cy="-30" r="3.5" fill="#29B6F6"/><circle cx="20" cy="-15" r="3.5" fill="#FF9800"/><circle cx="-25" cy="-12" r="3.5" fill="#AB47BC"/><polygon points="0,-95 3,-85 12,-85 5,-80 8,-70 0,-76 -8,-70 -5,-80 -12,-85 -3,-85" fill="#FFC107"/></g><g transform="translate(421,626) scale(0.9503252558778621)"><rect x="-6" y="-10" width="12" height="20" fill="#795548" rx="2"/><path d="M -40 -10 L 40 -10 L 0 -50 Z" fill="#2E7D32"/><path d="M -30 -30 L 30 -30 L 0 -70 Z" fill="#43A047"/><path d="M -20 -50 L 20 -50 L 0 -90 Z" fill="#4CAF50"/><circle cx="-15" cy="-20" r="3.5" fill="#F44336"/><circle cx="10" cy="-25" r="3.5" fill="#F44336"/><circle cx="-5" cy="-40" r="3.5" fill="#FF9800"/><circle cx="15" cy="-45" r="3.5" fill="#29B6F6"/><circle cx="-10" cy="-60" r="3.5" fill="#FF9800"/><circle cx="0" cy="-30" r="3.5" fill="#29B6F6"/><circle cx="20" cy="-15" r="3.5" fill="#FFEB3B"/><circle cx="-25" cy="-12" r="3.5" fill="#FF9800"/><polygon points="0,-95 3,-85 12,-85 5,-80 8,-70 0,-76 -8,-70 -5,-80 -12,-85 -3,-85" fill="#FFC107"/></g><g transform="translate(1103,600) scale(1.1176918091757981)"><rect x="-6" y="-10" width="12" height="20" fill="#795548" rx="2"/><path d="M -40 -10 L 40 -10 L 0 -50 Z" fill="#2E7D32"/><path d="M -30 -30 L 30 -30 L 0 -70 Z" fill="#43A047"/><path d="M -20 -50 L 20 -50 L 0 -90 Z" fill="#4CAF50"/><circle cx="-15" cy="-20" r="3.5" fill="#FF9800"/><circle cx="10" cy="-25" r="3.5" fill="#F44336"/><circle cx="-5" cy="-40" r="3.5" fill="#FF9800"/><circle cx="15" cy="-45" r="3.5" fill="#FFEB3B"/><circle cx="-10" cy="-60" r="3.5" fill="#F44336"/><circle cx="0" cy="-30" r="3.5" fill="#F44336"/><circle cx="20" cy="-15" r="3.5" fill="#FFEB3B"/><circle cx="-25" cy="-12" r="3.5" fill="#FF9800"/><polygon points="0,-95 3,-85 12,-85 5,-80 8,-70 0,-76 -8,-70 -5,-80 -12,-85 -3,-85" fill="#FFC107"/></g><g transform="translate(445,591) scale(1.165032530062254)"><rect x="-6" y="-10" width="12" height="20" fill="#795548" rx="2"/><path d="M -40 -10 L 40 -10 L 0 -50 Z" fill="#2E7D32"/><path d="M -30 -30 L 30 -30 L 0 -70 Z" fill="#43A047"/><path d="M -20 -50 L 20 -50 L 0 -90 Z" fill="#4CAF50"/><circle cx="-15" cy="-20" r="3.5" fill="#FFEB3B"/><circle cx="10" cy="-25" r="3.5" fill="#AB47BC"/><circle cx="-5" cy="-40" r="3.5" fill="#AB47BC"/><circle cx="15" cy="-45" r="3.5" fill="#F44336"/><circle cx="-10" cy="-60" r="3.5" fill="#29B6F6"/><circle cx="0" cy="-30" r="3.5" fill="#FFEB3B"/><circle cx="20" cy="-15" r="3.5" fill="#AB47BC"/><circle cx="-25" cy="-12" r="3.5" fill="#FFEB3B"/><polygon points="0,-95 3,-85 12,-85 5,-80 8,-70 0,-76 -8,-70 -5,-80 -12,-85 -3,-85" fill="#FFC107"/></g><g transform="translate(1337,618) scale(1.0563617963079852)"><rect x="-6" y="-10" width="12" height="20" fill="#795548" rx="2"/><path d="M -40 -10 L 40 -10 L 0 -50 Z" fill="#2E7D32"/><path d="M -30 -30 L 30 -30 L 0 -70 Z" fill="#43A047"/><path d="M -20 -50 L 20 -50 L 0 -90 Z" fill="#4CAF50"/><circle cx="-15" cy="-20" r="3.5" fill="#FFEB3B"/><circle cx="10" cy="-25" r="3.5" fill="#AB47BC"/><circle cx="-5" cy="-40" r="3.5" fill="#AB47BC"/><circle cx="15" cy="-45" r="3.5" fill="#AB47BC"/><circle cx="-10" cy="-60" r="3.5" fill="#F44336"/><circle cx="0" cy="-30" r="3.5" fill="#FF9800"/><circle cx="20" cy="-15" r="3.5" fill="#F44336"/><circle cx="-25" cy="-12" r="3.5" fill="#AB47BC"/><polygon points="0,-95 3,-85 12,-85 5,-80 8,-70 0,-76 -8,-70 -5,-80 -12,-85 -3,-85" fill="#FFC107"/></g><g transform="translate(488,618) scale(0.9941240512639005)"><rect x="-6" y="-10" width="12" height="20" fill="#795548" rx="2"/><path d="M -40 -10 L 40 -10 L 0 -50 Z" fill="#2E7D32"/><path d="M -30 -30 L 30 -30 L 0 -70 Z" fill="#43A047"/><path d="M -20 -50 L 20 -50 L 0 -90 Z" fill="#4CAF50"/><circle cx="-15" cy="-20" r="3.5" fill="#AB47BC"/><circle cx="10" cy="-25" r="3.5" fill="#AB47BC"/><circle cx="-5" cy="-40" r="3.5" fill="#FFEB3B"/><circle cx="15" cy="-45" r="3.5" fill="#FF9800"/><circle cx="-10" cy="-60" r="3.5" fill="#FF9800"/><circle cx="0" cy="-30" r="3.5" fill="#AB47BC"/><circle cx="20" cy="-15" r="3.5" fill="#F44336"/><circle cx="-25" cy="-12" r="3.5" fill="#FF9800"/><polygon points="0,-95 3,-85 12,-85 5,-80 8,-70 0,-76 -8,-70 -5,-80 -12,-85 -3,-85" fill="#FFC107"/></g><g transform="translate(164,630) scale(0.9242862806822434)"><rect x="-6" y="-10" width="12" height="20" fill="#795548" rx="2"/><path d="M -40 -10 L 40 -10 L 0 -50 Z" fill="#2E7D32"/><path d="M -30 -30 L 30 -30 L 0 -70 Z" fill="#43A047"/><path d="M -20 -50 L 20 -50 L 0 -90 Z" fill="#4CAF50"/><circle cx="-15" cy="-20" r="3.5" fill="#FF9800"/><circle cx="10" cy="-25" r="3.5" fill="#AB47BC"/><circle cx="-5" cy="-40" r="3.5" fill="#AB47BC"/><circle cx="15" cy="-45" r="3.5" fill="#29B6F6"/><circle cx="-10" cy="-60" r="3.5" fill="#29B6F6"/><circle cx="0" cy="-30" r="3.5" fill="#FFEB3B"/><circle cx="20" cy="-15" r="3.5" fill="#FF9800"/><circle cx="-25" cy="-12" r="3.5" fill="#FFEB3B"/><polygon points="0,-95 3,-85 12,-85 5,-80 8,-70 0,-76 -8,-70 -5,-80 -12,-85 -3,-85" fill="#FFC107"/></g><path d="M 0 700 Q 600 550 1200 750 T 1600 650 L 1600 900 L 0 900 Z" fill="url(#hill16)"/><g transform="translate(1274,719) scale(2.0069631764494016)"><rect x="-40" y="-40" width="80" height="40" fill="#795548"/><rect x="-10" y="-20" width="20" height="20" fill="#FF9800" rx="2"/><circle cx="6" cy="-10" r="2" fill="#FFE082"/><rect x="-30" y="-25" width="12" height="12" fill="#FFF59D" rx="1"/><rect x="18" y="-25" width="12" height="12" fill="#FFF59D" rx="1"/><circle cx="0" cy="-10" r="4" fill="none" stroke="#4CAF50" stroke-width="2"/><circle cx="0" cy="-14" r="1" fill="#F44336"/><path d="M -50 -40 L 0 -80 L 50 -40 Z" fill="#D32F2F"/><path d="M -50 -40 L 0 -80 L 50 -40" fill="none" stroke="#FFFFFF" stroke-width="8" stroke-linecap="round" stroke-linejoin="round"/></g><g transform="translate(893,689) scale(2.4266704454118773)"><rect x="-40" y="-40" width="80" height="40" fill="#795548"/><rect x="-10" y="-20" width="20" height="20" fill="#FF9800" rx="2"/><circle cx="6" cy="-10" r="2" fill="#FFE082"/><rect x="-30" y="-25" width="12" height="12" fill="#FFF59D" rx="1"/><rect x="18" y="-25" width="12" height="12" fill="#FFF59D" rx="1"/><circle cx="0" cy="-10" r="4" fill="none" stroke="#4CAF50" stroke-width="2"/><circle cx="0" cy="-14" r="1" fill="#F44336"/><path d="M -50 -40 L 0 -80 L 50 -40 Z" fill="#D32F2F"/><path d="M -50 -40 L 0 -80 L 50 -40" fill="none" stroke="#FFFFFF" stroke-width="8" stroke-linecap="round" stroke-linejoin="round"/></g><g transform="translate(1076,736) scale(1.6327882104558749)"><rect x="-40" y="-40" width="80" height="40" fill="#795548"/><rect x="-10" y="-20" width="20" height="20" fill="#FF9800" rx="2"/><circle cx="6" cy="-10" r="2" fill="#FFE082"/><rect x="-30" y="-25" width="12" height="12" fill="#FFF59D" rx="1"/><rect x="18" y="-25" width="12" height="12" fill="#FFF59D" rx="1"/><circle cx="0" cy="-10" r="4" fill="none" stroke="#4CAF50" stroke-width="2"/><circle cx="0" cy="-14" r="1" fill="#F44336"/><path d="M -50 -40 L 0 -80 L 50 -40 Z" fill="#D32F2F"/><path d="M -50 -40 L 0 -80 L 50 -40" fill="none" stroke="#FFFFFF" stroke-width="8" stroke-linecap="round" stroke-linejoin="round"/></g><g transform="translate(571,699) scale(2.0990488219000065)"><rect x="-40" y="-40" width="80" height="40" fill="#795548"/><rect x="-10" y="-20" width="20" height="20" fill="#FF9800" rx="2"/><circle cx="6" cy="-10" r="2" fill="#FFE082"/><rect x="-30" y="-25" width="12" height="12" fill="#FFF59D" rx="1"/><rect x="18" y="-25" width="12" height="12" fill="#FFF59D" rx="1"/><circle cx="0" cy="-10" r="4" fill="none" stroke="#4CAF50" stroke-width="2"/><circle cx="0" cy="-14" r="1" fill="#F44336"/><path d="M -50 -40 L 0 -80 L 50 -40 Z" fill="#D32F2F"/><path d="M -50 -40 L 0 -80 L 50 -40" fill="none" stroke="#FFFFFF" stroke-width="8" stroke-linecap="round" stroke-linejoin="round"/></g><g transform="translate(560,756) scale(1.7059881316348493)"><rect x="-6" y="-10" width="12" height="20" fill="#795548" rx="2"/><path d="M -40 -10 L 40 -10 L 0 -50 Z" fill="#2E7D32"/><path d="M -30 -30 L 30 -30 L 0 -70 Z" fill="#43A047"/><path d="M -20 -50 L 20 -50 L 0 -90 Z" fill="#4CAF50"/><circle cx="-15" cy="-20" r="3.5" fill="#29B6F6"/><circle cx="10" cy="-25" r="3.5" fill="#FFEB3B"/><circle cx="-5" cy="-40" r="3.5" fill="#29B6F6"/><circle cx="15" cy="-45" r="3.5" fill="#F44336"/><circle cx="-10" cy="-60" r="3.5" fill="#FF9800"/><circle cx="0" cy="-30" r="3.5" fill="#FF9800"/><circle cx="20" cy="-15" r="3.5" fill="#29B6F6"/><circle cx="-25" cy="-12" r="3.5" fill="#FFEB3B"/><polygon points="0,-95 3,-85 12,-85 5,-80 8,-70 0,-76 -8,-70 -5,-80 -12,-85 -3,-85" fill="#FFC107"/></g><g transform="translate(1410,739) scale(1.254213034880073)"><rect x="-6" y="-10" width="12" height="20" fill="#795548" rx="2"/><path d="M -40 -10 L 40 -10 L 0 -50 Z" fill="#2E7D32"/><path d="M -30 -30 L 30 -30 L 0 -70 Z" fill="#43A047"/><path d="M -20 -50 L 20 -50 L 0 -90 Z" fill="#4CAF50"/><circle cx="-15" cy="-20" r="3.5" fill="#F44336"/><circle cx="10" cy="-25" r="3.5" fill="#FF9800"/><circle cx="-5" cy="-40" r="3.5" fill="#29B6F6"/><circle cx="15" cy="-45" r="3.5" fill="#AB47BC"/><circle cx="-10" cy="-60" r="3.5" fill="#FFEB3B"/><circle cx="0" cy="-30" r="3.5" fill="#FFEB3B"/><circle cx="20" cy="-15" r="3.5" fill="#FFEB3B"/><circle cx="-25" cy="-12" r="3.5" fill="#FF9800"/><polygon points="0,-95 3,-85 12,-85 5,-80 8,-70 0,-76 -8,-70 -5,-80 -12,-85 -3,-85" fill="#FFC107"/></g><g transform="translate(460,791) scale(1.6120849493812153)"><rect x="-6" y="-10" width="12" height="20" fill="#795548" rx="2"/><path d="M -40 -10 L 40 -10 L 0 -50 Z" fill="#2E7D32"/><path d="M -30 -30 L 30 -30 L 0 -70 Z" fill="#43A047"/><path d="M -20 -50 L 20 -50 L 0 -90 Z" fill="#4CAF50"/><circle cx="-15" cy="-20" r="3.5" fill="#29B6F6"/><circle cx="10" cy="-25" r="3.5" fill="#FFEB3B"/><circle cx="-5" cy="-40" r="3.5" fill="#FFEB3B"/><circle cx="15" cy="-45" r="3.5" fill="#F44336"/><circle cx="-10" cy="-60" r="3.5" fill="#AB47BC"/><circle cx="0" cy="-30" r="3.5" fill="#AB47BC"/><circle cx="20" cy="-15" r="3.5" fill="#AB47BC"/><circle cx="-25" cy="-12" r="3.5" fill="#AB47BC"/><polygon points="0,-95 3,-85 12,-85 5,-80 8,-70 0,-76 -8,-70 -5,-80 -12,-85 -3,-85" fill="#FFC107"/></g><g transform="translate(188,755) scale(1.2704145386340242)"><rect x="-6" y="-10" width="12" height="20" fill="#795548" rx="2"/><path d="M -40 -10 L 40 -10 L 0 -50 Z" fill="#2E7D32"/><path d="M -30 -30 L 30 -30 L 0 -70 Z" fill="#43A047"/><path d="M -20 -50 L 20 -50 L 0 -90 Z" fill="#4CAF50"/><circle cx="-15" cy="-20" r="3.5" fill="#FF9800"/><circle cx="10" cy="-25" r="3.5" fill="#FFEB3B"/><circle cx="-5" cy="-40" r="3.5" fill="#FFEB3B"/><circle cx="15" cy="-45" r="3.5" fill="#FFEB3B"/><circle cx="-10" cy="-60" r="3.5" fill="#F44336"/><circle cx="0" cy="-30" r="3.5" fill="#FF9800"/><circle cx="20" cy="-15" r="3.5" fill="#FF9800"/><circle cx="-25" cy="-12" r="3.5" fill="#FF9800"/><polygon points="0,-95 3,-85 12,-85 5,-80 8,-70 0,-76 -8,-70 -5,-80 -12,-85 -3,-85" fill="#FFC107"/></g><g transform="translate(657,725) scale(1.2010839154417252)"><rect x="-6" y="-10" width="12" height="20" fill="#795548" rx="2"/><path d="M -40 -10 L 40 -10 L 0 -50 Z" fill="#2E7D32"/><path d="M -30 -30 L 30 -30 L 0 -70 Z" fill="#43A047"/><path d="M -20 -50 L 20 -50 L 0 -90 Z" fill="#4CAF50"/><circle cx="-15" cy="-20" r="3.5" fill="#FF9800"/><circle cx="10" cy="-25" r="3.5" fill="#29B6F6"/><circle cx="-5" cy="-40" r="3.5" fill="#FFEB3B"/><circle cx="15" cy="-45" r="3.5" fill="#FF9800"/><circle cx="-10" cy="-60" r="3.5" fill="#29B6F6"/><circle cx="0" cy="-30" r="3.5" fill="#FFEB3B"/><circle cx="20" cy="-15" r="3.5" fill="#AB47BC"/><circle cx="-25" cy="-12" r="3.5" fill="#F44336"/><polygon points="0,-95 3,-85 12,-85 5,-80 8,-70 0,-76 -8,-70 -5,-80 -12,-85 -3,-85" fill="#FFC107"/></g><circle cx="225" cy="325" r="4.24196097302633" fill="#FFFFFF" opacity="0.7215810386504411"/><circle cx="1041" cy="504" r="4.214053110255177" fill="#FFFFFF" opacity="0.6312954112880677"/><circle cx="102" cy="191" r="2.9263943613152343" fill="#FFFFFF" opacity="0.5908951965449512"/><circle cx="51" cy="784" r="3.8919414347188277" fill="#FFFFFF" opacity="0.8233742629511913"/><circle cx="4" cy="716" r="3.910655928182315" fill="#FFFFFF" opacity="0.807442882409406"/><circle cx="355" cy="484" r="4.17687525714261" fill="#FFFFFF" opacity="0.6916033776431387"/><circle cx="43" cy="439" r="5.59220430594195" fill="#FFFFFF" opacity="0.6099249816042139"/><circle cx="144" cy="805" r="2.894831687441469" fill="#FFFFFF" opacity="0.695079879904816"/><circle cx="1581" cy="388" r="4.9176674572976555" fill="#FFFFFF" opacity="0.886492508394197"/><circle cx="962" cy="405" r="2.0089348785424375" fill="#FFFFFF" opacity="0.8375269690734006"/><circle cx="26" cy="779" r="4.743261065233096" fill="#FFFFFF" opacity="0.7826620101558819"/><circle cx="1018" cy="288" r="4.3642520960201" fill="#FFFFFF" opacity="0.5169992453386132"/><circle cx="693" cy="488" r="4.768375699376035" fill="#FFFFFF" opacity="0.8021892332349917"/><circle cx="817" cy="136" r="3.1334683014066833" fill="#FFFFFF" opacity="0.8922025943932768"/><circle cx="1026" cy="508" r="2.8103350872850736" fill="#FFFFFF" opacity="0.5955118213544864"/><circle cx="675" cy="300" r="5.671868058665243" fill="#FFFFFF" opacity="0.6137009205370992"/><circle cx="1370" cy="497" r="2.9756624882363147" fill="#FFFFFF" opacity="0.7412600038707823"/><circle cx="1008" cy="295" r="5.309938515875018" fill="#FFFFFF" opacity="0.8916041174139252"/><circle cx="477" cy="473" r="5.947584848240245" fill="#FFFFFF" opacity="0.7824242580526386"/><circle cx="95" cy="356" r="4.150313779887285" fill="#FFFFFF" opacity="0.6478079382221202"/><circle cx="601" cy="132" r="4.984998593179993" fill="#FFFFFF" opacity="0.8212890907958925"/><circle cx="451" cy="163" r="4.0183191421544695" fill="#FFFFFF" opacity="0.563958224783579"/><circle cx="178" cy="550" r="3.7585529838710783" fill="#FFFFFF" opacity="0.6975511191311662"/><circle cx="89" cy="699" r="4.26400585078993" fill="#FFFFFF" opacity="0.6662020472381227"/><circle cx="822" cy="48" r="3.489101703669189" fill="#FFFFFF" opacity="0.5972728657290685"/><circle cx="578" cy="746" r="3.7148270141586734" fill="#FFFFFF" opacity="0.663939645688734"/><circle cx="1284" cy="107" r="3.946296639180939" fill="#FFFFFF" opacity="0.8665656274137588"/><circle cx="890" cy="184" r="3.1068518761051696" fill="#FFFFFF" opacity="0.8271551319000285"/><circle cx="1450" cy="606" r="4.439958270992523" fill="#FFFFFF" opacity="0.857803497647356"/><circle cx="1573" cy="851" r="4.78529513489152" fill="#FFFFFF" opacity="0.527946748501047"/><circle cx="657" cy="783" r="5.610459189748263" fill="#FFFFFF" opacity="0.6639662182210376"/><circle cx="820" cy="50" r="4.1321464322392245" fill="#FFFFFF" opacity="0.774810116127622"/><circle cx="132" cy="23" r="4.484440686700823" fill="#FFFFFF" opacity="0.5652961403297939"/><circle cx="1265" cy="761" r="5.032092220677566" fill="#FFFFFF" opacity="0.8228104557799797"/><circle cx="1417" cy="90" r="4.375727044103086" fill="#FFFFFF" opacity="0.6674812865324278"/><circle cx="143" cy="742" r="2.1850659006844975" fill="#FFFFFF" opacity="0.6785339797120051"/><circle cx="1082" cy="841" r="2.9295854538559185" fill="#FFFFFF" opacity="0.7453525489009787"/><circle cx="856" cy="352" r="2.3186809017587335" fill="#FFFFFF" opacity="0.6159778943435122"/><circle cx="394" cy="105" r="5.092335652721079" fill="#FFFFFF" opacity="0.697239840585012"/><circle cx="552" cy="888" r="3.436635020011163" fill="#FFFFFF" opacity="0.7469249422415797"/><circle cx="1201" cy="695" r="5.405534063788625" fill="#FFFFFF" opacity="0.6264352160917216"/><circle cx="1000" cy="105" r="3.0311240415312515" fill="#FFFFFF" opacity="0.7486552170741426"/><circle cx="338" cy="356" r="5.925638570501144" fill="#FFFFFF" opacity="0.7891124051597906"/><circle cx="554" cy="18" r="3.9187178876012543" fill="#FFFFFF" opacity="0.5676440327206427"/><circle cx="1025" cy="528" r="4.119819888173455" fill="#FFFFFF" opacity="0.5083955125337148"/><circle cx="20" cy="713" r="4.404958026872404" fill="#FFFFFF" opacity="0.7891969411297798"/><circle cx="632" cy="282" r="3.8497468387912" fill="#FFFFFF" opacity="0.7255462333027499"/><circle cx="546" cy="670" r="2.4948682310341654" fill="#FFFFFF" opacity="0.5298750717852103"/><circle cx="121" cy="633" r="2.489616949856173" fill="#FFFFFF" opacity="0.5048247537295261"/><circle cx="26" cy="572" r="2.6429017393003" fill="#FFFFFF" opacity="0.5431273539194691"/><circle cx="73" cy="192" r="3.989462495079363" fill="#FFFFFF" opacity="0.5242575002131724"/><circle cx="143" cy="317" r="3.9252919503511623" fill="#FFFFFF" opacity="0.8953250505961361"/><circle cx="362" cy="717" r="2.6182369919165276" fill="#FFFFFF" opacity="0.8907544600352992"/><circle cx="27" cy="96" r="2.412644968808168" fill="#FFFFFF" opacity="0.5155970100910978"/><circle cx="179" cy="277" r="2.650178967237713" fill="#FFFFFF" opacity="0.5746985950980434"/><circle cx="669" cy="771" r="4.5814872021766995" fill="#FFFFFF" opacity="0.7244118144561255"/><circle cx="214" cy="120" r="3.84795605779625" fill="#FFFFFF" opacity="0.8725003585845277"/><circle cx="1595" cy="20" r="2.758460139759389" fill="#FFFFFF" opacity="0.7357926402049206"/><circle cx="34" cy="477" r="5.592098114168395" fill="#FFFFFF" opacity="0.7120169139416845"/><circle cx="256" cy="866" r="4.645308285217265" fill="#FFFFFF" opacity="0.5367011250852176"/><circle cx="577" cy="465" r="5.871485022593546" fill="#FFFFFF" opacity="0.5872525458025917"/><circle cx="303" cy="473" r="5.018755961096247" fill="#FFFFFF" opacity="0.885866970112257"/><circle cx="439" cy="141" r="5.501714909018015" fill="#FFFFFF" opacity="0.576559977744656"/><circle cx="896" cy="271" r="4.697330096105409" fill="#FFFFFF" opacity="0.8256681252870117"/><circle cx="1270" cy="877" r="4.504829715477758" fill="#FFFFFF" opacity="0.5298958940459391"/><circle cx="543" cy="140" r="4.124044008844235" fill="#FFFFFF" opacity="0.8023199459566512"/><circle cx="1557" cy="457" r="3.7503827573525426" fill="#FFFFFF" opacity="0.8240371187412014"/><circle cx="1056" cy="466" r="3.186034463252994" fill="#FFFFFF" opacity="0.5065533697027842"/><circle cx="597" cy="121" r="5.761091717951367" fill="#FFFFFF" opacity="0.8978981513631172"/><circle cx="23" cy="5" r="3.154624702267565" fill="#FFFFFF" opacity="0.691004128627325"/><circle cx="103" cy="889" r="2.800399934941139" fill="#FFFFFF" opacity="0.7322953307323119"/><circle cx="1243" cy="555" r="5.089481252530419" fill="#FFFFFF" opacity="0.7716943953196536"/><circle cx="1599" cy="697" r="2.4377859329804528" fill="#FFFFFF" opacity="0.5027334887913155"/><circle cx="1469" cy="598" r="2.9690242422483446" fill="#FFFFFF" opacity="0.6793683165421818"/><circle cx="760" cy="467" r="2.88687814737867" fill="#FFFFFF" opacity="0.652832037912289"/><circle cx="571" cy="561" r="2.285786110350241" fill="#FFFFFF" opacity="0.5700233086013272"/><circle cx="817" cy="622" r="5.217015524056636" fill="#FFFFFF" opacity="0.547113027343362"/><circle cx="626" cy="643" r="3.1372131394872116" fill="#FFFFFF" opacity="0.7000250508293777"/><circle cx="1272" cy="206" r="3.026409024533773" fill="#FFFFFF" opacity="0.7273207614154846"/><circle cx="336" cy="822" r="4.184630825789185" fill="#FFFFFF" opacity="0.5450260689082966"/><circle cx="716" cy="488" r="3.055296274956005" fill="#FFFFFF" opacity="0.7667133469822118"/><circle cx="1003" cy="842" r="3.9471637249712326" fill="#FFFFFF" opacity="0.7607259592097191"/><circle cx="1463" cy="149" r="3.2534235523601907" fill="#FFFFFF" opacity="0.7011225432314574"/><circle cx="634" cy="267" r="3.5226194494588707" fill="#FFFFFF" opacity="0.727857339564967"/><circle cx="769" cy="597" r="3.8717559431076247" fill="#FFFFFF" opacity="0.8925415276932416"/><circle cx="451" cy="434" r="2.5956073850518853" fill="#FFFFFF" opacity="0.6005196715337375"/><circle cx="1561" cy="160" r="2.961552516245677" fill="#FFFFFF" opacity="0.7108495719581884"/><circle cx="876" cy="454" r="2.4119382673763012" fill="#FFFFFF" opacity="0.7656485992192164"/><circle cx="87" cy="858" r="3.460147780104991" fill="#FFFFFF" opacity="0.7190260790586718"/><circle cx="1355" cy="157" r="4.9324615009118435" fill="#FFFFFF" opacity="0.5158991511766265"/><circle cx="284" cy="610" r="5.404388629890285" fill="#FFFFFF" opacity="0.5605242923424021"/><circle cx="1555" cy="137" r="2.712166213632822" fill="#FFFFFF" opacity="0.6819615538332499"/><circle cx="1460" cy="841" r="5.70209661491387" fill="#FFFFFF" opacity="0.668174449612004"/><circle cx="1141" cy="387" r="4.046728775268466" fill="#FFFFFF" opacity="0.7578606907902647"/><circle cx="970" cy="556" r="4.437743801373781" fill="#FFFFFF" opacity="0.8297191823076691"/><circle cx="1517" cy="581" r="5.365021715321437" fill="#FFFFFF" opacity="0.509101897256702"/><circle cx="1530" cy="2" r="5.418349875109058" fill="#FFFFFF" opacity="0.5681944969988575"/><circle cx="681" cy="508" r="5.154540334659364" fill="#FFFFFF" opacity="0.682046620776723"/><circle cx="150" cy="535" r="2.569830803821147" fill="#FFFFFF" opacity="0.8116900317836049"/><circle cx="929" cy="281" r="3.8626421512993376" fill="#FFFFFF" opacity="0.7115348951988381"/><circle cx="1427" cy="506" r="5.960173924082437" fill="#FFFFFF" opacity="0.5029239715382015"/><circle cx="325" cy="703" r="5.219922614896231" fill="#FFFFFF" opacity="0.8060582144480274"/><circle cx="114" cy="4" r="3.7507663189057245" fill="#FFFFFF" opacity="0.8583567083398249"/><circle cx="584" cy="580" r="3.4156159485990956" fill="#FFFFFF" opacity="0.563752441671736"/><circle cx="952" cy="586" r="2.778242652118208" fill="#FFFFFF" opacity="0.7762810286412531"/><circle cx="1279" cy="81" r="3.3858720266705196" fill="#FFFFFF" opacity="0.5608357056215884"/><circle cx="137" cy="68" r="5.2110474294238" fill="#FFFFFF" opacity="0.8586485240776154"/><circle cx="1382" cy="508" r="4.610613271956392" fill="#FFFFFF" opacity="0.8382498885833605"/><circle cx="710" cy="226" r="3.2817494820294626" fill="#FFFFFF" opacity="0.5567815204521859"/><circle cx="149" cy="503" r="4.695648569603958" fill="#FFFFFF" opacity="0.5131832154430108"/><circle cx="1393" cy="473" r="2.635965578125913" fill="#FFFFFF" opacity="0.8483469891456039"/><circle cx="147" cy="652" r="3.2624384104204958" fill="#FFFFFF" opacity="0.615648638662324"/><circle cx="1147" cy="588" r="3.0940170452082687" fill="#FFFFFF" opacity="0.6775169152267111"/><circle cx="922" cy="262" r="3.6711871119762565" fill="#FFFFFF" opacity="0.5194495401681518"/><circle cx="293" cy="249" r="3.69414594284258" fill="#FFFFFF" opacity="0.8639047568802987"/><circle cx="1519" cy="342" r="3.1104718544591203" fill="#FFFFFF" opacity="0.8302424741565435"/><circle cx="504" cy="716" r="4.468259653696853" fill="#FFFFFF" opacity="0.5859827520980077"/><circle cx="1413" cy="198" r="4.899239076956557" fill="#FFFFFF" opacity="0.7473208046289679"/><circle cx="692" cy="46" r="2.255551301906419" fill="#FFFFFF" opacity="0.8479947921579498"/><circle cx="783" cy="889" r="2.1745743997831766" fill="#FFFFFF" opacity="0.6114765808111738"/><circle cx="677" cy="634" r="4.1399998379490155" fill="#FFFFFF" opacity="0.7597458906416776"/><circle cx="1245" cy="211" r="3.670337976443549" fill="#FFFFFF" opacity="0.6920772088091012"/><circle cx="287" cy="180" r="4.295601494529993" fill="#FFFFFF" opacity="0.5626441168349519"/><circle cx="78" cy="411" r="3.7572291883879005" fill="#FFFFFF" opacity="0.8330016764740789"/><circle cx="1315" cy="264" r="3.25788517315108" fill="#FFFFFF" opacity="0.6100000961523352"/><circle cx="624" cy="885" r="4.5538952353097" fill="#FFFFFF" opacity="0.8401393481379749"/><circle cx="1149" cy="534" r="3.2542363587607737" fill="#FFFFFF" opacity="0.7683708344865703"/><circle cx="1165" cy="828" r="2.2551265101149878" fill="#FFFFFF" opacity="0.8663194520667246"/><circle cx="433" cy="239" r="2.902515271640473" fill="#FFFFFF" opacity="0.8836643074445343"/><circle cx="95" cy="465" r="3.9426767659977364" fill="#FFFFFF" opacity="0.6123897231333916"/><circle cx="1382" cy="222" r="5.389820811187025" fill="#FFFFFF" opacity="0.7039893370687886"/><circle cx="75" cy="825" r="4.9826244711267345" fill="#FFFFFF" opacity="0.853515478751248"/><circle cx="857" cy="226" r="3.8183604468561447" fill="#FFFFFF" opacity="0.7607823077618598"/><circle cx="119" cy="275" r="5.616155885524243" fill="#FFFFFF" opacity="0.7073410540567402"/><circle cx="412" cy="225" r="2.2387334796973137" fill="#FFFFFF" opacity="0.72458059509516"/><circle cx="682" cy="429" r="2.8642106361477095" fill="#FFFFFF" opacity="0.621236405174805"/><circle cx="607" cy="264" r="4.690551774564074" fill="#FFFFFF" opacity="0.6989098995475463"/><circle cx="412" cy="76" r="5.50708379029984" fill="#FFFFFF" opacity="0.7723455411548557"/><circle cx="1008" cy="158" r="4.768407857475594" fill="#FFFFFF" opacity="0.7599848112669289"/><circle cx="479" cy="223" r="3.956282956518416" fill="#FFFFFF" opacity="0.8880487578944272"/><circle cx="201" cy="636" r="2.132524857936328" fill="#FFFFFF" opacity="0.53831170634533"/><circle cx="950" cy="366" r="5.280142638499486" fill="#FFFFFF" opacity="0.8391742206956455"/><circle cx="422" cy="229" r="3.547662328314736" fill="#FFFFFF" opacity="0.5475970004190016"/><circle cx="711" cy="242" r="3.0586750731906642" fill="#FFFFFF" opacity="0.7088883361806579"/><circle cx="1306" cy="59" r="3.136873539854543" fill="#FFFFFF" opacity="0.8678972310683777"/><circle cx="1041" cy="29" r="2.82083283219208" fill="#FFFFFF" opacity="0.8668670123864667"/><circle cx="605" cy="480" r="5.00062210630702" fill="#FFFFFF" opacity="0.6263176636713136"/><circle cx="1159" cy="356" r="4.572881026755813" fill="#FFFFFF" opacity="0.7296084060234805"/><circle cx="693" cy="786" r="5.564766733030119" fill="#FFFFFF" opacity="0.8783981226879441"/><circle cx="1497" cy="422" r="3.1448642960455317" fill="#FFFFFF" opacity="0.6469776766780797"/></svg>