<svg xmlns="http://www.w3.org/2000/svg" viewBox="0 0 1600 1000" preserveAspectRatio="xMidYMid slice">
  <defs>
    <linearGradient id="g" x1="0" y1="0" x2="1" y2="1">
      <stop offset="0" stop-color="#16331f"/>
      <stop offset=".58" stop-color="#364d2c"/>
      <stop offset="1" stop-color="#16331f"/>
    </linearGradient>
    <radialGradient id="warm" cx=".18" cy=".12" r=".62">
      <stop offset="0" stop-color="#fff0b3" stop-opacity=".32"/>
      <stop offset="1" stop-color="#fff0b3" stop-opacity="0"/>
    </radialGradient>
    <radialGradient id="cool" cx=".86" cy=".24" r=".58">
      <stop offset="0" stop-color="#70d494" stop-opacity=".24"/>
      <stop offset="1" stop-color="#70d494" stop-opacity="0"/>
    </radialGradient>
  </defs>
  <rect width="1600" height="1000" fill="url(#g)"/>
  <rect width="1600" height="1000" fill="url(#warm)"/>
  <rect width="1600" height="1000" fill="url(#cool)"/>
  <circle cx="1280" cy="820" r="360" fill="#ffffff" opacity=".06"/>
  <circle cx="130" cy="930" r="310" fill="#ffffff" opacity=".05"/>
  <circle cx="20" cy="1002" r="89" fill="#70d494" opacity="0.19"/>
<circle cx="310" cy="817" r="99" fill="#70d494" opacity="0.15"/>
<circle cx="1085" cy="-48" r="72" fill="#e85d67" opacity="0.16"/>
<circle cx="88" cy="-46" r="114" fill="#fff0b3" opacity="0.15"/>
<circle cx="1648" cy="201" r="213" fill="#fff0b3" opacity="0.10"/>
<circle cx="145" cy="568" r="227" fill="#fff0b3" opacity="0.22"/>
<circle cx="1293" cy="323" r="188" fill="#fff0b3" opacity="0.19"/>
<circle cx="1267" cy="272" r="130" fill="#fff0b3" opacity="0.18"/>
<circle cx="374" cy="173" r="134" fill="#70d494" opacity="0.12"/>
<circle cx="681" cy="713" r="223" fill="#fff0b3" opacity="0.10"/>
<circle cx="1693" cy="685" r="85" fill="#fff0b3" opacity="0.11"/>
<circle cx="-83" cy="283" r="94" fill="#70d494" opacity="0.12"/>
<circle cx="963" cy="848" r="90" fill="#fff0b3" opacity="0.11"/>
<circle cx="799" cy="423" r="168" fill="#fff0b3" opacity="0.16"/>
<circle cx="1474" cy="716" r="222" fill="#fff0b3" opacity="0.13"/>
<circle cx="604" cy="216" r="183" fill="#fff0b3" opacity="0.21"/><path d="M1139 944.2889967997223 L1139.5988511200972 945.4011488799028 L1140.7110032002777 946 L1139.5988511200972 946.5988511200972 L1139 947.7110032002777 L1138.4011488799028 946.5988511200972 L1137.2889967997223 946 L1138.4011488799028 945.4011488799028 Z" fill="#fff8d8" opacity="0.26"/>
<path d="M1461 259.4382246463484 L1461.896621373778 261.1033786262219 L1463.5617753536517 262 L1461.896621373778 262.8966213737781 L1461 264.5617753536516 L1460.103378626222 262.8966213737781 L1458.4382246463483 262 L1460.103378626222 261.1033786262219 Z" fill="#fff8d8" opacity="0.52"/>
<path d="M1240 701.1410467129583 L1241.0006336504646 702.9993663495354 L1242.8589532870417 704 L1241.0006336504646 705.0006336504646 L1240 706.8589532870417 L1238.9993663495354 705.0006336504646 L1237.1410467129583 704 L1238.9993663495354 702.9993663495354 Z" fill="#fff8d8" opacity="0.39"/>
<path d="M1361 52.45302203903229 L1361.5414422863387 53.4585577136613 L1362.5469779609678 54 L1361.5414422863387 54.5414422863387 L1361 55.54697796096771 L1360.4585577136613 54.5414422863387 L1359.4530220390322 54 L1360.4585577136613 53.4585577136613 Z" fill="#fff8d8" opacity="0.51"/>
<path d="M849 618.2813138142104 L849.9515401650264 620.0484598349736 L851.7186861857896 621 L849.9515401650264 621.9515401650264 L849 623.7186861857896 L848.0484598349736 621.9515401650264 L846.2813138142104 621 L848.0484598349736 620.0484598349736 Z" fill="#fff8d8" opacity="0.18"/>
<path d="M860 568.0167285138339 L861.0441450201581 569.9558549798419 L862.9832714861661 571 L861.0441450201581 572.0441450201581 L860 573.9832714861661 L858.9558549798419 572.0441450201581 L857.0167285138339 571 L858.9558549798419 569.9558549798419 Z" fill="#fff8d8" opacity="0.32"/>
<path d="M932 116.56993576919251 L933.2005224807826 118.79947751921738 L935.4300642308075 120 L933.2005224807826 121.20052248078262 L932 123.43006423080749 L930.7994775192174 121.20052248078262 L928.5699357691925 120 L930.7994775192174 118.79947751921738 Z" fill="#fff8d8" opacity="0.22"/>
<path d="M1556 200.44426147392588 L1557.2445084841258 202.75549151587404 L1559.555738526074 204 L1557.2445084841258 205.24450848412596 L1556 207.55573852607412 L1554.7554915158742 205.24450848412596 L1552.444261473926 204 L1554.7554915158742 202.75549151587404 Z" fill="#fff8d8" opacity="0.26"/>
<path d="M1127 351.3910543741919 L1128.2631309690328 353.73686903096717 L1130.608945625808 355 L1128.2631309690328 356.26313096903283 L1127 358.6089456258081 L1125.7368690309672 356.26313096903283 L1123.391054374192 355 L1125.7368690309672 353.73686903096717 Z" fill="#fff8d8" opacity="0.50"/>
<path d="M132 855.052923127946 L132.68147690521891 856.3185230947811 L133.94707687205403 857 L132.68147690521891 857.6814769052189 L132 858.947076872054 L131.31852309478109 857.6814769052189 L130.05292312794597 857 L131.31852309478109 856.3185230947811 Z" fill="#fff8d8" opacity="0.39"/>
<path d="M967 621.6143614071937 L968.1849735074823 623.8150264925177 L970.3856385928063 625 L968.1849735074823 626.1849735074823 L967 628.3856385928063 L965.8150264925177 626.1849735074823 L963.6143614071937 625 L965.8150264925177 623.8150264925177 Z" fill="#fff8d8" opacity="0.23"/>
<path d="M702 962.5462348641606 L702.8588177975438 964.1411822024562 L704.4537651358394 965 L702.8588177975438 965.8588177975438 L702 967.4537651358394 L701.1411822024562 965.8588177975438 L699.5462348641606 965 L701.1411822024562 964.1411822024562 Z" fill="#fff8d8" opacity="0.23"/>
<path d="M1309 881.9456062211227 L1310.069037822607 883.930962177393 L1312.0543937788773 885 L1310.069037822607 886.069037822607 L1309 888.0543937788773 L1307.930962177393 886.069037822607 L1305.9456062211227 885 L1307.930962177393 883.930962177393 Z" fill="#fff8d8" opacity="0.21"/>
<path d="M1384 276.97978339019687 L1385.057075813431 278.9429241865689 L1387.0202166098031 280 L1385.057075813431 281.0570758134311 L1384 283.02021660980313 L1382.942924186569 281.0570758134311 L1380.9797833901969 280 L1382.942924186569 278.9429241865689 Z" fill="#fff8d8" opacity="0.45"/>
<path d="M308 665.0380433922408 L308.6866848127157 666.3133151872843 L309.9619566077592 667 L308.6866848127157 667.6866848127157 L308 668.9619566077592 L307.3133151872843 667.6866848127157 L306.0380433922408 667 L307.3133151872843 666.3133151872843 Z" fill="#fff8d8" opacity="0.17"/>
<path d="M1461 209.86581428021285 L1462.0969650019256 211.9030349980745 L1464.1341857197872 213 L1462.0969650019256 214.0969650019255 L1461 216.13418571978715 L1459.9030349980744 214.0969650019255 L1457.8658142802128 213 L1459.9030349980744 211.9030349980745 Z" fill="#fff8d8" opacity="0.34"/>
<path d="M1527 193.38590567348425 L1527.9149330142805 195.0850669857195 L1529.6140943265157 196 L1527.9149330142805 196.9149330142805 L1527 198.61409432651575 L1526.0850669857195 196.9149330142805 L1524.3859056734843 196 L1526.0850669857195 195.0850669857195 Z" fill="#fff8d8" opacity="0.37"/>
<path d="M1234 529.0672737686065 L1235.0264541809877 530.9735458190123 L1236.9327262313936 532 L1235.0264541809877 533.0264541809877 L1234 534.9327262313935 L1232.9735458190123 533.0264541809877 L1231.0672737686064 532 L1232.9735458190123 530.9735458190123 Z" fill="#fff8d8" opacity="0.18"/>
<path d="M791 148.928199540437 L791.725130160847 150.27486983915296 L793.0718004595631 151 L791.725130160847 151.72513016084704 L791 153.071800459563 L790.274869839153 151.72513016084704 L788.9281995404369 151 L790.274869839153 150.27486983915296 Z" fill="#fff8d8" opacity="0.54"/>
<path d="M875 796.0930874779482 L876.0174193827181 797.9825806172819 L877.9069125220518 799 L876.0174193827181 800.0174193827181 L875 801.9069125220518 L873.9825806172819 800.0174193827181 L872.0930874779482 799 L873.9825806172819 797.9825806172819 Z" fill="#fff8d8" opacity="0.43"/>
<path d="M535 46.049714982654784 L536.0325997560708 47.96740024392918 L537.9502850173452 49 L536.0325997560708 50.03259975607082 L535 51.950285017345216 L533.9674002439292 50.03259975607082 L532.0497149826548 49 L533.9674002439292 47.96740024392918 Z" fill="#fff8d8" opacity="0.51"/>
<path d="M72 963.5095859089878 L72.87164493185426 965.1283550681458 L74.49041409101216 966 L72.87164493185426 966.8716449318542 L72 968.4904140910122 L71.12835506814574 966.8716449318542 L69.50958590898784 966 L71.12835506814574 965.1283550681458 Z" fill="#fff8d8" opacity="0.21"/>
<path d="M1332 915.9028413153482 L1332.7340055396282 917.2659944603719 L1334.0971586846517 918 L1332.7340055396282 918.7340055396281 L1332 920.0971586846518 L1331.2659944603718 918.7340055396281 L1329.9028413153483 918 L1331.2659944603718 917.2659944603719 Z" fill="#fff8d8" opacity="0.31"/>
<path d="M382 145.4163325615108 L383.2542836034712 147.7457163965288 L385.5836674384892 149 L383.2542836034712 150.2542836034712 L382 152.5836674384892 L380.7457163965288 150.2542836034712 L378.4163325615108 149 L380.7457163965288 147.7457163965288 Z" fill="#fff8d8" opacity="0.27"/>
<path d="M373 247.4524255798746 L374.2416510470439 249.7583489529561 L376.5475744201254 251 L374.2416510470439 252.2416510470439 L373 254.5475744201254 L371.7583489529561 252.2416510470439 L369.4524255798746 251 L371.7583489529561 249.7583489529561 Z" fill="#fff8d8" opacity="0.45"/>
<path d="M934 343.14958811022257 L934.997644161422 345.0023558385779 L936.8504118897774 346 L934.997644161422 346.9976441614221 L934 348.85041188977743 L933.002355838578 346.9976441614221 L931.1495881102226 346 L933.002355838578 345.0023558385779 Z" fill="#fff8d8" opacity="0.51"/>
<path d="M494 774.0953865415775 L494.6666147104479 775.3333852895521 L495.9046134584225 776 L494.6666147104479 776.6666147104479 L494 777.9046134584225 L493.3333852895521 776.6666147104479 L492.0953865415775 776 L493.3333852895521 775.3333852895521 Z" fill="#fff8d8" opacity="0.53"/>
<path d="M891 163.7575189905108 L892.1348683533213 165.86513164667878 L894.2424810094892 167 L892.1348683533213 168.13486835332122 L891 170.2424810094892 L889.8651316466787 168.13486835332122 L887.7575189905108 167 L889.8651316466787 165.86513164667878 Z" fill="#fff8d8" opacity="0.22"/>
<path d="M78 561.1343034560506 L79.0029937903823 562.9970062096177 L80.86569654394945 564 L79.0029937903823 565.0029937903823 L78 566.8656965439494 L76.9970062096177 565.0029937903823 L75.13430345605055 564 L76.9970062096177 562.9970062096177 Z" fill="#fff8d8" opacity="0.24"/>
<path d="M1476 987.1686334083425 L1476.99097830708 989.0090216929199 L1478.8313665916573 990 L1476.99097830708 990.9909783070801 L1476 992.8313665916575 L1475.00902169292 990.9909783070801 L1473.1686334083427 990 L1475.00902169292 989.0090216929199 Z" fill="#fff8d8" opacity="0.19"/>
<path d="M1537 903.3346761177612 L1537.9328633587836 905.0671366412164 L1539.665323882239 906 L1537.9328633587836 906.9328633587836 L1537 908.6653238822388 L1536.0671366412164 906.9328633587836 L1534.334676117761 906 L1536.0671366412164 905.0671366412164 Z" fill="#fff8d8" opacity="0.50"/>
<path d="M1218 694.0407758440975 L1219.0357284545657 695.9642715454341 L1220.9592241559023 697 L1219.0357284545657 698.0357284545659 L1218 699.9592241559025 L1216.9642715454343 698.0357284545659 L1215.0407758440977 697 L1216.9642715454343 695.9642715454341 Z" fill="#fff8d8" opacity="0.45"/>
<path d="M829 731.1982114999676 L829.6306259750113 732.3693740249887 L830.8017885000324 733 L829.6306259750113 733.6306259750113 L829 734.8017885000324 L828.3693740249887 733.6306259750113 L827.1982114999676 733 L828.3693740249887 732.3693740249887 Z" fill="#fff8d8" opacity="0.55"/>
<path d="M124 619.4417844630311 L124.89537543793912 621.1046245620608 L126.5582155369689 622 L124.89537543793912 622.8953754379392 L124 624.5582155369689 L123.10462456206088 622.8953754379392 L121.4417844630311 622 L123.10462456206088 621.1046245620608 Z" fill="#fff8d8" opacity="0.20"/>
<path d="M930 856.4743194023462 L930.8839882091788 858.1160117908212 L932.5256805976538 859 L930.8839882091788 859.8839882091788 L930 861.5256805976538 L929.1160117908212 859.8839882091788 L927.4743194023462 859 L929.1160117908212 858.1160117908212 Z" fill="#fff8d8" opacity="0.52"/>
<path d="M618 154.20899614527988 L618.9768513491521 156.02314865084796 L620.7910038547201 157 L618.9768513491521 157.97685134915204 L618 159.79100385472012 L617.0231486508479 157.97685134915204 L615.2089961452799 157 L617.0231486508479 156.02314865084796 Z" fill="#fff8d8" opacity="0.48"/>
<path d="M611 708.2685669893569 L612.3060015537251 710.6939984462749 L614.7314330106431 712 L612.3060015537251 713.3060015537251 L611 715.7314330106431 L609.6939984462749 713.3060015537251 L607.2685669893569 712 L609.6939984462749 710.6939984462749 Z" fill="#fff8d8" opacity="0.23"/>
<path d="M1517 236.95218606324903 L1518.066734877863 238.93326512213716 L1520.047813936751 240 L1518.066734877863 241.06673487786284 L1517 243.04781393675097 L1515.933265122137 241.06673487786284 L1513.952186063249 240 L1515.933265122137 238.93326512213716 Z" fill="#fff8d8" opacity="0.18"/><circle cx="81" cy="823" r="1.6" fill="#fff" opacity="0.37"/>
<circle cx="1011" cy="670" r="2.0" fill="#fff" opacity="0.52"/>
<circle cx="1588" cy="49" r="1.6" fill="#fff" opacity="0.52"/>
<circle cx="405" cy="582" r="1.2" fill="#fff" opacity="0.24"/>
<circle cx="353" cy="98" r="1.5" fill="#fff" opacity="0.44"/>
<circle cx="320" cy="508" r="0.8" fill="#fff" opacity="0.56"/>
<circle cx="983" cy="702" r="2.3" fill="#fff" opacity="0.36"/>
<circle cx="799" cy="788" r="2.2" fill="#fff" opacity="0.23"/>
<circle cx="432" cy="162" r="1.8" fill="#fff" opacity="0.62"/>
<circle cx="1241" cy="628" r="0.8" fill="#fff" opacity="0.40"/>
<circle cx="1301" cy="350" r="1.3" fill="#fff" opacity="0.44"/>
<circle cx="1371" cy="210" r="1.9" fill="#fff" opacity="0.57"/>
<circle cx="1363" cy="560" r="1.9" fill="#fff" opacity="0.35"/>
<circle cx="1062" cy="752" r="2.3" fill="#fff" opacity="0.45"/>
<circle cx="1409" cy="854" r="1.0" fill="#fff" opacity="0.59"/>
<circle cx="231" cy="813" r="1.5" fill="#fff" opacity="0.23"/>
<circle cx="944" cy="782" r="1.4" fill="#fff" opacity="0.19"/>
<circle cx="662" cy="443" r="0.8" fill="#fff" opacity="0.31"/>
<circle cx="939" cy="945" r="0.9" fill="#fff" opacity="0.21"/>
<circle cx="1273" cy="138" r="2.2" fill="#fff" opacity="0.49"/>
<circle cx="1117" cy="575" r="1.1" fill="#fff" opacity="0.59"/>
<circle cx="1403" cy="318" r="1.4" fill="#fff" opacity="0.33"/>
<circle cx="1434" cy="404" r="1.2" fill="#fff" opacity="0.36"/>
<circle cx="1333" cy="409" r="2.0" fill="#fff" opacity="0.48"/>
<circle cx="856" cy="757" r="2.0" fill="#fff" opacity="0.36"/>
<circle cx="693" cy="671" r="1.9" fill="#fff" opacity="0.50"/>
<circle cx="863" cy="870" r="1.6" fill="#fff" opacity="0.42"/>
<circle cx="524" cy="783" r="2.1" fill="#fff" opacity="0.46"/>
<circle cx="1147" cy="859" r="2.1" fill="#fff" opacity="0.55"/>
<circle cx="1118" cy="963" r="0.8" fill="#fff" opacity="0.45"/>
<circle cx="1544" cy="199" r="1.4" fill="#fff" opacity="0.28"/>
<circle cx="404" cy="142" r="2.1" fill="#fff" opacity="0.43"/>
<circle cx="354" cy="266" r="1.9" fill="#fff" opacity="0.52"/>
<circle cx="881" cy="206" r="0.9" fill="#fff" opacity="0.38"/>
<circle cx="337" cy="291" r="0.8" fill="#fff" opacity="0.27"/>
<circle cx="749" cy="662" r="2.2" fill="#fff" opacity="0.45"/>
<circle cx="961" cy="329" r="0.8" fill="#fff" opacity="0.20"/>
<circle cx="799" cy="554" r="1.0" fill="#fff" opacity="0.41"/>
<circle cx="1056" cy="600" r="0.9" fill="#fff" opacity="0.48"/>
<circle cx="851" cy="260" r="2.4" fill="#fff" opacity="0.31"/>
<circle cx="1190" cy="224" r="1.7" fill="#fff" opacity="0.36"/>
<circle cx="1571" cy="929" r="1.2" fill="#fff" opacity="0.49"/>
<circle cx="275" cy="536" r="1.3" fill="#fff" opacity="0.60"/>
<circle cx="1512" cy="62" r="1.8" fill="#fff" opacity="0.26"/>
<circle cx="1288" cy="318" r="1.1" fill="#fff" opacity="0.36"/>
<circle cx="415" cy="665" r="1.6" fill="#fff" opacity="0.26"/>
<circle cx="476" cy="104" r="1.6" fill="#fff" opacity="0.42"/>
<circle cx="906" cy="4" r="1.2" fill="#fff" opacity="0.54"/>
<circle cx="422" cy="680" r="2.2" fill="#fff" opacity="0.56"/>
<circle cx="1160" cy="620" r="0.9" fill="#fff" opacity="0.39"/>
<circle cx="195" cy="791" r="1.2" fill="#fff" opacity="0.31"/>
<circle cx="1212" cy="84" r="1.7" fill="#fff" opacity="0.52"/>
<circle cx="1350" cy="358" r="1.7" fill="#fff" opacity="0.30"/>
<circle cx="1384" cy="764" r="1.2" fill="#fff" opacity="0.19"/>
<circle cx="1346" cy="401" r="1.5" fill="#fff" opacity="0.32"/>
<circle cx="425" cy="898" r="1.3" fill="#fff" opacity="0.40"/>
<circle cx="1007" cy="850" r="2.2" fill="#fff" opacity="0.41"/>
<circle cx="773" cy="745" r="1.4" fill="#fff" opacity="0.29"/>
<circle cx="331" cy="360" r="1.1" fill="#fff" opacity="0.19"/>
<circle cx="510" cy="776" r="0.7" fill="#fff" opacity="0.33"/>
<circle cx="1043" cy="481" r="1.0" fill="#fff" opacity="0.29"/>
<circle cx="1600" cy="742" r="1.3" fill="#fff" opacity="0.33"/>
<circle cx="215" cy="571" r="1.3" fill="#fff" opacity="0.28"/>
<circle cx="1120" cy="999" r="0.7" fill="#fff" opacity="0.56"/>
<circle cx="1351" cy="738" r="1.1" fill="#fff" opacity="0.53"/>
<circle cx="1462" cy="270" r="0.8" fill="#fff" opacity="0.44"/>
<circle cx="942" cy="896" r="1.6" fill="#fff" opacity="0.37"/>
<circle cx="1367" cy="116" r="2.2" fill="#fff" opacity="0.58"/>
<circle cx="1426" cy="791" r="1.7" fill="#fff" opacity="0.42"/>
<circle cx="802" cy="503" r="1.1" fill="#fff" opacity="0.48"/>
<circle cx="1544" cy="503" r="2.0" fill="#fff" opacity="0.25"/>
<circle cx="1391" cy="225" r="0.7" fill="#fff" opacity="0.32"/>
<circle cx="719" cy="549" r="1.4" fill="#fff" opacity="0.50"/>
<circle cx="295" cy="317" r="1.2" fill="#fff" opacity="0.36"/>
<circle cx="1287" cy="947" r="1.1" fill="#fff" opacity="0.53"/>
<circle cx="285" cy="1000" r="1.6" fill="#fff" opacity="0.59"/>
<circle cx="1065" cy="738" r="2.0" fill="#fff" opacity="0.57"/>
<circle cx="717" cy="192" r="1.4" fill="#fff" opacity="0.58"/>
<circle cx="1564" cy="874" r="0.8" fill="#fff" opacity="0.36"/>
<circle cx="1483" cy="196" r="1.4" fill="#fff" opacity="0.51"/>
<circle cx="397" cy="336" r="1.4" fill="#fff" opacity="0.25"/>
<circle cx="1216" cy="682" r="2.0" fill="#fff" opacity="0.23"/>
<circle cx="1401" cy="418" r="1.2" fill="#fff" opacity="0.27"/>
<circle cx="782" cy="404" r="2.2" fill="#fff" opacity="0.60"/>
<circle cx="1179" cy="937" r="0.9" fill="#fff" opacity="0.47"/>
<circle cx="193" cy="868" r="2.3" fill="#fff" opacity="0.32"/>
<circle cx="1589" cy="555" r="1.0" fill="#fff" opacity="0.31"/>
<circle cx="51" cy="235" r="1.3" fill="#fff" opacity="0.43"/>
<circle cx="1487" cy="40" r="2.0" fill="#fff" opacity="0.40"/>
<circle cx="380" cy="983" r="1.9" fill="#fff" opacity="0.40"/>
<circle cx="1403" cy="665" r="1.2" fill="#fff" opacity="0.41"/>
<circle cx="446" cy="731" r="2.0" fill="#fff" opacity="0.62"/>
<circle cx="834" cy="903" r="1.0" fill="#fff" opacity="0.59"/>
<circle cx="311" cy="201" r="1.9" fill="#fff" opacity="0.62"/>
<circle cx="318" cy="817" r="1.0" fill="#fff" opacity="0.53"/>
<circle cx="578" cy="96" r="2.1" fill="#fff" opacity="0.33"/>
<circle cx="302" cy="946" r="1.5" fill="#fff" opacity="0.59"/>
<circle cx="57" cy="803" r="1.5" fill="#fff" opacity="0.29"/>
<circle cx="931" cy="466" r="0.7" fill="#fff" opacity="0.25"/>
<circle cx="1062" cy="594" r="0.9" fill="#fff" opacity="0.55"/>
<circle cx="1088" cy="750" r="1.0" fill="#fff" opacity="0.28"/>
<circle cx="754" cy="673" r="0.8" fill="#fff" opacity="0.57"/>
<circle cx="637" cy="654" r="1.0" fill="#fff" opacity="0.23"/>
<circle cx="1271" cy="513" r="0.9" fill="#fff" opacity="0.61"/>
<circle cx="1444" cy="495" r="0.8" fill="#fff" opacity="0.18"/>
<circle cx="1111" cy="267" r="1.2" fill="#fff" opacity="0.59"/>
<circle cx="663" cy="456" r="2.1" fill="#fff" opacity="0.56"/>
<circle cx="301" cy="265" r="1.8" fill="#fff" opacity="0.35"/>
<circle cx="681" cy="861" r="2.0" fill="#fff" opacity="0.29"/>
<circle cx="1148" cy="969" r="1.6" fill="#fff" opacity="0.57"/>
<circle cx="1076" cy="476" r="0.7" fill="#fff" opacity="0.28"/>
<circle cx="702" cy="167" r="2.3" fill="#fff" opacity="0.41"/>
<circle cx="601" cy="470" r="1.2" fill="#fff" opacity="0.52"/>
<circle cx="525" cy="869" r="1.3" fill="#fff" opacity="0.36"/>
<circle cx="79" cy="827" r="1.8" fill="#fff" opacity="0.46"/>
<circle cx="1267" cy="496" r="0.9" fill="#fff" opacity="0.50"/>
<circle cx="770" cy="543" r="1.0" fill="#fff" opacity="0.23"/>
<circle cx="854" cy="272" r="1.6" fill="#fff" opacity="0.60"/>
<circle cx="1405" cy="745" r="1.4" fill="#fff" opacity="0.52"/>
<circle cx="1465" cy="408" r="2.3" fill="#fff" opacity="0.60"/>
<circle cx="695" cy="949" r="2.1" fill="#fff" opacity="0.39"/>
<circle cx="1170" cy="533" r="1.7" fill="#fff" opacity="0.26"/>
<circle cx="29" cy="863" r="1.1" fill="#fff" opacity="0.48"/>
<circle cx="1507" cy="590" r="1.2" fill="#fff" opacity="0.35"/>
<circle cx="427" cy="547" r="1.4" fill="#fff" opacity="0.49"/>
<circle cx="1289" cy="977" r="1.2" fill="#fff" opacity="0.29"/>
<circle cx="414" cy="218" r="1.6" fill="#fff" opacity="0.22"/>
<circle cx="923" cy="897" r="2.0" fill="#fff" opacity="0.57"/>
<circle cx="1187" cy="585" r="2.2" fill="#fff" opacity="0.59"/>
<circle cx="170" cy="974" r="1.0" fill="#fff" opacity="0.50"/>
  <rect width="1600" height="1000" fill="#000" opacity=".08"/>
</svg>