<svg xmlns="http://www.w3.org/2000/svg" viewBox="0 0 1600 900" preserveAspectRatio="xMidYMid slice">
  <defs>
    <linearGradient id="sky" x1="0" y1="0" x2="1" y2="1"><stop offset="0" stop-color="#3b2930"/><stop offset="1" stop-color="#7b4532"/></linearGradient>
    <radialGradient id="glow" cx="50%" cy="22%" r="55%"><stop offset="0" stop-color="#fff1aa" stop-opacity=".32"/><stop offset="1" stop-color="#fff1aa" stop-opacity="0"/></radialGradient>
    <filter id="soft"><feGaussianBlur stdDeviation="10"/></filter>
  </defs>
  <rect width="1600" height="900" fill="url(#sky)"/>
  <rect width="1600" height="900" fill="url(#glow)"/>
  <g opacity=".55" fill="#fff8e9">
    <circle cx="168" cy="106" r="3"/><circle cx="320" cy="188" r="2"/><circle cx="472" cy="92" r="3"/><circle cx="612" cy="156" r="2"/><circle cx="790" cy="76" r="3"/><circle cx="1012" cy="150" r="2"/><circle cx="1260" cy="98" r="3"/><circle cx="1460" cy="176" r="2"/><circle cx="1378" cy="54" r="2"/><circle cx="113" cy="292" r="2"/><circle cx="1444" cy="325" r="3"/>
  </g>
  <circle cx="1320" cy="170" r="62" fill="#fff0b5" opacity=".92"/>
  <path d="M0 700 C260 620 390 760 625 690 C850 626 1000 728 1230 650 C1396 592 1484 615 1600 570 L1600 900 L0 900 Z" fill="#e9f7ef" opacity=".92"/>
  <path d="M0 765 C235 705 425 792 612 744 C780 700 920 792 1095 736 C1290 676 1450 724 1600 690 L1600 900 L0 900 Z" fill="#ffffff" opacity=".96"/>
  
  <g transform="translate(945 440)">
    <rect x="0" y="0" width="330" height="250" rx="28" fill="#755346"/>
    <rect x="45" y="55" width="240" height="158" rx="22" fill="#271b18"/>
    <path d="M118 180 C82 132 122 94 146 52 C160 98 210 112 210 166 C210 207 174 226 137 216" fill="#ff6d4b"/>
    <path d="M152 197 C126 164 154 132 170 101 C183 135 206 150 204 178 C201 211 174 219 152 197" fill="#ffe477"/>
    <rect x="32" y="220" width="270" height="30" rx="12" fill="#a16b4d"/>
  </g><g transform="translate(235 435)"><rect x="0" y="140" width="360" height="190" rx="25" fill="#80573f"/><path d="M20 145 H340 L300 80 H60 Z" fill="#fff1c0"/><circle cx="92" cy="220" r="35" fill="#ff6f68"/><circle cx="178" cy="220" r="35" fill="#75d891"/><circle cx="264" cy="220" r="35" fill="#ffe16f"/></g>
</svg>