<svg xmlns="http://www.w3.org/2000/svg" viewBox="0 0 1600 900" preserveAspectRatio="xMidYMid slice"><defs><linearGradient id="bg7" x1="0" y1="0" x2="0" y2="1"><stop offset="0%" stop-color="#1A237E"/><stop offset="100%" stop-color="#3949AB"/></linearGradient><linearGradient id="hill17" x1="0" y1="0" x2="0" y2="1"><stop offset="0%" stop-color="#FFFFFF"/><stop offset="100%" stop-color="#E3F2FD"/></linearGradient><linearGradient id="hill27" x1="0" y1="0" x2="0" y2="1"><stop offset="0%" stop-color="#F5F5F5"/><stop offset="100%" stop-color="#BBDEFB"/></linearGradient></defs><rect width="1600" height="900" fill="url(#bg7)"/><circle cx="1300" cy="200" r="60" fill="#FFF9C4" opacity="0.9"/><circle cx="1300" cy="200" r="120" fill="#FFF9C4" opacity="0.1"/><circle cx="457" cy="332" r="1.8603817688748876" fill="#FFFFFF" opacity="0.30825723518020876"/><circle cx="282" cy="52" r="2.1938359005851877" fill="#FFFFFF" opacity="0.4418564604972306"/><circle cx="765" cy="330" r="2.0754560344661277" fill="#FFFFFF" opacity="0.3729829117811943"/><circle cx="1201" cy="383" r="1.48571681666485" fill="#FFFFFF" opacity="0.4231943206619736"/><circle cx="289" cy="28" r="1.4409097114399128" fill="#FFFFFF" opacity="0.7278265345228745"/><circle cx="1008" cy="41" r="2.3486959030826875" fill="#FFFFFF" opacity="0.32124396706313874"/><circle cx="668" cy="230" r="1.1541329884343203" fill="#FFFFFF" opacity="0.681623210284579"/><circle cx="439" cy="408" r="2.4292346150100252" fill="#FFFFFF" opacity="0.4000938882695425"/><circle cx="66" cy="145" r="1.3923403535782588" fill="#FFFFFF" opacity="0.7431564717614645"/><circle cx="1181" cy="401" r="1.594479452158463" fill="#FFFFFF" opacity="0.7404459919343511"/><circle cx="451" cy="336" r="1.0751857897960975" fill="#FFFFFF" opacity="0.7021337242998091"/><circle cx="828" cy="432" r="2.608714938871143" fill="#FFFFFF" opacity="0.35242535564092503"/><circle cx="247" cy="180" r="2.5527285551026715" fill="#FFFFFF" opacity="0.6066854569596702"/><circle cx="1410" cy="148" r="1.011729480965441" fill="#FFFFFF" opacity="0.5379045297856502"/><circle cx="1585" cy="172" r="1.3429543060236864" fill="#FFFFFF" opacity="0.32320636701306155"/><circle cx="1100" cy="171" r="2.8224546677899904" fill="#FFFFFF" opacity="0.6741323640091946"/><circle cx="1151" cy="347" r="1.1440424759231924" fill="#FFFFFF" opacity="0.595088716987855"/><circle cx="809" cy="191" r="1.422390965096775" fill="#FFFFFF" opacity="0.6924193292752978"/><circle cx="381" cy="76" r="1.266749038953398" fill="#FFFFFF" opacity="0.3127309621356637"/><circle cx="1068" cy="378" r="1.9725364837405173" fill="#FFFFFF" opacity="0.39559666102128965"/><circle cx="537" cy="189" r="2.8670252300751597" fill="#FFFFFF" opacity="0.6232193633982271"/><circle cx="1012" cy="388" r="2.75861527855613" fill="#FFFFFF" opacity="0.4080909894418728"/><circle cx="939" cy="71" r="1.5784951407131962" fill="#FFFFFF" opacity="0.34298950648834736"/><circle cx="404" cy="304" r="2.5855420148564248" fill="#FFFFFF" opacity="0.7949453884243964"/><circle cx="1378" cy="123" r="1.5779859245352168" fill="#FFFFFF" opacity="0.33141364708791843"/><circle cx="1018" cy="417" r="2.425987008390253" fill="#FFFFFF" opacity="0.39781805362889977"/><circle cx="765" cy="3" r="1.575119792036738" fill="#FFFFFF" opacity="0.5778963583649603"/><circle cx="1094" cy="30" r="1.867111473352859" fill="#FFFFFF" opacity="0.7062784194215788"/><circle cx="145" cy="73" r="2.6676213955435513" fill="#FFFFFF" opacity="0.318783999152763"/><circle cx="1240" cy="183" r="2.483079434613246" fill="#FFFFFF" opacity="0.6992888121404148"/><circle cx="1577" cy="415" r="2.236219669362657" fill="#FFFFFF" opacity="0.44676137521220954"/><circle cx="722" cy="491" r="2.82949726014348" fill="#FFFFFF" opacity="0.7891837240548554"/><circle cx="399" cy="436" r="1.1858525673288316" fill="#FFFFFF" opacity="0.6964043735931574"/><circle cx="505" cy="228" r="2.2843429744221413" fill="#FFFFFF" opacity="0.6293840123276035"/><circle cx="1188" cy="418" r="2.242777805896963" fill="#FFFFFF" opacity="0.7368192916610214"/><circle cx="338" cy="456" r="2.254563168200222" fill="#FFFFFF" opacity="0.7575354869108797"/><circle cx="1264" cy="261" r="2.2723937714134927" fill="#FFFFFF" opacity="0.5985665168529529"/><circle cx="813" cy="327" r="2.508704917591283" fill="#FFFFFF" opacity="0.7125325978720471"/><circle cx="621" cy="161" r="1.87117073922922" fill="#FFFFFF" opacity="0.3716279090217479"/><circle cx="1503" cy="215" r="2.7536537660275506" fill="#FFFFFF" opacity="0.6037826367016168"/><circle cx="647" cy="266" r="2.156863376700824" fill="#FFFFFF" opacity="0.5298946557221869"/><circle cx="1141" cy="302" r="1.2038333386928237" fill="#FFFFFF" opacity="0.5512139799949044"/><circle cx="1291" cy="483" r="2.1662550383634827" fill="#FFFFFF" opacity="0.46078101600923416"/><circle cx="1250" cy="365" r="2.5704650559275124" fill="#FFFFFF" opacity="0.6785350682920467"/><circle cx="1226" cy="89" r="1.3054888989024533" fill="#FFFFFF" opacity="0.610657074970198"/><circle cx="1523" cy="16" r="1.916409362698804" fill="#FFFFFF" opacity="0.3446387034811621"/><circle cx="1232" cy="138" r="1.6113401753392973" fill="#FFFFFF" opacity="0.3918576234861157"/><circle cx="104" cy="161" r="1.5357445597360402" fill="#FFFFFF" opacity="0.7644373130102624"/><circle cx="305" cy="372" r="1.2914918460163576" fill="#FFFFFF" opacity="0.4127126374765561"/><circle cx="962" cy="495" r="2.532496755149671" fill="#FFFFFF" opacity="0.5279513701898495"/><path d="M 0 600 Q 400 450 800 600 T 1600 550 L 1600 900 L 0 900 Z" fill="url(#hill27)"/><g transform="translate(779,614) scale(1.0142565245737942)"><rect x="-6" y="-10" width="12" height="20" fill="#795548" rx="2"/><path d="M -40 -10 L 40 -10 L 0 -50 Z" fill="#2E7D32"/><path d="M -30 -30 L 30 -30 L 0 -70 Z" fill="#43A047"/><path d="M -20 -50 L 20 -50 L 0 -90 Z" fill="#4CAF50"/><circle cx="-15" cy="-20" r="3.5" fill="#FF9800"/><circle cx="10" cy="-25" r="3.5" fill="#AB47BC"/><circle cx="-5" cy="-40" r="3.5" fill="#FFEB3B"/><circle cx="15" cy="-45" r="3.5" fill="#FFEB3B"/><circle cx="-10" cy="-60" r="3.5" fill="#F44336"/><circle cx="0" cy="-30" r="3.5" fill="#FF9800"/><circle cx="20" cy="-15" r="3.5" fill="#F44336"/><circle cx="-25" cy="-12" r="3.5" fill="#FFEB3B"/><polygon points="0,-95 3,-85 12,-85 5,-80 8,-70 0,-76 -8,-70 -5,-80 -12,-85 -3,-85" fill="#FFC107"/></g><g transform="translate(119,645) scale(1.0771216764848863)"><rect x="-6" y="-10" width="12" height="20" fill="#795548" rx="2"/><path d="M -40 -10 L 40 -10 L 0 -50 Z" fill="#2E7D32"/><path d="M -30 -30 L 30 -30 L 0 -70 Z" fill="#43A047"/><path d="M -20 -50 L 20 -50 L 0 -90 Z" fill="#4CAF50"/><circle cx="-15" cy="-20" r="3.5" fill="#FFEB3B"/><circle cx="10" cy="-25" r="3.5" fill="#FF9800"/><circle cx="-5" cy="-40" r="3.5" fill="#AB47BC"/><circle cx="15" cy="-45" r="3.5" fill="#FFEB3B"/><circle cx="-10" cy="-60" r="3.5" fill="#29B6F6"/><circle cx="0" cy="-30" r="3.5" fill="#FFEB3B"/><circle cx="20" cy="-15" r="3.5" fill="#FFEB3B"/><circle cx="-25" cy="-12" r="3.5" fill="#FF9800"/><polygon points="0,-95 3,-85 12,-85 5,-80 8,-70 0,-76 -8,-70 -5,-80 -12,-85 -3,-85" fill="#FFC107"/></g><g transform="translate(1464,610) scale(0.8974691251399699)"><rect x="-6" y="-10" width="12" height="20" fill="#795548" rx="2"/><path d="M -40 -10 L 40 -10 L 0 -50 Z" fill="#2E7D32"/><path d="M -30 -30 L 30 -30 L 0 -70 Z" fill="#43A047"/><path d="M -20 -50 L 20 -50 L 0 -90 Z" fill="#4CAF50"/><circle cx="-15" cy="-20" r="3.5" fill="#FF9800"/><circle cx="10" cy="-25" r="3.5" fill="#AB47BC"/><circle cx="-5" cy="-40" r="3.5" fill="#29B6F6"/><circle cx="15" cy="-45" r="3.5" fill="#FFEB3B"/><circle cx="-10" cy="-60" r="3.5" fill="#FF9800"/><circle cx="0" cy="-30" r="3.5" fill="#F44336"/><circle cx="20" cy="-15" r="3.5" fill="#FF9800"/><circle cx="-25" cy="-12" r="3.5" fill="#29B6F6"/><polygon points="0,-95 3,-85 12,-85 5,-80 8,-70 0,-76 -8,-70 -5,-80 -12,-85 -3,-85" fill="#FFC107"/></g><g transform="translate(162,640) scale(0.9736294072900035)"><rect x="-6" y="-10" width="12" height="20" fill="#795548" rx="2"/><path d="M -40 -10 L 40 -10 L 0 -50 Z" fill="#2E7D32"/><path d="M -30 -30 L 30 -30 L 0 -70 Z" fill="#43A047"/><path d="M -20 -50 L 20 -50 L 0 -90 Z" fill="#4CAF50"/><circle cx="-15" cy="-20" r="3.5" fill="#FFEB3B"/><circle cx="10" cy="-25" r="3.5" fill="#29B6F6"/><circle cx="-5" cy="-40" r="3.5" fill="#AB47BC"/><circle cx="15" cy="-45" r="3.5" fill="#FF9800"/><circle cx="-10" cy="-60" r="3.5" fill="#FF9800"/><circle cx="0" cy="-30" r="3.5" fill="#F44336"/><circle cx="20" cy="-15" r="3.5" fill="#29B6F6"/><circle cx="-25" cy="-12" r="3.5" fill="#F44336"/><polygon points="0,-95 3,-85 12,-85 5,-80 8,-70 0,-76 -8,-70 -5,-80 -12,-85 -3,-85" fill="#FFC107"/></g><g transform="translate(1351,585) scale(0.8820487500310783)"><rect x="-6" y="-10" width="12" height="20" fill="#795548" rx="2"/><path d="M -40 -10 L 40 -10 L 0 -50 Z" fill="#2E7D32"/><path d="M -30 -30 L 30 -30 L 0 -70 Z" fill="#43A047"/><path d="M -20 -50 L 20 -50 L 0 -90 Z" fill="#4CAF50"/><circle cx="-15" cy="-20" r="3.5" fill="#AB47BC"/><circle cx="10" cy="-25" r="3.5" fill="#AB47BC"/><circle cx="-5" cy="-40" r="3.5" fill="#AB47BC"/><circle cx="15" cy="-45" r="3.5" fill="#29B6F6"/><circle cx="-10" cy="-60" r="3.5" fill="#AB47BC"/><circle cx="0" cy="-30" r="3.5" fill="#FF9800"/><circle cx="20" cy="-15" r="3.5" fill="#29B6F6"/><circle cx="-25" cy="-12" r="3.5" fill="#F44336"/><polygon points="0,-95 3,-85 12,-85 5,-80 8,-70 0,-76 -8,-70 -5,-80 -12,-85 -3,-85" fill="#FFC107"/></g><g transform="translate(1042,595) scale(1.0474745938305066)"><rect x="-6" y="-10" width="12" height="20" fill="#795548" rx="2"/><path d="M -40 -10 L 40 -10 L 0 -50 Z" fill="#2E7D32"/><path d="M -30 -30 L 30 -30 L 0 -70 Z" fill="#43A047"/><path d="M -20 -50 L 20 -50 L 0 -90 Z" fill="#4CAF50"/><circle cx="-15" cy="-20" r="3.5" fill="#F44336"/><circle cx="10" cy="-25" r="3.5" fill="#FFEB3B"/><circle cx="-5" cy="-40" r="3.5" fill="#FFEB3B"/><circle cx="15" cy="-45" r="3.5" fill="#29B6F6"/><circle cx="-10" cy="-60" r="3.5" fill="#29B6F6"/><circle cx="0" cy="-30" r="3.5" fill="#FFEB3B"/><circle cx="20" cy="-15" r="3.5" fill="#29B6F6"/><circle cx="-25" cy="-12" r="3.5" fill="#AB47BC"/><polygon points="0,-95 3,-85 12,-85 5,-80 8,-70 0,-76 -8,-70 -5,-80 -12,-85 -3,-85" fill="#FFC107"/></g><g transform="translate(975,580) scale(0.8803833913939171)"><rect x="-6" y="-10" width="12" height="20" fill="#795548" rx="2"/><path d="M -40 -10 L 40 -10 L 0 -50 Z" fill="#2E7D32"/><path d="M -30 -30 L 30 -30 L 0 -70 Z" fill="#43A047"/><path d="M -20 -50 L 20 -50 L 0 -90 Z" fill="#4CAF50"/><circle cx="-15" cy="-20" r="3.5" fill="#F44336"/><circle cx="10" cy="-25" r="3.5" fill="#AB47BC"/><circle cx="-5" cy="-40" r="3.5" fill="#FF9800"/><circle cx="15" cy="-45" r="3.5" fill="#AB47BC"/><circle cx="-10" cy="-60" r="3.5" fill="#29B6F6"/><circle cx="0" cy="-30" r="3.5" fill="#29B6F6"/><circle cx="20" cy="-15" r="3.5" fill="#29B6F6"/><circle cx="-25" cy="-12" r="3.5" fill="#FFEB3B"/><polygon points="0,-95 3,-85 12,-85 5,-80 8,-70 0,-76 -8,-70 -5,-80 -12,-85 -3,-85" fill="#FFC107"/></g><g transform="translate(1110,635) scale(0.8846856846463776)"><rect x="-6" y="-10" width="12" height="20" fill="#795548" rx="2"/><path d="M -40 -10 L 40 -10 L 0 -50 Z" fill="#2E7D32"/><path d="M -30 -30 L 30 -30 L 0 -70 Z" fill="#43A047"/><path d="M -20 -50 L 20 -50 L 0 -90 Z" fill="#4CAF50"/><circle cx="-15" cy="-20" r="3.5" fill="#FF9800"/><circle cx="10" cy="-25" r="3.5" fill="#F44336"/><circle cx="-5" cy="-40" r="3.5" fill="#FF9800"/><circle cx="15" cy="-45" r="3.5" fill="#FFEB3B"/><circle cx="-10" cy="-60" r="3.5" fill="#F44336"/><circle cx="0" cy="-30" r="3.5" fill="#29B6F6"/><circle cx="20" cy="-15" r="3.5" fill="#FF9800"/><circle cx="-25" cy="-12" r="3.5" fill="#29B6F6"/><polygon points="0,-95 3,-85 12,-85 5,-80 8,-70 0,-76 -8,-70 -5,-80 -12,-85 -3,-85" fill="#FFC107"/></g><path d="M 0 700 Q 600 550 1200 750 T 1600 650 L 1600 900 L 0 900 Z" fill="url(#hill17)"/><g transform="translate(800,750) scale(4.0)"><rect x="-40" y="-40" width="80" height="40" fill="#795548"/><rect x="-10" y="-20" width="20" height="20" fill="#FF9800" rx="2"/><circle cx="6" cy="-10" r="2" fill="#FFE082"/><rect x="-30" y="-25" width="12" height="12" fill="#FFF59D" rx="1"/><rect x="18" y="-25" width="12" height="12" fill="#FFF59D" rx="1"/><circle cx="0" cy="-10" r="4" fill="none" stroke="#4CAF50" stroke-width="2"/><circle cx="0" cy="-14" r="1" fill="#F44336"/><path d="M -50 -40 L 0 -80 L 50 -40 Z" fill="#D32F2F"/><path d="M -50 -40 L 0 -80 L 50 -40" fill="none" stroke="#FFFFFF" stroke-width="8" stroke-linecap="round" stroke-linejoin="round"/></g><g transform="translate(500,780) scale(2.0)"><rect x="-6" y="-10" width="12" height="20" fill="#795548" rx="2"/><path d="M -40 -10 L 40 -10 L 0 -50 Z" fill="#2E7D32"/><path d="M -30 -30 L 30 -30 L 0 -70 Z" fill="#43A047"/><path d="M -20 -50 L 20 -50 L 0 -90 Z" fill="#4CAF50"/><circle cx="-15" cy="-20" r="3.5" fill="#F44336"/><circle cx="10" cy="-25" r="3.5" fill="#F44336"/><circle cx="-5" cy="-40" r="3.5" fill="#FF9800"/><circle cx="15" cy="-45" r="3.5" fill="#29B6F6"/><circle cx="-10" cy="-60" r="3.5" fill="#FF9800"/><circle cx="0" cy="-30" r="3.5" fill="#29B6F6"/><circle cx="20" cy="-15" r="3.5" fill="#29B6F6"/><circle cx="-25" cy="-12" r="3.5" fill="#FF9800"/><polygon points="0,-95 3,-85 12,-85 5,-80 8,-70 0,-76 -8,-70 -5,-80 -12,-85 -3,-85" fill="#FFC107"/></g><g transform="translate(1100,760) scale(1.8)"><rect x="-6" y="-10" width="12" height="20" fill="#795548" rx="2"/><path d="M -40 -10 L 40 -10 L 0 -50 Z" fill="#2E7D32"/><path d="M -30 -30 L 30 -30 L 0 -70 Z" fill="#43A047"/><path d="M -20 -50 L 20 -50 L 0 -90 Z" fill="#4CAF50"/><circle cx="-15" cy="-20" r="3.5" fill="#F44336"/><circle cx="10" cy="-25" r="3.5" fill="#FFEB3B"/><circle cx="-5" cy="-40" r="3.5" fill="#FFEB3B"/><circle cx="15" cy="-45" r="3.5" fill="#FF9800"/><circle cx="-10" cy="-60" r="3.5" fill="#AB47BC"/><circle cx="0" cy="-30" r="3.5" fill="#FFEB3B"/><circle cx="20" cy="-15" r="3.5" fill="#FF9800"/><circle cx="-25" cy="-12" r="3.5" fill="#FF9800"/><polygon points="0,-95 3,-85 12,-85 5,-80 8,-70 0,-76 -8,-70 -5,-80 -12,-85 -3,-85" fill="#FFC107"/></g><g transform="translate(1000,820) scale(1.5)"><circle cx="0" cy="-20" r="20" fill="#FFFFFF"/><circle cx="0" cy="-55" r="16" fill="#FFFFFF"/><circle cx="0" cy="-85" r="12" fill="#FFFFFF"/><rect x="-15" y="-95" width="30" height="4" fill="#212121" rx="2"/><rect x="-10" y="-115" width="20" height="20" fill="#212121"/><rect x="-10" y="-99" width="20" height="4" fill="#F44336"/><circle cx="-4" cy="-87" r="1.5" fill="#212121"/><circle cx="4" cy="-87" r="1.5" fill="#212121"/><path d="M 0 -83 L 15 -78 L 0 -77 Z" fill="#FF9800"/><path d="M -12 -70 Q 0 -65 12 -70 L 14 -60 Q 0 -55 -14 -60 Z" fill="#F44336"/><path d="M 8 -65 L 12 -45 L 6 -45 Z" fill="#F44336"/><circle cx="0" cy="-60" r="1.5" fill="#212121"/><circle cx="0" cy="-50" r="1.5" fill="#212121"/><circle cx="0" cy="-25" r="2" fill="#212121"/><circle cx="0" cy="-10" r="2" fill="#212121"/></g><g transform="translate(650,800) scale(1.2)"><rect x="-15" y="-30" width="30" height="30" fill="#9C27B0" rx="2"/><rect x="-4" y="-30" width="8" height="30" fill="#00E676"/><rect x="-15" y="-19" width="30" height="8" fill="#00E676"/><path d="M -2 -30 C -15 -45 0 -45 0 -30 Z" fill="#00E676"/><path d="M 2 -30 C 15 -45 0 -45 0 -30 Z" fill="#00E676"/></g><g transform="translate(700,810) scale(0.9)"><rect x="-15" y="-30" width="30" height="30" fill="#2196F3" rx="2"/><rect x="-4" y="-30" width="8" height="30" fill="#F44336"/><rect x="-15" y="-19" width="30" height="8" fill="#F44336"/><path d="M -2 -30 C -15 -45 0 -45 0 -30 Z" fill="#F44336"/><path d="M 2 -30 C 15 -45 0 -45 0 -30 Z" fill="#F44336"/></g><circle cx="560" cy="334" r="3.0207117331656828" fill="#FFFFFF" opacity="0.5141610871469411"/><circle cx="1228" cy="344" r="5.0769167525732275" fill="#FFFFFF" opacity="0.5034446028432582"/><circle cx="1520" cy="405" r="3.0357101726183404" fill="#FFFFFF" opacity="0.5502963444381646"/><circle cx="1356" cy="490" r="3.217994473448973" fill="#FFFFFF" opacity="0.8518813038800127"/><circle cx="1143" cy="510" r="4.50702160433098" fill="#FFFFFF" opacity="0.5766423515932183"/><circle cx="468" cy="682" r="2.56029309365646" fill="#FFFFFF" opacity="0.5975383236272757"/><circle cx="1552" cy="779" r="2.139199370016424" fill="#FFFFFF" opacity="0.5912724285947811"/><circle cx="598" cy="569" r="3.921911313067842" fill="#FFFFFF" opacity="0.6544807852955281"/><circle cx="847" cy="271" r="3.811023622359593" fill="#FFFFFF" opacity="0.7196594138012763"/><circle cx="1034" cy="360" r="5.588485337149808" fill="#FFFFFF" opacity="0.8079870092476722"/><circle cx="1483" cy="566" r="3.6213734364891583" fill="#FFFFFF" opacity="0.8062377309827293"/><circle cx="236" cy="616" r="5.0323180294533625" fill="#FFFFFF" opacity="0.7348427871367156"/><circle cx="1366" cy="457" r="5.347703305752166" fill="#FFFFFF" opacity="0.8613274858730727"/><circle cx="1155" cy="61" r="4.075367662678355" fill="#FFFFFF" opacity="0.7448774219557333"/><circle cx="379" cy="119" r="3.091836121420047" fill="#FFFFFF" opacity="0.8722211541881862"/><circle cx="821" cy="348" r="5.498028849388424" fill="#FFFFFF" opacity="0.8935114486327751"/><circle cx="1063" cy="653" r="3.4811655563510464" fill="#FFFFFF" opacity="0.6055301238059223"/><circle cx="137" cy="396" r="2.655906199604588" fill="#FFFFFF" opacity="0.788085004901041"/><circle cx="616" cy="807" r="4.068843624398477" fill="#FFFFFF" opacity="0.7588371305263576"/><circle cx="1405" cy="633" r="3.1008874025694624" fill="#FFFFFF" opacity="0.6652422464467393"/><circle cx="0" cy="122" r="5.517155524985954" fill="#FFFFFF" opacity="0.8810842268670107"/><circle cx="1043" cy="789" r="3.0012152668990058" fill="#FFFFFF" opacity="0.8644849345466099"/><circle cx="75" cy="669" r="3.3903715327628565" fill="#FFFFFF" opacity="0.7414736284176193"/><circle cx="1561" cy="377" r="4.29979830460792" fill="#FFFFFF" opacity="0.8746884715598827"/><circle cx="324" cy="681" r="5.701619969548534" fill="#FFFFFF" opacity="0.5104681982364373"/><circle cx="249" cy="802" r="4.79684085690758" fill="#FFFFFF" opacity="0.7145181386182808"/><circle cx="522" cy="140" r="2.872239956424608" fill="#FFFFFF" opacity="0.8283530364441192"/><circle cx="1209" cy="141" r="3.3144273298776947" fill="#FFFFFF" opacity="0.6458236180036161"/><circle cx="607" cy="766" r="3.048767080778348" fill="#FFFFFF" opacity="0.8797214717793025"/><circle cx="1352" cy="71" r="5.8137146912231525" fill="#FFFFFF" opacity="0.5069483698864576"/><circle cx="818" cy="551" r="5.59559461985681" fill="#FFFFFF" opacity="0.7374512007478776"/><circle cx="1332" cy="609" r="3.2254741917233916" fill="#FFFFFF" opacity="0.5280221699701991"/><circle cx="484" cy="267" r="4.26137543051059" fill="#FFFFFF" opacity="0.8786437545816452"/><circle cx="739" cy="332" r="5.762951483142281" fill="#FFFFFF" opacity="0.8102084258462249"/><circle cx="1359" cy="716" r="5.800488556640113" fill="#FFFFFF" opacity="0.5885884594974351"/><circle cx="1252" cy="72" r="2.5737666385354525" fill="#FFFFFF" opacity="0.6635283035589161"/><circle cx="898" cy="308" r="2.631975489947187" fill="#FFFFFF" opacity="0.5296717696845915"/><circle cx="1154" cy="42" r="3.205611873152826" fill="#FFFFFF" opacity="0.6388978476830491"/><circle cx="1225" cy="621" r="2.920089896690045" fill="#FFFFFF" opacity="0.6240988433781757"/><circle cx="465" cy="255" r="2.840773119664785" fill="#FFFFFF" opacity="0.62308283691178"/><circle cx="1298" cy="66" r="5.527323524300113" fill="#FFFFFF" opacity="0.5537242316646633"/><circle cx="1441" cy="851" r="2.343828453226855" fill="#FFFFFF" opacity="0.8280130584800027"/><circle cx="325" cy="208" r="3.876273235218851" fill="#FFFFFF" opacity="0.6128823704473778"/><circle cx="52" cy="744" r="4.815607711874824" fill="#FFFFFF" opacity="0.6878979076486411"/><circle cx="83" cy="665" r="4.22156340786702" fill="#FFFFFF" opacity="0.7245625581340907"/><circle cx="472" cy="191" r="2.1019802285514273" fill="#FFFFFF" opacity="0.5708429197108363"/><circle cx="319" cy="281" r="2.5433161633861654" fill="#FFFFFF" opacity="0.7970575971669001"/><circle cx="122" cy="557" r="5.000139712507325" fill="#FFFFFF" opacity="0.7968730968652524"/><circle cx="1517" cy="831" r="2.2342037632388383" fill="#FFFFFF" opacity="0.8832369138775177"/><circle cx="1212" cy="541" r="5.717765544483884" fill="#FFFFFF" opacity="0.636479281876922"/><circle cx="676" cy="869" r="3.9446774361292407" fill="#FFFFFF" opacity="0.8970335093435695"/><circle cx="1024" cy="574" r="4.966048639007571" fill="#FFFFFF" opacity="0.7006467760349614"/><circle cx="1561" cy="278" r="4.502606300316347" fill="#FFFFFF" opacity="0.7653170347701022"/><circle cx="935" cy="555" r="4.151314833977922" fill="#FFFFFF" opacity="0.6205666424985741"/><circle cx="1200" cy="505" r="5.05487126209443" fill="#FFFFFF" opacity="0.8907524766494448"/><circle cx="173" cy="684" r="2.2253651141593913" fill="#FFFFFF" opacity="0.8046333541336832"/><circle cx="970" cy="488" r="4.2582207713593565" fill="#FFFFFF" opacity="0.5285245267318601"/><circle cx="535" cy="391" r="4.413809445715808" fill="#FFFFFF" opacity="0.5323895910117107"/><circle cx="1080" cy="386" r="5.728907781881643" fill="#FFFFFF" opacity="0.5295882717618755"/><circle cx="1071" cy="373" r="5.752428818458688" fill="#FFFFFF" opacity="0.5790878881116983"/><circle cx="465" cy="598" r="2.544355638091723" fill="#FFFFFF" opacity="0.7911404732853093"/><circle cx="1431" cy="180" r="3.8384670484903105" fill="#FFFFFF" opacity="0.6006127426512666"/><circle cx="736" cy="124" r="4.717737874953426" fill="#FFFFFF" opacity="0.7766829500253221"/><circle cx="384" cy="524" r="3.0257379580161494" fill="#FFFFFF" opacity="0.7599826049381293"/><circle cx="1372" cy="442" r="2.9043492659818653" fill="#FFFFFF" opacity="0.6337877521834179"/><circle cx="563" cy="239" r="2.225220366177925" fill="#FFFFFF" opacity="0.7626699443650526"/><circle cx="1464" cy="95" r="3.2447635624436235" fill="#FFFFFF" opacity="0.7182491529351724"/><circle cx="139" cy="879" r="4.782001126426136" fill="#FFFFFF" opacity="0.5767813511321543"/><circle cx="565" cy="380" r="4.386422974198853" fill="#FFFFFF" opacity="0.8045079763665379"/><circle cx="203" cy="275" r="5.815523986185024" fill="#FFFFFF" opacity="0.8593966309209919"/><circle cx="1262" cy="377" r="4.580772015482804" fill="#FFFFFF" opacity="0.8418400161093753"/><circle cx="1407" cy="187" r="3.4430150421013965" fill="#FFFFFF" opacity="0.504890633050936"/><circle cx="26" cy="611" r="4.848870380355646" fill="#FFFFFF" opacity="0.8105863839622864"/><circle cx="487" cy="761" r="5.562710742282931" fill="#FFFFFF" opacity="0.7475481950768982"/><circle cx="179" cy="692" r="5.324506143658752" fill="#FFFFFF" opacity="0.6540323685056465"/><circle cx="936" cy="180" r="5.9664499384122625" fill="#FFFFFF" opacity="0.747649800629098"/><circle cx="894" cy="227" r="2.7214548746865526" fill="#FFFFFF" opacity="0.6359971093653272"/><circle cx="1312" cy="244" r="4.640906915613767" fill="#FFFFFF" opacity="0.7756529459202586"/><circle cx="331" cy="243" r="5.175070726886714" fill="#FFFFFF" opacity="0.7194158383640182"/><circle cx="3" cy="491" r="2.8402729562509523" fill="#FFFFFF" opacity="0.5867505121121969"/><circle cx="390" cy="558" r="3.0195572117156493" fill="#FFFFFF" opacity="0.5210760691071996"/><circle cx="1329" cy="468" r="4.143533475101371" fill="#FFFFFF" opacity="0.8740915870718486"/><circle cx="909" cy="682" r="4.981663989572878" fill="#FFFFFF" opacity="0.61652971330323"/><circle cx="913" cy="529" r="5.162542153842028" fill="#FFFFFF" opacity="0.6364681949895299"/><circle cx="840" cy="31" r="2.0574412132658644" fill="#FFFFFF" opacity="0.882596835682087"/><circle cx="1402" cy="620" r="5.12329955178676" fill="#FFFFFF" opacity="0.8121755980956675"/><circle cx="1221" cy="418" r="5.402762266106453" fill="#FFFFFF" opacity="0.8394795317946322"/><circle cx="1051" cy="255" r="3.2871439280281898" fill="#FFFFFF" opacity="0.5650114332013317"/><circle cx="1446" cy="184" r="4.35721607876916" fill="#FFFFFF" opacity="0.803263163420086"/><circle cx="396" cy="264" r="2.799126423666915" fill="#FFFFFF" opacity="0.8221495038727422"/><circle cx="500" cy="92" r="3.6725768376050656" fill="#FFFFFF" opacity="0.5056149539760537"/><circle cx="262" cy="699" r="2.403178221525601" fill="#FFFFFF" opacity="0.8259532996267305"/><circle cx="1514" cy="455" r="3.9324476584130794" fill="#FFFFFF" opacity="0.8328332140632451"/><circle cx="1477" cy="346" r="4.597434161981802" fill="#FFFFFF" opacity="0.6828493773281588"/><circle cx="1061" cy="358" r="4.981466081148573" fill="#FFFFFF" opacity="0.5415365986807821"/><circle cx="110" cy="302" r="4.394011831467752" fill="#FFFFFF" opacity="0.6072408737965619"/><circle cx="834" cy="608" r="3.362352909415775" fill="#FFFFFF" opacity="0.5202983539107342"/><circle cx="921" cy="461" r="5.295197439650062" fill="#FFFFFF" opacity="0.7201152434301485"/><circle cx="663" cy="398" r="5.015505800088977" fill="#FFFFFF" opacity="0.6880167380121582"/><circle cx="1319" cy="17" r="2.8246827326709454" fill="#FFFFFF" opacity="0.660724118174258"/><circle cx="277" cy="6" r="4.678064043563895" fill="#FFFFFF" opacity="0.6402472235340555"/><circle cx="1544" cy="805" r="3.795931147821221" fill="#FFFFFF" opacity="0.8975127558262495"/><circle cx="432" cy="668" r="5.981101425097954" fill="#FFFFFF" opacity="0.6246672596727161"/><circle cx="242" cy="325" r="2.784563964275956" fill="#FFFFFF" opacity="0.8965648132711208"/><circle cx="1368" cy="434" r="4.4944429677063695" fill="#FFFFFF" opacity="0.7515799827138017"/><circle cx="1453" cy="111" r="4.7664347851492455" fill="#FFFFFF" opacity="0.6753370975409698"/><circle cx="84" cy="36" r="5.668899755632378" fill="#FFFFFF" opacity="0.885590981034129"/><circle cx="595" cy="93" r="3.999510472165212" fill="#FFFFFF" opacity="0.7385957689536764"/><circle cx="473" cy="236" r="3.391833771088055" fill="#FFFFFF" opacity="0.820472170688535"/><circle cx="688" cy="854" r="5.605443438802953" fill="#FFFFFF" opacity="0.5038386175105768"/><circle cx="297" cy="339" r="4.760901439988704" fill="#FFFFFF" opacity="0.8394447217023584"/><circle cx="461" cy="486" r="5.112481805030583" fill="#FFFFFF" opacity="0.5876167943931712"/><circle cx="1404" cy="607" r="5.246049876488707" fill="#FFFFFF" opacity="0.5382534278969064"/><circle cx="798" cy="429" r="4.2191938299738005" fill="#FFFFFF" opacity="0.7539583885531261"/><circle cx="1032" cy="485" r="3.8619066099928268" fill="#FFFFFF" opacity="0.8778528598362675"/><circle cx="79" cy="708" r="4.16969087314876" fill="#FFFFFF" opacity="0.6122771547079175"/><circle cx="1520" cy="201" r="2.1015208401180767" fill="#FFFFFF" opacity="0.8372597103132928"/><circle cx="545" cy="153" r="4.9676267591051" fill="#FFFFFF" opacity="0.7974519492336858"/><circle cx="1560" cy="532" r="5.386350571197282" fill="#FFFFFF" opacity="0.5427364657071011"/><circle cx="1194" cy="861" r="2.937819177899214" fill="#FFFFFF" opacity="0.6106152656093653"/><circle cx="755" cy="581" r="3.361299988429076" fill="#FFFFFF" opacity="0.7335236035216803"/><circle cx="341" cy="513" r="2.553801872486737" fill="#FFFFFF" opacity="0.5960302707879234"/><circle cx="385" cy="357" r="2.127402597998678" fill="#FFFFFF" opacity="0.5578062929223591"/><circle cx="1118" cy="759" r="5.7291440026055325" fill="#FFFFFF" opacity="0.5191517137640035"/><circle cx="396" cy="404" r="5.069797475178536" fill="#FFFFFF" opacity="0.642937405017155"/><circle cx="449" cy="849" r="2.8807943239492735" fill="#FFFFFF" opacity="0.8458245551018492"/><circle cx="1407" cy="881" r="2.5072523351467515" fill="#FFFFFF" opacity="0.6207907842481727"/><circle cx="958" cy="268" r="2.1134612591398825" fill="#FFFFFF" opacity="0.7489503333913465"/><circle cx="147" cy="817" r="4.285739172625932" fill="#FFFFFF" opacity="0.6811897326878374"/><circle cx="1258" cy="100" r="5.909128620718662" fill="#FFFFFF" opacity="0.7478464600505773"/><circle cx="1293" cy="50" r="3.4055474808788726" fill="#FFFFFF" opacity="0.8199356401202658"/><circle cx="179" cy="121" r="4.7773788099678125" fill="#FFFFFF" opacity="0.7284661205017455"/><circle cx="473" cy="585" r="5.288238607220585" fill="#FFFFFF" opacity="0.7409807689653505"/><circle cx="318" cy="859" r="4.5125856816384005" fill="#FFFFFF" opacity="0.5064425519882854"/><circle cx="1504" cy="725" r="3.0757245487789757" fill="#FFFFFF" opacity="0.5635188518932788"/><circle cx="1042" cy="126" r="4.974020875397069" fill="#FFFFFF" opacity="0.7481637684979794"/><circle cx="1119" cy="558" r="5.827931346838293" fill="#FFFFFF" opacity="0.8635575824129993"/><circle cx="1438" cy="6" r="3.5952002508508225" fill="#FFFFFF" opacity="0.6420196933306284"/><circle cx="1504" cy="274" r="4.954636714554618" fill="#FFFFFF" opacity="0.8816139433488318"/><circle cx="477" cy="204" r="2.4686522255760908" fill="#FFFFFF" opacity="0.6016906707446115"/><circle cx="1508" cy="760" r="3.402513860691089" fill="#FFFFFF" opacity="0.8099425142762253"/><circle cx="243" cy="99" r="5.432099801976264" fill="#FFFFFF" opacity="0.7443744734565529"/><circle cx="1336" cy="125" r="3.4672594497270723" fill="#FFFFFF" opacity="0.6419750754928616"/><circle cx="1104" cy="658" r="3.1373694334607216" fill="#FFFFFF" opacity="0.8678981794375482"/><circle cx="724" cy="446" r="4.242946742236031" fill="#FFFFFF" opacity="0.7728257896810351"/><circle cx="855" cy="680" r="5.946310173485269" fill="#FFFFFF" opacity="0.7430063156222045"/><circle cx="418" cy="419" r="5.966822012870526" fill="#FFFFFF" opacity="0.5946653793325892"/><circle cx="626" cy="659" r="3.0145828317261882" fill="#FFFFFF" opacity="0.7397727038701097"/><circle cx="482" cy="884" r="4.930408883180323" fill="#FFFFFF" opacity="0.7299444141945366"/><circle cx="1066" cy="108" r="4.679914536969696" fill="#FFFFFF" opacity="0.875058283859986"/></svg>