<svg xmlns="http://www.w3.org/2000/svg" viewBox="0 0 1200 800" width="1200" height="800">
  <defs>
    <radialGradient id="g" cx="50%" cy="42%" r="75%">
      <stop offset="0" stop-color="#593129"/>
      <stop offset="1" stop-color="#301d1a"/>
    </radialGradient>
    <pattern id="snow" width="120" height="120" patternUnits="userSpaceOnUse">
      <circle cx="20" cy="28" r="2.4" fill="#fff" opacity=".55"/>
      <circle cx="90" cy="70" r="1.8" fill="#fff" opacity=".45"/>
      <circle cx="64" cy="18" r="1.3" fill="#fff" opacity=".35"/>
      <circle cx="42" cy="100" r="1.7" fill="#fff" opacity=".4"/>
    </pattern>
    <linearGradient id="shine" x1="0" x2="1" y1="0" y2="1">
      <stop offset="0" stop-color="#ffffff" stop-opacity=".16"/>
      <stop offset="1" stop-color="#ffffff" stop-opacity="0"/>
    </linearGradient>
  </defs>
  <rect width="1200" height="800" fill="url(#g)"/>
  <rect width="1200" height="800" fill="url(#snow)"/>
  <circle cx="-60" cy="820" r="360" fill="#fff" opacity=".08"/>
  <circle cx="1260" cy="-70" r="390" fill="#ffb45f" opacity=".10"/>
  
<g transform="translate(650 410)">
 <rect x="-190" y="-90" width="380" height="260" rx="28" fill="#6e3d2d"/>
 <rect x="-120" y="-25" width="240" height="170" rx="90" fill="#1f1715"/>
 <path d="M-35 110 C-100 45 -35 15 -45 -45 C30 8 55 38 36 110z" fill="#ff634b"/>
 <path d="M5 110 C-40 62 8 25 5 -18 C61 35 75 68 46 110z" fill="#ffd064"/>
 <path d="M-155 -115 h310" stroke="#fff2c8" stroke-width="16" stroke-linecap="round"/>
 <path d="M-120 -148 v70M0 -160v82M120-148v70" stroke="#ffdb6e" stroke-width="18" stroke-linecap="round"/>
</g>
  <rect width="1200" height="800" fill="url(#shine)"/>
</svg>