<svg xmlns="http://www.w3.org/2000/svg" viewBox="0 0 1600 1000" preserveAspectRatio="xMidYMid slice">
  <defs>
    <linearGradient id="g" x1="0" y1="0" x2="1" y2="1">
      <stop offset="0" stop-color="#25323b"/>
      <stop offset=".58" stop-color="#315060"/>
      <stop offset="1" stop-color="#25323b"/>
    </linearGradient>
    <radialGradient id="warm" cx=".18" cy=".12" r=".62">
      <stop offset="0" stop-color="#e8f7ff" stop-opacity=".32"/>
      <stop offset="1" stop-color="#e8f7ff" stop-opacity="0"/>
    </radialGradient>
    <radialGradient id="cool" cx=".86" cy=".24" r=".58">
      <stop offset="0" stop-color="#ffd377" stop-opacity=".24"/>
      <stop offset="1" stop-color="#ffd377" stop-opacity="0"/>
    </radialGradient>
  </defs>
  <rect width="1600" height="1000" fill="url(#g)"/>
  <rect width="1600" height="1000" fill="url(#warm)"/>
  <rect width="1600" height="1000" fill="url(#cool)"/>
  <circle cx="1280" cy="820" r="360" fill="#ffffff" opacity=".06"/>
  <circle cx="130" cy="930" r="310" fill="#ffffff" opacity=".05"/>
  <circle cx="1049" cy="804" r="193" fill="#82e3ad" opacity="0.17"/>
<circle cx="794" cy="783" r="183" fill="#82e3ad" opacity="0.15"/>
<circle cx="1523" cy="16" r="230" fill="#82e3ad" opacity="0.14"/>
<circle cx="1619" cy="758" r="73" fill="#82e3ad" opacity="0.09"/>
<circle cx="1432" cy="543" r="93" fill="#ffd377" opacity="0.15"/>
<circle cx="443" cy="777" r="140" fill="#e8f7ff" opacity="0.08"/>
<circle cx="883" cy="557" r="215" fill="#82e3ad" opacity="0.12"/>
<circle cx="1689" cy="894" r="95" fill="#82e3ad" opacity="0.21"/>
<circle cx="287" cy="218" r="173" fill="#ffd377" opacity="0.14"/>
<circle cx="692" cy="982" r="141" fill="#e8f7ff" opacity="0.16"/>
<circle cx="174" cy="851" r="127" fill="#e8f7ff" opacity="0.19"/>
<circle cx="1507" cy="166" r="127" fill="#e8f7ff" opacity="0.13"/>
<circle cx="1521" cy="610" r="154" fill="#ffd377" opacity="0.09"/>
<circle cx="1459" cy="216" r="191" fill="#ffd377" opacity="0.12"/>
<circle cx="1580" cy="339" r="239" fill="#ffd377" opacity="0.19"/>
<circle cx="725" cy="27" r="211" fill="#e8f7ff" opacity="0.14"/>
    <pattern id="plaid" width="96" height="96" patternUnits="userSpaceOnUse">
      <rect width="96" height="96" fill="transparent"/>
      <path d="M0 24H96 M0 72H96 M24 0V96 M72 0V96" stroke="#e8f7ff" stroke-width="2" opacity=".18"/>
      <path d="M0 48H96 M48 0V96" stroke="#ffd377" stroke-width="8" opacity=".06"/>
    </pattern>
    <rect width="1600" height="1000" fill="url(#plaid)" opacity=".9"/><path d="M0 120 C280 30, 520 180, 800 90 S1300 40, 1600 120" fill="none" stroke="#fff" stroke-width="2" opacity=".22"/>
<ellipse cx="31" cy="107.0" rx="12" ry="18" fill="#82e3ad" opacity=".82"/>
<circle cx="31" cy="107.0" r="38" fill="#82e3ad" opacity=".10"/>
<ellipse cx="130" cy="141.1074631814833" rx="12" ry="18" fill="#e8f7ff" opacity=".82"/>
<circle cx="130" cy="141.1074631814833" r="38" fill="#e8f7ff" opacity=".10"/>
<ellipse cx="212" cy="139.98507610645268" rx="12" ry="18" fill="#82e3ad" opacity=".82"/>
<circle cx="212" cy="139.98507610645268" r="38" fill="#82e3ad" opacity=".10"/>
<ellipse cx="298" cy="133.64121131929028" rx="12" ry="18" fill="#e8f7ff" opacity=".82"/>
<circle cx="298" cy="133.64121131929028" r="38" fill="#e8f7ff" opacity=".10"/>
<ellipse cx="404" cy="105.9569049800347" rx="12" ry="18" fill="#e8f7ff" opacity=".82"/>
<circle cx="404" cy="105.9569049800347" r="38" fill="#e8f7ff" opacity=".10"/>
<ellipse cx="500" cy="87.5119126642225" rx="12" ry="18" fill="#82e3ad" opacity=".82"/>
<circle cx="500" cy="87.5119126642225" r="38" fill="#82e3ad" opacity=".10"/>
<ellipse cx="570" cy="81.13423869074558" rx="12" ry="18" fill="#ffd377" opacity=".82"/>
<circle cx="570" cy="81.13423869074558" r="38" fill="#ffd377" opacity=".10"/>
<ellipse cx="682" cy="86.90566767446877" rx="12" ry="18" fill="#e8f7ff" opacity=".82"/>
<circle cx="682" cy="86.90566767446877" r="38" fill="#e8f7ff" opacity=".10"/>
<ellipse cx="769" cy="112.07922216976728" rx="12" ry="18" fill="#82e3ad" opacity=".82"/>
<circle cx="769" cy="112.07922216976728" r="38" fill="#82e3ad" opacity=".10"/>
<ellipse cx="858" cy="141.77837523472036" rx="12" ry="18" fill="#82e3ad" opacity=".82"/>
<circle cx="858" cy="141.77837523472036" r="38" fill="#82e3ad" opacity=".10"/>
<ellipse cx="949" cy="150.62753863181837" rx="12" ry="18" fill="#82e3ad" opacity=".82"/>
<circle cx="949" cy="150.62753863181837" r="38" fill="#82e3ad" opacity=".10"/>
<ellipse cx="1023" cy="131.47210175121165" rx="12" ry="18" fill="#ffd377" opacity=".82"/>
<circle cx="1023" cy="131.47210175121165" r="38" fill="#ffd377" opacity=".10"/>
<ellipse cx="1120" cy="97.89856265719565" rx="12" ry="18" fill="#ffd377" opacity=".82"/>
<circle cx="1120" cy="97.89856265719565" r="38" fill="#ffd377" opacity=".10"/>
<ellipse cx="1212" cy="76.02607358200211" rx="12" ry="18" fill="#e8f7ff" opacity=".82"/>
<circle cx="1212" cy="76.02607358200211" r="38" fill="#e8f7ff" opacity=".10"/>
<ellipse cx="1305" cy="75.72877947970392" rx="12" ry="18" fill="#e8f7ff" opacity=".82"/>
<circle cx="1305" cy="75.72877947970392" r="38" fill="#e8f7ff" opacity=".10"/>
<ellipse cx="1400" cy="93.21994786998478" rx="12" ry="18" fill="#82e3ad" opacity=".82"/>
<circle cx="1400" cy="93.21994786998478" r="38" fill="#82e3ad" opacity=".10"/>
<ellipse cx="1482" cy="118.10284387855387" rx="12" ry="18" fill="#82e3ad" opacity=".82"/>
<circle cx="1482" cy="118.10284387855387" r="38" fill="#82e3ad" opacity=".10"/>
<ellipse cx="1581" cy="145.0706635199774" rx="12" ry="18" fill="#82e3ad" opacity=".82"/>
<circle cx="1581" cy="145.0706635199774" r="38" fill="#82e3ad" opacity=".10"/><circle cx="149" cy="967" r="2.3" fill="#fff" opacity="0.34"/>
<circle cx="1390" cy="47" r="1.8" fill="#fff" opacity="0.61"/>
<circle cx="875" cy="906" r="1.0" fill="#fff" opacity="0.23"/>
<circle cx="87" cy="297" r="2.0" fill="#fff" opacity="0.25"/>
<circle cx="476" cy="989" r="2.3" fill="#fff" opacity="0.36"/>
<circle cx="1150" cy="380" r="1.0" fill="#fff" opacity="0.57"/>
<circle cx="500" cy="690" r="0.9" fill="#fff" opacity="0.28"/>
<circle cx="1262" cy="448" r="2.2" fill="#fff" opacity="0.33"/>
<circle cx="1299" cy="545" r="2.0" fill="#fff" opacity="0.53"/>
<circle cx="1056" cy="278" r="1.6" fill="#fff" opacity="0.21"/>
<circle cx="923" cy="864" r="2.2" fill="#fff" opacity="0.47"/>
<circle cx="1036" cy="712" r="1.1" fill="#fff" opacity="0.37"/>
<circle cx="681" cy="459" r="1.6" fill="#fff" opacity="0.33"/>
<circle cx="454" cy="335" r="0.9" fill="#fff" opacity="0.26"/>
<circle cx="1166" cy="930" r="0.8" fill="#fff" opacity="0.20"/>
<circle cx="225" cy="631" r="1.4" fill="#fff" opacity="0.27"/>
<circle cx="936" cy="475" r="0.9" fill="#fff" opacity="0.49"/>
<circle cx="230" cy="377" r="1.9" fill="#fff" opacity="0.41"/>
<circle cx="222" cy="53" r="0.7" fill="#fff" opacity="0.37"/>
<circle cx="494" cy="561" r="1.7" fill="#fff" opacity="0.30"/>
<circle cx="275" cy="253" r="2.2" fill="#fff" opacity="0.52"/>
<circle cx="692" cy="251" r="1.2" fill="#fff" opacity="0.45"/>
<circle cx="1360" cy="232" r="1.8" fill="#fff" opacity="0.31"/>
<circle cx="1333" cy="777" r="1.3" fill="#fff" opacity="0.56"/>
<circle cx="559" cy="915" r="2.3" fill="#fff" opacity="0.40"/>
<circle cx="1357" cy="88" r="1.6" fill="#fff" opacity="0.52"/>
<circle cx="1458" cy="190" r="1.6" fill="#fff" opacity="0.46"/>
<circle cx="848" cy="862" r="0.9" fill="#fff" opacity="0.42"/>
<circle cx="873" cy="272" r="2.4" fill="#fff" opacity="0.35"/>
<circle cx="1599" cy="758" r="1.7" fill="#fff" opacity="0.42"/>
<circle cx="1039" cy="323" r="1.2" fill="#fff" opacity="0.38"/>
<circle cx="562" cy="76" r="1.2" fill="#fff" opacity="0.26"/>
<circle cx="1098" cy="87" r="2.2" fill="#fff" opacity="0.45"/>
<circle cx="1392" cy="964" r="1.5" fill="#fff" opacity="0.60"/>
<circle cx="287" cy="969" r="2.2" fill="#fff" opacity="0.25"/>
<circle cx="934" cy="248" r="1.7" fill="#fff" opacity="0.25"/>
<circle cx="1533" cy="296" r="1.7" fill="#fff" opacity="0.30"/>
<circle cx="333" cy="851" r="1.3" fill="#fff" opacity="0.47"/>
<circle cx="448" cy="833" r="0.8" fill="#fff" opacity="0.58"/>
<circle cx="1515" cy="675" r="2.3" fill="#fff" opacity="0.59"/>
<circle cx="1214" cy="754" r="2.2" fill="#fff" opacity="0.47"/>
<circle cx="188" cy="156" r="1.8" fill="#fff" opacity="0.20"/>
<circle cx="103" cy="890" r="0.8" fill="#fff" opacity="0.47"/>
<circle cx="1376" cy="290" r="1.0" fill="#fff" opacity="0.59"/>
<circle cx="325" cy="368" r="1.4" fill="#fff" opacity="0.50"/>
<circle cx="1152" cy="25" r="1.2" fill="#fff" opacity="0.24"/>
<circle cx="1511" cy="185" r="1.8" fill="#fff" opacity="0.35"/>
<circle cx="1150" cy="944" r="1.9" fill="#fff" opacity="0.55"/>
<circle cx="487" cy="901" r="1.2" fill="#fff" opacity="0.34"/>
<circle cx="1074" cy="90" r="2.3" fill="#fff" opacity="0.32"/>
<circle cx="1163" cy="829" r="0.8" fill="#fff" opacity="0.39"/>
<circle cx="1059" cy="639" r="1.5" fill="#fff" opacity="0.60"/>
<circle cx="1010" cy="809" r="2.0" fill="#fff" opacity="0.43"/>
<circle cx="1518" cy="266" r="2.4" fill="#fff" opacity="0.55"/>
<circle cx="850" cy="351" r="1.9" fill="#fff" opacity="0.28"/>
<circle cx="543" cy="918" r="1.4" fill="#fff" opacity="0.18"/>
<circle cx="1110" cy="984" r="1.8" fill="#fff" opacity="0.26"/>
<circle cx="1415" cy="404" r="1.6" fill="#fff" opacity="0.47"/>
<circle cx="255" cy="823" r="2.3" fill="#fff" opacity="0.43"/>
<circle cx="803" cy="654" r="1.8" fill="#fff" opacity="0.38"/>
<circle cx="1126" cy="675" r="1.4" fill="#fff" opacity="0.20"/>
<circle cx="677" cy="607" r="2.1" fill="#fff" opacity="0.51"/>
<circle cx="603" cy="725" r="1.1" fill="#fff" opacity="0.30"/>
<circle cx="1395" cy="758" r="1.7" fill="#fff" opacity="0.50"/>
<circle cx="435" cy="1000" r="1.8" fill="#fff" opacity="0.60"/>
<circle cx="98" cy="60" r="1.0" fill="#fff" opacity="0.45"/>
<circle cx="659" cy="491" r="2.0" fill="#fff" opacity="0.59"/>
<circle cx="743" cy="463" r="1.4" fill="#fff" opacity="0.57"/>
<circle cx="623" cy="443" r="1.8" fill="#fff" opacity="0.46"/>
<circle cx="1526" cy="672" r="1.0" fill="#fff" opacity="0.29"/>
  <rect width="1600" height="1000" fill="#000" opacity=".08"/>
</svg>