<svg xmlns="http://www.w3.org/2000/svg" viewBox="0 0 1600 900" preserveAspectRatio="xMidYMid slice"><defs><linearGradient id="bg8" x1="0" y1="0" x2="0" y2="1"><stop offset="0%" stop-color="#64B5F6"/><stop offset="100%" stop-color="#E3F2FD"/></linearGradient><linearGradient id="hill18" x1="0" y1="0" x2="0" y2="1"><stop offset="0%" stop-color="#FFFFFF"/><stop offset="100%" stop-color="#E3F2FD"/></linearGradient><linearGradient id="hill28" x1="0" y1="0" x2="0" y2="1"><stop offset="0%" stop-color="#F5F5F5"/><stop offset="100%" stop-color="#BBDEFB"/></linearGradient></defs><rect width="1600" height="900" fill="url(#bg8)"/><circle cx="1300" cy="200" r="80" fill="#FFEB3B" opacity="0.9"/><path d="M 0 600 Q 400 450 800 600 T 1600 550 L 1600 900 L 0 900 Z" fill="url(#hill28)"/><g transform="translate(128,612) scale(0.943238782553435)"><rect x="-6" y="-10" width="12" height="20" fill="#795548" rx="2"/><path d="M -40 -10 L 40 -10 L 0 -50 Z" fill="#2E7D32"/><path d="M -30 -30 L 30 -30 L 0 -70 Z" fill="#43A047"/><path d="M -20 -50 L 20 -50 L 0 -90 Z" fill="#4CAF50"/><circle cx="-15" cy="-20" r="3.5" fill="#FF9800"/><circle cx="10" cy="-25" r="3.5" fill="#FFEB3B"/><circle cx="-5" cy="-40" r="3.5" fill="#F44336"/><circle cx="15" cy="-45" r="3.5" fill="#FF9800"/><circle cx="-10" cy="-60" r="3.5" fill="#AB47BC"/><circle cx="0" cy="-30" r="3.5" fill="#AB47BC"/><circle cx="20" cy="-15" r="3.5" fill="#FF9800"/><circle cx="-25" cy="-12" r="3.5" fill="#FFEB3B"/><polygon points="0,-95 3,-85 12,-85 5,-80 8,-70 0,-76 -8,-70 -5,-80 -12,-85 -3,-85" fill="#FFC107"/></g><g transform="translate(908,636) scale(1.0425112970659032)"><rect x="-6" y="-10" width="12" height="20" fill="#795548" rx="2"/><path d="M -40 -10 L 40 -10 L 0 -50 Z" fill="#2E7D32"/><path d="M -30 -30 L 30 -30 L 0 -70 Z" fill="#43A047"/><path d="M -20 -50 L 20 -50 L 0 -90 Z" fill="#4CAF50"/><circle cx="-15" cy="-20" r="3.5" fill="#FF9800"/><circle cx="10" cy="-25" r="3.5" fill="#AB47BC"/><circle cx="-5" cy="-40" r="3.5" fill="#FF9800"/><circle cx="15" cy="-45" r="3.5" fill="#29B6F6"/><circle cx="-10" cy="-60" r="3.5" fill="#AB47BC"/><circle cx="0" cy="-30" r="3.5" fill="#F44336"/><circle cx="20" cy="-15" r="3.5" fill="#FFEB3B"/><circle cx="-25" cy="-12" r="3.5" fill="#FFEB3B"/><polygon points="0,-95 3,-85 12,-85 5,-80 8,-70 0,-76 -8,-70 -5,-80 -12,-85 -3,-85" fill="#FFC107"/></g><g transform="translate(396,621) scale(0.8134627676015147)"><rect x="-6" y="-10" width="12" height="20" fill="#795548" rx="2"/><path d="M -40 -10 L 40 -10 L 0 -50 Z" fill="#2E7D32"/><path d="M -30 -30 L 30 -30 L 0 -70 Z" fill="#43A047"/><path d="M -20 -50 L 20 -50 L 0 -90 Z" fill="#4CAF50"/><circle cx="-15" cy="-20" r="3.5" fill="#F44336"/><circle cx="10" cy="-25" r="3.5" fill="#FFEB3B"/><circle cx="-5" cy="-40" r="3.5" fill="#AB47BC"/><circle cx="15" cy="-45" r="3.5" fill="#FF9800"/><circle cx="-10" cy="-60" r="3.5" fill="#29B6F6"/><circle cx="0" cy="-30" r="3.5" fill="#29B6F6"/><circle cx="20" cy="-15" r="3.5" fill="#F44336"/><circle cx="-25" cy="-12" r="3.5" fill="#FFEB3B"/><polygon points="0,-95 3,-85 12,-85 5,-80 8,-70 0,-76 -8,-70 -5,-80 -12,-85 -3,-85" fill="#FFC107"/></g><g transform="translate(675,606) scale(1.0659313612898842)"><rect x="-6" y="-10" width="12" height="20" fill="#795548" rx="2"/><path d="M -40 -10 L 40 -10 L 0 -50 Z" fill="#2E7D32"/><path d="M -30 -30 L 30 -30 L 0 -70 Z" fill="#43A047"/><path d="M -20 -50 L 20 -50 L 0 -90 Z" fill="#4CAF50"/><circle cx="-15" cy="-20" r="3.5" fill="#FF9800"/><circle cx="10" cy="-25" r="3.5" fill="#29B6F6"/><circle cx="-5" cy="-40" r="3.5" fill="#29B6F6"/><circle cx="15" cy="-45" r="3.5" fill="#FFEB3B"/><circle cx="-10" cy="-60" r="3.5" fill="#FF9800"/><circle cx="0" cy="-30" r="3.5" fill="#F44336"/><circle cx="20" cy="-15" r="3.5" fill="#FF9800"/><circle cx="-25" cy="-12" r="3.5" fill="#F44336"/><polygon points="0,-95 3,-85 12,-85 5,-80 8,-70 0,-76 -8,-70 -5,-80 -12,-85 -3,-85" fill="#FFC107"/></g><g transform="translate(545,593) scale(0.8578757710438255)"><rect x="-6" y="-10" width="12" height="20" fill="#795548" rx="2"/><path d="M -40 -10 L 40 -10 L 0 -50 Z" fill="#2E7D32"/><path d="M -30 -30 L 30 -30 L 0 -70 Z" fill="#43A047"/><path d="M -20 -50 L 20 -50 L 0 -90 Z" fill="#4CAF50"/><circle cx="-15" cy="-20" r="3.5" fill="#F44336"/><circle cx="10" cy="-25" r="3.5" fill="#FFEB3B"/><circle cx="-5" cy="-40" r="3.5" fill="#FFEB3B"/><circle cx="15" cy="-45" r="3.5" fill="#F44336"/><circle cx="-10" cy="-60" r="3.5" fill="#29B6F6"/><circle cx="0" cy="-30" r="3.5" fill="#AB47BC"/><circle cx="20" cy="-15" r="3.5" fill="#FF9800"/><circle cx="-25" cy="-12" r="3.5" fill="#FFEB3B"/><polygon points="0,-95 3,-85 12,-85 5,-80 8,-70 0,-76 -8,-70 -5,-80 -12,-85 -3,-85" fill="#FFC107"/></g><g transform="translate(487,595) scale(0.9654858098505281)"><rect x="-6" y="-10" width="12" height="20" fill="#795548" rx="2"/><path d="M -40 -10 L 40 -10 L 0 -50 Z" fill="#2E7D32"/><path d="M -30 -30 L 30 -30 L 0 -70 Z" fill="#43A047"/><path d="M -20 -50 L 20 -50 L 0 -90 Z" fill="#4CAF50"/><circle cx="-15" cy="-20" r="3.5" fill="#29B6F6"/><circle cx="10" cy="-25" r="3.5" fill="#F44336"/><circle cx="-5" cy="-40" r="3.5" fill="#F44336"/><circle cx="15" cy="-45" r="3.5" fill="#FFEB3B"/><circle cx="-10" cy="-60" r="3.5" fill="#29B6F6"/><circle cx="0" cy="-30" r="3.5" fill="#29B6F6"/><circle cx="20" cy="-15" r="3.5" fill="#AB47BC"/><circle cx="-25" cy="-12" r="3.5" fill="#AB47BC"/><polygon points="0,-95 3,-85 12,-85 5,-80 8,-70 0,-76 -8,-70 -5,-80 -12,-85 -3,-85" fill="#FFC107"/></g><g transform="translate(1136,601) scale(1.1941210366743746)"><rect x="-6" y="-10" width="12" height="20" fill="#795548" rx="2"/><path d="M -40 -10 L 40 -10 L 0 -50 Z" fill="#2E7D32"/><path d="M -30 -30 L 30 -30 L 0 -70 Z" fill="#43A047"/><path d="M -20 -50 L 20 -50 L 0 -90 Z" fill="#4CAF50"/><circle cx="-15" cy="-20" r="3.5" fill="#29B6F6"/><circle cx="10" cy="-25" r="3.5" fill="#FFEB3B"/><circle cx="-5" cy="-40" r="3.5" fill="#AB47BC"/><circle cx="15" cy="-45" r="3.5" fill="#FFEB3B"/><circle cx="-10" cy="-60" r="3.5" fill="#29B6F6"/><circle cx="0" cy="-30" r="3.5" fill="#FFEB3B"/><circle cx="20" cy="-15" r="3.5" fill="#FF9800"/><circle cx="-25" cy="-12" r="3.5" fill="#AB47BC"/><polygon points="0,-95 3,-85 12,-85 5,-80 8,-70 0,-76 -8,-70 -5,-80 -12,-85 -3,-85" fill="#FFC107"/></g><g transform="translate(1246,638) scale(1.0959117881280476)"><rect x="-6" y="-10" width="12" height="20" fill="#795548" rx="2"/><path d="M -40 -10 L 40 -10 L 0 -50 Z" fill="#2E7D32"/><path d="M -30 -30 L 30 -30 L 0 -70 Z" fill="#43A047"/><path d="M -20 -50 L 20 -50 L 0 -90 Z" fill="#4CAF50"/><circle cx="-15" cy="-20" r="3.5" fill="#29B6F6"/><circle cx="10" cy="-25" r="3.5" fill="#29B6F6"/><circle cx="-5" cy="-40" r="3.5" fill="#29B6F6"/><circle cx="15" cy="-45" r="3.5" fill="#FF9800"/><circle cx="-10" cy="-60" r="3.5" fill="#FFEB3B"/><circle cx="0" cy="-30" r="3.5" fill="#FFEB3B"/><circle cx="20" cy="-15" r="3.5" fill="#FFEB3B"/><circle cx="-25" cy="-12" r="3.5" fill="#FF9800"/><polygon points="0,-95 3,-85 12,-85 5,-80 8,-70 0,-76 -8,-70 -5,-80 -12,-85 -3,-85" fill="#FFC107"/></g><path d="M 0 700 Q 600 550 1200 750 T 1600 650 L 1600 900 L 0 900 Z" fill="url(#hill18)"/><g transform="translate(700,733) scale(2.2126960624535874)"><circle cx="0" cy="-20" r="20" fill="#FFFFFF"/><circle cx="0" cy="-55" r="16" fill="#FFFFFF"/><circle cx="0" cy="-85" r="12" fill="#FFFFFF"/><rect x="-15" y="-95" width="30" height="4" fill="#212121" rx="2"/><rect x="-10" y="-115" width="20" height="20" fill="#212121"/><rect x="-10" y="-99" width="20" height="4" fill="#F44336"/><circle cx="-4" cy="-87" r="1.5" fill="#212121"/><circle cx="4" cy="-87" r="1.5" fill="#212121"/><path d="M 0 -83 L 15 -78 L 0 -77 Z" fill="#FF9800"/><path d="M -12 -70 Q 0 -65 12 -70 L 14 -60 Q 0 -55 -14 -60 Z" fill="#F44336"/><path d="M 8 -65 L 12 -45 L 6 -45 Z" fill="#F44336"/><circle cx="0" cy="-60" r="1.5" fill="#212121"/><circle cx="0" cy="-50" r="1.5" fill="#212121"/><circle cx="0" cy="-25" r="2" fill="#212121"/><circle cx="0" cy="-10" r="2" fill="#212121"/></g><g transform="translate(1041,753) scale(1.7812791757840645)"><circle cx="0" cy="-20" r="20" fill="#FFFFFF"/><circle cx="0" cy="-55" r="16" fill="#FFFFFF"/><circle cx="0" cy="-85" r="12" fill="#FFFFFF"/><rect x="-15" y="-95" width="30" height="4" fill="#212121" rx="2"/><rect x="-10" y="-115" width="20" height="20" fill="#212121"/><rect x="-10" y="-99" width="20" height="4" fill="#F44336"/><circle cx="-4" cy="-87" r="1.5" fill="#212121"/><circle cx="4" cy="-87" r="1.5" fill="#212121"/><path d="M 0 -83 L 15 -78 L 0 -77 Z" fill="#FF9800"/><path d="M -12 -70 Q 0 -65 12 -70 L 14 -60 Q 0 -55 -14 -60 Z" fill="#F44336"/><path d="M 8 -65 L 12 -45 L 6 -45 Z" fill="#F44336"/><circle cx="0" cy="-60" r="1.5" fill="#212121"/><circle cx="0" cy="-50" r="1.5" fill="#212121"/><circle cx="0" cy="-25" r="2" fill="#212121"/><circle cx="0" cy="-10" r="2" fill="#212121"/></g><g transform="translate(1114,827) scale(2.093780138889749)"><circle cx="0" cy="-20" r="20" fill="#FFFFFF"/><circle cx="0" cy="-55" r="16" fill="#FFFFFF"/><circle cx="0" cy="-85" r="12" fill="#FFFFFF"/><rect x="-15" y="-95" width="30" height="4" fill="#212121" rx="2"/><rect x="-10" y="-115" width="20" height="20" fill="#212121"/><rect x="-10" y="-99" width="20" height="4" fill="#F44336"/><circle cx="-4" cy="-87" r="1.5" fill="#212121"/><circle cx="4" cy="-87" r="1.5" fill="#212121"/><path d="M 0 -83 L 15 -78 L 0 -77 Z" fill="#FF9800"/><path d="M -12 -70 Q 0 -65 12 -70 L 14 -60 Q 0 -55 -14 -60 Z" fill="#F44336"/><path d="M 8 -65 L 12 -45 L 6 -45 Z" fill="#F44336"/><circle cx="0" cy="-60" r="1.5" fill="#212121"/><circle cx="0" cy="-50" r="1.5" fill="#212121"/><circle cx="0" cy="-25" r="2" fill="#212121"/><circle cx="0" cy="-10" r="2" fill="#212121"/></g><g transform="translate(1052,740) scale(1.5441150494728546)"><rect x="-6" y="-10" width="12" height="20" fill="#795548" rx="2"/><path d="M -40 -10 L 40 -10 L 0 -50 Z" fill="#2E7D32"/><path d="M -30 -30 L 30 -30 L 0 -70 Z" fill="#43A047"/><path d="M -20 -50 L 20 -50 L 0 -90 Z" fill="#4CAF50"/><circle cx="-15" cy="-20" r="3.5" fill="#AB47BC"/><circle cx="10" cy="-25" r="3.5" fill="#AB47BC"/><circle cx="-5" cy="-40" r="3.5" fill="#F44336"/><circle cx="15" cy="-45" r="3.5" fill="#FF9800"/><circle cx="-10" cy="-60" r="3.5" fill="#AB47BC"/><circle cx="0" cy="-30" r="3.5" fill="#AB47BC"/><circle cx="20" cy="-15" r="3.5" fill="#29B6F6"/><circle cx="-25" cy="-12" r="3.5" fill="#AB47BC"/><polygon points="0,-95 3,-85 12,-85 5,-80 8,-70 0,-76 -8,-70 -5,-80 -12,-85 -3,-85" fill="#FFC107"/></g><g transform="translate(1079,730) scale(2.27017651847066)"><rect x="-6" y="-10" width="12" height="20" fill="#795548" rx="2"/><path d="M -40 -10 L 40 -10 L 0 -50 Z" fill="#2E7D32"/><path d="M -30 -30 L 30 -30 L 0 -70 Z" fill="#43A047"/><path d="M -20 -50 L 20 -50 L 0 -90 Z" fill="#4CAF50"/><circle cx="-15" cy="-20" r="3.5" fill="#AB47BC"/><circle cx="10" cy="-25" r="3.5" fill="#AB47BC"/><circle cx="-5" cy="-40" r="3.5" fill="#AB47BC"/><circle cx="15" cy="-45" r="3.5" fill="#FFEB3B"/><circle cx="-10" cy="-60" r="3.5" fill="#FFEB3B"/><circle cx="0" cy="-30" r="3.5" fill="#FF9800"/><circle cx="20" cy="-15" r="3.5" fill="#FFEB3B"/><circle cx="-25" cy="-12" r="3.5" fill="#FF9800"/><polygon points="0,-95 3,-85 12,-85 5,-80 8,-70 0,-76 -8,-70 -5,-80 -12,-85 -3,-85" fill="#FFC107"/></g><g transform="translate(937,749) scale(1.6415876264315716)"><rect x="-6" y="-10" width="12" height="20" fill="#795548" rx="2"/><path d="M -40 -10 L 40 -10 L 0 -50 Z" fill="#2E7D32"/><path d="M -30 -30 L 30 -30 L 0 -70 Z" fill="#43A047"/><path d="M -20 -50 L 20 -50 L 0 -90 Z" fill="#4CAF50"/><circle cx="-15" cy="-20" r="3.5" fill="#AB47BC"/><circle cx="10" cy="-25" r="3.5" fill="#F44336"/><circle cx="-5" cy="-40" r="3.5" fill="#29B6F6"/><circle cx="15" cy="-45" r="3.5" fill="#FF9800"/><circle cx="-10" cy="-60" r="3.5" fill="#AB47BC"/><circle cx="0" cy="-30" r="3.5" fill="#FF9800"/><circle cx="20" cy="-15" r="3.5" fill="#AB47BC"/><circle cx="-25" cy="-12" r="3.5" fill="#29B6F6"/><polygon points="0,-95 3,-85 12,-85 5,-80 8,-70 0,-76 -8,-70 -5,-80 -12,-85 -3,-85" fill="#FFC107"/></g><g transform="translate(1145,711) scale(1.6803379222306245)"><rect x="-6" y="-10" width="12" height="20" fill="#795548" rx="2"/><path d="M -40 -10 L 40 -10 L 0 -50 Z" fill="#2E7D32"/><path d="M -30 -30 L 30 -30 L 0 -70 Z" fill="#43A047"/><path d="M -20 -50 L 20 -50 L 0 -90 Z" fill="#4CAF50"/><circle cx="-15" cy="-20" r="3.5" fill="#FFEB3B"/><circle cx="10" cy="-25" r="3.5" fill="#29B6F6"/><circle cx="-5" cy="-40" r="3.5" fill="#FFEB3B"/><circle cx="15" cy="-45" r="3.5" fill="#F44336"/><circle cx="-10" cy="-60" r="3.5" fill="#F44336"/><circle cx="0" cy="-30" r="3.5" fill="#29B6F6"/><circle cx="20" cy="-15" r="3.5" fill="#FFEB3B"/><circle cx="-25" cy="-12" r="3.5" fill="#FF9800"/><polygon points="0,-95 3,-85 12,-85 5,-80 8,-70 0,-76 -8,-70 -5,-80 -12,-85 -3,-85" fill="#FFC107"/></g><g transform="translate(612,748) scale(1.788249833794204)"><rect x="-6" y="-10" width="12" height="20" fill="#795548" rx="2"/><path d="M -40 -10 L 40 -10 L 0 -50 Z" fill="#2E7D32"/><path d="M -30 -30 L 30 -30 L 0 -70 Z" fill="#43A047"/><path d="M -20 -50 L 20 -50 L 0 -90 Z" fill="#4CAF50"/><circle cx="-15" cy="-20" r="3.5" fill="#FFEB3B"/><circle cx="10" cy="-25" r="3.5" fill="#FF9800"/><circle cx="-5" cy="-40" r="3.5" fill="#AB47BC"/><circle cx="15" cy="-45" r="3.5" fill="#29B6F6"/><circle cx="-10" cy="-60" r="3.5" fill="#29B6F6"/><circle cx="0" cy="-30" r="3.5" fill="#FFEB3B"/><circle cx="20" cy="-15" r="3.5" fill="#29B6F6"/><circle cx="-25" cy="-12" r="3.5" fill="#FF9800"/><polygon points="0,-95 3,-85 12,-85 5,-80 8,-70 0,-76 -8,-70 -5,-80 -12,-85 -3,-85" fill="#FFC107"/></g><g transform="translate(639,769) scale(2.3502541485991846)"><rect x="-6" y="-10" width="12" height="20" fill="#795548" rx="2"/><path d="M -40 -10 L 40 -10 L 0 -50 Z" fill="#2E7D32"/><path d="M -30 -30 L 30 -30 L 0 -70 Z" fill="#43A047"/><path d="M -20 -50 L 20 -50 L 0 -90 Z" fill="#4CAF50"/><circle cx="-15" cy="-20" r="3.5" fill="#F44336"/><circle cx="10" cy="-25" r="3.5" fill="#F44336"/><circle cx="-5" cy="-40" r="3.5" fill="#F44336"/><circle cx="15" cy="-45" r="3.5" fill="#F44336"/><circle cx="-10" cy="-60" r="3.5" fill="#FFEB3B"/><circle cx="0" cy="-30" r="3.5" fill="#FFEB3B"/><circle cx="20" cy="-15" r="3.5" fill="#29B6F6"/><circle cx="-25" cy="-12" r="3.5" fill="#29B6F6"/><polygon points="0,-95 3,-85 12,-85 5,-80 8,-70 0,-76 -8,-70 -5,-80 -12,-85 -3,-85" fill="#FFC107"/></g><g transform="translate(1411,776) scale(1.0866728306344882)"><rect x="-15" y="-30" width="30" height="30" fill="#F44336" rx="2"/><rect x="-4" y="-30" width="8" height="30" fill="#FFEB3B"/><rect x="-15" y="-19" width="30" height="8" fill="#FFEB3B"/><path d="M -2 -30 C -15 -45 0 -45 0 -30 Z" fill="#FFEB3B"/><path d="M 2 -30 C 15 -45 0 -45 0 -30 Z" fill="#FFEB3B"/></g><g transform="translate(264,760) scale(1.0569968050264138) rotate(9)"><path d="M 0 0 L 0 -30 A 10 10 0 0 1 20 -30 L 20 -20" fill="none" stroke="#FFFFFF" stroke-width="8" stroke-linecap="round"/><path d="M 0 -5 L 0 -15" stroke="#F44336" stroke-width="8"/><path d="M 0 -25 A 10 10 0 0 1 10 -40" stroke="#F44336" stroke-width="8" fill="none"/><path d="M 20 -30 L 20 -25" stroke="#F44336" stroke-width="8"/></g><g transform="translate(1284,812) scale(1.1371991029078037)"><rect x="-15" y="-30" width="30" height="30" fill="#F44336" rx="2"/><rect x="-4" y="-30" width="8" height="30" fill="#FFEB3B"/><rect x="-15" y="-19" width="30" height="8" fill="#FFEB3B"/><path d="M -2 -30 C -15 -45 0 -45 0 -30 Z" fill="#FFEB3B"/><path d="M 2 -30 C 15 -45 0 -45 0 -30 Z" fill="#FFEB3B"/></g><g transform="translate(910,796) scale(1.0359932433208907) rotate(1)"><path d="M 0 0 L 0 -30 A 10 10 0 0 1 20 -30 L 20 -20" fill="none" stroke="#FFFFFF" stroke-width="8" stroke-linecap="round"/><path d="M 0 -5 L 0 -15" stroke="#F44336" stroke-width="8"/><path d="M 0 -25 A 10 10 0 0 1 10 -40" stroke="#F44336" stroke-width="8" fill="none"/><path d="M 20 -30 L 20 -25" stroke="#F44336" stroke-width="8"/></g><g transform="translate(813,805) scale(0.9040960935942822)"><rect x="-15" y="-30" width="30" height="30" fill="#F44336" rx="2"/><rect x="-4" y="-30" width="8" height="30" fill="#FFEB3B"/><rect x="-15" y="-19" width="30" height="8" fill="#FFEB3B"/><path d="M -2 -30 C -15 -45 0 -45 0 -30 Z" fill="#FFEB3B"/><path d="M 2 -30 C 15 -45 0 -45 0 -30 Z" fill="#FFEB3B"/></g><g transform="translate(786,844) scale(0.8719425057003984) rotate(13)"><path d="M 0 0 L 0 -30 A 10 10 0 0 1 20 -30 L 20 -20" fill="none" stroke="#FFFFFF" stroke-width="8" stroke-linecap="round"/><path d="M 0 -5 L 0 -15" stroke="#F44336" stroke-width="8"/><path d="M 0 -25 A 10 10 0 0 1 10 -40" stroke="#F44336" stroke-width="8" fill="none"/><path d="M 20 -30 L 20 -25" stroke="#F44336" stroke-width="8"/></g><g transform="translate(1214,839) scale(1.3109477655351398)"><rect x="-15" y="-30" width="30" height="30" fill="#2196F3" rx="2"/><rect x="-4" y="-30" width="8" height="30" fill="#F44336"/><rect x="-15" y="-19" width="30" height="8" fill="#F44336"/><path d="M -2 -30 C -15 -45 0 -45 0 -30 Z" fill="#F44336"/><path d="M 2 -30 C 15 -45 0 -45 0 -30 Z" fill="#F44336"/></g><g transform="translate(1333,848) scale(1.3087974371440927) rotate(17)"><path d="M 0 0 L 0 -30 A 10 10 0 0 1 20 -30 L 20 -20" fill="none" stroke="#FFFFFF" stroke-width="8" stroke-linecap="round"/><path d="M 0 -5 L 0 -15" stroke="#F44336" stroke-width="8"/><path d="M 0 -25 A 10 10 0 0 1 10 -40" stroke="#F44336" stroke-width="8" fill="none"/><path d="M 20 -30 L 20 -25" stroke="#F44336" stroke-width="8"/></g><g transform="translate(495,807) scale(0.8387949930637462)"><rect x="-15" y="-30" width="30" height="30" fill="#2196F3" rx="2"/><rect x="-4" y="-30" width="8" height="30" fill="#F44336"/><rect x="-15" y="-19" width="30" height="8" fill="#F44336"/><path d="M -2 -30 C -15 -45 0 -45 0 -30 Z" fill="#F44336"/><path d="M 2 -30 C 15 -45 0 -45 0 -30 Z" fill="#F44336"/></g><g transform="translate(666,825) scale(1.2696249265955426) rotate(12)"><path d="M 0 0 L 0 -30 A 10 10 0 0 1 20 -30 L 20 -20" fill="none" stroke="#FFFFFF" stroke-width="8" stroke-linecap="round"/><path d="M 0 -5 L 0 -15" stroke="#F44336" stroke-width="8"/><path d="M 0 -25 A 10 10 0 0 1 10 -40" stroke="#F44336" stroke-width="8" fill="none"/><path d="M 20 -30 L 20 -25" stroke="#F44336" stroke-width="8"/></g><circle cx="654" cy="868" r="5.06277650463161" fill="#FFFFFF" opacity="0.8607062136871813"/><circle cx="311" cy="647" r="2.8676632867615743" fill="#FFFFFF" opacity="0.8674198795709444"/><circle cx="230" cy="124" r="5.020674357614785" fill="#FFFFFF" opacity="0.5904699457843511"/><circle cx="701" cy="692" r="4.624239711492222" fill="#FFFFFF" opacity="0.5525288260311755"/><circle cx="1178" cy="865" r="5.3509226975901" fill="#FFFFFF" opacity="0.6660492893832155"/><circle cx="53" cy="126" r="3.989937694826367" fill="#FFFFFF" opacity="0.6053848172072825"/><circle cx="597" cy="755" r="2.8198866837306484" fill="#FFFFFF" opacity="0.5325797325065824"/><circle cx="1053" cy="348" r="3.8213455897998125" fill="#FFFFFF" opacity="0.6578094396528554"/><circle cx="932" cy="244" r="3.5475116573119814" fill="#FFFFFF" opacity="0.5493328719433384"/><circle cx="1089" cy="728" r="5.159424530374489" fill="#FFFFFF" opacity="0.6276043183822576"/><circle cx="447" cy="651" r="3.279019599503188" fill="#FFFFFF" opacity="0.5113040694030939"/><circle cx="1049" cy="196" r="5.696833883697455" fill="#FFFFFF" opacity="0.7998287435018023"/><circle cx="576" cy="711" r="5.232088534397807" fill="#FFFFFF" opacity="0.7366001932984101"/><circle cx="1316" cy="415" r="5.335331830917479" fill="#FFFFFF" opacity="0.6260939019119753"/><circle cx="1581" cy="853" r="4.667518150405435" fill="#FFFFFF" opacity="0.6968079613357088"/><circle cx="1247" cy="718" r="5.859411086575301" fill="#FFFFFF" opacity="0.5872035839556838"/><circle cx="890" cy="329" r="4.907309516519662" fill="#FFFFFF" opacity="0.8302707158319691"/><circle cx="137" cy="17" r="2.088504768861788" fill="#FFFFFF" opacity="0.5400606323530946"/><circle cx="435" cy="189" r="2.0067847073953806" fill="#FFFFFF" opacity="0.8063994150440339"/><circle cx="1273" cy="53" r="3.0036127631290563" fill="#FFFFFF" opacity="0.5186023811679717"/><circle cx="1499" cy="752" r="3.231711386690288" fill="#FFFFFF" opacity="0.6740804302084387"/><circle cx="1246" cy="896" r="2.237189584409402" fill="#FFFFFF" opacity="0.7898901165055996"/><circle cx="373" cy="555" r="2.8493538071229714" fill="#FFFFFF" opacity="0.8183595509805714"/><circle cx="28" cy="855" r="4.033168474400323" fill="#FFFFFF" opacity="0.6837651197134762"/><circle cx="1217" cy="651" r="2.1107403822334705" fill="#FFFFFF" opacity="0.8151827140977599"/><circle cx="1595" cy="643" r="5.845365226991337" fill="#FFFFFF" opacity="0.8597005878711748"/><circle cx="1257" cy="460" r="5.120582784110544" fill="#FFFFFF" opacity="0.7263919972141604"/><circle cx="1001" cy="400" r="5.342261622289851" fill="#FFFFFF" opacity="0.6954317716876949"/><circle cx="688" cy="700" r="3.548993196043249" fill="#FFFFFF" opacity="0.8121747844084981"/><circle cx="1133" cy="7" r="5.83505096666674" fill="#FFFFFF" opacity="0.659542276781437"/><circle cx="1531" cy="842" r="5.734790488270868" fill="#FFFFFF" opacity="0.8492953154216885"/><circle cx="369" cy="490" r="2.702000975408514" fill="#FFFFFF" opacity="0.5087808743586066"/><circle cx="1175" cy="97" r="4.611620305913956" fill="#FFFFFF" opacity="0.6432408078102793"/><circle cx="1124" cy="235" r="4.439136047938015" fill="#FFFFFF" opacity="0.5831074197681033"/><circle cx="1043" cy="177" r="3.0865195503448826" fill="#FFFFFF" opacity="0.8953550151414114"/><circle cx="210" cy="687" r="5.923464483241139" fill="#FFFFFF" opacity="0.7168764953645975"/><circle cx="1191" cy="120" r="5.202586765806863" fill="#FFFFFF" opacity="0.7582781453938015"/><circle cx="862" cy="709" r="5.823981685113293" fill="#FFFFFF" opacity="0.5597221112559586"/><circle cx="1165" cy="278" r="5.162047703482638" fill="#FFFFFF" opacity="0.8475837792257384"/><circle cx="118" cy="128" r="2.455182408605813" fill="#FFFFFF" opacity="0.5941033892169226"/><circle cx="1025" cy="53" r="5.859251101307748" fill="#FFFFFF" opacity="0.7828887490909675"/><circle cx="1107" cy="623" r="2.062673508755448" fill="#FFFFFF" opacity="0.8552692091011114"/><circle cx="1243" cy="444" r="4.097819515749099" fill="#FFFFFF" opacity="0.8421876152452499"/><circle cx="148" cy="231" r="3.056749253625232" fill="#FFFFFF" opacity="0.7411324868270944"/><circle cx="1370" cy="363" r="2.513535080570223" fill="#FFFFFF" opacity="0.8062513300848596"/><circle cx="558" cy="77" r="5.381890636970136" fill="#FFFFFF" opacity="0.6368881080964743"/><circle cx="1232" cy="156" r="5.477671795704218" fill="#FFFFFF" opacity="0.5094962587422185"/><circle cx="1012" cy="38" r="4.080788399036551" fill="#FFFFFF" opacity="0.5660501772376827"/><circle cx="595" cy="457" r="3.8990678839626747" fill="#FFFFFF" opacity="0.5038930749314179"/><circle cx="1329" cy="411" r="5.225125890437788" fill="#FFFFFF" opacity="0.5021829252805363"/><circle cx="1158" cy="701" r="4.779085981452075" fill="#FFFFFF" opacity="0.7123217930181163"/><circle cx="1447" cy="716" r="5.9792078276769045" fill="#FFFFFF" opacity="0.8943114160870318"/><circle cx="1410" cy="267" r="3.5183589586906256" fill="#FFFFFF" opacity="0.6744145827284402"/><circle cx="672" cy="102" r="2.8339840693697114" fill="#FFFFFF" opacity="0.7268468222152079"/><circle cx="1381" cy="204" r="2.845059500593437" fill="#FFFFFF" opacity="0.5304911193429147"/><circle cx="932" cy="75" r="3.7471861727312876" fill="#FFFFFF" opacity="0.5766457001471983"/><circle cx="888" cy="160" r="3.200601260806249" fill="#FFFFFF" opacity="0.6695662050956026"/><circle cx="19" cy="40" r="5.355565823082108" fill="#FFFFFF" opacity="0.7294574586672691"/><circle cx="1519" cy="617" r="5.435621104286053" fill="#FFFFFF" opacity="0.6532364004387659"/><circle cx="116" cy="819" r="3.6582138931430173" fill="#FFFFFF" opacity="0.6993132768443282"/><circle cx="302" cy="484" r="4.002980465663029" fill="#FFFFFF" opacity="0.7522146878635685"/><circle cx="461" cy="765" r="5.85765222100769" fill="#FFFFFF" opacity="0.7168928877024864"/><circle cx="1584" cy="808" r="5.94402711991152" fill="#FFFFFF" opacity="0.5222935971959155"/><circle cx="676" cy="824" r="3.5179458858922765" fill="#FFFFFF" opacity="0.5418845794171501"/><circle cx="1236" cy="428" r="3.9856746460809034" fill="#FFFFFF" opacity="0.7006023891198756"/><circle cx="1456" cy="795" r="5.687081563665309" fill="#FFFFFF" opacity="0.8784887117661018"/><circle cx="258" cy="870" r="2.280540080614814" fill="#FFFFFF" opacity="0.508830577686307"/><circle cx="1506" cy="639" r="2.6016224788508113" fill="#FFFFFF" opacity="0.8528746575197256"/><circle cx="175" cy="567" r="3.5491049852584227" fill="#FFFFFF" opacity="0.7951140999546038"/><circle cx="1436" cy="697" r="4.8263458567429165" fill="#FFFFFF" opacity="0.8428288378216542"/><circle cx="1286" cy="712" r="2.0719297289729193" fill="#FFFFFF" opacity="0.8698557423431708"/><circle cx="697" cy="63" r="5.669775557803801" fill="#FFFFFF" opacity="0.6059040589695002"/><circle cx="1417" cy="636" r="5.608860191447745" fill="#FFFFFF" opacity="0.5900352063858617"/><circle cx="728" cy="55" r="3.902300527287235" fill="#FFFFFF" opacity="0.6286838768164715"/><circle cx="1067" cy="321" r="3.0312252357786154" fill="#FFFFFF" opacity="0.7834237644357771"/><circle cx="1015" cy="180" r="2.0686192845810774" fill="#FFFFFF" opacity="0.7271870742717585"/><circle cx="523" cy="415" r="2.1112699399022588" fill="#FFFFFF" opacity="0.8817179143874576"/><circle cx="1296" cy="113" r="3.33562798362564" fill="#FFFFFF" opacity="0.8389513488725697"/><circle cx="1384" cy="819" r="3.447240639644557" fill="#FFFFFF" opacity="0.7570563961028862"/><circle cx="61" cy="560" r="5.588169183085894" fill="#FFFFFF" opacity="0.7714589087520243"/><circle cx="1404" cy="26" r="3.360256599161962" fill="#FFFFFF" opacity="0.5954103980545037"/><circle cx="524" cy="66" r="3.503593030585151" fill="#FFFFFF" opacity="0.7939529359028227"/><circle cx="1431" cy="498" r="3.7774017611151893" fill="#FFFFFF" opacity="0.5586736599975721"/><circle cx="556" cy="863" r="2.6567014042088473" fill="#FFFFFF" opacity="0.5441822848382465"/><circle cx="196" cy="749" r="3.3167465704154617" fill="#FFFFFF" opacity="0.7120985824821164"/><circle cx="920" cy="718" r="4.477250511201877" fill="#FFFFFF" opacity="0.832418580234449"/><circle cx="506" cy="859" r="5.661440676859094" fill="#FFFFFF" opacity="0.5232341340577349"/><circle cx="1307" cy="33" r="4.34164092506901" fill="#FFFFFF" opacity="0.6993851772585137"/><circle cx="1093" cy="117" r="2.901614024162607" fill="#FFFFFF" opacity="0.8575695133875203"/><circle cx="1055" cy="272" r="4.876314784048052" fill="#FFFFFF" opacity="0.8944016182265491"/><circle cx="249" cy="131" r="3.2794996420358222" fill="#FFFFFF" opacity="0.6610522534851557"/><circle cx="1483" cy="683" r="5.166921700196617" fill="#FFFFFF" opacity="0.7728895573968149"/><circle cx="604" cy="335" r="2.0798942488948033" fill="#FFFFFF" opacity="0.7481847178946335"/><circle cx="994" cy="61" r="4.945027073482448" fill="#FFFFFF" opacity="0.7377509315093344"/><circle cx="831" cy="837" r="4.034699653971989" fill="#FFFFFF" opacity="0.8078832674216883"/><circle cx="1232" cy="614" r="4.541829103432846" fill="#FFFFFF" opacity="0.7600756437846025"/><circle cx="326" cy="217" r="3.7257313252736517" fill="#FFFFFF" opacity="0.8973770771688028"/><circle cx="1122" cy="503" r="4.492773970374608" fill="#FFFFFF" opacity="0.5669032700697395"/><circle cx="1098" cy="786" r="2.185148762092095" fill="#FFFFFF" opacity="0.7905109693947976"/><circle cx="611" cy="300" r="4.235720399662638" fill="#FFFFFF" opacity="0.7065569598916492"/><circle cx="944" cy="300" r="5.2016364892750335" fill="#FFFFFF" opacity="0.6321345671821865"/><circle cx="321" cy="499" r="4.3798971128915385" fill="#FFFFFF" opacity="0.7910055248589024"/><circle cx="300" cy="275" r="5.914545893865311" fill="#FFFFFF" opacity="0.6443005652908567"/><circle cx="1561" cy="698" r="4.488022165795349" fill="#FFFFFF" opacity="0.850765526966571"/><circle cx="415" cy="565" r="3.7649373520394804" fill="#FFFFFF" opacity="0.879637362071604"/><circle cx="835" cy="610" r="4.643696721417422" fill="#FFFFFF" opacity="0.6889192019872357"/><circle cx="257" cy="890" r="4.027376545754511" fill="#FFFFFF" opacity="0.5922694338908301"/><circle cx="1457" cy="357" r="5.065477788837779" fill="#FFFFFF" opacity="0.5128905229550476"/><circle cx="1050" cy="7" r="4.065883719442022" fill="#FFFFFF" opacity="0.7998997968054401"/><circle cx="883" cy="359" r="5.762016971196283" fill="#FFFFFF" opacity="0.8060450529366838"/><circle cx="381" cy="597" r="5.471782560601157" fill="#FFFFFF" opacity="0.7517554498930257"/><circle cx="149" cy="541" r="2.2510644961779933" fill="#FFFFFF" opacity="0.8435169713592351"/><circle cx="110" cy="288" r="4.047579940344141" fill="#FFFFFF" opacity="0.5106679001720101"/><circle cx="67" cy="532" r="3.7653809358424284" fill="#FFFFFF" opacity="0.5969166676057662"/><circle cx="960" cy="292" r="5.1780905834527955" fill="#FFFFFF" opacity="0.730718621552832"/><circle cx="1047" cy="499" r="5.2036362920402315" fill="#FFFFFF" opacity="0.516962046233694"/><circle cx="285" cy="554" r="4.141133845234018" fill="#FFFFFF" opacity="0.6226801929879253"/><circle cx="67" cy="247" r="5.5164836424078905" fill="#FFFFFF" opacity="0.8750196511739052"/><circle cx="1364" cy="170" r="3.0781685593937755" fill="#FFFFFF" opacity="0.683491527548195"/><circle cx="232" cy="258" r="2.9685002255644615" fill="#FFFFFF" opacity="0.5838795640474332"/><circle cx="882" cy="31" r="2.095354711861449" fill="#FFFFFF" opacity="0.6304339277817873"/><circle cx="1418" cy="219" r="4.102111444750335" fill="#FFFFFF" opacity="0.7465263257939472"/><circle cx="1524" cy="892" r="4.446059594227712" fill="#FFFFFF" opacity="0.7207816461245529"/><circle cx="897" cy="233" r="5.381721957804658" fill="#FFFFFF" opacity="0.808830431410852"/><circle cx="343" cy="134" r="3.950123637597183" fill="#FFFFFF" opacity="0.8188314042526184"/><circle cx="205" cy="237" r="4.6275041539798725" fill="#FFFFFF" opacity="0.5336571591155344"/><circle cx="1243" cy="124" r="5.441796600695529" fill="#FFFFFF" opacity="0.6263592122060185"/><circle cx="902" cy="707" r="2.6605087411235524" fill="#FFFFFF" opacity="0.7383113978452035"/><circle cx="1473" cy="154" r="2.251938727582681" fill="#FFFFFF" opacity="0.6403691413588279"/><circle cx="82" cy="892" r="5.103041432884611" fill="#FFFFFF" opacity="0.8224551862856857"/><circle cx="904" cy="275" r="2.3674759960128204" fill="#FFFFFF" opacity="0.6319344651370814"/><circle cx="1140" cy="236" r="3.1526167784697012" fill="#FFFFFF" opacity="0.5618238524360774"/><circle cx="1250" cy="409" r="5.263216936260579" fill="#FFFFFF" opacity="0.6368048758215414"/><circle cx="186" cy="883" r="4.270998326789421" fill="#FFFFFF" opacity="0.894784446932174"/><circle cx="1549" cy="671" r="5.392603354170786" fill="#FFFFFF" opacity="0.6769788299701749"/><circle cx="413" cy="488" r="3.3234089990810944" fill="#FFFFFF" opacity="0.8511104774407356"/><circle cx="1592" cy="222" r="5.112818666585705" fill="#FFFFFF" opacity="0.6251619994418175"/><circle cx="1166" cy="390" r="3.264575686966014" fill="#FFFFFF" opacity="0.8995745931732243"/><circle cx="77" cy="244" r="2.4323683532052147" fill="#FFFFFF" opacity="0.6828802703177775"/><circle cx="465" cy="795" r="3.4571713064162486" fill="#FFFFFF" opacity="0.80133546899346"/><circle cx="333" cy="640" r="4.112470379069677" fill="#FFFFFF" opacity="0.561884355181077"/><circle cx="1025" cy="63" r="3.465446420916124" fill="#FFFFFF" opacity="0.5065058047830685"/><circle cx="565" cy="613" r="3.0564108324651067" fill="#FFFFFF" opacity="0.8927958522463266"/><circle cx="406" cy="851" r="2.728462844419329" fill="#FFFFFF" opacity="0.6570995841965925"/><circle cx="1203" cy="778" r="3.7014938356793254" fill="#FFFFFF" opacity="0.818408453740477"/><circle cx="549" cy="114" r="2.556815802809878" fill="#FFFFFF" opacity="0.7100277465905138"/><circle cx="942" cy="561" r="5.562060943789081" fill="#FFFFFF" opacity="0.8937422849444165"/><circle cx="790" cy="12" r="4.565580988636849" fill="#FFFFFF" opacity="0.5630540972488027"/><circle cx="996" cy="234" r="4.497470566443312" fill="#FFFFFF" opacity="0.6956101971926905"/><circle cx="1053" cy="240" r="3.5192682039245593" fill="#FFFFFF" opacity="0.7843041168291207"/></svg>