<svg xmlns="http://www.w3.org/2000/svg" viewBox="0 0 1200 800" width="1200" height="800">
  <defs>
    <radialGradient id="g" cx="50%" cy="42%" r="75%">
      <stop offset="0" stop-color="#2e5960"/>
      <stop offset="1" stop-color="#183b50"/>
    </radialGradient>
    <pattern id="snow" width="120" height="120" patternUnits="userSpaceOnUse">
      <circle cx="20" cy="28" r="2.4" fill="#fff" opacity=".55"/>
      <circle cx="90" cy="70" r="1.8" fill="#fff" opacity=".45"/>
      <circle cx="64" cy="18" r="1.3" fill="#fff" opacity=".35"/>
      <circle cx="42" cy="100" r="1.7" fill="#fff" opacity=".4"/>
    </pattern>
    <linearGradient id="shine" x1="0" x2="1" y1="0" y2="1">
      <stop offset="0" stop-color="#ffffff" stop-opacity=".16"/>
      <stop offset="1" stop-color="#ffffff" stop-opacity="0"/>
    </linearGradient>
  </defs>
  <rect width="1200" height="800" fill="url(#g)"/>
  <rect width="1200" height="800" fill="url(#snow)"/>
  <circle cx="-60" cy="820" r="360" fill="#fff" opacity=".08"/>
  <circle cx="1260" cy="-70" r="390" fill="#ffe174" opacity=".10"/>
  
<g transform="translate(760 410)">
 <circle cx="0" cy="125" r="82" fill="#fff" opacity=".92"/><circle cx="0" cy="10" r="58" fill="#fff" opacity=".96"/>
 <rect x="-55" y="-82" width="110" height="28" rx="6" fill="#2a302c"/><rect x="-30" y="-140" width="60" height="65" rx="8" fill="#2a302c"/>
 <circle cx="-18" cy="0" r="5" fill="#1d2020"/><circle cx="18" cy="0" r="5" fill="#1d2020"/><path d="M0 12 l48 13 l-48 13z" fill="#f58a2e"/>
 <path d="M-55 42 h110" stroke="#e84855" stroke-width="16" stroke-linecap="round"/>
</g>
  <rect width="1200" height="800" fill="url(#shine)"/>
</svg>