<svg xmlns="http://www.w3.org/2000/svg" viewBox="0 0 1200 800" width="1200" height="800">
  <defs>
    <radialGradient id="g" cx="50%" cy="42%" r="75%">
      <stop offset="0" stop-color="#69392b"/>
      <stop offset="1" stop-color="#4a2a1f"/>
    </radialGradient>
    <pattern id="snow" width="120" height="120" patternUnits="userSpaceOnUse">
      <circle cx="20" cy="28" r="2.4" fill="#fff" opacity=".55"/>
      <circle cx="90" cy="70" r="1.8" fill="#fff" opacity=".45"/>
      <circle cx="64" cy="18" r="1.3" fill="#fff" opacity=".35"/>
      <circle cx="42" cy="100" r="1.7" fill="#fff" opacity=".4"/>
    </pattern>
    <linearGradient id="shine" x1="0" x2="1" y1="0" y2="1">
      <stop offset="0" stop-color="#ffffff" stop-opacity=".16"/>
      <stop offset="1" stop-color="#ffffff" stop-opacity="0"/>
    </linearGradient>
  </defs>
  <rect width="1200" height="800" fill="url(#g)"/>
  <rect width="1200" height="800" fill="url(#snow)"/>
  <circle cx="-60" cy="820" r="360" fill="#fff" opacity=".08"/>
  <circle cx="1260" cy="-70" r="390" fill="#ffcb75" opacity=".10"/>
  
<g transform="translate(680 365)">
 <path d="M-95 -95 a45 45 0 1 1 90 0 v45 h70 v80 h-70 v160 h-90 v-160 h-70 v-80 h70z" fill="#a86132"/>
 <circle cx="-68" cy="-102" r="8" fill="#fff4c9"/><circle cx="-32" cy="-102" r="8" fill="#fff4c9"/>
 <path d="M-72 -68 q22 22 44 0" fill="none" stroke="#fff4c9" stroke-width="7" stroke-linecap="round"/>
 <circle cx="-50" cy="-15" r="9" fill="#7ee094"/><circle cx="-50" cy="28" r="9" fill="#ff5c67"/>
 <path d="M-160 200 h330" stroke="#fff" stroke-width="25" opacity=".25"/>
</g>
  <rect width="1200" height="800" fill="url(#shine)"/>
</svg>