<svg xmlns="http://www.w3.org/2000/svg" viewBox="0 0 1600 900" preserveAspectRatio="xMidYMid slice"><defs><linearGradient id="bg9" x1="0" y1="0" x2="0" y2="1"><stop offset="0%" stop-color="#1A237E"/><stop offset="100%" stop-color="#3949AB"/></linearGradient><linearGradient id="hill19" x1="0" y1="0" x2="0" y2="1"><stop offset="0%" stop-color="#FFFFFF"/><stop offset="100%" stop-color="#E3F2FD"/></linearGradient><linearGradient id="hill29" x1="0" y1="0" x2="0" y2="1"><stop offset="0%" stop-color="#F5F5F5"/><stop offset="100%" stop-color="#BBDEFB"/></linearGradient></defs><rect width="1600" height="900" fill="url(#bg9)"/><circle cx="1300" cy="200" r="60" fill="#FFF9C4" opacity="0.9"/><circle cx="1300" cy="200" r="120" fill="#FFF9C4" opacity="0.1"/><circle cx="280" cy="476" r="2.4616744856038935" fill="#FFFFFF" opacity="0.6120000764839294"/><circle cx="41" cy="377" r="2.9262096263217945" fill="#FFFFFF" opacity="0.7527073427674278"/><circle cx="406" cy="477" r="2.046771555925563" fill="#FFFFFF" opacity="0.4034198642167069"/><circle cx="1088" cy="176" r="1.215237764108625" fill="#FFFFFF" opacity="0.4554642475024113"/><circle cx="818" cy="392" r="1.1859898333348535" fill="#FFFFFF" opacity="0.647373001602596"/><circle cx="28" cy="466" r="2.2165446607191415" fill="#FFFFFF" opacity="0.4026519623525122"/><circle cx="1095" cy="96" r="1.5530781211900861" fill="#FFFFFF" opacity="0.6284853140359887"/><circle cx="897" cy="214" r="2.3588443646406114" fill="#FFFFFF" opacity="0.3820175806486352"/><circle cx="1270" cy="23" r="2.493653837105346" fill="#FFFFFF" opacity="0.3587587946751756"/><circle cx="519" cy="395" r="1.0767037705475648" fill="#FFFFFF" opacity="0.4625055679331658"/><circle cx="1007" cy="29" r="1.7978549429267887" fill="#FFFFFF" opacity="0.5369171083664054"/><circle cx="737" cy="34" r="1.0165068773354116" fill="#FFFFFF" opacity="0.40260806105399455"/><circle cx="1155" cy="152" r="2.058053602759607" fill="#FFFFFF" opacity="0.3613536553354487"/><circle cx="459" cy="251" r="2.3055139022807616" fill="#FFFFFF" opacity="0.5097040490141673"/><circle cx="424" cy="330" r="2.962111260619503" fill="#FFFFFF" opacity="0.7037875909823041"/><circle cx="1439" cy="378" r="1.0293954923438549" fill="#FFFFFF" opacity="0.7666227461425528"/><circle cx="544" cy="26" r="1.170755702978864" fill="#FFFFFF" opacity="0.6377918422187132"/><circle cx="1005" cy="230" r="2.2160164663735076" fill="#FFFFFF" opacity="0.5454825624969064"/><circle cx="282" cy="31" r="1.8604536250930643" fill="#FFFFFF" opacity="0.37363719945279183"/><circle cx="1406" cy="105" r="2.382708956631835" fill="#FFFFFF" opacity="0.43704022219683014"/><circle cx="823" cy="46" r="1.103976151631791" fill="#FFFFFF" opacity="0.729479164952286"/><circle cx="1027" cy="476" r="1.225822583625951" fill="#FFFFFF" opacity="0.4362791288576375"/><circle cx="89" cy="153" r="2.924436751245548" fill="#FFFFFF" opacity="0.7003857630062428"/><circle cx="943" cy="188" r="1.1855649001975999" fill="#FFFFFF" opacity="0.41102939941611394"/><circle cx="1149" cy="61" r="1.0086480197251428" fill="#FFFFFF" opacity="0.40108535691917596"/><circle cx="743" cy="405" r="1.7755782371409419" fill="#FFFFFF" opacity="0.516408755833873"/><circle cx="1145" cy="139" r="2.5133320654967903" fill="#FFFFFF" opacity="0.6493989870255286"/><circle cx="1190" cy="144" r="1.9024080359772229" fill="#FFFFFF" opacity="0.4506650148788897"/><circle cx="755" cy="237" r="1.0996395910363765" fill="#FFFFFF" opacity="0.38690809663992265"/><circle cx="579" cy="26" r="2.9339635225307354" fill="#FFFFFF" opacity="0.43615906774052104"/><circle cx="1053" cy="433" r="2.6943977641626606" fill="#FFFFFF" opacity="0.631090555010105"/><circle cx="1579" cy="317" r="2.3172133648121678" fill="#FFFFFF" opacity="0.37707166857356894"/><circle cx="137" cy="434" r="2.6880884273532706" fill="#FFFFFF" opacity="0.5110490284142857"/><circle cx="618" cy="157" r="1.253671060315373" fill="#FFFFFF" opacity="0.7881776075396878"/><circle cx="742" cy="27" r="2.8528293623447047" fill="#FFFFFF" opacity="0.7998527577113441"/><circle cx="1529" cy="383" r="1.2615057194660462" fill="#FFFFFF" opacity="0.6758735787973548"/><circle cx="194" cy="119" r="2.519433353923593" fill="#FFFFFF" opacity="0.536085432320614"/><circle cx="1384" cy="14" r="1.4975088916867092" fill="#FFFFFF" opacity="0.5286258654813718"/><circle cx="406" cy="74" r="1.292039821000438" fill="#FFFFFF" opacity="0.6537305485893972"/><circle cx="623" cy="474" r="1.271455403380526" fill="#FFFFFF" opacity="0.5108450087891245"/><circle cx="1182" cy="307" r="1.1835014092762846" fill="#FFFFFF" opacity="0.7319824298700326"/><circle cx="1599" cy="275" r="1.1709696365690945" fill="#FFFFFF" opacity="0.3384826483138691"/><circle cx="980" cy="373" r="2.328032288871248" fill="#FFFFFF" opacity="0.5123832655075149"/><circle cx="932" cy="44" r="2.275545061218674" fill="#FFFFFF" opacity="0.5137309874700905"/><circle cx="19" cy="220" r="1.8178259475272263" fill="#FFFFFF" opacity="0.6677353284162426"/><circle cx="172" cy="220" r="1.642494566023594" fill="#FFFFFF" opacity="0.7593861827145669"/><circle cx="968" cy="492" r="1.7325230469140582" fill="#FFFFFF" opacity="0.5641319213693088"/><circle cx="420" cy="143" r="2.6864360822072726" fill="#FFFFFF" opacity="0.3628393926074475"/><circle cx="1351" cy="482" r="2.663448375471777" fill="#FFFFFF" opacity="0.6296985000789382"/><circle cx="1341" cy="257" r="2.443193590179605" fill="#FFFFFF" opacity="0.6886445070986424"/><path d="M 0 600 Q 400 450 800 600 T 1600 550 L 1600 900 L 0 900 Z" fill="url(#hill29)"/><g transform="translate(213,649) scale(0.8394499546122544)"><rect x="-6" y="-10" width="12" height="20" fill="#795548" rx="2"/><path d="M -40 -10 L 40 -10 L 0 -50 Z" fill="#2E7D32"/><path d="M -30 -30 L 30 -30 L 0 -70 Z" fill="#43A047"/><path d="M -20 -50 L 20 -50 L 0 -90 Z" fill="#4CAF50"/><circle cx="-15" cy="-20" r="3.5" fill="#F44336"/><circle cx="10" cy="-25" r="3.5" fill="#FFEB3B"/><circle cx="-5" cy="-40" r="3.5" fill="#AB47BC"/><circle cx="15" cy="-45" r="3.5" fill="#F44336"/><circle cx="-10" cy="-60" r="3.5" fill="#29B6F6"/><circle cx="0" cy="-30" r="3.5" fill="#FF9800"/><circle cx="20" cy="-15" r="3.5" fill="#FF9800"/><circle cx="-25" cy="-12" r="3.5" fill="#FFEB3B"/><polygon points="0,-95 3,-85 12,-85 5,-80 8,-70 0,-76 -8,-70 -5,-80 -12,-85 -3,-85" fill="#FFC107"/></g><g transform="translate(595,598) scale(0.8523946515942276)"><rect x="-6" y="-10" width="12" height="20" fill="#795548" rx="2"/><path d="M -40 -10 L 40 -10 L 0 -50 Z" fill="#2E7D32"/><path d="M -30 -30 L 30 -30 L 0 -70 Z" fill="#43A047"/><path d="M -20 -50 L 20 -50 L 0 -90 Z" fill="#4CAF50"/><circle cx="-15" cy="-20" r="3.5" fill="#AB47BC"/><circle cx="10" cy="-25" r="3.5" fill="#AB47BC"/><circle cx="-5" cy="-40" r="3.5" fill="#FF9800"/><circle cx="15" cy="-45" r="3.5" fill="#FF9800"/><circle cx="-10" cy="-60" r="3.5" fill="#29B6F6"/><circle cx="0" cy="-30" r="3.5" fill="#29B6F6"/><circle cx="20" cy="-15" r="3.5" fill="#FF9800"/><circle cx="-25" cy="-12" r="3.5" fill="#F44336"/><polygon points="0,-95 3,-85 12,-85 5,-80 8,-70 0,-76 -8,-70 -5,-80 -12,-85 -3,-85" fill="#FFC107"/></g><g transform="translate(1462,649) scale(1.0013892072525798)"><rect x="-6" y="-10" width="12" height="20" fill="#795548" rx="2"/><path d="M -40 -10 L 40 -10 L 0 -50 Z" fill="#2E7D32"/><path d="M -30 -30 L 30 -30 L 0 -70 Z" fill="#43A047"/><path d="M -20 -50 L 20 -50 L 0 -90 Z" fill="#4CAF50"/><circle cx="-15" cy="-20" r="3.5" fill="#FF9800"/><circle cx="10" cy="-25" r="3.5" fill="#FF9800"/><circle cx="-5" cy="-40" r="3.5" fill="#AB47BC"/><circle cx="15" cy="-45" r="3.5" fill="#F44336"/><circle cx="-10" cy="-60" r="3.5" fill="#FF9800"/><circle cx="0" cy="-30" r="3.5" fill="#29B6F6"/><circle cx="20" cy="-15" r="3.5" fill="#29B6F6"/><circle cx="-25" cy="-12" r="3.5" fill="#FF9800"/><polygon points="0,-95 3,-85 12,-85 5,-80 8,-70 0,-76 -8,-70 -5,-80 -12,-85 -3,-85" fill="#FFC107"/></g><g transform="translate(788,605) scale(0.8819505073111084)"><rect x="-6" y="-10" width="12" height="20" fill="#795548" rx="2"/><path d="M -40 -10 L 40 -10 L 0 -50 Z" fill="#2E7D32"/><path d="M -30 -30 L 30 -30 L 0 -70 Z" fill="#43A047"/><path d="M -20 -50 L 20 -50 L 0 -90 Z" fill="#4CAF50"/><circle cx="-15" cy="-20" r="3.5" fill="#29B6F6"/><circle cx="10" cy="-25" r="3.5" fill="#AB47BC"/><circle cx="-5" cy="-40" r="3.5" fill="#AB47BC"/><circle cx="15" cy="-45" r="3.5" fill="#29B6F6"/><circle cx="-10" cy="-60" r="3.5" fill="#F44336"/><circle cx="0" cy="-30" r="3.5" fill="#FFEB3B"/><circle cx="20" cy="-15" r="3.5" fill="#FFEB3B"/><circle cx="-25" cy="-12" r="3.5" fill="#AB47BC"/><polygon points="0,-95 3,-85 12,-85 5,-80 8,-70 0,-76 -8,-70 -5,-80 -12,-85 -3,-85" fill="#FFC107"/></g><g transform="translate(1347,593) scale(0.9992390116987109)"><rect x="-6" y="-10" width="12" height="20" fill="#795548" rx="2"/><path d="M -40 -10 L 40 -10 L 0 -50 Z" fill="#2E7D32"/><path d="M -30 -30 L 30 -30 L 0 -70 Z" fill="#43A047"/><path d="M -20 -50 L 20 -50 L 0 -90 Z" fill="#4CAF50"/><circle cx="-15" cy="-20" r="3.5" fill="#AB47BC"/><circle cx="10" cy="-25" r="3.5" fill="#FF9800"/><circle cx="-5" cy="-40" r="3.5" fill="#F44336"/><circle cx="15" cy="-45" r="3.5" fill="#29B6F6"/><circle cx="-10" cy="-60" r="3.5" fill="#AB47BC"/><circle cx="0" cy="-30" r="3.5" fill="#AB47BC"/><circle cx="20" cy="-15" r="3.5" fill="#29B6F6"/><circle cx="-25" cy="-12" r="3.5" fill="#AB47BC"/><polygon points="0,-95 3,-85 12,-85 5,-80 8,-70 0,-76 -8,-70 -5,-80 -12,-85 -3,-85" fill="#FFC107"/></g><g transform="translate(448,592) scale(0.870142285991462)"><rect x="-6" y="-10" width="12" height="20" fill="#795548" rx="2"/><path d="M -40 -10 L 40 -10 L 0 -50 Z" fill="#2E7D32"/><path d="M -30 -30 L 30 -30 L 0 -70 Z" fill="#43A047"/><path d="M -20 -50 L 20 -50 L 0 -90 Z" fill="#4CAF50"/><circle cx="-15" cy="-20" r="3.5" fill="#FFEB3B"/><circle cx="10" cy="-25" r="3.5" fill="#29B6F6"/><circle cx="-5" cy="-40" r="3.5" fill="#AB47BC"/><circle cx="15" cy="-45" r="3.5" fill="#F44336"/><circle cx="-10" cy="-60" r="3.5" fill="#29B6F6"/><circle cx="0" cy="-30" r="3.5" fill="#29B6F6"/><circle cx="20" cy="-15" r="3.5" fill="#AB47BC"/><circle cx="-25" cy="-12" r="3.5" fill="#FF9800"/><polygon points="0,-95 3,-85 12,-85 5,-80 8,-70 0,-76 -8,-70 -5,-80 -12,-85 -3,-85" fill="#FFC107"/></g><g transform="translate(1001,638) scale(1.1372677056561586)"><rect x="-6" y="-10" width="12" height="20" fill="#795548" rx="2"/><path d="M -40 -10 L 40 -10 L 0 -50 Z" fill="#2E7D32"/><path d="M -30 -30 L 30 -30 L 0 -70 Z" fill="#43A047"/><path d="M -20 -50 L 20 -50 L 0 -90 Z" fill="#4CAF50"/><circle cx="-15" cy="-20" r="3.5" fill="#F44336"/><circle cx="10" cy="-25" r="3.5" fill="#F44336"/><circle cx="-5" cy="-40" r="3.5" fill="#F44336"/><circle cx="15" cy="-45" r="3.5" fill="#29B6F6"/><circle cx="-10" cy="-60" r="3.5" fill="#FFEB3B"/><circle cx="0" cy="-30" r="3.5" fill="#F44336"/><circle cx="20" cy="-15" r="3.5" fill="#FFEB3B"/><circle cx="-25" cy="-12" r="3.5" fill="#29B6F6"/><polygon points="0,-95 3,-85 12,-85 5,-80 8,-70 0,-76 -8,-70 -5,-80 -12,-85 -3,-85" fill="#FFC107"/></g><g transform="translate(387,632) scale(1.1143202692368845)"><rect x="-6" y="-10" width="12" height="20" fill="#795548" rx="2"/><path d="M -40 -10 L 40 -10 L 0 -50 Z" fill="#2E7D32"/><path d="M -30 -30 L 30 -30 L 0 -70 Z" fill="#43A047"/><path d="M -20 -50 L 20 -50 L 0 -90 Z" fill="#4CAF50"/><circle cx="-15" cy="-20" r="3.5" fill="#F44336"/><circle cx="10" cy="-25" r="3.5" fill="#29B6F6"/><circle cx="-5" cy="-40" r="3.5" fill="#29B6F6"/><circle cx="15" cy="-45" r="3.5" fill="#AB47BC"/><circle cx="-10" cy="-60" r="3.5" fill="#F44336"/><circle cx="0" cy="-30" r="3.5" fill="#FFEB3B"/><circle cx="20" cy="-15" r="3.5" fill="#29B6F6"/><circle cx="-25" cy="-12" r="3.5" fill="#29B6F6"/><polygon points="0,-95 3,-85 12,-85 5,-80 8,-70 0,-76 -8,-70 -5,-80 -12,-85 -3,-85" fill="#FFC107"/></g><path d="M 0 700 Q 600 550 1200 750 T 1600 650 L 1600 900 L 0 900 Z" fill="url(#hill19)"/><g transform="translate(441,793) scale(2.1517235673288027)"><circle cx="0" cy="-20" r="20" fill="#FFFFFF"/><circle cx="0" cy="-55" r="16" fill="#FFFFFF"/><circle cx="0" cy="-85" r="12" fill="#FFFFFF"/><rect x="-15" y="-95" width="30" height="4" fill="#212121" rx="2"/><rect x="-10" y="-115" width="20" height="20" fill="#212121"/><rect x="-10" y="-99" width="20" height="4" fill="#F44336"/><circle cx="-4" cy="-87" r="1.5" fill="#212121"/><circle cx="4" cy="-87" r="1.5" fill="#212121"/><path d="M 0 -83 L 15 -78 L 0 -77 Z" fill="#FF9800"/><path d="M -12 -70 Q 0 -65 12 -70 L 14 -60 Q 0 -55 -14 -60 Z" fill="#F44336"/><path d="M 8 -65 L 12 -45 L 6 -45 Z" fill="#F44336"/><circle cx="0" cy="-60" r="1.5" fill="#212121"/><circle cx="0" cy="-50" r="1.5" fill="#212121"/><circle cx="0" cy="-25" r="2" fill="#212121"/><circle cx="0" cy="-10" r="2" fill="#212121"/></g><g transform="translate(372,724) scale(1.98355543703041)"><circle cx="0" cy="-20" r="20" fill="#FFFFFF"/><circle cx="0" cy="-55" r="16" fill="#FFFFFF"/><circle cx="0" cy="-85" r="12" fill="#FFFFFF"/><rect x="-15" y="-95" width="30" height="4" fill="#212121" rx="2"/><rect x="-10" y="-115" width="20" height="20" fill="#212121"/><rect x="-10" y="-99" width="20" height="4" fill="#F44336"/><circle cx="-4" cy="-87" r="1.5" fill="#212121"/><circle cx="4" cy="-87" r="1.5" fill="#212121"/><path d="M 0 -83 L 15 -78 L 0 -77 Z" fill="#FF9800"/><path d="M -12 -70 Q 0 -65 12 -70 L 14 -60 Q 0 -55 -14 -60 Z" fill="#F44336"/><path d="M 8 -65 L 12 -45 L 6 -45 Z" fill="#F44336"/><circle cx="0" cy="-60" r="1.5" fill="#212121"/><circle cx="0" cy="-50" r="1.5" fill="#212121"/><circle cx="0" cy="-25" r="2" fill="#212121"/><circle cx="0" cy="-10" r="2" fill="#212121"/></g><g transform="translate(708,819) scale(1.9554420866151165)"><circle cx="0" cy="-20" r="20" fill="#FFFFFF"/><circle cx="0" cy="-55" r="16" fill="#FFFFFF"/><circle cx="0" cy="-85" r="12" fill="#FFFFFF"/><rect x="-15" y="-95" width="30" height="4" fill="#212121" rx="2"/><rect x="-10" y="-115" width="20" height="20" fill="#212121"/><rect x="-10" y="-99" width="20" height="4" fill="#F44336"/><circle cx="-4" cy="-87" r="1.5" fill="#212121"/><circle cx="4" cy="-87" r="1.5" fill="#212121"/><path d="M 0 -83 L 15 -78 L 0 -77 Z" fill="#FF9800"/><path d="M -12 -70 Q 0 -65 12 -70 L 14 -60 Q 0 -55 -14 -60 Z" fill="#F44336"/><path d="M 8 -65 L 12 -45 L 6 -45 Z" fill="#F44336"/><circle cx="0" cy="-60" r="1.5" fill="#212121"/><circle cx="0" cy="-50" r="1.5" fill="#212121"/><circle cx="0" cy="-25" r="2" fill="#212121"/><circle cx="0" cy="-10" r="2" fill="#212121"/></g><g transform="translate(1110,709) scale(2.308748440860133)"><rect x="-6" y="-10" width="12" height="20" fill="#795548" rx="2"/><path d="M -40 -10 L 40 -10 L 0 -50 Z" fill="#2E7D32"/><path d="M -30 -30 L 30 -30 L 0 -70 Z" fill="#43A047"/><path d="M -20 -50 L 20 -50 L 0 -90 Z" fill="#4CAF50"/><circle cx="-15" cy="-20" r="3.5" fill="#FF9800"/><circle cx="10" cy="-25" r="3.5" fill="#FF9800"/><circle cx="-5" cy="-40" r="3.5" fill="#29B6F6"/><circle cx="15" cy="-45" r="3.5" fill="#29B6F6"/><circle cx="-10" cy="-60" r="3.5" fill="#AB47BC"/><circle cx="0" cy="-30" r="3.5" fill="#FF9800"/><circle cx="20" cy="-15" r="3.5" fill="#F44336"/><circle cx="-25" cy="-12" r="3.5" fill="#FFEB3B"/><polygon points="0,-95 3,-85 12,-85 5,-80 8,-70 0,-76 -8,-70 -5,-80 -12,-85 -3,-85" fill="#FFC107"/></g><g transform="translate(314,746) scale(2.2600052025096784)"><rect x="-6" y="-10" width="12" height="20" fill="#795548" rx="2"/><path d="M -40 -10 L 40 -10 L 0 -50 Z" fill="#2E7D32"/><path d="M -30 -30 L 30 -30 L 0 -70 Z" fill="#43A047"/><path d="M -20 -50 L 20 -50 L 0 -90 Z" fill="#4CAF50"/><circle cx="-15" cy="-20" r="3.5" fill="#FFEB3B"/><circle cx="10" cy="-25" r="3.5" fill="#FF9800"/><circle cx="-5" cy="-40" r="3.5" fill="#29B6F6"/><circle cx="15" cy="-45" r="3.5" fill="#FFEB3B"/><circle cx="-10" cy="-60" r="3.5" fill="#FFEB3B"/><circle cx="0" cy="-30" r="3.5" fill="#AB47BC"/><circle cx="20" cy="-15" r="3.5" fill="#FFEB3B"/><circle cx="-25" cy="-12" r="3.5" fill="#29B6F6"/><polygon points="0,-95 3,-85 12,-85 5,-80 8,-70 0,-76 -8,-70 -5,-80 -12,-85 -3,-85" fill="#FFC107"/></g><g transform="translate(179,718) scale(2.434624985383188)"><rect x="-6" y="-10" width="12" height="20" fill="#795548" rx="2"/><path d="M -40 -10 L 40 -10 L 0 -50 Z" fill="#2E7D32"/><path d="M -30 -30 L 30 -30 L 0 -70 Z" fill="#43A047"/><path d="M -20 -50 L 20 -50 L 0 -90 Z" fill="#4CAF50"/><circle cx="-15" cy="-20" r="3.5" fill="#FF9800"/><circle cx="10" cy="-25" r="3.5" fill="#FFEB3B"/><circle cx="-5" cy="-40" r="3.5" fill="#29B6F6"/><circle cx="15" cy="-45" r="3.5" fill="#FFEB3B"/><circle cx="-10" cy="-60" r="3.5" fill="#F44336"/><circle cx="0" cy="-30" r="3.5" fill="#29B6F6"/><circle cx="20" cy="-15" r="3.5" fill="#FFEB3B"/><circle cx="-25" cy="-12" r="3.5" fill="#AB47BC"/><polygon points="0,-95 3,-85 12,-85 5,-80 8,-70 0,-76 -8,-70 -5,-80 -12,-85 -3,-85" fill="#FFC107"/></g><g transform="translate(129,779) scale(1.8061406087495837)"><rect x="-6" y="-10" width="12" height="20" fill="#795548" rx="2"/><path d="M -40 -10 L 40 -10 L 0 -50 Z" fill="#2E7D32"/><path d="M -30 -30 L 30 -30 L 0 -70 Z" fill="#43A047"/><path d="M -20 -50 L 20 -50 L 0 -90 Z" fill="#4CAF50"/><circle cx="-15" cy="-20" r="3.5" fill="#29B6F6"/><circle cx="10" cy="-25" r="3.5" fill="#AB47BC"/><circle cx="-5" cy="-40" r="3.5" fill="#AB47BC"/><circle cx="15" cy="-45" r="3.5" fill="#29B6F6"/><circle cx="-10" cy="-60" r="3.5" fill="#F44336"/><circle cx="0" cy="-30" r="3.5" fill="#FF9800"/><circle cx="20" cy="-15" r="3.5" fill="#F44336"/><circle cx="-25" cy="-12" r="3.5" fill="#FF9800"/><polygon points="0,-95 3,-85 12,-85 5,-80 8,-70 0,-76 -8,-70 -5,-80 -12,-85 -3,-85" fill="#FFC107"/></g><g transform="translate(918,798) scale(1.9067409417146886)"><rect x="-6" y="-10" width="12" height="20" fill="#795548" rx="2"/><path d="M -40 -10 L 40 -10 L 0 -50 Z" fill="#2E7D32"/><path d="M -30 -30 L 30 -30 L 0 -70 Z" fill="#43A047"/><path d="M -20 -50 L 20 -50 L 0 -90 Z" fill="#4CAF50"/><circle cx="-15" cy="-20" r="3.5" fill="#FFEB3B"/><circle cx="10" cy="-25" r="3.5" fill="#29B6F6"/><circle cx="-5" cy="-40" r="3.5" fill="#FF9800"/><circle cx="15" cy="-45" r="3.5" fill="#FFEB3B"/><circle cx="-10" cy="-60" r="3.5" fill="#F44336"/><circle cx="0" cy="-30" r="3.5" fill="#F44336"/><circle cx="20" cy="-15" r="3.5" fill="#29B6F6"/><circle cx="-25" cy="-12" r="3.5" fill="#FF9800"/><polygon points="0,-95 3,-85 12,-85 5,-80 8,-70 0,-76 -8,-70 -5,-80 -12,-85 -3,-85" fill="#FFC107"/></g><g transform="translate(434,708) scale(2.2956751005872587)"><rect x="-6" y="-10" width="12" height="20" fill="#795548" rx="2"/><path d="M -40 -10 L 40 -10 L 0 -50 Z" fill="#2E7D32"/><path d="M -30 -30 L 30 -30 L 0 -70 Z" fill="#43A047"/><path d="M -20 -50 L 20 -50 L 0 -90 Z" fill="#4CAF50"/><circle cx="-15" cy="-20" r="3.5" fill="#29B6F6"/><circle cx="10" cy="-25" r="3.5" fill="#AB47BC"/><circle cx="-5" cy="-40" r="3.5" fill="#F44336"/><circle cx="15" cy="-45" r="3.5" fill="#FF9800"/><circle cx="-10" cy="-60" r="3.5" fill="#FFEB3B"/><circle cx="0" cy="-30" r="3.5" fill="#FFEB3B"/><circle cx="20" cy="-15" r="3.5" fill="#F44336"/><circle cx="-25" cy="-12" r="3.5" fill="#AB47BC"/><polygon points="0,-95 3,-85 12,-85 5,-80 8,-70 0,-76 -8,-70 -5,-80 -12,-85 -3,-85" fill="#FFC107"/></g><g transform="translate(726,768) scale(1.2934377935510497)"><rect x="-15" y="-30" width="30" height="30" fill="#9C27B0" rx="2"/><rect x="-4" y="-30" width="8" height="30" fill="#00E676"/><rect x="-15" y="-19" width="30" height="8" fill="#00E676"/><path d="M -2 -30 C -15 -45 0 -45 0 -30 Z" fill="#00E676"/><path d="M 2 -30 C 15 -45 0 -45 0 -30 Z" fill="#00E676"/></g><g transform="translate(910,752) scale(0.9955408124419248) rotate(-7)"><path d="M 0 0 L 0 -30 A 10 10 0 0 1 20 -30 L 20 -20" fill="none" stroke="#FFFFFF" stroke-width="8" stroke-linecap="round"/><path d="M 0 -5 L 0 -15" stroke="#F44336" stroke-width="8"/><path d="M 0 -25 A 10 10 0 0 1 10 -40" stroke="#F44336" stroke-width="8" fill="none"/><path d="M 20 -30 L 20 -25" stroke="#F44336" stroke-width="8"/></g><g transform="translate(1034,783) scale(0.8544685591581876)"><rect x="-15" y="-30" width="30" height="30" fill="#F44336" rx="2"/><rect x="-4" y="-30" width="8" height="30" fill="#FFEB3B"/><rect x="-15" y="-19" width="30" height="8" fill="#FFEB3B"/><path d="M -2 -30 C -15 -45 0 -45 0 -30 Z" fill="#FFEB3B"/><path d="M 2 -30 C 15 -45 0 -45 0 -30 Z" fill="#FFEB3B"/></g><g transform="translate(633,830) scale(0.9379052967425512) rotate(7)"><path d="M 0 0 L 0 -30 A 10 10 0 0 1 20 -30 L 20 -20" fill="none" stroke="#FFFFFF" stroke-width="8" stroke-linecap="round"/><path d="M 0 -5 L 0 -15" stroke="#F44336" stroke-width="8"/><path d="M 0 -25 A 10 10 0 0 1 10 -40" stroke="#F44336" stroke-width="8" fill="none"/><path d="M 20 -30 L 20 -25" stroke="#F44336" stroke-width="8"/></g><g transform="translate(1344,771) scale(1.1430578427180937)"><rect x="-15" y="-30" width="30" height="30" fill="#9C27B0" rx="2"/><rect x="-4" y="-30" width="8" height="30" fill="#00E676"/><rect x="-15" y="-19" width="30" height="8" fill="#00E676"/><path d="M -2 -30 C -15 -45 0 -45 0 -30 Z" fill="#00E676"/><path d="M 2 -30 C 15 -45 0 -45 0 -30 Z" fill="#00E676"/></g><g transform="translate(1036,786) scale(1.0845397378987212) rotate(0)"><path d="M 0 0 L 0 -30 A 10 10 0 0 1 20 -30 L 20 -20" fill="none" stroke="#FFFFFF" stroke-width="8" stroke-linecap="round"/><path d="M 0 -5 L 0 -15" stroke="#F44336" stroke-width="8"/><path d="M 0 -25 A 10 10 0 0 1 10 -40" stroke="#F44336" stroke-width="8" fill="none"/><path d="M 20 -30 L 20 -25" stroke="#F44336" stroke-width="8"/></g><g transform="translate(396,757) scale(1.0265489414501983)"><rect x="-15" y="-30" width="30" height="30" fill="#2196F3" rx="2"/><rect x="-4" y="-30" width="8" height="30" fill="#F44336"/><rect x="-15" y="-19" width="30" height="8" fill="#F44336"/><path d="M -2 -30 C -15 -45 0 -45 0 -30 Z" fill="#F44336"/><path d="M 2 -30 C 15 -45 0 -45 0 -30 Z" fill="#F44336"/></g><g transform="translate(440,841) scale(1.464529552180631) rotate(6)"><path d="M 0 0 L 0 -30 A 10 10 0 0 1 20 -30 L 20 -20" fill="none" stroke="#FFFFFF" stroke-width="8" stroke-linecap="round"/><path d="M 0 -5 L 0 -15" stroke="#F44336" stroke-width="8"/><path d="M 0 -25 A 10 10 0 0 1 10 -40" stroke="#F44336" stroke-width="8" fill="none"/><path d="M 20 -30 L 20 -25" stroke="#F44336" stroke-width="8"/></g><g transform="translate(400,838) scale(1.3712677189697373)"><rect x="-15" y="-30" width="30" height="30" fill="#F44336" rx="2"/><rect x="-4" y="-30" width="8" height="30" fill="#FFEB3B"/><rect x="-15" y="-19" width="30" height="8" fill="#FFEB3B"/><path d="M -2 -30 C -15 -45 0 -45 0 -30 Z" fill="#FFEB3B"/><path d="M 2 -30 C 15 -45 0 -45 0 -30 Z" fill="#FFEB3B"/></g><g transform="translate(840,841) scale(1.3045032192882395) rotate(-20)"><path d="M 0 0 L 0 -30 A 10 10 0 0 1 20 -30 L 20 -20" fill="none" stroke="#FFFFFF" stroke-width="8" stroke-linecap="round"/><path d="M 0 -5 L 0 -15" stroke="#F44336" stroke-width="8"/><path d="M 0 -25 A 10 10 0 0 1 10 -40" stroke="#F44336" stroke-width="8" fill="none"/><path d="M 20 -30 L 20 -25" stroke="#F44336" stroke-width="8"/></g><circle cx="541" cy="667" r="4.569683156871612" fill="#FFFFFF" opacity="0.8568908380813907"/><circle cx="1005" cy="86" r="3.0662011373527434" fill="#FFFFFF" opacity="0.6427804411570994"/><circle cx="1413" cy="878" r="4.68179550019214" fill="#FFFFFF" opacity="0.6814872868066517"/><circle cx="731" cy="573" r="5.078225136134214" fill="#FFFFFF" opacity="0.610351814481454"/><circle cx="428" cy="412" r="2.6414846340091773" fill="#FFFFFF" opacity="0.7715437955608719"/><circle cx="1455" cy="212" r="4.457887664065568" fill="#FFFFFF" opacity="0.6393157609090624"/><circle cx="238" cy="255" r="3.359189491162359" fill="#FFFFFF" opacity="0.7543293537196383"/><circle cx="1159" cy="229" r="5.680985568149835" fill="#FFFFFF" opacity="0.8454361586254778"/><circle cx="819" cy="843" r="2.2284416284136124" fill="#FFFFFF" opacity="0.6133166052146356"/><circle cx="70" cy="296" r="2.4221965368707394" fill="#FFFFFF" opacity="0.6443837134590765"/><circle cx="1569" cy="897" r="3.5646518983896103" fill="#FFFFFF" opacity="0.5865848962642369"/><circle cx="624" cy="258" r="3.0771172035143115" fill="#FFFFFF" opacity="0.5479765053376613"/><circle cx="63" cy="675" r="2.3762818989192613" fill="#FFFFFF" opacity="0.8443296192275711"/><circle cx="194" cy="72" r="3.985858909478673" fill="#FFFFFF" opacity="0.545796933668033"/><circle cx="1505" cy="324" r="2.0928113939613873" fill="#FFFFFF" opacity="0.5005958428093673"/><circle cx="1127" cy="809" r="2.8519139118838095" fill="#FFFFFF" opacity="0.5312018475961708"/><circle cx="984" cy="385" r="5.156766985883515" fill="#FFFFFF" opacity="0.5903116046447148"/><circle cx="1200" cy="611" r="3.8437405975633925" fill="#FFFFFF" opacity="0.716564243805007"/><circle cx="1289" cy="848" r="3.35635640196679" fill="#FFFFFF" opacity="0.5250925025073"/><circle cx="365" cy="317" r="2.1844994416410315" fill="#FFFFFF" opacity="0.6090836702839679"/><circle cx="970" cy="88" r="4.561646844187968" fill="#FFFFFF" opacity="0.5792052139864825"/><circle cx="1107" cy="23" r="2.1344727155318743" fill="#FFFFFF" opacity="0.8917828173369184"/><circle cx="46" cy="357" r="2.179592307226339" fill="#FFFFFF" opacity="0.575832557033754"/><circle cx="941" cy="248" r="2.289958438984419" fill="#FFFFFF" opacity="0.818100958525257"/><circle cx="742" cy="292" r="4.01397929943052" fill="#FFFFFF" opacity="0.8964999821628129"/><circle cx="708" cy="859" r="2.690934153696425" fill="#FFFFFF" opacity="0.7108644777360404"/><circle cx="1027" cy="785" r="4.547264215101005" fill="#FFFFFF" opacity="0.6668945802175698"/><circle cx="1583" cy="339" r="2.873488467103605" fill="#FFFFFF" opacity="0.5606342514413889"/><circle cx="214" cy="752" r="2.1769992683984807" fill="#FFFFFF" opacity="0.6553223802667647"/><circle cx="446" cy="774" r="4.7657571520375015" fill="#FFFFFF" opacity="0.7690382041055313"/><circle cx="456" cy="605" r="2.7534762125871666" fill="#FFFFFF" opacity="0.8918836320601295"/><circle cx="135" cy="438" r="3.0704614429956774" fill="#FFFFFF" opacity="0.6474890241564736"/><circle cx="375" cy="115" r="2.252412477397145" fill="#FFFFFF" opacity="0.6980076884093165"/><circle cx="1022" cy="24" r="4.739466928154977" fill="#FFFFFF" opacity="0.6601047513679202"/><circle cx="1563" cy="899" r="3.1839473563895897" fill="#FFFFFF" opacity="0.8625045235602331"/><circle cx="306" cy="106" r="3.457110732711894" fill="#FFFFFF" opacity="0.8517971044898769"/><circle cx="750" cy="772" r="2.4311233906012926" fill="#FFFFFF" opacity="0.7398205986716955"/><circle cx="600" cy="545" r="2.2421411851840225" fill="#FFFFFF" opacity="0.5411100044916184"/><circle cx="999" cy="207" r="2.990288464544009" fill="#FFFFFF" opacity="0.6789435999831592"/><circle cx="1014" cy="249" r="4.300237551114185" fill="#FFFFFF" opacity="0.5783883900329873"/><circle cx="1550" cy="0" r="3.775131648968494" fill="#FFFFFF" opacity="0.5390754739575264"/><circle cx="192" cy="458" r="5.081763316512962" fill="#FFFFFF" opacity="0.5683833382234258"/><circle cx="1336" cy="574" r="2.169789431368957" fill="#FFFFFF" opacity="0.7300062059591457"/><circle cx="1184" cy="461" r="4.446060491491181" fill="#FFFFFF" opacity="0.7456679667178693"/><circle cx="753" cy="505" r="4.228364826613806" fill="#FFFFFF" opacity="0.525045928732569"/><circle cx="1135" cy="616" r="4.427716219286715" fill="#FFFFFF" opacity="0.6039883043574189"/><circle cx="762" cy="143" r="5.113036943892162" fill="#FFFFFF" opacity="0.6734711126219493"/><circle cx="58" cy="42" r="5.3404868269493795" fill="#FFFFFF" opacity="0.5647315004532687"/><circle cx="1250" cy="772" r="3.8273449009076654" fill="#FFFFFF" opacity="0.5938039137743854"/><circle cx="1050" cy="670" r="4.871787010337318" fill="#FFFFFF" opacity="0.7044096076246402"/><circle cx="319" cy="547" r="4.122173326025072" fill="#FFFFFF" opacity="0.7361097131815513"/><circle cx="160" cy="632" r="3.0731500762808572" fill="#FFFFFF" opacity="0.8407936962211846"/><circle cx="404" cy="864" r="3.164802820986339" fill="#FFFFFF" opacity="0.5313578520334015"/><circle cx="1462" cy="82" r="3.2490216852264004" fill="#FFFFFF" opacity="0.5043133652343383"/><circle cx="402" cy="136" r="3.968771218159987" fill="#FFFFFF" opacity="0.551563359583351"/><circle cx="268" cy="214" r="5.33891901299045" fill="#FFFFFF" opacity="0.6494753022585437"/><circle cx="661" cy="867" r="3.9181433367214034" fill="#FFFFFF" opacity="0.8688285218382368"/><circle cx="2" cy="346" r="3.7235717563037682" fill="#FFFFFF" opacity="0.7732674053685487"/><circle cx="713" cy="224" r="2.621107941003665" fill="#FFFFFF" opacity="0.608883062498134"/><circle cx="385" cy="140" r="3.22647326552611" fill="#FFFFFF" opacity="0.574039058990695"/><circle cx="479" cy="439" r="3.3651462322560164" fill="#FFFFFF" opacity="0.8664810274176922"/><circle cx="332" cy="397" r="3.711583982251943" fill="#FFFFFF" opacity="0.6573580867779473"/><circle cx="554" cy="678" r="5.435540891879858" fill="#FFFFFF" opacity="0.6208576153148999"/><circle cx="1590" cy="779" r="4.675888836187561" fill="#FFFFFF" opacity="0.5648670122665678"/><circle cx="285" cy="474" r="5.234916384356068" fill="#FFFFFF" opacity="0.7539883997045734"/><circle cx="1589" cy="52" r="3.661338767224904" fill="#FFFFFF" opacity="0.5238085831061786"/><circle cx="1008" cy="309" r="4.676720327058828" fill="#FFFFFF" opacity="0.7754605869924867"/><circle cx="29" cy="585" r="3.9943065115170358" fill="#FFFFFF" opacity="0.5254296483903125"/><circle cx="1073" cy="674" r="5.472537982525535" fill="#FFFFFF" opacity="0.6044231511020849"/><circle cx="48" cy="610" r="3.5647033366674092" fill="#FFFFFF" opacity="0.7888288068575764"/><circle cx="503" cy="401" r="2.0145529080012436" fill="#FFFFFF" opacity="0.5223127207119781"/><circle cx="1423" cy="733" r="5.791600212142824" fill="#FFFFFF" opacity="0.5391150193372142"/><circle cx="65" cy="412" r="5.469585667649358" fill="#FFFFFF" opacity="0.827351613405486"/><circle cx="1465" cy="626" r="3.9446376755417627" fill="#FFFFFF" opacity="0.8583584773101314"/><circle cx="1028" cy="648" r="3.3171631676179394" fill="#FFFFFF" opacity="0.6401983969113278"/><circle cx="555" cy="515" r="2.8194355198767647" fill="#FFFFFF" opacity="0.6916023385965615"/><circle cx="521" cy="323" r="3.1010356969336987" fill="#FFFFFF" opacity="0.7876423672877949"/><circle cx="738" cy="573" r="3.207395895387083" fill="#FFFFFF" opacity="0.7443566797533867"/><circle cx="42" cy="811" r="2.9950227805500544" fill="#FFFFFF" opacity="0.7234336900959955"/><circle cx="522" cy="833" r="2.0844306357840248" fill="#FFFFFF" opacity="0.8149362651054413"/><circle cx="867" cy="628" r="2.2581285641083135" fill="#FFFFFF" opacity="0.6101547851617677"/><circle cx="357" cy="585" r="5.7040309366863635" fill="#FFFFFF" opacity="0.5802474443890758"/><circle cx="390" cy="578" r="5.617492254989255" fill="#FFFFFF" opacity="0.5793803879557239"/><circle cx="744" cy="129" r="5.974634628492659" fill="#FFFFFF" opacity="0.8125028355303472"/><circle cx="60" cy="816" r="5.456170131907982" fill="#FFFFFF" opacity="0.6481031739142004"/><circle cx="533" cy="629" r="4.568661930568628" fill="#FFFFFF" opacity="0.8761853338995416"/><circle cx="1263" cy="678" r="3.8349857607476783" fill="#FFFFFF" opacity="0.6106913769146316"/><circle cx="1081" cy="831" r="2.76050297693269" fill="#FFFFFF" opacity="0.7472190919681242"/><circle cx="352" cy="494" r="2.7390563849109695" fill="#FFFFFF" opacity="0.8851243490380487"/><circle cx="1109" cy="175" r="3.8964485238154323" fill="#FFFFFF" opacity="0.6630939027428446"/><circle cx="158" cy="548" r="2.6203350772395924" fill="#FFFFFF" opacity="0.7635841788048404"/><circle cx="409" cy="548" r="3.7035025860979403" fill="#FFFFFF" opacity="0.7653475105107905"/><circle cx="206" cy="378" r="5.821353582099849" fill="#FFFFFF" opacity="0.879650101825198"/><circle cx="217" cy="754" r="3.137354906243994" fill="#FFFFFF" opacity="0.7808897555806669"/><circle cx="971" cy="455" r="4.566335337515314" fill="#FFFFFF" opacity="0.8452774059543162"/><circle cx="330" cy="735" r="2.373534956941087" fill="#FFFFFF" opacity="0.8732757811018799"/><circle cx="297" cy="586" r="5.034118579764268" fill="#FFFFFF" opacity="0.6064730876223944"/><circle cx="481" cy="415" r="3.2862542812129756" fill="#FFFFFF" opacity="0.6343736521955345"/><circle cx="108" cy="728" r="3.822746955080417" fill="#FFFFFF" opacity="0.7188287144773248"/><circle cx="531" cy="805" r="2.109021172024929" fill="#FFFFFF" opacity="0.5371282466429774"/><circle cx="180" cy="148" r="5.650876862642583" fill="#FFFFFF" opacity="0.6811743344630486"/><circle cx="598" cy="311" r="2.0020539120526544" fill="#FFFFFF" opacity="0.6209174369282683"/><circle cx="1553" cy="492" r="3.3084710100816905" fill="#FFFFFF" opacity="0.665412474024688"/><circle cx="1161" cy="382" r="2.4229327426172436" fill="#FFFFFF" opacity="0.6842354308429008"/><circle cx="1464" cy="615" r="2.8242969660398205" fill="#FFFFFF" opacity="0.7322106675909967"/><circle cx="1162" cy="262" r="2.2689122243673903" fill="#FFFFFF" opacity="0.6901640015629991"/><circle cx="1517" cy="434" r="5.081129029182097" fill="#FFFFFF" opacity="0.5566627463461739"/><circle cx="549" cy="796" r="5.832047597971735" fill="#FFFFFF" opacity="0.5699957428998331"/><circle cx="220" cy="530" r="5.114998353569019" fill="#FFFFFF" opacity="0.5202517429841504"/><circle cx="1370" cy="31" r="4.166129057908346" fill="#FFFFFF" opacity="0.6257852788968776"/><circle cx="535" cy="644" r="3.5722894190326286" fill="#FFFFFF" opacity="0.8219560609919021"/><circle cx="369" cy="119" r="4.6066969412051515" fill="#FFFFFF" opacity="0.6007075388178736"/><circle cx="717" cy="235" r="4.583223238872021" fill="#FFFFFF" opacity="0.846602366682958"/><circle cx="342" cy="881" r="2.5435427191726725" fill="#FFFFFF" opacity="0.7914987921598053"/><circle cx="0" cy="85" r="3.84389415775359" fill="#FFFFFF" opacity="0.8104372630981471"/><circle cx="1012" cy="260" r="3.060194366846965" fill="#FFFFFF" opacity="0.884413853822372"/><circle cx="1365" cy="538" r="4.27621213566249" fill="#FFFFFF" opacity="0.7926940468012165"/><circle cx="821" cy="168" r="3.3201085248143896" fill="#FFFFFF" opacity="0.8303232221256118"/><circle cx="421" cy="225" r="5.758077462940964" fill="#FFFFFF" opacity="0.715990950477561"/><circle cx="1235" cy="538" r="4.926587882677747" fill="#FFFFFF" opacity="0.6088336196853714"/><circle cx="981" cy="199" r="2.0635915961626474" fill="#FFFFFF" opacity="0.749135150251272"/><circle cx="937" cy="514" r="4.413364567020455" fill="#FFFFFF" opacity="0.6259455936867103"/><circle cx="87" cy="120" r="3.2287095058724398" fill="#FFFFFF" opacity="0.8060937139930513"/><circle cx="1060" cy="779" r="4.050126356022703" fill="#FFFFFF" opacity="0.6639683929351541"/><circle cx="709" cy="159" r="4.2860386410116895" fill="#FFFFFF" opacity="0.5246493969444612"/><circle cx="787" cy="710" r="3.7873449001873936" fill="#FFFFFF" opacity="0.7885007093498431"/><circle cx="1136" cy="799" r="5.5784159209514455" fill="#FFFFFF" opacity="0.6585366931488132"/><circle cx="343" cy="167" r="5.078298241320107" fill="#FFFFFF" opacity="0.5125635344784945"/><circle cx="1144" cy="452" r="3.362627121790853" fill="#FFFFFF" opacity="0.8430815906733432"/><circle cx="823" cy="348" r="3.898146445678242" fill="#FFFFFF" opacity="0.8133604475029148"/><circle cx="159" cy="889" r="2.1559563351339337" fill="#FFFFFF" opacity="0.5139711920662013"/><circle cx="830" cy="87" r="2.4309440858791116" fill="#FFFFFF" opacity="0.5290105013280308"/><circle cx="1161" cy="692" r="4.248688148053674" fill="#FFFFFF" opacity="0.609624437883351"/><circle cx="604" cy="357" r="5.900667319528512" fill="#FFFFFF" opacity="0.8691271201019173"/><circle cx="782" cy="124" r="2.9960898331451" fill="#FFFFFF" opacity="0.6922980857037716"/><circle cx="477" cy="852" r="5.244669598608315" fill="#FFFFFF" opacity="0.6180833886935027"/><circle cx="916" cy="568" r="2.715377166234048" fill="#FFFFFF" opacity="0.8737000902761802"/><circle cx="401" cy="704" r="5.161109404139504" fill="#FFFFFF" opacity="0.5661667572208596"/><circle cx="407" cy="868" r="2.4329000039221342" fill="#FFFFFF" opacity="0.8800558019891795"/><circle cx="1242" cy="702" r="4.78249681394915" fill="#FFFFFF" opacity="0.5315562105219352"/><circle cx="1130" cy="651" r="4.857788293904941" fill="#FFFFFF" opacity="0.6102576846927877"/><circle cx="1040" cy="620" r="5.323618404261061" fill="#FFFFFF" opacity="0.7371397234004455"/><circle cx="613" cy="71" r="4.584031035257905" fill="#FFFFFF" opacity="0.6297186442673615"/><circle cx="589" cy="469" r="4.882022034115046" fill="#FFFFFF" opacity="0.7530633033889242"/><circle cx="1055" cy="203" r="2.684913175494573" fill="#FFFFFF" opacity="0.6510459129990976"/><circle cx="268" cy="727" r="3.202054733657798" fill="#FFFFFF" opacity="0.7472309778227999"/><circle cx="343" cy="472" r="2.553460471713586" fill="#FFFFFF" opacity="0.7201530150484905"/><circle cx="1052" cy="570" r="5.995670103335995" fill="#FFFFFF" opacity="0.7749956544551337"/><circle cx="442" cy="450" r="4.445544588245776" fill="#FFFFFF" opacity="0.5290767670982214"/><circle cx="47" cy="388" r="4.285525774365794" fill="#FFFFFF" opacity="0.6004007180524764"/></svg>