<svg xmlns="http://www.w3.org/2000/svg" viewBox="0 0 1600 900" preserveAspectRatio="xMidYMid slice">
  <defs>
    <linearGradient id="sky" x1="0" y1="0" x2="1" y2="1"><stop offset="0" stop-color="#163342"/><stop offset="1" stop-color="#3e5f59"/></linearGradient>
    <radialGradient id="glow" cx="50%" cy="22%" r="55%"><stop offset="0" stop-color="#fff1aa" stop-opacity=".32"/><stop offset="1" stop-color="#fff1aa" stop-opacity="0"/></radialGradient>
    <filter id="soft"><feGaussianBlur stdDeviation="10"/></filter>
  </defs>
  <rect width="1600" height="900" fill="url(#sky)"/>
  <rect width="1600" height="900" fill="url(#glow)"/>
  <g opacity=".55" fill="#fff8e9">
    <circle cx="168" cy="106" r="3"/><circle cx="320" cy="188" r="2"/><circle cx="472" cy="92" r="3"/><circle cx="612" cy="156" r="2"/><circle cx="790" cy="76" r="3"/><circle cx="1012" cy="150" r="2"/><circle cx="1260" cy="98" r="3"/><circle cx="1460" cy="176" r="2"/><circle cx="1378" cy="54" r="2"/><circle cx="113" cy="292" r="2"/><circle cx="1444" cy="325" r="3"/>
  </g>
  <circle cx="1320" cy="170" r="62" fill="#fff0b5" opacity=".92"/>
  <path d="M0 700 C260 620 390 760 625 690 C850 626 1000 728 1230 650 C1396 592 1484 615 1600 570 L1600 900 L0 900 Z" fill="#e9f7ef" opacity=".92"/>
  <path d="M0 765 C235 705 425 792 612 744 C780 700 920 792 1095 736 C1290 676 1450 724 1600 690 L1600 900 L0 900 Z" fill="#ffffff" opacity=".96"/>
  
  <g transform="translate(760 590)">
    <rect x="0" y="70" width="430" height="110" rx="18" fill="#c74643"/><rect x="80" y="20" width="135" height="70" rx="14" fill="#307a62"/><rect x="240" y="42" width="150" height="48" rx="12" fill="#ffe082"/><circle cx="82" cy="190" r="34" fill="#17342d"/><circle cx="292" cy="190" r="34" fill="#17342d"/><path d="M-50 210 H500" stroke="#6f7b75" stroke-width="10"/>
  </g>
  <g transform="translate(180 470)">
    <rect x="0" y="110" width="190" height="150" rx="16" fill="#f4d4a0"/><path d="M-20 125 L95 35 L210 125 Z" fill="#c7504c"/><rect x="32" y="160" width="45" height="52" rx="8" fill="#7aa98f"/><rect x="112" y="155" width="44" height="40" rx="8" fill="#ffe58a"/><path d="M-8 128 H198" stroke="#fff" stroke-width="18" stroke-linecap="round"/>
    <rect x="255" y="80" width="230" height="180" rx="18" fill="#ffe4af"/><path d="M230 92 L370 0 L510 92 Z" fill="#7abf87"/><rect x="292" y="142" width="50" height="52" rx="8" fill="#ffe58a"/><rect x="390" y="140" width="54" height="90" rx="10" fill="#bb6b55"/><path d="M245 98 H495" stroke="#fff" stroke-width="20" stroke-linecap="round"/>
  </g>
</svg>