<svg xmlns="http://www.w3.org/2000/svg" viewBox="0 0 1600 900" preserveAspectRatio="xMidYMid slice"><defs><linearGradient id="bg10" x1="0" y1="0" x2="0" y2="1"><stop offset="0%" stop-color="#1A237E"/><stop offset="100%" stop-color="#3949AB"/></linearGradient><linearGradient id="hill110" x1="0" y1="0" x2="0" y2="1"><stop offset="0%" stop-color="#FFFFFF"/><stop offset="100%" stop-color="#E3F2FD"/></linearGradient><linearGradient id="hill210" x1="0" y1="0" x2="0" y2="1"><stop offset="0%" stop-color="#F5F5F5"/><stop offset="100%" stop-color="#BBDEFB"/></linearGradient></defs><rect width="1600" height="900" fill="url(#bg10)"/><circle cx="1300" cy="200" r="60" fill="#FFF9C4" opacity="0.9"/><circle cx="1300" cy="200" r="120" fill="#FFF9C4" opacity="0.1"/><circle cx="1291" cy="117" r="1.360400826560962" fill="#FFFFFF" opacity="0.524367043351458"/><circle cx="827" cy="5" r="2.110281736232646" fill="#FFFFFF" opacity="0.4801419871134431"/><circle cx="1427" cy="275" r="2.9784544147471923" fill="#FFFFFF" opacity="0.40230520014215604"/><circle cx="1467" cy="480" r="1.8450009090904438" fill="#FFFFFF" opacity="0.5937669321021919"/><circle cx="512" cy="259" r="2.181579536379597" fill="#FFFFFF" opacity="0.7578618702472846"/><circle cx="531" cy="455" r="1.8373946184338905" fill="#FFFFFF" opacity="0.3389412440359789"/><circle cx="1277" cy="440" r="1.2915136797542135" fill="#FFFFFF" opacity="0.3417616399809763"/><circle cx="535" cy="435" r="1.7168242571623065" fill="#FFFFFF" opacity="0.3538902079940274"/><circle cx="606" cy="127" r="1.0073752221579875" fill="#FFFFFF" opacity="0.6560632213339573"/><circle cx="621" cy="119" r="2.994542409024745" fill="#FFFFFF" opacity="0.3925597268089089"/><circle cx="236" cy="300" r="1.9711225682971176" fill="#FFFFFF" opacity="0.6996960471883011"/><circle cx="885" cy="93" r="2.126601490692119" fill="#FFFFFF" opacity="0.676232983627039"/><circle cx="1316" cy="294" r="1.1658497186933499" fill="#FFFFFF" opacity="0.40969924244944445"/><circle cx="227" cy="118" r="2.0817452782803674" fill="#FFFFFF" opacity="0.6048676569674115"/><circle cx="668" cy="78" r="2.838020365545802" fill="#FFFFFF" opacity="0.6490014816203638"/><circle cx="152" cy="34" r="1.124268609588129" fill="#FFFFFF" opacity="0.505988137343901"/><circle cx="93" cy="123" r="2.818607978129929" fill="#FFFFFF" opacity="0.4494560953074823"/><circle cx="1241" cy="391" r="2.9640966342136594" fill="#FFFFFF" opacity="0.36097512329405174"/><circle cx="380" cy="104" r="2.0330039269270017" fill="#FFFFFF" opacity="0.7221773217558447"/><circle cx="1552" cy="10" r="2.8850648009196243" fill="#FFFFFF" opacity="0.5893645067256765"/><circle cx="515" cy="266" r="1.3250037245208264" fill="#FFFFFF" opacity="0.42646713554877463"/><circle cx="718" cy="293" r="2.2790723728922595" fill="#FFFFFF" opacity="0.7481277724669448"/><circle cx="1083" cy="415" r="1.747989513484036" fill="#FFFFFF" opacity="0.7491939044145745"/><circle cx="1320" cy="433" r="1.2951995088582349" fill="#FFFFFF" opacity="0.6761392819175649"/><circle cx="196" cy="126" r="1.5353646920651018" fill="#FFFFFF" opacity="0.6169119656494022"/><circle cx="243" cy="287" r="1.001742582164832" fill="#FFFFFF" opacity="0.6550745560594609"/><circle cx="419" cy="413" r="1.1017385621583131" fill="#FFFFFF" opacity="0.39417785093614294"/><circle cx="1348" cy="50" r="2.526190819809721" fill="#FFFFFF" opacity="0.7570475046148515"/><circle cx="680" cy="20" r="1.1721034844218714" fill="#FFFFFF" opacity="0.42556481319074524"/><circle cx="218" cy="376" r="2.8432375610842513" fill="#FFFFFF" opacity="0.697175509697479"/><circle cx="444" cy="177" r="1.8803189289757458" fill="#FFFFFF" opacity="0.5820935837570445"/><circle cx="361" cy="350" r="1.848744783740409" fill="#FFFFFF" opacity="0.7180632517338774"/><circle cx="599" cy="161" r="1.5774601294932658" fill="#FFFFFF" opacity="0.6169123769837097"/><circle cx="820" cy="6" r="2.511642971094295" fill="#FFFFFF" opacity="0.7950252829221471"/><circle cx="731" cy="305" r="2.8802003888889987" fill="#FFFFFF" opacity="0.505400581785727"/><circle cx="1370" cy="467" r="1.0085544328814182" fill="#FFFFFF" opacity="0.4308981947809256"/><circle cx="270" cy="236" r="1.8832877057539474" fill="#FFFFFF" opacity="0.6851171203195792"/><circle cx="814" cy="395" r="2.245810951011911" fill="#FFFFFF" opacity="0.7810817918782266"/><circle cx="336" cy="359" r="1.3361904860904785" fill="#FFFFFF" opacity="0.40805002966410775"/><circle cx="508" cy="152" r="1.5857083942779746" fill="#FFFFFF" opacity="0.5550547107827255"/><circle cx="441" cy="67" r="2.808115738550906" fill="#FFFFFF" opacity="0.4262750608970369"/><circle cx="927" cy="103" r="1.2945312470977592" fill="#FFFFFF" opacity="0.3361853516229954"/><circle cx="1224" cy="437" r="1.2694591138944138" fill="#FFFFFF" opacity="0.5837043585634258"/><circle cx="542" cy="114" r="2.084276905648786" fill="#FFFFFF" opacity="0.4089700469595661"/><circle cx="1174" cy="394" r="1.4355149068910151" fill="#FFFFFF" opacity="0.4391128431491785"/><circle cx="603" cy="231" r="2.13761885933111" fill="#FFFFFF" opacity="0.71635383789866"/><circle cx="617" cy="129" r="1.8583533077068206" fill="#FFFFFF" opacity="0.7069892261504032"/><circle cx="543" cy="460" r="2.0018600813714684" fill="#FFFFFF" opacity="0.4695904294801462"/><circle cx="95" cy="330" r="2.1817408771906326" fill="#FFFFFF" opacity="0.53957876818998"/><circle cx="150" cy="407" r="2.1426783027417082" fill="#FFFFFF" opacity="0.5361865922719395"/><path d="M 0 600 Q 400 450 800 600 T 1600 550 L 1600 900 L 0 900 Z" fill="url(#hill210)"/><g transform="translate(991,590) scale(0.878431133528807)"><rect x="-6" y="-10" width="12" height="20" fill="#795548" rx="2"/><path d="M -40 -10 L 40 -10 L 0 -50 Z" fill="#2E7D32"/><path d="M -30 -30 L 30 -30 L 0 -70 Z" fill="#43A047"/><path d="M -20 -50 L 20 -50 L 0 -90 Z" fill="#4CAF50"/><circle cx="-15" cy="-20" r="3.5" fill="#FF9800"/><circle cx="10" cy="-25" r="3.5" fill="#F44336"/><circle cx="-5" cy="-40" r="3.5" fill="#FFEB3B"/><circle cx="15" cy="-45" r="3.5" fill="#29B6F6"/><circle cx="-10" cy="-60" r="3.5" fill="#FF9800"/><circle cx="0" cy="-30" r="3.5" fill="#F44336"/><circle cx="20" cy="-15" r="3.5" fill="#F44336"/><circle cx="-25" cy="-12" r="3.5" fill="#FF9800"/><polygon points="0,-95 3,-85 12,-85 5,-80 8,-70 0,-76 -8,-70 -5,-80 -12,-85 -3,-85" fill="#FFC107"/></g><g transform="translate(1022,633) scale(1.0497400251492233)"><rect x="-6" y="-10" width="12" height="20" fill="#795548" rx="2"/><path d="M -40 -10 L 40 -10 L 0 -50 Z" fill="#2E7D32"/><path d="M -30 -30 L 30 -30 L 0 -70 Z" fill="#43A047"/><path d="M -20 -50 L 20 -50 L 0 -90 Z" fill="#4CAF50"/><circle cx="-15" cy="-20" r="3.5" fill="#AB47BC"/><circle cx="10" cy="-25" r="3.5" fill="#FF9800"/><circle cx="-5" cy="-40" r="3.5" fill="#F44336"/><circle cx="15" cy="-45" r="3.5" fill="#FFEB3B"/><circle cx="-10" cy="-60" r="3.5" fill="#FF9800"/><circle cx="0" cy="-30" r="3.5" fill="#AB47BC"/><circle cx="20" cy="-15" r="3.5" fill="#F44336"/><circle cx="-25" cy="-12" r="3.5" fill="#FF9800"/><polygon points="0,-95 3,-85 12,-85 5,-80 8,-70 0,-76 -8,-70 -5,-80 -12,-85 -3,-85" fill="#FFC107"/></g><g transform="translate(234,620) scale(1.0014717360746621)"><rect x="-6" y="-10" width="12" height="20" fill="#795548" rx="2"/><path d="M -40 -10 L 40 -10 L 0 -50 Z" fill="#2E7D32"/><path d="M -30 -30 L 30 -30 L 0 -70 Z" fill="#43A047"/><path d="M -20 -50 L 20 -50 L 0 -90 Z" fill="#4CAF50"/><circle cx="-15" cy="-20" r="3.5" fill="#FF9800"/><circle cx="10" cy="-25" r="3.5" fill="#29B6F6"/><circle cx="-5" cy="-40" r="3.5" fill="#FFEB3B"/><circle cx="15" cy="-45" r="3.5" fill="#FFEB3B"/><circle cx="-10" cy="-60" r="3.5" fill="#FFEB3B"/><circle cx="0" cy="-30" r="3.5" fill="#FFEB3B"/><circle cx="20" cy="-15" r="3.5" fill="#29B6F6"/><circle cx="-25" cy="-12" r="3.5" fill="#FFEB3B"/><polygon points="0,-95 3,-85 12,-85 5,-80 8,-70 0,-76 -8,-70 -5,-80 -12,-85 -3,-85" fill="#FFC107"/></g><g transform="translate(298,620) scale(1.1021988960324054)"><rect x="-6" y="-10" width="12" height="20" fill="#795548" rx="2"/><path d="M -40 -10 L 40 -10 L 0 -50 Z" fill="#2E7D32"/><path d="M -30 -30 L 30 -30 L 0 -70 Z" fill="#43A047"/><path d="M -20 -50 L 20 -50 L 0 -90 Z" fill="#4CAF50"/><circle cx="-15" cy="-20" r="3.5" fill="#FFEB3B"/><circle cx="10" cy="-25" r="3.5" fill="#AB47BC"/><circle cx="-5" cy="-40" r="3.5" fill="#29B6F6"/><circle cx="15" cy="-45" r="3.5" fill="#FF9800"/><circle cx="-10" cy="-60" r="3.5" fill="#FF9800"/><circle cx="0" cy="-30" r="3.5" fill="#AB47BC"/><circle cx="20" cy="-15" r="3.5" fill="#29B6F6"/><circle cx="-25" cy="-12" r="3.5" fill="#AB47BC"/><polygon points="0,-95 3,-85 12,-85 5,-80 8,-70 0,-76 -8,-70 -5,-80 -12,-85 -3,-85" fill="#FFC107"/></g><g transform="translate(504,611) scale(1.1148484657791027)"><rect x="-6" y="-10" width="12" height="20" fill="#795548" rx="2"/><path d="M -40 -10 L 40 -10 L 0 -50 Z" fill="#2E7D32"/><path d="M -30 -30 L 30 -30 L 0 -70 Z" fill="#43A047"/><path d="M -20 -50 L 20 -50 L 0 -90 Z" fill="#4CAF50"/><circle cx="-15" cy="-20" r="3.5" fill="#FF9800"/><circle cx="10" cy="-25" r="3.5" fill="#29B6F6"/><circle cx="-5" cy="-40" r="3.5" fill="#F44336"/><circle cx="15" cy="-45" r="3.5" fill="#29B6F6"/><circle cx="-10" cy="-60" r="3.5" fill="#F44336"/><circle cx="0" cy="-30" r="3.5" fill="#FFEB3B"/><circle cx="20" cy="-15" r="3.5" fill="#29B6F6"/><circle cx="-25" cy="-12" r="3.5" fill="#29B6F6"/><polygon points="0,-95 3,-85 12,-85 5,-80 8,-70 0,-76 -8,-70 -5,-80 -12,-85 -3,-85" fill="#FFC107"/></g><g transform="translate(769,583) scale(1.1972419531064413)"><rect x="-6" y="-10" width="12" height="20" fill="#795548" rx="2"/><path d="M -40 -10 L 40 -10 L 0 -50 Z" fill="#2E7D32"/><path d="M -30 -30 L 30 -30 L 0 -70 Z" fill="#43A047"/><path d="M -20 -50 L 20 -50 L 0 -90 Z" fill="#4CAF50"/><circle cx="-15" cy="-20" r="3.5" fill="#29B6F6"/><circle cx="10" cy="-25" r="3.5" fill="#29B6F6"/><circle cx="-5" cy="-40" r="3.5" fill="#29B6F6"/><circle cx="15" cy="-45" r="3.5" fill="#FFEB3B"/><circle cx="-10" cy="-60" r="3.5" fill="#F44336"/><circle cx="0" cy="-30" r="3.5" fill="#AB47BC"/><circle cx="20" cy="-15" r="3.5" fill="#FFEB3B"/><circle cx="-25" cy="-12" r="3.5" fill="#29B6F6"/><polygon points="0,-95 3,-85 12,-85 5,-80 8,-70 0,-76 -8,-70 -5,-80 -12,-85 -3,-85" fill="#FFC107"/></g><g transform="translate(559,601) scale(1.0843637994456374)"><rect x="-6" y="-10" width="12" height="20" fill="#795548" rx="2"/><path d="M -40 -10 L 40 -10 L 0 -50 Z" fill="#2E7D32"/><path d="M -30 -30 L 30 -30 L 0 -70 Z" fill="#43A047"/><path d="M -20 -50 L 20 -50 L 0 -90 Z" fill="#4CAF50"/><circle cx="-15" cy="-20" r="3.5" fill="#F44336"/><circle cx="10" cy="-25" r="3.5" fill="#FF9800"/><circle cx="-5" cy="-40" r="3.5" fill="#F44336"/><circle cx="15" cy="-45" r="3.5" fill="#F44336"/><circle cx="-10" cy="-60" r="3.5" fill="#FFEB3B"/><circle cx="0" cy="-30" r="3.5" fill="#AB47BC"/><circle cx="20" cy="-15" r="3.5" fill="#AB47BC"/><circle cx="-25" cy="-12" r="3.5" fill="#F44336"/><polygon points="0,-95 3,-85 12,-85 5,-80 8,-70 0,-76 -8,-70 -5,-80 -12,-85 -3,-85" fill="#FFC107"/></g><g transform="translate(205,634) scale(1.0839552734533482)"><rect x="-6" y="-10" width="12" height="20" fill="#795548" rx="2"/><path d="M -40 -10 L 40 -10 L 0 -50 Z" fill="#2E7D32"/><path d="M -30 -30 L 30 -30 L 0 -70 Z" fill="#43A047"/><path d="M -20 -50 L 20 -50 L 0 -90 Z" fill="#4CAF50"/><circle cx="-15" cy="-20" r="3.5" fill="#F44336"/><circle cx="10" cy="-25" r="3.5" fill="#FFEB3B"/><circle cx="-5" cy="-40" r="3.5" fill="#F44336"/><circle cx="15" cy="-45" r="3.5" fill="#29B6F6"/><circle cx="-10" cy="-60" r="3.5" fill="#AB47BC"/><circle cx="0" cy="-30" r="3.5" fill="#FF9800"/><circle cx="20" cy="-15" r="3.5" fill="#29B6F6"/><circle cx="-25" cy="-12" r="3.5" fill="#F44336"/><polygon points="0,-95 3,-85 12,-85 5,-80 8,-70 0,-76 -8,-70 -5,-80 -12,-85 -3,-85" fill="#FFC107"/></g><path d="M 0 700 Q 600 550 1200 750 T 1600 650 L 1600 900 L 0 900 Z" fill="url(#hill110)"/><g transform="translate(987,702) scale(2.2011807850124034)"><rect x="-40" y="-40" width="80" height="40" fill="#795548"/><rect x="-10" y="-20" width="20" height="20" fill="#FF9800" rx="2"/><circle cx="6" cy="-10" r="2" fill="#FFE082"/><rect x="-30" y="-25" width="12" height="12" fill="#FFF59D" rx="1"/><rect x="18" y="-25" width="12" height="12" fill="#FFF59D" rx="1"/><circle cx="0" cy="-10" r="4" fill="none" stroke="#4CAF50" stroke-width="2"/><circle cx="0" cy="-14" r="1" fill="#F44336"/><path d="M -50 -40 L 0 -80 L 50 -40 Z" fill="#D32F2F"/><path d="M -50 -40 L 0 -80 L 50 -40" fill="none" stroke="#FFFFFF" stroke-width="8" stroke-linecap="round" stroke-linejoin="round"/></g><g transform="translate(477,703) scale(2.4013376995464335)"><rect x="-40" y="-40" width="80" height="40" fill="#795548"/><rect x="-10" y="-20" width="20" height="20" fill="#FF9800" rx="2"/><circle cx="6" cy="-10" r="2" fill="#FFE082"/><rect x="-30" y="-25" width="12" height="12" fill="#FFF59D" rx="1"/><rect x="18" y="-25" width="12" height="12" fill="#FFF59D" rx="1"/><circle cx="0" cy="-10" r="4" fill="none" stroke="#4CAF50" stroke-width="2"/><circle cx="0" cy="-14" r="1" fill="#F44336"/><path d="M -50 -40 L 0 -80 L 50 -40 Z" fill="#D32F2F"/><path d="M -50 -40 L 0 -80 L 50 -40" fill="none" stroke="#FFFFFF" stroke-width="8" stroke-linecap="round" stroke-linejoin="round"/></g><g transform="translate(601,709) scale(1.5915845290528514)"><rect x="-40" y="-40" width="80" height="40" fill="#795548"/><rect x="-10" y="-20" width="20" height="20" fill="#FF9800" rx="2"/><circle cx="6" cy="-10" r="2" fill="#FFE082"/><rect x="-30" y="-25" width="12" height="12" fill="#FFF59D" rx="1"/><rect x="18" y="-25" width="12" height="12" fill="#FFF59D" rx="1"/><circle cx="0" cy="-10" r="4" fill="none" stroke="#4CAF50" stroke-width="2"/><circle cx="0" cy="-14" r="1" fill="#F44336"/><path d="M -50 -40 L 0 -80 L 50 -40 Z" fill="#D32F2F"/><path d="M -50 -40 L 0 -80 L 50 -40" fill="none" stroke="#FFFFFF" stroke-width="8" stroke-linecap="round" stroke-linejoin="round"/></g><g transform="translate(987,689) scale(1.8607118173278598)"><rect x="-40" y="-40" width="80" height="40" fill="#795548"/><rect x="-10" y="-20" width="20" height="20" fill="#FF9800" rx="2"/><circle cx="6" cy="-10" r="2" fill="#FFE082"/><rect x="-30" y="-25" width="12" height="12" fill="#FFF59D" rx="1"/><rect x="18" y="-25" width="12" height="12" fill="#FFF59D" rx="1"/><circle cx="0" cy="-10" r="4" fill="none" stroke="#4CAF50" stroke-width="2"/><circle cx="0" cy="-14" r="1" fill="#F44336"/><path d="M -50 -40 L 0 -80 L 50 -40 Z" fill="#D32F2F"/><path d="M -50 -40 L 0 -80 L 50 -40" fill="none" stroke="#FFFFFF" stroke-width="8" stroke-linecap="round" stroke-linejoin="round"/></g><g transform="translate(493,767) scale(1.2488554034887462)"><rect x="-6" y="-10" width="12" height="20" fill="#795548" rx="2"/><path d="M -40 -10 L 40 -10 L 0 -50 Z" fill="#2E7D32"/><path d="M -30 -30 L 30 -30 L 0 -70 Z" fill="#43A047"/><path d="M -20 -50 L 20 -50 L 0 -90 Z" fill="#4CAF50"/><circle cx="-15" cy="-20" r="3.5" fill="#FFEB3B"/><circle cx="10" cy="-25" r="3.5" fill="#FF9800"/><circle cx="-5" cy="-40" r="3.5" fill="#29B6F6"/><circle cx="15" cy="-45" r="3.5" fill="#F44336"/><circle cx="-10" cy="-60" r="3.5" fill="#F44336"/><circle cx="0" cy="-30" r="3.5" fill="#FF9800"/><circle cx="20" cy="-15" r="3.5" fill="#29B6F6"/><circle cx="-25" cy="-12" r="3.5" fill="#F44336"/><polygon points="0,-95 3,-85 12,-85 5,-80 8,-70 0,-76 -8,-70 -5,-80 -12,-85 -3,-85" fill="#FFC107"/></g><g transform="translate(186,726) scale(1.6090457199957295)"><rect x="-6" y="-10" width="12" height="20" fill="#795548" rx="2"/><path d="M -40 -10 L 40 -10 L 0 -50 Z" fill="#2E7D32"/><path d="M -30 -30 L 30 -30 L 0 -70 Z" fill="#43A047"/><path d="M -20 -50 L 20 -50 L 0 -90 Z" fill="#4CAF50"/><circle cx="-15" cy="-20" r="3.5" fill="#FFEB3B"/><circle cx="10" cy="-25" r="3.5" fill="#F44336"/><circle cx="-5" cy="-40" r="3.5" fill="#FFEB3B"/><circle cx="15" cy="-45" r="3.5" fill="#FF9800"/><circle cx="-10" cy="-60" r="3.5" fill="#29B6F6"/><circle cx="0" cy="-30" r="3.5" fill="#FF9800"/><circle cx="20" cy="-15" r="3.5" fill="#29B6F6"/><circle cx="-25" cy="-12" r="3.5" fill="#F44336"/><polygon points="0,-95 3,-85 12,-85 5,-80 8,-70 0,-76 -8,-70 -5,-80 -12,-85 -3,-85" fill="#FFC107"/></g><g transform="translate(1259,742) scale(1.6294120289383753)"><rect x="-6" y="-10" width="12" height="20" fill="#795548" rx="2"/><path d="M -40 -10 L 40 -10 L 0 -50 Z" fill="#2E7D32"/><path d="M -30 -30 L 30 -30 L 0 -70 Z" fill="#43A047"/><path d="M -20 -50 L 20 -50 L 0 -90 Z" fill="#4CAF50"/><circle cx="-15" cy="-20" r="3.5" fill="#F44336"/><circle cx="10" cy="-25" r="3.5" fill="#AB47BC"/><circle cx="-5" cy="-40" r="3.5" fill="#AB47BC"/><circle cx="15" cy="-45" r="3.5" fill="#29B6F6"/><circle cx="-10" cy="-60" r="3.5" fill="#29B6F6"/><circle cx="0" cy="-30" r="3.5" fill="#FFEB3B"/><circle cx="20" cy="-15" r="3.5" fill="#FFEB3B"/><circle cx="-25" cy="-12" r="3.5" fill="#FF9800"/><polygon points="0,-95 3,-85 12,-85 5,-80 8,-70 0,-76 -8,-70 -5,-80 -12,-85 -3,-85" fill="#FFC107"/></g><g transform="translate(633,752) scale(1.5605773782861838)"><rect x="-6" y="-10" width="12" height="20" fill="#795548" rx="2"/><path d="M -40 -10 L 40 -10 L 0 -50 Z" fill="#2E7D32"/><path d="M -30 -30 L 30 -30 L 0 -70 Z" fill="#43A047"/><path d="M -20 -50 L 20 -50 L 0 -90 Z" fill="#4CAF50"/><circle cx="-15" cy="-20" r="3.5" fill="#FF9800"/><circle cx="10" cy="-25" r="3.5" fill="#FF9800"/><circle cx="-5" cy="-40" r="3.5" fill="#AB47BC"/><circle cx="15" cy="-45" r="3.5" fill="#AB47BC"/><circle cx="-10" cy="-60" r="3.5" fill="#FFEB3B"/><circle cx="0" cy="-30" r="3.5" fill="#AB47BC"/><circle cx="20" cy="-15" r="3.5" fill="#F44336"/><circle cx="-25" cy="-12" r="3.5" fill="#FFEB3B"/><polygon points="0,-95 3,-85 12,-85 5,-80 8,-70 0,-76 -8,-70 -5,-80 -12,-85 -3,-85" fill="#FFC107"/></g><g transform="translate(1091,790) scale(1.5323305610129372)"><rect x="-6" y="-10" width="12" height="20" fill="#795548" rx="2"/><path d="M -40 -10 L 40 -10 L 0 -50 Z" fill="#2E7D32"/><path d="M -30 -30 L 30 -30 L 0 -70 Z" fill="#43A047"/><path d="M -20 -50 L 20 -50 L 0 -90 Z" fill="#4CAF50"/><circle cx="-15" cy="-20" r="3.5" fill="#F44336"/><circle cx="10" cy="-25" r="3.5" fill="#FF9800"/><circle cx="-5" cy="-40" r="3.5" fill="#29B6F6"/><circle cx="15" cy="-45" r="3.5" fill="#FF9800"/><circle cx="-10" cy="-60" r="3.5" fill="#29B6F6"/><circle cx="0" cy="-30" r="3.5" fill="#FFEB3B"/><circle cx="20" cy="-15" r="3.5" fill="#F44336"/><circle cx="-25" cy="-12" r="3.5" fill="#FF9800"/><polygon points="0,-95 3,-85 12,-85 5,-80 8,-70 0,-76 -8,-70 -5,-80 -12,-85 -3,-85" fill="#FFC107"/></g><circle cx="232" cy="586" r="2.4354824275032176" fill="#FFFFFF" opacity="0.8074167401727772"/><circle cx="1395" cy="269" r="2.666456442901062" fill="#FFFFFF" opacity="0.6609816228504193"/><circle cx="1566" cy="217" r="2.6460173832306997" fill="#FFFFFF" opacity="0.7053599504815925"/><circle cx="1409" cy="169" r="4.671616919517723" fill="#FFFFFF" opacity="0.8533816111550682"/><circle cx="249" cy="89" r="5.709416287958046" fill="#FFFFFF" opacity="0.8873191136698778"/><circle cx="1312" cy="376" r="4.7145839168470065" fill="#FFFFFF" opacity="0.5180920215563904"/><circle cx="280" cy="524" r="2.580466425948759" fill="#FFFFFF" opacity="0.5965570520588629"/><circle cx="558" cy="437" r="2.1909764977340767" fill="#FFFFFF" opacity="0.8132882310074485"/><circle cx="992" cy="801" r="5.6101982423335635" fill="#FFFFFF" opacity="0.67287774232791"/><circle cx="274" cy="36" r="5.881525142429709" fill="#FFFFFF" opacity="0.7514989048578731"/><circle cx="725" cy="37" r="4.38739388720217" fill="#FFFFFF" opacity="0.7442841968347305"/><circle cx="1500" cy="364" r="5.775502426954899" fill="#FFFFFF" opacity="0.5414707475455863"/><circle cx="1144" cy="732" r="2.480051511104199" fill="#FFFFFF" opacity="0.5727726920186613"/><circle cx="591" cy="472" r="2.7179794378141082" fill="#FFFFFF" opacity="0.7365985400441942"/><circle cx="1507" cy="369" r="2.6251562966895206" fill="#FFFFFF" opacity="0.7813373154313483"/><circle cx="1555" cy="885" r="3.3468349806470084" fill="#FFFFFF" opacity="0.5894355107111153"/><circle cx="1034" cy="189" r="3.010246772066913" fill="#FFFFFF" opacity="0.5640005417145413"/><circle cx="115" cy="188" r="5.563383213678167" fill="#FFFFFF" opacity="0.6471419639026402"/><circle cx="1" cy="80" r="5.589047384505314" fill="#FFFFFF" opacity="0.8298450462243211"/><circle cx="1047" cy="230" r="2.1597571592336675" fill="#FFFFFF" opacity="0.5509458905923783"/><circle cx="1488" cy="751" r="2.818747014107394" fill="#FFFFFF" opacity="0.5771945415340936"/><circle cx="620" cy="458" r="2.6599867797472134" fill="#FFFFFF" opacity="0.7363778120865426"/><circle cx="34" cy="107" r="5.185139622884193" fill="#FFFFFF" opacity="0.6190528864346558"/><circle cx="147" cy="445" r="3.312683194680274" fill="#FFFFFF" opacity="0.8050758885863116"/><circle cx="675" cy="377" r="4.171812991182231" fill="#FFFFFF" opacity="0.8616064505309403"/><circle cx="813" cy="603" r="5.059213643054305" fill="#FFFFFF" opacity="0.5027888304571254"/><circle cx="1182" cy="769" r="5.374024589961975" fill="#FFFFFF" opacity="0.609744112775807"/><circle cx="246" cy="751" r="5.678067903248567" fill="#FFFFFF" opacity="0.716462478016462"/><circle cx="411" cy="391" r="3.8100736766050414" fill="#FFFFFF" opacity="0.5802666571124637"/><circle cx="52" cy="756" r="5.00939042480103" fill="#FFFFFF" opacity="0.6850031594168973"/><circle cx="34" cy="226" r="2.456695490116083" fill="#FFFFFF" opacity="0.8666374173139983"/><circle cx="1171" cy="774" r="2.05458327507538" fill="#FFFFFF" opacity="0.6502494792267499"/><circle cx="344" cy="23" r="3.2984438666213225" fill="#FFFFFF" opacity="0.7146712935717684"/><circle cx="943" cy="502" r="2.8960262689069602" fill="#FFFFFF" opacity="0.6333738506687034"/><circle cx="1577" cy="151" r="4.958762633942488" fill="#FFFFFF" opacity="0.5409786318868347"/><circle cx="1209" cy="669" r="5.070283845304361" fill="#FFFFFF" opacity="0.8512581219939908"/><circle cx="1421" cy="298" r="3.712746668770303" fill="#FFFFFF" opacity="0.7450413960227131"/><circle cx="1437" cy="341" r="3.0406860058918914" fill="#FFFFFF" opacity="0.763144468042811"/><circle cx="237" cy="719" r="3.8813653286274947" fill="#FFFFFF" opacity="0.6779162683652982"/><circle cx="53" cy="337" r="3.3858463714542895" fill="#FFFFFF" opacity="0.8272561942491508"/><circle cx="1265" cy="511" r="3.8343792865730553" fill="#FFFFFF" opacity="0.8857011852690801"/><circle cx="1158" cy="179" r="4.014499455623708" fill="#FFFFFF" opacity="0.6377773143389457"/><circle cx="926" cy="653" r="5.22816512519436" fill="#FFFFFF" opacity="0.5799004815310485"/><circle cx="285" cy="466" r="3.507122690944787" fill="#FFFFFF" opacity="0.5883010469497054"/><circle cx="852" cy="53" r="5.0043822579999695" fill="#FFFFFF" opacity="0.7366678082120808"/><circle cx="249" cy="794" r="4.0462833463646355" fill="#FFFFFF" opacity="0.6394818932009153"/><circle cx="1058" cy="168" r="4.760491944684935" fill="#FFFFFF" opacity="0.850493640363574"/><circle cx="456" cy="290" r="5.010628281339631" fill="#FFFFFF" opacity="0.8559940579454604"/><circle cx="1123" cy="707" r="5.633730182293204" fill="#FFFFFF" opacity="0.6284746444368461"/><circle cx="626" cy="415" r="3.6319043273320553" fill="#FFFFFF" opacity="0.6211458759422124"/><circle cx="1426" cy="881" r="3.774576325369234" fill="#FFFFFF" opacity="0.8350509433123549"/><circle cx="912" cy="528" r="2.3942329728459293" fill="#FFFFFF" opacity="0.6992406449109229"/><circle cx="1103" cy="34" r="2.6134074910907557" fill="#FFFFFF" opacity="0.7231938145946979"/><circle cx="1161" cy="52" r="4.326785791194549" fill="#FFFFFF" opacity="0.6161925707852713"/><circle cx="338" cy="887" r="2.065887171830253" fill="#FFFFFF" opacity="0.7462459258437015"/><circle cx="595" cy="426" r="2.628673795975976" fill="#FFFFFF" opacity="0.5121256052741098"/><circle cx="1221" cy="658" r="5.172444848277732" fill="#FFFFFF" opacity="0.8295730657643486"/><circle cx="635" cy="206" r="2.4655484580050433" fill="#FFFFFF" opacity="0.8601928163156505"/><circle cx="716" cy="320" r="3.3041326962411066" fill="#FFFFFF" opacity="0.8118503352165168"/><circle cx="237" cy="604" r="4.944080373226026" fill="#FFFFFF" opacity="0.5510279787294772"/><circle cx="1045" cy="226" r="5.309718287149115" fill="#FFFFFF" opacity="0.6754998621469954"/><circle cx="419" cy="525" r="2.4538728584001643" fill="#FFFFFF" opacity="0.558824738165166"/><circle cx="641" cy="742" r="3.266643525639716" fill="#FFFFFF" opacity="0.8469814975140122"/><circle cx="1164" cy="848" r="2.9001150775958293" fill="#FFFFFF" opacity="0.6391487617422911"/><circle cx="1010" cy="625" r="4.2708349943205945" fill="#FFFFFF" opacity="0.6902040724176552"/><circle cx="325" cy="116" r="5.14216754417134" fill="#FFFFFF" opacity="0.6687735533637789"/><circle cx="839" cy="629" r="2.6264500508714512" fill="#FFFFFF" opacity="0.7572680403055154"/><circle cx="210" cy="474" r="4.824354332148068" fill="#FFFFFF" opacity="0.70994295725173"/><circle cx="480" cy="864" r="4.465977066310785" fill="#FFFFFF" opacity="0.6514441183096378"/><circle cx="1038" cy="379" r="3.6519942571894806" fill="#FFFFFF" opacity="0.7223240289020487"/><circle cx="414" cy="528" r="4.329830988285991" fill="#FFFFFF" opacity="0.827667248324583"/><circle cx="797" cy="592" r="4.0316797426424476" fill="#FFFFFF" opacity="0.7338491574068694"/><circle cx="1173" cy="802" r="5.944537026173032" fill="#FFFFFF" opacity="0.717052675123926"/><circle cx="654" cy="389" r="4.5110958667115355" fill="#FFFFFF" opacity="0.5377237652214166"/><circle cx="47" cy="330" r="4.844006758960211" fill="#FFFFFF" opacity="0.6312659624965451"/><circle cx="1094" cy="657" r="5.26253885306824" fill="#FFFFFF" opacity="0.8070094046447489"/><circle cx="834" cy="397" r="3.569310653904235" fill="#FFFFFF" opacity="0.8372097418211213"/><circle cx="1378" cy="572" r="5.895230517651848" fill="#FFFFFF" opacity="0.8839863015694238"/><circle cx="447" cy="176" r="3.2228351491915794" fill="#FFFFFF" opacity="0.8423485936751529"/><circle cx="1506" cy="552" r="4.122202781665701" fill="#FFFFFF" opacity="0.5684262377713222"/><circle cx="122" cy="418" r="5.109547588376689" fill="#FFFFFF" opacity="0.8702526400602775"/><circle cx="1107" cy="874" r="4.311977587789397" fill="#FFFFFF" opacity="0.780382302802537"/><circle cx="1323" cy="569" r="4.529837079372592" fill="#FFFFFF" opacity="0.5940990978423923"/><circle cx="1274" cy="532" r="4.647440449506002" fill="#FFFFFF" opacity="0.6959035165750309"/><circle cx="143" cy="888" r="2.0584715562974716" fill="#FFFFFF" opacity="0.7284589630479303"/><circle cx="1464" cy="14" r="3.1437758878811652" fill="#FFFFFF" opacity="0.503787411795587"/><circle cx="1027" cy="445" r="2.1602157591141404" fill="#FFFFFF" opacity="0.8302043348268112"/><circle cx="312" cy="782" r="4.190998970749561" fill="#FFFFFF" opacity="0.5017298490978792"/><circle cx="422" cy="732" r="4.59011361559612" fill="#FFFFFF" opacity="0.683516074333247"/><circle cx="1594" cy="584" r="4.399498578857543" fill="#FFFFFF" opacity="0.7596543219057867"/><circle cx="1038" cy="100" r="5.562916389968275" fill="#FFFFFF" opacity="0.5776435336323992"/><circle cx="1312" cy="432" r="3.5377535084245157" fill="#FFFFFF" opacity="0.6446652365955889"/><circle cx="593" cy="115" r="4.392219802515365" fill="#FFFFFF" opacity="0.6405113415247701"/><circle cx="903" cy="188" r="3.19470898617151" fill="#FFFFFF" opacity="0.5413849643560917"/><circle cx="743" cy="105" r="4.869305069955962" fill="#FFFFFF" opacity="0.7334333506443043"/><circle cx="429" cy="126" r="4.778519634538535" fill="#FFFFFF" opacity="0.5734589139779301"/><circle cx="1394" cy="77" r="4.858793803056779" fill="#FFFFFF" opacity="0.5770990391540358"/><circle cx="551" cy="381" r="3.7610501074540728" fill="#FFFFFF" opacity="0.5170525916530336"/><circle cx="1494" cy="20" r="5.62299232008773" fill="#FFFFFF" opacity="0.5235423827963113"/><circle cx="554" cy="574" r="4.932156454475974" fill="#FFFFFF" opacity="0.5349790001382366"/><circle cx="190" cy="106" r="5.899382166668467" fill="#FFFFFF" opacity="0.881909309312747"/><circle cx="1253" cy="351" r="3.063404575035738" fill="#FFFFFF" opacity="0.7941046060272647"/><circle cx="800" cy="238" r="2.2802117849499477" fill="#FFFFFF" opacity="0.7271509516510113"/><circle cx="1221" cy="719" r="5.59883466157593" fill="#FFFFFF" opacity="0.851745802936396"/><circle cx="756" cy="761" r="5.575176420708141" fill="#FFFFFF" opacity="0.798191360493723"/><circle cx="79" cy="318" r="3.3622405598849956" fill="#FFFFFF" opacity="0.8438918338849921"/><circle cx="1472" cy="732" r="4.510550196530943" fill="#FFFFFF" opacity="0.7422450315870037"/><circle cx="676" cy="795" r="4.8636072894882565" fill="#FFFFFF" opacity="0.7977741436490103"/><circle cx="230" cy="206" r="4.4636695723770305" fill="#FFFFFF" opacity="0.5429541568543589"/><circle cx="9" cy="602" r="2.842661593874778" fill="#FFFFFF" opacity="0.8428495731057277"/><circle cx="1301" cy="799" r="5.701301545257444" fill="#FFFFFF" opacity="0.5613456767534989"/><circle cx="1200" cy="891" r="5.642357420601188" fill="#FFFFFF" opacity="0.616924017176503"/><circle cx="785" cy="867" r="5.867627876067409" fill="#FFFFFF" opacity="0.5114073098576262"/><circle cx="430" cy="477" r="4.1864254728102335" fill="#FFFFFF" opacity="0.5729283588828757"/><circle cx="838" cy="107" r="4.164447114937058" fill="#FFFFFF" opacity="0.5517654338318219"/><circle cx="751" cy="646" r="4.898061000453309" fill="#FFFFFF" opacity="0.8726028047389434"/><circle cx="35" cy="710" r="2.992754903082806" fill="#FFFFFF" opacity="0.8663046760504013"/><circle cx="1318" cy="199" r="2.4906529542111877" fill="#FFFFFF" opacity="0.8117565037690051"/><circle cx="222" cy="385" r="4.6792331639855504" fill="#FFFFFF" opacity="0.5630131033178649"/><circle cx="786" cy="249" r="2.3126434835999743" fill="#FFFFFF" opacity="0.5368340336105872"/><circle cx="1495" cy="173" r="4.32393846939334" fill="#FFFFFF" opacity="0.6390979210185896"/><circle cx="333" cy="591" r="5.795250820109452" fill="#FFFFFF" opacity="0.6415130319063226"/><circle cx="984" cy="896" r="3.0244398408949302" fill="#FFFFFF" opacity="0.556020515385325"/><circle cx="517" cy="685" r="3.396973164493331" fill="#FFFFFF" opacity="0.7055736216648709"/><circle cx="326" cy="14" r="3.999751092894904" fill="#FFFFFF" opacity="0.7606758648861243"/><circle cx="1101" cy="293" r="5.7454219458828835" fill="#FFFFFF" opacity="0.5329074224975505"/><circle cx="844" cy="18" r="3.5745721700126345" fill="#FFFFFF" opacity="0.765255839004502"/><circle cx="1516" cy="153" r="2.961153201682635" fill="#FFFFFF" opacity="0.5122601038743969"/><circle cx="66" cy="371" r="4.97191643435798" fill="#FFFFFF" opacity="0.7898975025636044"/><circle cx="374" cy="846" r="3.0227801799594363" fill="#FFFFFF" opacity="0.83282707406687"/><circle cx="503" cy="726" r="3.944064772221244" fill="#FFFFFF" opacity="0.8993950126510857"/><circle cx="1570" cy="193" r="4.82503018813693" fill="#FFFFFF" opacity="0.63012280589369"/><circle cx="1431" cy="162" r="2.252813741095287" fill="#FFFFFF" opacity="0.634852567060737"/><circle cx="346" cy="249" r="2.878451113449984" fill="#FFFFFF" opacity="0.8689676328500333"/><circle cx="1198" cy="259" r="5.452549089829409" fill="#FFFFFF" opacity="0.5866551083141357"/><circle cx="1542" cy="516" r="2.176766426169859" fill="#FFFFFF" opacity="0.5910597823662722"/><circle cx="2" cy="691" r="2.6134673400690764" fill="#FFFFFF" opacity="0.7952418653192715"/><circle cx="1008" cy="350" r="5.829144322826144" fill="#FFFFFF" opacity="0.6669887472633502"/><circle cx="1108" cy="417" r="3.676654221494042" fill="#FFFFFF" opacity="0.671798620683466"/><circle cx="1107" cy="241" r="4.258447827801289" fill="#FFFFFF" opacity="0.7247445854305338"/><circle cx="876" cy="158" r="3.74361932264087" fill="#FFFFFF" opacity="0.7188701938020485"/><circle cx="779" cy="611" r="3.853861939861642" fill="#FFFFFF" opacity="0.7117099599922223"/><circle cx="416" cy="577" r="2.822383621856045" fill="#FFFFFF" opacity="0.7860898108674127"/><circle cx="184" cy="556" r="5.394520048426868" fill="#FFFFFF" opacity="0.7177638347652859"/><circle cx="380" cy="717" r="3.3852060421546515" fill="#FFFFFF" opacity="0.8146206408981802"/><circle cx="1581" cy="830" r="2.1631373349213363" fill="#FFFFFF" opacity="0.8390777883382395"/><circle cx="301" cy="639" r="5.459023724148967" fill="#FFFFFF" opacity="0.8678060878948619"/><circle cx="235" cy="501" r="5.476195937912105" fill="#FFFFFF" opacity="0.8237308277742876"/><circle cx="1428" cy="535" r="4.428795766787998" fill="#FFFFFF" opacity="0.8888665591605163"/><circle cx="1469" cy="634" r="4.695217875667003" fill="#FFFFFF" opacity="0.6270862397374493"/></svg>