<svg xmlns="http://www.w3.org/2000/svg" viewBox="0 0 1200 800" width="1200" height="800">
  <defs>
    <radialGradient id="g" cx="50%" cy="42%" r="75%">
      <stop offset="0" stop-color="#344b3d"/>
      <stop offset="1" stop-color="#17372f"/>
    </radialGradient>
    <pattern id="snow" width="120" height="120" patternUnits="userSpaceOnUse">
      <circle cx="20" cy="28" r="2.4" fill="#fff" opacity=".55"/>
      <circle cx="90" cy="70" r="1.8" fill="#fff" opacity=".45"/>
      <circle cx="64" cy="18" r="1.3" fill="#fff" opacity=".35"/>
      <circle cx="42" cy="100" r="1.7" fill="#fff" opacity=".4"/>
    </pattern>
    <linearGradient id="shine" x1="0" x2="1" y1="0" y2="1">
      <stop offset="0" stop-color="#ffffff" stop-opacity=".16"/>
      <stop offset="1" stop-color="#ffffff" stop-opacity="0"/>
    </linearGradient>
  </defs>
  <rect width="1200" height="800" fill="url(#g)"/>
  <rect width="1200" height="800" fill="url(#snow)"/>
  <circle cx="-60" cy="820" r="360" fill="#fff" opacity=".08"/>
  <circle cx="1260" cy="-70" r="390" fill="#ffe485" opacity=".10"/>
  
<g transform="translate(660 440)">
 <rect x="-230" y="40" width="145" height="110" rx="16" fill="#ff686b"/><rect x="-178" y="40" width="28" height="110" fill="#fff0a6"/><rect x="-230" y="82" width="145" height="26" fill="#fff0a6"/>
 <rect x="-45" y="-5" width="165" height="155" rx="18" fill="#77e69b"/><rect x="18" y="-5" width="30" height="155" fill="#fff0a6"/><rect x="-45" y="58" width="165" height="28" fill="#fff0a6"/>
 <rect x="135" y="55" width="120" height="95" rx="15" fill="#ffd35e"/><rect x="180" y="55" width="22" height="95" fill="#e94755"/><rect x="135" y="90" width="120" height="22" fill="#e94755"/>
</g>
  <rect width="1200" height="800" fill="url(#shine)"/>
</svg>