<svg xmlns="http://www.w3.org/2000/svg" viewBox="0 0 1600 1000" preserveAspectRatio="xMidYMid slice">
  <defs>
    <linearGradient id="g" x1="0" y1="0" x2="1" y2="1">
      <stop offset="0" stop-color="#173d35"/>
      <stop offset=".58" stop-color="#2c4d35"/>
      <stop offset="1" stop-color="#173d35"/>
    </linearGradient>
    <radialGradient id="warm" cx=".18" cy=".12" r=".62">
      <stop offset="0" stop-color="#ffe08a" stop-opacity=".32"/>
      <stop offset="1" stop-color="#ffe08a" stop-opacity="0"/>
    </radialGradient>
    <radialGradient id="cool" cx=".86" cy=".24" r=".58">
      <stop offset="0" stop-color="#8be6a7" stop-opacity=".24"/>
      <stop offset="1" stop-color="#8be6a7" stop-opacity="0"/>
    </radialGradient>
  </defs>
  <rect width="1600" height="1000" fill="url(#g)"/>
  <rect width="1600" height="1000" fill="url(#warm)"/>
  <rect width="1600" height="1000" fill="url(#cool)"/>
  <circle cx="1280" cy="820" r="360" fill="#ffffff" opacity=".06"/>
  <circle cx="130" cy="930" r="310" fill="#ffffff" opacity=".05"/>
  <circle cx="401" cy="816" r="183" fill="#ffe08a" opacity="0.13"/>
<circle cx="1140" cy="546" r="173" fill="#ffe08a" opacity="0.16"/>
<circle cx="839" cy="292" r="193" fill="#ee6570" opacity="0.13"/>
<circle cx="899" cy="-58" r="206" fill="#8be6a7" opacity="0.22"/>
<circle cx="1411" cy="823" r="87" fill="#ffe08a" opacity="0.11"/>
<circle cx="1146" cy="326" r="104" fill="#8be6a7" opacity="0.17"/>
<circle cx="1195" cy="1092" r="94" fill="#8be6a7" opacity="0.16"/>
<circle cx="850" cy="739" r="172" fill="#8be6a7" opacity="0.09"/>
<circle cx="1666" cy="689" r="214" fill="#ee6570" opacity="0.14"/>
<circle cx="329" cy="79" r="190" fill="#ee6570" opacity="0.19"/>
<circle cx="531" cy="686" r="122" fill="#ee6570" opacity="0.11"/>
<circle cx="600" cy="391" r="77" fill="#8be6a7" opacity="0.15"/>
<circle cx="721" cy="81" r="144" fill="#ffe08a" opacity="0.10"/>
<circle cx="896" cy="468" r="99" fill="#ffe08a" opacity="0.14"/>
<circle cx="1304" cy="135" r="137" fill="#ee6570" opacity="0.11"/>
<circle cx="911" cy="777" r="184" fill="#8be6a7" opacity="0.10"/>
    <pattern id="plaid" width="96" height="96" patternUnits="userSpaceOnUse">
      <rect width="96" height="96" fill="transparent"/>
      <path d="M0 24H96 M0 72H96 M24 0V96 M72 0V96" stroke="#ffe08a" stroke-width="2" opacity=".18"/>
      <path d="M0 48H96 M48 0V96" stroke="#8be6a7" stroke-width="8" opacity=".06"/>
    </pattern>
    <rect width="1600" height="1000" fill="url(#plaid)" opacity=".9"/><path d="M-100 479 C300 319, 600 659, 1000 479 S1400 329, 1700 519" fill="none" stroke="#ffe08a" stroke-width="34" opacity="0.17"/>
<path d="M-100 164 C300 4, 600 344, 1000 164 S1400 14, 1700 204" fill="none" stroke="#8be6a7" stroke-width="34" opacity="0.13"/>
<path d="M-100 172 C300 12, 600 352, 1000 172 S1400 22, 1700 212" fill="none" stroke="#ee6570" stroke-width="34" opacity="0.09"/>
<path d="M-100 884 C300 724, 600 1064, 1000 884 S1400 734, 1700 924" fill="none" stroke="#ffe08a" stroke-width="34" opacity="0.08"/>
<path d="M-100 255 C300 95, 600 435, 1000 255 S1400 105, 1700 295" fill="none" stroke="#ffe08a" stroke-width="34" opacity="0.13"/>
<path d="M-100 596 C300 436, 600 776, 1000 596 S1400 446, 1700 636" fill="none" stroke="#ffe08a" stroke-width="34" opacity="0.15"/><circle cx="254" cy="641" r="2.1" fill="#fff" opacity="0.52"/>
<circle cx="1211" cy="537" r="1.2" fill="#fff" opacity="0.58"/>
<circle cx="582" cy="627" r="1.7" fill="#fff" opacity="0.43"/>
<circle cx="1588" cy="10" r="1.5" fill="#fff" opacity="0.20"/>
<circle cx="660" cy="612" r="1.7" fill="#fff" opacity="0.47"/>
<circle cx="483" cy="330" r="1.3" fill="#fff" opacity="0.54"/>
<circle cx="1004" cy="390" r="1.2" fill="#fff" opacity="0.56"/>
<circle cx="1407" cy="662" r="2.2" fill="#fff" opacity="0.59"/>
<circle cx="536" cy="637" r="2.1" fill="#fff" opacity="0.34"/>
<circle cx="764" cy="164" r="1.6" fill="#fff" opacity="0.52"/>
<circle cx="1349" cy="591" r="2.2" fill="#fff" opacity="0.58"/>
<circle cx="305" cy="983" r="0.8" fill="#fff" opacity="0.50"/>
<circle cx="897" cy="117" r="2.4" fill="#fff" opacity="0.30"/>
<circle cx="606" cy="982" r="1.4" fill="#fff" opacity="0.52"/>
<circle cx="322" cy="13" r="1.5" fill="#fff" opacity="0.62"/>
<circle cx="1028" cy="937" r="1.9" fill="#fff" opacity="0.43"/>
<circle cx="1095" cy="905" r="2.0" fill="#fff" opacity="0.23"/>
<circle cx="1018" cy="554" r="2.1" fill="#fff" opacity="0.43"/>
<circle cx="35" cy="327" r="0.7" fill="#fff" opacity="0.48"/>
<circle cx="1052" cy="93" r="0.8" fill="#fff" opacity="0.26"/>
<circle cx="181" cy="358" r="1.3" fill="#fff" opacity="0.32"/>
<circle cx="1220" cy="874" r="1.3" fill="#fff" opacity="0.28"/>
<circle cx="1580" cy="999" r="0.9" fill="#fff" opacity="0.39"/>
<circle cx="333" cy="542" r="1.5" fill="#fff" opacity="0.23"/>
<circle cx="3" cy="991" r="2.1" fill="#fff" opacity="0.27"/>
<circle cx="392" cy="660" r="2.0" fill="#fff" opacity="0.54"/>
<circle cx="799" cy="645" r="1.1" fill="#fff" opacity="0.43"/>
<circle cx="209" cy="501" r="0.9" fill="#fff" opacity="0.25"/>
<circle cx="421" cy="723" r="2.4" fill="#fff" opacity="0.57"/>
<circle cx="1323" cy="683" r="2.2" fill="#fff" opacity="0.21"/>
<circle cx="431" cy="983" r="0.8" fill="#fff" opacity="0.49"/>
<circle cx="1459" cy="78" r="2.4" fill="#fff" opacity="0.19"/>
<circle cx="804" cy="237" r="1.1" fill="#fff" opacity="0.59"/>
<circle cx="1588" cy="541" r="0.9" fill="#fff" opacity="0.26"/>
<circle cx="1059" cy="386" r="1.7" fill="#fff" opacity="0.45"/>
<circle cx="1426" cy="664" r="0.7" fill="#fff" opacity="0.45"/>
<circle cx="1077" cy="594" r="2.0" fill="#fff" opacity="0.23"/>
<circle cx="876" cy="776" r="0.8" fill="#fff" opacity="0.55"/>
<circle cx="1013" cy="327" r="0.7" fill="#fff" opacity="0.46"/>
<circle cx="1065" cy="663" r="2.2" fill="#fff" opacity="0.35"/>
<circle cx="1020" cy="346" r="1.9" fill="#fff" opacity="0.25"/>
<circle cx="387" cy="182" r="1.2" fill="#fff" opacity="0.40"/>
<circle cx="805" cy="768" r="1.8" fill="#fff" opacity="0.31"/>
<circle cx="1365" cy="999" r="0.9" fill="#fff" opacity="0.18"/>
<circle cx="1375" cy="519" r="2.4" fill="#fff" opacity="0.33"/>
<circle cx="550" cy="138" r="1.3" fill="#fff" opacity="0.18"/>
<circle cx="1010" cy="499" r="1.7" fill="#fff" opacity="0.22"/>
<circle cx="691" cy="960" r="1.7" fill="#fff" opacity="0.45"/>
<circle cx="154" cy="762" r="1.4" fill="#fff" opacity="0.45"/>
<circle cx="1069" cy="297" r="0.7" fill="#fff" opacity="0.45"/>
<circle cx="1177" cy="224" r="2.3" fill="#fff" opacity="0.21"/>
<circle cx="429" cy="9" r="2.0" fill="#fff" opacity="0.41"/>
<circle cx="1380" cy="845" r="1.4" fill="#fff" opacity="0.40"/>
<circle cx="1556" cy="88" r="1.2" fill="#fff" opacity="0.27"/>
<circle cx="93" cy="543" r="2.2" fill="#fff" opacity="0.24"/>
<circle cx="563" cy="804" r="1.8" fill="#fff" opacity="0.56"/>
<circle cx="648" cy="864" r="1.6" fill="#fff" opacity="0.28"/>
<circle cx="1156" cy="558" r="2.3" fill="#fff" opacity="0.24"/>
<circle cx="931" cy="860" r="1.6" fill="#fff" opacity="0.61"/>
<circle cx="918" cy="623" r="1.4" fill="#fff" opacity="0.49"/>
<circle cx="1177" cy="543" r="1.6" fill="#fff" opacity="0.31"/>
<circle cx="118" cy="541" r="1.1" fill="#fff" opacity="0.23"/>
<circle cx="1034" cy="450" r="1.5" fill="#fff" opacity="0.39"/>
<circle cx="1101" cy="906" r="0.9" fill="#fff" opacity="0.42"/>
<circle cx="414" cy="9" r="0.8" fill="#fff" opacity="0.32"/>
<circle cx="165" cy="213" r="1.2" fill="#fff" opacity="0.40"/>
<circle cx="1007" cy="847" r="1.4" fill="#fff" opacity="0.51"/>
<circle cx="165" cy="185" r="1.4" fill="#fff" opacity="0.35"/>
<circle cx="206" cy="151" r="1.7" fill="#fff" opacity="0.21"/>
<circle cx="835" cy="733" r="1.2" fill="#fff" opacity="0.61"/>
<circle cx="984" cy="685" r="2.1" fill="#fff" opacity="0.19"/>
<circle cx="757" cy="53" r="1.2" fill="#fff" opacity="0.20"/>
<circle cx="904" cy="462" r="2.0" fill="#fff" opacity="0.38"/>
<circle cx="1511" cy="744" r="1.1" fill="#fff" opacity="0.22"/>
<circle cx="466" cy="189" r="1.1" fill="#fff" opacity="0.46"/>
<circle cx="1015" cy="883" r="2.2" fill="#fff" opacity="0.59"/>
<circle cx="60" cy="15" r="0.8" fill="#fff" opacity="0.37"/>
<circle cx="323" cy="566" r="1.2" fill="#fff" opacity="0.22"/>
<circle cx="341" cy="73" r="0.8" fill="#fff" opacity="0.32"/>
<circle cx="1200" cy="600" r="2.3" fill="#fff" opacity="0.42"/>
<circle cx="218" cy="149" r="1.4" fill="#fff" opacity="0.29"/>
<circle cx="676" cy="473" r="0.8" fill="#fff" opacity="0.40"/>
<circle cx="279" cy="547" r="1.5" fill="#fff" opacity="0.60"/>
<circle cx="709" cy="506" r="1.5" fill="#fff" opacity="0.36"/>
<circle cx="723" cy="681" r="1.9" fill="#fff" opacity="0.33"/>
<circle cx="1038" cy="967" r="2.0" fill="#fff" opacity="0.42"/>
<circle cx="1289" cy="137" r="2.1" fill="#fff" opacity="0.47"/>
<circle cx="994" cy="420" r="2.2" fill="#fff" opacity="0.24"/>
<circle cx="598" cy="198" r="1.8" fill="#fff" opacity="0.28"/>
<circle cx="537" cy="887" r="2.2" fill="#fff" opacity="0.54"/>
<circle cx="1558" cy="824" r="1.7" fill="#fff" opacity="0.60"/>
<circle cx="1577" cy="777" r="2.2" fill="#fff" opacity="0.19"/>
<circle cx="269" cy="165" r="1.8" fill="#fff" opacity="0.54"/>
<circle cx="1577" cy="695" r="1.7" fill="#fff" opacity="0.29"/>
<circle cx="595" cy="758" r="0.7" fill="#fff" opacity="0.54"/>
<circle cx="1145" cy="704" r="2.2" fill="#fff" opacity="0.19"/>
<circle cx="152" cy="831" r="1.3" fill="#fff" opacity="0.31"/>
<circle cx="223" cy="251" r="1.8" fill="#fff" opacity="0.29"/>
<circle cx="1307" cy="53" r="2.2" fill="#fff" opacity="0.31"/>
<circle cx="744" cy="267" r="1.8" fill="#fff" opacity="0.30"/>
<circle cx="155" cy="784" r="1.9" fill="#fff" opacity="0.52"/>
<circle cx="616" cy="605" r="2.4" fill="#fff" opacity="0.55"/>
<circle cx="235" cy="371" r="2.0" fill="#fff" opacity="0.23"/>
<circle cx="270" cy="223" r="2.0" fill="#fff" opacity="0.33"/>
<circle cx="294" cy="39" r="1.6" fill="#fff" opacity="0.53"/>
<circle cx="65" cy="841" r="2.3" fill="#fff" opacity="0.46"/>
<circle cx="662" cy="23" r="2.2" fill="#fff" opacity="0.55"/>
<circle cx="962" cy="795" r="2.0" fill="#fff" opacity="0.43"/>
<circle cx="705" cy="76" r="0.9" fill="#fff" opacity="0.61"/>
<circle cx="760" cy="573" r="1.9" fill="#fff" opacity="0.20"/>
  <rect width="1600" height="1000" fill="#000" opacity=".08"/>
</svg>