<svg xmlns="http://www.w3.org/2000/svg" viewBox="0 0 1200 800" width="1200" height="800">
  <defs>
    <radialGradient id="g" cx="50%" cy="42%" r="75%">
      <stop offset="0" stop-color="#594144"/>
      <stop offset="1" stop-color="#183d36"/>
    </radialGradient>
    <pattern id="snow" width="120" height="120" patternUnits="userSpaceOnUse">
      <circle cx="20" cy="28" r="2.4" fill="#fff" opacity=".55"/>
      <circle cx="90" cy="70" r="1.8" fill="#fff" opacity=".45"/>
      <circle cx="64" cy="18" r="1.3" fill="#fff" opacity=".35"/>
      <circle cx="42" cy="100" r="1.7" fill="#fff" opacity=".4"/>
    </pattern>
    <linearGradient id="shine" x1="0" x2="1" y1="0" y2="1">
      <stop offset="0" stop-color="#ffffff" stop-opacity=".16"/>
      <stop offset="1" stop-color="#ffffff" stop-opacity="0"/>
    </linearGradient>
  </defs>
  <rect width="1200" height="800" fill="url(#g)"/>
  <rect width="1200" height="800" fill="url(#snow)"/>
  <circle cx="-60" cy="820" r="360" fill="#fff" opacity=".08"/>
  <circle cx="1260" cy="-70" r="390" fill="#ffd86b" opacity=".10"/>
  
<g transform="translate(250 480)">
 <path d="M0 110 C80 5 170 5 250 110z" fill="#2fb96b"/><path d="M155 110 C235 0 325 0 405 110z" fill="#31c87a"/><path d="M330 110 C410 0 510 0 590 110z" fill="#2ab66c"/>
 <g stroke-width="20" stroke-linecap="round"><path d="M730 120 v-170 q0 -58 55 -58 q54 0 54 54" fill="none" stroke="#fff1c4"/><path d="M730 80 v-30M730 5 v-30M795 -105 q35 7 44 44" stroke="#ff5f6c" fill="none"/></g>
</g>
  <rect width="1200" height="800" fill="url(#shine)"/>
</svg>