<svg xmlns="http://www.w3.org/2000/svg" viewBox="0 0 1600 1000" preserveAspectRatio="xMidYMid slice">
  <defs>
    <linearGradient id="g" x1="0" y1="0" x2="1" y2="1">
      <stop offset="0" stop-color="#102f46"/>
      <stop offset=".58" stop-color="#1d5b6b"/>
      <stop offset="1" stop-color="#102f46"/>
    </linearGradient>
    <radialGradient id="warm" cx=".18" cy=".12" r=".62">
      <stop offset="0" stop-color="#c8f3ff" stop-opacity=".32"/>
      <stop offset="1" stop-color="#c8f3ff" stop-opacity="0"/>
    </radialGradient>
    <radialGradient id="cool" cx=".86" cy=".24" r=".58">
      <stop offset="0" stop-color="#f7d36b" stop-opacity=".24"/>
      <stop offset="1" stop-color="#f7d36b" stop-opacity="0"/>
    </radialGradient>
  </defs>
  <rect width="1600" height="1000" fill="url(#g)"/>
  <rect width="1600" height="1000" fill="url(#warm)"/>
  <rect width="1600" height="1000" fill="url(#cool)"/>
  <circle cx="1280" cy="820" r="360" fill="#ffffff" opacity=".06"/>
  <circle cx="130" cy="930" r="310" fill="#ffffff" opacity=".05"/>
  <circle cx="1336" cy="724" r="83" fill="#c8f3ff" opacity="0.12"/>
<circle cx="867" cy="228" r="113" fill="#c8f3ff" opacity="0.15"/>
<circle cx="236" cy="350" r="132" fill="#c8f3ff" opacity="0.22"/>
<circle cx="1441" cy="950" r="89" fill="#c8f3ff" opacity="0.17"/>
<circle cx="984" cy="775" r="129" fill="#ff8490" opacity="0.15"/>
<circle cx="479" cy="884" r="113" fill="#ff8490" opacity="0.17"/>
<circle cx="1170" cy="110" r="136" fill="#c8f3ff" opacity="0.14"/>
<circle cx="358" cy="405" r="221" fill="#c8f3ff" opacity="0.22"/>
<circle cx="1391" cy="358" r="137" fill="#f7d36b" opacity="0.16"/>
<circle cx="1296" cy="19" r="128" fill="#c8f3ff" opacity="0.19"/>
<circle cx="331" cy="425" r="76" fill="#ff8490" opacity="0.09"/>
<circle cx="375" cy="1057" r="192" fill="#c8f3ff" opacity="0.18"/>
<circle cx="1615" cy="276" r="211" fill="#ff8490" opacity="0.09"/>
<circle cx="368" cy="-34" r="187" fill="#c8f3ff" opacity="0.17"/>
<circle cx="260" cy="1083" r="186" fill="#f7d36b" opacity="0.17"/>
<circle cx="789" cy="757" r="107" fill="#ff8490" opacity="0.17"/><circle cx="1348" cy="843" r="0.9" fill="#fff" opacity="0.54"/>
<circle cx="1110" cy="415" r="1.3" fill="#fff" opacity="0.51"/>
<circle cx="1395" cy="543" r="1.6" fill="#fff" opacity="0.21"/>
<circle cx="1182" cy="443" r="2.0" fill="#fff" opacity="0.58"/>
<circle cx="1044" cy="125" r="1.5" fill="#fff" opacity="0.27"/>
<circle cx="440" cy="927" r="1.4" fill="#fff" opacity="0.27"/>
<circle cx="600" cy="725" r="2.0" fill="#fff" opacity="0.43"/>
<circle cx="1367" cy="687" r="2.3" fill="#fff" opacity="0.30"/>
<circle cx="1314" cy="373" r="1.6" fill="#fff" opacity="0.58"/>
<circle cx="1427" cy="601" r="1.7" fill="#fff" opacity="0.38"/>
<circle cx="993" cy="263" r="1.7" fill="#fff" opacity="0.21"/>
<circle cx="1551" cy="975" r="1.1" fill="#fff" opacity="0.47"/>
<circle cx="1576" cy="64" r="1.7" fill="#fff" opacity="0.45"/>
<circle cx="694" cy="993" r="0.8" fill="#fff" opacity="0.21"/>
<circle cx="749" cy="396" r="2.3" fill="#fff" opacity="0.41"/>
<circle cx="348" cy="310" r="1.1" fill="#fff" opacity="0.45"/>
<circle cx="631" cy="132" r="1.3" fill="#fff" opacity="0.61"/>
<circle cx="1196" cy="932" r="1.3" fill="#fff" opacity="0.23"/>
<circle cx="940" cy="299" r="1.1" fill="#fff" opacity="0.58"/>
<circle cx="759" cy="703" r="0.9" fill="#fff" opacity="0.52"/>
<circle cx="1598" cy="630" r="0.9" fill="#fff" opacity="0.55"/>
<circle cx="23" cy="125" r="1.7" fill="#fff" opacity="0.37"/>
<circle cx="818" cy="451" r="1.7" fill="#fff" opacity="0.35"/>
<circle cx="1145" cy="997" r="1.7" fill="#fff" opacity="0.19"/>
<circle cx="1397" cy="74" r="1.1" fill="#fff" opacity="0.35"/>
<circle cx="1264" cy="818" r="1.8" fill="#fff" opacity="0.56"/>
<circle cx="874" cy="387" r="0.8" fill="#fff" opacity="0.25"/>
<circle cx="929" cy="521" r="0.9" fill="#fff" opacity="0.29"/>
<circle cx="522" cy="511" r="1.4" fill="#fff" opacity="0.59"/>
<circle cx="1165" cy="986" r="1.0" fill="#fff" opacity="0.28"/>
<circle cx="1131" cy="631" r="1.1" fill="#fff" opacity="0.60"/>
<circle cx="1052" cy="312" r="1.9" fill="#fff" opacity="0.25"/>
<circle cx="1466" cy="639" r="2.0" fill="#fff" opacity="0.37"/>
<circle cx="136" cy="607" r="1.2" fill="#fff" opacity="0.26"/>
<circle cx="1512" cy="78" r="1.6" fill="#fff" opacity="0.36"/>
<circle cx="499" cy="985" r="1.4" fill="#fff" opacity="0.55"/>
<circle cx="695" cy="675" r="1.7" fill="#fff" opacity="0.51"/>
<circle cx="921" cy="196" r="1.6" fill="#fff" opacity="0.33"/>
<circle cx="934" cy="220" r="2.2" fill="#fff" opacity="0.33"/>
<circle cx="870" cy="984" r="1.0" fill="#fff" opacity="0.24"/>
<circle cx="749" cy="925" r="1.5" fill="#fff" opacity="0.39"/>
<circle cx="545" cy="357" r="1.2" fill="#fff" opacity="0.31"/>
<circle cx="50" cy="138" r="1.1" fill="#fff" opacity="0.49"/>
<circle cx="979" cy="174" r="1.2" fill="#fff" opacity="0.49"/>
<circle cx="1432" cy="363" r="1.0" fill="#fff" opacity="0.41"/>
<circle cx="1523" cy="644" r="2.2" fill="#fff" opacity="0.58"/>
<circle cx="945" cy="13" r="1.4" fill="#fff" opacity="0.52"/>
<circle cx="127" cy="697" r="1.3" fill="#fff" opacity="0.39"/>
<circle cx="1544" cy="309" r="2.0" fill="#fff" opacity="0.50"/>
<circle cx="963" cy="219" r="1.1" fill="#fff" opacity="0.27"/>
<circle cx="379" cy="685" r="0.9" fill="#fff" opacity="0.37"/>
<circle cx="857" cy="295" r="1.9" fill="#fff" opacity="0.22"/>
<circle cx="46" cy="390" r="1.2" fill="#fff" opacity="0.36"/>
<circle cx="336" cy="795" r="2.2" fill="#fff" opacity="0.20"/>
<circle cx="1235" cy="751" r="0.9" fill="#fff" opacity="0.45"/>
<circle cx="468" cy="772" r="2.2" fill="#fff" opacity="0.24"/>
<circle cx="1316" cy="308" r="1.7" fill="#fff" opacity="0.31"/>
<circle cx="610" cy="609" r="0.9" fill="#fff" opacity="0.56"/>
<circle cx="68" cy="874" r="1.7" fill="#fff" opacity="0.36"/>
<circle cx="631" cy="772" r="1.3" fill="#fff" opacity="0.47"/>
<circle cx="1191" cy="3" r="1.9" fill="#fff" opacity="0.24"/>
<circle cx="886" cy="6" r="1.9" fill="#fff" opacity="0.27"/>
<circle cx="1159" cy="223" r="1.9" fill="#fff" opacity="0.27"/>
<circle cx="231" cy="347" r="0.7" fill="#fff" opacity="0.41"/>
<circle cx="884" cy="279" r="0.8" fill="#fff" opacity="0.61"/>
<circle cx="1444" cy="471" r="1.3" fill="#fff" opacity="0.21"/>
<circle cx="288" cy="965" r="0.9" fill="#fff" opacity="0.48"/>
<circle cx="193" cy="18" r="0.8" fill="#fff" opacity="0.23"/>
<circle cx="587" cy="216" r="1.8" fill="#fff" opacity="0.28"/>
<circle cx="783" cy="826" r="2.2" fill="#fff" opacity="0.59"/>
<circle cx="1191" cy="948" r="1.6" fill="#fff" opacity="0.26"/>
<circle cx="1374" cy="697" r="1.2" fill="#fff" opacity="0.30"/>
<circle cx="818" cy="316" r="1.8" fill="#fff" opacity="0.53"/>
<circle cx="1015" cy="842" r="1.0" fill="#fff" opacity="0.56"/>
<circle cx="1597" cy="763" r="2.2" fill="#fff" opacity="0.41"/>
<circle cx="549" cy="242" r="2.1" fill="#fff" opacity="0.44"/>
<circle cx="416" cy="327" r="1.8" fill="#fff" opacity="0.28"/>
<circle cx="1585" cy="255" r="2.0" fill="#fff" opacity="0.50"/>
<circle cx="1195" cy="857" r="1.7" fill="#fff" opacity="0.38"/>
<circle cx="538" cy="378" r="1.4" fill="#fff" opacity="0.46"/>
<circle cx="749" cy="656" r="1.6" fill="#fff" opacity="0.55"/>
<circle cx="946" cy="556" r="1.8" fill="#fff" opacity="0.57"/>
<circle cx="957" cy="550" r="1.4" fill="#fff" opacity="0.54"/>
<circle cx="214" cy="142" r="0.8" fill="#fff" opacity="0.42"/>
<circle cx="1258" cy="703" r="1.2" fill="#fff" opacity="0.60"/>
<circle cx="1391" cy="920" r="1.5" fill="#fff" opacity="0.35"/>
<circle cx="1085" cy="304" r="1.8" fill="#fff" opacity="0.62"/>
<circle cx="551" cy="995" r="2.2" fill="#fff" opacity="0.48"/>
<circle cx="857" cy="975" r="1.8" fill="#fff" opacity="0.23"/>
<circle cx="134" cy="270" r="1.6" fill="#fff" opacity="0.22"/>
<circle cx="43" cy="333" r="1.7" fill="#fff" opacity="0.46"/>
<circle cx="490" cy="74" r="2.0" fill="#fff" opacity="0.48"/>
<circle cx="965" cy="897" r="1.4" fill="#fff" opacity="0.32"/>
<circle cx="686" cy="164" r="1.2" fill="#fff" opacity="0.46"/>
<circle cx="1121" cy="451" r="1.2" fill="#fff" opacity="0.27"/>
<circle cx="979" cy="982" r="1.9" fill="#fff" opacity="0.22"/>
<circle cx="144" cy="45" r="0.7" fill="#fff" opacity="0.38"/>
<circle cx="26" cy="153" r="2.4" fill="#fff" opacity="0.24"/>
<circle cx="1067" cy="551" r="0.8" fill="#fff" opacity="0.41"/>
<circle cx="908" cy="899" r="0.7" fill="#fff" opacity="0.54"/>
<circle cx="789" cy="203" r="2.3" fill="#fff" opacity="0.26"/>
<circle cx="1513" cy="457" r="1.6" fill="#fff" opacity="0.39"/>
<circle cx="118" cy="249" r="1.6" fill="#fff" opacity="0.24"/>
<circle cx="1462" cy="746" r="1.9" fill="#fff" opacity="0.30"/>
<circle cx="937" cy="861" r="2.0" fill="#fff" opacity="0.24"/>
<circle cx="965" cy="85" r="1.8" fill="#fff" opacity="0.60"/>
<circle cx="1243" cy="616" r="1.1" fill="#fff" opacity="0.61"/>
<circle cx="317" cy="52" r="1.2" fill="#fff" opacity="0.39"/>
<circle cx="710" cy="409" r="1.3" fill="#fff" opacity="0.30"/>
<circle cx="240" cy="698" r="1.5" fill="#fff" opacity="0.59"/>
<circle cx="565" cy="541" r="1.9" fill="#fff" opacity="0.29"/>
<circle cx="1" cy="296" r="1.7" fill="#fff" opacity="0.26"/>
<circle cx="693" cy="557" r="2.2" fill="#fff" opacity="0.39"/>
<circle cx="426" cy="550" r="1.7" fill="#fff" opacity="0.29"/>
<circle cx="1113" cy="513" r="1.8" fill="#fff" opacity="0.35"/>
<circle cx="817" cy="980" r="1.4" fill="#fff" opacity="0.29"/>
<circle cx="806" cy="36" r="1.1" fill="#fff" opacity="0.22"/>
<circle cx="944" cy="19" r="1.3" fill="#fff" opacity="0.34"/>
<circle cx="1438" cy="390" r="2.1" fill="#fff" opacity="0.29"/>
<circle cx="153" cy="100" r="0.9" fill="#fff" opacity="0.35"/>
<circle cx="1489" cy="728" r="1.0" fill="#fff" opacity="0.57"/>
<circle cx="809" cy="853" r="1.2" fill="#fff" opacity="0.21"/>
<circle cx="436" cy="164" r="1.3" fill="#fff" opacity="0.32"/>
<circle cx="770" cy="767" r="1.7" fill="#fff" opacity="0.43"/>
<circle cx="235" cy="261" r="1.5" fill="#fff" opacity="0.43"/>
<circle cx="139" cy="764" r="0.8" fill="#fff" opacity="0.46"/>
<circle cx="95" cy="142" r="2.4" fill="#fff" opacity="0.41"/>
<circle cx="220" cy="346" r="1.2" fill="#fff" opacity="0.20"/>
<circle cx="797" cy="299" r="1.4" fill="#fff" opacity="0.42"/>
<circle cx="1012" cy="291" r="0.7" fill="#fff" opacity="0.39"/>
  <rect width="1600" height="1000" fill="#000" opacity=".08"/>
</svg>