<svg xmlns="http://www.w3.org/2000/svg" viewBox="0 0 1600 900" preserveAspectRatio="xMidYMid slice"><defs><linearGradient id="bg11" x1="0" y1="0" x2="0" y2="1"><stop offset="0%" stop-color="#1A237E"/><stop offset="100%" stop-color="#3949AB"/></linearGradient><linearGradient id="hill111" x1="0" y1="0" x2="0" y2="1"><stop offset="0%" stop-color="#FFFFFF"/><stop offset="100%" stop-color="#E3F2FD"/></linearGradient><linearGradient id="hill211" x1="0" y1="0" x2="0" y2="1"><stop offset="0%" stop-color="#F5F5F5"/><stop offset="100%" stop-color="#BBDEFB"/></linearGradient></defs><rect width="1600" height="900" fill="url(#bg11)"/><circle cx="1300" cy="200" r="60" fill="#FFF9C4" opacity="0.9"/><circle cx="1300" cy="200" r="120" fill="#FFF9C4" opacity="0.1"/><circle cx="278" cy="248" r="2.1873077456294707" fill="#FFFFFF" opacity="0.6448704346985568"/><circle cx="1538" cy="70" r="2.1729437592475582" fill="#FFFFFF" opacity="0.5807337316609245"/><circle cx="628" cy="289" r="1.4326916392009337" fill="#FFFFFF" opacity="0.7687592683391675"/><circle cx="926" cy="486" r="1.2528514836554188" fill="#FFFFFF" opacity="0.3811282633878803"/><circle cx="104" cy="97" r="1.5586645852931258" fill="#FFFFFF" opacity="0.5306525518940893"/><circle cx="504" cy="130" r="1.493020093591608" fill="#FFFFFF" opacity="0.49378923245303136"/><circle cx="119" cy="444" r="2.2869379579217246" fill="#FFFFFF" opacity="0.7446375995782979"/><circle cx="336" cy="283" r="2.4005260870004665" fill="#FFFFFF" opacity="0.7151533240278853"/><circle cx="265" cy="454" r="1.2035488981967537" fill="#FFFFFF" opacity="0.31241145163691514"/><circle cx="86" cy="141" r="1.3959396457174293" fill="#FFFFFF" opacity="0.7196100388611361"/><circle cx="583" cy="396" r="2.2958199546128952" fill="#FFFFFF" opacity="0.5426592823582171"/><circle cx="652" cy="422" r="1.142300335580921" fill="#FFFFFF" opacity="0.7000843855589083"/><circle cx="694" cy="127" r="2.341607280008116" fill="#FFFFFF" opacity="0.7281298936069391"/><circle cx="1414" cy="289" r="1.790672015975408" fill="#FFFFFF" opacity="0.5506559171454634"/><circle cx="1160" cy="302" r="1.0290592931646498" fill="#FFFFFF" opacity="0.35658475578147436"/><circle cx="1227" cy="436" r="1.2869545560871276" fill="#FFFFFF" opacity="0.6737331059488665"/><circle cx="1082" cy="218" r="2.571917505375862" fill="#FFFFFF" opacity="0.5672187475174977"/><circle cx="1600" cy="152" r="2.7017363175694666" fill="#FFFFFF" opacity="0.31836613462973956"/><circle cx="870" cy="267" r="2.709424193217293" fill="#FFFFFF" opacity="0.40278207401645016"/><circle cx="121" cy="4" r="2.3991158914265434" fill="#FFFFFF" opacity="0.36356083193131805"/><circle cx="1533" cy="75" r="2.0615638965332437" fill="#FFFFFF" opacity="0.6578791926716412"/><circle cx="288" cy="341" r="2.896124377938399" fill="#FFFFFF" opacity="0.4643320791895131"/><circle cx="1032" cy="353" r="2.515748025650316" fill="#FFFFFF" opacity="0.632303503480915"/><circle cx="1082" cy="312" r="2.518916554422972" fill="#FFFFFF" opacity="0.514945301602409"/><circle cx="451" cy="365" r="1.260497209421572" fill="#FFFFFF" opacity="0.5011882181870803"/><circle cx="236" cy="238" r="1.62250054938532" fill="#FFFFFF" opacity="0.7823320983551725"/><circle cx="681" cy="99" r="1.893145936670633" fill="#FFFFFF" opacity="0.6431165222308687"/><circle cx="1111" cy="8" r="1.4957432654609513" fill="#FFFFFF" opacity="0.40095650838152225"/><circle cx="1451" cy="471" r="2.7091520178643793" fill="#FFFFFF" opacity="0.33532762903027646"/><circle cx="206" cy="115" r="2.5106596425625898" fill="#FFFFFF" opacity="0.63682908869016"/><circle cx="1452" cy="463" r="2.2560051460358386" fill="#FFFFFF" opacity="0.4079762610973317"/><circle cx="295" cy="61" r="2.7633941154856654" fill="#FFFFFF" opacity="0.5419883506250971"/><circle cx="1595" cy="159" r="1.8670024306640367" fill="#FFFFFF" opacity="0.6680152644309071"/><circle cx="198" cy="437" r="1.052108743971828" fill="#FFFFFF" opacity="0.38201003060831407"/><circle cx="204" cy="479" r="2.9157512641378633" fill="#FFFFFF" opacity="0.65310321029981"/><circle cx="891" cy="344" r="1.6442908156599965" fill="#FFFFFF" opacity="0.779768752970694"/><circle cx="852" cy="447" r="2.646349577610229" fill="#FFFFFF" opacity="0.6552460649796868"/><circle cx="915" cy="94" r="1.0707007417131553" fill="#FFFFFF" opacity="0.6471954701328371"/><circle cx="571" cy="348" r="2.491706400601152" fill="#FFFFFF" opacity="0.30741105092343507"/><circle cx="824" cy="284" r="2.7846811213430227" fill="#FFFFFF" opacity="0.6128348501452916"/><circle cx="273" cy="20" r="2.9953201345061213" fill="#FFFFFF" opacity="0.5973703607300878"/><circle cx="1542" cy="119" r="2.3690262775070474" fill="#FFFFFF" opacity="0.6130707817321883"/><circle cx="491" cy="335" r="1.3756712838164418" fill="#FFFFFF" opacity="0.31789906235262133"/><circle cx="1139" cy="280" r="1.2088427821309773" fill="#FFFFFF" opacity="0.3590045315653718"/><circle cx="360" cy="314" r="1.2969422615731658" fill="#FFFFFF" opacity="0.5674112143410427"/><circle cx="925" cy="300" r="2.687862028056191" fill="#FFFFFF" opacity="0.6525879899193394"/><circle cx="1206" cy="137" r="1.9475291841919373" fill="#FFFFFF" opacity="0.35936929089482467"/><circle cx="1100" cy="182" r="1.6753040649047892" fill="#FFFFFF" opacity="0.773635909262611"/><circle cx="877" cy="348" r="1.760766687222906" fill="#FFFFFF" opacity="0.5600512629570924"/><circle cx="505" cy="109" r="2.862312638970748" fill="#FFFFFF" opacity="0.5907815884842396"/><path d="M 0 600 Q 400 450 800 600 T 1600 550 L 1600 900 L 0 900 Z" fill="url(#hill211)"/><g transform="translate(268,648) scale(0.9917185526971688)"><rect x="-6" y="-10" width="12" height="20" fill="#795548" rx="2"/><path d="M -40 -10 L 40 -10 L 0 -50 Z" fill="#2E7D32"/><path d="M -30 -30 L 30 -30 L 0 -70 Z" fill="#43A047"/><path d="M -20 -50 L 20 -50 L 0 -90 Z" fill="#4CAF50"/><circle cx="-15" cy="-20" r="3.5" fill="#AB47BC"/><circle cx="10" cy="-25" r="3.5" fill="#29B6F6"/><circle cx="-5" cy="-40" r="3.5" fill="#F44336"/><circle cx="15" cy="-45" r="3.5" fill="#FF9800"/><circle cx="-10" cy="-60" r="3.5" fill="#F44336"/><circle cx="0" cy="-30" r="3.5" fill="#AB47BC"/><circle cx="20" cy="-15" r="3.5" fill="#FFEB3B"/><circle cx="-25" cy="-12" r="3.5" fill="#F44336"/><polygon points="0,-95 3,-85 12,-85 5,-80 8,-70 0,-76 -8,-70 -5,-80 -12,-85 -3,-85" fill="#FFC107"/></g><g transform="translate(597,648) scale(0.8783195438139833)"><rect x="-6" y="-10" width="12" height="20" fill="#795548" rx="2"/><path d="M -40 -10 L 40 -10 L 0 -50 Z" fill="#2E7D32"/><path d="M -30 -30 L 30 -30 L 0 -70 Z" fill="#43A047"/><path d="M -20 -50 L 20 -50 L 0 -90 Z" fill="#4CAF50"/><circle cx="-15" cy="-20" r="3.5" fill="#FFEB3B"/><circle cx="10" cy="-25" r="3.5" fill="#AB47BC"/><circle cx="-5" cy="-40" r="3.5" fill="#FFEB3B"/><circle cx="15" cy="-45" r="3.5" fill="#29B6F6"/><circle cx="-10" cy="-60" r="3.5" fill="#FF9800"/><circle cx="0" cy="-30" r="3.5" fill="#FF9800"/><circle cx="20" cy="-15" r="3.5" fill="#F44336"/><circle cx="-25" cy="-12" r="3.5" fill="#FFEB3B"/><polygon points="0,-95 3,-85 12,-85 5,-80 8,-70 0,-76 -8,-70 -5,-80 -12,-85 -3,-85" fill="#FFC107"/></g><g transform="translate(961,586) scale(1.0505513801540143)"><rect x="-6" y="-10" width="12" height="20" fill="#795548" rx="2"/><path d="M -40 -10 L 40 -10 L 0 -50 Z" fill="#2E7D32"/><path d="M -30 -30 L 30 -30 L 0 -70 Z" fill="#43A047"/><path d="M -20 -50 L 20 -50 L 0 -90 Z" fill="#4CAF50"/><circle cx="-15" cy="-20" r="3.5" fill="#FFEB3B"/><circle cx="10" cy="-25" r="3.5" fill="#FF9800"/><circle cx="-5" cy="-40" r="3.5" fill="#29B6F6"/><circle cx="15" cy="-45" r="3.5" fill="#F44336"/><circle cx="-10" cy="-60" r="3.5" fill="#AB47BC"/><circle cx="0" cy="-30" r="3.5" fill="#FFEB3B"/><circle cx="20" cy="-15" r="3.5" fill="#AB47BC"/><circle cx="-25" cy="-12" r="3.5" fill="#29B6F6"/><polygon points="0,-95 3,-85 12,-85 5,-80 8,-70 0,-76 -8,-70 -5,-80 -12,-85 -3,-85" fill="#FFC107"/></g><g transform="translate(1462,592) scale(0.9579650216551128)"><rect x="-6" y="-10" width="12" height="20" fill="#795548" rx="2"/><path d="M -40 -10 L 40 -10 L 0 -50 Z" fill="#2E7D32"/><path d="M -30 -30 L 30 -30 L 0 -70 Z" fill="#43A047"/><path d="M -20 -50 L 20 -50 L 0 -90 Z" fill="#4CAF50"/><circle cx="-15" cy="-20" r="3.5" fill="#FFEB3B"/><circle cx="10" cy="-25" r="3.5" fill="#F44336"/><circle cx="-5" cy="-40" r="3.5" fill="#F44336"/><circle cx="15" cy="-45" r="3.5" fill="#F44336"/><circle cx="-10" cy="-60" r="3.5" fill="#F44336"/><circle cx="0" cy="-30" r="3.5" fill="#29B6F6"/><circle cx="20" cy="-15" r="3.5" fill="#29B6F6"/><circle cx="-25" cy="-12" r="3.5" fill="#29B6F6"/><polygon points="0,-95 3,-85 12,-85 5,-80 8,-70 0,-76 -8,-70 -5,-80 -12,-85 -3,-85" fill="#FFC107"/></g><g transform="translate(816,580) scale(1.006304438991944)"><rect x="-6" y="-10" width="12" height="20" fill="#795548" rx="2"/><path d="M -40 -10 L 40 -10 L 0 -50 Z" fill="#2E7D32"/><path d="M -30 -30 L 30 -30 L 0 -70 Z" fill="#43A047"/><path d="M -20 -50 L 20 -50 L 0 -90 Z" fill="#4CAF50"/><circle cx="-15" cy="-20" r="3.5" fill="#AB47BC"/><circle cx="10" cy="-25" r="3.5" fill="#FFEB3B"/><circle cx="-5" cy="-40" r="3.5" fill="#FFEB3B"/><circle cx="15" cy="-45" r="3.5" fill="#29B6F6"/><circle cx="-10" cy="-60" r="3.5" fill="#29B6F6"/><circle cx="0" cy="-30" r="3.5" fill="#F44336"/><circle cx="20" cy="-15" r="3.5" fill="#FFEB3B"/><circle cx="-25" cy="-12" r="3.5" fill="#F44336"/><polygon points="0,-95 3,-85 12,-85 5,-80 8,-70 0,-76 -8,-70 -5,-80 -12,-85 -3,-85" fill="#FFC107"/></g><g transform="translate(998,617) scale(0.9603806062278047)"><rect x="-6" y="-10" width="12" height="20" fill="#795548" rx="2"/><path d="M -40 -10 L 40 -10 L 0 -50 Z" fill="#2E7D32"/><path d="M -30 -30 L 30 -30 L 0 -70 Z" fill="#43A047"/><path d="M -20 -50 L 20 -50 L 0 -90 Z" fill="#4CAF50"/><circle cx="-15" cy="-20" r="3.5" fill="#29B6F6"/><circle cx="10" cy="-25" r="3.5" fill="#29B6F6"/><circle cx="-5" cy="-40" r="3.5" fill="#F44336"/><circle cx="15" cy="-45" r="3.5" fill="#29B6F6"/><circle cx="-10" cy="-60" r="3.5" fill="#29B6F6"/><circle cx="0" cy="-30" r="3.5" fill="#29B6F6"/><circle cx="20" cy="-15" r="3.5" fill="#F44336"/><circle cx="-25" cy="-12" r="3.5" fill="#F44336"/><polygon points="0,-95 3,-85 12,-85 5,-80 8,-70 0,-76 -8,-70 -5,-80 -12,-85 -3,-85" fill="#FFC107"/></g><g transform="translate(390,590) scale(1.144863828922169)"><rect x="-6" y="-10" width="12" height="20" fill="#795548" rx="2"/><path d="M -40 -10 L 40 -10 L 0 -50 Z" fill="#2E7D32"/><path d="M -30 -30 L 30 -30 L 0 -70 Z" fill="#43A047"/><path d="M -20 -50 L 20 -50 L 0 -90 Z" fill="#4CAF50"/><circle cx="-15" cy="-20" r="3.5" fill="#F44336"/><circle cx="10" cy="-25" r="3.5" fill="#AB47BC"/><circle cx="-5" cy="-40" r="3.5" fill="#FF9800"/><circle cx="15" cy="-45" r="3.5" fill="#AB47BC"/><circle cx="-10" cy="-60" r="3.5" fill="#FF9800"/><circle cx="0" cy="-30" r="3.5" fill="#FFEB3B"/><circle cx="20" cy="-15" r="3.5" fill="#29B6F6"/><circle cx="-25" cy="-12" r="3.5" fill="#F44336"/><polygon points="0,-95 3,-85 12,-85 5,-80 8,-70 0,-76 -8,-70 -5,-80 -12,-85 -3,-85" fill="#FFC107"/></g><g transform="translate(860,629) scale(0.9411219090225358)"><rect x="-6" y="-10" width="12" height="20" fill="#795548" rx="2"/><path d="M -40 -10 L 40 -10 L 0 -50 Z" fill="#2E7D32"/><path d="M -30 -30 L 30 -30 L 0 -70 Z" fill="#43A047"/><path d="M -20 -50 L 20 -50 L 0 -90 Z" fill="#4CAF50"/><circle cx="-15" cy="-20" r="3.5" fill="#F44336"/><circle cx="10" cy="-25" r="3.5" fill="#F44336"/><circle cx="-5" cy="-40" r="3.5" fill="#AB47BC"/><circle cx="15" cy="-45" r="3.5" fill="#FF9800"/><circle cx="-10" cy="-60" r="3.5" fill="#FF9800"/><circle cx="0" cy="-30" r="3.5" fill="#FFEB3B"/><circle cx="20" cy="-15" r="3.5" fill="#F44336"/><circle cx="-25" cy="-12" r="3.5" fill="#AB47BC"/><polygon points="0,-95 3,-85 12,-85 5,-80 8,-70 0,-76 -8,-70 -5,-80 -12,-85 -3,-85" fill="#FFC107"/></g><path d="M 0 700 Q 600 550 1200 750 T 1600 650 L 1600 900 L 0 900 Z" fill="url(#hill111)"/><g transform="translate(386,747) scale(2.326513087677567)"><rect x="-40" y="-40" width="80" height="40" fill="#795548"/><rect x="-10" y="-20" width="20" height="20" fill="#FF9800" rx="2"/><circle cx="6" cy="-10" r="2" fill="#FFE082"/><rect x="-30" y="-25" width="12" height="12" fill="#FFF59D" rx="1"/><rect x="18" y="-25" width="12" height="12" fill="#FFF59D" rx="1"/><circle cx="0" cy="-10" r="4" fill="none" stroke="#4CAF50" stroke-width="2"/><circle cx="0" cy="-14" r="1" fill="#F44336"/><path d="M -50 -40 L 0 -80 L 50 -40 Z" fill="#D32F2F"/><path d="M -50 -40 L 0 -80 L 50 -40" fill="none" stroke="#FFFFFF" stroke-width="8" stroke-linecap="round" stroke-linejoin="round"/></g><g transform="translate(1227,735) scale(2.3797471984329306)"><rect x="-40" y="-40" width="80" height="40" fill="#795548"/><rect x="-10" y="-20" width="20" height="20" fill="#FF9800" rx="2"/><circle cx="6" cy="-10" r="2" fill="#FFE082"/><rect x="-30" y="-25" width="12" height="12" fill="#FFF59D" rx="1"/><rect x="18" y="-25" width="12" height="12" fill="#FFF59D" rx="1"/><circle cx="0" cy="-10" r="4" fill="none" stroke="#4CAF50" stroke-width="2"/><circle cx="0" cy="-14" r="1" fill="#F44336"/><path d="M -50 -40 L 0 -80 L 50 -40 Z" fill="#D32F2F"/><path d="M -50 -40 L 0 -80 L 50 -40" fill="none" stroke="#FFFFFF" stroke-width="8" stroke-linecap="round" stroke-linejoin="round"/></g><g transform="translate(401,682) scale(1.9739555713603307)"><rect x="-40" y="-40" width="80" height="40" fill="#795548"/><rect x="-10" y="-20" width="20" height="20" fill="#FF9800" rx="2"/><circle cx="6" cy="-10" r="2" fill="#FFE082"/><rect x="-30" y="-25" width="12" height="12" fill="#FFF59D" rx="1"/><rect x="18" y="-25" width="12" height="12" fill="#FFF59D" rx="1"/><circle cx="0" cy="-10" r="4" fill="none" stroke="#4CAF50" stroke-width="2"/><circle cx="0" cy="-14" r="1" fill="#F44336"/><path d="M -50 -40 L 0 -80 L 50 -40 Z" fill="#D32F2F"/><path d="M -50 -40 L 0 -80 L 50 -40" fill="none" stroke="#FFFFFF" stroke-width="8" stroke-linecap="round" stroke-linejoin="round"/></g><g transform="translate(949,690) scale(1.9602919433755672)"><rect x="-40" y="-40" width="80" height="40" fill="#795548"/><rect x="-10" y="-20" width="20" height="20" fill="#FF9800" rx="2"/><circle cx="6" cy="-10" r="2" fill="#FFE082"/><rect x="-30" y="-25" width="12" height="12" fill="#FFF59D" rx="1"/><rect x="18" y="-25" width="12" height="12" fill="#FFF59D" rx="1"/><circle cx="0" cy="-10" r="4" fill="none" stroke="#4CAF50" stroke-width="2"/><circle cx="0" cy="-14" r="1" fill="#F44336"/><path d="M -50 -40 L 0 -80 L 50 -40 Z" fill="#D32F2F"/><path d="M -50 -40 L 0 -80 L 50 -40" fill="none" stroke="#FFFFFF" stroke-width="8" stroke-linecap="round" stroke-linejoin="round"/></g><g transform="translate(637,792) scale(1.5157235695618776)"><rect x="-6" y="-10" width="12" height="20" fill="#795548" rx="2"/><path d="M -40 -10 L 40 -10 L 0 -50 Z" fill="#2E7D32"/><path d="M -30 -30 L 30 -30 L 0 -70 Z" fill="#43A047"/><path d="M -20 -50 L 20 -50 L 0 -90 Z" fill="#4CAF50"/><circle cx="-15" cy="-20" r="3.5" fill="#FFEB3B"/><circle cx="10" cy="-25" r="3.5" fill="#FF9800"/><circle cx="-5" cy="-40" r="3.5" fill="#29B6F6"/><circle cx="15" cy="-45" r="3.5" fill="#AB47BC"/><circle cx="-10" cy="-60" r="3.5" fill="#FF9800"/><circle cx="0" cy="-30" r="3.5" fill="#29B6F6"/><circle cx="20" cy="-15" r="3.5" fill="#AB47BC"/><circle cx="-25" cy="-12" r="3.5" fill="#FFEB3B"/><polygon points="0,-95 3,-85 12,-85 5,-80 8,-70 0,-76 -8,-70 -5,-80 -12,-85 -3,-85" fill="#FFC107"/></g><g transform="translate(963,739) scale(1.6639916584327419)"><rect x="-6" y="-10" width="12" height="20" fill="#795548" rx="2"/><path d="M -40 -10 L 40 -10 L 0 -50 Z" fill="#2E7D32"/><path d="M -30 -30 L 30 -30 L 0 -70 Z" fill="#43A047"/><path d="M -20 -50 L 20 -50 L 0 -90 Z" fill="#4CAF50"/><circle cx="-15" cy="-20" r="3.5" fill="#29B6F6"/><circle cx="10" cy="-25" r="3.5" fill="#F44336"/><circle cx="-5" cy="-40" r="3.5" fill="#FF9800"/><circle cx="15" cy="-45" r="3.5" fill="#29B6F6"/><circle cx="-10" cy="-60" r="3.5" fill="#AB47BC"/><circle cx="0" cy="-30" r="3.5" fill="#F44336"/><circle cx="20" cy="-15" r="3.5" fill="#FF9800"/><circle cx="-25" cy="-12" r="3.5" fill="#FF9800"/><polygon points="0,-95 3,-85 12,-85 5,-80 8,-70 0,-76 -8,-70 -5,-80 -12,-85 -3,-85" fill="#FFC107"/></g><g transform="translate(571,708) scale(1.4589097979770818)"><rect x="-6" y="-10" width="12" height="20" fill="#795548" rx="2"/><path d="M -40 -10 L 40 -10 L 0 -50 Z" fill="#2E7D32"/><path d="M -30 -30 L 30 -30 L 0 -70 Z" fill="#43A047"/><path d="M -20 -50 L 20 -50 L 0 -90 Z" fill="#4CAF50"/><circle cx="-15" cy="-20" r="3.5" fill="#FF9800"/><circle cx="10" cy="-25" r="3.5" fill="#FFEB3B"/><circle cx="-5" cy="-40" r="3.5" fill="#F44336"/><circle cx="15" cy="-45" r="3.5" fill="#29B6F6"/><circle cx="-10" cy="-60" r="3.5" fill="#F44336"/><circle cx="0" cy="-30" r="3.5" fill="#FF9800"/><circle cx="20" cy="-15" r="3.5" fill="#FF9800"/><circle cx="-25" cy="-12" r="3.5" fill="#F44336"/><polygon points="0,-95 3,-85 12,-85 5,-80 8,-70 0,-76 -8,-70 -5,-80 -12,-85 -3,-85" fill="#FFC107"/></g><g transform="translate(1035,720) scale(1.3911366005922674)"><rect x="-6" y="-10" width="12" height="20" fill="#795548" rx="2"/><path d="M -40 -10 L 40 -10 L 0 -50 Z" fill="#2E7D32"/><path d="M -30 -30 L 30 -30 L 0 -70 Z" fill="#43A047"/><path d="M -20 -50 L 20 -50 L 0 -90 Z" fill="#4CAF50"/><circle cx="-15" cy="-20" r="3.5" fill="#AB47BC"/><circle cx="10" cy="-25" r="3.5" fill="#FF9800"/><circle cx="-5" cy="-40" r="3.5" fill="#FF9800"/><circle cx="15" cy="-45" r="3.5" fill="#29B6F6"/><circle cx="-10" cy="-60" r="3.5" fill="#FFEB3B"/><circle cx="0" cy="-30" r="3.5" fill="#FFEB3B"/><circle cx="20" cy="-15" r="3.5" fill="#FF9800"/><circle cx="-25" cy="-12" r="3.5" fill="#29B6F6"/><polygon points="0,-95 3,-85 12,-85 5,-80 8,-70 0,-76 -8,-70 -5,-80 -12,-85 -3,-85" fill="#FFC107"/></g><g transform="translate(146,777) scale(1.6814607867242088)"><rect x="-6" y="-10" width="12" height="20" fill="#795548" rx="2"/><path d="M -40 -10 L 40 -10 L 0 -50 Z" fill="#2E7D32"/><path d="M -30 -30 L 30 -30 L 0 -70 Z" fill="#43A047"/><path d="M -20 -50 L 20 -50 L 0 -90 Z" fill="#4CAF50"/><circle cx="-15" cy="-20" r="3.5" fill="#F44336"/><circle cx="10" cy="-25" r="3.5" fill="#F44336"/><circle cx="-5" cy="-40" r="3.5" fill="#29B6F6"/><circle cx="15" cy="-45" r="3.5" fill="#29B6F6"/><circle cx="-10" cy="-60" r="3.5" fill="#AB47BC"/><circle cx="0" cy="-30" r="3.5" fill="#29B6F6"/><circle cx="20" cy="-15" r="3.5" fill="#FFEB3B"/><circle cx="-25" cy="-12" r="3.5" fill="#AB47BC"/><polygon points="0,-95 3,-85 12,-85 5,-80 8,-70 0,-76 -8,-70 -5,-80 -12,-85 -3,-85" fill="#FFC107"/></g><circle cx="201" cy="634" r="5.588452993110514" fill="#FFFFFF" opacity="0.5987487516077721"/><circle cx="28" cy="382" r="4.748866513121406" fill="#FFFFFF" opacity="0.6414034651925807"/><circle cx="1121" cy="597" r="5.264463069963058" fill="#FFFFFF" opacity="0.6073468108717212"/><circle cx="684" cy="48" r="3.279280948837862" fill="#FFFFFF" opacity="0.8198088463107889"/><circle cx="760" cy="218" r="2.6947718730191443" fill="#FFFFFF" opacity="0.8671704646244662"/><circle cx="1155" cy="33" r="5.742572481547648" fill="#FFFFFF" opacity="0.7252456180840978"/><circle cx="57" cy="482" r="4.870895238018955" fill="#FFFFFF" opacity="0.8572351746946033"/><circle cx="441" cy="177" r="2.7563884892694475" fill="#FFFFFF" opacity="0.7160435382203807"/><circle cx="825" cy="109" r="2.0034227555614046" fill="#FFFFFF" opacity="0.65585233300174"/><circle cx="461" cy="681" r="5.449702446356471" fill="#FFFFFF" opacity="0.8745326816188674"/><circle cx="1245" cy="134" r="3.561974199290365" fill="#FFFFFF" opacity="0.7083710656538532"/><circle cx="1134" cy="891" r="2.5201841191163625" fill="#FFFFFF" opacity="0.6358952569759185"/><circle cx="510" cy="9" r="4.199872570125185" fill="#FFFFFF" opacity="0.5415595974483032"/><circle cx="210" cy="97" r="2.999459603067787" fill="#FFFFFF" opacity="0.8281901365911168"/><circle cx="596" cy="27" r="4.727261715336489" fill="#FFFFFF" opacity="0.5606751465222464"/><circle cx="177" cy="308" r="2.2225129414447062" fill="#FFFFFF" opacity="0.7438019536243035"/><circle cx="322" cy="659" r="2.8338482105327705" fill="#FFFFFF" opacity="0.5859239556005346"/><circle cx="516" cy="451" r="4.821891526487125" fill="#FFFFFF" opacity="0.6457565564768621"/><circle cx="664" cy="425" r="3.459225588638716" fill="#FFFFFF" opacity="0.5913515042801349"/><circle cx="1299" cy="538" r="3.0179694699906388" fill="#FFFFFF" opacity="0.6556044250461874"/><circle cx="1217" cy="169" r="3.201962578286502" fill="#FFFFFF" opacity="0.8319942343253881"/><circle cx="111" cy="861" r="3.945473829928394" fill="#FFFFFF" opacity="0.8950970339405768"/><circle cx="1189" cy="585" r="2.4969778963102454" fill="#FFFFFF" opacity="0.8629683476330527"/><circle cx="1200" cy="510" r="3.982605149755027" fill="#FFFFFF" opacity="0.5620276912132747"/><circle cx="787" cy="699" r="5.0034256454702035" fill="#FFFFFF" opacity="0.7677156705430133"/><circle cx="237" cy="562" r="4.670514170935343" fill="#FFFFFF" opacity="0.8345121823336411"/><circle cx="1325" cy="746" r="3.5029695970783323" fill="#FFFFFF" opacity="0.6768792087164943"/><circle cx="1268" cy="193" r="4.162015869003792" fill="#FFFFFF" opacity="0.6674042760590042"/><circle cx="1025" cy="709" r="3.2673154477850126" fill="#FFFFFF" opacity="0.6695577245836533"/><circle cx="1176" cy="149" r="2.5932377713525323" fill="#FFFFFF" opacity="0.7665689819066147"/><circle cx="1029" cy="135" r="3.39404744241004" fill="#FFFFFF" opacity="0.829254350261845"/><circle cx="307" cy="405" r="5.916793060612131" fill="#FFFFFF" opacity="0.8443829315229485"/><circle cx="1260" cy="515" r="3.3132005886171068" fill="#FFFFFF" opacity="0.7161507926584583"/><circle cx="853" cy="141" r="5.197117388939182" fill="#FFFFFF" opacity="0.5632664880681957"/><circle cx="956" cy="429" r="2.881985740789941" fill="#FFFFFF" opacity="0.7913822163582493"/><circle cx="667" cy="18" r="4.49690050593482" fill="#FFFFFF" opacity="0.5572479463323975"/><circle cx="1033" cy="769" r="3.7819709610511487" fill="#FFFFFF" opacity="0.833954130239382"/><circle cx="895" cy="12" r="2.1698355526240753" fill="#FFFFFF" opacity="0.7525741343094645"/><circle cx="1155" cy="837" r="5.213301468916148" fill="#FFFFFF" opacity="0.6185302655328693"/><circle cx="68" cy="814" r="2.432665735771489" fill="#FFFFFF" opacity="0.5847454657676575"/><circle cx="544" cy="522" r="4.742206114904695" fill="#FFFFFF" opacity="0.5256788227300415"/><circle cx="817" cy="362" r="2.9611191025159664" fill="#FFFFFF" opacity="0.6559528957422395"/><circle cx="1131" cy="1" r="5.446744137392965" fill="#FFFFFF" opacity="0.6116768986147315"/><circle cx="1116" cy="180" r="3.291456231635125" fill="#FFFFFF" opacity="0.5750973431134977"/><circle cx="319" cy="638" r="5.486443623509123" fill="#FFFFFF" opacity="0.5475021722459681"/><circle cx="449" cy="625" r="3.837233950899292" fill="#FFFFFF" opacity="0.5116620691265285"/><circle cx="814" cy="419" r="5.241376179445217" fill="#FFFFFF" opacity="0.6375137668121675"/><circle cx="1596" cy="726" r="3.881356475001824" fill="#FFFFFF" opacity="0.8544406580956299"/><circle cx="1177" cy="648" r="2.4466021491054297" fill="#FFFFFF" opacity="0.8595286122128305"/><circle cx="1078" cy="634" r="2.3122984029853266" fill="#FFFFFF" opacity="0.6376510825867893"/><circle cx="1051" cy="462" r="4.5341629739903215" fill="#FFFFFF" opacity="0.5602108295820273"/><circle cx="1544" cy="765" r="3.7214451042785224" fill="#FFFFFF" opacity="0.8202799613975347"/><circle cx="186" cy="651" r="4.677832263361822" fill="#FFFFFF" opacity="0.5477676896201992"/><circle cx="9" cy="444" r="5.857130823970627" fill="#FFFFFF" opacity="0.5362003637120207"/><circle cx="1470" cy="858" r="2.1534153574270136" fill="#FFFFFF" opacity="0.569889943965632"/><circle cx="1175" cy="65" r="3.8651279889326795" fill="#FFFFFF" opacity="0.6548952202313251"/><circle cx="362" cy="23" r="5.593583257984183" fill="#FFFFFF" opacity="0.7114396149726498"/><circle cx="456" cy="815" r="5.919429605710624" fill="#FFFFFF" opacity="0.6624935788253052"/><circle cx="667" cy="27" r="4.582076123621403" fill="#FFFFFF" opacity="0.5981596834615464"/><circle cx="789" cy="87" r="5.056619749007963" fill="#FFFFFF" opacity="0.8844472641905391"/><circle cx="1015" cy="812" r="4.552790418860104" fill="#FFFFFF" opacity="0.5576650704983738"/><circle cx="1487" cy="43" r="3.784411383645897" fill="#FFFFFF" opacity="0.7408313366965043"/><circle cx="801" cy="787" r="4.391865980500017" fill="#FFFFFF" opacity="0.5073171539377483"/><circle cx="15" cy="397" r="4.459853897321338" fill="#FFFFFF" opacity="0.5463662935640974"/><circle cx="799" cy="158" r="5.185777224434378" fill="#FFFFFF" opacity="0.8612023765878352"/><circle cx="607" cy="87" r="5.837988022398523" fill="#FFFFFF" opacity="0.6907277365018062"/><circle cx="1422" cy="880" r="2.7467912817732496" fill="#FFFFFF" opacity="0.742321169428637"/><circle cx="1200" cy="261" r="3.5518139504312773" fill="#FFFFFF" opacity="0.6678806968049932"/><circle cx="766" cy="856" r="4.561615229659252" fill="#FFFFFF" opacity="0.8695077304137948"/><circle cx="409" cy="507" r="2.3938232452525168" fill="#FFFFFF" opacity="0.5527726444388629"/><circle cx="1579" cy="332" r="5.356579382201607" fill="#FFFFFF" opacity="0.5170355475352906"/><circle cx="1174" cy="510" r="5.908090711394223" fill="#FFFFFF" opacity="0.7676221598362034"/><circle cx="528" cy="335" r="5.979034745426487" fill="#FFFFFF" opacity="0.5774740288066812"/><circle cx="1394" cy="106" r="2.0804259371571034" fill="#FFFFFF" opacity="0.8282494323841069"/><circle cx="768" cy="124" r="3.6619431292045777" fill="#FFFFFF" opacity="0.7781806671710223"/><circle cx="301" cy="558" r="5.841348208437316" fill="#FFFFFF" opacity="0.8109085245439214"/><circle cx="454" cy="577" r="3.8567181595870785" fill="#FFFFFF" opacity="0.5216415364877107"/><circle cx="1230" cy="338" r="4.510353771176675" fill="#FFFFFF" opacity="0.614030123861272"/><circle cx="1367" cy="290" r="4.724905946666624" fill="#FFFFFF" opacity="0.7304360723557157"/><circle cx="284" cy="828" r="3.6902091448978553" fill="#FFFFFF" opacity="0.8689635520599568"/><circle cx="1393" cy="192" r="2.242010082283173" fill="#FFFFFF" opacity="0.7045813795309503"/><circle cx="967" cy="411" r="4.332505288709918" fill="#FFFFFF" opacity="0.7419947180377154"/><circle cx="1045" cy="87" r="3.556273714537635" fill="#FFFFFF" opacity="0.5116141173628785"/><circle cx="371" cy="265" r="4.904360248982231" fill="#FFFFFF" opacity="0.8184976048107814"/><circle cx="845" cy="418" r="2.2785965370435637" fill="#FFFFFF" opacity="0.7265732538440743"/><circle cx="120" cy="28" r="2.127261515893653" fill="#FFFFFF" opacity="0.655131611834192"/><circle cx="1574" cy="877" r="4.174209974356998" fill="#FFFFFF" opacity="0.7929113845132321"/><circle cx="369" cy="407" r="3.7158740209003067" fill="#FFFFFF" opacity="0.8734596840675569"/><circle cx="722" cy="216" r="2.187020537341913" fill="#FFFFFF" opacity="0.8195196586534295"/><circle cx="224" cy="198" r="2.8014710690593096" fill="#FFFFFF" opacity="0.6190891916756166"/><circle cx="809" cy="6" r="2.348927511019332" fill="#FFFFFF" opacity="0.5339424191117514"/><circle cx="1402" cy="175" r="5.524096879463263" fill="#FFFFFF" opacity="0.8295568794644037"/><circle cx="1401" cy="750" r="4.214875873949598" fill="#FFFFFF" opacity="0.5600865906597685"/><circle cx="661" cy="181" r="5.213666143308319" fill="#FFFFFF" opacity="0.7446756506507656"/><circle cx="296" cy="393" r="5.114035363409856" fill="#FFFFFF" opacity="0.8664943571867516"/><circle cx="174" cy="735" r="2.3384962070565702" fill="#FFFFFF" opacity="0.5572925155018633"/><circle cx="219" cy="891" r="4.063266254790868" fill="#FFFFFF" opacity="0.7409665168451718"/><circle cx="897" cy="174" r="4.223733820351528" fill="#FFFFFF" opacity="0.5988258495673549"/><circle cx="1211" cy="470" r="2.5461689794053655" fill="#FFFFFF" opacity="0.706506785021078"/><circle cx="1327" cy="539" r="4.079033763091479" fill="#FFFFFF" opacity="0.5107190340571183"/><circle cx="1471" cy="429" r="2.0647804179277163" fill="#FFFFFF" opacity="0.6886929557696094"/><circle cx="1230" cy="425" r="3.772227972042242" fill="#FFFFFF" opacity="0.7346133956126656"/><circle cx="309" cy="773" r="2.835739431811219" fill="#FFFFFF" opacity="0.8266104009283788"/><circle cx="363" cy="220" r="4.2271263678482445" fill="#FFFFFF" opacity="0.819560002798746"/><circle cx="509" cy="105" r="4.045668830388616" fill="#FFFFFF" opacity="0.5065106461908606"/><circle cx="722" cy="290" r="4.876277519720777" fill="#FFFFFF" opacity="0.6365174546391962"/><circle cx="62" cy="140" r="2.3916667126400513" fill="#FFFFFF" opacity="0.5630400066413542"/><circle cx="1104" cy="634" r="3.017317831240027" fill="#FFFFFF" opacity="0.6940307905137306"/><circle cx="525" cy="792" r="5.518031811046603" fill="#FFFFFF" opacity="0.8598016788521898"/><circle cx="698" cy="692" r="4.755266789353726" fill="#FFFFFF" opacity="0.8623269512010625"/><circle cx="154" cy="552" r="5.619111494092192" fill="#FFFFFF" opacity="0.5734341820064455"/><circle cx="1456" cy="453" r="5.842473562735109" fill="#FFFFFF" opacity="0.8388430876244702"/><circle cx="319" cy="351" r="2.1252202001578735" fill="#FFFFFF" opacity="0.640559615348655"/><circle cx="520" cy="770" r="4.254045713607745" fill="#FFFFFF" opacity="0.5713542233363924"/><circle cx="310" cy="204" r="5.5755093491036245" fill="#FFFFFF" opacity="0.5554788918907652"/><circle cx="764" cy="872" r="5.828241048079603" fill="#FFFFFF" opacity="0.6466341641159769"/><circle cx="972" cy="39" r="2.124578872804768" fill="#FFFFFF" opacity="0.6190934909175427"/><circle cx="981" cy="677" r="2.1127125038017147" fill="#FFFFFF" opacity="0.7049433411152268"/><circle cx="568" cy="767" r="4.503239654887318" fill="#FFFFFF" opacity="0.5393287662820375"/><circle cx="268" cy="155" r="3.7810178418760434" fill="#FFFFFF" opacity="0.8190269172405957"/><circle cx="947" cy="768" r="3.2405633946994543" fill="#FFFFFF" opacity="0.7393144012803051"/><circle cx="1040" cy="843" r="4.013076967508103" fill="#FFFFFF" opacity="0.6617336765153017"/><circle cx="1300" cy="131" r="5.863048362377841" fill="#FFFFFF" opacity="0.705308756046342"/><circle cx="526" cy="570" r="5.151698668977104" fill="#FFFFFF" opacity="0.6042260933654796"/><circle cx="976" cy="405" r="5.370364896533211" fill="#FFFFFF" opacity="0.6115717909000606"/><circle cx="292" cy="9" r="5.0489973801146135" fill="#FFFFFF" opacity="0.589738170198829"/><circle cx="931" cy="330" r="2.387179596726461" fill="#FFFFFF" opacity="0.5739566016747217"/><circle cx="1211" cy="411" r="3.4351298289076317" fill="#FFFFFF" opacity="0.7736924286450935"/><circle cx="1552" cy="71" r="3.394295658044744" fill="#FFFFFF" opacity="0.802454815829516"/><circle cx="1255" cy="664" r="4.5425398934159205" fill="#FFFFFF" opacity="0.8690697768930267"/><circle cx="986" cy="799" r="3.006877269634238" fill="#FFFFFF" opacity="0.8373938044354168"/><circle cx="1257" cy="509" r="5.663442920115283" fill="#FFFFFF" opacity="0.8653826847358222"/><circle cx="409" cy="663" r="3.7687056221533064" fill="#FFFFFF" opacity="0.896513676317354"/><circle cx="1174" cy="712" r="5.933535654205288" fill="#FFFFFF" opacity="0.6158173970903392"/><circle cx="690" cy="867" r="2.615296002229394" fill="#FFFFFF" opacity="0.6353591320339581"/><circle cx="754" cy="483" r="5.996865308552232" fill="#FFFFFF" opacity="0.7415125864673978"/><circle cx="1490" cy="350" r="5.033926234553633" fill="#FFFFFF" opacity="0.7165755903695961"/><circle cx="413" cy="236" r="5.902951718032892" fill="#FFFFFF" opacity="0.6281074387143115"/><circle cx="24" cy="790" r="2.754528472058872" fill="#FFFFFF" opacity="0.7735866215695033"/><circle cx="1112" cy="239" r="4.616701200176797" fill="#FFFFFF" opacity="0.6039849596780829"/><circle cx="471" cy="367" r="4.494115954922607" fill="#FFFFFF" opacity="0.6356972376380412"/><circle cx="1363" cy="729" r="2.6472739110109687" fill="#FFFFFF" opacity="0.5744330337931338"/><circle cx="1375" cy="568" r="2.4669860214698796" fill="#FFFFFF" opacity="0.826963870807619"/><circle cx="1495" cy="421" r="4.797400283913252" fill="#FFFFFF" opacity="0.7606637243020784"/><circle cx="1290" cy="428" r="2.807211295170335" fill="#FFFFFF" opacity="0.8717908313936178"/><circle cx="207" cy="56" r="2.0006422862677153" fill="#FFFFFF" opacity="0.6884217351150801"/><circle cx="1104" cy="282" r="5.29179447686472" fill="#FFFFFF" opacity="0.8273556976119636"/><circle cx="651" cy="878" r="4.417617405142959" fill="#FFFFFF" opacity="0.8211083117979034"/><circle cx="1167" cy="498" r="2.1949797754098332" fill="#FFFFFF" opacity="0.6916082492871137"/><circle cx="1545" cy="422" r="5.492276176768879" fill="#FFFFFF" opacity="0.7018923946718856"/></svg>