<svg xmlns="http://www.w3.org/2000/svg" viewBox="0 0 1600 1000" preserveAspectRatio="xMidYMid slice">
  <defs>
    <linearGradient id="g" x1="0" y1="0" x2="1" y2="1">
      <stop offset="0" stop-color="#2b2418"/>
      <stop offset=".58" stop-color="#5a3725"/>
      <stop offset="1" stop-color="#2b2418"/>
    </linearGradient>
    <radialGradient id="warm" cx=".18" cy=".12" r=".62">
      <stop offset="0" stop-color="#ffcf73" stop-opacity=".32"/>
      <stop offset="1" stop-color="#ffcf73" stop-opacity="0"/>
    </radialGradient>
    <radialGradient id="cool" cx=".86" cy=".24" r=".58">
      <stop offset="0" stop-color="#8adf92" stop-opacity=".24"/>
      <stop offset="1" stop-color="#8adf92" stop-opacity="0"/>
    </radialGradient>
  </defs>
  <rect width="1600" height="1000" fill="url(#g)"/>
  <rect width="1600" height="1000" fill="url(#warm)"/>
  <rect width="1600" height="1000" fill="url(#cool)"/>
  <circle cx="1280" cy="820" r="360" fill="#ffffff" opacity=".06"/>
  <circle cx="130" cy="930" r="310" fill="#ffffff" opacity=".05"/>
  <circle cx="-76" cy="541" r="200" fill="#ef7460" opacity="0.13"/>
<circle cx="1628" cy="630" r="171" fill="#ef7460" opacity="0.16"/>
<circle cx="22" cy="308" r="153" fill="#8adf92" opacity="0.20"/>
<circle cx="12" cy="772" r="90" fill="#ef7460" opacity="0.16"/>
<circle cx="-71" cy="288" r="125" fill="#ffcf73" opacity="0.11"/>
<circle cx="168" cy="495" r="218" fill="#8adf92" opacity="0.13"/>
<circle cx="1584" cy="302" r="195" fill="#ef7460" opacity="0.10"/>
<circle cx="1106" cy="359" r="195" fill="#ffcf73" opacity="0.14"/>
<circle cx="1296" cy="737" r="202" fill="#ef7460" opacity="0.18"/>
<circle cx="-24" cy="874" r="126" fill="#ffcf73" opacity="0.14"/>
<circle cx="1029" cy="695" r="111" fill="#ef7460" opacity="0.12"/>
<circle cx="507" cy="553" r="139" fill="#ef7460" opacity="0.11"/>
<circle cx="533" cy="211" r="163" fill="#8adf92" opacity="0.16"/>
<circle cx="935" cy="675" r="193" fill="#8adf92" opacity="0.21"/>
<circle cx="1107" cy="510" r="212" fill="#8adf92" opacity="0.17"/>
<circle cx="1685" cy="257" r="206" fill="#8adf92" opacity="0.14"/>
    <pattern id="plaid" width="96" height="96" patternUnits="userSpaceOnUse">
      <rect width="96" height="96" fill="transparent"/>
      <path d="M0 24H96 M0 72H96 M24 0V96 M72 0V96" stroke="#ffcf73" stroke-width="2" opacity=".18"/>
      <path d="M0 48H96 M48 0V96" stroke="#8adf92" stroke-width="8" opacity=".06"/>
    </pattern>
    <rect width="1600" height="1000" fill="url(#plaid)" opacity=".9"/><path d="M-104 1019 L-34 715 L36 1019 Z" fill="#071f18" opacity="0.43"/>
<path d="M-84 939 L-34 675 L16 939 Z" fill="#071f18" opacity="0.48"/>
<path d="M116 988 L186 658 L256 988 Z" fill="#071f18" opacity="0.25"/>
<path d="M136 908 L186 618 L236 908 Z" fill="#071f18" opacity="0.30"/>
<path d="M265 1061 L335 674 L405 1061 Z" fill="#071f18" opacity="0.35"/>
<path d="M285 981 L335 634 L385 981 Z" fill="#071f18" opacity="0.40"/>
<path d="M452 1048 L522 819 L592 1048 Z" fill="#071f18" opacity="0.24"/>
<path d="M472 968 L522 779 L572 968 Z" fill="#071f18" opacity="0.29"/>
<path d="M651 1035 L721 667 L791 1035 Z" fill="#071f18" opacity="0.44"/>
<path d="M671 955 L721 627 L771 955 Z" fill="#071f18" opacity="0.49"/>
<path d="M870 1003 L940 727 L1010 1003 Z" fill="#071f18" opacity="0.29"/>
<path d="M890 923 L940 687 L990 923 Z" fill="#071f18" opacity="0.34"/>
<path d="M1019 1052 L1089 835 L1159 1052 Z" fill="#071f18" opacity="0.45"/>
<path d="M1039 972 L1089 795 L1139 972 Z" fill="#071f18" opacity="0.50"/>
<path d="M1260 1006 L1330 743 L1400 1006 Z" fill="#071f18" opacity="0.46"/>
<path d="M1280 926 L1330 703 L1380 926 Z" fill="#071f18" opacity="0.51"/>
<path d="M1427 1070 L1497 691 L1567 1070 Z" fill="#071f18" opacity="0.41"/>
<path d="M1447 990 L1497 651 L1547 990 Z" fill="#071f18" opacity="0.46"/>
<path d="M1594 973 L1664 602 L1734 973 Z" fill="#071f18" opacity="0.23"/>
<path d="M1614 893 L1664 562 L1714 893 Z" fill="#071f18" opacity="0.28"/><path d="M0 120 C280 30, 520 180, 800 90 S1300 40, 1600 120" fill="none" stroke="#fff" stroke-width="2" opacity=".22"/>
<ellipse cx="37" cy="110.0" rx="12" ry="18" fill="#ef7460" opacity=".82"/>
<circle cx="37" cy="110.0" r="38" fill="#ef7460" opacity=".10"/>
<ellipse cx="124" cy="136.1074631814833" rx="12" ry="18" fill="#ffcf73" opacity=".82"/>
<circle cx="124" cy="136.1074631814833" r="38" fill="#ffcf73" opacity=".10"/>
<ellipse cx="226" cy="141.98507610645268" rx="12" ry="18" fill="#8adf92" opacity=".82"/>
<circle cx="226" cy="141.98507610645268" r="38" fill="#8adf92" opacity=".10"/>
<ellipse cx="304" cy="136.64121131929028" rx="12" ry="18" fill="#ffcf73" opacity=".82"/>
<circle cx="304" cy="136.64121131929028" r="38" fill="#ffcf73" opacity=".10"/>
<ellipse cx="406" cy="112.9569049800347" rx="12" ry="18" fill="#ef7460" opacity=".82"/>
<circle cx="406" cy="112.9569049800347" r="38" fill="#ef7460" opacity=".10"/>
<ellipse cx="494" cy="87.5119126642225" rx="12" ry="18" fill="#8adf92" opacity=".82"/>
<circle cx="494" cy="87.5119126642225" r="38" fill="#8adf92" opacity=".10"/>
<ellipse cx="587" cy="69.13423869074558" rx="12" ry="18" fill="#8adf92" opacity=".82"/>
<circle cx="587" cy="69.13423869074558" r="38" fill="#8adf92" opacity=".10"/>
<ellipse cx="673" cy="84.90566767446877" rx="12" ry="18" fill="#ffcf73" opacity=".82"/>
<circle cx="673" cy="84.90566767446877" r="38" fill="#ffcf73" opacity=".10"/>
<ellipse cx="761" cy="118.07922216976728" rx="12" ry="18" fill="#ffcf73" opacity=".82"/>
<circle cx="761" cy="118.07922216976728" r="38" fill="#ffcf73" opacity=".10"/>
<ellipse cx="861" cy="139.77837523472036" rx="12" ry="18" fill="#ffcf73" opacity=".82"/>
<circle cx="861" cy="139.77837523472036" r="38" fill="#ffcf73" opacity=".10"/>
<ellipse cx="931" cy="144.62753863181837" rx="12" ry="18" fill="#ffcf73" opacity=".82"/>
<circle cx="931" cy="144.62753863181837" r="38" fill="#ffcf73" opacity=".10"/>
<ellipse cx="1026" cy="124.47210175121165" rx="12" ry="18" fill="#8adf92" opacity=".82"/>
<circle cx="1026" cy="124.47210175121165" r="38" fill="#8adf92" opacity=".10"/>
<ellipse cx="1111" cy="101.89856265719565" rx="12" ry="18" fill="#ef7460" opacity=".82"/>
<circle cx="1111" cy="101.89856265719565" r="38" fill="#ef7460" opacity=".10"/>
<ellipse cx="1200" cy="82.02607358200211" rx="12" ry="18" fill="#ef7460" opacity=".82"/>
<circle cx="1200" cy="82.02607358200211" r="38" fill="#ef7460" opacity=".10"/>
<ellipse cx="1307" cy="79.72877947970392" rx="12" ry="18" fill="#8adf92" opacity=".82"/>
<circle cx="1307" cy="79.72877947970392" r="38" fill="#8adf92" opacity=".10"/>
<ellipse cx="1385" cy="97.21994786998478" rx="12" ry="18" fill="#ffcf73" opacity=".82"/>
<circle cx="1385" cy="97.21994786998478" r="38" fill="#ffcf73" opacity=".10"/>
<ellipse cx="1490" cy="112.10284387855387" rx="12" ry="18" fill="#ffcf73" opacity=".82"/>
<circle cx="1490" cy="112.10284387855387" r="38" fill="#ffcf73" opacity=".10"/>
<ellipse cx="1561" cy="140.0706635199774" rx="12" ry="18" fill="#ffcf73" opacity=".82"/>
<circle cx="1561" cy="140.0706635199774" r="38" fill="#ffcf73" opacity=".10"/><circle cx="632" cy="294" r="0.7" fill="#fff" opacity="0.39"/>
<circle cx="618" cy="760" r="1.6" fill="#fff" opacity="0.58"/>
<circle cx="1117" cy="318" r="1.5" fill="#fff" opacity="0.36"/>
<circle cx="447" cy="639" r="1.5" fill="#fff" opacity="0.49"/>
<circle cx="15" cy="127" r="0.7" fill="#fff" opacity="0.48"/>
<circle cx="1166" cy="19" r="1.3" fill="#fff" opacity="0.60"/>
<circle cx="1294" cy="323" r="1.6" fill="#fff" opacity="0.33"/>
<circle cx="1535" cy="58" r="1.1" fill="#fff" opacity="0.22"/>
<circle cx="813" cy="644" r="1.3" fill="#fff" opacity="0.57"/>
<circle cx="1296" cy="553" r="1.8" fill="#fff" opacity="0.38"/>
<circle cx="852" cy="749" r="1.6" fill="#fff" opacity="0.36"/>
<circle cx="485" cy="742" r="1.0" fill="#fff" opacity="0.46"/>
<circle cx="1295" cy="319" r="1.3" fill="#fff" opacity="0.62"/>
<circle cx="194" cy="539" r="1.5" fill="#fff" opacity="0.24"/>
<circle cx="489" cy="873" r="1.8" fill="#fff" opacity="0.44"/>
<circle cx="130" cy="230" r="1.4" fill="#fff" opacity="0.58"/>
<circle cx="607" cy="704" r="1.2" fill="#fff" opacity="0.54"/>
<circle cx="33" cy="641" r="0.9" fill="#fff" opacity="0.22"/>
<circle cx="1551" cy="404" r="0.8" fill="#fff" opacity="0.48"/>
<circle cx="44" cy="368" r="1.4" fill="#fff" opacity="0.47"/>
<circle cx="1199" cy="272" r="1.4" fill="#fff" opacity="0.53"/>
<circle cx="356" cy="594" r="1.7" fill="#fff" opacity="0.21"/>
<circle cx="1191" cy="0" r="2.4" fill="#fff" opacity="0.26"/>
<circle cx="328" cy="841" r="1.3" fill="#fff" opacity="0.49"/>
<circle cx="448" cy="843" r="1.8" fill="#fff" opacity="0.49"/>
<circle cx="479" cy="393" r="1.4" fill="#fff" opacity="0.35"/>
<circle cx="501" cy="235" r="1.8" fill="#fff" opacity="0.53"/>
<circle cx="642" cy="667" r="2.3" fill="#fff" opacity="0.34"/>
<circle cx="1203" cy="617" r="2.0" fill="#fff" opacity="0.50"/>
<circle cx="1036" cy="397" r="1.7" fill="#fff" opacity="0.33"/>
<circle cx="301" cy="261" r="1.1" fill="#fff" opacity="0.59"/>
<circle cx="725" cy="54" r="1.7" fill="#fff" opacity="0.52"/>
<circle cx="1150" cy="217" r="0.9" fill="#fff" opacity="0.19"/>
<circle cx="24" cy="301" r="0.8" fill="#fff" opacity="0.49"/>
<circle cx="29" cy="360" r="1.2" fill="#fff" opacity="0.33"/>
<circle cx="781" cy="188" r="1.0" fill="#fff" opacity="0.47"/>
<circle cx="1418" cy="441" r="1.0" fill="#fff" opacity="0.32"/>
<circle cx="1199" cy="119" r="2.1" fill="#fff" opacity="0.41"/>
<circle cx="16" cy="27" r="1.6" fill="#fff" opacity="0.38"/>
<circle cx="559" cy="664" r="1.9" fill="#fff" opacity="0.54"/>
<circle cx="445" cy="938" r="1.3" fill="#fff" opacity="0.24"/>
<circle cx="965" cy="868" r="0.8" fill="#fff" opacity="0.50"/>
<circle cx="173" cy="974" r="2.2" fill="#fff" opacity="0.35"/>
<circle cx="1554" cy="946" r="1.3" fill="#fff" opacity="0.42"/>
<circle cx="830" cy="861" r="0.9" fill="#fff" opacity="0.48"/>
<circle cx="689" cy="711" r="0.8" fill="#fff" opacity="0.22"/>
<circle cx="22" cy="975" r="2.0" fill="#fff" opacity="0.57"/>
<circle cx="1376" cy="76" r="2.0" fill="#fff" opacity="0.24"/>
<circle cx="1319" cy="935" r="1.9" fill="#fff" opacity="0.47"/>
<circle cx="932" cy="949" r="1.5" fill="#fff" opacity="0.41"/>
<circle cx="1353" cy="591" r="2.0" fill="#fff" opacity="0.31"/>
<circle cx="407" cy="757" r="1.1" fill="#fff" opacity="0.54"/>
<circle cx="815" cy="175" r="1.6" fill="#fff" opacity="0.28"/>
<circle cx="22" cy="206" r="1.9" fill="#fff" opacity="0.47"/>
<circle cx="825" cy="990" r="1.3" fill="#fff" opacity="0.41"/>
<circle cx="1220" cy="652" r="1.8" fill="#fff" opacity="0.21"/>
<circle cx="863" cy="978" r="1.6" fill="#fff" opacity="0.39"/>
<circle cx="750" cy="768" r="1.3" fill="#fff" opacity="0.57"/>
<circle cx="1495" cy="712" r="1.8" fill="#fff" opacity="0.51"/>
<circle cx="130" cy="59" r="2.0" fill="#fff" opacity="0.57"/>
<circle cx="431" cy="577" r="0.9" fill="#fff" opacity="0.30"/>
<circle cx="537" cy="47" r="0.9" fill="#fff" opacity="0.53"/>
<circle cx="1557" cy="377" r="0.9" fill="#fff" opacity="0.58"/>
<circle cx="1342" cy="453" r="2.2" fill="#fff" opacity="0.31"/>
<circle cx="699" cy="926" r="1.6" fill="#fff" opacity="0.36"/>
<circle cx="516" cy="692" r="0.7" fill="#fff" opacity="0.27"/>
<circle cx="822" cy="81" r="1.4" fill="#fff" opacity="0.62"/>
<circle cx="1241" cy="923" r="1.1" fill="#fff" opacity="0.41"/>
<circle cx="274" cy="483" r="1.3" fill="#fff" opacity="0.47"/>
<circle cx="488" cy="501" r="2.2" fill="#fff" opacity="0.38"/>
  <rect width="1600" height="1000" fill="#000" opacity=".08"/>
</svg>