<svg xmlns="http://www.w3.org/2000/svg" viewBox="0 0 1200 800" width="1200" height="800">
  <defs>
    <radialGradient id="g" cx="50%" cy="42%" r="75%">
      <stop offset="0" stop-color="#12362d"/>
      <stop offset="1" stop-color="#081c1a"/>
    </radialGradient>
    <pattern id="snow" width="120" height="120" patternUnits="userSpaceOnUse">
      <circle cx="20" cy="28" r="2.4" fill="#fff" opacity=".55"/>
      <circle cx="90" cy="70" r="1.8" fill="#fff" opacity=".45"/>
      <circle cx="64" cy="18" r="1.3" fill="#fff" opacity=".35"/>
      <circle cx="42" cy="100" r="1.7" fill="#fff" opacity=".4"/>
    </pattern>
    <linearGradient id="shine" x1="0" x2="1" y1="0" y2="1">
      <stop offset="0" stop-color="#ffffff" stop-opacity=".16"/>
      <stop offset="1" stop-color="#ffffff" stop-opacity="0"/>
    </linearGradient>
  </defs>
  <rect width="1200" height="800" fill="url(#g)"/>
  <rect width="1200" height="800" fill="url(#snow)"/>
  <circle cx="-60" cy="820" r="360" fill="#fff" opacity=".08"/>
  <circle cx="1260" cy="-70" r="390" fill="#ffdf6e" opacity=".10"/>
  
<g transform="translate(700 390)">
 <path d="M0 -185 L-125 60 h250z" fill="#2fd477"/><path d="M0 -105 L-160 140 h320z" fill="#25b765"/><rect x="-28" y="140" width="56" height="90" fill="#7d4b2b"/>
 <path d="M0 -245 l20 43 l47 7 l-34 33 l8 47 l-41 -22 l-41 22 l8 -47 l-34 -33 l47 -7z" fill="#ffe178"/>
 <circle cx="-50" cy="20" r="11" fill="#ff5b69"/><circle cx="55" cy="68" r="11" fill="#ffdc67"/><circle cx="0" cy="108" r="11" fill="#a9f28a"/>
</g>
  <rect width="1200" height="800" fill="url(#shine)"/>
</svg>