<svg xmlns="http://www.w3.org/2000/svg" viewBox="0 0 1200 800" width="1200" height="800">
  <defs>
    <radialGradient id="g" cx="50%" cy="42%" r="75%">
      <stop offset="0" stop-color="#293b56"/>
      <stop offset="1" stop-color="#192b47"/>
    </radialGradient>
    <pattern id="snow" width="120" height="120" patternUnits="userSpaceOnUse">
      <circle cx="20" cy="28" r="2.4" fill="#fff" opacity=".55"/>
      <circle cx="90" cy="70" r="1.8" fill="#fff" opacity=".45"/>
      <circle cx="64" cy="18" r="1.3" fill="#fff" opacity=".35"/>
      <circle cx="42" cy="100" r="1.7" fill="#fff" opacity=".4"/>
    </pattern>
    <linearGradient id="shine" x1="0" x2="1" y1="0" y2="1">
      <stop offset="0" stop-color="#ffffff" stop-opacity=".16"/>
      <stop offset="1" stop-color="#ffffff" stop-opacity="0"/>
    </linearGradient>
  </defs>
  <rect width="1200" height="800" fill="url(#g)"/>
  <rect width="1200" height="800" fill="url(#snow)"/>
  <circle cx="-60" cy="820" r="360" fill="#fff" opacity=".08"/>
  <circle cx="1260" cy="-70" r="390" fill="#fff3a8" opacity=".10"/>
  
<g transform="translate(760 270)">
 <path d="M-220 80 C-120 20 -60 20 20 80 C100 140 195 140 270 80" fill="none" stroke="#ffd86b" stroke-width="8"/>
 <path d="M-130 45 h150 l-20 70 h-150z" fill="#d9444b"/><circle cx="42" cy="45" r="24" fill="#ffd5b4"/><path d="M22 20 q28 -38 62 0" fill="none" stroke="#fff4cb" stroke-width="14" stroke-linecap="round"/>
</g>
<g transform="translate(220 520)"><path d="M0 65 L110 0 L220 65 v130h-220zM260 80 L390 0 L520 80 v115h-260zM580 70 L700 0 L820 70v125h-240z" fill="#5d3f3d"/></g>
  <rect width="1200" height="800" fill="url(#shine)"/>
</svg>