<svg xmlns="http://www.w3.org/2000/svg" viewBox="0 0 1600 1000" preserveAspectRatio="xMidYMid slice">
  <defs>
    <linearGradient id="g" x1="0" y1="0" x2="1" y2="1">
      <stop offset="0" stop-color="#1b243a"/>
      <stop offset=".58" stop-color="#122f4a"/>
      <stop offset="1" stop-color="#1b243a"/>
    </linearGradient>
    <radialGradient id="warm" cx=".18" cy=".12" r=".62">
      <stop offset="0" stop-color="#dcefff" stop-opacity=".32"/>
      <stop offset="1" stop-color="#dcefff" stop-opacity="0"/>
    </radialGradient>
    <radialGradient id="cool" cx=".86" cy=".24" r=".58">
      <stop offset="0" stop-color="#90e4ff" stop-opacity=".24"/>
      <stop offset="1" stop-color="#90e4ff" stop-opacity="0"/>
    </radialGradient>
  </defs>
  <rect width="1600" height="1000" fill="url(#g)"/>
  <rect width="1600" height="1000" fill="url(#warm)"/>
  <rect width="1600" height="1000" fill="url(#cool)"/>
  <circle cx="1280" cy="820" r="360" fill="#ffffff" opacity=".06"/>
  <circle cx="130" cy="930" r="310" fill="#ffffff" opacity=".05"/>
  <circle cx="349" cy="12" r="105" fill="#90e4ff" opacity="0.20"/>
<circle cx="640" cy="910" r="96" fill="#90e4ff" opacity="0.14"/>
<circle cx="1019" cy="914" r="114" fill="#dcefff" opacity="0.22"/>
<circle cx="8" cy="886" r="108" fill="#ff8a9c" opacity="0.18"/>
<circle cx="634" cy="494" r="223" fill="#90e4ff" opacity="0.13"/>
<circle cx="1246" cy="-82" r="82" fill="#dcefff" opacity="0.20"/>
<circle cx="1278" cy="1077" r="235" fill="#ff8a9c" opacity="0.22"/>
<circle cx="1508" cy="694" r="94" fill="#ff8a9c" opacity="0.11"/>
<circle cx="369" cy="213" r="114" fill="#dcefff" opacity="0.10"/>
<circle cx="1557" cy="737" r="136" fill="#dcefff" opacity="0.20"/>
<circle cx="1562" cy="1060" r="126" fill="#ff8a9c" opacity="0.08"/>
<circle cx="1350" cy="1061" r="239" fill="#dcefff" opacity="0.13"/>
<circle cx="74" cy="691" r="220" fill="#ff8a9c" opacity="0.15"/>
<circle cx="153" cy="15" r="136" fill="#90e4ff" opacity="0.22"/>
<circle cx="643" cy="372" r="217" fill="#ff8a9c" opacity="0.16"/>
<circle cx="1443" cy="935" r="231" fill="#dcefff" opacity="0.12"/><circle cx="1388" cy="707" r="1.5" fill="#fff" opacity="0.37"/>
<circle cx="284" cy="472" r="1.8" fill="#fff" opacity="0.38"/>
<circle cx="395" cy="988" r="0.9" fill="#fff" opacity="0.30"/>
<circle cx="661" cy="92" r="1.3" fill="#fff" opacity="0.18"/>
<circle cx="800" cy="271" r="1.6" fill="#fff" opacity="0.62"/>
<circle cx="743" cy="15" r="0.8" fill="#fff" opacity="0.46"/>
<circle cx="918" cy="191" r="2.2" fill="#fff" opacity="0.50"/>
<circle cx="525" cy="820" r="1.6" fill="#fff" opacity="0.18"/>
<circle cx="1487" cy="188" r="1.1" fill="#fff" opacity="0.36"/>
<circle cx="921" cy="509" r="1.4" fill="#fff" opacity="0.18"/>
<circle cx="657" cy="382" r="2.3" fill="#fff" opacity="0.45"/>
<circle cx="1583" cy="954" r="2.2" fill="#fff" opacity="0.25"/>
<circle cx="497" cy="235" r="2.2" fill="#fff" opacity="0.35"/>
<circle cx="289" cy="398" r="1.8" fill="#fff" opacity="0.35"/>
<circle cx="1558" cy="231" r="1.4" fill="#fff" opacity="0.46"/>
<circle cx="1561" cy="752" r="1.2" fill="#fff" opacity="0.32"/>
<circle cx="1288" cy="718" r="1.4" fill="#fff" opacity="0.51"/>
<circle cx="953" cy="396" r="1.8" fill="#fff" opacity="0.31"/>
<circle cx="1414" cy="144" r="0.8" fill="#fff" opacity="0.31"/>
<circle cx="94" cy="731" r="2.4" fill="#fff" opacity="0.58"/>
<circle cx="592" cy="122" r="1.3" fill="#fff" opacity="0.29"/>
<circle cx="1059" cy="370" r="1.4" fill="#fff" opacity="0.37"/>
<circle cx="933" cy="887" r="1.8" fill="#fff" opacity="0.50"/>
<circle cx="1165" cy="345" r="1.0" fill="#fff" opacity="0.53"/>
<circle cx="333" cy="454" r="2.3" fill="#fff" opacity="0.42"/>
<circle cx="298" cy="916" r="1.9" fill="#fff" opacity="0.39"/>
<circle cx="509" cy="96" r="1.6" fill="#fff" opacity="0.37"/>
<circle cx="184" cy="556" r="0.9" fill="#fff" opacity="0.25"/>
<circle cx="1394" cy="574" r="1.7" fill="#fff" opacity="0.45"/>
<circle cx="486" cy="173" r="1.2" fill="#fff" opacity="0.22"/>
<circle cx="1055" cy="183" r="2.1" fill="#fff" opacity="0.36"/>
<circle cx="225" cy="776" r="1.2" fill="#fff" opacity="0.51"/>
<circle cx="36" cy="258" r="2.2" fill="#fff" opacity="0.26"/>
<circle cx="1580" cy="834" r="1.5" fill="#fff" opacity="0.39"/>
<circle cx="109" cy="488" r="2.0" fill="#fff" opacity="0.22"/>
<circle cx="1535" cy="955" r="0.7" fill="#fff" opacity="0.49"/>
<circle cx="1183" cy="386" r="1.9" fill="#fff" opacity="0.27"/>
<circle cx="654" cy="459" r="1.0" fill="#fff" opacity="0.24"/>
<circle cx="186" cy="729" r="0.8" fill="#fff" opacity="0.30"/>
<circle cx="1343" cy="187" r="2.3" fill="#fff" opacity="0.39"/>
<circle cx="1280" cy="648" r="2.0" fill="#fff" opacity="0.50"/>
<circle cx="154" cy="892" r="1.9" fill="#fff" opacity="0.47"/>
<circle cx="1560" cy="421" r="1.4" fill="#fff" opacity="0.31"/>
<circle cx="752" cy="725" r="1.4" fill="#fff" opacity="0.59"/>
<circle cx="1429" cy="538" r="1.6" fill="#fff" opacity="0.23"/>
<circle cx="281" cy="467" r="0.9" fill="#fff" opacity="0.48"/>
<circle cx="1309" cy="457" r="1.6" fill="#fff" opacity="0.35"/>
<circle cx="169" cy="360" r="2.3" fill="#fff" opacity="0.35"/>
<circle cx="1214" cy="934" r="1.9" fill="#fff" opacity="0.40"/>
<circle cx="1286" cy="987" r="2.1" fill="#fff" opacity="0.57"/>
<circle cx="806" cy="523" r="1.6" fill="#fff" opacity="0.56"/>
<circle cx="1362" cy="563" r="1.3" fill="#fff" opacity="0.38"/>
<circle cx="258" cy="810" r="1.2" fill="#fff" opacity="0.49"/>
<circle cx="138" cy="694" r="2.0" fill="#fff" opacity="0.54"/>
<circle cx="1517" cy="595" r="1.1" fill="#fff" opacity="0.36"/>
<circle cx="1213" cy="228" r="0.9" fill="#fff" opacity="0.45"/>
<circle cx="662" cy="81" r="1.0" fill="#fff" opacity="0.32"/>
<circle cx="895" cy="241" r="1.3" fill="#fff" opacity="0.57"/>
<circle cx="1250" cy="174" r="1.0" fill="#fff" opacity="0.61"/>
<circle cx="1052" cy="749" r="1.6" fill="#fff" opacity="0.62"/>
<circle cx="1574" cy="19" r="1.7" fill="#fff" opacity="0.56"/>
<circle cx="883" cy="830" r="1.6" fill="#fff" opacity="0.46"/>
<circle cx="924" cy="508" r="1.0" fill="#fff" opacity="0.59"/>
<circle cx="96" cy="316" r="0.9" fill="#fff" opacity="0.53"/>
<circle cx="1445" cy="989" r="1.9" fill="#fff" opacity="0.55"/>
<circle cx="1159" cy="821" r="2.2" fill="#fff" opacity="0.51"/>
<circle cx="850" cy="192" r="1.6" fill="#fff" opacity="0.58"/>
<circle cx="511" cy="0" r="1.4" fill="#fff" opacity="0.46"/>
<circle cx="1465" cy="942" r="0.8" fill="#fff" opacity="0.38"/>
<circle cx="789" cy="312" r="1.6" fill="#fff" opacity="0.40"/>
<circle cx="482" cy="591" r="2.3" fill="#fff" opacity="0.44"/>
<circle cx="336" cy="298" r="2.0" fill="#fff" opacity="0.49"/>
<circle cx="1273" cy="159" r="2.3" fill="#fff" opacity="0.29"/>
<circle cx="1252" cy="281" r="1.5" fill="#fff" opacity="0.62"/>
<circle cx="470" cy="480" r="2.1" fill="#fff" opacity="0.29"/>
<circle cx="286" cy="703" r="0.8" fill="#fff" opacity="0.38"/>
<circle cx="1382" cy="156" r="1.1" fill="#fff" opacity="0.52"/>
<circle cx="514" cy="770" r="0.7" fill="#fff" opacity="0.56"/>
<circle cx="1276" cy="524" r="1.8" fill="#fff" opacity="0.34"/>
<circle cx="509" cy="541" r="1.2" fill="#fff" opacity="0.26"/>
<circle cx="932" cy="190" r="1.8" fill="#fff" opacity="0.40"/>
<circle cx="1314" cy="548" r="1.7" fill="#fff" opacity="0.42"/>
<circle cx="1" cy="925" r="0.9" fill="#fff" opacity="0.45"/>
<circle cx="1448" cy="699" r="1.1" fill="#fff" opacity="0.55"/>
<circle cx="647" cy="869" r="1.9" fill="#fff" opacity="0.28"/>
<circle cx="944" cy="270" r="1.4" fill="#fff" opacity="0.20"/>
<circle cx="208" cy="140" r="1.8" fill="#fff" opacity="0.62"/>
<circle cx="638" cy="864" r="2.0" fill="#fff" opacity="0.20"/>
<circle cx="139" cy="283" r="2.3" fill="#fff" opacity="0.58"/>
<circle cx="352" cy="132" r="1.0" fill="#fff" opacity="0.27"/>
  <rect width="1600" height="1000" fill="#000" opacity=".08"/>
</svg>