<svg xmlns="http://www.w3.org/2000/svg" viewBox="0 0 1600 1000" preserveAspectRatio="xMidYMid slice">
  <defs>
    <linearGradient id="g" x1="0" y1="0" x2="1" y2="1">
      <stop offset="0" stop-color="#2a1320"/>
      <stop offset=".58" stop-color="#4a2938"/>
      <stop offset="1" stop-color="#2a1320"/>
    </linearGradient>
    <radialGradient id="warm" cx=".18" cy=".12" r=".62">
      <stop offset="0" stop-color="#ffd580" stop-opacity=".32"/>
      <stop offset="1" stop-color="#ffd580" stop-opacity="0"/>
    </radialGradient>
    <radialGradient id="cool" cx=".86" cy=".24" r=".58">
      <stop offset="0" stop-color="#96e69b" stop-opacity=".24"/>
      <stop offset="1" stop-color="#96e69b" stop-opacity="0"/>
    </radialGradient>
  </defs>
  <rect width="1600" height="1000" fill="url(#g)"/>
  <rect width="1600" height="1000" fill="url(#warm)"/>
  <rect width="1600" height="1000" fill="url(#cool)"/>
  <circle cx="1280" cy="820" r="360" fill="#ffffff" opacity=".06"/>
  <circle cx="130" cy="930" r="310" fill="#ffffff" opacity=".05"/>
  <circle cx="706" cy="708" r="95" fill="#f06776" opacity="0.11"/>
<circle cx="1108" cy="549" r="126" fill="#f06776" opacity="0.19"/>
<circle cx="978" cy="741" r="125" fill="#ffd580" opacity="0.21"/>
<circle cx="1346" cy="694" r="207" fill="#f06776" opacity="0.10"/>
<circle cx="1098" cy="689" r="83" fill="#f06776" opacity="0.21"/>
<circle cx="778" cy="218" r="222" fill="#f06776" opacity="0.13"/>
<circle cx="119" cy="311" r="83" fill="#96e69b" opacity="0.17"/>
<circle cx="568" cy="893" r="194" fill="#96e69b" opacity="0.08"/>
<circle cx="640" cy="205" r="80" fill="#96e69b" opacity="0.10"/>
<circle cx="1480" cy="271" r="219" fill="#96e69b" opacity="0.17"/>
<circle cx="-88" cy="38" r="203" fill="#ffd580" opacity="0.10"/>
<circle cx="231" cy="-46" r="103" fill="#96e69b" opacity="0.18"/>
<circle cx="242" cy="898" r="121" fill="#ffd580" opacity="0.16"/>
<circle cx="1575" cy="886" r="144" fill="#96e69b" opacity="0.21"/>
<circle cx="-63" cy="823" r="99" fill="#f06776" opacity="0.09"/>
<circle cx="1403" cy="1090" r="194" fill="#ffd580" opacity="0.09"/>
    <pattern id="plaid" width="96" height="96" patternUnits="userSpaceOnUse">
      <rect width="96" height="96" fill="transparent"/>
      <path d="M0 24H96 M0 72H96 M24 0V96 M72 0V96" stroke="#ffd580" stroke-width="2" opacity=".18"/>
      <path d="M0 48H96 M48 0V96" stroke="#96e69b" stroke-width="8" opacity=".06"/>
    </pattern>
    <rect width="1600" height="1000" fill="url(#plaid)" opacity=".9"/><path d="M1505 478.9055459157635 L1506.0830589294828 480.9169410705172 L1508.0944540842365 482 L1506.0830589294828 483.0830589294828 L1505 485.0944540842365 L1503.9169410705172 483.0830589294828 L1501.9055459157635 482 L1503.9169410705172 480.9169410705172 Z" fill="#fff8d8" opacity="0.48"/>
<path d="M663 450.43574103603333 L664.2474906373883 452.75250936261165 L666.5642589639666 454 L664.2474906373883 455.24749063738835 L663 457.56425896396667 L661.7525093626117 455.24749063738835 L659.4357410360334 454 L661.7525093626117 452.75250936261165 Z" fill="#fff8d8" opacity="0.18"/>
<path d="M626 457.39424831868973 L627.2620130884586 459.7379869115414 L629.6057516813103 461 L627.2620130884586 462.2620130884586 L626 464.60575168131027 L624.7379869115414 462.2620130884586 L622.3942483186897 461 L624.7379869115414 459.7379869115414 Z" fill="#fff8d8" opacity="0.17"/>
<path d="M1004 508.61424196180405 L1004.8350153133686 510.16498468663144 L1006.385758038196 511 L1004.8350153133686 511.83501531336856 L1004 513.385758038196 L1003.1649846866314 511.83501531336856 L1001.614241961804 511 L1003.1649846866314 510.16498468663144 Z" fill="#fff8d8" opacity="0.45"/>
<path d="M191 554.3420303317464 L192.28028938388874 556.7197106161112 L194.65796966825357 558 L192.28028938388874 559.2802893838888 L191 561.6579696682536 L189.71971061611126 559.2802893838888 L187.34203033174643 558 L189.71971061611126 556.7197106161112 Z" fill="#fff8d8" opacity="0.21"/>
<path d="M26 796.4256901407638 L26.551008450732695 797.4489915492672 L27.574309859236273 798 L26.551008450732695 798.5510084507328 L26 799.5743098592362 L25.448991549267305 798.5510084507328 L24.425690140763727 798 L25.448991549267305 797.4489915492672 Z" fill="#fff8d8" opacity="0.46"/>
<path d="M301 748.8832510688565 L302.09086212590023 750.9091378740998 L304.1167489311435 752 L302.09086212590023 753.0908621259002 L301 755.1167489311435 L299.90913787409977 753.0908621259002 L297.8832510688565 752 L299.90913787409977 750.9091378740998 Z" fill="#fff8d8" opacity="0.52"/>
<path d="M418 626.7495100723337 L419.1376714746832 628.8623285253168 L421.25048992766625 630 L419.1376714746832 631.1376714746832 L418 633.2504899276663 L416.8623285253168 631.1376714746832 L414.74951007233375 630 L416.8623285253168 628.8623285253168 Z" fill="#fff8d8" opacity="0.36"/>
<path d="M1252 124.81763692699492 L1252.7638270755517 126.23617292444823 L1254.182363073005 127 L1252.7638270755517 127.76382707555177 L1252 129.18236307300506 L1251.2361729244483 127.76382707555177 L1249.817636926995 127 L1251.2361729244483 126.23617292444823 Z" fill="#fff8d8" opacity="0.32"/>
<path d="M731 891.0962016455629 L732.366329424053 893.633670575947 L734.9037983544371 895 L732.366329424053 896.366329424053 L731 898.9037983544371 L729.633670575947 896.366329424053 L727.0962016455629 895 L729.633670575947 893.633670575947 Z" fill="#fff8d8" opacity="0.17"/>
<path d="M981 994.7453496577118 L981.7891276198009 996.2108723801991 L983.2546503422882 997 L981.7891276198009 997.7891276198009 L981 999.2546503422882 L980.2108723801991 997.7891276198009 L978.7453496577118 997 L980.2108723801991 996.2108723801991 Z" fill="#fff8d8" opacity="0.33"/>
<path d="M1569 279.2832261859777 L1569.9508708349078 281.0491291650922 L1571.7167738140224 282 L1569.9508708349078 282.9508708349078 L1569 284.7167738140223 L1568.0491291650922 282.9508708349078 L1566.2832261859776 282 L1568.0491291650922 281.0491291650922 Z" fill="#fff8d8" opacity="0.53"/>
<path d="M483 470.2500193623132 L483.9624932231904 472.0375067768096 L485.7499806376868 473 L483.9624932231904 473.9624932231904 L483 475.7499806376868 L482.0375067768096 473.9624932231904 L480.2500193623132 473 L482.0375067768096 472.0375067768096 Z" fill="#fff8d8" opacity="0.28"/>
<path d="M808 382.3446484435831 L808.5793730447459 383.4206269552541 L809.6553515564169 384 L808.5793730447459 384.5793730447459 L808 385.6553515564169 L807.4206269552541 384.5793730447459 L806.3446484435831 384 L807.4206269552541 383.4206269552541 Z" fill="#fff8d8" opacity="0.34"/>
<path d="M947 583.2392367537761 L947.6162671361783 584.3837328638217 L948.7607632462239 585 L947.6162671361783 585.6162671361783 L947 586.7607632462239 L946.3837328638217 585.6162671361783 L945.2392367537761 585 L946.3837328638217 584.3837328638217 Z" fill="#fff8d8" opacity="0.50"/>
<path d="M1565 273.51782962832937 L1566.2187596300846 275.7812403699153 L1568.4821703716707 277 L1566.2187596300846 278.2187596300847 L1565 280.48217037167063 L1563.7812403699154 278.2187596300847 L1561.5178296283293 277 L1563.7812403699154 275.7812403699153 Z" fill="#fff8d8" opacity="0.40"/>
<path d="M869 885.8619507034018 L869.7483172538093 887.2516827461907 L871.1380492965982 888 L869.7483172538093 888.7483172538093 L869 890.1380492965982 L868.2516827461907 888.7483172538093 L866.8619507034018 888 L868.2516827461907 887.2516827461907 Z" fill="#fff8d8" opacity="0.53"/>
<path d="M733 358.1163281683957 L733.6592851410616 359.3407148589385 L734.8836718316044 360 L733.6592851410616 360.6592851410615 L733 361.8836718316043 L732.3407148589384 360.6592851410615 L731.1163281683956 360 L732.3407148589384 359.3407148589385 Z" fill="#fff8d8" opacity="0.26"/>
<path d="M1337 350.59900651503773 L1337.8403477197369 352.15965228026323 L1339.4009934849623 353 L1337.8403477197369 353.84034771973677 L1337 355.40099348496227 L1336.1596522802631 353.84034771973677 L1334.5990065150377 353 L1336.1596522802631 352.15965228026323 Z" fill="#fff8d8" opacity="0.23"/>
<path d="M392 85.14106879982008 L392.65062592006296 86.34937407993702 L393.85893120017994 87 L392.65062592006296 87.65062592006298 L392 88.85893120017992 L391.34937407993704 87.65062592006298 L390.14106879982006 87 L391.34937407993704 86.34937407993702 Z" fill="#fff8d8" opacity="0.45"/>
<path d="M1139 594.6024254833472 L1140.1891510808284 596.8108489191716 L1142.3975745166529 598 L1140.1891510808284 599.1891510808284 L1139 601.3975745166528 L1137.8108489191716 599.1891510808284 L1135.6024254833471 598 L1137.8108489191716 596.8108489191716 Z" fill="#fff8d8" opacity="0.18"/>
<path d="M1014 181.96116029362602 L1015.0635938972309 183.93640610276913 L1017.038839706374 185 L1015.0635938972309 186.06359389723087 L1014 188.03883970637398 L1012.9364061027691 186.06359389723087 L1010.961160293626 185 L1012.9364061027691 183.93640610276913 Z" fill="#fff8d8" opacity="0.17"/>
<path d="M805 148.79261302590996 L805.7725854409315 150.22741455906848 L807.20738697409 151 L805.7725854409315 151.77258544093152 L805 153.20738697409004 L804.2274145590685 151.77258544093152 L802.79261302591 151 L804.2274145590685 150.22741455906848 Z" fill="#fff8d8" opacity="0.52"/>
<path d="M943 492.04162028721197 L944.0354328994758 493.96456710052416 L945.9583797127881 495 L944.0354328994758 496.03543289947584 L943 497.95837971278803 L941.9645671005242 496.03543289947584 L940.0416202872119 495 L941.9645671005242 493.96456710052416 Z" fill="#fff8d8" opacity="0.29"/>
<path d="M217 367.2225757065642 L217.62209850270253 368.3779014972975 L218.77742429343579 369 L217.62209850270253 369.6220985027025 L217 370.7774242934358 L216.37790149729747 369.6220985027025 L215.22257570656421 369 L216.37790149729747 368.3779014972975 Z" fill="#fff8d8" opacity="0.38"/>
<path d="M391 267.3880742223768 L392.2641740221681 269.7358259778319 L394.6119257776232 271 L392.2641740221681 272.2641740221681 L391 274.6119257776232 L389.7358259778319 272.2641740221681 L387.3880742223768 271 L389.7358259778319 269.7358259778319 Z" fill="#fff8d8" opacity="0.42"/>
<path d="M302 788.5963481178946 L302.8412781587369 790.1587218412632 L304.40365188210535 791 L302.8412781587369 791.8412781587368 L302 793.4036518821054 L301.1587218412631 791.8412781587368 L299.59634811789465 791 L301.1587218412631 790.1587218412632 Z" fill="#fff8d8" opacity="0.17"/>
<path d="M1271 585.3231820460093 L1272.2868862838968 587.7131137161032 L1274.6768179539908 589 L1272.2868862838968 590.2868862838968 L1271 592.6768179539907 L1269.7131137161032 590.2868862838968 L1267.3231820460092 589 L1269.7131137161032 587.7131137161032 Z" fill="#fff8d8" opacity="0.18"/>
<path d="M609 898.2403282164017 L609.9658851242593 900.0341148757407 L611.7596717835983 901 L609.9658851242593 901.9658851242593 L609 903.7596717835983 L608.0341148757407 901.9658851242593 L606.2403282164017 901 L608.0341148757407 900.0341148757407 Z" fill="#fff8d8" opacity="0.46"/>
<path d="M957 778.5345508732976 L958.2129071943458 780.7870928056542 L960.4654491267024 782 L958.2129071943458 783.2129071943458 L957 785.4654491267024 L955.7870928056542 783.2129071943458 L953.5345508732976 782 L955.7870928056542 780.7870928056542 Z" fill="#fff8d8" opacity="0.22"/>
<path d="M886 130.6452870242072 L886.8241495415275 132.17585045847252 L888.3547129757928 133 L886.8241495415275 133.82414954152748 L886 135.3547129757928 L885.1758504584725 133.82414954152748 L883.6452870242072 133 L885.1758504584725 132.17585045847252 Z" fill="#fff8d8" opacity="0.42"/>
<path d="M1567 419.31707798897867 L1567.9390227038575 421.06097729614254 L1569.6829220110214 422 L1567.9390227038575 422.93902270385746 L1567 424.68292201102133 L1566.0609772961425 422.93902270385746 L1564.3170779889786 422 L1566.0609772961425 421.06097729614254 Z" fill="#fff8d8" opacity="0.48"/>
<path d="M891 518.0537151298973 L891.6811997045359 519.3188002954641 L892.9462848701027 520 L891.6811997045359 520.6811997045359 L891 521.9462848701027 L890.3188002954641 520.6811997045359 L889.0537151298973 520 L890.3188002954641 519.3188002954641 Z" fill="#fff8d8" opacity="0.28"/>
<path d="M548 866.2535733277264 L549.3112493352958 868.6887506647042 L551.7464266722736 870 L549.3112493352958 871.3112493352958 L548 873.7464266722736 L546.6887506647042 871.3112493352958 L544.2535733277264 870 L546.6887506647042 868.6887506647042 Z" fill="#fff8d8" opacity="0.49"/>
<path d="M948 153.86186085908972 L949.0983486993186 155.9016513006814 L951.1381391409103 157 L949.0983486993186 158.0983486993186 L948 160.13813914091028 L946.9016513006814 158.0983486993186 L944.8618608590897 157 L946.9016513006814 155.9016513006814 Z" fill="#fff8d8" opacity="0.21"/>
<path d="M277 945.1542361193297 L277.99601735823467 947.0039826417653 L279.8457638806704 948 L277.99601735823467 948.9960173582347 L277 950.8457638806703 L276.00398264176533 948.9960173582347 L274.1542361193296 948 L276.00398264176533 947.0039826417653 Z" fill="#fff8d8" opacity="0.55"/>
<path d="M1223 439.9525450097771 L1224.066609246578 441.933390753422 L1226.0474549902228 443 L1224.066609246578 444.066609246578 L1223 446.0474549902229 L1221.933390753422 444.066609246578 L1219.9525450097772 443 L1221.933390753422 441.933390753422 Z" fill="#fff8d8" opacity="0.52"/>
<path d="M48 136.1936696530852 L48.63221562142017 137.3677843785798 L49.806330346914784 138 L48.63221562142017 138.6322156214202 L48 139.8063303469148 L47.36778437857983 138.6322156214202 L46.193669653085216 138 L47.36778437857983 137.3677843785798 Z" fill="#fff8d8" opacity="0.51"/><circle cx="761" cy="533" r="1.3" fill="#fff" opacity="0.43"/>
<circle cx="1053" cy="809" r="2.0" fill="#fff" opacity="0.40"/>
<circle cx="495" cy="818" r="1.7" fill="#fff" opacity="0.38"/>
<circle cx="911" cy="586" r="2.3" fill="#fff" opacity="0.33"/>
<circle cx="281" cy="361" r="1.0" fill="#fff" opacity="0.42"/>
<circle cx="898" cy="109" r="2.0" fill="#fff" opacity="0.46"/>
<circle cx="1523" cy="131" r="2.1" fill="#fff" opacity="0.49"/>
<circle cx="1233" cy="164" r="1.7" fill="#fff" opacity="0.59"/>
<circle cx="709" cy="121" r="2.1" fill="#fff" opacity="0.45"/>
<circle cx="807" cy="373" r="1.6" fill="#fff" opacity="0.26"/>
<circle cx="502" cy="967" r="1.0" fill="#fff" opacity="0.56"/>
<circle cx="89" cy="432" r="1.7" fill="#fff" opacity="0.48"/>
<circle cx="531" cy="37" r="1.6" fill="#fff" opacity="0.59"/>
<circle cx="892" cy="871" r="1.9" fill="#fff" opacity="0.49"/>
<circle cx="588" cy="851" r="2.4" fill="#fff" opacity="0.36"/>
<circle cx="1518" cy="254" r="2.2" fill="#fff" opacity="0.45"/>
<circle cx="1245" cy="182" r="1.3" fill="#fff" opacity="0.59"/>
<circle cx="296" cy="936" r="1.4" fill="#fff" opacity="0.46"/>
<circle cx="923" cy="506" r="2.2" fill="#fff" opacity="0.57"/>
<circle cx="736" cy="268" r="1.4" fill="#fff" opacity="0.48"/>
<circle cx="10" cy="448" r="2.1" fill="#fff" opacity="0.41"/>
<circle cx="1345" cy="592" r="1.0" fill="#fff" opacity="0.30"/>
<circle cx="196" cy="199" r="1.1" fill="#fff" opacity="0.56"/>
<circle cx="248" cy="959" r="0.9" fill="#fff" opacity="0.53"/>
<circle cx="1582" cy="167" r="1.1" fill="#fff" opacity="0.21"/>
<circle cx="95" cy="138" r="1.6" fill="#fff" opacity="0.32"/>
<circle cx="834" cy="264" r="1.8" fill="#fff" opacity="0.43"/>
<circle cx="1169" cy="597" r="1.6" fill="#fff" opacity="0.51"/>
<circle cx="792" cy="192" r="1.7" fill="#fff" opacity="0.57"/>
<circle cx="836" cy="700" r="1.3" fill="#fff" opacity="0.42"/>
<circle cx="628" cy="497" r="1.6" fill="#fff" opacity="0.57"/>
<circle cx="686" cy="981" r="1.1" fill="#fff" opacity="0.48"/>
<circle cx="244" cy="493" r="1.3" fill="#fff" opacity="0.41"/>
<circle cx="1115" cy="784" r="1.1" fill="#fff" opacity="0.48"/>
<circle cx="874" cy="970" r="1.9" fill="#fff" opacity="0.31"/>
<circle cx="813" cy="671" r="2.2" fill="#fff" opacity="0.47"/>
<circle cx="937" cy="96" r="2.2" fill="#fff" opacity="0.35"/>
<circle cx="42" cy="1000" r="1.1" fill="#fff" opacity="0.23"/>
<circle cx="1154" cy="581" r="1.9" fill="#fff" opacity="0.38"/>
<circle cx="1035" cy="867" r="1.6" fill="#fff" opacity="0.30"/>
<circle cx="430" cy="956" r="0.8" fill="#fff" opacity="0.25"/>
<circle cx="895" cy="648" r="1.0" fill="#fff" opacity="0.43"/>
<circle cx="778" cy="935" r="1.1" fill="#fff" opacity="0.59"/>
<circle cx="1373" cy="945" r="1.1" fill="#fff" opacity="0.40"/>
<circle cx="1202" cy="929" r="1.9" fill="#fff" opacity="0.25"/>
<circle cx="555" cy="226" r="0.8" fill="#fff" opacity="0.18"/>
<circle cx="1172" cy="376" r="2.4" fill="#fff" opacity="0.30"/>
<circle cx="384" cy="393" r="2.2" fill="#fff" opacity="0.23"/>
<circle cx="1296" cy="244" r="1.3" fill="#fff" opacity="0.23"/>
<circle cx="574" cy="7" r="2.3" fill="#fff" opacity="0.60"/>
<circle cx="833" cy="769" r="1.5" fill="#fff" opacity="0.26"/>
<circle cx="875" cy="399" r="1.4" fill="#fff" opacity="0.18"/>
<circle cx="176" cy="303" r="2.2" fill="#fff" opacity="0.37"/>
<circle cx="1439" cy="211" r="0.8" fill="#fff" opacity="0.41"/>
<circle cx="1583" cy="513" r="1.8" fill="#fff" opacity="0.40"/>
<circle cx="1239" cy="782" r="2.3" fill="#fff" opacity="0.49"/>
<circle cx="900" cy="425" r="1.4" fill="#fff" opacity="0.20"/>
<circle cx="284" cy="700" r="1.1" fill="#fff" opacity="0.52"/>
<circle cx="1505" cy="852" r="0.8" fill="#fff" opacity="0.21"/>
<circle cx="539" cy="500" r="2.1" fill="#fff" opacity="0.25"/>
<circle cx="826" cy="216" r="1.0" fill="#fff" opacity="0.35"/>
<circle cx="1367" cy="729" r="1.1" fill="#fff" opacity="0.56"/>
<circle cx="1446" cy="69" r="1.9" fill="#fff" opacity="0.56"/>
<circle cx="557" cy="596" r="1.5" fill="#fff" opacity="0.57"/>
<circle cx="1512" cy="854" r="1.7" fill="#fff" opacity="0.39"/>
<circle cx="433" cy="631" r="1.5" fill="#fff" opacity="0.37"/>
<circle cx="450" cy="614" r="2.4" fill="#fff" opacity="0.52"/>
<circle cx="1278" cy="587" r="0.7" fill="#fff" opacity="0.52"/>
<circle cx="1063" cy="200" r="2.2" fill="#fff" opacity="0.23"/>
<circle cx="1097" cy="101" r="1.4" fill="#fff" opacity="0.55"/>
<circle cx="983" cy="66" r="1.2" fill="#fff" opacity="0.41"/>
<circle cx="300" cy="231" r="1.0" fill="#fff" opacity="0.46"/>
<circle cx="1470" cy="934" r="1.0" fill="#fff" opacity="0.39"/>
<circle cx="1447" cy="750" r="2.0" fill="#fff" opacity="0.33"/>
<circle cx="225" cy="453" r="0.9" fill="#fff" opacity="0.29"/>
<circle cx="1077" cy="453" r="0.8" fill="#fff" opacity="0.47"/>
<circle cx="1205" cy="100" r="2.0" fill="#fff" opacity="0.53"/>
<circle cx="1370" cy="658" r="1.7" fill="#fff" opacity="0.60"/>
<circle cx="835" cy="250" r="1.6" fill="#fff" opacity="0.40"/>
<circle cx="1052" cy="760" r="1.1" fill="#fff" opacity="0.25"/>
<circle cx="163" cy="64" r="1.8" fill="#fff" opacity="0.20"/>
<circle cx="194" cy="227" r="0.9" fill="#fff" opacity="0.23"/>
<circle cx="1331" cy="885" r="1.3" fill="#fff" opacity="0.50"/>
<circle cx="8" cy="713" r="1.2" fill="#fff" opacity="0.53"/>
<circle cx="1044" cy="584" r="1.9" fill="#fff" opacity="0.44"/>
<circle cx="1565" cy="943" r="1.7" fill="#fff" opacity="0.32"/>
<circle cx="409" cy="13" r="0.8" fill="#fff" opacity="0.31"/>
<circle cx="41" cy="604" r="2.1" fill="#fff" opacity="0.37"/>
<circle cx="641" cy="130" r="2.3" fill="#fff" opacity="0.40"/>
<circle cx="413" cy="749" r="1.6" fill="#fff" opacity="0.44"/>
<circle cx="554" cy="373" r="1.6" fill="#fff" opacity="0.54"/>
<circle cx="1582" cy="616" r="1.1" fill="#fff" opacity="0.34"/>
<circle cx="216" cy="927" r="1.0" fill="#fff" opacity="0.55"/>
<circle cx="1251" cy="906" r="1.2" fill="#fff" opacity="0.18"/>
<circle cx="825" cy="979" r="1.0" fill="#fff" opacity="0.42"/>
<circle cx="1032" cy="537" r="1.3" fill="#fff" opacity="0.32"/>
<circle cx="359" cy="696" r="1.0" fill="#fff" opacity="0.48"/>
<circle cx="1596" cy="406" r="0.9" fill="#fff" opacity="0.29"/>
<circle cx="841" cy="338" r="0.7" fill="#fff" opacity="0.49"/>
<circle cx="522" cy="625" r="0.9" fill="#fff" opacity="0.29"/>
<circle cx="1574" cy="319" r="1.4" fill="#fff" opacity="0.29"/>
<circle cx="409" cy="742" r="0.8" fill="#fff" opacity="0.42"/>
<circle cx="119" cy="751" r="0.9" fill="#fff" opacity="0.37"/>
<circle cx="1252" cy="542" r="1.5" fill="#fff" opacity="0.33"/>
<circle cx="920" cy="210" r="2.0" fill="#fff" opacity="0.23"/>
<circle cx="1544" cy="385" r="1.3" fill="#fff" opacity="0.37"/>
<circle cx="1199" cy="203" r="1.7" fill="#fff" opacity="0.49"/>
<circle cx="1009" cy="726" r="1.9" fill="#fff" opacity="0.43"/>
<circle cx="1464" cy="181" r="2.0" fill="#fff" opacity="0.37"/>
<circle cx="1309" cy="593" r="0.8" fill="#fff" opacity="0.24"/>
  <rect width="1600" height="1000" fill="#000" opacity=".08"/>
</svg>