<svg xmlns="http://www.w3.org/2000/svg" viewBox="0 0 1200 800" width="1200" height="800">
  <defs>
    <radialGradient id="g" cx="50%" cy="42%" r="75%">
      <stop offset="0" stop-color="#244c58"/>
      <stop offset="1" stop-color="#112e45"/>
    </radialGradient>
    <pattern id="snow" width="120" height="120" patternUnits="userSpaceOnUse">
      <circle cx="20" cy="28" r="2.4" fill="#fff" opacity=".55"/>
      <circle cx="90" cy="70" r="1.8" fill="#fff" opacity=".45"/>
      <circle cx="64" cy="18" r="1.3" fill="#fff" opacity=".35"/>
      <circle cx="42" cy="100" r="1.7" fill="#fff" opacity=".4"/>
    </pattern>
    <linearGradient id="shine" x1="0" x2="1" y1="0" y2="1">
      <stop offset="0" stop-color="#ffffff" stop-opacity=".16"/>
      <stop offset="1" stop-color="#ffffff" stop-opacity="0"/>
    </linearGradient>
  </defs>
  <rect width="1200" height="800" fill="url(#g)"/>
  <rect width="1200" height="800" fill="url(#snow)"/>
  <circle cx="-60" cy="820" r="360" fill="#fff" opacity=".08"/>
  <circle cx="1260" cy="-70" r="390" fill="#ffd66b" opacity=".10"/>
  
<g transform="translate(300 475)">
 <rect x="0" y="45" width="180" height="95" rx="20" fill="#d7474d"/><rect x="205" y="10" width="160" height="130" rx="22" fill="#2dbb71"/><rect x="392" y="50" width="170" height="90" rx="20" fill="#ffd566"/>
 <circle cx="45" cy="155" r="28" fill="#222"/><circle cx="140" cy="155" r="28" fill="#222"/><circle cx="255" cy="155" r="28" fill="#222"/><circle cx="345" cy="155" r="28" fill="#222"/><circle cx="435" cy="155" r="28" fill="#222"/><circle cx="520" cy="155" r="28" fill="#222"/>
 <path d="M-60 180 h720" stroke="#fff" stroke-width="12" opacity=".32"/>
</g>
  <rect width="1200" height="800" fill="url(#shine)"/>
</svg>