<svg xmlns="http://www.w3.org/2000/svg" viewBox="0 0 1200 800" width="1200" height="800">
  <defs>
    <radialGradient id="g" cx="50%" cy="42%" r="75%">
      <stop offset="0" stop-color="#4b3340"/>
      <stop offset="1" stop-color="#183a30"/>
    </radialGradient>
    <pattern id="snow" width="120" height="120" patternUnits="userSpaceOnUse">
      <circle cx="20" cy="28" r="2.4" fill="#fff" opacity=".55"/>
      <circle cx="90" cy="70" r="1.8" fill="#fff" opacity=".45"/>
      <circle cx="64" cy="18" r="1.3" fill="#fff" opacity=".35"/>
      <circle cx="42" cy="100" r="1.7" fill="#fff" opacity=".4"/>
    </pattern>
    <linearGradient id="shine" x1="0" x2="1" y1="0" y2="1">
      <stop offset="0" stop-color="#ffffff" stop-opacity=".16"/>
      <stop offset="1" stop-color="#ffffff" stop-opacity="0"/>
    </linearGradient>
  </defs>
  <rect width="1200" height="800" fill="url(#g)"/>
  <rect width="1200" height="800" fill="url(#snow)"/>
  <circle cx="-60" cy="820" r="360" fill="#fff" opacity=".08"/>
  <circle cx="1260" cy="-70" r="390" fill="#ffd86b" opacity=".10"/>
  
<g transform="translate(280 120)">
 <g><path d="M0 0 v100" stroke="#fff7d8" stroke-width="5" opacity=".6"/><circle cy="150" r="50" fill="#ff6169"/><path d="M-40 145 q40 22 80 0" stroke="#fff7d8" stroke-width="7" fill="none"/></g>
 <g transform="translate(250 60)"><path d="M0 0 v120" stroke="#fff7d8" stroke-width="5" opacity=".6"/><circle cy="170" r="60" fill="#7be59d"/><path d="M-48 165 q48 24 96 0" stroke="#fff7d8" stroke-width="7" fill="none"/></g>
 <g transform="translate(520 20)"><path d="M0 0 v95" stroke="#fff7d8" stroke-width="5" opacity=".6"/><circle cy="145" r="48" fill="#ffda67"/><path d="M-34 140 q34 20 68 0" stroke="#fff7d8" stroke-width="7" fill="none"/></g>
</g>
  <rect width="1200" height="800" fill="url(#shine)"/>
</svg>