<svg xmlns="http://www.w3.org/2000/svg" viewBox="0 0 1600 1000" preserveAspectRatio="xMidYMid slice">
  <defs>
    <linearGradient id="g" x1="0" y1="0" x2="1" y2="1">
      <stop offset="0" stop-color="#16331f"/>
      <stop offset=".58" stop-color="#364d2c"/>
      <stop offset="1" stop-color="#16331f"/>
    </linearGradient>
    <radialGradient id="warm" cx=".18" cy=".12" r=".62">
      <stop offset="0" stop-color="#fff0b3" stop-opacity=".32"/>
      <stop offset="1" stop-color="#fff0b3" stop-opacity="0"/>
    </radialGradient>
    <radialGradient id="cool" cx=".86" cy=".24" r=".58">
      <stop offset="0" stop-color="#70d494" stop-opacity=".24"/>
      <stop offset="1" stop-color="#70d494" stop-opacity="0"/>
    </radialGradient>
  </defs>
  <rect width="1600" height="1000" fill="url(#g)"/>
  <rect width="1600" height="1000" fill="url(#warm)"/>
  <rect width="1600" height="1000" fill="url(#cool)"/>
  <circle cx="1280" cy="820" r="360" fill="#ffffff" opacity=".06"/>
  <circle cx="130" cy="930" r="310" fill="#ffffff" opacity=".05"/>
  <circle cx="76" cy="92" r="159" fill="#e85d67" opacity="0.17"/>
<circle cx="795" cy="804" r="178" fill="#e85d67" opacity="0.17"/>
<circle cx="111" cy="485" r="239" fill="#70d494" opacity="0.18"/>
<circle cx="976" cy="195" r="200" fill="#fff0b3" opacity="0.14"/>
<circle cx="187" cy="627" r="186" fill="#70d494" opacity="0.13"/>
<circle cx="1396" cy="133" r="181" fill="#e85d67" opacity="0.12"/>
<circle cx="1495" cy="62" r="126" fill="#e85d67" opacity="0.15"/>
<circle cx="1393" cy="492" r="228" fill="#e85d67" opacity="0.16"/>
<circle cx="738" cy="531" r="167" fill="#e85d67" opacity="0.16"/>
<circle cx="792" cy="52" r="129" fill="#fff0b3" opacity="0.16"/>
<circle cx="325" cy="1010" r="74" fill="#70d494" opacity="0.22"/>
<circle cx="918" cy="411" r="226" fill="#fff0b3" opacity="0.22"/>
<circle cx="91" cy="482" r="72" fill="#e85d67" opacity="0.16"/>
<circle cx="102" cy="950" r="89" fill="#fff0b3" opacity="0.16"/>
<circle cx="971" cy="484" r="147" fill="#70d494" opacity="0.14"/>
<circle cx="345" cy="17" r="166" fill="#e85d67" opacity="0.14"/><path d="M-96 975 L-26 795 L44 975 Z" fill="#071f18" opacity="0.44"/>
<path d="M-76 895 L-26 755 L24 895 Z" fill="#071f18" opacity="0.49"/>
<path d="M81 1000 L151 629 L221 1000 Z" fill="#071f18" opacity="0.42"/>
<path d="M101 920 L151 589 L201 920 Z" fill="#071f18" opacity="0.47"/>
<path d="M297 974 L367 557 L437 974 Z" fill="#071f18" opacity="0.25"/>
<path d="M317 894 L367 517 L417 894 Z" fill="#071f18" opacity="0.30"/>
<path d="M472 972 L542 605 L612 972 Z" fill="#071f18" opacity="0.42"/>
<path d="M492 892 L542 565 L592 892 Z" fill="#071f18" opacity="0.47"/>
<path d="M637 1029 L707 730 L777 1029 Z" fill="#071f18" opacity="0.32"/>
<path d="M657 949 L707 690 L757 949 Z" fill="#071f18" opacity="0.37"/>
<path d="M870 1020 L940 608 L1010 1020 Z" fill="#071f18" opacity="0.41"/>
<path d="M890 940 L940 568 L990 940 Z" fill="#071f18" opacity="0.46"/>
<path d="M1029 992 L1099 684 L1169 992 Z" fill="#071f18" opacity="0.23"/>
<path d="M1049 912 L1099 644 L1149 912 Z" fill="#071f18" opacity="0.28"/>
<path d="M1238 1000 L1308 714 L1378 1000 Z" fill="#071f18" opacity="0.21"/>
<path d="M1258 920 L1308 674 L1358 920 Z" fill="#071f18" opacity="0.26"/>
<path d="M1395 1043 L1465 798 L1535 1043 Z" fill="#071f18" opacity="0.26"/>
<path d="M1415 963 L1465 758 L1515 963 Z" fill="#071f18" opacity="0.31"/>
<path d="M1612 1022 L1682 634 L1752 1022 Z" fill="#071f18" opacity="0.38"/>
<path d="M1632 942 L1682 594 L1732 942 Z" fill="#071f18" opacity="0.43"/><path d="M-100 840 C300 680, 600 1020, 1000 840 S1400 690, 1700 880" fill="none" stroke="#e85d67" stroke-width="34" opacity="0.08"/>
<path d="M-100 480 C300 320, 600 660, 1000 480 S1400 330, 1700 520" fill="none" stroke="#70d494" stroke-width="34" opacity="0.15"/>
<path d="M-100 179 C300 19, 600 359, 1000 179 S1400 29, 1700 219" fill="none" stroke="#e85d67" stroke-width="34" opacity="0.16"/>
<path d="M-100 626 C300 466, 600 806, 1000 626 S1400 476, 1700 666" fill="none" stroke="#70d494" stroke-width="34" opacity="0.14"/>
<path d="M-100 84 C300 -76, 600 264, 1000 84 S1400 -66, 1700 124" fill="none" stroke="#70d494" stroke-width="34" opacity="0.15"/>
<path d="M-100 606 C300 446, 600 786, 1000 606 S1400 456, 1700 646" fill="none" stroke="#fff0b3" stroke-width="34" opacity="0.13"/><circle cx="395" cy="281" r="1.0" fill="#fff" opacity="0.43"/>
<circle cx="218" cy="157" r="1.1" fill="#fff" opacity="0.26"/>
<circle cx="1464" cy="770" r="1.2" fill="#fff" opacity="0.38"/>
<circle cx="259" cy="596" r="0.8" fill="#fff" opacity="0.39"/>
<circle cx="86" cy="108" r="1.9" fill="#fff" opacity="0.23"/>
<circle cx="667" cy="611" r="1.7" fill="#fff" opacity="0.56"/>
<circle cx="848" cy="611" r="1.1" fill="#fff" opacity="0.32"/>
<circle cx="1464" cy="649" r="0.9" fill="#fff" opacity="0.42"/>
<circle cx="1319" cy="63" r="1.6" fill="#fff" opacity="0.61"/>
<circle cx="566" cy="294" r="2.1" fill="#fff" opacity="0.25"/>
<circle cx="292" cy="811" r="1.9" fill="#fff" opacity="0.58"/>
<circle cx="623" cy="855" r="2.0" fill="#fff" opacity="0.29"/>
<circle cx="1187" cy="199" r="1.2" fill="#fff" opacity="0.48"/>
<circle cx="1583" cy="732" r="1.2" fill="#fff" opacity="0.36"/>
<circle cx="234" cy="281" r="1.2" fill="#fff" opacity="0.41"/>
<circle cx="430" cy="73" r="1.8" fill="#fff" opacity="0.48"/>
<circle cx="1576" cy="530" r="2.4" fill="#fff" opacity="0.59"/>
<circle cx="836" cy="4" r="1.7" fill="#fff" opacity="0.61"/>
<circle cx="1412" cy="921" r="1.5" fill="#fff" opacity="0.46"/>
<circle cx="1089" cy="909" r="1.7" fill="#fff" opacity="0.30"/>
<circle cx="1558" cy="717" r="1.3" fill="#fff" opacity="0.20"/>
<circle cx="786" cy="442" r="2.2" fill="#fff" opacity="0.50"/>
<circle cx="447" cy="842" r="2.3" fill="#fff" opacity="0.27"/>
<circle cx="1357" cy="394" r="1.7" fill="#fff" opacity="0.57"/>
<circle cx="164" cy="579" r="1.7" fill="#fff" opacity="0.24"/>
<circle cx="1446" cy="167" r="1.5" fill="#fff" opacity="0.56"/>
<circle cx="0" cy="14" r="0.9" fill="#fff" opacity="0.59"/>
<circle cx="266" cy="922" r="2.3" fill="#fff" opacity="0.58"/>
<circle cx="334" cy="741" r="2.1" fill="#fff" opacity="0.54"/>
<circle cx="13" cy="152" r="0.9" fill="#fff" opacity="0.47"/>
<circle cx="1392" cy="803" r="1.0" fill="#fff" opacity="0.24"/>
<circle cx="263" cy="429" r="2.2" fill="#fff" opacity="0.40"/>
<circle cx="1391" cy="754" r="1.0" fill="#fff" opacity="0.58"/>
<circle cx="148" cy="379" r="0.8" fill="#fff" opacity="0.41"/>
<circle cx="178" cy="469" r="1.8" fill="#fff" opacity="0.44"/>
<circle cx="1306" cy="970" r="0.9" fill="#fff" opacity="0.37"/>
<circle cx="1148" cy="208" r="1.9" fill="#fff" opacity="0.49"/>
<circle cx="1217" cy="828" r="2.3" fill="#fff" opacity="0.51"/>
<circle cx="823" cy="48" r="1.5" fill="#fff" opacity="0.30"/>
<circle cx="818" cy="159" r="1.7" fill="#fff" opacity="0.59"/>
<circle cx="1574" cy="322" r="1.7" fill="#fff" opacity="0.37"/>
<circle cx="1125" cy="540" r="1.5" fill="#fff" opacity="0.38"/>
<circle cx="865" cy="444" r="1.6" fill="#fff" opacity="0.48"/>
<circle cx="840" cy="550" r="1.7" fill="#fff" opacity="0.49"/>
<circle cx="1494" cy="386" r="2.0" fill="#fff" opacity="0.24"/>
<circle cx="1265" cy="607" r="1.0" fill="#fff" opacity="0.36"/>
<circle cx="1415" cy="776" r="1.8" fill="#fff" opacity="0.19"/>
<circle cx="733" cy="850" r="1.9" fill="#fff" opacity="0.62"/>
<circle cx="1182" cy="16" r="1.6" fill="#fff" opacity="0.37"/>
<circle cx="579" cy="89" r="1.1" fill="#fff" opacity="0.55"/>
<circle cx="292" cy="665" r="2.0" fill="#fff" opacity="0.61"/>
<circle cx="1052" cy="847" r="1.8" fill="#fff" opacity="0.51"/>
<circle cx="1460" cy="307" r="2.2" fill="#fff" opacity="0.56"/>
<circle cx="1111" cy="314" r="1.6" fill="#fff" opacity="0.45"/>
<circle cx="1579" cy="397" r="2.3" fill="#fff" opacity="0.22"/>
<circle cx="1254" cy="847" r="2.3" fill="#fff" opacity="0.57"/>
<circle cx="412" cy="487" r="2.2" fill="#fff" opacity="0.56"/>
<circle cx="1314" cy="725" r="1.3" fill="#fff" opacity="0.53"/>
<circle cx="325" cy="227" r="1.0" fill="#fff" opacity="0.22"/>
<circle cx="1340" cy="394" r="1.2" fill="#fff" opacity="0.35"/>
<circle cx="623" cy="706" r="1.2" fill="#fff" opacity="0.36"/>
<circle cx="322" cy="369" r="2.3" fill="#fff" opacity="0.47"/>
<circle cx="459" cy="390" r="1.7" fill="#fff" opacity="0.31"/>
<circle cx="1459" cy="313" r="1.6" fill="#fff" opacity="0.26"/>
<circle cx="407" cy="441" r="1.7" fill="#fff" opacity="0.32"/>
<circle cx="1105" cy="156" r="1.5" fill="#fff" opacity="0.35"/>
<circle cx="562" cy="600" r="1.2" fill="#fff" opacity="0.46"/>
<circle cx="4" cy="350" r="1.8" fill="#fff" opacity="0.45"/>
<circle cx="526" cy="39" r="2.1" fill="#fff" opacity="0.39"/>
<circle cx="645" cy="827" r="2.3" fill="#fff" opacity="0.30"/>
<circle cx="763" cy="792" r="1.3" fill="#fff" opacity="0.26"/>
<circle cx="1250" cy="201" r="2.0" fill="#fff" opacity="0.25"/>
<circle cx="1538" cy="694" r="1.6" fill="#fff" opacity="0.46"/>
<circle cx="971" cy="287" r="1.7" fill="#fff" opacity="0.57"/>
<circle cx="816" cy="770" r="0.7" fill="#fff" opacity="0.44"/>
<circle cx="123" cy="772" r="2.3" fill="#fff" opacity="0.37"/>
<circle cx="1559" cy="572" r="2.2" fill="#fff" opacity="0.28"/>
<circle cx="123" cy="210" r="1.4" fill="#fff" opacity="0.54"/>
<circle cx="306" cy="468" r="2.3" fill="#fff" opacity="0.57"/>
<circle cx="328" cy="238" r="2.1" fill="#fff" opacity="0.19"/>
<circle cx="32" cy="56" r="0.9" fill="#fff" opacity="0.33"/>
<circle cx="11" cy="510" r="1.0" fill="#fff" opacity="0.33"/>
<circle cx="921" cy="656" r="2.0" fill="#fff" opacity="0.44"/>
<circle cx="1012" cy="346" r="1.7" fill="#fff" opacity="0.40"/>
<circle cx="48" cy="667" r="1.4" fill="#fff" opacity="0.60"/>
<circle cx="273" cy="930" r="2.3" fill="#fff" opacity="0.31"/>
<circle cx="74" cy="868" r="1.8" fill="#fff" opacity="0.27"/>
<circle cx="987" cy="87" r="1.9" fill="#fff" opacity="0.28"/>
<circle cx="435" cy="45" r="2.2" fill="#fff" opacity="0.56"/>
<circle cx="663" cy="81" r="1.3" fill="#fff" opacity="0.47"/>
<circle cx="1271" cy="512" r="1.0" fill="#fff" opacity="0.48"/>
<circle cx="1336" cy="129" r="1.0" fill="#fff" opacity="0.39"/>
<circle cx="1124" cy="320" r="1.0" fill="#fff" opacity="0.22"/>
<circle cx="189" cy="927" r="1.8" fill="#fff" opacity="0.56"/>
<circle cx="1183" cy="262" r="1.9" fill="#fff" opacity="0.23"/>
<circle cx="74" cy="688" r="2.0" fill="#fff" opacity="0.19"/>
<circle cx="1513" cy="435" r="1.8" fill="#fff" opacity="0.47"/>
<circle cx="1297" cy="127" r="2.3" fill="#fff" opacity="0.27"/>
<circle cx="1439" cy="53" r="1.1" fill="#fff" opacity="0.30"/>
<circle cx="1461" cy="757" r="1.9" fill="#fff" opacity="0.50"/>
<circle cx="627" cy="141" r="2.1" fill="#fff" opacity="0.55"/>
<circle cx="1556" cy="832" r="1.3" fill="#fff" opacity="0.43"/>
<circle cx="1191" cy="321" r="0.9" fill="#fff" opacity="0.48"/>
<circle cx="1027" cy="638" r="0.8" fill="#fff" opacity="0.49"/>
<circle cx="302" cy="989" r="1.6" fill="#fff" opacity="0.41"/>
<circle cx="519" cy="557" r="2.1" fill="#fff" opacity="0.50"/>
<circle cx="950" cy="899" r="2.0" fill="#fff" opacity="0.39"/>
<circle cx="1353" cy="961" r="1.7" fill="#fff" opacity="0.25"/>
<circle cx="7" cy="816" r="1.6" fill="#fff" opacity="0.26"/>
<circle cx="745" cy="679" r="1.4" fill="#fff" opacity="0.32"/>
<circle cx="477" cy="995" r="1.8" fill="#fff" opacity="0.38"/>
<circle cx="1597" cy="797" r="0.8" fill="#fff" opacity="0.47"/>
<circle cx="135" cy="709" r="2.3" fill="#fff" opacity="0.35"/>
<circle cx="221" cy="0" r="1.6" fill="#fff" opacity="0.60"/>
<circle cx="1269" cy="735" r="2.3" fill="#fff" opacity="0.35"/>
<circle cx="450" cy="139" r="0.8" fill="#fff" opacity="0.44"/>
<circle cx="973" cy="349" r="2.3" fill="#fff" opacity="0.60"/>
<circle cx="1026" cy="624" r="1.4" fill="#fff" opacity="0.49"/>
<circle cx="1406" cy="184" r="1.3" fill="#fff" opacity="0.48"/>
<circle cx="50" cy="295" r="1.7" fill="#fff" opacity="0.55"/>
<circle cx="1183" cy="584" r="1.2" fill="#fff" opacity="0.52"/>
<circle cx="801" cy="453" r="1.3" fill="#fff" opacity="0.21"/>
<circle cx="1295" cy="727" r="0.9" fill="#fff" opacity="0.23"/>
<circle cx="1583" cy="100" r="1.4" fill="#fff" opacity="0.49"/>
<circle cx="1057" cy="779" r="2.3" fill="#fff" opacity="0.44"/>
<circle cx="1184" cy="904" r="2.1" fill="#fff" opacity="0.49"/>
<circle cx="373" cy="350" r="1.9" fill="#fff" opacity="0.20"/>
<circle cx="999" cy="826" r="1.9" fill="#fff" opacity="0.26"/>
<circle cx="1032" cy="147" r="1.6" fill="#fff" opacity="0.62"/>
<circle cx="750" cy="836" r="1.0" fill="#fff" opacity="0.42"/>
  <rect width="1600" height="1000" fill="#000" opacity=".08"/>
</svg>