<svg xmlns="http://www.w3.org/2000/svg" viewBox="0 0 1200 800" width="1200" height="800">
  <defs>
    <radialGradient id="g" cx="50%" cy="42%" r="75%">
      <stop offset="0" stop-color="#5d2833"/>
      <stop offset="1" stop-color="#123b2d"/>
    </radialGradient>
    <pattern id="snow" width="120" height="120" patternUnits="userSpaceOnUse">
      <circle cx="20" cy="28" r="2.4" fill="#fff" opacity=".55"/>
      <circle cx="90" cy="70" r="1.8" fill="#fff" opacity=".45"/>
      <circle cx="64" cy="18" r="1.3" fill="#fff" opacity=".35"/>
      <circle cx="42" cy="100" r="1.7" fill="#fff" opacity=".4"/>
    </pattern>
    <linearGradient id="shine" x1="0" x2="1" y1="0" y2="1">
      <stop offset="0" stop-color="#ffffff" stop-opacity=".16"/>
      <stop offset="1" stop-color="#ffffff" stop-opacity="0"/>
    </linearGradient>
  </defs>
  <rect width="1200" height="800" fill="url(#g)"/>
  <rect width="1200" height="800" fill="url(#snow)"/>
  <circle cx="-60" cy="820" r="360" fill="#fff" opacity=".08"/>
  <circle cx="1260" cy="-70" r="390" fill="#ffdf70" opacity=".10"/>
  
<g opacity=".95">
 <path d="M0 160 h1200 v80 h-1200zM0 400 h1200 v80 h-1200z" fill="#ff6467" opacity=".7"/>
 <path d="M180 0 h80 v800 h-80zM580 0 h80 v800 h-80zM980 0 h80 v800 h-80z" fill="#fff1be" opacity=".75"/>
 <circle cx="220" cy="200" r="70" fill="none" stroke="#7df0a4" stroke-width="18"/><circle cx="620" cy="440" r="70" fill="none" stroke="#7df0a4" stroke-width="18"/><circle cx="1020" cy="200" r="70" fill="none" stroke="#7df0a4" stroke-width="18"/>
</g>
  <rect width="1200" height="800" fill="url(#shine)"/>
</svg>