<svg xmlns="http://www.w3.org/2000/svg" viewBox="0 0 1200 800" width="1200" height="800">
  <defs>
    <radialGradient id="g" cx="50%" cy="42%" r="75%">
      <stop offset="0" stop-color="#4a4434"/>
      <stop offset="1" stop-color="#17362d"/>
    </radialGradient>
    <pattern id="snow" width="120" height="120" patternUnits="userSpaceOnUse">
      <circle cx="20" cy="28" r="2.4" fill="#fff" opacity=".55"/>
      <circle cx="90" cy="70" r="1.8" fill="#fff" opacity=".45"/>
      <circle cx="64" cy="18" r="1.3" fill="#fff" opacity=".35"/>
      <circle cx="42" cy="100" r="1.7" fill="#fff" opacity=".4"/>
    </pattern>
    <linearGradient id="shine" x1="0" x2="1" y1="0" y2="1">
      <stop offset="0" stop-color="#ffffff" stop-opacity=".16"/>
      <stop offset="1" stop-color="#ffffff" stop-opacity="0"/>
    </linearGradient>
  </defs>
  <rect width="1200" height="800" fill="url(#g)"/>
  <rect width="1200" height="800" fill="url(#snow)"/>
  <circle cx="-60" cy="820" r="360" fill="#fff" opacity=".08"/>
  <circle cx="1260" cy="-70" r="390" fill="#ffd86b" opacity=".10"/>
  
<g transform="translate(220 560)"><rect x="0" y="0" width="760" height="95" rx="22" fill="#7b4e31"/><path d="M20 26 h710M40 58h680" stroke="#3f251a" opacity=".35" stroke-width="6"/></g>
<g transform="translate(360 320)"><rect x="0" y="0" width="180" height="150" rx="18" fill="#314c45"/><rect x="25" y="25" width="130" height="75" fill="#ffe286"/><path d="M300 -35 q80 70 0 140 q-80 -70 0 -140zM390 0 q80 70 0 140 q-80 -70 0 -140z" fill="#2fc274"/></g>
  <rect width="1200" height="800" fill="url(#shine)"/>
</svg>