<svg xmlns="http://www.w3.org/2000/svg" viewBox="0 0 1200 800" width="1200" height="800">
  <defs>
    <radialGradient id="g" cx="50%" cy="42%" r="75%">
      <stop offset="0" stop-color="#28435c"/>
      <stop offset="1" stop-color="#0d2638"/>
    </radialGradient>
    <pattern id="snow" width="120" height="120" patternUnits="userSpaceOnUse">
      <circle cx="20" cy="28" r="2.4" fill="#fff" opacity=".55"/>
      <circle cx="90" cy="70" r="1.8" fill="#fff" opacity=".45"/>
      <circle cx="64" cy="18" r="1.3" fill="#fff" opacity=".35"/>
      <circle cx="42" cy="100" r="1.7" fill="#fff" opacity=".4"/>
    </pattern>
    <linearGradient id="shine" x1="0" x2="1" y1="0" y2="1">
      <stop offset="0" stop-color="#ffffff" stop-opacity=".16"/>
      <stop offset="1" stop-color="#ffffff" stop-opacity="0"/>
    </linearGradient>
  </defs>
  <rect width="1200" height="800" fill="url(#g)"/>
  <rect width="1200" height="800" fill="url(#snow)"/>
  <circle cx="-60" cy="820" r="360" fill="#fff" opacity=".08"/>
  <circle cx="1260" cy="-70" r="390" fill="#ffda75" opacity=".10"/>
  
<g transform="translate(260 520)"><rect x="0" y="-120" width="120" height="210" fill="#6a4635"/><rect x="30" y="-60" width="60" height="60" fill="#ffdc7a"/><rect x="190" y="-180" width="170" height="270" fill="#405c68"/><rect x="240" y="-110" width="70" height="70" fill="#ffdc7a"/><rect x="450" y="-130" width="140" height="220" fill="#6a3840"/><rect x="490" y="-70" width="58" height="58" fill="#ffdc7a"/></g>
<g transform="translate(790 500)"><circle cx="0" cy="0" r="30" fill="#ffe0c7"/><rect x="-28" y="30" width="56" height="95" rx="18" fill="#d7464f"/><path d="M-60 80 h120" stroke="#fff0ba" stroke-width="8"/></g>
  <rect width="1200" height="800" fill="url(#shine)"/>
</svg>