<svg xmlns="http://www.w3.org/2000/svg" viewBox="0 0 1600 1000" preserveAspectRatio="xMidYMid slice">
  <defs>
    <linearGradient id="g" x1="0" y1="0" x2="1" y2="1">
      <stop offset="0" stop-color="#102f46"/>
      <stop offset=".58" stop-color="#1d5b6b"/>
      <stop offset="1" stop-color="#102f46"/>
    </linearGradient>
    <radialGradient id="warm" cx=".18" cy=".12" r=".62">
      <stop offset="0" stop-color="#c8f3ff" stop-opacity=".32"/>
      <stop offset="1" stop-color="#c8f3ff" stop-opacity="0"/>
    </radialGradient>
    <radialGradient id="cool" cx=".86" cy=".24" r=".58">
      <stop offset="0" stop-color="#f7d36b" stop-opacity=".24"/>
      <stop offset="1" stop-color="#f7d36b" stop-opacity="0"/>
    </radialGradient>
  </defs>
  <rect width="1600" height="1000" fill="url(#g)"/>
  <rect width="1600" height="1000" fill="url(#warm)"/>
  <rect width="1600" height="1000" fill="url(#cool)"/>
  <circle cx="1280" cy="820" r="360" fill="#ffffff" opacity=".06"/>
  <circle cx="130" cy="930" r="310" fill="#ffffff" opacity=".05"/>
  <circle cx="1566" cy="318" r="162" fill="#c8f3ff" opacity="0.18"/>
<circle cx="607" cy="891" r="213" fill="#ff8490" opacity="0.14"/>
<circle cx="1182" cy="528" r="122" fill="#f7d36b" opacity="0.16"/>
<circle cx="175" cy="1035" r="125" fill="#f7d36b" opacity="0.19"/>
<circle cx="363" cy="877" r="119" fill="#ff8490" opacity="0.21"/>
<circle cx="1388" cy="271" r="100" fill="#ff8490" opacity="0.18"/>
<circle cx="387" cy="886" r="76" fill="#c8f3ff" opacity="0.16"/>
<circle cx="1672" cy="650" r="218" fill="#ff8490" opacity="0.19"/>
<circle cx="627" cy="906" r="180" fill="#f7d36b" opacity="0.12"/>
<circle cx="1340" cy="205" r="161" fill="#c8f3ff" opacity="0.13"/>
<circle cx="1552" cy="477" r="222" fill="#ff8490" opacity="0.14"/>
<circle cx="1435" cy="-3" r="70" fill="#f7d36b" opacity="0.21"/>
<circle cx="13" cy="616" r="200" fill="#f7d36b" opacity="0.21"/>
<circle cx="766" cy="288" r="103" fill="#f7d36b" opacity="0.15"/>
<circle cx="1332" cy="840" r="123" fill="#c8f3ff" opacity="0.13"/>
<circle cx="96" cy="184" r="188" fill="#ff8490" opacity="0.11"/><circle cx="102" cy="325" r="1.0" fill="#fff" opacity="0.61"/>
<circle cx="510" cy="427" r="0.8" fill="#fff" opacity="0.23"/>
<circle cx="1078" cy="973" r="1.4" fill="#fff" opacity="0.50"/>
<circle cx="694" cy="414" r="1.0" fill="#fff" opacity="0.52"/>
<circle cx="295" cy="931" r="1.7" fill="#fff" opacity="0.52"/>
<circle cx="495" cy="176" r="1.0" fill="#fff" opacity="0.36"/>
<circle cx="244" cy="709" r="1.8" fill="#fff" opacity="0.44"/>
<circle cx="987" cy="47" r="1.1" fill="#fff" opacity="0.60"/>
<circle cx="1312" cy="614" r="1.8" fill="#fff" opacity="0.25"/>
<circle cx="805" cy="518" r="1.8" fill="#fff" opacity="0.37"/>
<circle cx="1504" cy="223" r="1.0" fill="#fff" opacity="0.62"/>
<circle cx="32" cy="2" r="1.5" fill="#fff" opacity="0.40"/>
<circle cx="1467" cy="898" r="1.9" fill="#fff" opacity="0.32"/>
<circle cx="1550" cy="166" r="2.4" fill="#fff" opacity="0.61"/>
<circle cx="764" cy="41" r="1.9" fill="#fff" opacity="0.36"/>
<circle cx="369" cy="516" r="1.6" fill="#fff" opacity="0.39"/>
<circle cx="904" cy="175" r="1.3" fill="#fff" opacity="0.31"/>
<circle cx="1392" cy="944" r="1.9" fill="#fff" opacity="0.55"/>
<circle cx="341" cy="796" r="1.5" fill="#fff" opacity="0.51"/>
<circle cx="77" cy="404" r="1.7" fill="#fff" opacity="0.33"/>
<circle cx="577" cy="417" r="1.8" fill="#fff" opacity="0.27"/>
<circle cx="1377" cy="641" r="0.7" fill="#fff" opacity="0.43"/>
<circle cx="1141" cy="440" r="0.8" fill="#fff" opacity="0.26"/>
<circle cx="1444" cy="640" r="0.8" fill="#fff" opacity="0.20"/>
<circle cx="306" cy="201" r="2.3" fill="#fff" opacity="0.20"/>
<circle cx="701" cy="396" r="1.6" fill="#fff" opacity="0.24"/>
<circle cx="49" cy="345" r="1.2" fill="#fff" opacity="0.42"/>
<circle cx="1459" cy="990" r="1.5" fill="#fff" opacity="0.50"/>
<circle cx="346" cy="945" r="1.5" fill="#fff" opacity="0.61"/>
<circle cx="1109" cy="400" r="2.0" fill="#fff" opacity="0.25"/>
<circle cx="385" cy="454" r="1.1" fill="#fff" opacity="0.56"/>
<circle cx="1249" cy="310" r="1.8" fill="#fff" opacity="0.20"/>
<circle cx="207" cy="832" r="0.8" fill="#fff" opacity="0.31"/>
<circle cx="1018" cy="86" r="1.4" fill="#fff" opacity="0.36"/>
<circle cx="1187" cy="516" r="2.0" fill="#fff" opacity="0.59"/>
<circle cx="835" cy="780" r="1.8" fill="#fff" opacity="0.51"/>
<circle cx="1220" cy="956" r="1.1" fill="#fff" opacity="0.57"/>
<circle cx="762" cy="922" r="0.8" fill="#fff" opacity="0.30"/>
<circle cx="1212" cy="497" r="1.8" fill="#fff" opacity="0.56"/>
<circle cx="1055" cy="38" r="2.3" fill="#fff" opacity="0.44"/>
<circle cx="1164" cy="528" r="0.7" fill="#fff" opacity="0.21"/>
<circle cx="434" cy="129" r="2.1" fill="#fff" opacity="0.47"/>
<circle cx="708" cy="715" r="2.3" fill="#fff" opacity="0.60"/>
<circle cx="464" cy="380" r="2.1" fill="#fff" opacity="0.51"/>
<circle cx="735" cy="381" r="2.0" fill="#fff" opacity="0.24"/>
<circle cx="1051" cy="683" r="1.2" fill="#fff" opacity="0.35"/>
<circle cx="304" cy="239" r="1.0" fill="#fff" opacity="0.29"/>
<circle cx="824" cy="877" r="0.8" fill="#fff" opacity="0.48"/>
<circle cx="526" cy="596" r="0.7" fill="#fff" opacity="0.44"/>
<circle cx="357" cy="388" r="1.1" fill="#fff" opacity="0.59"/>
<circle cx="232" cy="316" r="2.2" fill="#fff" opacity="0.41"/>
<circle cx="788" cy="700" r="2.2" fill="#fff" opacity="0.57"/>
<circle cx="1315" cy="315" r="1.4" fill="#fff" opacity="0.44"/>
<circle cx="1429" cy="539" r="1.7" fill="#fff" opacity="0.24"/>
<circle cx="1585" cy="160" r="1.3" fill="#fff" opacity="0.23"/>
<circle cx="128" cy="655" r="2.2" fill="#fff" opacity="0.31"/>
<circle cx="859" cy="902" r="2.3" fill="#fff" opacity="0.35"/>
<circle cx="1209" cy="551" r="2.0" fill="#fff" opacity="0.27"/>
<circle cx="1180" cy="37" r="0.9" fill="#fff" opacity="0.43"/>
<circle cx="1373" cy="566" r="1.7" fill="#fff" opacity="0.35"/>
<circle cx="917" cy="591" r="1.5" fill="#fff" opacity="0.35"/>
<circle cx="1184" cy="178" r="2.3" fill="#fff" opacity="0.52"/>
<circle cx="681" cy="343" r="0.8" fill="#fff" opacity="0.59"/>
<circle cx="297" cy="251" r="2.1" fill="#fff" opacity="0.45"/>
<circle cx="659" cy="989" r="1.3" fill="#fff" opacity="0.56"/>
<circle cx="461" cy="868" r="0.8" fill="#fff" opacity="0.56"/>
<circle cx="440" cy="976" r="2.4" fill="#fff" opacity="0.36"/>
<circle cx="862" cy="209" r="1.3" fill="#fff" opacity="0.35"/>
<circle cx="347" cy="426" r="2.3" fill="#fff" opacity="0.58"/>
<circle cx="459" cy="417" r="1.3" fill="#fff" opacity="0.22"/>
<circle cx="492" cy="322" r="1.7" fill="#fff" opacity="0.23"/>
<circle cx="1246" cy="478" r="2.3" fill="#fff" opacity="0.34"/>
<circle cx="1236" cy="387" r="1.2" fill="#fff" opacity="0.55"/>
<circle cx="40" cy="387" r="1.5" fill="#fff" opacity="0.51"/>
<circle cx="273" cy="355" r="1.7" fill="#fff" opacity="0.50"/>
<circle cx="842" cy="338" r="1.2" fill="#fff" opacity="0.21"/>
<circle cx="812" cy="488" r="1.9" fill="#fff" opacity="0.43"/>
<circle cx="721" cy="334" r="1.6" fill="#fff" opacity="0.57"/>
<circle cx="852" cy="663" r="1.6" fill="#fff" opacity="0.26"/>
<circle cx="845" cy="983" r="2.1" fill="#fff" opacity="0.61"/>
<circle cx="150" cy="158" r="1.2" fill="#fff" opacity="0.44"/>
<circle cx="1142" cy="278" r="2.0" fill="#fff" opacity="0.19"/>
<circle cx="547" cy="341" r="2.0" fill="#fff" opacity="0.35"/>
<circle cx="236" cy="358" r="0.7" fill="#fff" opacity="0.26"/>
<circle cx="590" cy="712" r="2.0" fill="#fff" opacity="0.20"/>
<circle cx="1090" cy="769" r="1.2" fill="#fff" opacity="0.52"/>
<circle cx="633" cy="74" r="2.2" fill="#fff" opacity="0.20"/>
<circle cx="1041" cy="909" r="1.7" fill="#fff" opacity="0.32"/>
<circle cx="110" cy="843" r="1.9" fill="#fff" opacity="0.29"/>
<circle cx="728" cy="984" r="0.7" fill="#fff" opacity="0.42"/>
<circle cx="513" cy="607" r="1.6" fill="#fff" opacity="0.20"/>
<circle cx="558" cy="171" r="1.3" fill="#fff" opacity="0.22"/>
<circle cx="251" cy="486" r="0.9" fill="#fff" opacity="0.50"/>
<circle cx="651" cy="121" r="0.9" fill="#fff" opacity="0.27"/>
<circle cx="115" cy="965" r="1.0" fill="#fff" opacity="0.38"/>
<circle cx="128" cy="587" r="1.2" fill="#fff" opacity="0.25"/>
<circle cx="791" cy="819" r="1.0" fill="#fff" opacity="0.41"/>
<circle cx="872" cy="496" r="1.8" fill="#fff" opacity="0.46"/>
<circle cx="1259" cy="529" r="2.0" fill="#fff" opacity="0.31"/>
<circle cx="650" cy="829" r="1.3" fill="#fff" opacity="0.39"/>
<circle cx="774" cy="724" r="1.6" fill="#fff" opacity="0.34"/>
<circle cx="316" cy="790" r="0.9" fill="#fff" opacity="0.32"/>
<circle cx="855" cy="766" r="0.8" fill="#fff" opacity="0.19"/>
<circle cx="982" cy="450" r="1.9" fill="#fff" opacity="0.48"/>
<circle cx="1116" cy="630" r="1.0" fill="#fff" opacity="0.19"/>
<circle cx="807" cy="24" r="1.6" fill="#fff" opacity="0.40"/>
<circle cx="1156" cy="501" r="1.2" fill="#fff" opacity="0.34"/>
<circle cx="263" cy="113" r="1.4" fill="#fff" opacity="0.54"/>
<circle cx="57" cy="124" r="2.2" fill="#fff" opacity="0.47"/>
<circle cx="269" cy="965" r="1.6" fill="#fff" opacity="0.19"/>
<circle cx="948" cy="40" r="1.2" fill="#fff" opacity="0.32"/>
<circle cx="812" cy="718" r="1.5" fill="#fff" opacity="0.29"/>
<circle cx="501" cy="291" r="2.4" fill="#fff" opacity="0.55"/>
<circle cx="973" cy="959" r="1.1" fill="#fff" opacity="0.56"/>
<circle cx="658" cy="110" r="1.9" fill="#fff" opacity="0.59"/>
<circle cx="1471" cy="632" r="1.6" fill="#fff" opacity="0.60"/>
<circle cx="177" cy="83" r="2.4" fill="#fff" opacity="0.38"/>
<circle cx="144" cy="985" r="1.2" fill="#fff" opacity="0.60"/>
<circle cx="29" cy="856" r="0.7" fill="#fff" opacity="0.35"/>
<circle cx="247" cy="942" r="1.0" fill="#fff" opacity="0.22"/>
<circle cx="768" cy="728" r="2.1" fill="#fff" opacity="0.23"/>
<circle cx="703" cy="702" r="1.4" fill="#fff" opacity="0.35"/>
<circle cx="623" cy="418" r="2.0" fill="#fff" opacity="0.61"/>
<circle cx="698" cy="822" r="2.3" fill="#fff" opacity="0.23"/>
<circle cx="1517" cy="163" r="1.0" fill="#fff" opacity="0.27"/>
<circle cx="732" cy="835" r="0.9" fill="#fff" opacity="0.54"/>
<circle cx="1183" cy="65" r="1.6" fill="#fff" opacity="0.47"/>
<circle cx="979" cy="654" r="1.1" fill="#fff" opacity="0.21"/>
<circle cx="246" cy="501" r="1.2" fill="#fff" opacity="0.51"/>
<circle cx="695" cy="561" r="1.5" fill="#fff" opacity="0.49"/>
  <rect width="1600" height="1000" fill="#000" opacity=".08"/>
</svg>