<svg xmlns="http://www.w3.org/2000/svg" viewBox="0 0 1200 800" width="1200" height="800">
  <defs>
    <radialGradient id="g" cx="50%" cy="42%" r="75%">
      <stop offset="0" stop-color="#68402d"/>
      <stop offset="1" stop-color="#3e281f"/>
    </radialGradient>
    <pattern id="snow" width="120" height="120" patternUnits="userSpaceOnUse">
      <circle cx="20" cy="28" r="2.4" fill="#fff" opacity=".55"/>
      <circle cx="90" cy="70" r="1.8" fill="#fff" opacity=".45"/>
      <circle cx="64" cy="18" r="1.3" fill="#fff" opacity=".35"/>
      <circle cx="42" cy="100" r="1.7" fill="#fff" opacity=".4"/>
    </pattern>
    <linearGradient id="shine" x1="0" x2="1" y1="0" y2="1">
      <stop offset="0" stop-color="#ffffff" stop-opacity=".16"/>
      <stop offset="1" stop-color="#ffffff" stop-opacity="0"/>
    </linearGradient>
  </defs>
  <rect width="1200" height="800" fill="url(#g)"/>
  <rect width="1200" height="800" fill="url(#snow)"/>
  <circle cx="-60" cy="820" r="360" fill="#fff" opacity=".08"/>
  <circle cx="1260" cy="-70" r="390" fill="#ffcc72" opacity=".10"/>
  
<g transform="translate(650 420)">
 <ellipse cx="0" cy="100" rx="250" ry="80" fill="#7a4a2f"/>
 <circle cx="-110" cy="70" r="48" fill="#bd7b42"/><circle cx="0" cy="110" r="54" fill="#bd7b42"/><circle cx="115" cy="70" r="48" fill="#bd7b42"/>
 <g fill="#5a331f"><circle cx="-120" cy="55" r="6"/><circle cx="-92" cy="84" r="6"/><circle cx="-8" cy="95" r="7"/><circle cx="25" cy="128" r="7"/><circle cx="115" cy="62" r="6"/><circle cx="135" cy="88" r="6"/></g>
 <rect x="-245" y="190" width="490" height="58" rx="24" fill="#7a4a2f"/>
</g>
  <rect width="1200" height="800" fill="url(#shine)"/>
</svg>