<svg xmlns="http://www.w3.org/2000/svg" viewBox="0 0 1600 1000" preserveAspectRatio="xMidYMid slice">
  <defs>
    <linearGradient id="g" x1="0" y1="0" x2="1" y2="1">
      <stop offset="0" stop-color="#2b2418"/>
      <stop offset=".58" stop-color="#5a3725"/>
      <stop offset="1" stop-color="#2b2418"/>
    </linearGradient>
    <radialGradient id="warm" cx=".18" cy=".12" r=".62">
      <stop offset="0" stop-color="#ffcf73" stop-opacity=".32"/>
      <stop offset="1" stop-color="#ffcf73" stop-opacity="0"/>
    </radialGradient>
    <radialGradient id="cool" cx=".86" cy=".24" r=".58">
      <stop offset="0" stop-color="#8adf92" stop-opacity=".24"/>
      <stop offset="1" stop-color="#8adf92" stop-opacity="0"/>
    </radialGradient>
  </defs>
  <rect width="1600" height="1000" fill="url(#g)"/>
  <rect width="1600" height="1000" fill="url(#warm)"/>
  <rect width="1600" height="1000" fill="url(#cool)"/>
  <circle cx="1280" cy="820" r="360" fill="#ffffff" opacity=".06"/>
  <circle cx="130" cy="930" r="310" fill="#ffffff" opacity=".05"/>
  <circle cx="1226" cy="847" r="161" fill="#ef7460" opacity="0.15"/>
<circle cx="978" cy="-8" r="172" fill="#8adf92" opacity="0.12"/>
<circle cx="133" cy="458" r="219" fill="#ef7460" opacity="0.18"/>
<circle cx="1198" cy="144" r="225" fill="#8adf92" opacity="0.15"/>
<circle cx="62" cy="68" r="120" fill="#8adf92" opacity="0.21"/>
<circle cx="213" cy="603" r="122" fill="#8adf92" opacity="0.17"/>
<circle cx="386" cy="25" r="89" fill="#ffcf73" opacity="0.21"/>
<circle cx="1158" cy="538" r="79" fill="#ffcf73" opacity="0.15"/>
<circle cx="1293" cy="664" r="142" fill="#ef7460" opacity="0.21"/>
<circle cx="1011" cy="877" r="180" fill="#ffcf73" opacity="0.12"/>
<circle cx="1297" cy="579" r="182" fill="#8adf92" opacity="0.10"/>
<circle cx="-68" cy="1002" r="102" fill="#8adf92" opacity="0.19"/>
<circle cx="923" cy="1010" r="214" fill="#ffcf73" opacity="0.15"/>
<circle cx="1329" cy="1063" r="88" fill="#ef7460" opacity="0.20"/>
<circle cx="567" cy="890" r="83" fill="#ffcf73" opacity="0.14"/>
<circle cx="974" cy="126" r="198" fill="#ffcf73" opacity="0.21"/>
    <pattern id="plaid" width="96" height="96" patternUnits="userSpaceOnUse">
      <rect width="96" height="96" fill="transparent"/>
      <path d="M0 24H96 M0 72H96 M24 0V96 M72 0V96" stroke="#ffcf73" stroke-width="2" opacity=".18"/>
      <path d="M0 48H96 M48 0V96" stroke="#8adf92" stroke-width="8" opacity=".06"/>
    </pattern>
    <rect width="1600" height="1000" fill="url(#plaid)" opacity=".9"/><path d="M0 120 C280 30, 520 180, 800 90 S1300 40, 1600 120" fill="none" stroke="#fff" stroke-width="2" opacity=".22"/>
<ellipse cx="40" cy="116.0" rx="12" ry="18" fill="#ef7460" opacity=".82"/>
<circle cx="40" cy="116.0" r="38" fill="#ef7460" opacity=".10"/>
<ellipse cx="128" cy="137.1074631814833" rx="12" ry="18" fill="#8adf92" opacity=".82"/>
<circle cx="128" cy="137.1074631814833" r="38" fill="#8adf92" opacity=".10"/>
<ellipse cx="223" cy="143.98507610645268" rx="12" ry="18" fill="#ef7460" opacity=".82"/>
<circle cx="223" cy="143.98507610645268" r="38" fill="#ef7460" opacity=".10"/>
<ellipse cx="309" cy="128.64121131929028" rx="12" ry="18" fill="#ffcf73" opacity=".82"/>
<circle cx="309" cy="128.64121131929028" r="38" fill="#ffcf73" opacity=".10"/>
<ellipse cx="389" cy="100.9569049800347" rx="12" ry="18" fill="#ef7460" opacity=".82"/>
<circle cx="389" cy="100.9569049800347" r="38" fill="#ef7460" opacity=".10"/>
<ellipse cx="485" cy="88.5119126642225" rx="12" ry="18" fill="#8adf92" opacity=".82"/>
<circle cx="485" cy="88.5119126642225" r="38" fill="#8adf92" opacity=".10"/>
<ellipse cx="570" cy="77.13423869074558" rx="12" ry="18" fill="#8adf92" opacity=".82"/>
<circle cx="570" cy="77.13423869074558" r="38" fill="#8adf92" opacity=".10"/>
<ellipse cx="669" cy="85.90566767446877" rx="12" ry="18" fill="#ffcf73" opacity=".82"/>
<circle cx="669" cy="85.90566767446877" r="38" fill="#ffcf73" opacity=".10"/>
<ellipse cx="771" cy="119.07922216976728" rx="12" ry="18" fill="#8adf92" opacity=".82"/>
<circle cx="771" cy="119.07922216976728" r="38" fill="#8adf92" opacity=".10"/>
<ellipse cx="843" cy="142.77837523472036" rx="12" ry="18" fill="#ffcf73" opacity=".82"/>
<circle cx="843" cy="142.77837523472036" r="38" fill="#ffcf73" opacity=".10"/>
<ellipse cx="928" cy="147.62753863181837" rx="12" ry="18" fill="#8adf92" opacity=".82"/>
<circle cx="928" cy="147.62753863181837" r="38" fill="#8adf92" opacity=".10"/>
<ellipse cx="1038" cy="127.47210175121165" rx="12" ry="18" fill="#8adf92" opacity=".82"/>
<circle cx="1038" cy="127.47210175121165" r="38" fill="#8adf92" opacity=".10"/>
<ellipse cx="1113" cy="96.89856265719565" rx="12" ry="18" fill="#ffcf73" opacity=".82"/>
<circle cx="1113" cy="96.89856265719565" r="38" fill="#ffcf73" opacity=".10"/>
<ellipse cx="1218" cy="75.02607358200211" rx="12" ry="18" fill="#ffcf73" opacity=".82"/>
<circle cx="1218" cy="75.02607358200211" r="38" fill="#ffcf73" opacity=".10"/>
<ellipse cx="1295" cy="77.72877947970392" rx="12" ry="18" fill="#8adf92" opacity=".82"/>
<circle cx="1295" cy="77.72877947970392" r="38" fill="#8adf92" opacity=".10"/>
<ellipse cx="1396" cy="94.21994786998478" rx="12" ry="18" fill="#ffcf73" opacity=".82"/>
<circle cx="1396" cy="94.21994786998478" r="38" fill="#ffcf73" opacity=".10"/>
<ellipse cx="1469" cy="117.10284387855387" rx="12" ry="18" fill="#ffcf73" opacity=".82"/>
<circle cx="1469" cy="117.10284387855387" r="38" fill="#ffcf73" opacity=".10"/>
<ellipse cx="1574" cy="138.0706635199774" rx="12" ry="18" fill="#8adf92" opacity=".82"/>
<circle cx="1574" cy="138.0706635199774" r="38" fill="#8adf92" opacity=".10"/><path d="M-100 578 C300 418, 600 758, 1000 578 S1400 428, 1700 618" fill="none" stroke="#ef7460" stroke-width="34" opacity="0.14"/>
<path d="M-100 539 C300 379, 600 719, 1000 539 S1400 389, 1700 579" fill="none" stroke="#ef7460" stroke-width="34" opacity="0.13"/>
<path d="M-100 234 C300 74, 600 414, 1000 234 S1400 84, 1700 274" fill="none" stroke="#8adf92" stroke-width="34" opacity="0.11"/>
<path d="M-100 688 C300 528, 600 868, 1000 688 S1400 538, 1700 728" fill="none" stroke="#ef7460" stroke-width="34" opacity="0.17"/>
<path d="M-100 394 C300 234, 600 574, 1000 394 S1400 244, 1700 434" fill="none" stroke="#8adf92" stroke-width="34" opacity="0.11"/>
<path d="M-100 157 C300 -3, 600 337, 1000 157 S1400 7, 1700 197" fill="none" stroke="#8adf92" stroke-width="34" opacity="0.10"/><circle cx="1177" cy="798" r="0.8" fill="#fff" opacity="0.55"/>
<circle cx="481" cy="170" r="0.8" fill="#fff" opacity="0.23"/>
<circle cx="1591" cy="855" r="1.1" fill="#fff" opacity="0.31"/>
<circle cx="1142" cy="754" r="1.3" fill="#fff" opacity="0.27"/>
<circle cx="1057" cy="878" r="0.9" fill="#fff" opacity="0.31"/>
<circle cx="1435" cy="864" r="1.2" fill="#fff" opacity="0.42"/>
<circle cx="1078" cy="890" r="0.7" fill="#fff" opacity="0.28"/>
<circle cx="266" cy="815" r="1.5" fill="#fff" opacity="0.49"/>
<circle cx="1498" cy="903" r="1.5" fill="#fff" opacity="0.54"/>
<circle cx="1025" cy="19" r="1.2" fill="#fff" opacity="0.55"/>
<circle cx="703" cy="373" r="1.6" fill="#fff" opacity="0.18"/>
<circle cx="244" cy="276" r="2.0" fill="#fff" opacity="0.34"/>
<circle cx="1225" cy="955" r="1.8" fill="#fff" opacity="0.49"/>
<circle cx="1599" cy="883" r="1.1" fill="#fff" opacity="0.31"/>
<circle cx="1417" cy="22" r="2.4" fill="#fff" opacity="0.51"/>
<circle cx="1028" cy="155" r="1.6" fill="#fff" opacity="0.49"/>
<circle cx="794" cy="579" r="0.8" fill="#fff" opacity="0.61"/>
<circle cx="770" cy="320" r="1.2" fill="#fff" opacity="0.39"/>
<circle cx="124" cy="383" r="2.3" fill="#fff" opacity="0.33"/>
<circle cx="878" cy="764" r="1.2" fill="#fff" opacity="0.30"/>
<circle cx="1546" cy="974" r="1.2" fill="#fff" opacity="0.51"/>
<circle cx="1066" cy="489" r="1.6" fill="#fff" opacity="0.47"/>
<circle cx="265" cy="763" r="2.2" fill="#fff" opacity="0.30"/>
<circle cx="749" cy="346" r="1.2" fill="#fff" opacity="0.53"/>
<circle cx="480" cy="516" r="1.8" fill="#fff" opacity="0.35"/>
<circle cx="536" cy="59" r="0.8" fill="#fff" opacity="0.57"/>
<circle cx="1149" cy="942" r="1.7" fill="#fff" opacity="0.49"/>
<circle cx="525" cy="508" r="1.1" fill="#fff" opacity="0.31"/>
<circle cx="290" cy="448" r="1.8" fill="#fff" opacity="0.31"/>
<circle cx="283" cy="279" r="0.8" fill="#fff" opacity="0.58"/>
<circle cx="250" cy="810" r="1.0" fill="#fff" opacity="0.25"/>
<circle cx="570" cy="365" r="0.9" fill="#fff" opacity="0.46"/>
<circle cx="1232" cy="236" r="1.4" fill="#fff" opacity="0.45"/>
<circle cx="1300" cy="985" r="1.8" fill="#fff" opacity="0.49"/>
<circle cx="734" cy="925" r="0.9" fill="#fff" opacity="0.21"/>
<circle cx="563" cy="872" r="1.3" fill="#fff" opacity="0.24"/>
<circle cx="1450" cy="608" r="1.4" fill="#fff" opacity="0.52"/>
<circle cx="1318" cy="761" r="1.6" fill="#fff" opacity="0.21"/>
<circle cx="1577" cy="322" r="1.7" fill="#fff" opacity="0.53"/>
<circle cx="432" cy="158" r="1.5" fill="#fff" opacity="0.56"/>
<circle cx="490" cy="637" r="2.2" fill="#fff" opacity="0.57"/>
<circle cx="497" cy="103" r="1.0" fill="#fff" opacity="0.35"/>
<circle cx="986" cy="400" r="0.8" fill="#fff" opacity="0.46"/>
<circle cx="1579" cy="948" r="1.7" fill="#fff" opacity="0.32"/>
<circle cx="420" cy="11" r="2.3" fill="#fff" opacity="0.19"/>
<circle cx="967" cy="279" r="1.0" fill="#fff" opacity="0.61"/>
<circle cx="209" cy="150" r="2.2" fill="#fff" opacity="0.54"/>
<circle cx="645" cy="404" r="1.9" fill="#fff" opacity="0.41"/>
<circle cx="1592" cy="356" r="1.0" fill="#fff" opacity="0.34"/>
<circle cx="455" cy="283" r="1.9" fill="#fff" opacity="0.50"/>
<circle cx="395" cy="239" r="2.4" fill="#fff" opacity="0.59"/>
<circle cx="563" cy="658" r="2.3" fill="#fff" opacity="0.29"/>
<circle cx="413" cy="128" r="1.3" fill="#fff" opacity="0.25"/>
<circle cx="131" cy="647" r="1.9" fill="#fff" opacity="0.57"/>
<circle cx="1559" cy="475" r="1.0" fill="#fff" opacity="0.47"/>
<circle cx="1328" cy="532" r="2.4" fill="#fff" opacity="0.48"/>
<circle cx="1043" cy="617" r="1.7" fill="#fff" opacity="0.58"/>
<circle cx="1408" cy="566" r="1.9" fill="#fff" opacity="0.31"/>
<circle cx="1071" cy="56" r="0.9" fill="#fff" opacity="0.34"/>
<circle cx="614" cy="746" r="1.0" fill="#fff" opacity="0.52"/>
<circle cx="684" cy="653" r="1.1" fill="#fff" opacity="0.31"/>
<circle cx="1393" cy="353" r="0.8" fill="#fff" opacity="0.54"/>
<circle cx="1150" cy="321" r="1.2" fill="#fff" opacity="0.26"/>
<circle cx="1589" cy="283" r="1.9" fill="#fff" opacity="0.38"/>
<circle cx="212" cy="562" r="1.5" fill="#fff" opacity="0.45"/>
<circle cx="1211" cy="694" r="2.0" fill="#fff" opacity="0.38"/>
<circle cx="215" cy="253" r="1.3" fill="#fff" opacity="0.20"/>
<circle cx="116" cy="863" r="2.3" fill="#fff" opacity="0.56"/>
<circle cx="431" cy="81" r="0.9" fill="#fff" opacity="0.57"/>
<circle cx="233" cy="524" r="1.6" fill="#fff" opacity="0.46"/>
  <rect width="1600" height="1000" fill="#000" opacity=".08"/>
</svg>