<svg xmlns="http://www.w3.org/2000/svg" viewBox="0 0 1600 1000" preserveAspectRatio="xMidYMid slice">
  <defs>
    <linearGradient id="g" x1="0" y1="0" x2="1" y2="1">
      <stop offset="0" stop-color="#1b243a"/>
      <stop offset=".58" stop-color="#122f4a"/>
      <stop offset="1" stop-color="#1b243a"/>
    </linearGradient>
    <radialGradient id="warm" cx=".18" cy=".12" r=".62">
      <stop offset="0" stop-color="#dcefff" stop-opacity=".32"/>
      <stop offset="1" stop-color="#dcefff" stop-opacity="0"/>
    </radialGradient>
    <radialGradient id="cool" cx=".86" cy=".24" r=".58">
      <stop offset="0" stop-color="#90e4ff" stop-opacity=".24"/>
      <stop offset="1" stop-color="#90e4ff" stop-opacity="0"/>
    </radialGradient>
  </defs>
  <rect width="1600" height="1000" fill="url(#g)"/>
  <rect width="1600" height="1000" fill="url(#warm)"/>
  <rect width="1600" height="1000" fill="url(#cool)"/>
  <circle cx="1280" cy="820" r="360" fill="#ffffff" opacity=".06"/>
  <circle cx="130" cy="930" r="310" fill="#ffffff" opacity=".05"/>
  <circle cx="353" cy="726" r="177" fill="#dcefff" opacity="0.22"/>
<circle cx="1289" cy="615" r="223" fill="#ff8a9c" opacity="0.12"/>
<circle cx="1185" cy="427" r="117" fill="#dcefff" opacity="0.18"/>
<circle cx="151" cy="660" r="195" fill="#90e4ff" opacity="0.18"/>
<circle cx="288" cy="523" r="73" fill="#90e4ff" opacity="0.11"/>
<circle cx="1345" cy="986" r="84" fill="#90e4ff" opacity="0.17"/>
<circle cx="144" cy="895" r="144" fill="#90e4ff" opacity="0.20"/>
<circle cx="813" cy="1013" r="184" fill="#90e4ff" opacity="0.11"/>
<circle cx="1633" cy="114" r="165" fill="#90e4ff" opacity="0.14"/>
<circle cx="572" cy="421" r="96" fill="#dcefff" opacity="0.11"/>
<circle cx="281" cy="818" r="168" fill="#dcefff" opacity="0.19"/>
<circle cx="465" cy="286" r="127" fill="#90e4ff" opacity="0.09"/>
<circle cx="16" cy="918" r="140" fill="#dcefff" opacity="0.18"/>
<circle cx="-74" cy="847" r="233" fill="#90e4ff" opacity="0.11"/>
<circle cx="422" cy="835" r="183" fill="#ff8a9c" opacity="0.17"/>
<circle cx="-1" cy="-7" r="149" fill="#ff8a9c" opacity="0.19"/><path d="M-86 1013 L-16 677 L54 1013 Z" fill="#071f18" opacity="0.45"/>
<path d="M-66 933 L-16 637 L34 933 Z" fill="#071f18" opacity="0.50"/>
<path d="M109 1047 L179 725 L249 1047 Z" fill="#071f18" opacity="0.27"/>
<path d="M129 967 L179 685 L229 967 Z" fill="#071f18" opacity="0.32"/>
<path d="M307 1004 L377 768 L447 1004 Z" fill="#071f18" opacity="0.28"/>
<path d="M327 924 L377 728 L427 924 Z" fill="#071f18" opacity="0.33"/>
<path d="M443 1067 L513 667 L583 1067 Z" fill="#071f18" opacity="0.35"/>
<path d="M463 987 L513 627 L563 987 Z" fill="#071f18" opacity="0.40"/>
<path d="M686 1067 L756 697 L826 1067 Z" fill="#071f18" opacity="0.35"/>
<path d="M706 987 L756 657 L806 987 Z" fill="#071f18" opacity="0.40"/>
<path d="M824 984 L894 651 L964 984 Z" fill="#071f18" opacity="0.38"/>
<path d="M844 904 L894 611 L944 904 Z" fill="#071f18" opacity="0.43"/>
<path d="M1069 988 L1139 659 L1209 988 Z" fill="#071f18" opacity="0.31"/>
<path d="M1089 908 L1139 619 L1189 908 Z" fill="#071f18" opacity="0.36"/>
<path d="M1253 1061 L1323 849 L1393 1061 Z" fill="#071f18" opacity="0.40"/>
<path d="M1273 981 L1323 809 L1373 981 Z" fill="#071f18" opacity="0.45"/>
<path d="M1441 981 L1511 598 L1581 981 Z" fill="#071f18" opacity="0.35"/>
<path d="M1461 901 L1511 558 L1561 901 Z" fill="#071f18" opacity="0.40"/>
<path d="M1592 1026 L1662 629 L1732 1026 Z" fill="#071f18" opacity="0.22"/>
<path d="M1612 946 L1662 589 L1712 946 Z" fill="#071f18" opacity="0.27"/><path d="M780 749.5743160113516 L781.198989396027 751.801010603973 L783.4256839886484 753 L781.198989396027 754.198989396027 L780 756.4256839886484 L778.801010603973 754.198989396027 L776.5743160113516 753 L778.801010603973 751.801010603973 Z" fill="#fff8d8" opacity="0.50"/>
<path d="M233 601.0500950939618 L233.68246671711336 602.3175332828866 L234.9499049060382 603 L233.68246671711336 603.6824667171134 L233 604.9499049060382 L232.31753328288664 603.6824667171134 L231.0500950939618 603 L232.31753328288664 602.3175332828866 Z" fill="#fff8d8" opacity="0.43"/>
<path d="M1446 58.77407464342987 L1447.1290738747996 60.870926125200455 L1449.22592535657 62 L1447.1290738747996 63.129073874799545 L1446 65.22592535657013 L1444.8709261252004 63.129073874799545 L1442.77407464343 62 L1444.8709261252004 60.870926125200455 Z" fill="#fff8d8" opacity="0.21"/>
<path d="M1564 170.45566464796858 L1565.240517373211 172.759482626789 L1567.5443353520313 174 L1565.240517373211 175.240517373211 L1564 177.54433535203142 L1562.759482626789 175.240517373211 L1560.4556646479687 174 L1562.759482626789 172.759482626789 Z" fill="#fff8d8" opacity="0.39"/>
<path d="M1379 851.2902029532747 L1379.948428966354 853.0515710336462 L1381.7097970467253 854 L1379.948428966354 854.9484289663538 L1379 856.7097970467253 L1378.051571033646 854.9484289663538 L1376.2902029532747 854 L1378.051571033646 853.0515710336462 Z" fill="#fff8d8" opacity="0.31"/>
<path d="M107 39.12784286603586 L107.65525499688745 40.34474500311255 L108.87215713396414 41 L107.65525499688745 41.65525499688745 L107 42.87215713396414 L106.34474500311255 41.65525499688745 L105.12784286603586 41 L106.34474500311255 40.34474500311255 Z" fill="#fff8d8" opacity="0.28"/>
<path d="M1597 192.01970482196174 L1598.3931033123133 194.6068966876866 L1600.9802951780382 196 L1598.3931033123133 197.3931033123134 L1597 199.98029517803826 L1595.6068966876867 197.3931033123134 L1593.0197048219618 196 L1595.6068966876867 194.6068966876866 Z" fill="#fff8d8" opacity="0.39"/>
<path d="M17 956.7946365696707 L17.771877200615233 958.2281227993848 L19.205363430329232 959 L17.771877200615233 959.7718772006152 L17 961.2053634303293 L16.228122799384767 959.7718772006152 L14.794636569670768 959 L16.228122799384767 958.2281227993848 Z" fill="#fff8d8" opacity="0.50"/>
<path d="M776 7.040925249893497 L777.0356761625372 8.964323837462723 L778.9590747501065 10 L777.0356761625372 11.035676162537277 L776 12.959074750106502 L774.9643238374628 11.035676162537277 L773.0409252498935 10 L774.9643238374628 8.964323837462723 Z" fill="#fff8d8" opacity="0.19"/>
<path d="M1542 780.0062995435461 L1542.697795159759 781.3022048402412 L1543.9937004564538 782 L1542.697795159759 782.6977951597588 L1542 783.9937004564539 L1541.302204840241 782.6977951597588 L1540.0062995435462 782 L1541.302204840241 781.3022048402412 Z" fill="#fff8d8" opacity="0.28"/>
<path d="M561 595.0976485346556 L561.6658230128705 596.3341769871295 L562.9023514653444 597 L561.6658230128705 597.6658230128705 L561 598.9023514653444 L560.3341769871295 597.6658230128705 L559.0976485346556 597 L560.3341769871295 596.3341769871295 Z" fill="#fff8d8" opacity="0.53"/>
<path d="M284 930.8719523538542 L285.094816676151 932.905183323849 L287.1280476461458 934 L285.094816676151 935.094816676151 L284 937.1280476461458 L282.905183323849 935.094816676151 L280.8719523538542 934 L282.905183323849 932.905183323849 Z" fill="#fff8d8" opacity="0.34"/>
<path d="M1301 75.38954138481388 L1301.5636605153152 76.43633948468486 L1302.6104586151862 77 L1301.5636605153152 77.56366051531514 L1301 78.61045861518612 L1300.4363394846848 77.56366051531514 L1299.3895413848138 77 L1300.4363394846848 76.43633948468486 Z" fill="#fff8d8" opacity="0.37"/>
<path d="M758 226.89680371420476 L759.0861187000284 228.91388129997168 L761.1031962857952 230 L759.0861187000284 231.08611870002832 L758 233.10319628579524 L756.9138812999716 231.08611870002832 L754.8968037142048 230 L756.9138812999716 228.91388129997168 Z" fill="#fff8d8" opacity="0.26"/>
<path d="M848 859.5338330324062 L848.8631584386578 861.1368415613422 L850.4661669675938 862 L848.8631584386578 862.8631584386578 L848 864.4661669675938 L847.1368415613422 862.8631584386578 L845.5338330324062 862 L847.1368415613422 861.1368415613422 Z" fill="#fff8d8" opacity="0.51"/>
<path d="M459 15.405700978014451 L460.2580046576949 17.741995342305056 L462.59429902198553 19 L460.2580046576949 20.258004657694944 L459 22.59429902198555 L457.7419953423051 20.258004657694944 L455.40570097801447 19 L457.7419953423051 17.741995342305056 Z" fill="#fff8d8" opacity="0.29"/>
<path d="M1163 914.1996736778786 L1163.6301142127425 915.3698857872575 L1164.8003263221215 916 L1163.6301142127425 916.6301142127425 L1163 917.8003263221214 L1162.3698857872575 916.6301142127425 L1161.1996736778785 916 L1162.3698857872575 915.3698857872575 Z" fill="#fff8d8" opacity="0.21"/>
<path d="M679 24.701820310722677 L680.154362891247 26.845637108752936 L682.2981796892773 28 L680.154362891247 29.154362891247064 L679 31.298179689277323 L677.845637108753 29.154362891247064 L675.7018203107227 28 L677.845637108753 26.845637108752936 Z" fill="#fff8d8" opacity="0.45"/>
<path d="M1186 914.0980487436179 L1187.3656829397337 916.6343170602663 L1189.901951256382 918 L1187.3656829397337 919.3656829397337 L1186 921.9019512563821 L1184.6343170602663 919.3656829397337 L1182.098048743618 918 L1184.6343170602663 916.6343170602663 Z" fill="#fff8d8" opacity="0.36"/>
<path d="M1200 868.2282592721638 L1200.9701092547427 870.0298907452573 L1202.7717407278362 871 L1200.9701092547427 871.9701092547427 L1200 873.7717407278362 L1199.0298907452573 871.9701092547427 L1197.2282592721638 871 L1199.0298907452573 870.0298907452573 Z" fill="#fff8d8" opacity="0.50"/>
<path d="M490 603.481960544729 L491.2313138093449 605.7686861906551 L493.51803945527104 607 L491.2313138093449 608.2313138093449 L490 610.518039455271 L488.7686861906551 608.2313138093449 L486.48196054472896 607 L488.7686861906551 605.7686861906551 Z" fill="#fff8d8" opacity="0.32"/>
<path d="M1102 259.7414453028903 L1102.7904941439883 261.2095058560116 L1104.2585546971097 262 L1102.7904941439883 262.7904941439884 L1102 264.2585546971097 L1101.2095058560117 262.7904941439884 L1099.7414453028903 262 L1101.2095058560117 261.2095058560116 Z" fill="#fff8d8" opacity="0.35"/>
<path d="M837 634.3275664110747 L837.9353517561239 636.0646482438761 L839.6724335889253 637 L837.9353517561239 637.9353517561239 L837 639.6724335889253 L836.0646482438761 637.9353517561239 L834.3275664110747 637 L836.0646482438761 636.0646482438761 Z" fill="#fff8d8" opacity="0.24"/>
<path d="M1083 710.2536774329328 L1084.3112128984735 712.6887871015265 L1086.7463225670672 714 L1084.3112128984735 715.3112128984735 L1083 717.7463225670672 L1081.6887871015265 715.3112128984735 L1079.2536774329328 714 L1081.6887871015265 712.6887871015265 Z" fill="#fff8d8" opacity="0.35"/>
<path d="M365 595.093219344999 L366.36737322925035 597.6326267707497 L368.90678065500094 599 L366.36737322925035 600.3673732292503 L365 602.906780655001 L363.63262677074965 600.3673732292503 L361.09321934499906 599 L363.63262677074965 597.6326267707497 Z" fill="#fff8d8" opacity="0.33"/>
<path d="M1002 935.8089827452625 L1002.7668560391581 937.2331439608419 L1004.1910172547375 938 L1002.7668560391581 938.7668560391581 L1002 940.1910172547375 L1001.2331439608419 938.7668560391581 L999.8089827452625 938 L1001.2331439608419 937.2331439608419 Z" fill="#fff8d8" opacity="0.50"/>
<path d="M381 4.7673946979151145 L382.1314118557297 6.86858814427029 L384.2326053020849 8 L382.1314118557297 9.13141185572971 L381 11.232605302084885 L379.8685881442703 9.13141185572971 L377.7673946979151 8 L379.8685881442703 6.86858814427029 Z" fill="#fff8d8" opacity="0.49"/>
<path d="M1556 360.8837920942996 L1556.7406727669952 362.25932723300485 L1558.1162079057003 363 L1556.7406727669952 363.74067276699515 L1556 365.1162079057004 L1555.2593272330048 363.74067276699515 L1553.8837920942997 363 L1555.2593272330048 362.25932723300485 Z" fill="#fff8d8" opacity="0.33"/>
<path d="M1032 517.5638390033065 L1033.2026563488428 519.7973436511572 L1035.4361609966934 521 L1033.2026563488428 522.2026563488428 L1032 524.4361609966935 L1030.7973436511572 522.2026563488428 L1028.5638390033066 521 L1030.7973436511572 519.7973436511572 Z" fill="#fff8d8" opacity="0.45"/>
<path d="M1213 140.2924372996101 L1213.5976469451364 141.40235305486354 L1214.7075627003899 142 L1213.5976469451364 142.59764694513646 L1213 143.7075627003899 L1212.4023530548636 142.59764694513646 L1211.2924372996101 142 L1212.4023530548636 141.40235305486354 Z" fill="#fff8d8" opacity="0.28"/>
<path d="M455 56.922846267729945 L456.0770038062945 58.92299619370548 L458.07715373227006 60 L456.0770038062945 61.07700380629452 L455 63.077153732270055 L453.9229961937055 61.07700380629452 L451.92284626772994 60 L453.9229961937055 58.92299619370548 Z" fill="#fff8d8" opacity="0.18"/>
<path d="M869 43.03335775325768 L869.6883247863598 44.311675213640186 L870.9666422467424 45 L869.6883247863598 45.688324786359814 L869 46.96664224674232 L868.3116752136402 45.688324786359814 L867.0333577532576 45 L868.3116752136402 44.311675213640186 Z" fill="#fff8d8" opacity="0.42"/>
<path d="M1362 867.1176103343557 L1362.6588363829756 868.3411636170244 L1363.8823896656443 869 L1362.6588363829756 869.6588363829756 L1362 870.8823896656443 L1361.3411636170244 869.6588363829756 L1360.1176103343557 869 L1361.3411636170244 868.3411636170244 Z" fill="#fff8d8" opacity="0.27"/>
<path d="M400 440.27759681122376 L400.60284111607166 441.39715888392834 L401.72240318877624 442 L400.60284111607166 442.60284111607166 L400 443.72240318877624 L399.39715888392834 442.60284111607166 L398.27759681122376 442 L399.39715888392834 441.39715888392834 Z" fill="#fff8d8" opacity="0.37"/>
<path d="M426 27.675250570104616 L426.81366230046336 29.186337699536615 L428.3247494298954 30 L426.81366230046336 30.813662300463385 L426 32.324749429895384 L425.18633769953664 30.813662300463385 L423.6752505701046 30 L425.18633769953664 29.186337699536615 Z" fill="#fff8d8" opacity="0.30"/>
<path d="M595 879.5681062930097 L595.8511627974466 881.1488372025534 L597.4318937069903 882 L595.8511627974466 882.8511627974466 L595 884.4318937069903 L594.1488372025534 882.8511627974466 L592.5681062930097 882 L594.1488372025534 881.1488372025534 Z" fill="#fff8d8" opacity="0.40"/>
<path d="M935 585.9301406261567 L935.7244507808451 587.2755492191549 L937.0698593738433 588 L935.7244507808451 588.7244507808451 L935 590.0698593738433 L934.2755492191549 588.7244507808451 L932.9301406261567 588 L934.2755492191549 587.2755492191549 Z" fill="#fff8d8" opacity="0.27"/>
<path d="M852 894.1178694855205 L853.0087456800678 895.9912543199322 L854.8821305144795 897 L853.0087456800678 898.0087456800678 L852 899.8821305144795 L850.9912543199322 898.0087456800678 L849.1178694855205 897 L850.9912543199322 895.9912543199322 Z" fill="#fff8d8" opacity="0.55"/><circle cx="469" cy="456" r="1.5" fill="#fff" opacity="0.34"/>
<circle cx="552" cy="851" r="1.3" fill="#fff" opacity="0.51"/>
<circle cx="912" cy="934" r="1.8" fill="#fff" opacity="0.42"/>
<circle cx="1231" cy="295" r="2.2" fill="#fff" opacity="0.23"/>
<circle cx="233" cy="708" r="0.8" fill="#fff" opacity="0.33"/>
<circle cx="1515" cy="955" r="2.3" fill="#fff" opacity="0.55"/>
<circle cx="1181" cy="346" r="1.2" fill="#fff" opacity="0.30"/>
<circle cx="1291" cy="682" r="2.2" fill="#fff" opacity="0.32"/>
<circle cx="257" cy="833" r="2.1" fill="#fff" opacity="0.36"/>
<circle cx="69" cy="356" r="1.7" fill="#fff" opacity="0.43"/>
<circle cx="156" cy="559" r="1.6" fill="#fff" opacity="0.30"/>
<circle cx="1587" cy="706" r="1.5" fill="#fff" opacity="0.42"/>
<circle cx="344" cy="11" r="1.4" fill="#fff" opacity="0.28"/>
<circle cx="1155" cy="392" r="0.9" fill="#fff" opacity="0.26"/>
<circle cx="983" cy="763" r="0.8" fill="#fff" opacity="0.35"/>
<circle cx="1148" cy="953" r="1.2" fill="#fff" opacity="0.26"/>
<circle cx="193" cy="176" r="0.9" fill="#fff" opacity="0.55"/>
<circle cx="69" cy="6" r="2.4" fill="#fff" opacity="0.44"/>
<circle cx="542" cy="662" r="1.2" fill="#fff" opacity="0.18"/>
<circle cx="1430" cy="122" r="2.1" fill="#fff" opacity="0.46"/>
<circle cx="789" cy="127" r="1.8" fill="#fff" opacity="0.40"/>
<circle cx="831" cy="432" r="1.4" fill="#fff" opacity="0.33"/>
<circle cx="1388" cy="655" r="1.8" fill="#fff" opacity="0.34"/>
<circle cx="1108" cy="619" r="1.6" fill="#fff" opacity="0.45"/>
<circle cx="109" cy="906" r="2.1" fill="#fff" opacity="0.31"/>
<circle cx="1190" cy="854" r="2.3" fill="#fff" opacity="0.49"/>
<circle cx="308" cy="694" r="1.2" fill="#fff" opacity="0.47"/>
<circle cx="1402" cy="930" r="2.2" fill="#fff" opacity="0.58"/>
<circle cx="26" cy="883" r="1.2" fill="#fff" opacity="0.34"/>
<circle cx="1308" cy="489" r="1.0" fill="#fff" opacity="0.32"/>
<circle cx="580" cy="273" r="1.2" fill="#fff" opacity="0.25"/>
<circle cx="1140" cy="606" r="1.5" fill="#fff" opacity="0.25"/>
<circle cx="945" cy="791" r="0.8" fill="#fff" opacity="0.22"/>
<circle cx="1365" cy="616" r="2.0" fill="#fff" opacity="0.45"/>
<circle cx="1316" cy="888" r="0.9" fill="#fff" opacity="0.31"/>
<circle cx="1356" cy="577" r="1.4" fill="#fff" opacity="0.48"/>
<circle cx="769" cy="42" r="0.7" fill="#fff" opacity="0.58"/>
<circle cx="289" cy="902" r="1.0" fill="#fff" opacity="0.40"/>
<circle cx="739" cy="800" r="1.2" fill="#fff" opacity="0.53"/>
<circle cx="1340" cy="425" r="1.5" fill="#fff" opacity="0.21"/>
<circle cx="122" cy="655" r="1.2" fill="#fff" opacity="0.56"/>
<circle cx="57" cy="130" r="1.7" fill="#fff" opacity="0.21"/>
<circle cx="191" cy="948" r="1.7" fill="#fff" opacity="0.47"/>
<circle cx="1004" cy="316" r="1.0" fill="#fff" opacity="0.40"/>
<circle cx="1430" cy="560" r="2.0" fill="#fff" opacity="0.58"/>
<circle cx="1569" cy="929" r="2.2" fill="#fff" opacity="0.38"/>
<circle cx="1575" cy="920" r="1.7" fill="#fff" opacity="0.50"/>
<circle cx="1300" cy="221" r="0.8" fill="#fff" opacity="0.30"/>
<circle cx="1285" cy="257" r="1.5" fill="#fff" opacity="0.31"/>
<circle cx="441" cy="144" r="0.7" fill="#fff" opacity="0.29"/>
<circle cx="1087" cy="999" r="1.0" fill="#fff" opacity="0.36"/>
<circle cx="808" cy="69" r="1.5" fill="#fff" opacity="0.33"/>
<circle cx="1533" cy="275" r="1.0" fill="#fff" opacity="0.36"/>
<circle cx="917" cy="792" r="1.6" fill="#fff" opacity="0.36"/>
<circle cx="1559" cy="47" r="1.6" fill="#fff" opacity="0.25"/>
<circle cx="559" cy="295" r="2.0" fill="#fff" opacity="0.59"/>
<circle cx="692" cy="359" r="2.0" fill="#fff" opacity="0.32"/>
<circle cx="355" cy="814" r="0.8" fill="#fff" opacity="0.32"/>
<circle cx="717" cy="381" r="0.9" fill="#fff" opacity="0.37"/>
<circle cx="758" cy="875" r="2.2" fill="#fff" opacity="0.53"/>
<circle cx="1244" cy="837" r="1.2" fill="#fff" opacity="0.62"/>
<circle cx="1009" cy="61" r="1.7" fill="#fff" opacity="0.41"/>
<circle cx="281" cy="333" r="2.3" fill="#fff" opacity="0.51"/>
<circle cx="1598" cy="462" r="2.1" fill="#fff" opacity="0.46"/>
<circle cx="765" cy="213" r="1.6" fill="#fff" opacity="0.38"/>
<circle cx="1406" cy="781" r="0.9" fill="#fff" opacity="0.51"/>
<circle cx="289" cy="919" r="1.1" fill="#fff" opacity="0.21"/>
<circle cx="1176" cy="318" r="1.5" fill="#fff" opacity="0.47"/>
<circle cx="1580" cy="646" r="1.7" fill="#fff" opacity="0.41"/>
<circle cx="565" cy="749" r="1.8" fill="#fff" opacity="0.50"/>
<circle cx="1511" cy="312" r="1.9" fill="#fff" opacity="0.22"/>
<circle cx="1359" cy="582" r="2.3" fill="#fff" opacity="0.19"/>
<circle cx="919" cy="430" r="1.4" fill="#fff" opacity="0.46"/>
<circle cx="635" cy="892" r="1.5" fill="#fff" opacity="0.26"/>
<circle cx="1295" cy="683" r="1.0" fill="#fff" opacity="0.39"/>
<circle cx="364" cy="306" r="1.8" fill="#fff" opacity="0.20"/>
<circle cx="1228" cy="678" r="1.4" fill="#fff" opacity="0.49"/>
<circle cx="1256" cy="783" r="1.0" fill="#fff" opacity="0.49"/>
<circle cx="9" cy="578" r="0.7" fill="#fff" opacity="0.55"/>
<circle cx="1090" cy="885" r="1.9" fill="#fff" opacity="0.44"/>
<circle cx="1364" cy="178" r="2.2" fill="#fff" opacity="0.62"/>
<circle cx="1282" cy="99" r="1.3" fill="#fff" opacity="0.53"/>
<circle cx="34" cy="936" r="1.6" fill="#fff" opacity="0.42"/>
<circle cx="553" cy="708" r="2.2" fill="#fff" opacity="0.46"/>
<circle cx="1096" cy="179" r="2.2" fill="#fff" opacity="0.33"/>
<circle cx="866" cy="833" r="2.3" fill="#fff" opacity="0.24"/>
<circle cx="1592" cy="79" r="2.0" fill="#fff" opacity="0.24"/>
<circle cx="466" cy="810" r="1.3" fill="#fff" opacity="0.54"/>
<circle cx="622" cy="981" r="2.2" fill="#fff" opacity="0.53"/>
<circle cx="1057" cy="994" r="2.1" fill="#fff" opacity="0.23"/>
  <rect width="1600" height="1000" fill="#000" opacity=".08"/>
</svg>