<svg xmlns="http://www.w3.org/2000/svg" viewBox="0 0 1200 800" width="1200" height="800">
  <defs>
    <radialGradient id="g" cx="50%" cy="42%" r="75%">
      <stop offset="0" stop-color="#2b415d"/>
      <stop offset="1" stop-color="#152c44"/>
    </radialGradient>
    <pattern id="snow" width="120" height="120" patternUnits="userSpaceOnUse">
      <circle cx="20" cy="28" r="2.4" fill="#fff" opacity=".55"/>
      <circle cx="90" cy="70" r="1.8" fill="#fff" opacity=".45"/>
      <circle cx="64" cy="18" r="1.3" fill="#fff" opacity=".35"/>
      <circle cx="42" cy="100" r="1.7" fill="#fff" opacity=".4"/>
    </pattern>
    <linearGradient id="shine" x1="0" x2="1" y1="0" y2="1">
      <stop offset="0" stop-color="#ffffff" stop-opacity=".16"/>
      <stop offset="1" stop-color="#ffffff" stop-opacity="0"/>
    </linearGradient>
  </defs>
  <rect width="1200" height="800" fill="url(#g)"/>
  <rect width="1200" height="800" fill="url(#snow)"/>
  <circle cx="-60" cy="820" r="360" fill="#fff" opacity=".08"/>
  <circle cx="1260" cy="-70" r="390" fill="#c9f1ff" opacity=".10"/>
  
<g transform="translate(650 360)">
 <circle cx="0" cy="0" r="175" fill="#d6f5ff" opacity=".34" stroke="#fff" stroke-width="10"/>
 <path d="M-150 60 q150 70 300 0 v80 h-300z" fill="#fff" opacity=".65"/>
 <path d="M0 -100 L-80 60 h160z" fill="#25ba68"/><rect x="-22" y="60" width="44" height="45" fill="#77472d"/>
 <rect x="-145" y="165" width="290" height="78" rx="22" fill="#7b4b32"/>
</g>
  <rect width="1200" height="800" fill="url(#shine)"/>
</svg>