<svg xmlns="http://www.w3.org/2000/svg" viewBox="0 0 1600 1000" preserveAspectRatio="xMidYMid slice">
  <defs>
    <linearGradient id="g" x1="0" y1="0" x2="1" y2="1">
      <stop offset="0" stop-color="#2a1320"/>
      <stop offset=".58" stop-color="#4a2938"/>
      <stop offset="1" stop-color="#2a1320"/>
    </linearGradient>
    <radialGradient id="warm" cx=".18" cy=".12" r=".62">
      <stop offset="0" stop-color="#ffd580" stop-opacity=".32"/>
      <stop offset="1" stop-color="#ffd580" stop-opacity="0"/>
    </radialGradient>
    <radialGradient id="cool" cx=".86" cy=".24" r=".58">
      <stop offset="0" stop-color="#96e69b" stop-opacity=".24"/>
      <stop offset="1" stop-color="#96e69b" stop-opacity="0"/>
    </radialGradient>
  </defs>
  <rect width="1600" height="1000" fill="url(#g)"/>
  <rect width="1600" height="1000" fill="url(#warm)"/>
  <rect width="1600" height="1000" fill="url(#cool)"/>
  <circle cx="1280" cy="820" r="360" fill="#ffffff" opacity=".06"/>
  <circle cx="130" cy="930" r="310" fill="#ffffff" opacity=".05"/>
  <circle cx="705" cy="-1" r="177" fill="#f06776" opacity="0.20"/>
<circle cx="746" cy="288" r="91" fill="#f06776" opacity="0.21"/>
<circle cx="1050" cy="43" r="204" fill="#96e69b" opacity="0.17"/>
<circle cx="1067" cy="-39" r="156" fill="#96e69b" opacity="0.15"/>
<circle cx="102" cy="95" r="118" fill="#f06776" opacity="0.20"/>
<circle cx="1121" cy="711" r="175" fill="#96e69b" opacity="0.22"/>
<circle cx="1569" cy="41" r="113" fill="#f06776" opacity="0.14"/>
<circle cx="203" cy="822" r="193" fill="#f06776" opacity="0.22"/>
<circle cx="1033" cy="144" r="165" fill="#ffd580" opacity="0.20"/>
<circle cx="899" cy="540" r="103" fill="#ffd580" opacity="0.15"/>
<circle cx="-90" cy="703" r="179" fill="#f06776" opacity="0.11"/>
<circle cx="87" cy="391" r="116" fill="#ffd580" opacity="0.18"/>
<circle cx="1429" cy="553" r="159" fill="#96e69b" opacity="0.19"/>
<circle cx="799" cy="909" r="118" fill="#f06776" opacity="0.10"/>
<circle cx="1573" cy="916" r="217" fill="#f06776" opacity="0.16"/>
<circle cx="1629" cy="934" r="147" fill="#f06776" opacity="0.17"/>
    <pattern id="plaid" width="96" height="96" patternUnits="userSpaceOnUse">
      <rect width="96" height="96" fill="transparent"/>
      <path d="M0 24H96 M0 72H96 M24 0V96 M72 0V96" stroke="#ffd580" stroke-width="2" opacity=".18"/>
      <path d="M0 48H96 M48 0V96" stroke="#96e69b" stroke-width="8" opacity=".06"/>
    </pattern>
    <rect width="1600" height="1000" fill="url(#plaid)" opacity=".9"/><circle cx="1230" cy="143" r="2.1" fill="#fff" opacity="0.29"/>
<circle cx="15" cy="342" r="2.2" fill="#fff" opacity="0.36"/>
<circle cx="1087" cy="454" r="0.8" fill="#fff" opacity="0.38"/>
<circle cx="888" cy="758" r="1.2" fill="#fff" opacity="0.36"/>
<circle cx="395" cy="813" r="1.8" fill="#fff" opacity="0.31"/>
<circle cx="921" cy="398" r="2.0" fill="#fff" opacity="0.61"/>
<circle cx="771" cy="870" r="1.6" fill="#fff" opacity="0.37"/>
<circle cx="419" cy="239" r="0.7" fill="#fff" opacity="0.61"/>
<circle cx="1172" cy="101" r="1.7" fill="#fff" opacity="0.57"/>
<circle cx="1203" cy="447" r="1.9" fill="#fff" opacity="0.46"/>
<circle cx="1144" cy="29" r="2.3" fill="#fff" opacity="0.18"/>
<circle cx="1578" cy="822" r="1.5" fill="#fff" opacity="0.44"/>
<circle cx="900" cy="509" r="1.2" fill="#fff" opacity="0.31"/>
<circle cx="185" cy="891" r="0.9" fill="#fff" opacity="0.44"/>
<circle cx="1446" cy="879" r="1.7" fill="#fff" opacity="0.30"/>
<circle cx="1495" cy="57" r="1.1" fill="#fff" opacity="0.36"/>
<circle cx="872" cy="893" r="2.3" fill="#fff" opacity="0.31"/>
<circle cx="497" cy="187" r="1.7" fill="#fff" opacity="0.44"/>
<circle cx="531" cy="740" r="1.4" fill="#fff" opacity="0.56"/>
<circle cx="1159" cy="112" r="2.2" fill="#fff" opacity="0.22"/>
<circle cx="1323" cy="475" r="1.1" fill="#fff" opacity="0.60"/>
<circle cx="233" cy="954" r="2.0" fill="#fff" opacity="0.47"/>
<circle cx="1263" cy="441" r="2.2" fill="#fff" opacity="0.53"/>
<circle cx="158" cy="479" r="1.4" fill="#fff" opacity="0.40"/>
<circle cx="33" cy="342" r="0.7" fill="#fff" opacity="0.53"/>
<circle cx="1440" cy="41" r="2.0" fill="#fff" opacity="0.53"/>
<circle cx="717" cy="92" r="1.8" fill="#fff" opacity="0.24"/>
<circle cx="1422" cy="180" r="1.2" fill="#fff" opacity="0.41"/>
<circle cx="1553" cy="490" r="2.0" fill="#fff" opacity="0.28"/>
<circle cx="352" cy="26" r="1.2" fill="#fff" opacity="0.45"/>
<circle cx="1280" cy="578" r="1.5" fill="#fff" opacity="0.59"/>
<circle cx="1071" cy="959" r="1.4" fill="#fff" opacity="0.23"/>
<circle cx="103" cy="430" r="2.3" fill="#fff" opacity="0.31"/>
<circle cx="1593" cy="837" r="2.3" fill="#fff" opacity="0.55"/>
<circle cx="112" cy="374" r="1.1" fill="#fff" opacity="0.37"/>
<circle cx="359" cy="411" r="1.8" fill="#fff" opacity="0.45"/>
<circle cx="1432" cy="386" r="1.3" fill="#fff" opacity="0.21"/>
<circle cx="736" cy="805" r="1.3" fill="#fff" opacity="0.56"/>
<circle cx="1546" cy="230" r="1.9" fill="#fff" opacity="0.54"/>
<circle cx="1549" cy="193" r="0.9" fill="#fff" opacity="0.25"/>
<circle cx="1002" cy="33" r="0.9" fill="#fff" opacity="0.39"/>
<circle cx="468" cy="961" r="1.6" fill="#fff" opacity="0.42"/>
<circle cx="394" cy="217" r="1.0" fill="#fff" opacity="0.41"/>
<circle cx="979" cy="197" r="1.1" fill="#fff" opacity="0.19"/>
<circle cx="1376" cy="484" r="2.4" fill="#fff" opacity="0.20"/>
<circle cx="660" cy="343" r="0.9" fill="#fff" opacity="0.27"/>
<circle cx="888" cy="387" r="0.8" fill="#fff" opacity="0.37"/>
<circle cx="1099" cy="85" r="1.0" fill="#fff" opacity="0.40"/>
<circle cx="273" cy="705" r="2.1" fill="#fff" opacity="0.20"/>
<circle cx="925" cy="664" r="1.6" fill="#fff" opacity="0.40"/>
<circle cx="176" cy="230" r="0.9" fill="#fff" opacity="0.38"/>
<circle cx="883" cy="709" r="2.3" fill="#fff" opacity="0.61"/>
<circle cx="187" cy="641" r="1.3" fill="#fff" opacity="0.18"/>
<circle cx="397" cy="864" r="1.4" fill="#fff" opacity="0.49"/>
<circle cx="790" cy="176" r="1.5" fill="#fff" opacity="0.29"/>
<circle cx="653" cy="488" r="1.7" fill="#fff" opacity="0.42"/>
<circle cx="56" cy="894" r="0.9" fill="#fff" opacity="0.43"/>
<circle cx="418" cy="591" r="1.6" fill="#fff" opacity="0.45"/>
<circle cx="725" cy="782" r="1.1" fill="#fff" opacity="0.50"/>
<circle cx="1057" cy="494" r="1.9" fill="#fff" opacity="0.47"/>
<circle cx="83" cy="71" r="1.3" fill="#fff" opacity="0.20"/>
<circle cx="182" cy="181" r="0.9" fill="#fff" opacity="0.48"/>
<circle cx="452" cy="732" r="0.8" fill="#fff" opacity="0.58"/>
<circle cx="1470" cy="847" r="0.7" fill="#fff" opacity="0.23"/>
<circle cx="871" cy="649" r="2.0" fill="#fff" opacity="0.20"/>
<circle cx="1274" cy="31" r="1.6" fill="#fff" opacity="0.32"/>
<circle cx="128" cy="494" r="2.2" fill="#fff" opacity="0.35"/>
<circle cx="617" cy="579" r="1.2" fill="#fff" opacity="0.50"/>
<circle cx="1337" cy="264" r="1.8" fill="#fff" opacity="0.31"/>
<circle cx="371" cy="312" r="0.7" fill="#fff" opacity="0.38"/>
<circle cx="1101" cy="45" r="1.9" fill="#fff" opacity="0.49"/>
<circle cx="904" cy="634" r="1.5" fill="#fff" opacity="0.59"/>
<circle cx="374" cy="880" r="1.4" fill="#fff" opacity="0.41"/>
<circle cx="276" cy="845" r="1.5" fill="#fff" opacity="0.34"/>
<circle cx="1501" cy="887" r="0.8" fill="#fff" opacity="0.20"/>
<circle cx="1056" cy="527" r="2.0" fill="#fff" opacity="0.45"/>
<circle cx="885" cy="127" r="1.9" fill="#fff" opacity="0.54"/>
<circle cx="1065" cy="272" r="2.0" fill="#fff" opacity="0.31"/>
<circle cx="1021" cy="41" r="2.1" fill="#fff" opacity="0.31"/>
<circle cx="436" cy="709" r="1.8" fill="#fff" opacity="0.35"/>
<circle cx="324" cy="149" r="2.2" fill="#fff" opacity="0.23"/>
<circle cx="209" cy="339" r="1.0" fill="#fff" opacity="0.62"/>
<circle cx="4" cy="942" r="1.7" fill="#fff" opacity="0.59"/>
<circle cx="1512" cy="397" r="0.8" fill="#fff" opacity="0.34"/>
<circle cx="12" cy="779" r="2.4" fill="#fff" opacity="0.58"/>
<circle cx="63" cy="530" r="2.3" fill="#fff" opacity="0.51"/>
<circle cx="104" cy="327" r="2.1" fill="#fff" opacity="0.23"/>
<circle cx="784" cy="417" r="1.4" fill="#fff" opacity="0.43"/>
<circle cx="1479" cy="949" r="0.9" fill="#fff" opacity="0.38"/>
<circle cx="1297" cy="339" r="2.0" fill="#fff" opacity="0.39"/>
<circle cx="912" cy="603" r="1.8" fill="#fff" opacity="0.40"/>
<circle cx="1015" cy="533" r="1.5" fill="#fff" opacity="0.52"/>
<circle cx="1034" cy="451" r="1.9" fill="#fff" opacity="0.43"/>
<circle cx="294" cy="803" r="2.2" fill="#fff" opacity="0.48"/>
<circle cx="1159" cy="293" r="1.6" fill="#fff" opacity="0.51"/>
<circle cx="522" cy="101" r="2.2" fill="#fff" opacity="0.30"/>
<circle cx="915" cy="6" r="2.2" fill="#fff" opacity="0.33"/>
<circle cx="1167" cy="383" r="1.8" fill="#fff" opacity="0.59"/>
<circle cx="743" cy="609" r="2.0" fill="#fff" opacity="0.53"/>
<circle cx="1452" cy="553" r="1.9" fill="#fff" opacity="0.44"/>
<circle cx="1137" cy="993" r="2.1" fill="#fff" opacity="0.18"/>
<circle cx="744" cy="624" r="2.1" fill="#fff" opacity="0.60"/>
<circle cx="1214" cy="934" r="1.1" fill="#fff" opacity="0.42"/>
<circle cx="671" cy="558" r="2.1" fill="#fff" opacity="0.49"/>
<circle cx="1594" cy="739" r="2.0" fill="#fff" opacity="0.34"/>
<circle cx="1285" cy="24" r="1.3" fill="#fff" opacity="0.51"/>
<circle cx="206" cy="291" r="1.6" fill="#fff" opacity="0.58"/>
<circle cx="1265" cy="953" r="1.2" fill="#fff" opacity="0.59"/>
<circle cx="1201" cy="763" r="1.7" fill="#fff" opacity="0.30"/>
<circle cx="1418" cy="413" r="0.9" fill="#fff" opacity="0.30"/>
  <rect width="1600" height="1000" fill="#000" opacity=".08"/>
</svg>