<svg xmlns="http://www.w3.org/2000/svg" viewBox="0 0 1200 800" width="1200" height="800">
  <defs>
    <radialGradient id="g" cx="50%" cy="42%" r="75%">
      <stop offset="0" stop-color="#344339"/>
      <stop offset="1" stop-color="#102f2b"/>
    </radialGradient>
    <pattern id="snow" width="120" height="120" patternUnits="userSpaceOnUse">
      <circle cx="20" cy="28" r="2.4" fill="#fff" opacity=".55"/>
      <circle cx="90" cy="70" r="1.8" fill="#fff" opacity=".45"/>
      <circle cx="64" cy="18" r="1.3" fill="#fff" opacity=".35"/>
      <circle cx="42" cy="100" r="1.7" fill="#fff" opacity=".4"/>
    </pattern>
    <linearGradient id="shine" x1="0" x2="1" y1="0" y2="1">
      <stop offset="0" stop-color="#ffffff" stop-opacity=".16"/>
      <stop offset="1" stop-color="#ffffff" stop-opacity="0"/>
    </linearGradient>
  </defs>
  <rect width="1200" height="800" fill="url(#g)"/>
  <rect width="1200" height="800" fill="url(#snow)"/>
  <circle cx="-60" cy="820" r="360" fill="#fff" opacity=".08"/>
  <circle cx="1260" cy="-70" r="390" fill="#ffdc80" opacity=".10"/>
  
<g transform="translate(150 160)"><path d="M0 470 C230 300 600 210 980 0" stroke="#fff" stroke-width="80" opacity=".14" fill="none"/><path d="M0 470 C230 300 600 210 980 0" stroke="#ffe18a" stroke-width="8" opacity=".35" fill="none"/></g>
<g fill="#ffdf82"><circle cx="270" cy="470" r="34"/><circle cx="480" cy="360" r="30"/><circle cx="705" cy="245" r="26"/><circle cx="910" cy="130" r="22"/></g>
  <rect width="1200" height="800" fill="url(#shine)"/>
</svg>