<svg xmlns="http://www.w3.org/2000/svg" viewBox="0 0 1200 800" width="1200" height="800">
  <defs>
    <radialGradient id="g" cx="50%" cy="42%" r="75%">
      <stop offset="0" stop-color="#334a42"/>
      <stop offset="1" stop-color="#183c38"/>
    </radialGradient>
    <pattern id="snow" width="120" height="120" patternUnits="userSpaceOnUse">
      <circle cx="20" cy="28" r="2.4" fill="#fff" opacity=".55"/>
      <circle cx="90" cy="70" r="1.8" fill="#fff" opacity=".45"/>
      <circle cx="64" cy="18" r="1.3" fill="#fff" opacity=".35"/>
      <circle cx="42" cy="100" r="1.7" fill="#fff" opacity=".4"/>
    </pattern>
    <linearGradient id="shine" x1="0" x2="1" y1="0" y2="1">
      <stop offset="0" stop-color="#ffffff" stop-opacity=".16"/>
      <stop offset="1" stop-color="#ffffff" stop-opacity="0"/>
    </linearGradient>
  </defs>
  <rect width="1200" height="800" fill="url(#g)"/>
  <rect width="1200" height="800" fill="url(#snow)"/>
  <circle cx="-60" cy="820" r="360" fill="#fff" opacity=".08"/>
  <circle cx="1260" cy="-70" r="390" fill="#ffd76f" opacity=".10"/>
  
<g transform="translate(700 390)">
 <rect x="-230" y="-80" width="460" height="260" rx="28" fill="#5b4638"/>
 <path d="M-230 -80 L0 70 L230 -80" fill="none" stroke="#fff1c6" stroke-width="14" opacity=".65"/>
 <circle cx="0" cy="80" r="44" fill="#e94a55"/>
 <path d="M-75 -150 q75 -55 150 0 l-75 45z" fill="#37c477"/><circle cx="0" cy="-150" r="28" fill="#ffe0c7"/><path d="M-28 -174 q28 -45 80 -10" fill="none" stroke="#37c477" stroke-width="16" stroke-linecap="round"/>
</g>
  <rect width="1200" height="800" fill="url(#shine)"/>
</svg>