<svg xmlns="http://www.w3.org/2000/svg" viewBox="0 0 1600 1000" preserveAspectRatio="xMidYMid slice">
  <defs>
    <linearGradient id="g" x1="0" y1="0" x2="1" y2="1">
      <stop offset="0" stop-color="#16331f"/>
      <stop offset=".58" stop-color="#364d2c"/>
      <stop offset="1" stop-color="#16331f"/>
    </linearGradient>
    <radialGradient id="warm" cx=".18" cy=".12" r=".62">
      <stop offset="0" stop-color="#fff0b3" stop-opacity=".32"/>
      <stop offset="1" stop-color="#fff0b3" stop-opacity="0"/>
    </radialGradient>
    <radialGradient id="cool" cx=".86" cy=".24" r=".58">
      <stop offset="0" stop-color="#70d494" stop-opacity=".24"/>
      <stop offset="1" stop-color="#70d494" stop-opacity="0"/>
    </radialGradient>
  </defs>
  <rect width="1600" height="1000" fill="url(#g)"/>
  <rect width="1600" height="1000" fill="url(#warm)"/>
  <rect width="1600" height="1000" fill="url(#cool)"/>
  <circle cx="1280" cy="820" r="360" fill="#ffffff" opacity=".06"/>
  <circle cx="130" cy="930" r="310" fill="#ffffff" opacity=".05"/>
  <circle cx="230" cy="117" r="86" fill="#e85d67" opacity="0.18"/>
<circle cx="1480" cy="843" r="238" fill="#70d494" opacity="0.12"/>
<circle cx="371" cy="1010" r="74" fill="#70d494" opacity="0.13"/>
<circle cx="1329" cy="670" r="220" fill="#fff0b3" opacity="0.12"/>
<circle cx="1383" cy="114" r="236" fill="#e85d67" opacity="0.20"/>
<circle cx="819" cy="271" r="100" fill="#fff0b3" opacity="0.08"/>
<circle cx="918" cy="645" r="142" fill="#70d494" opacity="0.09"/>
<circle cx="1396" cy="-70" r="147" fill="#e85d67" opacity="0.19"/>
<circle cx="247" cy="470" r="123" fill="#fff0b3" opacity="0.19"/>
<circle cx="1391" cy="558" r="210" fill="#70d494" opacity="0.10"/>
<circle cx="1537" cy="-4" r="151" fill="#e85d67" opacity="0.08"/>
<circle cx="174" cy="374" r="100" fill="#e85d67" opacity="0.21"/>
<circle cx="244" cy="77" r="107" fill="#70d494" opacity="0.10"/>
<circle cx="-97" cy="246" r="183" fill="#70d494" opacity="0.21"/>
<circle cx="1581" cy="282" r="197" fill="#fff0b3" opacity="0.11"/>
<circle cx="765" cy="223" r="77" fill="#fff0b3" opacity="0.14"/><circle cx="1187" cy="412" r="1.9" fill="#fff" opacity="0.38"/>
<circle cx="856" cy="430" r="1.8" fill="#fff" opacity="0.55"/>
<circle cx="459" cy="772" r="1.0" fill="#fff" opacity="0.20"/>
<circle cx="945" cy="980" r="1.3" fill="#fff" opacity="0.37"/>
<circle cx="1429" cy="518" r="2.1" fill="#fff" opacity="0.20"/>
<circle cx="496" cy="498" r="0.7" fill="#fff" opacity="0.56"/>
<circle cx="1133" cy="69" r="1.0" fill="#fff" opacity="0.38"/>
<circle cx="495" cy="565" r="2.3" fill="#fff" opacity="0.30"/>
<circle cx="448" cy="934" r="1.1" fill="#fff" opacity="0.29"/>
<circle cx="62" cy="11" r="0.8" fill="#fff" opacity="0.24"/>
<circle cx="579" cy="370" r="1.0" fill="#fff" opacity="0.58"/>
<circle cx="276" cy="819" r="1.9" fill="#fff" opacity="0.55"/>
<circle cx="1453" cy="309" r="1.4" fill="#fff" opacity="0.60"/>
<circle cx="802" cy="43" r="2.1" fill="#fff" opacity="0.47"/>
<circle cx="808" cy="648" r="2.0" fill="#fff" opacity="0.34"/>
<circle cx="218" cy="625" r="2.1" fill="#fff" opacity="0.33"/>
<circle cx="184" cy="187" r="0.9" fill="#fff" opacity="0.20"/>
<circle cx="180" cy="844" r="2.0" fill="#fff" opacity="0.60"/>
<circle cx="1202" cy="724" r="2.0" fill="#fff" opacity="0.59"/>
<circle cx="1338" cy="557" r="1.5" fill="#fff" opacity="0.49"/>
<circle cx="1169" cy="1" r="0.7" fill="#fff" opacity="0.24"/>
<circle cx="858" cy="127" r="1.9" fill="#fff" opacity="0.24"/>
<circle cx="898" cy="710" r="1.0" fill="#fff" opacity="0.36"/>
<circle cx="1378" cy="671" r="2.1" fill="#fff" opacity="0.38"/>
<circle cx="1485" cy="346" r="1.1" fill="#fff" opacity="0.21"/>
<circle cx="135" cy="74" r="0.7" fill="#fff" opacity="0.40"/>
<circle cx="752" cy="50" r="1.8" fill="#fff" opacity="0.51"/>
<circle cx="670" cy="21" r="1.7" fill="#fff" opacity="0.42"/>
<circle cx="194" cy="929" r="2.3" fill="#fff" opacity="0.60"/>
<circle cx="911" cy="371" r="1.1" fill="#fff" opacity="0.42"/>
<circle cx="341" cy="413" r="1.6" fill="#fff" opacity="0.37"/>
<circle cx="1225" cy="663" r="1.7" fill="#fff" opacity="0.43"/>
<circle cx="893" cy="160" r="1.6" fill="#fff" opacity="0.43"/>
<circle cx="499" cy="84" r="1.9" fill="#fff" opacity="0.29"/>
<circle cx="924" cy="996" r="2.1" fill="#fff" opacity="0.21"/>
<circle cx="256" cy="580" r="1.7" fill="#fff" opacity="0.43"/>
<circle cx="951" cy="825" r="1.2" fill="#fff" opacity="0.44"/>
<circle cx="1468" cy="663" r="1.0" fill="#fff" opacity="0.40"/>
<circle cx="364" cy="443" r="2.2" fill="#fff" opacity="0.18"/>
<circle cx="779" cy="295" r="2.0" fill="#fff" opacity="0.53"/>
<circle cx="479" cy="896" r="1.8" fill="#fff" opacity="0.50"/>
<circle cx="1348" cy="509" r="1.3" fill="#fff" opacity="0.40"/>
<circle cx="1091" cy="563" r="1.8" fill="#fff" opacity="0.36"/>
<circle cx="444" cy="698" r="2.2" fill="#fff" opacity="0.52"/>
<circle cx="198" cy="12" r="0.9" fill="#fff" opacity="0.48"/>
<circle cx="406" cy="558" r="1.2" fill="#fff" opacity="0.46"/>
<circle cx="1047" cy="587" r="0.9" fill="#fff" opacity="0.50"/>
<circle cx="672" cy="805" r="1.6" fill="#fff" opacity="0.25"/>
<circle cx="480" cy="428" r="1.0" fill="#fff" opacity="0.44"/>
<circle cx="1072" cy="952" r="2.2" fill="#fff" opacity="0.40"/>
<circle cx="1233" cy="205" r="0.7" fill="#fff" opacity="0.41"/>
<circle cx="1597" cy="878" r="1.2" fill="#fff" opacity="0.30"/>
<circle cx="1107" cy="5" r="2.0" fill="#fff" opacity="0.42"/>
<circle cx="1545" cy="8" r="1.4" fill="#fff" opacity="0.53"/>
<circle cx="1566" cy="858" r="0.8" fill="#fff" opacity="0.44"/>
<circle cx="1312" cy="212" r="1.5" fill="#fff" opacity="0.29"/>
<circle cx="544" cy="711" r="0.8" fill="#fff" opacity="0.36"/>
<circle cx="1307" cy="818" r="2.0" fill="#fff" opacity="0.48"/>
<circle cx="1530" cy="939" r="1.5" fill="#fff" opacity="0.43"/>
<circle cx="709" cy="487" r="1.9" fill="#fff" opacity="0.29"/>
<circle cx="166" cy="192" r="1.5" fill="#fff" opacity="0.25"/>
<circle cx="876" cy="297" r="1.0" fill="#fff" opacity="0.29"/>
<circle cx="222" cy="74" r="1.6" fill="#fff" opacity="0.54"/>
<circle cx="1103" cy="287" r="0.8" fill="#fff" opacity="0.20"/>
<circle cx="1395" cy="261" r="1.8" fill="#fff" opacity="0.45"/>
<circle cx="1519" cy="922" r="2.2" fill="#fff" opacity="0.49"/>
<circle cx="1042" cy="225" r="1.8" fill="#fff" opacity="0.28"/>
<circle cx="65" cy="268" r="2.4" fill="#fff" opacity="0.40"/>
<circle cx="330" cy="239" r="1.2" fill="#fff" opacity="0.37"/>
<circle cx="491" cy="943" r="1.6" fill="#fff" opacity="0.29"/>
<circle cx="122" cy="885" r="0.9" fill="#fff" opacity="0.35"/>
<circle cx="1064" cy="704" r="1.1" fill="#fff" opacity="0.29"/>
<circle cx="24" cy="279" r="2.3" fill="#fff" opacity="0.60"/>
<circle cx="1402" cy="249" r="1.7" fill="#fff" opacity="0.46"/>
<circle cx="53" cy="931" r="0.7" fill="#fff" opacity="0.19"/>
<circle cx="1324" cy="824" r="1.4" fill="#fff" opacity="0.54"/>
<circle cx="1083" cy="45" r="1.3" fill="#fff" opacity="0.21"/>
<circle cx="797" cy="342" r="2.4" fill="#fff" opacity="0.38"/>
<circle cx="1191" cy="310" r="1.1" fill="#fff" opacity="0.33"/>
<circle cx="430" cy="943" r="1.9" fill="#fff" opacity="0.22"/>
<circle cx="264" cy="584" r="0.9" fill="#fff" opacity="0.40"/>
<circle cx="437" cy="571" r="1.5" fill="#fff" opacity="0.49"/>
<circle cx="781" cy="31" r="1.9" fill="#fff" opacity="0.21"/>
<circle cx="1084" cy="198" r="1.1" fill="#fff" opacity="0.28"/>
<circle cx="1307" cy="58" r="2.1" fill="#fff" opacity="0.28"/>
<circle cx="954" cy="864" r="1.5" fill="#fff" opacity="0.62"/>
<circle cx="1034" cy="955" r="1.8" fill="#fff" opacity="0.61"/>
<circle cx="668" cy="825" r="1.1" fill="#fff" opacity="0.22"/>
<circle cx="1565" cy="848" r="2.3" fill="#fff" opacity="0.36"/>
<circle cx="707" cy="519" r="0.7" fill="#fff" opacity="0.29"/>
<circle cx="768" cy="466" r="1.1" fill="#fff" opacity="0.33"/>
<circle cx="485" cy="685" r="1.5" fill="#fff" opacity="0.57"/>
<circle cx="936" cy="101" r="1.5" fill="#fff" opacity="0.32"/>
<circle cx="948" cy="112" r="1.8" fill="#fff" opacity="0.49"/>
<circle cx="634" cy="558" r="2.2" fill="#fff" opacity="0.19"/>
<circle cx="34" cy="867" r="1.2" fill="#fff" opacity="0.20"/>
<circle cx="989" cy="33" r="1.3" fill="#fff" opacity="0.46"/>
<circle cx="1574" cy="708" r="1.1" fill="#fff" opacity="0.45"/>
<circle cx="321" cy="181" r="1.4" fill="#fff" opacity="0.23"/>
<circle cx="878" cy="511" r="0.9" fill="#fff" opacity="0.47"/>
<circle cx="697" cy="96" r="2.1" fill="#fff" opacity="0.24"/>
<circle cx="239" cy="217" r="1.8" fill="#fff" opacity="0.28"/>
<circle cx="348" cy="117" r="1.8" fill="#fff" opacity="0.36"/>
<circle cx="1598" cy="729" r="2.3" fill="#fff" opacity="0.58"/>
<circle cx="568" cy="27" r="2.3" fill="#fff" opacity="0.29"/>
<circle cx="74" cy="906" r="1.6" fill="#fff" opacity="0.43"/>
<circle cx="523" cy="364" r="0.8" fill="#fff" opacity="0.59"/>
<circle cx="869" cy="955" r="1.4" fill="#fff" opacity="0.23"/>
<circle cx="719" cy="49" r="1.2" fill="#fff" opacity="0.41"/>
<circle cx="1553" cy="721" r="2.1" fill="#fff" opacity="0.54"/>
<circle cx="902" cy="715" r="1.1" fill="#fff" opacity="0.53"/>
<circle cx="418" cy="231" r="1.6" fill="#fff" opacity="0.26"/>
<circle cx="1130" cy="955" r="1.1" fill="#fff" opacity="0.42"/>
<circle cx="261" cy="758" r="2.4" fill="#fff" opacity="0.52"/>
<circle cx="709" cy="168" r="1.4" fill="#fff" opacity="0.62"/>
<circle cx="4" cy="482" r="1.3" fill="#fff" opacity="0.57"/>
<circle cx="711" cy="74" r="0.9" fill="#fff" opacity="0.34"/>
<circle cx="752" cy="443" r="2.4" fill="#fff" opacity="0.58"/>
<circle cx="644" cy="440" r="2.4" fill="#fff" opacity="0.60"/>
<circle cx="1504" cy="19" r="1.4" fill="#fff" opacity="0.36"/>
<circle cx="19" cy="667" r="1.1" fill="#fff" opacity="0.23"/>
<circle cx="707" cy="639" r="1.7" fill="#fff" opacity="0.53"/>
<circle cx="769" cy="626" r="1.4" fill="#fff" opacity="0.54"/>
<circle cx="966" cy="624" r="1.2" fill="#fff" opacity="0.26"/>
<circle cx="1070" cy="455" r="1.3" fill="#fff" opacity="0.62"/>
<circle cx="549" cy="640" r="1.4" fill="#fff" opacity="0.57"/>
<circle cx="1236" cy="90" r="1.2" fill="#fff" opacity="0.24"/>
<circle cx="976" cy="928" r="0.9" fill="#fff" opacity="0.43"/>
<circle cx="1022" cy="701" r="2.0" fill="#fff" opacity="0.22"/>
<circle cx="378" cy="293" r="0.8" fill="#fff" opacity="0.43"/>
  <rect width="1600" height="1000" fill="#000" opacity=".08"/>
</svg>