<svg xmlns="http://www.w3.org/2000/svg" viewBox="0 0 1600 1000" preserveAspectRatio="xMidYMid slice">
  <defs>
    <linearGradient id="g" x1="0" y1="0" x2="1" y2="1">
      <stop offset="0" stop-color="#25323b"/>
      <stop offset=".58" stop-color="#315060"/>
      <stop offset="1" stop-color="#25323b"/>
    </linearGradient>
    <radialGradient id="warm" cx=".18" cy=".12" r=".62">
      <stop offset="0" stop-color="#e8f7ff" stop-opacity=".32"/>
      <stop offset="1" stop-color="#e8f7ff" stop-opacity="0"/>
    </radialGradient>
    <radialGradient id="cool" cx=".86" cy=".24" r=".58">
      <stop offset="0" stop-color="#ffd377" stop-opacity=".24"/>
      <stop offset="1" stop-color="#ffd377" stop-opacity="0"/>
    </radialGradient>
  </defs>
  <rect width="1600" height="1000" fill="url(#g)"/>
  <rect width="1600" height="1000" fill="url(#warm)"/>
  <rect width="1600" height="1000" fill="url(#cool)"/>
  <circle cx="1280" cy="820" r="360" fill="#ffffff" opacity=".06"/>
  <circle cx="130" cy="930" r="310" fill="#ffffff" opacity=".05"/>
  <circle cx="1105" cy="289" r="116" fill="#ffd377" opacity="0.17"/>
<circle cx="220" cy="108" r="179" fill="#82e3ad" opacity="0.20"/>
<circle cx="1005" cy="513" r="133" fill="#ffd377" opacity="0.11"/>
<circle cx="1433" cy="88" r="127" fill="#e8f7ff" opacity="0.11"/>
<circle cx="188" cy="-3" r="114" fill="#e8f7ff" opacity="0.16"/>
<circle cx="578" cy="1071" r="118" fill="#82e3ad" opacity="0.20"/>
<circle cx="933" cy="762" r="233" fill="#e8f7ff" opacity="0.18"/>
<circle cx="573" cy="487" r="72" fill="#ffd377" opacity="0.16"/>
<circle cx="142" cy="972" r="104" fill="#82e3ad" opacity="0.18"/>
<circle cx="696" cy="250" r="123" fill="#82e3ad" opacity="0.15"/>
<circle cx="326" cy="298" r="143" fill="#e8f7ff" opacity="0.08"/>
<circle cx="1445" cy="47" r="239" fill="#82e3ad" opacity="0.08"/>
<circle cx="1493" cy="488" r="133" fill="#ffd377" opacity="0.09"/>
<circle cx="104" cy="942" r="176" fill="#ffd377" opacity="0.14"/>
<circle cx="912" cy="234" r="169" fill="#ffd377" opacity="0.12"/>
<circle cx="836" cy="192" r="110" fill="#e8f7ff" opacity="0.13"/>
    <pattern id="plaid" width="96" height="96" patternUnits="userSpaceOnUse">
      <rect width="96" height="96" fill="transparent"/>
      <path d="M0 24H96 M0 72H96 M24 0V96 M72 0V96" stroke="#e8f7ff" stroke-width="2" opacity=".18"/>
      <path d="M0 48H96 M48 0V96" stroke="#ffd377" stroke-width="8" opacity=".06"/>
    </pattern>
    <rect width="1600" height="1000" fill="url(#plaid)" opacity=".9"/><path d="M-79 1001 L-9 576 L61 1001 Z" fill="#071f18" opacity="0.41"/>
<path d="M-59 921 L-9 536 L41 921 Z" fill="#071f18" opacity="0.46"/>
<path d="M61 1060 L131 863 L201 1060 Z" fill="#071f18" opacity="0.43"/>
<path d="M81 980 L131 823 L181 980 Z" fill="#071f18" opacity="0.48"/>
<path d="M298 992 L368 771 L438 992 Z" fill="#071f18" opacity="0.45"/>
<path d="M318 912 L368 731 L418 912 Z" fill="#071f18" opacity="0.50"/>
<path d="M459 1048 L529 818 L599 1048 Z" fill="#071f18" opacity="0.33"/>
<path d="M479 968 L529 778 L579 968 Z" fill="#071f18" opacity="0.38"/>
<path d="M634 1000 L704 650 L774 1000 Z" fill="#071f18" opacity="0.38"/>
<path d="M654 920 L704 610 L754 920 Z" fill="#071f18" opacity="0.43"/>
<path d="M841 1019 L911 665 L981 1019 Z" fill="#071f18" opacity="0.23"/>
<path d="M861 939 L911 625 L961 939 Z" fill="#071f18" opacity="0.28"/>
<path d="M1053 986 L1123 706 L1193 986 Z" fill="#071f18" opacity="0.35"/>
<path d="M1073 906 L1123 666 L1173 906 Z" fill="#071f18" opacity="0.40"/>
<path d="M1260 1078 L1330 761 L1400 1078 Z" fill="#071f18" opacity="0.23"/>
<path d="M1280 998 L1330 721 L1380 998 Z" fill="#071f18" opacity="0.28"/>
<path d="M1433 985 L1503 782 L1573 985 Z" fill="#071f18" opacity="0.20"/>
<path d="M1453 905 L1503 742 L1553 905 Z" fill="#071f18" opacity="0.25"/>
<path d="M1604 975 L1674 702 L1744 975 Z" fill="#071f18" opacity="0.21"/>
<path d="M1624 895 L1674 662 L1724 895 Z" fill="#071f18" opacity="0.26"/><path d="M0 120 C280 30, 520 180, 800 90 S1300 40, 1600 120" fill="none" stroke="#fff" stroke-width="2" opacity=".22"/>
<ellipse cx="37" cy="111.0" rx="12" ry="18" fill="#82e3ad" opacity=".82"/>
<circle cx="37" cy="111.0" r="38" fill="#82e3ad" opacity=".10"/>
<ellipse cx="128" cy="137.1074631814833" rx="12" ry="18" fill="#e8f7ff" opacity=".82"/>
<circle cx="128" cy="137.1074631814833" r="38" fill="#e8f7ff" opacity=".10"/>
<ellipse cx="211" cy="148.98507610645268" rx="12" ry="18" fill="#82e3ad" opacity=".82"/>
<circle cx="211" cy="148.98507610645268" r="38" fill="#82e3ad" opacity=".10"/>
<ellipse cx="313" cy="132.64121131929028" rx="12" ry="18" fill="#e8f7ff" opacity=".82"/>
<circle cx="313" cy="132.64121131929028" r="38" fill="#e8f7ff" opacity=".10"/>
<ellipse cx="388" cy="102.9569049800347" rx="12" ry="18" fill="#82e3ad" opacity=".82"/>
<circle cx="388" cy="102.9569049800347" r="38" fill="#82e3ad" opacity=".10"/>
<ellipse cx="492" cy="78.5119126642225" rx="12" ry="18" fill="#ffd377" opacity=".82"/>
<circle cx="492" cy="78.5119126642225" r="38" fill="#ffd377" opacity=".10"/>
<ellipse cx="581" cy="73.13423869074558" rx="12" ry="18" fill="#e8f7ff" opacity=".82"/>
<circle cx="581" cy="73.13423869074558" r="38" fill="#e8f7ff" opacity=".10"/>
<ellipse cx="681" cy="80.90566767446877" rx="12" ry="18" fill="#82e3ad" opacity=".82"/>
<circle cx="681" cy="80.90566767446877" r="38" fill="#82e3ad" opacity=".10"/>
<ellipse cx="752" cy="121.07922216976728" rx="12" ry="18" fill="#ffd377" opacity=".82"/>
<circle cx="752" cy="121.07922216976728" r="38" fill="#ffd377" opacity=".10"/>
<ellipse cx="859" cy="140.77837523472036" rx="12" ry="18" fill="#e8f7ff" opacity=".82"/>
<circle cx="859" cy="140.77837523472036" r="38" fill="#e8f7ff" opacity=".10"/>
<ellipse cx="940" cy="149.62753863181837" rx="12" ry="18" fill="#e8f7ff" opacity=".82"/>
<circle cx="940" cy="149.62753863181837" r="38" fill="#e8f7ff" opacity=".10"/>
<ellipse cx="1036" cy="128.47210175121165" rx="12" ry="18" fill="#82e3ad" opacity=".82"/>
<circle cx="1036" cy="128.47210175121165" r="38" fill="#82e3ad" opacity=".10"/>
<ellipse cx="1123" cy="104.89856265719565" rx="12" ry="18" fill="#ffd377" opacity=".82"/>
<circle cx="1123" cy="104.89856265719565" r="38" fill="#ffd377" opacity=".10"/>
<ellipse cx="1211" cy="74.02607358200211" rx="12" ry="18" fill="#ffd377" opacity=".82"/>
<circle cx="1211" cy="74.02607358200211" r="38" fill="#ffd377" opacity=".10"/>
<ellipse cx="1298" cy="75.72877947970392" rx="12" ry="18" fill="#e8f7ff" opacity=".82"/>
<circle cx="1298" cy="75.72877947970392" r="38" fill="#e8f7ff" opacity=".10"/>
<ellipse cx="1385" cy="87.21994786998478" rx="12" ry="18" fill="#e8f7ff" opacity=".82"/>
<circle cx="1385" cy="87.21994786998478" r="38" fill="#e8f7ff" opacity=".10"/>
<ellipse cx="1486" cy="116.10284387855387" rx="12" ry="18" fill="#e8f7ff" opacity=".82"/>
<circle cx="1486" cy="116.10284387855387" r="38" fill="#e8f7ff" opacity=".10"/>
<ellipse cx="1580" cy="145.0706635199774" rx="12" ry="18" fill="#ffd377" opacity=".82"/>
<circle cx="1580" cy="145.0706635199774" r="38" fill="#ffd377" opacity=".10"/><circle cx="163" cy="442" r="1.7" fill="#fff" opacity="0.58"/>
<circle cx="790" cy="644" r="1.3" fill="#fff" opacity="0.36"/>
<circle cx="1441" cy="402" r="2.2" fill="#fff" opacity="0.35"/>
<circle cx="1307" cy="951" r="2.3" fill="#fff" opacity="0.58"/>
<circle cx="770" cy="552" r="0.7" fill="#fff" opacity="0.44"/>
<circle cx="1305" cy="845" r="1.3" fill="#fff" opacity="0.29"/>
<circle cx="642" cy="269" r="1.1" fill="#fff" opacity="0.45"/>
<circle cx="622" cy="978" r="2.2" fill="#fff" opacity="0.46"/>
<circle cx="337" cy="794" r="2.1" fill="#fff" opacity="0.38"/>
<circle cx="408" cy="621" r="1.1" fill="#fff" opacity="0.20"/>
<circle cx="1142" cy="213" r="1.6" fill="#fff" opacity="0.19"/>
<circle cx="1505" cy="456" r="2.1" fill="#fff" opacity="0.32"/>
<circle cx="1524" cy="322" r="2.3" fill="#fff" opacity="0.60"/>
<circle cx="1503" cy="815" r="2.0" fill="#fff" opacity="0.25"/>
<circle cx="76" cy="226" r="1.3" fill="#fff" opacity="0.35"/>
<circle cx="1012" cy="215" r="2.3" fill="#fff" opacity="0.41"/>
<circle cx="627" cy="757" r="1.2" fill="#fff" opacity="0.24"/>
<circle cx="128" cy="343" r="0.9" fill="#fff" opacity="0.52"/>
<circle cx="1098" cy="789" r="2.3" fill="#fff" opacity="0.61"/>
<circle cx="484" cy="42" r="2.2" fill="#fff" opacity="0.19"/>
<circle cx="498" cy="774" r="2.0" fill="#fff" opacity="0.41"/>
<circle cx="1285" cy="722" r="0.8" fill="#fff" opacity="0.20"/>
<circle cx="284" cy="666" r="1.0" fill="#fff" opacity="0.32"/>
<circle cx="1502" cy="289" r="1.3" fill="#fff" opacity="0.20"/>
<circle cx="693" cy="114" r="1.9" fill="#fff" opacity="0.55"/>
<circle cx="138" cy="918" r="2.1" fill="#fff" opacity="0.46"/>
<circle cx="236" cy="104" r="0.9" fill="#fff" opacity="0.54"/>
<circle cx="1213" cy="35" r="0.9" fill="#fff" opacity="0.50"/>
<circle cx="1269" cy="495" r="1.9" fill="#fff" opacity="0.25"/>
<circle cx="984" cy="340" r="1.1" fill="#fff" opacity="0.47"/>
<circle cx="1466" cy="84" r="1.0" fill="#fff" opacity="0.26"/>
<circle cx="309" cy="899" r="1.9" fill="#fff" opacity="0.51"/>
<circle cx="720" cy="212" r="1.8" fill="#fff" opacity="0.31"/>
<circle cx="609" cy="620" r="1.7" fill="#fff" opacity="0.30"/>
<circle cx="745" cy="254" r="0.9" fill="#fff" opacity="0.26"/>
<circle cx="1495" cy="761" r="1.8" fill="#fff" opacity="0.48"/>
<circle cx="946" cy="519" r="2.0" fill="#fff" opacity="0.19"/>
<circle cx="95" cy="192" r="1.3" fill="#fff" opacity="0.51"/>
<circle cx="1079" cy="889" r="1.3" fill="#fff" opacity="0.33"/>
<circle cx="914" cy="858" r="1.5" fill="#fff" opacity="0.24"/>
<circle cx="233" cy="106" r="0.7" fill="#fff" opacity="0.42"/>
<circle cx="1551" cy="586" r="1.2" fill="#fff" opacity="0.30"/>
<circle cx="1483" cy="949" r="2.1" fill="#fff" opacity="0.50"/>
<circle cx="433" cy="949" r="2.4" fill="#fff" opacity="0.22"/>
<circle cx="329" cy="558" r="1.4" fill="#fff" opacity="0.52"/>
<circle cx="706" cy="24" r="1.2" fill="#fff" opacity="0.40"/>
<circle cx="683" cy="25" r="1.9" fill="#fff" opacity="0.33"/>
<circle cx="303" cy="375" r="2.4" fill="#fff" opacity="0.43"/>
<circle cx="45" cy="975" r="2.2" fill="#fff" opacity="0.25"/>
<circle cx="228" cy="433" r="1.6" fill="#fff" opacity="0.55"/>
<circle cx="1109" cy="526" r="1.5" fill="#fff" opacity="0.53"/>
<circle cx="884" cy="646" r="1.3" fill="#fff" opacity="0.32"/>
<circle cx="1077" cy="29" r="0.8" fill="#fff" opacity="0.60"/>
<circle cx="623" cy="949" r="0.9" fill="#fff" opacity="0.37"/>
<circle cx="778" cy="447" r="0.9" fill="#fff" opacity="0.30"/>
<circle cx="503" cy="185" r="2.2" fill="#fff" opacity="0.57"/>
<circle cx="608" cy="33" r="1.0" fill="#fff" opacity="0.30"/>
<circle cx="59" cy="295" r="1.1" fill="#fff" opacity="0.39"/>
<circle cx="1544" cy="118" r="1.8" fill="#fff" opacity="0.20"/>
<circle cx="1482" cy="215" r="2.4" fill="#fff" opacity="0.37"/>
<circle cx="186" cy="134" r="1.8" fill="#fff" opacity="0.27"/>
<circle cx="1348" cy="830" r="2.1" fill="#fff" opacity="0.55"/>
<circle cx="703" cy="616" r="1.1" fill="#fff" opacity="0.34"/>
<circle cx="1206" cy="972" r="1.9" fill="#fff" opacity="0.28"/>
<circle cx="1458" cy="404" r="1.1" fill="#fff" opacity="0.52"/>
<circle cx="1463" cy="63" r="1.9" fill="#fff" opacity="0.58"/>
<circle cx="1568" cy="528" r="1.5" fill="#fff" opacity="0.41"/>
<circle cx="1276" cy="166" r="2.2" fill="#fff" opacity="0.47"/>
<circle cx="205" cy="566" r="0.8" fill="#fff" opacity="0.51"/>
<circle cx="1143" cy="867" r="1.1" fill="#fff" opacity="0.39"/>
  <rect width="1600" height="1000" fill="#000" opacity=".08"/>
</svg>