<svg xmlns="http://www.w3.org/2000/svg" viewBox="0 0 1200 800" width="1200" height="800">
  <defs>
    <radialGradient id="g" cx="50%" cy="42%" r="75%">
      <stop offset="0" stop-color="#583747"/>
      <stop offset="1" stop-color="#203350"/>
    </radialGradient>
    <pattern id="snow" width="120" height="120" patternUnits="userSpaceOnUse">
      <circle cx="20" cy="28" r="2.4" fill="#fff" opacity=".55"/>
      <circle cx="90" cy="70" r="1.8" fill="#fff" opacity=".45"/>
      <circle cx="64" cy="18" r="1.3" fill="#fff" opacity=".35"/>
      <circle cx="42" cy="100" r="1.7" fill="#fff" opacity=".4"/>
    </pattern>
    <linearGradient id="shine" x1="0" x2="1" y1="0" y2="1">
      <stop offset="0" stop-color="#ffffff" stop-opacity=".16"/>
      <stop offset="1" stop-color="#ffffff" stop-opacity="0"/>
    </linearGradient>
  </defs>
  <rect width="1200" height="800" fill="url(#g)"/>
  <rect width="1200" height="800" fill="url(#snow)"/>
  <circle cx="-60" cy="820" r="360" fill="#fff" opacity=".08"/>
  <circle cx="1260" cy="-70" r="390" fill="#ffefaa" opacity=".10"/>
  
<g opacity=".88" transform="rotate(-20 600 400)">
 <path d="M-100 120 h1450 v65 h-1450zM-100 300 h1450 v65 h-1450zM-100 480 h1450 v65 h-1450z" fill="#ff6670" opacity=".55"/>
 <path d="M-100 210 h1450 v45 h-1450zM-100 400 h1450 v45 h-1450z" fill="#fff4cc" opacity=".45"/>
</g>
<circle cx="930" cy="180" r="78" fill="#fff4cc" opacity=".8"/>
  <rect width="1200" height="800" fill="url(#shine)"/>
</svg>