<svg xmlns="http://www.w3.org/2000/svg" viewBox="0 0 1600 1000" preserveAspectRatio="xMidYMid slice">
  <defs>
    <linearGradient id="g" x1="0" y1="0" x2="1" y2="1">
      <stop offset="0" stop-color="#173d35"/>
      <stop offset=".58" stop-color="#2c4d35"/>
      <stop offset="1" stop-color="#173d35"/>
    </linearGradient>
    <radialGradient id="warm" cx=".18" cy=".12" r=".62">
      <stop offset="0" stop-color="#ffe08a" stop-opacity=".32"/>
      <stop offset="1" stop-color="#ffe08a" stop-opacity="0"/>
    </radialGradient>
    <radialGradient id="cool" cx=".86" cy=".24" r=".58">
      <stop offset="0" stop-color="#8be6a7" stop-opacity=".24"/>
      <stop offset="1" stop-color="#8be6a7" stop-opacity="0"/>
    </radialGradient>
  </defs>
  <rect width="1600" height="1000" fill="url(#g)"/>
  <rect width="1600" height="1000" fill="url(#warm)"/>
  <rect width="1600" height="1000" fill="url(#cool)"/>
  <circle cx="1280" cy="820" r="360" fill="#ffffff" opacity=".06"/>
  <circle cx="130" cy="930" r="310" fill="#ffffff" opacity=".05"/>
  <circle cx="428" cy="98" r="122" fill="#8be6a7" opacity="0.19"/>
<circle cx="1113" cy="1080" r="183" fill="#8be6a7" opacity="0.21"/>
<circle cx="181" cy="-3" r="183" fill="#8be6a7" opacity="0.13"/>
<circle cx="664" cy="256" r="236" fill="#8be6a7" opacity="0.14"/>
<circle cx="671" cy="-94" r="195" fill="#ee6570" opacity="0.10"/>
<circle cx="541" cy="762" r="111" fill="#ee6570" opacity="0.13"/>
<circle cx="101" cy="19" r="125" fill="#ffe08a" opacity="0.19"/>
<circle cx="1644" cy="973" r="145" fill="#ffe08a" opacity="0.15"/>
<circle cx="1605" cy="771" r="236" fill="#ffe08a" opacity="0.19"/>
<circle cx="315" cy="-24" r="225" fill="#ffe08a" opacity="0.16"/>
<circle cx="781" cy="507" r="108" fill="#ffe08a" opacity="0.21"/>
<circle cx="1569" cy="907" r="110" fill="#8be6a7" opacity="0.19"/>
<circle cx="905" cy="446" r="118" fill="#ffe08a" opacity="0.13"/>
<circle cx="413" cy="712" r="123" fill="#ffe08a" opacity="0.09"/>
<circle cx="908" cy="9" r="100" fill="#ffe08a" opacity="0.13"/>
<circle cx="723" cy="588" r="214" fill="#8be6a7" opacity="0.09"/>
    <pattern id="plaid" width="96" height="96" patternUnits="userSpaceOnUse">
      <rect width="96" height="96" fill="transparent"/>
      <path d="M0 24H96 M0 72H96 M24 0V96 M72 0V96" stroke="#ffe08a" stroke-width="2" opacity=".18"/>
      <path d="M0 48H96 M48 0V96" stroke="#8be6a7" stroke-width="8" opacity=".06"/>
    </pattern>
    <rect width="1600" height="1000" fill="url(#plaid)" opacity=".9"/><circle cx="518" cy="579" r="1.8" fill="#fff" opacity="0.37"/>
<circle cx="270" cy="410" r="1.0" fill="#fff" opacity="0.60"/>
<circle cx="1563" cy="660" r="2.2" fill="#fff" opacity="0.61"/>
<circle cx="44" cy="580" r="2.4" fill="#fff" opacity="0.20"/>
<circle cx="70" cy="479" r="2.2" fill="#fff" opacity="0.19"/>
<circle cx="166" cy="602" r="1.0" fill="#fff" opacity="0.57"/>
<circle cx="1287" cy="380" r="2.4" fill="#fff" opacity="0.36"/>
<circle cx="626" cy="676" r="0.9" fill="#fff" opacity="0.22"/>
<circle cx="299" cy="326" r="0.9" fill="#fff" opacity="0.51"/>
<circle cx="415" cy="1000" r="1.6" fill="#fff" opacity="0.59"/>
<circle cx="94" cy="968" r="2.0" fill="#fff" opacity="0.46"/>
<circle cx="608" cy="541" r="1.4" fill="#fff" opacity="0.39"/>
<circle cx="54" cy="825" r="1.4" fill="#fff" opacity="0.32"/>
<circle cx="641" cy="104" r="0.7" fill="#fff" opacity="0.32"/>
<circle cx="814" cy="450" r="1.2" fill="#fff" opacity="0.51"/>
<circle cx="447" cy="32" r="1.4" fill="#fff" opacity="0.57"/>
<circle cx="704" cy="947" r="2.3" fill="#fff" opacity="0.27"/>
<circle cx="1092" cy="391" r="2.0" fill="#fff" opacity="0.61"/>
<circle cx="1002" cy="198" r="1.7" fill="#fff" opacity="0.21"/>
<circle cx="16" cy="793" r="2.1" fill="#fff" opacity="0.55"/>
<circle cx="474" cy="650" r="1.2" fill="#fff" opacity="0.33"/>
<circle cx="495" cy="106" r="0.8" fill="#fff" opacity="0.35"/>
<circle cx="397" cy="346" r="1.1" fill="#fff" opacity="0.21"/>
<circle cx="1272" cy="782" r="2.0" fill="#fff" opacity="0.59"/>
<circle cx="1129" cy="742" r="1.9" fill="#fff" opacity="0.22"/>
<circle cx="158" cy="729" r="1.1" fill="#fff" opacity="0.26"/>
<circle cx="345" cy="154" r="1.7" fill="#fff" opacity="0.25"/>
<circle cx="945" cy="90" r="1.3" fill="#fff" opacity="0.48"/>
<circle cx="395" cy="983" r="0.7" fill="#fff" opacity="0.41"/>
<circle cx="226" cy="492" r="1.0" fill="#fff" opacity="0.58"/>
<circle cx="283" cy="593" r="2.0" fill="#fff" opacity="0.25"/>
<circle cx="891" cy="457" r="2.2" fill="#fff" opacity="0.27"/>
<circle cx="1181" cy="228" r="1.8" fill="#fff" opacity="0.20"/>
<circle cx="1372" cy="24" r="1.7" fill="#fff" opacity="0.25"/>
<circle cx="1208" cy="586" r="1.8" fill="#fff" opacity="0.42"/>
<circle cx="1132" cy="840" r="1.8" fill="#fff" opacity="0.53"/>
<circle cx="1075" cy="75" r="2.0" fill="#fff" opacity="0.23"/>
<circle cx="979" cy="192" r="1.9" fill="#fff" opacity="0.32"/>
<circle cx="1393" cy="114" r="1.8" fill="#fff" opacity="0.28"/>
<circle cx="1384" cy="856" r="1.6" fill="#fff" opacity="0.34"/>
<circle cx="47" cy="33" r="1.0" fill="#fff" opacity="0.19"/>
<circle cx="734" cy="66" r="1.5" fill="#fff" opacity="0.58"/>
<circle cx="988" cy="435" r="1.3" fill="#fff" opacity="0.24"/>
<circle cx="1576" cy="745" r="2.3" fill="#fff" opacity="0.50"/>
<circle cx="53" cy="555" r="1.3" fill="#fff" opacity="0.31"/>
<circle cx="932" cy="456" r="2.1" fill="#fff" opacity="0.60"/>
<circle cx="105" cy="620" r="1.3" fill="#fff" opacity="0.50"/>
<circle cx="1542" cy="847" r="1.2" fill="#fff" opacity="0.34"/>
<circle cx="758" cy="464" r="1.5" fill="#fff" opacity="0.40"/>
<circle cx="444" cy="899" r="1.6" fill="#fff" opacity="0.39"/>
<circle cx="1241" cy="638" r="1.1" fill="#fff" opacity="0.19"/>
<circle cx="274" cy="822" r="0.8" fill="#fff" opacity="0.30"/>
<circle cx="689" cy="513" r="1.0" fill="#fff" opacity="0.46"/>
<circle cx="70" cy="461" r="2.3" fill="#fff" opacity="0.49"/>
<circle cx="1322" cy="812" r="2.3" fill="#fff" opacity="0.23"/>
<circle cx="341" cy="294" r="2.2" fill="#fff" opacity="0.38"/>
<circle cx="1589" cy="921" r="1.1" fill="#fff" opacity="0.30"/>
<circle cx="1521" cy="508" r="2.3" fill="#fff" opacity="0.23"/>
<circle cx="445" cy="684" r="1.1" fill="#fff" opacity="0.55"/>
<circle cx="481" cy="673" r="1.5" fill="#fff" opacity="0.59"/>
<circle cx="1318" cy="226" r="1.7" fill="#fff" opacity="0.39"/>
<circle cx="1360" cy="399" r="1.0" fill="#fff" opacity="0.57"/>
<circle cx="1158" cy="901" r="1.4" fill="#fff" opacity="0.18"/>
<circle cx="231" cy="79" r="2.3" fill="#fff" opacity="0.20"/>
<circle cx="667" cy="357" r="1.6" fill="#fff" opacity="0.51"/>
<circle cx="1108" cy="997" r="2.1" fill="#fff" opacity="0.50"/>
<circle cx="295" cy="432" r="1.4" fill="#fff" opacity="0.59"/>
<circle cx="100" cy="610" r="1.1" fill="#fff" opacity="0.19"/>
<circle cx="607" cy="172" r="1.6" fill="#fff" opacity="0.29"/>
<circle cx="237" cy="747" r="1.6" fill="#fff" opacity="0.36"/>
<circle cx="688" cy="627" r="1.9" fill="#fff" opacity="0.24"/>
<circle cx="696" cy="591" r="1.3" fill="#fff" opacity="0.43"/>
<circle cx="1332" cy="675" r="2.3" fill="#fff" opacity="0.18"/>
<circle cx="232" cy="538" r="1.2" fill="#fff" opacity="0.32"/>
<circle cx="902" cy="902" r="0.9" fill="#fff" opacity="0.54"/>
<circle cx="71" cy="21" r="0.9" fill="#fff" opacity="0.27"/>
<circle cx="1256" cy="503" r="0.9" fill="#fff" opacity="0.25"/>
<circle cx="352" cy="850" r="1.3" fill="#fff" opacity="0.40"/>
<circle cx="1465" cy="199" r="1.7" fill="#fff" opacity="0.26"/>
<circle cx="491" cy="305" r="0.8" fill="#fff" opacity="0.34"/>
<circle cx="1148" cy="797" r="0.7" fill="#fff" opacity="0.36"/>
<circle cx="996" cy="330" r="0.9" fill="#fff" opacity="0.45"/>
<circle cx="1054" cy="17" r="0.9" fill="#fff" opacity="0.39"/>
<circle cx="717" cy="477" r="1.6" fill="#fff" opacity="0.49"/>
<circle cx="661" cy="850" r="0.8" fill="#fff" opacity="0.21"/>
<circle cx="1078" cy="271" r="2.1" fill="#fff" opacity="0.53"/>
<circle cx="1461" cy="607" r="2.1" fill="#fff" opacity="0.41"/>
<circle cx="932" cy="831" r="0.8" fill="#fff" opacity="0.57"/>
<circle cx="475" cy="165" r="1.0" fill="#fff" opacity="0.19"/>
<circle cx="770" cy="737" r="0.8" fill="#fff" opacity="0.41"/>
<circle cx="376" cy="522" r="1.5" fill="#fff" opacity="0.43"/>
<circle cx="1598" cy="518" r="1.1" fill="#fff" opacity="0.35"/>
<circle cx="1034" cy="144" r="2.1" fill="#fff" opacity="0.29"/>
<circle cx="299" cy="20" r="2.3" fill="#fff" opacity="0.52"/>
<circle cx="537" cy="737" r="1.8" fill="#fff" opacity="0.38"/>
<circle cx="785" cy="637" r="1.3" fill="#fff" opacity="0.24"/>
<circle cx="597" cy="455" r="1.0" fill="#fff" opacity="0.53"/>
<circle cx="1206" cy="694" r="2.1" fill="#fff" opacity="0.47"/>
<circle cx="344" cy="820" r="0.8" fill="#fff" opacity="0.56"/>
<circle cx="726" cy="961" r="2.0" fill="#fff" opacity="0.31"/>
<circle cx="597" cy="439" r="1.3" fill="#fff" opacity="0.52"/>
<circle cx="1497" cy="804" r="2.1" fill="#fff" opacity="0.49"/>
<circle cx="126" cy="619" r="0.7" fill="#fff" opacity="0.18"/>
<circle cx="673" cy="817" r="2.1" fill="#fff" opacity="0.37"/>
<circle cx="1427" cy="712" r="1.0" fill="#fff" opacity="0.32"/>
<circle cx="405" cy="118" r="1.5" fill="#fff" opacity="0.27"/>
<circle cx="973" cy="756" r="1.9" fill="#fff" opacity="0.50"/>
<circle cx="442" cy="296" r="1.8" fill="#fff" opacity="0.20"/>
<circle cx="397" cy="759" r="1.5" fill="#fff" opacity="0.30"/>
<circle cx="907" cy="940" r="1.9" fill="#fff" opacity="0.38"/>
  <rect width="1600" height="1000" fill="#000" opacity=".08"/>
</svg>