<svg xmlns="http://www.w3.org/2000/svg" viewBox="0 0 1600 1000" preserveAspectRatio="xMidYMid slice">
  <defs>
    <linearGradient id="g" x1="0" y1="0" x2="1" y2="1">
      <stop offset="0" stop-color="#102f46"/>
      <stop offset=".58" stop-color="#1d5b6b"/>
      <stop offset="1" stop-color="#102f46"/>
    </linearGradient>
    <radialGradient id="warm" cx=".18" cy=".12" r=".62">
      <stop offset="0" stop-color="#c8f3ff" stop-opacity=".32"/>
      <stop offset="1" stop-color="#c8f3ff" stop-opacity="0"/>
    </radialGradient>
    <radialGradient id="cool" cx=".86" cy=".24" r=".58">
      <stop offset="0" stop-color="#f7d36b" stop-opacity=".24"/>
      <stop offset="1" stop-color="#f7d36b" stop-opacity="0"/>
    </radialGradient>
  </defs>
  <rect width="1600" height="1000" fill="url(#g)"/>
  <rect width="1600" height="1000" fill="url(#warm)"/>
  <rect width="1600" height="1000" fill="url(#cool)"/>
  <circle cx="1280" cy="820" r="360" fill="#ffffff" opacity=".06"/>
  <circle cx="130" cy="930" r="310" fill="#ffffff" opacity=".05"/>
  <circle cx="629" cy="875" r="115" fill="#f7d36b" opacity="0.16"/>
<circle cx="634" cy="931" r="98" fill="#ff8490" opacity="0.18"/>
<circle cx="1651" cy="134" r="170" fill="#ff8490" opacity="0.19"/>
<circle cx="1217" cy="707" r="165" fill="#f7d36b" opacity="0.15"/>
<circle cx="636" cy="1095" r="147" fill="#ff8490" opacity="0.20"/>
<circle cx="1151" cy="1055" r="225" fill="#ff8490" opacity="0.10"/>
<circle cx="1506" cy="340" r="113" fill="#c8f3ff" opacity="0.15"/>
<circle cx="238" cy="273" r="89" fill="#f7d36b" opacity="0.16"/>
<circle cx="1335" cy="-52" r="108" fill="#c8f3ff" opacity="0.12"/>
<circle cx="994" cy="728" r="167" fill="#c8f3ff" opacity="0.20"/>
<circle cx="1606" cy="1002" r="179" fill="#ff8490" opacity="0.15"/>
<circle cx="1535" cy="23" r="100" fill="#ff8490" opacity="0.11"/>
<circle cx="91" cy="1097" r="181" fill="#ff8490" opacity="0.18"/>
<circle cx="1060" cy="96" r="168" fill="#c8f3ff" opacity="0.15"/>
<circle cx="1582" cy="130" r="91" fill="#c8f3ff" opacity="0.15"/>
<circle cx="1200" cy="701" r="134" fill="#f7d36b" opacity="0.17"/><path d="M-121 1000 L-51 809 L19 1000 Z" fill="#071f18" opacity="0.27"/>
<path d="M-101 920 L-51 769 L-1 920 Z" fill="#071f18" opacity="0.32"/>
<path d="M73 1072 L143 760 L213 1072 Z" fill="#071f18" opacity="0.24"/>
<path d="M93 992 L143 720 L193 992 Z" fill="#071f18" opacity="0.29"/>
<path d="M280 1031 L350 637 L420 1031 Z" fill="#071f18" opacity="0.36"/>
<path d="M300 951 L350 597 L400 951 Z" fill="#071f18" opacity="0.41"/>
<path d="M480 1060 L550 861 L620 1060 Z" fill="#071f18" opacity="0.27"/>
<path d="M500 980 L550 821 L600 980 Z" fill="#071f18" opacity="0.32"/>
<path d="M682 991 L752 764 L822 991 Z" fill="#071f18" opacity="0.45"/>
<path d="M702 911 L752 724 L802 911 Z" fill="#071f18" opacity="0.50"/>
<path d="M848 1065 L918 880 L988 1065 Z" fill="#071f18" opacity="0.30"/>
<path d="M868 985 L918 840 L968 985 Z" fill="#071f18" opacity="0.35"/>
<path d="M1054 993 L1124 785 L1194 993 Z" fill="#071f18" opacity="0.24"/>
<path d="M1074 913 L1124 745 L1174 913 Z" fill="#071f18" opacity="0.29"/>
<path d="M1216 993 L1286 691 L1356 993 Z" fill="#071f18" opacity="0.30"/>
<path d="M1236 913 L1286 651 L1336 913 Z" fill="#071f18" opacity="0.35"/>
<path d="M1429 1050 L1499 695 L1569 1050 Z" fill="#071f18" opacity="0.27"/>
<path d="M1449 970 L1499 655 L1549 970 Z" fill="#071f18" opacity="0.32"/>
<path d="M1623 1029 L1693 727 L1763 1029 Z" fill="#071f18" opacity="0.36"/>
<path d="M1643 949 L1693 687 L1743 949 Z" fill="#071f18" opacity="0.41"/><circle cx="1600" cy="695" r="0.8" fill="#fff" opacity="0.56"/>
<circle cx="1175" cy="546" r="1.5" fill="#fff" opacity="0.24"/>
<circle cx="1325" cy="325" r="1.8" fill="#fff" opacity="0.46"/>
<circle cx="199" cy="661" r="2.4" fill="#fff" opacity="0.26"/>
<circle cx="541" cy="998" r="1.7" fill="#fff" opacity="0.49"/>
<circle cx="519" cy="407" r="2.2" fill="#fff" opacity="0.61"/>
<circle cx="464" cy="853" r="1.8" fill="#fff" opacity="0.21"/>
<circle cx="48" cy="984" r="1.0" fill="#fff" opacity="0.61"/>
<circle cx="1024" cy="213" r="1.0" fill="#fff" opacity="0.48"/>
<circle cx="337" cy="984" r="2.2" fill="#fff" opacity="0.42"/>
<circle cx="1218" cy="477" r="2.2" fill="#fff" opacity="0.59"/>
<circle cx="753" cy="132" r="1.8" fill="#fff" opacity="0.40"/>
<circle cx="30" cy="766" r="0.8" fill="#fff" opacity="0.62"/>
<circle cx="1479" cy="862" r="1.8" fill="#fff" opacity="0.36"/>
<circle cx="561" cy="870" r="1.6" fill="#fff" opacity="0.20"/>
<circle cx="1583" cy="168" r="1.5" fill="#fff" opacity="0.23"/>
<circle cx="1253" cy="566" r="2.0" fill="#fff" opacity="0.27"/>
<circle cx="209" cy="814" r="0.8" fill="#fff" opacity="0.19"/>
<circle cx="1283" cy="288" r="1.0" fill="#fff" opacity="0.39"/>
<circle cx="693" cy="880" r="1.5" fill="#fff" opacity="0.22"/>
<circle cx="74" cy="419" r="1.6" fill="#fff" opacity="0.52"/>
<circle cx="1163" cy="96" r="2.2" fill="#fff" opacity="0.61"/>
<circle cx="117" cy="284" r="1.3" fill="#fff" opacity="0.32"/>
<circle cx="1576" cy="505" r="0.8" fill="#fff" opacity="0.45"/>
<circle cx="957" cy="46" r="0.8" fill="#fff" opacity="0.55"/>
<circle cx="206" cy="671" r="0.9" fill="#fff" opacity="0.55"/>
<circle cx="204" cy="575" r="1.5" fill="#fff" opacity="0.24"/>
<circle cx="828" cy="171" r="1.5" fill="#fff" opacity="0.20"/>
<circle cx="614" cy="629" r="1.6" fill="#fff" opacity="0.52"/>
<circle cx="926" cy="49" r="2.4" fill="#fff" opacity="0.56"/>
<circle cx="1188" cy="284" r="2.3" fill="#fff" opacity="0.44"/>
<circle cx="461" cy="361" r="0.8" fill="#fff" opacity="0.40"/>
<circle cx="16" cy="399" r="1.4" fill="#fff" opacity="0.40"/>
<circle cx="1533" cy="627" r="0.9" fill="#fff" opacity="0.20"/>
<circle cx="442" cy="456" r="1.2" fill="#fff" opacity="0.29"/>
<circle cx="1102" cy="739" r="1.3" fill="#fff" opacity="0.51"/>
<circle cx="1597" cy="504" r="0.8" fill="#fff" opacity="0.33"/>
<circle cx="553" cy="409" r="1.7" fill="#fff" opacity="0.23"/>
<circle cx="844" cy="41" r="2.0" fill="#fff" opacity="0.35"/>
<circle cx="816" cy="768" r="1.8" fill="#fff" opacity="0.26"/>
<circle cx="100" cy="692" r="1.1" fill="#fff" opacity="0.48"/>
<circle cx="1577" cy="910" r="1.9" fill="#fff" opacity="0.44"/>
<circle cx="1169" cy="408" r="1.2" fill="#fff" opacity="0.40"/>
<circle cx="809" cy="746" r="1.2" fill="#fff" opacity="0.52"/>
<circle cx="1176" cy="983" r="1.3" fill="#fff" opacity="0.28"/>
<circle cx="1245" cy="111" r="1.6" fill="#fff" opacity="0.26"/>
<circle cx="7" cy="395" r="2.1" fill="#fff" opacity="0.51"/>
<circle cx="441" cy="136" r="2.3" fill="#fff" opacity="0.30"/>
<circle cx="1196" cy="783" r="1.8" fill="#fff" opacity="0.33"/>
<circle cx="1370" cy="269" r="1.4" fill="#fff" opacity="0.20"/>
<circle cx="866" cy="690" r="2.0" fill="#fff" opacity="0.25"/>
<circle cx="810" cy="599" r="2.1" fill="#fff" opacity="0.37"/>
<circle cx="1268" cy="122" r="0.8" fill="#fff" opacity="0.24"/>
<circle cx="1256" cy="696" r="1.4" fill="#fff" opacity="0.58"/>
<circle cx="1165" cy="560" r="1.1" fill="#fff" opacity="0.27"/>
<circle cx="253" cy="719" r="2.0" fill="#fff" opacity="0.20"/>
<circle cx="908" cy="136" r="2.1" fill="#fff" opacity="0.58"/>
<circle cx="250" cy="923" r="2.1" fill="#fff" opacity="0.29"/>
<circle cx="51" cy="664" r="0.9" fill="#fff" opacity="0.50"/>
<circle cx="876" cy="283" r="2.3" fill="#fff" opacity="0.34"/>
<circle cx="862" cy="505" r="2.1" fill="#fff" opacity="0.58"/>
<circle cx="482" cy="783" r="1.1" fill="#fff" opacity="0.35"/>
<circle cx="604" cy="728" r="1.5" fill="#fff" opacity="0.58"/>
<circle cx="280" cy="678" r="1.4" fill="#fff" opacity="0.52"/>
<circle cx="221" cy="288" r="1.4" fill="#fff" opacity="0.41"/>
<circle cx="1064" cy="572" r="1.0" fill="#fff" opacity="0.21"/>
<circle cx="1062" cy="635" r="2.0" fill="#fff" opacity="0.23"/>
<circle cx="1135" cy="418" r="0.7" fill="#fff" opacity="0.57"/>
<circle cx="1269" cy="307" r="1.3" fill="#fff" opacity="0.45"/>
<circle cx="702" cy="298" r="1.5" fill="#fff" opacity="0.27"/>
<circle cx="1523" cy="472" r="2.1" fill="#fff" opacity="0.29"/>
<circle cx="262" cy="749" r="1.8" fill="#fff" opacity="0.46"/>
<circle cx="603" cy="174" r="1.7" fill="#fff" opacity="0.32"/>
<circle cx="429" cy="502" r="2.3" fill="#fff" opacity="0.38"/>
<circle cx="158" cy="387" r="1.1" fill="#fff" opacity="0.22"/>
<circle cx="498" cy="711" r="0.7" fill="#fff" opacity="0.59"/>
<circle cx="599" cy="227" r="0.9" fill="#fff" opacity="0.37"/>
<circle cx="1450" cy="673" r="1.8" fill="#fff" opacity="0.54"/>
<circle cx="1219" cy="379" r="1.7" fill="#fff" opacity="0.58"/>
<circle cx="27" cy="604" r="1.2" fill="#fff" opacity="0.60"/>
<circle cx="914" cy="364" r="1.2" fill="#fff" opacity="0.33"/>
<circle cx="1339" cy="105" r="1.5" fill="#fff" opacity="0.33"/>
<circle cx="1416" cy="637" r="2.0" fill="#fff" opacity="0.43"/>
<circle cx="755" cy="966" r="2.1" fill="#fff" opacity="0.41"/>
<circle cx="264" cy="992" r="1.9" fill="#fff" opacity="0.29"/>
<circle cx="225" cy="455" r="1.8" fill="#fff" opacity="0.50"/>
<circle cx="1452" cy="70" r="1.6" fill="#fff" opacity="0.45"/>
<circle cx="229" cy="309" r="2.3" fill="#fff" opacity="0.40"/>
<circle cx="1538" cy="814" r="1.0" fill="#fff" opacity="0.23"/>
<circle cx="524" cy="643" r="1.7" fill="#fff" opacity="0.39"/>
<circle cx="388" cy="895" r="1.2" fill="#fff" opacity="0.27"/>
<circle cx="464" cy="568" r="1.2" fill="#fff" opacity="0.22"/>
<circle cx="1097" cy="572" r="2.2" fill="#fff" opacity="0.43"/>
<circle cx="1206" cy="31" r="1.7" fill="#fff" opacity="0.20"/>
<circle cx="1109" cy="73" r="1.1" fill="#fff" opacity="0.27"/>
<circle cx="382" cy="172" r="2.1" fill="#fff" opacity="0.25"/>
<circle cx="943" cy="797" r="2.1" fill="#fff" opacity="0.24"/>
<circle cx="525" cy="919" r="2.0" fill="#fff" opacity="0.59"/>
<circle cx="26" cy="356" r="1.6" fill="#fff" opacity="0.23"/>
<circle cx="840" cy="381" r="1.5" fill="#fff" opacity="0.20"/>
<circle cx="364" cy="494" r="1.5" fill="#fff" opacity="0.56"/>
<circle cx="1216" cy="53" r="2.1" fill="#fff" opacity="0.22"/>
<circle cx="1063" cy="589" r="1.4" fill="#fff" opacity="0.23"/>
<circle cx="14" cy="364" r="2.1" fill="#fff" opacity="0.32"/>
<circle cx="107" cy="422" r="1.6" fill="#fff" opacity="0.48"/>
<circle cx="699" cy="405" r="1.1" fill="#fff" opacity="0.49"/>
<circle cx="1038" cy="96" r="0.9" fill="#fff" opacity="0.19"/>
<circle cx="569" cy="573" r="1.3" fill="#fff" opacity="0.21"/>
<circle cx="986" cy="261" r="1.0" fill="#fff" opacity="0.39"/>
<circle cx="621" cy="338" r="2.0" fill="#fff" opacity="0.44"/>
<circle cx="1055" cy="63" r="2.2" fill="#fff" opacity="0.50"/>
<circle cx="643" cy="821" r="0.7" fill="#fff" opacity="0.25"/>
<circle cx="486" cy="681" r="1.3" fill="#fff" opacity="0.61"/>
<circle cx="43" cy="316" r="2.3" fill="#fff" opacity="0.35"/>
<circle cx="1555" cy="94" r="1.8" fill="#fff" opacity="0.60"/>
<circle cx="397" cy="216" r="2.1" fill="#fff" opacity="0.25"/>
<circle cx="114" cy="607" r="0.9" fill="#fff" opacity="0.21"/>
<circle cx="1302" cy="737" r="2.2" fill="#fff" opacity="0.59"/>
<circle cx="379" cy="111" r="0.7" fill="#fff" opacity="0.46"/>
<circle cx="110" cy="136" r="1.1" fill="#fff" opacity="0.31"/>
<circle cx="1526" cy="5" r="0.9" fill="#fff" opacity="0.43"/>
<circle cx="629" cy="568" r="1.0" fill="#fff" opacity="0.45"/>
<circle cx="969" cy="101" r="1.8" fill="#fff" opacity="0.60"/>
<circle cx="1003" cy="211" r="1.6" fill="#fff" opacity="0.23"/>
<circle cx="908" cy="935" r="1.5" fill="#fff" opacity="0.37"/>
<circle cx="533" cy="939" r="1.7" fill="#fff" opacity="0.52"/>
<circle cx="72" cy="115" r="1.3" fill="#fff" opacity="0.20"/>
<circle cx="272" cy="398" r="1.0" fill="#fff" opacity="0.35"/>
<circle cx="507" cy="338" r="1.7" fill="#fff" opacity="0.29"/>
<circle cx="903" cy="157" r="2.0" fill="#fff" opacity="0.32"/>
  <rect width="1600" height="1000" fill="#000" opacity=".08"/>
</svg>