<svg xmlns="http://www.w3.org/2000/svg" viewBox="0 0 1600 1000" preserveAspectRatio="xMidYMid slice">
  <defs>
    <linearGradient id="g" x1="0" y1="0" x2="1" y2="1">
      <stop offset="0" stop-color="#2b2418"/>
      <stop offset=".58" stop-color="#5a3725"/>
      <stop offset="1" stop-color="#2b2418"/>
    </linearGradient>
    <radialGradient id="warm" cx=".18" cy=".12" r=".62">
      <stop offset="0" stop-color="#ffcf73" stop-opacity=".32"/>
      <stop offset="1" stop-color="#ffcf73" stop-opacity="0"/>
    </radialGradient>
    <radialGradient id="cool" cx=".86" cy=".24" r=".58">
      <stop offset="0" stop-color="#8adf92" stop-opacity=".24"/>
      <stop offset="1" stop-color="#8adf92" stop-opacity="0"/>
    </radialGradient>
  </defs>
  <rect width="1600" height="1000" fill="url(#g)"/>
  <rect width="1600" height="1000" fill="url(#warm)"/>
  <rect width="1600" height="1000" fill="url(#cool)"/>
  <circle cx="1280" cy="820" r="360" fill="#ffffff" opacity=".06"/>
  <circle cx="130" cy="930" r="310" fill="#ffffff" opacity=".05"/>
  <circle cx="139" cy="608" r="162" fill="#ef7460" opacity="0.18"/>
<circle cx="1399" cy="832" r="192" fill="#ffcf73" opacity="0.19"/>
<circle cx="196" cy="247" r="121" fill="#8adf92" opacity="0.12"/>
<circle cx="1142" cy="570" r="92" fill="#ffcf73" opacity="0.22"/>
<circle cx="1421" cy="351" r="110" fill="#ef7460" opacity="0.16"/>
<circle cx="727" cy="301" r="219" fill="#ef7460" opacity="0.17"/>
<circle cx="826" cy="951" r="208" fill="#8adf92" opacity="0.12"/>
<circle cx="625" cy="460" r="177" fill="#8adf92" opacity="0.18"/>
<circle cx="1173" cy="440" r="133" fill="#ef7460" opacity="0.22"/>
<circle cx="66" cy="1036" r="240" fill="#8adf92" opacity="0.11"/>
<circle cx="1100" cy="818" r="139" fill="#8adf92" opacity="0.20"/>
<circle cx="329" cy="535" r="187" fill="#ef7460" opacity="0.09"/>
<circle cx="880" cy="545" r="81" fill="#ef7460" opacity="0.13"/>
<circle cx="129" cy="490" r="130" fill="#8adf92" opacity="0.16"/>
<circle cx="379" cy="-25" r="180" fill="#8adf92" opacity="0.11"/>
<circle cx="117" cy="130" r="162" fill="#ef7460" opacity="0.20"/>
    <pattern id="plaid" width="96" height="96" patternUnits="userSpaceOnUse">
      <rect width="96" height="96" fill="transparent"/>
      <path d="M0 24H96 M0 72H96 M24 0V96 M72 0V96" stroke="#ffcf73" stroke-width="2" opacity=".18"/>
      <path d="M0 48H96 M48 0V96" stroke="#8adf92" stroke-width="8" opacity=".06"/>
    </pattern>
    <rect width="1600" height="1000" fill="url(#plaid)" opacity=".9"/><path d="M0 120 C280 30, 520 180, 800 90 S1300 40, 1600 120" fill="none" stroke="#fff" stroke-width="2" opacity=".22"/>
<ellipse cx="42" cy="110.0" rx="12" ry="18" fill="#ef7460" opacity=".82"/>
<circle cx="42" cy="110.0" r="38" fill="#ef7460" opacity=".10"/>
<ellipse cx="134" cy="140.1074631814833" rx="12" ry="18" fill="#8adf92" opacity=".82"/>
<circle cx="134" cy="140.1074631814833" r="38" fill="#8adf92" opacity=".10"/>
<ellipse cx="230" cy="145.98507610645268" rx="12" ry="18" fill="#ef7460" opacity=".82"/>
<circle cx="230" cy="145.98507610645268" r="38" fill="#ef7460" opacity=".10"/>
<ellipse cx="309" cy="136.64121131929028" rx="12" ry="18" fill="#8adf92" opacity=".82"/>
<circle cx="309" cy="136.64121131929028" r="38" fill="#8adf92" opacity=".10"/>
<ellipse cx="389" cy="111.9569049800347" rx="12" ry="18" fill="#ffcf73" opacity=".82"/>
<circle cx="389" cy="111.9569049800347" r="38" fill="#ffcf73" opacity=".10"/>
<ellipse cx="497" cy="83.5119126642225" rx="12" ry="18" fill="#8adf92" opacity=".82"/>
<circle cx="497" cy="83.5119126642225" r="38" fill="#8adf92" opacity=".10"/>
<ellipse cx="590" cy="72.13423869074558" rx="12" ry="18" fill="#ef7460" opacity=".82"/>
<circle cx="590" cy="72.13423869074558" r="38" fill="#ef7460" opacity=".10"/>
<ellipse cx="667" cy="91.90566767446877" rx="12" ry="18" fill="#8adf92" opacity=".82"/>
<circle cx="667" cy="91.90566767446877" r="38" fill="#8adf92" opacity=".10"/>
<ellipse cx="748" cy="107.07922216976728" rx="12" ry="18" fill="#ef7460" opacity=".82"/>
<circle cx="748" cy="107.07922216976728" r="38" fill="#ef7460" opacity=".10"/>
<ellipse cx="859" cy="144.77837523472036" rx="12" ry="18" fill="#ef7460" opacity=".82"/>
<circle cx="859" cy="144.77837523472036" r="38" fill="#ef7460" opacity=".10"/>
<ellipse cx="948" cy="141.62753863181837" rx="12" ry="18" fill="#ffcf73" opacity=".82"/>
<circle cx="948" cy="141.62753863181837" r="38" fill="#ffcf73" opacity=".10"/>
<ellipse cx="1040" cy="126.47210175121165" rx="12" ry="18" fill="#ef7460" opacity=".82"/>
<circle cx="1040" cy="126.47210175121165" r="38" fill="#ef7460" opacity=".10"/>
<ellipse cx="1123" cy="97.89856265719565" rx="12" ry="18" fill="#ef7460" opacity=".82"/>
<circle cx="1123" cy="97.89856265719565" r="38" fill="#ef7460" opacity=".10"/>
<ellipse cx="1205" cy="77.02607358200211" rx="12" ry="18" fill="#ffcf73" opacity=".82"/>
<circle cx="1205" cy="77.02607358200211" r="38" fill="#ffcf73" opacity=".10"/>
<ellipse cx="1288" cy="69.72877947970392" rx="12" ry="18" fill="#ef7460" opacity=".82"/>
<circle cx="1288" cy="69.72877947970392" r="38" fill="#ef7460" opacity=".10"/>
<ellipse cx="1380" cy="85.21994786998478" rx="12" ry="18" fill="#ffcf73" opacity=".82"/>
<circle cx="1380" cy="85.21994786998478" r="38" fill="#ffcf73" opacity=".10"/>
<ellipse cx="1471" cy="119.10284387855387" rx="12" ry="18" fill="#ef7460" opacity=".82"/>
<circle cx="1471" cy="119.10284387855387" r="38" fill="#ef7460" opacity=".10"/>
<ellipse cx="1573" cy="142.0706635199774" rx="12" ry="18" fill="#ef7460" opacity=".82"/>
<circle cx="1573" cy="142.0706635199774" r="38" fill="#ef7460" opacity=".10"/><path d="M204 433.32684002599603 L204.9356059909014 435.0643940090986 L206.673159974004 436 L204.9356059909014 436.9356059909014 L204 438.67315997400397 L203.0643940090986 436.9356059909014 L201.326840025996 436 L203.0643940090986 435.0643940090986 Z" fill="#fff8d8" opacity="0.55"/>
<path d="M270 296.0013031530512 L270.6995438964321 297.3004561035679 L271.9986968469488 298 L270.6995438964321 298.6995438964321 L270 299.9986968469488 L269.3004561035679 298.6995438964321 L268.0013031530512 298 L269.3004561035679 297.3004561035679 Z" fill="#fff8d8" opacity="0.47"/>
<path d="M1348 637.5929815306387 L1349.1924564642766 639.8075435357235 L1351.4070184693614 641 L1349.1924564642766 642.1924564642765 L1348 644.4070184693613 L1346.8075435357234 642.1924564642765 L1344.5929815306386 641 L1346.8075435357234 639.8075435357235 Z" fill="#fff8d8" opacity="0.51"/>
<path d="M856 258.5033153290338 L857.2238396348382 260.77616036516184 L859.4966846709661 262 L857.2238396348382 263.22383963483816 L856 265.4966846709662 L854.7761603651618 263.22383963483816 L852.5033153290339 262 L854.7761603651618 260.77616036516184 Z" fill="#fff8d8" opacity="0.50"/>
<path d="M1155 359.11832155807076 L1156.0085874546753 360.99141254532475 L1157.8816784419291 362 L1156.0085874546753 363.00858745467525 L1155 364.88167844192924 L1153.9914125453247 363.00858745467525 L1152.1183215580709 362 L1153.9914125453247 360.99141254532475 Z" fill="#fff8d8" opacity="0.53"/>
<path d="M1001 86.34552178885333 L1001.9290673739014 88.07093262609867 L1003.6544782111466 89 L1001.9290673739014 89.92906737390133 L1001 91.65447821114667 L1000.0709326260986 89.92906737390133 L998.3455217888534 89 L1000.0709326260986 88.07093262609867 Z" fill="#fff8d8" opacity="0.44"/>
<path d="M146 665.36183257624 L146.923358598316 667.076641401684 L148.63816742376008 668 L146.923358598316 668.923358598316 L146 670.63816742376 L145.076641401684 668.923358598316 L143.36183257623992 668 L145.076641401684 667.076641401684 Z" fill="#fff8d8" opacity="0.17"/>
<path d="M1206 93.38166570805049 L1206.5664170021823 94.43358299781768 L1207.6183342919494 95 L1206.5664170021823 95.56641700218232 L1206 96.61833429194951 L1205.4335829978177 95.56641700218232 L1204.3816657080506 95 L1205.4335829978177 94.43358299781768 Z" fill="#fff8d8" opacity="0.29"/>
<path d="M447 54.070446264223136 L448.3753438075219 56.6246561924781 L450.9295537357769 58 L448.3753438075219 59.3753438075219 L447 61.929553735776864 L445.6246561924781 59.3753438075219 L443.0704462642231 58 L445.6246561924781 56.6246561924781 Z" fill="#fff8d8" opacity="0.32"/>
<path d="M34 574.1724160858427 L34.98965436995507 576.010345630045 L36.82758391415734 577 L34.98965436995507 577.989654369955 L34 579.8275839141573 L33.01034563004493 577.989654369955 L31.172416085842663 577 L33.01034563004493 576.010345630045 Z" fill="#fff8d8" opacity="0.46"/>
<path d="M1001 920.016981496756 L1002.3940564761355 922.6059435238645 L1004.983018503244 924 L1002.3940564761355 925.3940564761355 L1001 927.983018503244 L999.6059435238645 925.3940564761355 L997.016981496756 924 L999.6059435238645 922.6059435238645 Z" fill="#fff8d8" opacity="0.16"/>
<path d="M273 569.2895375322781 L273.9486618637026 571.0513381362973 L275.71046246772187 572 L273.9486618637026 572.9486618637027 L273 574.7104624677219 L272.0513381362974 572.9486618637027 L270.28953753227813 572 L272.0513381362974 571.0513381362973 Z" fill="#fff8d8" opacity="0.54"/>
<path d="M1581 136.19317887283955 L1581.982387394506 138.01761260549384 L1583.8068211271604 139 L1581.982387394506 139.98238739450616 L1581 141.80682112716045 L1580.017612605494 139.98238739450616 L1578.1931788728396 139 L1580.017612605494 138.01761260549384 Z" fill="#fff8d8" opacity="0.49"/>
<path d="M384 270.8394246742221 L385.1062013640223 272.8937986359777 L387.1605753257779 274 L385.1062013640223 275.1062013640223 L384 277.1605753257779 L382.8937986359777 275.1062013640223 L380.8394246742221 274 L382.8937986359777 272.8937986359777 Z" fill="#fff8d8" opacity="0.52"/>
<path d="M602 38.94789488168364 L602.7182367914107 40.281763208589275 L604.0521051183164 41 L602.7182367914107 41.718236791410725 L602 43.05210511831636 L601.2817632085893 41.718236791410725 L599.9478948816836 41 L601.2817632085893 40.281763208589275 Z" fill="#fff8d8" opacity="0.36"/>
<path d="M262 696.5248021374663 L263.21631925188683 698.7836807481132 L265.4751978625338 700 L263.21631925188683 701.2163192518868 L262 703.4751978625337 L260.78368074811317 701.2163192518868 L258.5248021374662 700 L260.78368074811317 698.7836807481132 Z" fill="#fff8d8" opacity="0.36"/>
<path d="M966 417.39345755054495 L967.2622898573093 419.73771014269073 L969.6065424494551 421 L967.2622898573093 422.26228985730927 L966 424.60654244945505 L964.7377101426907 422.26228985730927 L962.3934575505449 421 L964.7377101426907 419.73771014269073 Z" fill="#fff8d8" opacity="0.25"/>
<path d="M705 944.3750550250953 L705.5687307412167 945.4312692587833 L706.6249449749047 946 L705.5687307412167 946.5687307412167 L705 947.6249449749047 L704.4312692587833 946.5687307412167 L703.3750550250953 946 L704.4312692587833 945.4312692587833 Z" fill="#fff8d8" opacity="0.27"/>
<path d="M1216 685.5128363882463 L1216.8705072641137 687.1294927358862 L1218.4871636117537 688 L1216.8705072641137 688.8705072641138 L1216 690.4871636117537 L1215.1294927358863 688.8705072641138 L1213.5128363882463 688 L1215.1294927358863 687.1294927358862 Z" fill="#fff8d8" opacity="0.42"/>
<path d="M170 624.3950508587352 L170.9117321994427 626.0882678005573 L172.60494914126483 627 L170.9117321994427 627.9117321994427 L170 629.6049491412648 L169.0882678005573 627.9117321994427 L167.39505085873517 627 L169.0882678005573 626.0882678005573 Z" fill="#fff8d8" opacity="0.33"/>
<path d="M1238 1.717943814315492 L1239.1487196649896 3.851280335010422 L1241.2820561856845 5 L1239.1487196649896 6.148719664989578 L1238 8.282056185684509 L1236.8512803350104 6.148719664989578 L1234.7179438143155 5 L1236.8512803350104 3.851280335010422 Z" fill="#fff8d8" opacity="0.51"/>
<path d="M214 291.818404707864 L214.7635583522476 293.2364416477524 L216.181595292136 294 L214.7635583522476 294.7635583522476 L214 296.181595292136 L213.2364416477524 294.7635583522476 L211.818404707864 294 L213.2364416477524 293.2364416477524 Z" fill="#fff8d8" opacity="0.47"/>
<path d="M409 598.5090255584555 L409.8718410545406 600.1281589454594 L411.4909744415445 601 L409.8718410545406 601.8718410545406 L409 603.4909744415445 L408.1281589454594 601.8718410545406 L406.5090255584555 601 L408.1281589454594 600.1281589454594 Z" fill="#fff8d8" opacity="0.38"/>
<path d="M790 706.1087909612102 L790.6619231635765 707.3380768364235 L791.8912090387898 708 L790.6619231635765 708.6619231635765 L790 709.8912090387898 L789.3380768364235 708.6619231635765 L788.1087909612102 708 L789.3380768364235 707.3380768364235 Z" fill="#fff8d8" opacity="0.28"/>
<path d="M1384 100.2655815956683 L1384.957046441516 102.0429535584839 L1386.7344184043318 103 L1384.957046441516 103.9570464415161 L1384 105.7344184043317 L1383.042953558484 103.9570464415161 L1381.2655815956682 103 L1383.042953558484 102.0429535584839 Z" fill="#fff8d8" opacity="0.38"/>
<path d="M194 687.0213623307864 L194.69252318422477 688.3074768157752 L195.97863766921367 689 L194.69252318422477 689.6925231842248 L194 690.9786376692136 L193.30747681577523 689.6925231842248 L192.02136233078633 689 L193.30747681577523 688.3074768157752 Z" fill="#fff8d8" opacity="0.34"/>
<path d="M937 712.7846384663619 L938.1253765367733 714.8746234632267 L940.2153615336381 716 L938.1253765367733 717.1253765367733 L937 719.2153615336381 L935.8746234632267 717.1253765367733 L933.7846384663619 716 L935.8746234632267 714.8746234632267 Z" fill="#fff8d8" opacity="0.43"/>
<path d="M1561 -0.5008733668918386 L1561.8753056784121 1.1246943215878566 L1563.500873366892 2 L1561.8753056784121 2.8753056784121434 L1561 4.500873366891838 L1560.1246943215879 2.8753056784121434 L1558.499126633108 2 L1560.1246943215879 1.1246943215878566 Z" fill="#fff8d8" opacity="0.53"/>
<path d="M1347 925.3343101650377 L1347.932991442237 927.0670085577632 L1349.6656898349624 928 L1347.932991442237 928.9329914422368 L1347 930.6656898349623 L1346.067008557763 928.9329914422368 L1344.3343101650376 928 L1346.067008557763 927.0670085577632 Z" fill="#fff8d8" opacity="0.37"/>
<path d="M154 610.8225737353748 L155.1120991926188 612.8879008073812 L157.17742626462518 614 L155.1120991926188 615.1120991926188 L154 617.1774262646252 L152.8879008073812 615.1120991926188 L150.82257373537482 614 L152.8879008073812 612.8879008073812 Z" fill="#fff8d8" opacity="0.53"/>
<path d="M846 578.3023314114529 L846.9441840059915 580.0558159940085 L848.6976685885471 581 L846.9441840059915 581.9441840059915 L846 583.6976685885471 L845.0558159940085 581.9441840059915 L843.3023314114529 581 L845.0558159940085 580.0558159940085 Z" fill="#fff8d8" opacity="0.44"/>
<path d="M167 227.69698459511574 L167.8060553917095 229.1939446082905 L169.30301540488426 230 L167.8060553917095 230.8060553917095 L167 232.30301540488426 L166.1939446082905 230.8060553917095 L164.69698459511574 230 L166.1939446082905 229.1939446082905 Z" fill="#fff8d8" opacity="0.43"/>
<path d="M248 824.3519760219482 L248.57680839231813 825.4231916076818 L249.6480239780518 826 L248.57680839231813 826.5768083923182 L248 827.6480239780518 L247.42319160768187 826.5768083923182 L246.3519760219482 826 L247.42319160768187 825.4231916076818 Z" fill="#fff8d8" opacity="0.20"/>
<path d="M817 122.0474213568079 L818.3834025251173 124.61659747488277 L820.952578643192 126 L818.3834025251173 127.38340252511723 L817 129.9525786431921 L815.6165974748827 127.38340252511723 L813.047421356808 126 L815.6165974748827 124.61659747488277 Z" fill="#fff8d8" opacity="0.35"/>
<path d="M776 61.356688586426515 L777.2751589947508 63.72484100524928 L779.6433114135734 65 L777.2751589947508 66.27515899475073 L776 68.64331141357349 L774.7248410052492 66.27515899475073 L772.3566885864266 65 L774.7248410052492 63.72484100524928 Z" fill="#fff8d8" opacity="0.21"/>
<path d="M905 799.2465840129175 L906.3136955954789 801.6863044045211 L908.7534159870825 803 L906.3136955954789 804.3136955954789 L905 806.7534159870825 L903.6863044045211 804.3136955954789 L901.2465840129175 803 L903.6863044045211 801.6863044045211 Z" fill="#fff8d8" opacity="0.45"/>
<path d="M695 646.4590548584792 L695.5393307995323 647.4606692004677 L696.5409451415208 648 L695.5393307995323 648.5393307995323 L695 649.5409451415208 L694.4606692004677 648.5393307995323 L693.4590548584792 648 L694.4606692004677 647.4606692004677 Z" fill="#fff8d8" opacity="0.53"/>
<path d="M632 569.8453299101377 L632.7541345314518 571.2458654685482 L634.1546700898623 572 L632.7541345314518 572.7541345314518 L632 574.1546700898623 L631.2458654685482 572.7541345314518 L629.8453299101377 572 L631.2458654685482 571.2458654685482 Z" fill="#fff8d8" opacity="0.31"/><circle cx="851" cy="712" r="1.9" fill="#fff" opacity="0.56"/>
<circle cx="1473" cy="66" r="0.8" fill="#fff" opacity="0.34"/>
<circle cx="289" cy="1" r="1.3" fill="#fff" opacity="0.45"/>
<circle cx="215" cy="609" r="1.6" fill="#fff" opacity="0.53"/>
<circle cx="516" cy="963" r="2.3" fill="#fff" opacity="0.52"/>
<circle cx="1382" cy="594" r="0.9" fill="#fff" opacity="0.19"/>
<circle cx="358" cy="306" r="1.9" fill="#fff" opacity="0.27"/>
<circle cx="532" cy="335" r="1.0" fill="#fff" opacity="0.18"/>
<circle cx="247" cy="271" r="1.0" fill="#fff" opacity="0.58"/>
<circle cx="656" cy="555" r="2.2" fill="#fff" opacity="0.53"/>
<circle cx="1113" cy="801" r="1.0" fill="#fff" opacity="0.19"/>
<circle cx="164" cy="177" r="1.3" fill="#fff" opacity="0.49"/>
<circle cx="1115" cy="615" r="0.8" fill="#fff" opacity="0.46"/>
<circle cx="545" cy="137" r="2.2" fill="#fff" opacity="0.18"/>
<circle cx="450" cy="684" r="1.0" fill="#fff" opacity="0.41"/>
<circle cx="1019" cy="873" r="1.3" fill="#fff" opacity="0.28"/>
<circle cx="663" cy="919" r="0.7" fill="#fff" opacity="0.35"/>
<circle cx="62" cy="329" r="1.9" fill="#fff" opacity="0.49"/>
<circle cx="191" cy="679" r="0.9" fill="#fff" opacity="0.47"/>
<circle cx="939" cy="716" r="1.4" fill="#fff" opacity="0.50"/>
<circle cx="1115" cy="611" r="1.0" fill="#fff" opacity="0.37"/>
<circle cx="1548" cy="335" r="1.2" fill="#fff" opacity="0.41"/>
<circle cx="880" cy="639" r="1.1" fill="#fff" opacity="0.38"/>
<circle cx="717" cy="165" r="1.4" fill="#fff" opacity="0.50"/>
<circle cx="502" cy="101" r="1.5" fill="#fff" opacity="0.35"/>
<circle cx="1511" cy="619" r="1.4" fill="#fff" opacity="0.31"/>
<circle cx="1363" cy="273" r="1.2" fill="#fff" opacity="0.46"/>
<circle cx="214" cy="74" r="2.3" fill="#fff" opacity="0.43"/>
<circle cx="668" cy="342" r="1.9" fill="#fff" opacity="0.32"/>
<circle cx="734" cy="817" r="1.8" fill="#fff" opacity="0.50"/>
<circle cx="911" cy="316" r="1.1" fill="#fff" opacity="0.54"/>
<circle cx="652" cy="799" r="1.5" fill="#fff" opacity="0.36"/>
<circle cx="207" cy="304" r="1.5" fill="#fff" opacity="0.44"/>
<circle cx="51" cy="17" r="1.4" fill="#fff" opacity="0.19"/>
<circle cx="104" cy="325" r="1.6" fill="#fff" opacity="0.41"/>
<circle cx="737" cy="504" r="1.7" fill="#fff" opacity="0.31"/>
<circle cx="710" cy="826" r="1.9" fill="#fff" opacity="0.39"/>
<circle cx="1589" cy="797" r="0.9" fill="#fff" opacity="0.28"/>
<circle cx="68" cy="572" r="1.8" fill="#fff" opacity="0.55"/>
<circle cx="296" cy="436" r="0.9" fill="#fff" opacity="0.56"/>
<circle cx="1483" cy="473" r="0.9" fill="#fff" opacity="0.61"/>
<circle cx="796" cy="696" r="1.5" fill="#fff" opacity="0.30"/>
<circle cx="984" cy="370" r="2.2" fill="#fff" opacity="0.50"/>
<circle cx="282" cy="212" r="1.7" fill="#fff" opacity="0.51"/>
<circle cx="961" cy="48" r="1.1" fill="#fff" opacity="0.49"/>
<circle cx="937" cy="272" r="1.6" fill="#fff" opacity="0.55"/>
<circle cx="1430" cy="616" r="0.9" fill="#fff" opacity="0.44"/>
<circle cx="1019" cy="220" r="2.0" fill="#fff" opacity="0.58"/>
<circle cx="14" cy="767" r="1.1" fill="#fff" opacity="0.46"/>
<circle cx="526" cy="179" r="1.0" fill="#fff" opacity="0.25"/>
<circle cx="243" cy="704" r="0.9" fill="#fff" opacity="0.56"/>
<circle cx="1567" cy="682" r="1.7" fill="#fff" opacity="0.25"/>
<circle cx="1505" cy="488" r="1.0" fill="#fff" opacity="0.48"/>
<circle cx="229" cy="685" r="0.9" fill="#fff" opacity="0.28"/>
<circle cx="230" cy="971" r="0.9" fill="#fff" opacity="0.42"/>
<circle cx="517" cy="626" r="2.2" fill="#fff" opacity="0.44"/>
<circle cx="1337" cy="327" r="2.2" fill="#fff" opacity="0.45"/>
<circle cx="949" cy="766" r="2.1" fill="#fff" opacity="0.53"/>
<circle cx="962" cy="864" r="1.0" fill="#fff" opacity="0.54"/>
<circle cx="750" cy="587" r="1.6" fill="#fff" opacity="0.55"/>
<circle cx="106" cy="969" r="0.9" fill="#fff" opacity="0.45"/>
<circle cx="505" cy="441" r="1.8" fill="#fff" opacity="0.33"/>
<circle cx="128" cy="205" r="2.2" fill="#fff" opacity="0.52"/>
<circle cx="729" cy="975" r="0.9" fill="#fff" opacity="0.53"/>
<circle cx="1155" cy="119" r="2.1" fill="#fff" opacity="0.40"/>
<circle cx="262" cy="173" r="1.2" fill="#fff" opacity="0.46"/>
<circle cx="575" cy="922" r="0.7" fill="#fff" opacity="0.24"/>
<circle cx="972" cy="86" r="1.5" fill="#fff" opacity="0.58"/>
<circle cx="43" cy="455" r="1.2" fill="#fff" opacity="0.44"/>
<circle cx="48" cy="981" r="2.0" fill="#fff" opacity="0.40"/>
  <rect width="1600" height="1000" fill="#000" opacity=".08"/>
</svg>