<svg xmlns="http://www.w3.org/2000/svg" viewBox="0 0 1600 1000" preserveAspectRatio="xMidYMid slice">
  <defs>
    <linearGradient id="g" x1="0" y1="0" x2="1" y2="1">
      <stop offset="0" stop-color="#1b243a"/>
      <stop offset=".58" stop-color="#122f4a"/>
      <stop offset="1" stop-color="#1b243a"/>
    </linearGradient>
    <radialGradient id="warm" cx=".18" cy=".12" r=".62">
      <stop offset="0" stop-color="#dcefff" stop-opacity=".32"/>
      <stop offset="1" stop-color="#dcefff" stop-opacity="0"/>
    </radialGradient>
    <radialGradient id="cool" cx=".86" cy=".24" r=".58">
      <stop offset="0" stop-color="#90e4ff" stop-opacity=".24"/>
      <stop offset="1" stop-color="#90e4ff" stop-opacity="0"/>
    </radialGradient>
  </defs>
  <rect width="1600" height="1000" fill="url(#g)"/>
  <rect width="1600" height="1000" fill="url(#warm)"/>
  <rect width="1600" height="1000" fill="url(#cool)"/>
  <circle cx="1280" cy="820" r="360" fill="#ffffff" opacity=".06"/>
  <circle cx="130" cy="930" r="310" fill="#ffffff" opacity=".05"/>
  <circle cx="1242" cy="695" r="99" fill="#ff8a9c" opacity="0.08"/>
<circle cx="355" cy="96" r="89" fill="#90e4ff" opacity="0.08"/>
<circle cx="1597" cy="432" r="140" fill="#dcefff" opacity="0.14"/>
<circle cx="820" cy="748" r="170" fill="#90e4ff" opacity="0.15"/>
<circle cx="389" cy="635" r="134" fill="#ff8a9c" opacity="0.10"/>
<circle cx="1446" cy="977" r="191" fill="#90e4ff" opacity="0.15"/>
<circle cx="822" cy="707" r="90" fill="#90e4ff" opacity="0.19"/>
<circle cx="152" cy="698" r="94" fill="#90e4ff" opacity="0.17"/>
<circle cx="1420" cy="567" r="81" fill="#dcefff" opacity="0.18"/>
<circle cx="596" cy="537" r="107" fill="#90e4ff" opacity="0.19"/>
<circle cx="888" cy="213" r="77" fill="#ff8a9c" opacity="0.12"/>
<circle cx="1108" cy="-29" r="93" fill="#dcefff" opacity="0.18"/>
<circle cx="739" cy="-70" r="134" fill="#ff8a9c" opacity="0.13"/>
<circle cx="102" cy="724" r="80" fill="#ff8a9c" opacity="0.13"/>
<circle cx="591" cy="1012" r="97" fill="#90e4ff" opacity="0.10"/>
<circle cx="1161" cy="426" r="198" fill="#90e4ff" opacity="0.11"/><circle cx="657" cy="716" r="0.7" fill="#fff" opacity="0.56"/>
<circle cx="1310" cy="73" r="1.6" fill="#fff" opacity="0.60"/>
<circle cx="65" cy="480" r="1.4" fill="#fff" opacity="0.56"/>
<circle cx="366" cy="751" r="0.7" fill="#fff" opacity="0.31"/>
<circle cx="649" cy="144" r="1.1" fill="#fff" opacity="0.55"/>
<circle cx="21" cy="307" r="1.8" fill="#fff" opacity="0.34"/>
<circle cx="1320" cy="605" r="1.1" fill="#fff" opacity="0.30"/>
<circle cx="354" cy="18" r="1.4" fill="#fff" opacity="0.28"/>
<circle cx="606" cy="606" r="0.8" fill="#fff" opacity="0.55"/>
<circle cx="366" cy="202" r="1.5" fill="#fff" opacity="0.42"/>
<circle cx="1453" cy="170" r="1.8" fill="#fff" opacity="0.45"/>
<circle cx="1027" cy="708" r="1.9" fill="#fff" opacity="0.25"/>
<circle cx="1182" cy="894" r="1.7" fill="#fff" opacity="0.46"/>
<circle cx="1159" cy="199" r="1.4" fill="#fff" opacity="0.43"/>
<circle cx="309" cy="145" r="2.3" fill="#fff" opacity="0.43"/>
<circle cx="672" cy="848" r="2.3" fill="#fff" opacity="0.36"/>
<circle cx="277" cy="961" r="1.6" fill="#fff" opacity="0.54"/>
<circle cx="451" cy="237" r="2.0" fill="#fff" opacity="0.39"/>
<circle cx="1422" cy="548" r="1.5" fill="#fff" opacity="0.35"/>
<circle cx="1366" cy="308" r="2.1" fill="#fff" opacity="0.33"/>
<circle cx="1299" cy="733" r="0.9" fill="#fff" opacity="0.56"/>
<circle cx="1217" cy="3" r="0.9" fill="#fff" opacity="0.43"/>
<circle cx="937" cy="576" r="0.9" fill="#fff" opacity="0.40"/>
<circle cx="1508" cy="796" r="0.9" fill="#fff" opacity="0.60"/>
<circle cx="585" cy="108" r="2.1" fill="#fff" opacity="0.59"/>
<circle cx="365" cy="745" r="1.8" fill="#fff" opacity="0.36"/>
<circle cx="870" cy="248" r="1.2" fill="#fff" opacity="0.35"/>
<circle cx="913" cy="805" r="2.4" fill="#fff" opacity="0.28"/>
<circle cx="784" cy="773" r="1.1" fill="#fff" opacity="0.55"/>
<circle cx="585" cy="70" r="1.9" fill="#fff" opacity="0.46"/>
<circle cx="602" cy="119" r="1.5" fill="#fff" opacity="0.48"/>
<circle cx="1240" cy="302" r="1.1" fill="#fff" opacity="0.38"/>
<circle cx="26" cy="127" r="1.6" fill="#fff" opacity="0.25"/>
<circle cx="640" cy="300" r="0.8" fill="#fff" opacity="0.43"/>
<circle cx="654" cy="907" r="2.3" fill="#fff" opacity="0.29"/>
<circle cx="795" cy="933" r="2.2" fill="#fff" opacity="0.31"/>
<circle cx="1411" cy="778" r="2.0" fill="#fff" opacity="0.61"/>
<circle cx="690" cy="546" r="1.8" fill="#fff" opacity="0.48"/>
<circle cx="827" cy="180" r="1.3" fill="#fff" opacity="0.57"/>
<circle cx="181" cy="400" r="1.9" fill="#fff" opacity="0.31"/>
<circle cx="1564" cy="474" r="1.7" fill="#fff" opacity="0.56"/>
<circle cx="962" cy="959" r="0.8" fill="#fff" opacity="0.60"/>
<circle cx="757" cy="760" r="1.2" fill="#fff" opacity="0.43"/>
<circle cx="928" cy="665" r="0.8" fill="#fff" opacity="0.39"/>
<circle cx="38" cy="31" r="1.9" fill="#fff" opacity="0.54"/>
<circle cx="635" cy="566" r="1.5" fill="#fff" opacity="0.51"/>
<circle cx="384" cy="893" r="2.4" fill="#fff" opacity="0.57"/>
<circle cx="1364" cy="132" r="1.1" fill="#fff" opacity="0.51"/>
<circle cx="861" cy="905" r="1.4" fill="#fff" opacity="0.33"/>
<circle cx="97" cy="709" r="1.2" fill="#fff" opacity="0.45"/>
<circle cx="1158" cy="11" r="1.9" fill="#fff" opacity="0.38"/>
<circle cx="114" cy="629" r="2.4" fill="#fff" opacity="0.45"/>
<circle cx="1218" cy="799" r="1.0" fill="#fff" opacity="0.28"/>
<circle cx="716" cy="177" r="1.1" fill="#fff" opacity="0.26"/>
<circle cx="1068" cy="590" r="1.3" fill="#fff" opacity="0.56"/>
<circle cx="198" cy="996" r="1.1" fill="#fff" opacity="0.27"/>
<circle cx="1545" cy="60" r="1.8" fill="#fff" opacity="0.45"/>
<circle cx="1230" cy="115" r="1.4" fill="#fff" opacity="0.44"/>
<circle cx="265" cy="28" r="1.2" fill="#fff" opacity="0.33"/>
<circle cx="1316" cy="611" r="0.9" fill="#fff" opacity="0.37"/>
<circle cx="128" cy="275" r="1.8" fill="#fff" opacity="0.62"/>
<circle cx="1117" cy="35" r="2.1" fill="#fff" opacity="0.27"/>
<circle cx="364" cy="666" r="1.4" fill="#fff" opacity="0.31"/>
<circle cx="957" cy="813" r="1.5" fill="#fff" opacity="0.30"/>
<circle cx="719" cy="377" r="2.4" fill="#fff" opacity="0.37"/>
<circle cx="175" cy="816" r="0.8" fill="#fff" opacity="0.21"/>
<circle cx="1177" cy="913" r="2.0" fill="#fff" opacity="0.21"/>
<circle cx="1218" cy="696" r="1.1" fill="#fff" opacity="0.20"/>
<circle cx="851" cy="30" r="2.1" fill="#fff" opacity="0.57"/>
<circle cx="660" cy="879" r="0.9" fill="#fff" opacity="0.40"/>
<circle cx="1229" cy="102" r="1.3" fill="#fff" opacity="0.38"/>
<circle cx="989" cy="994" r="1.7" fill="#fff" opacity="0.30"/>
<circle cx="1162" cy="318" r="1.1" fill="#fff" opacity="0.18"/>
<circle cx="1397" cy="19" r="1.5" fill="#fff" opacity="0.57"/>
<circle cx="1155" cy="212" r="1.8" fill="#fff" opacity="0.57"/>
<circle cx="1306" cy="0" r="1.5" fill="#fff" opacity="0.36"/>
<circle cx="28" cy="774" r="1.9" fill="#fff" opacity="0.59"/>
<circle cx="1441" cy="361" r="1.6" fill="#fff" opacity="0.28"/>
<circle cx="295" cy="489" r="1.7" fill="#fff" opacity="0.40"/>
<circle cx="15" cy="519" r="1.5" fill="#fff" opacity="0.26"/>
<circle cx="178" cy="994" r="2.4" fill="#fff" opacity="0.33"/>
<circle cx="415" cy="908" r="1.2" fill="#fff" opacity="0.48"/>
<circle cx="1515" cy="474" r="2.2" fill="#fff" opacity="0.43"/>
<circle cx="1501" cy="969" r="1.9" fill="#fff" opacity="0.53"/>
<circle cx="781" cy="23" r="2.1" fill="#fff" opacity="0.23"/>
<circle cx="521" cy="586" r="2.2" fill="#fff" opacity="0.25"/>
<circle cx="124" cy="504" r="0.9" fill="#fff" opacity="0.35"/>
<circle cx="979" cy="665" r="1.0" fill="#fff" opacity="0.22"/>
<circle cx="966" cy="260" r="1.2" fill="#fff" opacity="0.56"/>
<circle cx="267" cy="981" r="2.2" fill="#fff" opacity="0.50"/>
  <rect width="1600" height="1000" fill="#000" opacity=".08"/>
</svg>