<svg xmlns="http://www.w3.org/2000/svg" viewBox="0 0 1600 1000" preserveAspectRatio="xMidYMid slice">
  <defs>
    <linearGradient id="g" x1="0" y1="0" x2="1" y2="1">
      <stop offset="0" stop-color="#2a1320"/>
      <stop offset=".58" stop-color="#4a2938"/>
      <stop offset="1" stop-color="#2a1320"/>
    </linearGradient>
    <radialGradient id="warm" cx=".18" cy=".12" r=".62">
      <stop offset="0" stop-color="#ffd580" stop-opacity=".32"/>
      <stop offset="1" stop-color="#ffd580" stop-opacity="0"/>
    </radialGradient>
    <radialGradient id="cool" cx=".86" cy=".24" r=".58">
      <stop offset="0" stop-color="#96e69b" stop-opacity=".24"/>
      <stop offset="1" stop-color="#96e69b" stop-opacity="0"/>
    </radialGradient>
  </defs>
  <rect width="1600" height="1000" fill="url(#g)"/>
  <rect width="1600" height="1000" fill="url(#warm)"/>
  <rect width="1600" height="1000" fill="url(#cool)"/>
  <circle cx="1280" cy="820" r="360" fill="#ffffff" opacity=".06"/>
  <circle cx="130" cy="930" r="310" fill="#ffffff" opacity=".05"/>
  <circle cx="499" cy="726" r="102" fill="#96e69b" opacity="0.21"/>
<circle cx="1216" cy="14" r="187" fill="#ffd580" opacity="0.20"/>
<circle cx="260" cy="549" r="216" fill="#f06776" opacity="0.12"/>
<circle cx="501" cy="506" r="192" fill="#ffd580" opacity="0.09"/>
<circle cx="657" cy="732" r="142" fill="#96e69b" opacity="0.14"/>
<circle cx="18" cy="1090" r="97" fill="#96e69b" opacity="0.16"/>
<circle cx="725" cy="337" r="98" fill="#ffd580" opacity="0.15"/>
<circle cx="1104" cy="171" r="140" fill="#ffd580" opacity="0.17"/>
<circle cx="25" cy="279" r="204" fill="#96e69b" opacity="0.12"/>
<circle cx="223" cy="-54" r="82" fill="#ffd580" opacity="0.10"/>
<circle cx="331" cy="668" r="196" fill="#f06776" opacity="0.11"/>
<circle cx="1264" cy="904" r="173" fill="#f06776" opacity="0.14"/>
<circle cx="1634" cy="956" r="129" fill="#ffd580" opacity="0.17"/>
<circle cx="835" cy="107" r="159" fill="#ffd580" opacity="0.21"/>
<circle cx="268" cy="1004" r="118" fill="#f06776" opacity="0.13"/>
<circle cx="-60" cy="917" r="233" fill="#96e69b" opacity="0.22"/>
    <pattern id="plaid" width="96" height="96" patternUnits="userSpaceOnUse">
      <rect width="96" height="96" fill="transparent"/>
      <path d="M0 24H96 M0 72H96 M24 0V96 M72 0V96" stroke="#ffd580" stroke-width="2" opacity=".18"/>
      <path d="M0 48H96 M48 0V96" stroke="#96e69b" stroke-width="8" opacity=".06"/>
    </pattern>
    <rect width="1600" height="1000" fill="url(#plaid)" opacity=".9"/><path d="M-122 1032 L-52 624 L18 1032 Z" fill="#071f18" opacity="0.32"/>
<path d="M-102 952 L-52 584 L-2 952 Z" fill="#071f18" opacity="0.37"/>
<path d="M100 1026 L170 707 L240 1026 Z" fill="#071f18" opacity="0.32"/>
<path d="M120 946 L170 667 L220 946 Z" fill="#071f18" opacity="0.37"/>
<path d="M266 997 L336 593 L406 997 Z" fill="#071f18" opacity="0.25"/>
<path d="M286 917 L336 553 L386 917 Z" fill="#071f18" opacity="0.30"/>
<path d="M488 1004 L558 762 L628 1004 Z" fill="#071f18" opacity="0.42"/>
<path d="M508 924 L558 722 L608 924 Z" fill="#071f18" opacity="0.47"/>
<path d="M664 1033 L734 751 L804 1033 Z" fill="#071f18" opacity="0.23"/>
<path d="M684 953 L734 711 L784 953 Z" fill="#071f18" opacity="0.28"/>
<path d="M862 1004 L932 698 L1002 1004 Z" fill="#071f18" opacity="0.40"/>
<path d="M882 924 L932 658 L982 924 Z" fill="#071f18" opacity="0.45"/>
<path d="M1024 974 L1094 648 L1164 974 Z" fill="#071f18" opacity="0.28"/>
<path d="M1044 894 L1094 608 L1144 894 Z" fill="#071f18" opacity="0.33"/>
<path d="M1226 1067 L1296 836 L1366 1067 Z" fill="#071f18" opacity="0.37"/>
<path d="M1246 987 L1296 796 L1346 987 Z" fill="#071f18" opacity="0.42"/>
<path d="M1448 1000 L1518 683 L1588 1000 Z" fill="#071f18" opacity="0.45"/>
<path d="M1468 920 L1518 643 L1568 920 Z" fill="#071f18" opacity="0.50"/>
<path d="M1617 1018 L1687 743 L1757 1018 Z" fill="#071f18" opacity="0.41"/>
<path d="M1637 938 L1687 703 L1737 938 Z" fill="#071f18" opacity="0.46"/><path d="M-100 472 C300 312, 600 652, 1000 472 S1400 322, 1700 512" fill="none" stroke="#ffd580" stroke-width="34" opacity="0.17"/>
<path d="M-100 665 C300 505, 600 845, 1000 665 S1400 515, 1700 705" fill="none" stroke="#f06776" stroke-width="34" opacity="0.12"/>
<path d="M-100 806 C300 646, 600 986, 1000 806 S1400 656, 1700 846" fill="none" stroke="#ffd580" stroke-width="34" opacity="0.17"/>
<path d="M-100 680 C300 520, 600 860, 1000 680 S1400 530, 1700 720" fill="none" stroke="#f06776" stroke-width="34" opacity="0.16"/>
<path d="M-100 358 C300 198, 600 538, 1000 358 S1400 208, 1700 398" fill="none" stroke="#96e69b" stroke-width="34" opacity="0.16"/>
<path d="M-100 407 C300 247, 600 587, 1000 407 S1400 257, 1700 447" fill="none" stroke="#96e69b" stroke-width="34" opacity="0.13"/><circle cx="976" cy="210" r="1.8" fill="#fff" opacity="0.22"/>
<circle cx="1512" cy="406" r="1.2" fill="#fff" opacity="0.44"/>
<circle cx="184" cy="547" r="1.5" fill="#fff" opacity="0.36"/>
<circle cx="908" cy="722" r="2.2" fill="#fff" opacity="0.44"/>
<circle cx="1235" cy="920" r="1.7" fill="#fff" opacity="0.50"/>
<circle cx="892" cy="782" r="0.9" fill="#fff" opacity="0.32"/>
<circle cx="1560" cy="510" r="0.7" fill="#fff" opacity="0.33"/>
<circle cx="255" cy="565" r="0.8" fill="#fff" opacity="0.47"/>
<circle cx="944" cy="938" r="1.7" fill="#fff" opacity="0.33"/>
<circle cx="925" cy="753" r="1.8" fill="#fff" opacity="0.31"/>
<circle cx="1287" cy="42" r="1.5" fill="#fff" opacity="0.33"/>
<circle cx="274" cy="271" r="1.6" fill="#fff" opacity="0.41"/>
<circle cx="429" cy="959" r="1.7" fill="#fff" opacity="0.46"/>
<circle cx="1141" cy="859" r="1.4" fill="#fff" opacity="0.58"/>
<circle cx="0" cy="480" r="1.9" fill="#fff" opacity="0.31"/>
<circle cx="823" cy="911" r="2.1" fill="#fff" opacity="0.40"/>
<circle cx="808" cy="179" r="1.9" fill="#fff" opacity="0.41"/>
<circle cx="293" cy="98" r="2.2" fill="#fff" opacity="0.46"/>
<circle cx="1134" cy="442" r="1.6" fill="#fff" opacity="0.55"/>
<circle cx="897" cy="394" r="0.8" fill="#fff" opacity="0.60"/>
<circle cx="193" cy="508" r="1.2" fill="#fff" opacity="0.45"/>
<circle cx="320" cy="546" r="1.2" fill="#fff" opacity="0.48"/>
<circle cx="34" cy="461" r="0.8" fill="#fff" opacity="0.53"/>
<circle cx="325" cy="943" r="1.5" fill="#fff" opacity="0.61"/>
<circle cx="190" cy="490" r="1.3" fill="#fff" opacity="0.59"/>
<circle cx="533" cy="612" r="2.1" fill="#fff" opacity="0.27"/>
<circle cx="1236" cy="289" r="1.2" fill="#fff" opacity="0.43"/>
<circle cx="357" cy="780" r="2.0" fill="#fff" opacity="0.29"/>
<circle cx="331" cy="871" r="1.3" fill="#fff" opacity="0.40"/>
<circle cx="1175" cy="322" r="1.5" fill="#fff" opacity="0.39"/>
<circle cx="1120" cy="44" r="1.1" fill="#fff" opacity="0.21"/>
<circle cx="877" cy="630" r="1.9" fill="#fff" opacity="0.23"/>
<circle cx="822" cy="256" r="2.0" fill="#fff" opacity="0.33"/>
<circle cx="395" cy="742" r="1.3" fill="#fff" opacity="0.42"/>
<circle cx="962" cy="133" r="1.4" fill="#fff" opacity="0.56"/>
<circle cx="1237" cy="478" r="0.8" fill="#fff" opacity="0.22"/>
<circle cx="1031" cy="655" r="2.2" fill="#fff" opacity="0.48"/>
<circle cx="811" cy="295" r="1.5" fill="#fff" opacity="0.42"/>
<circle cx="751" cy="763" r="2.3" fill="#fff" opacity="0.24"/>
<circle cx="1537" cy="983" r="1.8" fill="#fff" opacity="0.18"/>
<circle cx="351" cy="791" r="1.9" fill="#fff" opacity="0.48"/>
<circle cx="1565" cy="261" r="1.4" fill="#fff" opacity="0.55"/>
<circle cx="866" cy="841" r="2.0" fill="#fff" opacity="0.52"/>
<circle cx="654" cy="785" r="1.0" fill="#fff" opacity="0.61"/>
<circle cx="1051" cy="422" r="1.8" fill="#fff" opacity="0.25"/>
<circle cx="421" cy="151" r="1.4" fill="#fff" opacity="0.53"/>
<circle cx="1049" cy="35" r="0.8" fill="#fff" opacity="0.55"/>
<circle cx="551" cy="201" r="0.9" fill="#fff" opacity="0.54"/>
<circle cx="826" cy="601" r="2.1" fill="#fff" opacity="0.54"/>
<circle cx="702" cy="119" r="0.7" fill="#fff" opacity="0.59"/>
<circle cx="486" cy="310" r="1.4" fill="#fff" opacity="0.20"/>
<circle cx="1255" cy="740" r="0.8" fill="#fff" opacity="0.22"/>
<circle cx="1256" cy="529" r="2.4" fill="#fff" opacity="0.37"/>
<circle cx="198" cy="158" r="2.0" fill="#fff" opacity="0.35"/>
<circle cx="266" cy="557" r="1.4" fill="#fff" opacity="0.46"/>
<circle cx="355" cy="670" r="2.3" fill="#fff" opacity="0.35"/>
<circle cx="1494" cy="799" r="1.4" fill="#fff" opacity="0.60"/>
<circle cx="1368" cy="529" r="2.3" fill="#fff" opacity="0.21"/>
<circle cx="173" cy="564" r="2.3" fill="#fff" opacity="0.48"/>
<circle cx="791" cy="669" r="1.4" fill="#fff" opacity="0.30"/>
<circle cx="1066" cy="53" r="2.1" fill="#fff" opacity="0.51"/>
<circle cx="214" cy="596" r="0.7" fill="#fff" opacity="0.61"/>
<circle cx="1424" cy="787" r="1.2" fill="#fff" opacity="0.55"/>
<circle cx="167" cy="642" r="1.6" fill="#fff" opacity="0.45"/>
<circle cx="857" cy="351" r="1.5" fill="#fff" opacity="0.48"/>
<circle cx="206" cy="875" r="1.9" fill="#fff" opacity="0.59"/>
<circle cx="670" cy="297" r="2.3" fill="#fff" opacity="0.49"/>
<circle cx="1324" cy="590" r="1.6" fill="#fff" opacity="0.45"/>
<circle cx="366" cy="678" r="0.7" fill="#fff" opacity="0.59"/>
<circle cx="702" cy="853" r="2.0" fill="#fff" opacity="0.25"/>
<circle cx="1256" cy="455" r="2.1" fill="#fff" opacity="0.27"/>
<circle cx="1049" cy="132" r="1.2" fill="#fff" opacity="0.24"/>
<circle cx="1025" cy="779" r="1.6" fill="#fff" opacity="0.43"/>
<circle cx="740" cy="577" r="1.2" fill="#fff" opacity="0.24"/>
<circle cx="1422" cy="0" r="2.2" fill="#fff" opacity="0.58"/>
<circle cx="1009" cy="233" r="1.4" fill="#fff" opacity="0.25"/>
<circle cx="1138" cy="337" r="2.3" fill="#fff" opacity="0.45"/>
<circle cx="405" cy="455" r="0.7" fill="#fff" opacity="0.21"/>
<circle cx="1331" cy="161" r="1.8" fill="#fff" opacity="0.53"/>
<circle cx="1575" cy="602" r="2.3" fill="#fff" opacity="0.59"/>
<circle cx="276" cy="375" r="0.8" fill="#fff" opacity="0.25"/>
<circle cx="266" cy="985" r="0.8" fill="#fff" opacity="0.28"/>
<circle cx="340" cy="704" r="1.6" fill="#fff" opacity="0.31"/>
<circle cx="1159" cy="273" r="0.7" fill="#fff" opacity="0.50"/>
<circle cx="1586" cy="931" r="1.3" fill="#fff" opacity="0.43"/>
<circle cx="1405" cy="125" r="1.1" fill="#fff" opacity="0.41"/>
<circle cx="1131" cy="231" r="1.2" fill="#fff" opacity="0.34"/>
<circle cx="1231" cy="316" r="2.1" fill="#fff" opacity="0.32"/>
<circle cx="1470" cy="418" r="0.9" fill="#fff" opacity="0.32"/>
<circle cx="573" cy="520" r="1.3" fill="#fff" opacity="0.35"/>
<circle cx="1275" cy="10" r="2.0" fill="#fff" opacity="0.38"/>
<circle cx="1025" cy="356" r="2.3" fill="#fff" opacity="0.49"/>
<circle cx="233" cy="317" r="2.2" fill="#fff" opacity="0.25"/>
<circle cx="1409" cy="807" r="1.0" fill="#fff" opacity="0.26"/>
<circle cx="1202" cy="456" r="1.9" fill="#fff" opacity="0.51"/>
<circle cx="1120" cy="683" r="2.2" fill="#fff" opacity="0.44"/>
<circle cx="727" cy="426" r="1.5" fill="#fff" opacity="0.37"/>
<circle cx="1448" cy="130" r="2.1" fill="#fff" opacity="0.41"/>
<circle cx="1034" cy="28" r="2.3" fill="#fff" opacity="0.20"/>
<circle cx="872" cy="375" r="1.2" fill="#fff" opacity="0.44"/>
<circle cx="386" cy="487" r="1.6" fill="#fff" opacity="0.30"/>
<circle cx="718" cy="443" r="1.8" fill="#fff" opacity="0.50"/>
<circle cx="1448" cy="364" r="1.2" fill="#fff" opacity="0.28"/>
<circle cx="849" cy="482" r="0.9" fill="#fff" opacity="0.45"/>
<circle cx="750" cy="476" r="1.0" fill="#fff" opacity="0.42"/>
<circle cx="100" cy="297" r="1.7" fill="#fff" opacity="0.33"/>
<circle cx="802" cy="664" r="1.6" fill="#fff" opacity="0.22"/>
<circle cx="305" cy="525" r="1.1" fill="#fff" opacity="0.55"/>
<circle cx="695" cy="954" r="0.8" fill="#fff" opacity="0.25"/>
<circle cx="445" cy="161" r="1.7" fill="#fff" opacity="0.53"/>
  <rect width="1600" height="1000" fill="#000" opacity=".08"/>
</svg>