<svg xmlns="http://www.w3.org/2000/svg" viewBox="0 0 1600 1000" preserveAspectRatio="xMidYMid slice">
  <defs>
    <linearGradient id="g" x1="0" y1="0" x2="1" y2="1">
      <stop offset="0" stop-color="#16331f"/>
      <stop offset=".58" stop-color="#364d2c"/>
      <stop offset="1" stop-color="#16331f"/>
    </linearGradient>
    <radialGradient id="warm" cx=".18" cy=".12" r=".62">
      <stop offset="0" stop-color="#fff0b3" stop-opacity=".32"/>
      <stop offset="1" stop-color="#fff0b3" stop-opacity="0"/>
    </radialGradient>
    <radialGradient id="cool" cx=".86" cy=".24" r=".58">
      <stop offset="0" stop-color="#70d494" stop-opacity=".24"/>
      <stop offset="1" stop-color="#70d494" stop-opacity="0"/>
    </radialGradient>
  </defs>
  <rect width="1600" height="1000" fill="url(#g)"/>
  <rect width="1600" height="1000" fill="url(#warm)"/>
  <rect width="1600" height="1000" fill="url(#cool)"/>
  <circle cx="1280" cy="820" r="360" fill="#ffffff" opacity=".06"/>
  <circle cx="130" cy="930" r="310" fill="#ffffff" opacity=".05"/>
  <circle cx="812" cy="859" r="139" fill="#70d494" opacity="0.09"/>
<circle cx="1597" cy="-100" r="85" fill="#70d494" opacity="0.17"/>
<circle cx="790" cy="891" r="133" fill="#70d494" opacity="0.20"/>
<circle cx="1552" cy="223" r="128" fill="#e85d67" opacity="0.12"/>
<circle cx="962" cy="144" r="163" fill="#e85d67" opacity="0.18"/>
<circle cx="134" cy="112" r="92" fill="#e85d67" opacity="0.21"/>
<circle cx="1414" cy="771" r="194" fill="#fff0b3" opacity="0.17"/>
<circle cx="626" cy="392" r="176" fill="#e85d67" opacity="0.09"/>
<circle cx="338" cy="514" r="70" fill="#e85d67" opacity="0.20"/>
<circle cx="28" cy="952" r="78" fill="#70d494" opacity="0.12"/>
<circle cx="914" cy="516" r="107" fill="#e85d67" opacity="0.14"/>
<circle cx="1405" cy="648" r="175" fill="#70d494" opacity="0.13"/>
<circle cx="379" cy="324" r="162" fill="#70d494" opacity="0.14"/>
<circle cx="1106" cy="-8" r="195" fill="#70d494" opacity="0.18"/>
<circle cx="1354" cy="493" r="152" fill="#e85d67" opacity="0.11"/>
<circle cx="124" cy="99" r="98" fill="#70d494" opacity="0.16"/><circle cx="303" cy="469" r="2.1" fill="#fff" opacity="0.40"/>
<circle cx="92" cy="536" r="1.9" fill="#fff" opacity="0.44"/>
<circle cx="69" cy="35" r="1.5" fill="#fff" opacity="0.36"/>
<circle cx="1450" cy="995" r="1.1" fill="#fff" opacity="0.57"/>
<circle cx="1182" cy="769" r="0.8" fill="#fff" opacity="0.23"/>
<circle cx="360" cy="966" r="1.1" fill="#fff" opacity="0.48"/>
<circle cx="769" cy="574" r="1.8" fill="#fff" opacity="0.44"/>
<circle cx="662" cy="741" r="1.9" fill="#fff" opacity="0.57"/>
<circle cx="1267" cy="283" r="1.2" fill="#fff" opacity="0.29"/>
<circle cx="423" cy="808" r="0.8" fill="#fff" opacity="0.22"/>
<circle cx="608" cy="127" r="1.0" fill="#fff" opacity="0.29"/>
<circle cx="1226" cy="64" r="2.3" fill="#fff" opacity="0.49"/>
<circle cx="1202" cy="332" r="1.1" fill="#fff" opacity="0.24"/>
<circle cx="3" cy="665" r="2.3" fill="#fff" opacity="0.48"/>
<circle cx="341" cy="540" r="1.2" fill="#fff" opacity="0.38"/>
<circle cx="1267" cy="154" r="2.2" fill="#fff" opacity="0.34"/>
<circle cx="872" cy="484" r="1.5" fill="#fff" opacity="0.44"/>
<circle cx="63" cy="416" r="1.7" fill="#fff" opacity="0.32"/>
<circle cx="1492" cy="464" r="1.7" fill="#fff" opacity="0.22"/>
<circle cx="1472" cy="550" r="1.3" fill="#fff" opacity="0.58"/>
<circle cx="1119" cy="466" r="1.7" fill="#fff" opacity="0.56"/>
<circle cx="1413" cy="116" r="2.1" fill="#fff" opacity="0.35"/>
<circle cx="1242" cy="567" r="1.6" fill="#fff" opacity="0.48"/>
<circle cx="1107" cy="777" r="1.3" fill="#fff" opacity="0.51"/>
<circle cx="149" cy="451" r="2.1" fill="#fff" opacity="0.38"/>
<circle cx="1371" cy="275" r="2.3" fill="#fff" opacity="0.34"/>
<circle cx="22" cy="988" r="1.4" fill="#fff" opacity="0.23"/>
<circle cx="977" cy="52" r="1.0" fill="#fff" opacity="0.20"/>
<circle cx="458" cy="958" r="1.2" fill="#fff" opacity="0.46"/>
<circle cx="168" cy="118" r="1.8" fill="#fff" opacity="0.55"/>
<circle cx="4" cy="557" r="1.3" fill="#fff" opacity="0.36"/>
<circle cx="32" cy="151" r="1.8" fill="#fff" opacity="0.60"/>
<circle cx="249" cy="430" r="0.8" fill="#fff" opacity="0.32"/>
<circle cx="1134" cy="116" r="1.3" fill="#fff" opacity="0.24"/>
<circle cx="1097" cy="511" r="1.5" fill="#fff" opacity="0.45"/>
<circle cx="1338" cy="578" r="1.9" fill="#fff" opacity="0.26"/>
<circle cx="477" cy="807" r="1.9" fill="#fff" opacity="0.55"/>
<circle cx="1584" cy="99" r="1.2" fill="#fff" opacity="0.38"/>
<circle cx="1237" cy="642" r="1.3" fill="#fff" opacity="0.41"/>
<circle cx="565" cy="338" r="1.5" fill="#fff" opacity="0.40"/>
<circle cx="570" cy="597" r="1.2" fill="#fff" opacity="0.18"/>
<circle cx="255" cy="57" r="0.9" fill="#fff" opacity="0.26"/>
<circle cx="917" cy="867" r="2.1" fill="#fff" opacity="0.48"/>
<circle cx="541" cy="570" r="2.2" fill="#fff" opacity="0.48"/>
<circle cx="1029" cy="61" r="1.7" fill="#fff" opacity="0.21"/>
<circle cx="1235" cy="662" r="1.3" fill="#fff" opacity="0.54"/>
<circle cx="52" cy="907" r="0.8" fill="#fff" opacity="0.48"/>
<circle cx="376" cy="208" r="1.3" fill="#fff" opacity="0.48"/>
<circle cx="934" cy="33" r="2.3" fill="#fff" opacity="0.24"/>
<circle cx="316" cy="673" r="0.9" fill="#fff" opacity="0.25"/>
<circle cx="1523" cy="315" r="1.8" fill="#fff" opacity="0.32"/>
<circle cx="170" cy="91" r="0.8" fill="#fff" opacity="0.47"/>
<circle cx="987" cy="850" r="0.8" fill="#fff" opacity="0.35"/>
<circle cx="1419" cy="553" r="1.0" fill="#fff" opacity="0.39"/>
<circle cx="1057" cy="875" r="1.4" fill="#fff" opacity="0.58"/>
<circle cx="703" cy="371" r="1.6" fill="#fff" opacity="0.47"/>
<circle cx="1362" cy="676" r="2.2" fill="#fff" opacity="0.56"/>
<circle cx="1267" cy="998" r="1.2" fill="#fff" opacity="0.59"/>
<circle cx="370" cy="764" r="2.0" fill="#fff" opacity="0.35"/>
<circle cx="363" cy="703" r="2.3" fill="#fff" opacity="0.36"/>
<circle cx="768" cy="923" r="2.1" fill="#fff" opacity="0.56"/>
<circle cx="1349" cy="522" r="1.9" fill="#fff" opacity="0.26"/>
<circle cx="1279" cy="13" r="2.3" fill="#fff" opacity="0.34"/>
<circle cx="348" cy="917" r="1.5" fill="#fff" opacity="0.51"/>
<circle cx="599" cy="423" r="1.3" fill="#fff" opacity="0.31"/>
<circle cx="1525" cy="333" r="2.0" fill="#fff" opacity="0.26"/>
<circle cx="1085" cy="535" r="1.5" fill="#fff" opacity="0.32"/>
<circle cx="703" cy="733" r="1.4" fill="#fff" opacity="0.22"/>
<circle cx="389" cy="556" r="1.1" fill="#fff" opacity="0.21"/>
<circle cx="1108" cy="355" r="0.7" fill="#fff" opacity="0.24"/>
<circle cx="1312" cy="283" r="2.0" fill="#fff" opacity="0.39"/>
<circle cx="164" cy="294" r="1.5" fill="#fff" opacity="0.40"/>
<circle cx="212" cy="211" r="1.9" fill="#fff" opacity="0.49"/>
<circle cx="947" cy="993" r="2.1" fill="#fff" opacity="0.47"/>
<circle cx="22" cy="569" r="2.3" fill="#fff" opacity="0.29"/>
<circle cx="1334" cy="617" r="2.1" fill="#fff" opacity="0.37"/>
<circle cx="1129" cy="922" r="1.9" fill="#fff" opacity="0.51"/>
<circle cx="432" cy="259" r="1.7" fill="#fff" opacity="0.24"/>
<circle cx="1240" cy="54" r="1.0" fill="#fff" opacity="0.22"/>
<circle cx="131" cy="229" r="1.1" fill="#fff" opacity="0.60"/>
<circle cx="937" cy="342" r="0.9" fill="#fff" opacity="0.32"/>
<circle cx="252" cy="244" r="1.7" fill="#fff" opacity="0.56"/>
<circle cx="1322" cy="6" r="1.3" fill="#fff" opacity="0.55"/>
<circle cx="690" cy="296" r="0.9" fill="#fff" opacity="0.20"/>
<circle cx="1165" cy="689" r="1.7" fill="#fff" opacity="0.50"/>
<circle cx="484" cy="445" r="1.3" fill="#fff" opacity="0.33"/>
<circle cx="441" cy="924" r="1.1" fill="#fff" opacity="0.35"/>
<circle cx="217" cy="483" r="1.5" fill="#fff" opacity="0.21"/>
<circle cx="1118" cy="546" r="1.4" fill="#fff" opacity="0.52"/>
<circle cx="1039" cy="487" r="1.2" fill="#fff" opacity="0.31"/>
<circle cx="611" cy="36" r="1.4" fill="#fff" opacity="0.22"/>
<circle cx="1501" cy="219" r="0.9" fill="#fff" opacity="0.33"/>
<circle cx="782" cy="489" r="2.2" fill="#fff" opacity="0.32"/>
<circle cx="770" cy="925" r="2.0" fill="#fff" opacity="0.50"/>
<circle cx="826" cy="868" r="2.3" fill="#fff" opacity="0.33"/>
<circle cx="1511" cy="800" r="1.2" fill="#fff" opacity="0.53"/>
<circle cx="1185" cy="810" r="2.3" fill="#fff" opacity="0.52"/>
<circle cx="879" cy="563" r="2.4" fill="#fff" opacity="0.52"/>
<circle cx="944" cy="265" r="1.0" fill="#fff" opacity="0.19"/>
<circle cx="743" cy="541" r="1.2" fill="#fff" opacity="0.60"/>
<circle cx="906" cy="584" r="0.8" fill="#fff" opacity="0.26"/>
<circle cx="328" cy="293" r="1.3" fill="#fff" opacity="0.47"/>
<circle cx="1130" cy="47" r="1.9" fill="#fff" opacity="0.57"/>
<circle cx="244" cy="648" r="1.2" fill="#fff" opacity="0.41"/>
<circle cx="1300" cy="798" r="0.9" fill="#fff" opacity="0.29"/>
<circle cx="1558" cy="979" r="1.8" fill="#fff" opacity="0.48"/>
<circle cx="604" cy="447" r="1.3" fill="#fff" opacity="0.25"/>
<circle cx="1054" cy="520" r="0.8" fill="#fff" opacity="0.33"/>
<circle cx="133" cy="15" r="2.0" fill="#fff" opacity="0.25"/>
<circle cx="796" cy="941" r="1.8" fill="#fff" opacity="0.52"/>
<circle cx="302" cy="936" r="1.7" fill="#fff" opacity="0.60"/>
<circle cx="321" cy="924" r="1.9" fill="#fff" opacity="0.33"/>
<circle cx="1182" cy="172" r="2.0" fill="#fff" opacity="0.51"/>
<circle cx="1547" cy="688" r="1.8" fill="#fff" opacity="0.19"/>
<circle cx="1204" cy="132" r="0.9" fill="#fff" opacity="0.50"/>
<circle cx="1067" cy="908" r="1.8" fill="#fff" opacity="0.26"/>
<circle cx="1070" cy="122" r="0.9" fill="#fff" opacity="0.40"/>
<circle cx="592" cy="526" r="1.0" fill="#fff" opacity="0.60"/>
<circle cx="936" cy="220" r="1.3" fill="#fff" opacity="0.29"/>
<circle cx="1523" cy="422" r="2.2" fill="#fff" opacity="0.18"/>
<circle cx="669" cy="428" r="1.3" fill="#fff" opacity="0.43"/>
<circle cx="535" cy="584" r="1.3" fill="#fff" opacity="0.23"/>
<circle cx="594" cy="984" r="1.7" fill="#fff" opacity="0.40"/>
<circle cx="1537" cy="759" r="1.4" fill="#fff" opacity="0.26"/>
<circle cx="1397" cy="533" r="2.4" fill="#fff" opacity="0.43"/>
<circle cx="640" cy="37" r="1.8" fill="#fff" opacity="0.42"/>
<circle cx="750" cy="562" r="1.8" fill="#fff" opacity="0.19"/>
<circle cx="1228" cy="505" r="0.9" fill="#fff" opacity="0.29"/>
<circle cx="974" cy="253" r="2.1" fill="#fff" opacity="0.48"/>
<circle cx="462" cy="237" r="1.1" fill="#fff" opacity="0.62"/>
  <rect width="1600" height="1000" fill="#000" opacity=".08"/>
</svg>