<svg xmlns="http://www.w3.org/2000/svg" viewBox="0 0 1600 1000" preserveAspectRatio="xMidYMid slice">
  <defs>
    <linearGradient id="g" x1="0" y1="0" x2="1" y2="1">
      <stop offset="0" stop-color="#25323b"/>
      <stop offset=".58" stop-color="#315060"/>
      <stop offset="1" stop-color="#25323b"/>
    </linearGradient>
    <radialGradient id="warm" cx=".18" cy=".12" r=".62">
      <stop offset="0" stop-color="#e8f7ff" stop-opacity=".32"/>
      <stop offset="1" stop-color="#e8f7ff" stop-opacity="0"/>
    </radialGradient>
    <radialGradient id="cool" cx=".86" cy=".24" r=".58">
      <stop offset="0" stop-color="#ffd377" stop-opacity=".24"/>
      <stop offset="1" stop-color="#ffd377" stop-opacity="0"/>
    </radialGradient>
  </defs>
  <rect width="1600" height="1000" fill="url(#g)"/>
  <rect width="1600" height="1000" fill="url(#warm)"/>
  <rect width="1600" height="1000" fill="url(#cool)"/>
  <circle cx="1280" cy="820" r="360" fill="#ffffff" opacity=".06"/>
  <circle cx="130" cy="930" r="310" fill="#ffffff" opacity=".05"/>
  <circle cx="886" cy="-71" r="202" fill="#ffd377" opacity="0.12"/>
<circle cx="817" cy="1069" r="205" fill="#82e3ad" opacity="0.16"/>
<circle cx="1559" cy="964" r="134" fill="#82e3ad" opacity="0.19"/>
<circle cx="1040" cy="894" r="213" fill="#e8f7ff" opacity="0.16"/>
<circle cx="1353" cy="652" r="93" fill="#82e3ad" opacity="0.19"/>
<circle cx="361" cy="258" r="169" fill="#82e3ad" opacity="0.16"/>
<circle cx="751" cy="171" r="224" fill="#ffd377" opacity="0.19"/>
<circle cx="21" cy="961" r="128" fill="#e8f7ff" opacity="0.15"/>
<circle cx="1458" cy="838" r="157" fill="#e8f7ff" opacity="0.12"/>
<circle cx="366" cy="727" r="81" fill="#ffd377" opacity="0.14"/>
<circle cx="1158" cy="203" r="80" fill="#ffd377" opacity="0.17"/>
<circle cx="-77" cy="539" r="148" fill="#82e3ad" opacity="0.14"/>
<circle cx="1076" cy="896" r="193" fill="#ffd377" opacity="0.09"/>
<circle cx="883" cy="206" r="128" fill="#ffd377" opacity="0.21"/>
<circle cx="1353" cy="800" r="88" fill="#82e3ad" opacity="0.18"/>
<circle cx="752" cy="829" r="159" fill="#82e3ad" opacity="0.21"/>
    <pattern id="plaid" width="96" height="96" patternUnits="userSpaceOnUse">
      <rect width="96" height="96" fill="transparent"/>
      <path d="M0 24H96 M0 72H96 M24 0V96 M72 0V96" stroke="#e8f7ff" stroke-width="2" opacity=".18"/>
      <path d="M0 48H96 M48 0V96" stroke="#ffd377" stroke-width="8" opacity=".06"/>
    </pattern>
    <rect width="1600" height="1000" fill="url(#plaid)" opacity=".9"/><path d="M0 120 C280 30, 520 180, 800 90 S1300 40, 1600 120" fill="none" stroke="#fff" stroke-width="2" opacity=".22"/>
<ellipse cx="48" cy="106.0" rx="12" ry="18" fill="#ffd377" opacity=".82"/>
<circle cx="48" cy="106.0" r="38" fill="#ffd377" opacity=".10"/>
<ellipse cx="124" cy="142.1074631814833" rx="12" ry="18" fill="#e8f7ff" opacity=".82"/>
<circle cx="124" cy="142.1074631814833" r="38" fill="#e8f7ff" opacity=".10"/>
<ellipse cx="228" cy="140.98507610645268" rx="12" ry="18" fill="#82e3ad" opacity=".82"/>
<circle cx="228" cy="140.98507610645268" r="38" fill="#82e3ad" opacity=".10"/>
<ellipse cx="313" cy="135.64121131929028" rx="12" ry="18" fill="#82e3ad" opacity=".82"/>
<circle cx="313" cy="135.64121131929028" r="38" fill="#82e3ad" opacity=".10"/>
<ellipse cx="409" cy="104.9569049800347" rx="12" ry="18" fill="#ffd377" opacity=".82"/>
<circle cx="409" cy="104.9569049800347" r="38" fill="#ffd377" opacity=".10"/>
<ellipse cx="496" cy="90.5119126642225" rx="12" ry="18" fill="#82e3ad" opacity=".82"/>
<circle cx="496" cy="90.5119126642225" r="38" fill="#82e3ad" opacity=".10"/>
<ellipse cx="586" cy="69.13423869074558" rx="12" ry="18" fill="#e8f7ff" opacity=".82"/>
<circle cx="586" cy="69.13423869074558" r="38" fill="#e8f7ff" opacity=".10"/>
<ellipse cx="662" cy="85.90566767446877" rx="12" ry="18" fill="#82e3ad" opacity=".82"/>
<circle cx="662" cy="85.90566767446877" r="38" fill="#82e3ad" opacity=".10"/>
<ellipse cx="750" cy="112.07922216976728" rx="12" ry="18" fill="#82e3ad" opacity=".82"/>
<circle cx="750" cy="112.07922216976728" r="38" fill="#82e3ad" opacity=".10"/>
<ellipse cx="861" cy="144.77837523472036" rx="12" ry="18" fill="#ffd377" opacity=".82"/>
<circle cx="861" cy="144.77837523472036" r="38" fill="#ffd377" opacity=".10"/>
<ellipse cx="944" cy="146.62753863181837" rx="12" ry="18" fill="#82e3ad" opacity=".82"/>
<circle cx="944" cy="146.62753863181837" r="38" fill="#82e3ad" opacity=".10"/>
<ellipse cx="1040" cy="130.47210175121165" rx="12" ry="18" fill="#82e3ad" opacity=".82"/>
<circle cx="1040" cy="130.47210175121165" r="38" fill="#82e3ad" opacity=".10"/>
<ellipse cx="1129" cy="103.89856265719565" rx="12" ry="18" fill="#e8f7ff" opacity=".82"/>
<circle cx="1129" cy="103.89856265719565" r="38" fill="#e8f7ff" opacity=".10"/>
<ellipse cx="1212" cy="85.02607358200211" rx="12" ry="18" fill="#82e3ad" opacity=".82"/>
<circle cx="1212" cy="85.02607358200211" r="38" fill="#82e3ad" opacity=".10"/>
<ellipse cx="1295" cy="74.72877947970392" rx="12" ry="18" fill="#82e3ad" opacity=".82"/>
<circle cx="1295" cy="74.72877947970392" r="38" fill="#82e3ad" opacity=".10"/>
<ellipse cx="1390" cy="86.21994786998478" rx="12" ry="18" fill="#82e3ad" opacity=".82"/>
<circle cx="1390" cy="86.21994786998478" r="38" fill="#82e3ad" opacity=".10"/>
<ellipse cx="1481" cy="125.10284387855387" rx="12" ry="18" fill="#e8f7ff" opacity=".82"/>
<circle cx="1481" cy="125.10284387855387" r="38" fill="#e8f7ff" opacity=".10"/>
<ellipse cx="1580" cy="143.0706635199774" rx="12" ry="18" fill="#ffd377" opacity=".82"/>
<circle cx="1580" cy="143.0706635199774" r="38" fill="#ffd377" opacity=".10"/><circle cx="1047" cy="172" r="1.1" fill="#fff" opacity="0.20"/>
<circle cx="952" cy="533" r="0.8" fill="#fff" opacity="0.51"/>
<circle cx="1478" cy="925" r="1.4" fill="#fff" opacity="0.30"/>
<circle cx="450" cy="405" r="1.4" fill="#fff" opacity="0.37"/>
<circle cx="986" cy="163" r="1.4" fill="#fff" opacity="0.44"/>
<circle cx="1231" cy="800" r="2.2" fill="#fff" opacity="0.30"/>
<circle cx="1322" cy="213" r="0.9" fill="#fff" opacity="0.25"/>
<circle cx="1472" cy="561" r="1.7" fill="#fff" opacity="0.29"/>
<circle cx="612" cy="665" r="1.0" fill="#fff" opacity="0.42"/>
<circle cx="1246" cy="0" r="1.5" fill="#fff" opacity="0.45"/>
<circle cx="1474" cy="564" r="1.4" fill="#fff" opacity="0.25"/>
<circle cx="1348" cy="525" r="0.8" fill="#fff" opacity="0.54"/>
<circle cx="106" cy="88" r="1.7" fill="#fff" opacity="0.19"/>
<circle cx="548" cy="113" r="1.2" fill="#fff" opacity="0.56"/>
<circle cx="1074" cy="790" r="2.4" fill="#fff" opacity="0.34"/>
<circle cx="1571" cy="535" r="1.2" fill="#fff" opacity="0.57"/>
<circle cx="1023" cy="41" r="1.4" fill="#fff" opacity="0.49"/>
<circle cx="495" cy="900" r="1.9" fill="#fff" opacity="0.49"/>
<circle cx="84" cy="764" r="2.1" fill="#fff" opacity="0.33"/>
<circle cx="1007" cy="82" r="0.9" fill="#fff" opacity="0.41"/>
<circle cx="478" cy="619" r="1.8" fill="#fff" opacity="0.29"/>
<circle cx="1112" cy="667" r="1.2" fill="#fff" opacity="0.35"/>
<circle cx="938" cy="324" r="0.9" fill="#fff" opacity="0.25"/>
<circle cx="1196" cy="908" r="1.2" fill="#fff" opacity="0.27"/>
<circle cx="1453" cy="172" r="2.2" fill="#fff" opacity="0.59"/>
<circle cx="854" cy="499" r="1.6" fill="#fff" opacity="0.47"/>
<circle cx="550" cy="226" r="1.5" fill="#fff" opacity="0.18"/>
<circle cx="1476" cy="949" r="2.0" fill="#fff" opacity="0.41"/>
<circle cx="650" cy="520" r="0.8" fill="#fff" opacity="0.27"/>
<circle cx="608" cy="445" r="1.4" fill="#fff" opacity="0.21"/>
<circle cx="804" cy="468" r="1.3" fill="#fff" opacity="0.44"/>
<circle cx="503" cy="285" r="2.0" fill="#fff" opacity="0.22"/>
<circle cx="1332" cy="362" r="1.5" fill="#fff" opacity="0.48"/>
<circle cx="615" cy="368" r="1.9" fill="#fff" opacity="0.55"/>
<circle cx="1358" cy="905" r="0.9" fill="#fff" opacity="0.41"/>
<circle cx="474" cy="39" r="2.1" fill="#fff" opacity="0.34"/>
<circle cx="897" cy="97" r="1.4" fill="#fff" opacity="0.53"/>
<circle cx="265" cy="561" r="1.3" fill="#fff" opacity="0.54"/>
<circle cx="1233" cy="823" r="1.9" fill="#fff" opacity="0.58"/>
<circle cx="410" cy="335" r="2.2" fill="#fff" opacity="0.20"/>
<circle cx="893" cy="260" r="1.1" fill="#fff" opacity="0.41"/>
<circle cx="287" cy="523" r="1.1" fill="#fff" opacity="0.41"/>
<circle cx="758" cy="937" r="2.0" fill="#fff" opacity="0.34"/>
<circle cx="1266" cy="93" r="1.7" fill="#fff" opacity="0.21"/>
<circle cx="771" cy="997" r="1.6" fill="#fff" opacity="0.53"/>
<circle cx="964" cy="194" r="1.8" fill="#fff" opacity="0.35"/>
<circle cx="241" cy="27" r="1.0" fill="#fff" opacity="0.24"/>
<circle cx="80" cy="441" r="2.3" fill="#fff" opacity="0.21"/>
<circle cx="247" cy="150" r="1.9" fill="#fff" opacity="0.48"/>
<circle cx="17" cy="492" r="2.0" fill="#fff" opacity="0.25"/>
<circle cx="1105" cy="70" r="1.2" fill="#fff" opacity="0.60"/>
<circle cx="458" cy="836" r="1.5" fill="#fff" opacity="0.28"/>
<circle cx="425" cy="732" r="1.1" fill="#fff" opacity="0.61"/>
<circle cx="610" cy="150" r="1.3" fill="#fff" opacity="0.50"/>
<circle cx="949" cy="826" r="1.9" fill="#fff" opacity="0.53"/>
<circle cx="476" cy="215" r="1.2" fill="#fff" opacity="0.31"/>
<circle cx="519" cy="2" r="2.0" fill="#fff" opacity="0.29"/>
<circle cx="528" cy="507" r="1.1" fill="#fff" opacity="0.27"/>
<circle cx="789" cy="907" r="1.5" fill="#fff" opacity="0.51"/>
<circle cx="1548" cy="246" r="0.9" fill="#fff" opacity="0.53"/>
<circle cx="1449" cy="897" r="1.7" fill="#fff" opacity="0.32"/>
<circle cx="193" cy="583" r="1.0" fill="#fff" opacity="0.24"/>
<circle cx="452" cy="690" r="2.1" fill="#fff" opacity="0.30"/>
<circle cx="1256" cy="860" r="1.0" fill="#fff" opacity="0.25"/>
<circle cx="80" cy="349" r="0.9" fill="#fff" opacity="0.30"/>
<circle cx="1507" cy="726" r="1.3" fill="#fff" opacity="0.23"/>
<circle cx="1153" cy="707" r="1.6" fill="#fff" opacity="0.51"/>
<circle cx="455" cy="38" r="1.5" fill="#fff" opacity="0.24"/>
<circle cx="1392" cy="44" r="1.9" fill="#fff" opacity="0.19"/>
<circle cx="217" cy="259" r="1.1" fill="#fff" opacity="0.59"/>
  <rect width="1600" height="1000" fill="#000" opacity=".08"/>
</svg>