<svg xmlns="http://www.w3.org/2000/svg" viewBox="0 0 1600 1000" preserveAspectRatio="xMidYMid slice">
  <defs>
    <linearGradient id="g" x1="0" y1="0" x2="1" y2="1">
      <stop offset="0" stop-color="#173d35"/>
      <stop offset=".58" stop-color="#2c4d35"/>
      <stop offset="1" stop-color="#173d35"/>
    </linearGradient>
    <radialGradient id="warm" cx=".18" cy=".12" r=".62">
      <stop offset="0" stop-color="#ffe08a" stop-opacity=".32"/>
      <stop offset="1" stop-color="#ffe08a" stop-opacity="0"/>
    </radialGradient>
    <radialGradient id="cool" cx=".86" cy=".24" r=".58">
      <stop offset="0" stop-color="#8be6a7" stop-opacity=".24"/>
      <stop offset="1" stop-color="#8be6a7" stop-opacity="0"/>
    </radialGradient>
  </defs>
  <rect width="1600" height="1000" fill="url(#g)"/>
  <rect width="1600" height="1000" fill="url(#warm)"/>
  <rect width="1600" height="1000" fill="url(#cool)"/>
  <circle cx="1280" cy="820" r="360" fill="#ffffff" opacity=".06"/>
  <circle cx="130" cy="930" r="310" fill="#ffffff" opacity=".05"/>
  <circle cx="193" cy="452" r="181" fill="#ee6570" opacity="0.16"/>
<circle cx="812" cy="697" r="207" fill="#8be6a7" opacity="0.22"/>
<circle cx="804" cy="358" r="214" fill="#8be6a7" opacity="0.09"/>
<circle cx="968" cy="376" r="227" fill="#ee6570" opacity="0.21"/>
<circle cx="1581" cy="67" r="205" fill="#ffe08a" opacity="0.15"/>
<circle cx="1557" cy="806" r="90" fill="#8be6a7" opacity="0.21"/>
<circle cx="576" cy="963" r="89" fill="#ee6570" opacity="0.16"/>
<circle cx="1020" cy="1099" r="199" fill="#8be6a7" opacity="0.14"/>
<circle cx="1376" cy="439" r="157" fill="#8be6a7" opacity="0.20"/>
<circle cx="504" cy="981" r="208" fill="#8be6a7" opacity="0.21"/>
<circle cx="460" cy="699" r="105" fill="#ffe08a" opacity="0.20"/>
<circle cx="82" cy="772" r="223" fill="#ffe08a" opacity="0.12"/>
<circle cx="312" cy="813" r="164" fill="#8be6a7" opacity="0.18"/>
<circle cx="492" cy="994" r="101" fill="#8be6a7" opacity="0.19"/>
<circle cx="935" cy="81" r="191" fill="#8be6a7" opacity="0.17"/>
<circle cx="1381" cy="311" r="101" fill="#8be6a7" opacity="0.11"/>
    <pattern id="plaid" width="96" height="96" patternUnits="userSpaceOnUse">
      <rect width="96" height="96" fill="transparent"/>
      <path d="M0 24H96 M0 72H96 M24 0V96 M72 0V96" stroke="#ffe08a" stroke-width="2" opacity=".18"/>
      <path d="M0 48H96 M48 0V96" stroke="#8be6a7" stroke-width="8" opacity=".06"/>
    </pattern>
    <rect width="1600" height="1000" fill="url(#plaid)" opacity=".9"/><circle cx="280" cy="897" r="2.3" fill="#fff" opacity="0.38"/>
<circle cx="1517" cy="167" r="1.7" fill="#fff" opacity="0.41"/>
<circle cx="1153" cy="343" r="1.3" fill="#fff" opacity="0.41"/>
<circle cx="940" cy="726" r="2.3" fill="#fff" opacity="0.19"/>
<circle cx="1009" cy="625" r="1.8" fill="#fff" opacity="0.18"/>
<circle cx="695" cy="614" r="2.0" fill="#fff" opacity="0.36"/>
<circle cx="136" cy="612" r="1.0" fill="#fff" opacity="0.34"/>
<circle cx="552" cy="527" r="2.0" fill="#fff" opacity="0.49"/>
<circle cx="1451" cy="112" r="0.8" fill="#fff" opacity="0.34"/>
<circle cx="158" cy="991" r="1.5" fill="#fff" opacity="0.33"/>
<circle cx="510" cy="995" r="1.3" fill="#fff" opacity="0.56"/>
<circle cx="1340" cy="940" r="1.0" fill="#fff" opacity="0.22"/>
<circle cx="204" cy="555" r="2.0" fill="#fff" opacity="0.33"/>
<circle cx="559" cy="466" r="0.8" fill="#fff" opacity="0.46"/>
<circle cx="1438" cy="472" r="1.3" fill="#fff" opacity="0.62"/>
<circle cx="986" cy="734" r="1.5" fill="#fff" opacity="0.57"/>
<circle cx="277" cy="325" r="1.4" fill="#fff" opacity="0.24"/>
<circle cx="1136" cy="698" r="1.3" fill="#fff" opacity="0.21"/>
<circle cx="111" cy="135" r="0.9" fill="#fff" opacity="0.39"/>
<circle cx="155" cy="160" r="1.9" fill="#fff" opacity="0.47"/>
<circle cx="215" cy="691" r="1.9" fill="#fff" opacity="0.28"/>
<circle cx="1006" cy="591" r="0.8" fill="#fff" opacity="0.41"/>
<circle cx="1042" cy="75" r="2.3" fill="#fff" opacity="0.54"/>
<circle cx="915" cy="43" r="0.8" fill="#fff" opacity="0.36"/>
<circle cx="926" cy="895" r="2.0" fill="#fff" opacity="0.46"/>
<circle cx="940" cy="658" r="2.2" fill="#fff" opacity="0.41"/>
<circle cx="387" cy="263" r="1.4" fill="#fff" opacity="0.47"/>
<circle cx="91" cy="914" r="2.3" fill="#fff" opacity="0.18"/>
<circle cx="974" cy="651" r="1.4" fill="#fff" opacity="0.42"/>
<circle cx="693" cy="212" r="1.9" fill="#fff" opacity="0.40"/>
<circle cx="1576" cy="274" r="1.2" fill="#fff" opacity="0.41"/>
<circle cx="561" cy="587" r="1.4" fill="#fff" opacity="0.45"/>
<circle cx="1185" cy="544" r="0.9" fill="#fff" opacity="0.33"/>
<circle cx="1486" cy="33" r="1.8" fill="#fff" opacity="0.19"/>
<circle cx="1597" cy="350" r="2.0" fill="#fff" opacity="0.24"/>
<circle cx="1243" cy="547" r="2.2" fill="#fff" opacity="0.42"/>
<circle cx="1404" cy="94" r="2.2" fill="#fff" opacity="0.52"/>
<circle cx="471" cy="452" r="0.9" fill="#fff" opacity="0.60"/>
<circle cx="400" cy="134" r="1.3" fill="#fff" opacity="0.50"/>
<circle cx="120" cy="627" r="2.2" fill="#fff" opacity="0.24"/>
<circle cx="113" cy="141" r="2.2" fill="#fff" opacity="0.57"/>
<circle cx="74" cy="138" r="0.9" fill="#fff" opacity="0.61"/>
<circle cx="900" cy="237" r="2.2" fill="#fff" opacity="0.54"/>
<circle cx="1567" cy="436" r="0.9" fill="#fff" opacity="0.21"/>
<circle cx="1390" cy="106" r="1.2" fill="#fff" opacity="0.36"/>
<circle cx="1164" cy="297" r="1.4" fill="#fff" opacity="0.58"/>
<circle cx="721" cy="413" r="2.0" fill="#fff" opacity="0.51"/>
<circle cx="930" cy="4" r="0.8" fill="#fff" opacity="0.30"/>
<circle cx="1409" cy="377" r="2.1" fill="#fff" opacity="0.40"/>
<circle cx="610" cy="757" r="2.3" fill="#fff" opacity="0.18"/>
<circle cx="1264" cy="936" r="1.0" fill="#fff" opacity="0.24"/>
<circle cx="94" cy="398" r="1.4" fill="#fff" opacity="0.38"/>
<circle cx="951" cy="894" r="0.7" fill="#fff" opacity="0.25"/>
<circle cx="597" cy="608" r="1.0" fill="#fff" opacity="0.55"/>
<circle cx="1539" cy="710" r="1.8" fill="#fff" opacity="0.37"/>
<circle cx="1288" cy="833" r="2.1" fill="#fff" opacity="0.39"/>
<circle cx="333" cy="642" r="0.9" fill="#fff" opacity="0.41"/>
<circle cx="186" cy="435" r="0.9" fill="#fff" opacity="0.21"/>
<circle cx="1122" cy="320" r="1.0" fill="#fff" opacity="0.47"/>
<circle cx="345" cy="397" r="1.6" fill="#fff" opacity="0.56"/>
<circle cx="1555" cy="577" r="1.8" fill="#fff" opacity="0.22"/>
<circle cx="396" cy="791" r="2.1" fill="#fff" opacity="0.20"/>
<circle cx="1548" cy="749" r="1.7" fill="#fff" opacity="0.30"/>
<circle cx="39" cy="924" r="2.1" fill="#fff" opacity="0.61"/>
<circle cx="1358" cy="327" r="1.5" fill="#fff" opacity="0.26"/>
<circle cx="864" cy="54" r="1.6" fill="#fff" opacity="0.37"/>
<circle cx="1220" cy="752" r="1.3" fill="#fff" opacity="0.21"/>
<circle cx="1" cy="779" r="2.0" fill="#fff" opacity="0.46"/>
<circle cx="416" cy="857" r="1.2" fill="#fff" opacity="0.19"/>
<circle cx="824" cy="972" r="1.7" fill="#fff" opacity="0.33"/>
<circle cx="1118" cy="198" r="1.4" fill="#fff" opacity="0.53"/>
<circle cx="916" cy="430" r="0.9" fill="#fff" opacity="0.36"/>
<circle cx="1596" cy="80" r="2.4" fill="#fff" opacity="0.42"/>
<circle cx="1424" cy="453" r="0.8" fill="#fff" opacity="0.55"/>
<circle cx="209" cy="669" r="1.9" fill="#fff" opacity="0.52"/>
<circle cx="1145" cy="639" r="1.8" fill="#fff" opacity="0.50"/>
<circle cx="1243" cy="887" r="2.2" fill="#fff" opacity="0.21"/>
<circle cx="58" cy="562" r="2.0" fill="#fff" opacity="0.26"/>
<circle cx="523" cy="267" r="1.9" fill="#fff" opacity="0.20"/>
<circle cx="1250" cy="754" r="0.7" fill="#fff" opacity="0.57"/>
<circle cx="39" cy="173" r="0.7" fill="#fff" opacity="0.55"/>
<circle cx="1565" cy="185" r="2.1" fill="#fff" opacity="0.46"/>
<circle cx="1041" cy="502" r="0.9" fill="#fff" opacity="0.40"/>
<circle cx="972" cy="195" r="1.5" fill="#fff" opacity="0.57"/>
<circle cx="235" cy="387" r="2.0" fill="#fff" opacity="0.24"/>
<circle cx="1006" cy="740" r="1.7" fill="#fff" opacity="0.36"/>
<circle cx="1368" cy="244" r="1.5" fill="#fff" opacity="0.19"/>
<circle cx="676" cy="60" r="1.2" fill="#fff" opacity="0.58"/>
<circle cx="1505" cy="901" r="1.7" fill="#fff" opacity="0.40"/>
<circle cx="504" cy="424" r="1.4" fill="#fff" opacity="0.42"/>
<circle cx="1064" cy="47" r="1.0" fill="#fff" opacity="0.52"/>
<circle cx="1432" cy="506" r="0.9" fill="#fff" opacity="0.56"/>
<circle cx="1343" cy="146" r="2.1" fill="#fff" opacity="0.25"/>
<circle cx="626" cy="313" r="1.6" fill="#fff" opacity="0.18"/>
<circle cx="1060" cy="601" r="1.3" fill="#fff" opacity="0.61"/>
<circle cx="529" cy="893" r="1.2" fill="#fff" opacity="0.46"/>
<circle cx="46" cy="165" r="2.2" fill="#fff" opacity="0.31"/>
<circle cx="266" cy="984" r="1.5" fill="#fff" opacity="0.33"/>
<circle cx="128" cy="271" r="0.9" fill="#fff" opacity="0.33"/>
<circle cx="974" cy="807" r="1.7" fill="#fff" opacity="0.53"/>
<circle cx="804" cy="302" r="1.9" fill="#fff" opacity="0.19"/>
<circle cx="75" cy="841" r="1.2" fill="#fff" opacity="0.25"/>
<circle cx="1317" cy="767" r="2.4" fill="#fff" opacity="0.53"/>
<circle cx="786" cy="481" r="1.0" fill="#fff" opacity="0.41"/>
<circle cx="1188" cy="116" r="1.4" fill="#fff" opacity="0.42"/>
<circle cx="1308" cy="640" r="1.1" fill="#fff" opacity="0.46"/>
<circle cx="1560" cy="90" r="1.3" fill="#fff" opacity="0.38"/>
<circle cx="26" cy="116" r="2.1" fill="#fff" opacity="0.58"/>
<circle cx="128" cy="30" r="1.8" fill="#fff" opacity="0.45"/>
<circle cx="850" cy="9" r="1.8" fill="#fff" opacity="0.27"/>
  <rect width="1600" height="1000" fill="#000" opacity=".08"/>
</svg>