<svg xmlns="http://www.w3.org/2000/svg" viewBox="0 0 1600 1000" preserveAspectRatio="xMidYMid slice">
  <defs>
    <linearGradient id="g" x1="0" y1="0" x2="1" y2="1">
      <stop offset="0" stop-color="#102f46"/>
      <stop offset=".58" stop-color="#1d5b6b"/>
      <stop offset="1" stop-color="#102f46"/>
    </linearGradient>
    <radialGradient id="warm" cx=".18" cy=".12" r=".62">
      <stop offset="0" stop-color="#c8f3ff" stop-opacity=".32"/>
      <stop offset="1" stop-color="#c8f3ff" stop-opacity="0"/>
    </radialGradient>
    <radialGradient id="cool" cx=".86" cy=".24" r=".58">
      <stop offset="0" stop-color="#f7d36b" stop-opacity=".24"/>
      <stop offset="1" stop-color="#f7d36b" stop-opacity="0"/>
    </radialGradient>
  </defs>
  <rect width="1600" height="1000" fill="url(#g)"/>
  <rect width="1600" height="1000" fill="url(#warm)"/>
  <rect width="1600" height="1000" fill="url(#cool)"/>
  <circle cx="1280" cy="820" r="360" fill="#ffffff" opacity=".06"/>
  <circle cx="130" cy="930" r="310" fill="#ffffff" opacity=".05"/>
  <circle cx="123" cy="111" r="93" fill="#f7d36b" opacity="0.09"/>
<circle cx="243" cy="1059" r="133" fill="#c8f3ff" opacity="0.16"/>
<circle cx="1436" cy="86" r="133" fill="#c8f3ff" opacity="0.21"/>
<circle cx="454" cy="2" r="213" fill="#c8f3ff" opacity="0.21"/>
<circle cx="1271" cy="581" r="88" fill="#c8f3ff" opacity="0.15"/>
<circle cx="323" cy="1014" r="188" fill="#c8f3ff" opacity="0.13"/>
<circle cx="723" cy="248" r="94" fill="#c8f3ff" opacity="0.14"/>
<circle cx="-94" cy="56" r="160" fill="#ff8490" opacity="0.20"/>
<circle cx="351" cy="288" r="143" fill="#f7d36b" opacity="0.15"/>
<circle cx="360" cy="924" r="226" fill="#c8f3ff" opacity="0.19"/>
<circle cx="550" cy="188" r="172" fill="#ff8490" opacity="0.12"/>
<circle cx="725" cy="474" r="227" fill="#f7d36b" opacity="0.21"/>
<circle cx="364" cy="423" r="116" fill="#ff8490" opacity="0.12"/>
<circle cx="1678" cy="678" r="220" fill="#f7d36b" opacity="0.09"/>
<circle cx="1547" cy="680" r="161" fill="#f7d36b" opacity="0.15"/>
<circle cx="1408" cy="495" r="170" fill="#f7d36b" opacity="0.15"/><path d="M-100 435 C300 275, 600 615, 1000 435 S1400 285, 1700 475" fill="none" stroke="#c8f3ff" stroke-width="34" opacity="0.12"/>
<path d="M-100 350 C300 190, 600 530, 1000 350 S1400 200, 1700 390" fill="none" stroke="#f7d36b" stroke-width="34" opacity="0.17"/>
<path d="M-100 464 C300 304, 600 644, 1000 464 S1400 314, 1700 504" fill="none" stroke="#f7d36b" stroke-width="34" opacity="0.14"/>
<path d="M-100 120 C300 -40, 600 300, 1000 120 S1400 -30, 1700 160" fill="none" stroke="#c8f3ff" stroke-width="34" opacity="0.09"/>
<path d="M-100 914 C300 754, 600 1094, 1000 914 S1400 764, 1700 954" fill="none" stroke="#c8f3ff" stroke-width="34" opacity="0.11"/>
<path d="M-100 535 C300 375, 600 715, 1000 535 S1400 385, 1700 575" fill="none" stroke="#f7d36b" stroke-width="34" opacity="0.13"/><path d="M433 737.4760984315467 L434.23336554895866 739.7666344510413 L436.5239015684533 741 L434.23336554895866 742.2333655489587 L433 744.5239015684533 L431.76663445104134 742.2333655489587 L429.4760984315467 741 L431.76663445104134 739.7666344510413 Z" fill="#fff8d8" opacity="0.32"/>
<path d="M676 757.8078703977853 L677.1172453607751 759.8827546392249 L679.1921296022147 761 L677.1172453607751 762.1172453607751 L676 764.1921296022147 L674.8827546392249 762.1172453607751 L672.8078703977853 761 L674.8827546392249 759.8827546392249 Z" fill="#fff8d8" opacity="0.55"/>
<path d="M1072 464.45306673457713 L1072.541426642898 465.458573357102 L1073.546933265423 466 L1072.541426642898 466.541426642898 L1072 467.54693326542287 L1071.458573357102 466.541426642898 L1070.453066734577 466 L1071.458573357102 465.458573357102 Z" fill="#fff8d8" opacity="0.27"/>
<path d="M469 836.3851860698717 L469.5651848755449 837.4348151244551 L470.6148139301283 838 L469.5651848755449 838.5651848755449 L469 839.6148139301283 L468.4348151244551 838.5651848755449 L467.3851860698717 838 L468.4348151244551 837.4348151244551 Z" fill="#fff8d8" opacity="0.43"/>
<path d="M48 789.3887544351637 L49.26393594769268 791.7360640523074 L51.611245564836224 793 L49.26393594769268 794.2639359476926 L48 796.6112455648363 L46.73606405230732 794.2639359476926 L44.388754435163776 793 L46.73606405230732 791.7360640523074 Z" fill="#fff8d8" opacity="0.18"/>
<path d="M1341 926.5431478723457 L1341.859898244679 928.140101755321 L1343.4568521276542 929 L1341.859898244679 929.859898244679 L1341 931.4568521276543 L1340.140101755321 929.859898244679 L1338.5431478723458 929 L1340.140101755321 928.140101755321 Z" fill="#fff8d8" opacity="0.40"/>
<path d="M674 179.21468864837252 L675.3248589730696 181.6751410269304 L677.7853113516275 183 L675.3248589730696 184.3248589730696 L674 186.78531135162748 L672.6751410269304 184.3248589730696 L670.2146886483725 183 L672.6751410269304 181.6751410269304 Z" fill="#fff8d8" opacity="0.35"/>
<path d="M1490 907.4137915838725 L1490.5551729456447 908.4448270543554 L1491.5862084161274 909 L1490.5551729456447 909.5551729456446 L1490 910.5862084161275 L1489.4448270543553 909.5551729456446 L1488.4137915838726 909 L1489.4448270543553 908.4448270543554 Z" fill="#fff8d8" opacity="0.50"/>
<path d="M1529 257.6557907597539 L1529.8204732340862 259.17952676591386 L1531.344209240246 260 L1529.8204732340862 260.82047323408614 L1529 262.3442092402461 L1528.1795267659138 260.82047323408614 L1526.655790759754 260 L1528.1795267659138 259.17952676591386 Z" fill="#fff8d8" opacity="0.17"/>
<path d="M465 601.1445534936655 L465.9994062772171 603.0005937227829 L467.8554465063345 604 L465.9994062772171 604.9994062772171 L465 606.8554465063345 L464.0005937227829 604.9994062772171 L462.1445534936655 604 L464.0005937227829 603.0005937227829 Z" fill="#fff8d8" opacity="0.44"/>
<path d="M619 32.44985197312251 L619.8925518094071 34.107448190592876 L621.5501480268775 35 L619.8925518094071 35.892551809407124 L619 37.55014802687749 L618.1074481905929 35.892551809407124 L616.4498519731225 35 L618.1074481905929 34.107448190592876 Z" fill="#fff8d8" opacity="0.36"/>
<path d="M320 836.3708671789195 L320.57019648737815 837.4298035126219 L321.6291328210804 838 L320.57019648737815 838.5701964873781 L320 839.6291328210805 L319.42980351262185 838.5701964873781 L318.3708671789196 838 L319.42980351262185 837.4298035126219 Z" fill="#fff8d8" opacity="0.28"/>
<path d="M701 177.24462388929328 L701.6143816387473 178.38561836125265 L702.7553761107067 179 L701.6143816387473 179.61438163874735 L701 180.75537611070672 L700.3856183612527 179.61438163874735 L699.2446238892933 179 L700.3856183612527 178.38561836125265 Z" fill="#fff8d8" opacity="0.44"/>
<path d="M1109 869.4176304381454 L1109.553829346649 870.4461706533509 L1110.5823695618546 871 L1109.553829346649 871.5538293466491 L1109 872.5823695618546 L1108.446170653351 871.5538293466491 L1107.4176304381454 871 L1108.446170653351 870.4461706533509 Z" fill="#fff8d8" opacity="0.28"/>
<path d="M951 823.8662358708937 L951.7468174451872 825.2531825548128 L953.1337641291063 826 L951.7468174451872 826.7468174451872 L951 828.1337641291063 L950.2531825548128 826.7468174451872 L948.8662358708937 826 L950.2531825548128 825.2531825548128 Z" fill="#fff8d8" opacity="0.38"/>
<path d="M454 510.0797176113171 L454.672098836039 511.327901163961 L455.9202823886829 512 L454.672098836039 512.672098836039 L454 513.9202823886828 L453.327901163961 512.672098836039 L452.0797176113171 512 L453.327901163961 511.327901163961 Z" fill="#fff8d8" opacity="0.28"/>
<path d="M657 868.4860912018449 L657.8798680793543 870.1201319206457 L659.5139087981551 871 L657.8798680793543 871.8798680793543 L657 873.5139087981551 L656.1201319206457 871.8798680793543 L654.4860912018449 871 L656.1201319206457 870.1201319206457 Z" fill="#fff8d8" opacity="0.33"/>
<path d="M743 3.929270838822834 L743.724755206412 5.2752447935879925 L745.0707291611772 6 L743.724755206412 6.7247552064120075 L743 8.070729161177166 L742.275244793588 6.7247552064120075 L740.9292708388228 6 L742.275244793588 5.2752447935879925 Z" fill="#fff8d8" opacity="0.31"/>
<path d="M311 651.1240909763272 L312.00656815828546 652.9934318417145 L313.8759090236728 654 L312.00656815828546 655.0065681582855 L311 656.8759090236728 L309.99343184171454 655.0065681582855 L308.1240909763272 654 L309.99343184171454 652.9934318417145 Z" fill="#fff8d8" opacity="0.49"/>
<path d="M932 248.28797067844297 L933.299210262545 250.70078973745504 L935.712029321557 252 L933.299210262545 253.29921026254496 L932 255.71202932155703 L930.700789737455 253.29921026254496 L928.287970678443 252 L930.700789737455 250.70078973745504 Z" fill="#fff8d8" opacity="0.16"/>
<path d="M1530 971.1967427545369 L1531.331140035912 973.6688599640879 L1533.803257245463 975 L1531.331140035912 976.3311400359121 L1530 978.8032572454631 L1528.668859964088 976.3311400359121 L1526.196742754537 975 L1528.668859964088 973.6688599640879 Z" fill="#fff8d8" opacity="0.18"/>
<path d="M420 651.1112491668453 L421.3610627916041 653.6389372083959 L423.88875083315475 655 L421.3610627916041 656.3610627916041 L420 658.8887508331547 L418.6389372083959 656.3610627916041 L416.11124916684525 655 L418.6389372083959 653.6389372083959 Z" fill="#fff8d8" opacity="0.30"/>
<path d="M953 548.6968023635291 L953.8061191727649 550.1938808272351 L955.3031976364709 551 L953.8061191727649 551.8061191727649 L953 553.3031976364709 L952.1938808272351 551.8061191727649 L950.6968023635291 551 L952.1938808272351 550.1938808272351 Z" fill="#fff8d8" opacity="0.42"/>
<path d="M69 416.61023371709035 L69.83641819901838 418.1635818009816 L71.38976628290968 419 L69.83641819901838 419.8364181990184 L69 421.38976628290965 L68.16358180098162 419.8364181990184 L66.61023371709032 419 L68.16358180098162 418.1635818009816 Z" fill="#fff8d8" opacity="0.43"/>
<path d="M758 983.0332847429046 L759.3883503399834 985.6116496600166 L761.9667152570954 987 L759.3883503399834 988.3883503399834 L758 990.9667152570954 L756.6116496600166 988.3883503399834 L754.0332847429046 987 L756.6116496600166 985.6116496600166 Z" fill="#fff8d8" opacity="0.51"/>
<path d="M567 235.2636903476846 L567.6077083783103 236.3922916216896 L568.7363096523154 237 L567.6077083783103 237.6077083783104 L567 238.7363096523154 L566.3922916216897 237.6077083783104 L565.2636903476846 237 L566.3922916216897 236.3922916216896 Z" fill="#fff8d8" opacity="0.20"/>
<path d="M1254 594.824068704925 L1255.1115759532763 596.8884240467238 L1257.1759312950749 598 L1255.1115759532763 599.1115759532762 L1254 601.175931295075 L1252.8884240467237 599.1115759532762 L1250.8240687049251 598 L1252.8884240467237 596.8884240467238 Z" fill="#fff8d8" opacity="0.32"/>
<path d="M1235 759.4410372903807 L1236.2456369483668 761.7543630516333 L1238.5589627096192 763 L1236.2456369483668 764.2456369483667 L1235 766.5589627096193 L1233.7543630516332 764.2456369483667 L1231.4410372903808 763 L1233.7543630516332 761.7543630516333 Z" fill="#fff8d8" opacity="0.41"/>
<path d="M614 70.80986680043256 L615.1165466198486 72.8834533801514 L617.1901331995674 74 L615.1165466198486 75.1165466198486 L614 77.19013319956744 L612.8834533801514 75.1165466198486 L610.8098668004326 74 L612.8834533801514 72.8834533801514 Z" fill="#fff8d8" opacity="0.45"/>
<path d="M750 285.1929375455985 L750.9824718590405 287.0175281409595 L752.8070624544015 288 L750.9824718590405 288.9824718590405 L750 290.8070624544015 L749.0175281409595 288.9824718590405 L747.1929375455985 288 L749.0175281409595 287.0175281409595 Z" fill="#fff8d8" opacity="0.18"/>
<path d="M654 112.1687294199685 L654.640944703011 113.35905529698897 L655.8312705800315 114 L654.640944703011 114.64094470301103 L654 115.8312705800315 L653.359055296989 114.64094470301103 L652.1687294199685 114 L653.359055296989 113.35905529698897 Z" fill="#fff8d8" opacity="0.31"/>
<path d="M244 507.8861074116437 L245.0898624059247 509.9101375940753 L247.1138925883563 511 L245.0898624059247 512.0898624059247 L244 514.1138925883563 L242.9101375940753 512.0898624059247 L240.8861074116437 511 L242.9101375940753 509.9101375940753 Z" fill="#fff8d8" opacity="0.41"/>
<path d="M1593 641.7543300536157 L1593.7859844812344 643.2140155187654 L1595.2456699463842 644 L1593.7859844812344 644.7859844812346 L1593 646.2456699463843 L1592.2140155187656 644.7859844812346 L1590.7543300536158 644 L1592.2140155187656 643.2140155187654 Z" fill="#fff8d8" opacity="0.19"/>
<path d="M986 742.5017242519543 L986.874396511816 744.125603488184 L988.4982757480457 745 L986.874396511816 745.874396511816 L986 747.4982757480457 L985.125603488184 745.874396511816 L983.5017242519543 745 L985.125603488184 744.125603488184 Z" fill="#fff8d8" opacity="0.50"/>
<path d="M35 750.3070481276636 L35.94253315531774 752.0574668446823 L37.692951872336394 753 L35.94253315531774 753.9425331553177 L35 755.6929518723364 L34.05746684468226 753.9425331553177 L32.307048127663606 753 L34.05746684468226 752.0574668446823 Z" fill="#fff8d8" opacity="0.39"/>
<path d="M117 232.12103068800124 L117.65763925919957 233.34236074080044 L118.87896931199877 234 L117.65763925919957 234.65763925919956 L117 235.87896931199876 L116.34236074080043 234.65763925919956 L115.12103068800123 234 L116.34236074080043 233.34236074080044 Z" fill="#fff8d8" opacity="0.17"/>
<path d="M689 20.56854848704661 L689.8510080295337 22.148991970466312 L691.4314515129533 23 L689.8510080295337 23.851008029533688 L689 25.43145151295339 L688.1489919704663 23.851008029533688 L686.5685484870467 23 L688.1489919704663 22.148991970466312 Z" fill="#fff8d8" opacity="0.29"/>
<path d="M1590 845.3243291347576 L1591.2864848028348 847.7135151971652 L1593.6756708652424 849 L1591.2864848028348 850.2864848028348 L1590 852.6756708652424 L1588.7135151971652 850.2864848028348 L1586.3243291347576 849 L1588.7135151971652 847.7135151971652 Z" fill="#fff8d8" opacity="0.52"/><circle cx="196" cy="496" r="2.1" fill="#fff" opacity="0.60"/>
<circle cx="286" cy="391" r="1.0" fill="#fff" opacity="0.21"/>
<circle cx="774" cy="694" r="2.2" fill="#fff" opacity="0.58"/>
<circle cx="727" cy="400" r="2.2" fill="#fff" opacity="0.35"/>
<circle cx="1264" cy="618" r="2.0" fill="#fff" opacity="0.25"/>
<circle cx="121" cy="929" r="1.8" fill="#fff" opacity="0.35"/>
<circle cx="64" cy="290" r="0.9" fill="#fff" opacity="0.36"/>
<circle cx="873" cy="824" r="1.1" fill="#fff" opacity="0.30"/>
<circle cx="777" cy="686" r="2.3" fill="#fff" opacity="0.28"/>
<circle cx="1078" cy="818" r="1.4" fill="#fff" opacity="0.38"/>
<circle cx="1570" cy="336" r="0.9" fill="#fff" opacity="0.57"/>
<circle cx="532" cy="294" r="1.9" fill="#fff" opacity="0.37"/>
<circle cx="383" cy="603" r="1.4" fill="#fff" opacity="0.23"/>
<circle cx="191" cy="15" r="1.8" fill="#fff" opacity="0.26"/>
<circle cx="973" cy="541" r="2.0" fill="#fff" opacity="0.27"/>
<circle cx="128" cy="169" r="0.7" fill="#fff" opacity="0.39"/>
<circle cx="468" cy="184" r="1.3" fill="#fff" opacity="0.34"/>
<circle cx="889" cy="21" r="2.1" fill="#fff" opacity="0.60"/>
<circle cx="125" cy="165" r="0.8" fill="#fff" opacity="0.24"/>
<circle cx="130" cy="643" r="0.9" fill="#fff" opacity="0.59"/>
<circle cx="1597" cy="229" r="0.8" fill="#fff" opacity="0.48"/>
<circle cx="36" cy="876" r="1.6" fill="#fff" opacity="0.44"/>
<circle cx="372" cy="870" r="1.3" fill="#fff" opacity="0.62"/>
<circle cx="1133" cy="762" r="2.4" fill="#fff" opacity="0.18"/>
<circle cx="1078" cy="987" r="1.7" fill="#fff" opacity="0.33"/>
<circle cx="658" cy="581" r="1.0" fill="#fff" opacity="0.36"/>
<circle cx="901" cy="449" r="1.3" fill="#fff" opacity="0.23"/>
<circle cx="103" cy="198" r="2.2" fill="#fff" opacity="0.48"/>
<circle cx="818" cy="236" r="1.1" fill="#fff" opacity="0.37"/>
<circle cx="455" cy="798" r="2.4" fill="#fff" opacity="0.28"/>
<circle cx="1046" cy="711" r="1.9" fill="#fff" opacity="0.37"/>
<circle cx="277" cy="407" r="1.8" fill="#fff" opacity="0.37"/>
<circle cx="45" cy="264" r="0.7" fill="#fff" opacity="0.24"/>
<circle cx="490" cy="654" r="2.3" fill="#fff" opacity="0.22"/>
<circle cx="959" cy="11" r="0.8" fill="#fff" opacity="0.49"/>
<circle cx="999" cy="917" r="0.9" fill="#fff" opacity="0.28"/>
<circle cx="918" cy="509" r="1.0" fill="#fff" opacity="0.26"/>
<circle cx="1165" cy="534" r="1.7" fill="#fff" opacity="0.39"/>
<circle cx="57" cy="88" r="0.9" fill="#fff" opacity="0.26"/>
<circle cx="946" cy="369" r="0.9" fill="#fff" opacity="0.55"/>
<circle cx="1398" cy="353" r="1.1" fill="#fff" opacity="0.34"/>
<circle cx="763" cy="116" r="0.8" fill="#fff" opacity="0.62"/>
<circle cx="340" cy="558" r="1.7" fill="#fff" opacity="0.24"/>
<circle cx="576" cy="756" r="0.8" fill="#fff" opacity="0.41"/>
<circle cx="543" cy="352" r="2.2" fill="#fff" opacity="0.55"/>
<circle cx="68" cy="622" r="1.8" fill="#fff" opacity="0.27"/>
<circle cx="577" cy="435" r="0.8" fill="#fff" opacity="0.20"/>
<circle cx="1391" cy="349" r="1.1" fill="#fff" opacity="0.32"/>
<circle cx="112" cy="128" r="2.2" fill="#fff" opacity="0.18"/>
<circle cx="1243" cy="967" r="2.2" fill="#fff" opacity="0.55"/>
<circle cx="366" cy="763" r="1.5" fill="#fff" opacity="0.38"/>
<circle cx="1136" cy="387" r="0.7" fill="#fff" opacity="0.44"/>
<circle cx="744" cy="966" r="1.7" fill="#fff" opacity="0.20"/>
<circle cx="993" cy="693" r="1.9" fill="#fff" opacity="0.60"/>
<circle cx="1533" cy="384" r="2.3" fill="#fff" opacity="0.58"/>
<circle cx="1216" cy="559" r="1.8" fill="#fff" opacity="0.60"/>
<circle cx="308" cy="464" r="0.8" fill="#fff" opacity="0.26"/>
<circle cx="1241" cy="295" r="2.3" fill="#fff" opacity="0.19"/>
<circle cx="50" cy="604" r="0.8" fill="#fff" opacity="0.57"/>
<circle cx="975" cy="654" r="0.9" fill="#fff" opacity="0.35"/>
<circle cx="438" cy="221" r="2.1" fill="#fff" opacity="0.50"/>
<circle cx="804" cy="541" r="1.0" fill="#fff" opacity="0.30"/>
<circle cx="1335" cy="765" r="0.7" fill="#fff" opacity="0.39"/>
<circle cx="584" cy="357" r="2.0" fill="#fff" opacity="0.20"/>
<circle cx="196" cy="36" r="1.7" fill="#fff" opacity="0.31"/>
<circle cx="1206" cy="764" r="0.7" fill="#fff" opacity="0.54"/>
<circle cx="784" cy="328" r="2.0" fill="#fff" opacity="0.50"/>
<circle cx="60" cy="172" r="1.1" fill="#fff" opacity="0.40"/>
<circle cx="967" cy="837" r="2.3" fill="#fff" opacity="0.48"/>
<circle cx="1145" cy="480" r="1.7" fill="#fff" opacity="0.38"/>
<circle cx="1587" cy="964" r="2.0" fill="#fff" opacity="0.37"/>
<circle cx="1233" cy="19" r="1.7" fill="#fff" opacity="0.60"/>
<circle cx="1062" cy="618" r="1.0" fill="#fff" opacity="0.31"/>
<circle cx="1498" cy="980" r="1.4" fill="#fff" opacity="0.55"/>
<circle cx="410" cy="346" r="0.8" fill="#fff" opacity="0.29"/>
<circle cx="1597" cy="529" r="2.1" fill="#fff" opacity="0.57"/>
<circle cx="1393" cy="159" r="2.1" fill="#fff" opacity="0.57"/>
<circle cx="1382" cy="821" r="1.6" fill="#fff" opacity="0.26"/>
<circle cx="1267" cy="445" r="0.8" fill="#fff" opacity="0.23"/>
<circle cx="71" cy="456" r="2.2" fill="#fff" opacity="0.19"/>
<circle cx="596" cy="221" r="1.2" fill="#fff" opacity="0.33"/>
<circle cx="1307" cy="40" r="1.2" fill="#fff" opacity="0.45"/>
<circle cx="507" cy="709" r="0.9" fill="#fff" opacity="0.29"/>
<circle cx="593" cy="683" r="1.7" fill="#fff" opacity="0.19"/>
<circle cx="504" cy="395" r="2.2" fill="#fff" opacity="0.47"/>
<circle cx="411" cy="784" r="0.9" fill="#fff" opacity="0.39"/>
<circle cx="1398" cy="277" r="1.6" fill="#fff" opacity="0.23"/>
<circle cx="418" cy="328" r="2.2" fill="#fff" opacity="0.37"/>
<circle cx="427" cy="988" r="0.9" fill="#fff" opacity="0.45"/>
<circle cx="1311" cy="383" r="2.2" fill="#fff" opacity="0.33"/>
<circle cx="229" cy="150" r="1.5" fill="#fff" opacity="0.60"/>
<circle cx="573" cy="260" r="1.3" fill="#fff" opacity="0.28"/>
<circle cx="191" cy="890" r="2.1" fill="#fff" opacity="0.54"/>
<circle cx="205" cy="68" r="1.8" fill="#fff" opacity="0.62"/>
<circle cx="515" cy="219" r="1.6" fill="#fff" opacity="0.61"/>
<circle cx="27" cy="746" r="1.7" fill="#fff" opacity="0.48"/>
<circle cx="55" cy="138" r="1.5" fill="#fff" opacity="0.42"/>
<circle cx="566" cy="231" r="1.9" fill="#fff" opacity="0.23"/>
<circle cx="81" cy="362" r="2.1" fill="#fff" opacity="0.20"/>
<circle cx="132" cy="960" r="1.3" fill="#fff" opacity="0.20"/>
<circle cx="1502" cy="425" r="2.2" fill="#fff" opacity="0.58"/>
<circle cx="619" cy="936" r="0.7" fill="#fff" opacity="0.42"/>
<circle cx="1162" cy="789" r="1.3" fill="#fff" opacity="0.42"/>
<circle cx="125" cy="133" r="1.5" fill="#fff" opacity="0.41"/>
<circle cx="1308" cy="18" r="1.0" fill="#fff" opacity="0.60"/>
<circle cx="995" cy="788" r="2.3" fill="#fff" opacity="0.40"/>
<circle cx="850" cy="808" r="1.3" fill="#fff" opacity="0.19"/>
<circle cx="614" cy="736" r="1.0" fill="#fff" opacity="0.35"/>
<circle cx="111" cy="119" r="1.1" fill="#fff" opacity="0.36"/>
<circle cx="1550" cy="721" r="0.8" fill="#fff" opacity="0.54"/>
<circle cx="1182" cy="975" r="0.8" fill="#fff" opacity="0.21"/>
<circle cx="1367" cy="501" r="1.7" fill="#fff" opacity="0.50"/>
<circle cx="1439" cy="214" r="1.0" fill="#fff" opacity="0.26"/>
<circle cx="866" cy="143" r="1.8" fill="#fff" opacity="0.55"/>
<circle cx="326" cy="902" r="1.8" fill="#fff" opacity="0.32"/>
<circle cx="409" cy="928" r="1.2" fill="#fff" opacity="0.28"/>
<circle cx="729" cy="217" r="1.7" fill="#fff" opacity="0.40"/>
<circle cx="401" cy="348" r="1.4" fill="#fff" opacity="0.26"/>
<circle cx="594" cy="149" r="1.0" fill="#fff" opacity="0.28"/>
<circle cx="697" cy="27" r="1.7" fill="#fff" opacity="0.29"/>
<circle cx="1422" cy="732" r="2.3" fill="#fff" opacity="0.61"/>
<circle cx="849" cy="327" r="1.1" fill="#fff" opacity="0.39"/>
<circle cx="1518" cy="147" r="2.3" fill="#fff" opacity="0.43"/>
<circle cx="797" cy="512" r="1.4" fill="#fff" opacity="0.28"/>
<circle cx="480" cy="293" r="1.4" fill="#fff" opacity="0.48"/>
<circle cx="450" cy="725" r="1.8" fill="#fff" opacity="0.27"/>
<circle cx="1492" cy="787" r="0.9" fill="#fff" opacity="0.37"/>
<circle cx="593" cy="487" r="1.7" fill="#fff" opacity="0.39"/>
<circle cx="1049" cy="759" r="2.0" fill="#fff" opacity="0.25"/>
<circle cx="1084" cy="799" r="2.1" fill="#fff" opacity="0.42"/>
  <rect width="1600" height="1000" fill="#000" opacity=".08"/>
</svg>