<svg xmlns="http://www.w3.org/2000/svg" viewBox="0 0 1600 1000" preserveAspectRatio="xMidYMid slice">
  <defs>
    <linearGradient id="g" x1="0" y1="0" x2="1" y2="1">
      <stop offset="0" stop-color="#2b2418"/>
      <stop offset=".58" stop-color="#5a3725"/>
      <stop offset="1" stop-color="#2b2418"/>
    </linearGradient>
    <radialGradient id="warm" cx=".18" cy=".12" r=".62">
      <stop offset="0" stop-color="#ffcf73" stop-opacity=".32"/>
      <stop offset="1" stop-color="#ffcf73" stop-opacity="0"/>
    </radialGradient>
    <radialGradient id="cool" cx=".86" cy=".24" r=".58">
      <stop offset="0" stop-color="#8adf92" stop-opacity=".24"/>
      <stop offset="1" stop-color="#8adf92" stop-opacity="0"/>
    </radialGradient>
  </defs>
  <rect width="1600" height="1000" fill="url(#g)"/>
  <rect width="1600" height="1000" fill="url(#warm)"/>
  <rect width="1600" height="1000" fill="url(#cool)"/>
  <circle cx="1280" cy="820" r="360" fill="#ffffff" opacity=".06"/>
  <circle cx="130" cy="930" r="310" fill="#ffffff" opacity=".05"/>
  <circle cx="914" cy="1000" r="235" fill="#ef7460" opacity="0.17"/>
<circle cx="1394" cy="660" r="234" fill="#8adf92" opacity="0.18"/>
<circle cx="1483" cy="220" r="127" fill="#ef7460" opacity="0.19"/>
<circle cx="1092" cy="-74" r="198" fill="#8adf92" opacity="0.17"/>
<circle cx="176" cy="465" r="193" fill="#ef7460" opacity="0.20"/>
<circle cx="1609" cy="-25" r="157" fill="#ef7460" opacity="0.16"/>
<circle cx="1583" cy="155" r="142" fill="#8adf92" opacity="0.20"/>
<circle cx="9" cy="71" r="113" fill="#ffcf73" opacity="0.15"/>
<circle cx="1565" cy="-5" r="171" fill="#ffcf73" opacity="0.19"/>
<circle cx="931" cy="358" r="149" fill="#8adf92" opacity="0.15"/>
<circle cx="259" cy="831" r="132" fill="#ef7460" opacity="0.15"/>
<circle cx="1510" cy="360" r="139" fill="#ffcf73" opacity="0.12"/>
<circle cx="1605" cy="122" r="192" fill="#ef7460" opacity="0.14"/>
<circle cx="968" cy="822" r="84" fill="#ef7460" opacity="0.13"/>
<circle cx="1578" cy="587" r="205" fill="#ffcf73" opacity="0.10"/>
<circle cx="617" cy="312" r="87" fill="#ffcf73" opacity="0.16"/>
    <pattern id="plaid" width="96" height="96" patternUnits="userSpaceOnUse">
      <rect width="96" height="96" fill="transparent"/>
      <path d="M0 24H96 M0 72H96 M24 0V96 M72 0V96" stroke="#ffcf73" stroke-width="2" opacity=".18"/>
      <path d="M0 48H96 M48 0V96" stroke="#8adf92" stroke-width="8" opacity=".06"/>
    </pattern>
    <rect width="1600" height="1000" fill="url(#plaid)" opacity=".9"/><path d="M-83 974 L-13 596 L57 974 Z" fill="#071f18" opacity="0.45"/>
<path d="M-63 894 L-13 556 L37 894 Z" fill="#071f18" opacity="0.50"/>
<path d="M93 1064 L163 813 L233 1064 Z" fill="#071f18" opacity="0.46"/>
<path d="M113 984 L163 773 L213 984 Z" fill="#071f18" opacity="0.51"/>
<path d="M279 1022 L349 620 L419 1022 Z" fill="#071f18" opacity="0.32"/>
<path d="M299 942 L349 580 L399 942 Z" fill="#071f18" opacity="0.37"/>
<path d="M494 1030 L564 614 L634 1030 Z" fill="#071f18" opacity="0.27"/>
<path d="M514 950 L564 574 L614 950 Z" fill="#071f18" opacity="0.32"/>
<path d="M675 1058 L745 789 L815 1058 Z" fill="#071f18" opacity="0.45"/>
<path d="M695 978 L745 749 L795 978 Z" fill="#071f18" opacity="0.50"/>
<path d="M871 1074 L941 837 L1011 1074 Z" fill="#071f18" opacity="0.38"/>
<path d="M891 994 L941 797 L991 994 Z" fill="#071f18" opacity="0.43"/>
<path d="M1041 1047 L1111 679 L1181 1047 Z" fill="#071f18" opacity="0.33"/>
<path d="M1061 967 L1111 639 L1161 967 Z" fill="#071f18" opacity="0.38"/>
<path d="M1219 1017 L1289 818 L1359 1017 Z" fill="#071f18" opacity="0.42"/>
<path d="M1239 937 L1289 778 L1339 937 Z" fill="#071f18" opacity="0.47"/>
<path d="M1402 1040 L1472 763 L1542 1040 Z" fill="#071f18" opacity="0.30"/>
<path d="M1422 960 L1472 723 L1522 960 Z" fill="#071f18" opacity="0.35"/>
<path d="M1603 1048 L1673 669 L1743 1048 Z" fill="#071f18" opacity="0.38"/>
<path d="M1623 968 L1673 629 L1723 968 Z" fill="#071f18" opacity="0.43"/><path d="M0 120 C280 30, 520 180, 800 90 S1300 40, 1600 120" fill="none" stroke="#fff" stroke-width="2" opacity=".22"/>
<ellipse cx="35" cy="115.0" rx="12" ry="18" fill="#ef7460" opacity=".82"/>
<circle cx="35" cy="115.0" r="38" fill="#ef7460" opacity=".10"/>
<ellipse cx="118" cy="139.1074631814833" rx="12" ry="18" fill="#8adf92" opacity=".82"/>
<circle cx="118" cy="139.1074631814833" r="38" fill="#8adf92" opacity=".10"/>
<ellipse cx="224" cy="140.98507610645268" rx="12" ry="18" fill="#ef7460" opacity=".82"/>
<circle cx="224" cy="140.98507610645268" r="38" fill="#ef7460" opacity=".10"/>
<ellipse cx="301" cy="128.64121131929028" rx="12" ry="18" fill="#ffcf73" opacity=".82"/>
<circle cx="301" cy="128.64121131929028" r="38" fill="#ffcf73" opacity=".10"/>
<ellipse cx="411" cy="108.9569049800347" rx="12" ry="18" fill="#ef7460" opacity=".82"/>
<circle cx="411" cy="108.9569049800347" r="38" fill="#ef7460" opacity=".10"/>
<ellipse cx="489" cy="77.5119126642225" rx="12" ry="18" fill="#8adf92" opacity=".82"/>
<circle cx="489" cy="77.5119126642225" r="38" fill="#8adf92" opacity=".10"/>
<ellipse cx="592" cy="77.13423869074558" rx="12" ry="18" fill="#ef7460" opacity=".82"/>
<circle cx="592" cy="77.13423869074558" r="38" fill="#ef7460" opacity=".10"/>
<ellipse cx="671" cy="94.90566767446877" rx="12" ry="18" fill="#8adf92" opacity=".82"/>
<circle cx="671" cy="94.90566767446877" r="38" fill="#8adf92" opacity=".10"/>
<ellipse cx="753" cy="116.07922216976728" rx="12" ry="18" fill="#ffcf73" opacity=".82"/>
<circle cx="753" cy="116.07922216976728" r="38" fill="#ffcf73" opacity=".10"/>
<ellipse cx="856" cy="135.77837523472036" rx="12" ry="18" fill="#ef7460" opacity=".82"/>
<circle cx="856" cy="135.77837523472036" r="38" fill="#ef7460" opacity=".10"/>
<ellipse cx="942" cy="138.62753863181837" rx="12" ry="18" fill="#8adf92" opacity=".82"/>
<circle cx="942" cy="138.62753863181837" r="38" fill="#8adf92" opacity=".10"/>
<ellipse cx="1039" cy="135.47210175121165" rx="12" ry="18" fill="#ef7460" opacity=".82"/>
<circle cx="1039" cy="135.47210175121165" r="38" fill="#ef7460" opacity=".10"/>
<ellipse cx="1110" cy="107.89856265719565" rx="12" ry="18" fill="#ffcf73" opacity=".82"/>
<circle cx="1110" cy="107.89856265719565" r="38" fill="#ffcf73" opacity=".10"/>
<ellipse cx="1221" cy="74.02607358200211" rx="12" ry="18" fill="#ef7460" opacity=".82"/>
<circle cx="1221" cy="74.02607358200211" r="38" fill="#ef7460" opacity=".10"/>
<ellipse cx="1303" cy="76.72877947970392" rx="12" ry="18" fill="#ef7460" opacity=".82"/>
<circle cx="1303" cy="76.72877947970392" r="38" fill="#ef7460" opacity=".10"/>
<ellipse cx="1385" cy="85.21994786998478" rx="12" ry="18" fill="#8adf92" opacity=".82"/>
<circle cx="1385" cy="85.21994786998478" r="38" fill="#8adf92" opacity=".10"/>
<ellipse cx="1468" cy="124.10284387855387" rx="12" ry="18" fill="#ffcf73" opacity=".82"/>
<circle cx="1468" cy="124.10284387855387" r="38" fill="#ffcf73" opacity=".10"/>
<ellipse cx="1581" cy="146.0706635199774" rx="12" ry="18" fill="#8adf92" opacity=".82"/>
<circle cx="1581" cy="146.0706635199774" r="38" fill="#8adf92" opacity=".10"/><circle cx="96" cy="846" r="1.4" fill="#fff" opacity="0.35"/>
<circle cx="5" cy="242" r="2.2" fill="#fff" opacity="0.55"/>
<circle cx="340" cy="361" r="1.3" fill="#fff" opacity="0.60"/>
<circle cx="1317" cy="176" r="1.1" fill="#fff" opacity="0.31"/>
<circle cx="63" cy="738" r="2.1" fill="#fff" opacity="0.25"/>
<circle cx="679" cy="745" r="1.6" fill="#fff" opacity="0.35"/>
<circle cx="98" cy="355" r="2.3" fill="#fff" opacity="0.31"/>
<circle cx="315" cy="546" r="2.1" fill="#fff" opacity="0.19"/>
<circle cx="1586" cy="531" r="0.8" fill="#fff" opacity="0.53"/>
<circle cx="620" cy="863" r="0.9" fill="#fff" opacity="0.30"/>
<circle cx="727" cy="264" r="0.9" fill="#fff" opacity="0.29"/>
<circle cx="678" cy="943" r="1.6" fill="#fff" opacity="0.30"/>
<circle cx="1233" cy="404" r="0.8" fill="#fff" opacity="0.24"/>
<circle cx="573" cy="233" r="2.0" fill="#fff" opacity="0.54"/>
<circle cx="294" cy="122" r="2.3" fill="#fff" opacity="0.37"/>
<circle cx="1518" cy="837" r="0.8" fill="#fff" opacity="0.44"/>
<circle cx="1491" cy="40" r="2.3" fill="#fff" opacity="0.37"/>
<circle cx="1571" cy="988" r="1.6" fill="#fff" opacity="0.36"/>
<circle cx="108" cy="251" r="1.0" fill="#fff" opacity="0.25"/>
<circle cx="404" cy="535" r="1.5" fill="#fff" opacity="0.54"/>
<circle cx="1135" cy="469" r="2.1" fill="#fff" opacity="0.41"/>
<circle cx="220" cy="973" r="0.7" fill="#fff" opacity="0.22"/>
<circle cx="1150" cy="276" r="1.2" fill="#fff" opacity="0.59"/>
<circle cx="1331" cy="414" r="2.1" fill="#fff" opacity="0.18"/>
<circle cx="1051" cy="962" r="2.0" fill="#fff" opacity="0.58"/>
<circle cx="1178" cy="516" r="0.9" fill="#fff" opacity="0.32"/>
<circle cx="266" cy="789" r="2.4" fill="#fff" opacity="0.61"/>
<circle cx="551" cy="103" r="1.7" fill="#fff" opacity="0.54"/>
<circle cx="974" cy="894" r="1.1" fill="#fff" opacity="0.34"/>
<circle cx="171" cy="473" r="0.8" fill="#fff" opacity="0.19"/>
<circle cx="725" cy="255" r="1.2" fill="#fff" opacity="0.57"/>
<circle cx="309" cy="395" r="1.8" fill="#fff" opacity="0.35"/>
<circle cx="851" cy="650" r="1.3" fill="#fff" opacity="0.58"/>
<circle cx="961" cy="969" r="1.8" fill="#fff" opacity="0.59"/>
<circle cx="358" cy="582" r="0.8" fill="#fff" opacity="0.51"/>
<circle cx="379" cy="743" r="0.9" fill="#fff" opacity="0.25"/>
<circle cx="1105" cy="658" r="1.3" fill="#fff" opacity="0.20"/>
<circle cx="350" cy="305" r="1.4" fill="#fff" opacity="0.41"/>
<circle cx="1439" cy="738" r="1.8" fill="#fff" opacity="0.20"/>
<circle cx="631" cy="228" r="1.5" fill="#fff" opacity="0.61"/>
<circle cx="1598" cy="552" r="2.2" fill="#fff" opacity="0.58"/>
<circle cx="1075" cy="455" r="1.1" fill="#fff" opacity="0.57"/>
<circle cx="1496" cy="592" r="2.1" fill="#fff" opacity="0.36"/>
<circle cx="990" cy="297" r="1.5" fill="#fff" opacity="0.57"/>
<circle cx="477" cy="853" r="1.4" fill="#fff" opacity="0.42"/>
<circle cx="581" cy="423" r="1.4" fill="#fff" opacity="0.62"/>
<circle cx="1595" cy="542" r="1.6" fill="#fff" opacity="0.40"/>
<circle cx="1247" cy="909" r="0.8" fill="#fff" opacity="0.24"/>
<circle cx="952" cy="916" r="2.3" fill="#fff" opacity="0.40"/>
<circle cx="617" cy="980" r="1.3" fill="#fff" opacity="0.55"/>
<circle cx="1437" cy="786" r="2.3" fill="#fff" opacity="0.46"/>
<circle cx="1536" cy="443" r="1.7" fill="#fff" opacity="0.41"/>
<circle cx="104" cy="85" r="1.9" fill="#fff" opacity="0.44"/>
<circle cx="676" cy="828" r="1.1" fill="#fff" opacity="0.48"/>
<circle cx="952" cy="769" r="1.1" fill="#fff" opacity="0.54"/>
<circle cx="646" cy="373" r="0.9" fill="#fff" opacity="0.45"/>
<circle cx="731" cy="464" r="2.1" fill="#fff" opacity="0.24"/>
<circle cx="84" cy="286" r="1.2" fill="#fff" opacity="0.50"/>
<circle cx="725" cy="896" r="1.1" fill="#fff" opacity="0.35"/>
<circle cx="793" cy="828" r="0.9" fill="#fff" opacity="0.38"/>
<circle cx="1559" cy="9" r="0.9" fill="#fff" opacity="0.38"/>
<circle cx="1040" cy="538" r="0.8" fill="#fff" opacity="0.31"/>
<circle cx="97" cy="433" r="1.2" fill="#fff" opacity="0.48"/>
<circle cx="1079" cy="123" r="1.2" fill="#fff" opacity="0.53"/>
<circle cx="1428" cy="34" r="1.3" fill="#fff" opacity="0.40"/>
<circle cx="287" cy="985" r="0.8" fill="#fff" opacity="0.40"/>
<circle cx="493" cy="238" r="2.2" fill="#fff" opacity="0.20"/>
<circle cx="1393" cy="253" r="2.1" fill="#fff" opacity="0.58"/>
<circle cx="588" cy="229" r="1.2" fill="#fff" opacity="0.32"/>
<circle cx="940" cy="232" r="1.3" fill="#fff" opacity="0.39"/>
  <rect width="1600" height="1000" fill="#000" opacity=".08"/>
</svg>