<svg xmlns="http://www.w3.org/2000/svg" viewBox="0 0 1600 1000" preserveAspectRatio="xMidYMid slice">
  <defs>
    <linearGradient id="g" x1="0" y1="0" x2="1" y2="1">
      <stop offset="0" stop-color="#1b243a"/>
      <stop offset=".58" stop-color="#122f4a"/>
      <stop offset="1" stop-color="#1b243a"/>
    </linearGradient>
    <radialGradient id="warm" cx=".18" cy=".12" r=".62">
      <stop offset="0" stop-color="#dcefff" stop-opacity=".32"/>
      <stop offset="1" stop-color="#dcefff" stop-opacity="0"/>
    </radialGradient>
    <radialGradient id="cool" cx=".86" cy=".24" r=".58">
      <stop offset="0" stop-color="#90e4ff" stop-opacity=".24"/>
      <stop offset="1" stop-color="#90e4ff" stop-opacity="0"/>
    </radialGradient>
  </defs>
  <rect width="1600" height="1000" fill="url(#g)"/>
  <rect width="1600" height="1000" fill="url(#warm)"/>
  <rect width="1600" height="1000" fill="url(#cool)"/>
  <circle cx="1280" cy="820" r="360" fill="#ffffff" opacity=".06"/>
  <circle cx="130" cy="930" r="310" fill="#ffffff" opacity=".05"/>
  <circle cx="1492" cy="362" r="222" fill="#ff8a9c" opacity="0.17"/>
<circle cx="1141" cy="655" r="132" fill="#ff8a9c" opacity="0.13"/>
<circle cx="994" cy="762" r="138" fill="#ff8a9c" opacity="0.21"/>
<circle cx="663" cy="175" r="70" fill="#90e4ff" opacity="0.20"/>
<circle cx="895" cy="-67" r="108" fill="#dcefff" opacity="0.09"/>
<circle cx="590" cy="619" r="223" fill="#ff8a9c" opacity="0.18"/>
<circle cx="206" cy="58" r="175" fill="#dcefff" opacity="0.19"/>
<circle cx="1240" cy="930" r="119" fill="#dcefff" opacity="0.08"/>
<circle cx="1247" cy="922" r="80" fill="#dcefff" opacity="0.14"/>
<circle cx="1412" cy="1013" r="195" fill="#90e4ff" opacity="0.10"/>
<circle cx="1672" cy="-76" r="164" fill="#ff8a9c" opacity="0.21"/>
<circle cx="1570" cy="905" r="217" fill="#dcefff" opacity="0.14"/>
<circle cx="1097" cy="63" r="92" fill="#90e4ff" opacity="0.11"/>
<circle cx="1442" cy="735" r="238" fill="#90e4ff" opacity="0.19"/>
<circle cx="1668" cy="561" r="192" fill="#90e4ff" opacity="0.09"/>
<circle cx="171" cy="232" r="107" fill="#90e4ff" opacity="0.22"/><circle cx="1205" cy="712" r="1.2" fill="#fff" opacity="0.31"/>
<circle cx="205" cy="286" r="2.0" fill="#fff" opacity="0.18"/>
<circle cx="1598" cy="684" r="2.0" fill="#fff" opacity="0.19"/>
<circle cx="1520" cy="102" r="0.9" fill="#fff" opacity="0.34"/>
<circle cx="822" cy="670" r="1.4" fill="#fff" opacity="0.51"/>
<circle cx="246" cy="58" r="1.3" fill="#fff" opacity="0.21"/>
<circle cx="1409" cy="423" r="0.9" fill="#fff" opacity="0.36"/>
<circle cx="920" cy="731" r="2.0" fill="#fff" opacity="0.44"/>
<circle cx="1033" cy="234" r="1.5" fill="#fff" opacity="0.31"/>
<circle cx="1041" cy="662" r="2.0" fill="#fff" opacity="0.60"/>
<circle cx="468" cy="514" r="1.1" fill="#fff" opacity="0.20"/>
<circle cx="481" cy="333" r="1.8" fill="#fff" opacity="0.24"/>
<circle cx="1130" cy="503" r="2.0" fill="#fff" opacity="0.45"/>
<circle cx="162" cy="14" r="2.3" fill="#fff" opacity="0.48"/>
<circle cx="1300" cy="885" r="1.1" fill="#fff" opacity="0.40"/>
<circle cx="1319" cy="688" r="1.3" fill="#fff" opacity="0.59"/>
<circle cx="1175" cy="191" r="1.5" fill="#fff" opacity="0.26"/>
<circle cx="1303" cy="205" r="0.9" fill="#fff" opacity="0.19"/>
<circle cx="705" cy="713" r="2.0" fill="#fff" opacity="0.30"/>
<circle cx="1539" cy="10" r="2.3" fill="#fff" opacity="0.25"/>
<circle cx="1296" cy="649" r="1.7" fill="#fff" opacity="0.38"/>
<circle cx="1528" cy="855" r="2.3" fill="#fff" opacity="0.23"/>
<circle cx="1301" cy="687" r="1.9" fill="#fff" opacity="0.61"/>
<circle cx="827" cy="85" r="1.0" fill="#fff" opacity="0.29"/>
<circle cx="1280" cy="968" r="1.5" fill="#fff" opacity="0.21"/>
<circle cx="862" cy="920" r="2.0" fill="#fff" opacity="0.46"/>
<circle cx="1118" cy="584" r="2.0" fill="#fff" opacity="0.61"/>
<circle cx="1375" cy="919" r="0.7" fill="#fff" opacity="0.53"/>
<circle cx="203" cy="610" r="2.2" fill="#fff" opacity="0.52"/>
<circle cx="231" cy="614" r="1.7" fill="#fff" opacity="0.34"/>
<circle cx="1313" cy="873" r="1.2" fill="#fff" opacity="0.34"/>
<circle cx="942" cy="859" r="1.7" fill="#fff" opacity="0.32"/>
<circle cx="1057" cy="493" r="1.9" fill="#fff" opacity="0.21"/>
<circle cx="1333" cy="988" r="2.0" fill="#fff" opacity="0.52"/>
<circle cx="92" cy="204" r="0.9" fill="#fff" opacity="0.27"/>
<circle cx="13" cy="981" r="1.8" fill="#fff" opacity="0.45"/>
<circle cx="362" cy="494" r="1.3" fill="#fff" opacity="0.29"/>
<circle cx="1309" cy="495" r="2.2" fill="#fff" opacity="0.23"/>
<circle cx="697" cy="385" r="1.7" fill="#fff" opacity="0.46"/>
<circle cx="48" cy="374" r="1.8" fill="#fff" opacity="0.58"/>
<circle cx="565" cy="542" r="1.5" fill="#fff" opacity="0.27"/>
<circle cx="1072" cy="744" r="1.0" fill="#fff" opacity="0.56"/>
<circle cx="525" cy="740" r="1.0" fill="#fff" opacity="0.27"/>
<circle cx="416" cy="388" r="2.0" fill="#fff" opacity="0.31"/>
<circle cx="1369" cy="629" r="1.2" fill="#fff" opacity="0.49"/>
<circle cx="911" cy="754" r="1.0" fill="#fff" opacity="0.53"/>
<circle cx="221" cy="530" r="1.7" fill="#fff" opacity="0.28"/>
<circle cx="1474" cy="61" r="1.9" fill="#fff" opacity="0.38"/>
<circle cx="749" cy="203" r="1.2" fill="#fff" opacity="0.43"/>
<circle cx="185" cy="78" r="2.1" fill="#fff" opacity="0.29"/>
<circle cx="237" cy="212" r="2.2" fill="#fff" opacity="0.59"/>
<circle cx="504" cy="858" r="1.9" fill="#fff" opacity="0.43"/>
<circle cx="134" cy="304" r="1.1" fill="#fff" opacity="0.50"/>
<circle cx="95" cy="695" r="1.9" fill="#fff" opacity="0.42"/>
<circle cx="1329" cy="237" r="1.5" fill="#fff" opacity="0.22"/>
<circle cx="1083" cy="286" r="1.0" fill="#fff" opacity="0.22"/>
<circle cx="1347" cy="83" r="1.4" fill="#fff" opacity="0.42"/>
<circle cx="617" cy="816" r="0.8" fill="#fff" opacity="0.27"/>
<circle cx="34" cy="803" r="2.1" fill="#fff" opacity="0.39"/>
<circle cx="1536" cy="515" r="2.0" fill="#fff" opacity="0.48"/>
<circle cx="312" cy="471" r="1.9" fill="#fff" opacity="0.24"/>
<circle cx="583" cy="675" r="1.8" fill="#fff" opacity="0.45"/>
<circle cx="1039" cy="425" r="1.2" fill="#fff" opacity="0.22"/>
<circle cx="1088" cy="210" r="0.9" fill="#fff" opacity="0.53"/>
<circle cx="280" cy="620" r="1.1" fill="#fff" opacity="0.46"/>
<circle cx="251" cy="678" r="1.1" fill="#fff" opacity="0.21"/>
<circle cx="1417" cy="821" r="2.0" fill="#fff" opacity="0.44"/>
<circle cx="1558" cy="365" r="1.4" fill="#fff" opacity="0.49"/>
<circle cx="1368" cy="277" r="1.7" fill="#fff" opacity="0.25"/>
<circle cx="933" cy="566" r="1.7" fill="#fff" opacity="0.43"/>
<circle cx="966" cy="575" r="2.2" fill="#fff" opacity="0.30"/>
<circle cx="1373" cy="778" r="1.7" fill="#fff" opacity="0.24"/>
<circle cx="208" cy="841" r="1.0" fill="#fff" opacity="0.52"/>
<circle cx="901" cy="187" r="0.9" fill="#fff" opacity="0.38"/>
<circle cx="879" cy="691" r="1.2" fill="#fff" opacity="0.42"/>
<circle cx="329" cy="670" r="1.3" fill="#fff" opacity="0.49"/>
<circle cx="873" cy="794" r="1.9" fill="#fff" opacity="0.40"/>
<circle cx="1283" cy="863" r="2.1" fill="#fff" opacity="0.20"/>
<circle cx="86" cy="346" r="1.2" fill="#fff" opacity="0.45"/>
<circle cx="1563" cy="61" r="1.6" fill="#fff" opacity="0.30"/>
<circle cx="552" cy="147" r="1.5" fill="#fff" opacity="0.37"/>
<circle cx="1438" cy="547" r="0.9" fill="#fff" opacity="0.36"/>
<circle cx="174" cy="815" r="2.4" fill="#fff" opacity="0.48"/>
<circle cx="1202" cy="130" r="1.9" fill="#fff" opacity="0.38"/>
<circle cx="370" cy="618" r="1.4" fill="#fff" opacity="0.40"/>
<circle cx="1058" cy="806" r="1.9" fill="#fff" opacity="0.36"/>
<circle cx="145" cy="586" r="0.8" fill="#fff" opacity="0.47"/>
<circle cx="1354" cy="240" r="0.9" fill="#fff" opacity="0.38"/>
<circle cx="696" cy="826" r="1.8" fill="#fff" opacity="0.54"/>
<circle cx="1226" cy="417" r="0.9" fill="#fff" opacity="0.56"/>
  <rect width="1600" height="1000" fill="#000" opacity=".08"/>
</svg>