<svg xmlns="http://www.w3.org/2000/svg" viewBox="0 0 1600 1000" preserveAspectRatio="xMidYMid slice">
  <defs>
    <linearGradient id="g" x1="0" y1="0" x2="1" y2="1">
      <stop offset="0" stop-color="#2a1320"/>
      <stop offset=".58" stop-color="#4a2938"/>
      <stop offset="1" stop-color="#2a1320"/>
    </linearGradient>
    <radialGradient id="warm" cx=".18" cy=".12" r=".62">
      <stop offset="0" stop-color="#ffd580" stop-opacity=".32"/>
      <stop offset="1" stop-color="#ffd580" stop-opacity="0"/>
    </radialGradient>
    <radialGradient id="cool" cx=".86" cy=".24" r=".58">
      <stop offset="0" stop-color="#96e69b" stop-opacity=".24"/>
      <stop offset="1" stop-color="#96e69b" stop-opacity="0"/>
    </radialGradient>
  </defs>
  <rect width="1600" height="1000" fill="url(#g)"/>
  <rect width="1600" height="1000" fill="url(#warm)"/>
  <rect width="1600" height="1000" fill="url(#cool)"/>
  <circle cx="1280" cy="820" r="360" fill="#ffffff" opacity=".06"/>
  <circle cx="130" cy="930" r="310" fill="#ffffff" opacity=".05"/>
  <circle cx="341" cy="749" r="118" fill="#96e69b" opacity="0.10"/>
<circle cx="498" cy="504" r="216" fill="#f06776" opacity="0.19"/>
<circle cx="479" cy="657" r="129" fill="#ffd580" opacity="0.20"/>
<circle cx="248" cy="476" r="194" fill="#ffd580" opacity="0.09"/>
<circle cx="331" cy="601" r="93" fill="#ffd580" opacity="0.18"/>
<circle cx="368" cy="555" r="189" fill="#ffd580" opacity="0.13"/>
<circle cx="1498" cy="584" r="186" fill="#96e69b" opacity="0.16"/>
<circle cx="1143" cy="458" r="73" fill="#ffd580" opacity="0.11"/>
<circle cx="1575" cy="399" r="104" fill="#f06776" opacity="0.16"/>
<circle cx="1062" cy="14" r="120" fill="#ffd580" opacity="0.21"/>
<circle cx="724" cy="866" r="89" fill="#ffd580" opacity="0.19"/>
<circle cx="242" cy="1084" r="120" fill="#f06776" opacity="0.18"/>
<circle cx="-19" cy="341" r="178" fill="#ffd580" opacity="0.19"/>
<circle cx="895" cy="542" r="119" fill="#f06776" opacity="0.19"/>
<circle cx="1485" cy="436" r="233" fill="#96e69b" opacity="0.09"/>
<circle cx="1544" cy="990" r="215" fill="#96e69b" opacity="0.14"/>
    <pattern id="plaid" width="96" height="96" patternUnits="userSpaceOnUse">
      <rect width="96" height="96" fill="transparent"/>
      <path d="M0 24H96 M0 72H96 M24 0V96 M72 0V96" stroke="#ffd580" stroke-width="2" opacity=".18"/>
      <path d="M0 48H96 M48 0V96" stroke="#96e69b" stroke-width="8" opacity=".06"/>
    </pattern>
    <rect width="1600" height="1000" fill="url(#plaid)" opacity=".9"/><circle cx="373" cy="544" r="1.8" fill="#fff" opacity="0.35"/>
<circle cx="128" cy="323" r="0.9" fill="#fff" opacity="0.47"/>
<circle cx="814" cy="944" r="2.0" fill="#fff" opacity="0.36"/>
<circle cx="1411" cy="899" r="1.4" fill="#fff" opacity="0.54"/>
<circle cx="751" cy="556" r="2.3" fill="#fff" opacity="0.20"/>
<circle cx="626" cy="99" r="1.7" fill="#fff" opacity="0.47"/>
<circle cx="1176" cy="343" r="2.2" fill="#fff" opacity="0.58"/>
<circle cx="761" cy="618" r="1.5" fill="#fff" opacity="0.50"/>
<circle cx="1091" cy="751" r="0.9" fill="#fff" opacity="0.28"/>
<circle cx="189" cy="139" r="1.2" fill="#fff" opacity="0.24"/>
<circle cx="854" cy="291" r="0.9" fill="#fff" opacity="0.32"/>
<circle cx="356" cy="479" r="2.3" fill="#fff" opacity="0.27"/>
<circle cx="1219" cy="145" r="0.8" fill="#fff" opacity="0.19"/>
<circle cx="1322" cy="151" r="1.1" fill="#fff" opacity="0.32"/>
<circle cx="436" cy="432" r="1.6" fill="#fff" opacity="0.31"/>
<circle cx="196" cy="733" r="1.2" fill="#fff" opacity="0.38"/>
<circle cx="311" cy="46" r="1.8" fill="#fff" opacity="0.39"/>
<circle cx="1118" cy="597" r="1.4" fill="#fff" opacity="0.52"/>
<circle cx="1165" cy="836" r="1.2" fill="#fff" opacity="0.36"/>
<circle cx="1294" cy="443" r="1.4" fill="#fff" opacity="0.56"/>
<circle cx="859" cy="987" r="1.7" fill="#fff" opacity="0.46"/>
<circle cx="1066" cy="335" r="1.9" fill="#fff" opacity="0.46"/>
<circle cx="916" cy="354" r="1.7" fill="#fff" opacity="0.44"/>
<circle cx="1577" cy="461" r="1.9" fill="#fff" opacity="0.45"/>
<circle cx="1573" cy="364" r="2.3" fill="#fff" opacity="0.45"/>
<circle cx="243" cy="986" r="0.9" fill="#fff" opacity="0.61"/>
<circle cx="1563" cy="687" r="2.1" fill="#fff" opacity="0.58"/>
<circle cx="1178" cy="819" r="0.7" fill="#fff" opacity="0.43"/>
<circle cx="1533" cy="334" r="2.1" fill="#fff" opacity="0.25"/>
<circle cx="1168" cy="970" r="0.9" fill="#fff" opacity="0.28"/>
<circle cx="228" cy="822" r="1.8" fill="#fff" opacity="0.27"/>
<circle cx="434" cy="367" r="2.1" fill="#fff" opacity="0.43"/>
<circle cx="1348" cy="722" r="1.4" fill="#fff" opacity="0.45"/>
<circle cx="111" cy="79" r="2.3" fill="#fff" opacity="0.31"/>
<circle cx="322" cy="670" r="0.8" fill="#fff" opacity="0.29"/>
<circle cx="1022" cy="419" r="2.2" fill="#fff" opacity="0.48"/>
<circle cx="293" cy="742" r="2.0" fill="#fff" opacity="0.24"/>
<circle cx="510" cy="961" r="1.2" fill="#fff" opacity="0.48"/>
<circle cx="510" cy="178" r="0.8" fill="#fff" opacity="0.51"/>
<circle cx="1326" cy="913" r="2.1" fill="#fff" opacity="0.56"/>
<circle cx="271" cy="884" r="1.2" fill="#fff" opacity="0.28"/>
<circle cx="1424" cy="231" r="1.6" fill="#fff" opacity="0.25"/>
<circle cx="299" cy="832" r="2.0" fill="#fff" opacity="0.31"/>
<circle cx="1430" cy="127" r="1.3" fill="#fff" opacity="0.34"/>
<circle cx="1233" cy="650" r="1.5" fill="#fff" opacity="0.18"/>
<circle cx="569" cy="923" r="0.8" fill="#fff" opacity="0.43"/>
<circle cx="558" cy="221" r="2.0" fill="#fff" opacity="0.20"/>
<circle cx="1411" cy="620" r="0.8" fill="#fff" opacity="0.59"/>
<circle cx="1050" cy="392" r="1.3" fill="#fff" opacity="0.35"/>
<circle cx="784" cy="204" r="1.5" fill="#fff" opacity="0.31"/>
<circle cx="93" cy="940" r="1.4" fill="#fff" opacity="0.40"/>
<circle cx="1277" cy="44" r="1.4" fill="#fff" opacity="0.42"/>
<circle cx="388" cy="934" r="2.4" fill="#fff" opacity="0.25"/>
<circle cx="863" cy="968" r="2.3" fill="#fff" opacity="0.25"/>
<circle cx="834" cy="254" r="1.1" fill="#fff" opacity="0.36"/>
<circle cx="359" cy="170" r="0.7" fill="#fff" opacity="0.46"/>
<circle cx="1264" cy="214" r="0.8" fill="#fff" opacity="0.41"/>
<circle cx="581" cy="297" r="0.7" fill="#fff" opacity="0.55"/>
<circle cx="747" cy="275" r="1.8" fill="#fff" opacity="0.42"/>
<circle cx="1039" cy="276" r="2.4" fill="#fff" opacity="0.24"/>
<circle cx="227" cy="80" r="0.8" fill="#fff" opacity="0.28"/>
<circle cx="1372" cy="634" r="1.5" fill="#fff" opacity="0.36"/>
<circle cx="14" cy="789" r="1.5" fill="#fff" opacity="0.56"/>
<circle cx="609" cy="584" r="1.1" fill="#fff" opacity="0.20"/>
<circle cx="1354" cy="761" r="2.0" fill="#fff" opacity="0.20"/>
<circle cx="300" cy="207" r="0.8" fill="#fff" opacity="0.44"/>
<circle cx="166" cy="984" r="2.0" fill="#fff" opacity="0.56"/>
<circle cx="262" cy="247" r="1.6" fill="#fff" opacity="0.59"/>
<circle cx="86" cy="92" r="1.2" fill="#fff" opacity="0.38"/>
<circle cx="471" cy="247" r="1.1" fill="#fff" opacity="0.61"/>
<circle cx="902" cy="698" r="1.1" fill="#fff" opacity="0.28"/>
<circle cx="205" cy="717" r="1.6" fill="#fff" opacity="0.35"/>
<circle cx="585" cy="139" r="0.8" fill="#fff" opacity="0.57"/>
<circle cx="1099" cy="123" r="2.4" fill="#fff" opacity="0.28"/>
<circle cx="1436" cy="563" r="0.9" fill="#fff" opacity="0.23"/>
<circle cx="1050" cy="948" r="1.1" fill="#fff" opacity="0.59"/>
<circle cx="576" cy="951" r="1.2" fill="#fff" opacity="0.24"/>
<circle cx="745" cy="839" r="1.1" fill="#fff" opacity="0.27"/>
<circle cx="808" cy="807" r="2.1" fill="#fff" opacity="0.24"/>
<circle cx="142" cy="481" r="1.9" fill="#fff" opacity="0.61"/>
<circle cx="733" cy="160" r="1.3" fill="#fff" opacity="0.56"/>
<circle cx="981" cy="139" r="1.1" fill="#fff" opacity="0.33"/>
<circle cx="44" cy="889" r="2.3" fill="#fff" opacity="0.20"/>
<circle cx="1459" cy="433" r="1.2" fill="#fff" opacity="0.20"/>
<circle cx="200" cy="58" r="1.3" fill="#fff" opacity="0.36"/>
<circle cx="276" cy="460" r="1.9" fill="#fff" opacity="0.42"/>
<circle cx="792" cy="330" r="1.6" fill="#fff" opacity="0.31"/>
<circle cx="859" cy="343" r="1.8" fill="#fff" opacity="0.59"/>
<circle cx="815" cy="435" r="1.6" fill="#fff" opacity="0.51"/>
<circle cx="626" cy="284" r="1.8" fill="#fff" opacity="0.37"/>
<circle cx="1599" cy="494" r="1.7" fill="#fff" opacity="0.34"/>
<circle cx="248" cy="651" r="2.0" fill="#fff" opacity="0.30"/>
<circle cx="1143" cy="704" r="1.4" fill="#fff" opacity="0.26"/>
<circle cx="1297" cy="847" r="2.1" fill="#fff" opacity="0.48"/>
<circle cx="1457" cy="464" r="1.8" fill="#fff" opacity="0.38"/>
<circle cx="262" cy="510" r="1.7" fill="#fff" opacity="0.40"/>
<circle cx="1433" cy="56" r="2.4" fill="#fff" opacity="0.35"/>
<circle cx="1137" cy="611" r="2.0" fill="#fff" opacity="0.26"/>
<circle cx="542" cy="583" r="1.9" fill="#fff" opacity="0.22"/>
<circle cx="589" cy="316" r="2.2" fill="#fff" opacity="0.36"/>
<circle cx="919" cy="137" r="1.9" fill="#fff" opacity="0.59"/>
<circle cx="76" cy="230" r="0.8" fill="#fff" opacity="0.51"/>
<circle cx="1208" cy="754" r="1.8" fill="#fff" opacity="0.53"/>
<circle cx="1453" cy="161" r="2.1" fill="#fff" opacity="0.57"/>
<circle cx="924" cy="607" r="2.4" fill="#fff" opacity="0.53"/>
<circle cx="1189" cy="329" r="1.4" fill="#fff" opacity="0.40"/>
<circle cx="1179" cy="428" r="2.1" fill="#fff" opacity="0.29"/>
<circle cx="1377" cy="317" r="1.6" fill="#fff" opacity="0.23"/>
<circle cx="1347" cy="402" r="1.5" fill="#fff" opacity="0.24"/>
<circle cx="1262" cy="48" r="1.4" fill="#fff" opacity="0.19"/>
  <rect width="1600" height="1000" fill="#000" opacity=".08"/>
</svg>