<svg xmlns="http://www.w3.org/2000/svg" viewBox="0 0 1600 1000" preserveAspectRatio="xMidYMid slice">
  <defs>
    <linearGradient id="g" x1="0" y1="0" x2="1" y2="1">
      <stop offset="0" stop-color="#16331f"/>
      <stop offset=".58" stop-color="#364d2c"/>
      <stop offset="1" stop-color="#16331f"/>
    </linearGradient>
    <radialGradient id="warm" cx=".18" cy=".12" r=".62">
      <stop offset="0" stop-color="#fff0b3" stop-opacity=".32"/>
      <stop offset="1" stop-color="#fff0b3" stop-opacity="0"/>
    </radialGradient>
    <radialGradient id="cool" cx=".86" cy=".24" r=".58">
      <stop offset="0" stop-color="#70d494" stop-opacity=".24"/>
      <stop offset="1" stop-color="#70d494" stop-opacity="0"/>
    </radialGradient>
  </defs>
  <rect width="1600" height="1000" fill="url(#g)"/>
  <rect width="1600" height="1000" fill="url(#warm)"/>
  <rect width="1600" height="1000" fill="url(#cool)"/>
  <circle cx="1280" cy="820" r="360" fill="#ffffff" opacity=".06"/>
  <circle cx="130" cy="930" r="310" fill="#ffffff" opacity=".05"/>
  <circle cx="1323" cy="16" r="227" fill="#70d494" opacity="0.15"/>
<circle cx="1069" cy="617" r="227" fill="#e85d67" opacity="0.18"/>
<circle cx="622" cy="776" r="122" fill="#70d494" opacity="0.22"/>
<circle cx="747" cy="367" r="160" fill="#fff0b3" opacity="0.08"/>
<circle cx="1228" cy="453" r="145" fill="#70d494" opacity="0.16"/>
<circle cx="318" cy="309" r="146" fill="#70d494" opacity="0.17"/>
<circle cx="1490" cy="293" r="236" fill="#70d494" opacity="0.17"/>
<circle cx="945" cy="607" r="232" fill="#70d494" opacity="0.11"/>
<circle cx="1170" cy="217" r="90" fill="#fff0b3" opacity="0.21"/>
<circle cx="286" cy="1011" r="105" fill="#70d494" opacity="0.19"/>
<circle cx="24" cy="942" r="88" fill="#e85d67" opacity="0.09"/>
<circle cx="419" cy="404" r="185" fill="#70d494" opacity="0.12"/>
<circle cx="117" cy="1073" r="116" fill="#e85d67" opacity="0.19"/>
<circle cx="433" cy="-24" r="212" fill="#e85d67" opacity="0.18"/>
<circle cx="865" cy="715" r="109" fill="#fff0b3" opacity="0.19"/>
<circle cx="615" cy="865" r="150" fill="#70d494" opacity="0.22"/><path d="M-98 1071 L-28 879 L42 1071 Z" fill="#071f18" opacity="0.34"/>
<path d="M-78 991 L-28 839 L22 991 Z" fill="#071f18" opacity="0.39"/>
<path d="M74 993 L144 667 L214 993 Z" fill="#071f18" opacity="0.45"/>
<path d="M94 913 L144 627 L194 913 Z" fill="#071f18" opacity="0.50"/>
<path d="M275 1068 L345 865 L415 1068 Z" fill="#071f18" opacity="0.27"/>
<path d="M295 988 L345 825 L395 988 Z" fill="#071f18" opacity="0.32"/>
<path d="M445 1049 L515 786 L585 1049 Z" fill="#071f18" opacity="0.25"/>
<path d="M465 969 L515 746 L565 969 Z" fill="#071f18" opacity="0.30"/>
<path d="M659 1024 L729 797 L799 1024 Z" fill="#071f18" opacity="0.28"/>
<path d="M679 944 L729 757 L779 944 Z" fill="#071f18" opacity="0.33"/>
<path d="M824 975 L894 714 L964 975 Z" fill="#071f18" opacity="0.43"/>
<path d="M844 895 L894 674 L944 895 Z" fill="#071f18" opacity="0.48"/>
<path d="M1055 1079 L1125 815 L1195 1079 Z" fill="#071f18" opacity="0.41"/>
<path d="M1075 999 L1125 775 L1175 999 Z" fill="#071f18" opacity="0.46"/>
<path d="M1240 984 L1310 656 L1380 984 Z" fill="#071f18" opacity="0.42"/>
<path d="M1260 904 L1310 616 L1360 904 Z" fill="#071f18" opacity="0.47"/>
<path d="M1427 993 L1497 811 L1567 993 Z" fill="#071f18" opacity="0.42"/>
<path d="M1447 913 L1497 771 L1547 913 Z" fill="#071f18" opacity="0.47"/>
<path d="M1609 1053 L1679 870 L1749 1053 Z" fill="#071f18" opacity="0.30"/>
<path d="M1629 973 L1679 830 L1729 973 Z" fill="#071f18" opacity="0.35"/><circle cx="496" cy="13" r="1.9" fill="#fff" opacity="0.25"/>
<circle cx="1452" cy="501" r="2.0" fill="#fff" opacity="0.29"/>
<circle cx="559" cy="498" r="1.3" fill="#fff" opacity="0.21"/>
<circle cx="1354" cy="84" r="0.8" fill="#fff" opacity="0.46"/>
<circle cx="1460" cy="72" r="2.0" fill="#fff" opacity="0.21"/>
<circle cx="1193" cy="172" r="0.8" fill="#fff" opacity="0.51"/>
<circle cx="554" cy="970" r="2.1" fill="#fff" opacity="0.58"/>
<circle cx="486" cy="382" r="2.0" fill="#fff" opacity="0.37"/>
<circle cx="1108" cy="296" r="1.8" fill="#fff" opacity="0.45"/>
<circle cx="129" cy="215" r="1.4" fill="#fff" opacity="0.27"/>
<circle cx="119" cy="266" r="2.0" fill="#fff" opacity="0.36"/>
<circle cx="964" cy="869" r="2.0" fill="#fff" opacity="0.19"/>
<circle cx="1396" cy="782" r="1.7" fill="#fff" opacity="0.44"/>
<circle cx="1543" cy="653" r="0.8" fill="#fff" opacity="0.61"/>
<circle cx="1175" cy="829" r="2.1" fill="#fff" opacity="0.60"/>
<circle cx="1086" cy="111" r="2.3" fill="#fff" opacity="0.48"/>
<circle cx="222" cy="397" r="1.5" fill="#fff" opacity="0.42"/>
<circle cx="299" cy="409" r="2.4" fill="#fff" opacity="0.46"/>
<circle cx="1138" cy="430" r="1.2" fill="#fff" opacity="0.59"/>
<circle cx="1574" cy="448" r="2.2" fill="#fff" opacity="0.22"/>
<circle cx="660" cy="473" r="0.8" fill="#fff" opacity="0.36"/>
<circle cx="1492" cy="16" r="1.0" fill="#fff" opacity="0.47"/>
<circle cx="314" cy="511" r="1.0" fill="#fff" opacity="0.38"/>
<circle cx="1074" cy="566" r="1.2" fill="#fff" opacity="0.38"/>
<circle cx="209" cy="666" r="1.2" fill="#fff" opacity="0.58"/>
<circle cx="535" cy="482" r="2.0" fill="#fff" opacity="0.29"/>
<circle cx="329" cy="438" r="1.8" fill="#fff" opacity="0.57"/>
<circle cx="1317" cy="48" r="1.6" fill="#fff" opacity="0.38"/>
<circle cx="829" cy="607" r="0.8" fill="#fff" opacity="0.29"/>
<circle cx="347" cy="75" r="1.1" fill="#fff" opacity="0.20"/>
<circle cx="4" cy="775" r="2.2" fill="#fff" opacity="0.28"/>
<circle cx="578" cy="781" r="1.3" fill="#fff" opacity="0.44"/>
<circle cx="953" cy="193" r="2.4" fill="#fff" opacity="0.51"/>
<circle cx="686" cy="315" r="1.9" fill="#fff" opacity="0.36"/>
<circle cx="543" cy="437" r="1.0" fill="#fff" opacity="0.58"/>
<circle cx="403" cy="59" r="1.7" fill="#fff" opacity="0.54"/>
<circle cx="890" cy="306" r="1.3" fill="#fff" opacity="0.19"/>
<circle cx="887" cy="310" r="1.0" fill="#fff" opacity="0.19"/>
<circle cx="928" cy="544" r="2.3" fill="#fff" opacity="0.38"/>
<circle cx="1596" cy="973" r="1.9" fill="#fff" opacity="0.29"/>
<circle cx="797" cy="574" r="2.2" fill="#fff" opacity="0.45"/>
<circle cx="93" cy="230" r="1.2" fill="#fff" opacity="0.58"/>
<circle cx="694" cy="146" r="1.3" fill="#fff" opacity="0.48"/>
<circle cx="1333" cy="344" r="2.1" fill="#fff" opacity="0.40"/>
<circle cx="112" cy="962" r="2.1" fill="#fff" opacity="0.54"/>
<circle cx="476" cy="256" r="1.6" fill="#fff" opacity="0.21"/>
<circle cx="47" cy="168" r="1.6" fill="#fff" opacity="0.57"/>
<circle cx="1586" cy="403" r="1.0" fill="#fff" opacity="0.33"/>
<circle cx="1338" cy="541" r="2.1" fill="#fff" opacity="0.51"/>
<circle cx="456" cy="754" r="1.9" fill="#fff" opacity="0.19"/>
<circle cx="1294" cy="733" r="1.1" fill="#fff" opacity="0.20"/>
<circle cx="144" cy="961" r="2.3" fill="#fff" opacity="0.50"/>
<circle cx="670" cy="161" r="2.1" fill="#fff" opacity="0.49"/>
<circle cx="806" cy="178" r="1.3" fill="#fff" opacity="0.46"/>
<circle cx="1477" cy="616" r="1.9" fill="#fff" opacity="0.51"/>
<circle cx="192" cy="814" r="1.9" fill="#fff" opacity="0.48"/>
<circle cx="605" cy="372" r="2.1" fill="#fff" opacity="0.20"/>
<circle cx="229" cy="920" r="1.9" fill="#fff" opacity="0.61"/>
<circle cx="1592" cy="874" r="2.0" fill="#fff" opacity="0.61"/>
<circle cx="1194" cy="914" r="2.0" fill="#fff" opacity="0.52"/>
<circle cx="1125" cy="693" r="1.6" fill="#fff" opacity="0.55"/>
<circle cx="92" cy="750" r="0.9" fill="#fff" opacity="0.55"/>
<circle cx="243" cy="982" r="1.0" fill="#fff" opacity="0.58"/>
<circle cx="44" cy="878" r="2.1" fill="#fff" opacity="0.19"/>
<circle cx="1287" cy="562" r="1.7" fill="#fff" opacity="0.54"/>
<circle cx="314" cy="631" r="2.4" fill="#fff" opacity="0.61"/>
<circle cx="1209" cy="599" r="1.4" fill="#fff" opacity="0.32"/>
<circle cx="674" cy="201" r="2.2" fill="#fff" opacity="0.40"/>
<circle cx="903" cy="1" r="1.4" fill="#fff" opacity="0.22"/>
<circle cx="661" cy="235" r="2.1" fill="#fff" opacity="0.23"/>
<circle cx="1047" cy="160" r="2.3" fill="#fff" opacity="0.24"/>
<circle cx="801" cy="849" r="2.0" fill="#fff" opacity="0.50"/>
<circle cx="303" cy="137" r="1.1" fill="#fff" opacity="0.33"/>
<circle cx="1056" cy="203" r="1.0" fill="#fff" opacity="0.19"/>
<circle cx="554" cy="675" r="0.8" fill="#fff" opacity="0.47"/>
<circle cx="955" cy="904" r="0.8" fill="#fff" opacity="0.60"/>
<circle cx="1050" cy="526" r="1.1" fill="#fff" opacity="0.48"/>
<circle cx="366" cy="391" r="2.3" fill="#fff" opacity="0.56"/>
<circle cx="652" cy="502" r="1.3" fill="#fff" opacity="0.31"/>
<circle cx="331" cy="370" r="2.0" fill="#fff" opacity="0.19"/>
<circle cx="327" cy="219" r="2.1" fill="#fff" opacity="0.45"/>
<circle cx="711" cy="41" r="1.0" fill="#fff" opacity="0.46"/>
<circle cx="92" cy="910" r="1.7" fill="#fff" opacity="0.37"/>
<circle cx="218" cy="133" r="1.6" fill="#fff" opacity="0.20"/>
<circle cx="505" cy="370" r="1.9" fill="#fff" opacity="0.34"/>
<circle cx="571" cy="617" r="1.5" fill="#fff" opacity="0.51"/>
<circle cx="661" cy="713" r="2.0" fill="#fff" opacity="0.32"/>
<circle cx="1341" cy="515" r="0.8" fill="#fff" opacity="0.40"/>
<circle cx="960" cy="455" r="0.7" fill="#fff" opacity="0.59"/>
<circle cx="1415" cy="209" r="2.3" fill="#fff" opacity="0.40"/>
<circle cx="217" cy="810" r="2.1" fill="#fff" opacity="0.30"/>
<circle cx="847" cy="985" r="1.2" fill="#fff" opacity="0.49"/>
<circle cx="222" cy="251" r="2.2" fill="#fff" opacity="0.31"/>
<circle cx="480" cy="414" r="1.7" fill="#fff" opacity="0.54"/>
<circle cx="624" cy="16" r="2.2" fill="#fff" opacity="0.47"/>
<circle cx="232" cy="543" r="1.4" fill="#fff" opacity="0.57"/>
<circle cx="597" cy="42" r="1.3" fill="#fff" opacity="0.53"/>
<circle cx="811" cy="990" r="1.3" fill="#fff" opacity="0.56"/>
<circle cx="150" cy="116" r="1.7" fill="#fff" opacity="0.38"/>
<circle cx="450" cy="290" r="0.9" fill="#fff" opacity="0.23"/>
<circle cx="1597" cy="168" r="0.9" fill="#fff" opacity="0.52"/>
<circle cx="500" cy="621" r="2.4" fill="#fff" opacity="0.52"/>
<circle cx="39" cy="451" r="2.3" fill="#fff" opacity="0.20"/>
<circle cx="43" cy="68" r="1.5" fill="#fff" opacity="0.27"/>
<circle cx="160" cy="614" r="1.3" fill="#fff" opacity="0.52"/>
<circle cx="1447" cy="831" r="2.0" fill="#fff" opacity="0.48"/>
<circle cx="918" cy="954" r="1.8" fill="#fff" opacity="0.33"/>
<circle cx="1085" cy="950" r="1.2" fill="#fff" opacity="0.38"/>
<circle cx="1457" cy="113" r="1.8" fill="#fff" opacity="0.47"/>
<circle cx="35" cy="208" r="1.1" fill="#fff" opacity="0.18"/>
<circle cx="1059" cy="205" r="1.4" fill="#fff" opacity="0.56"/>
<circle cx="500" cy="587" r="1.2" fill="#fff" opacity="0.54"/>
<circle cx="257" cy="542" r="0.9" fill="#fff" opacity="0.61"/>
<circle cx="191" cy="368" r="1.5" fill="#fff" opacity="0.47"/>
<circle cx="669" cy="887" r="2.2" fill="#fff" opacity="0.24"/>
<circle cx="70" cy="452" r="1.3" fill="#fff" opacity="0.32"/>
<circle cx="154" cy="717" r="1.1" fill="#fff" opacity="0.39"/>
<circle cx="328" cy="159" r="2.1" fill="#fff" opacity="0.42"/>
<circle cx="136" cy="898" r="1.0" fill="#fff" opacity="0.36"/>
<circle cx="669" cy="373" r="1.4" fill="#fff" opacity="0.29"/>
<circle cx="1277" cy="451" r="1.4" fill="#fff" opacity="0.27"/>
<circle cx="967" cy="763" r="1.6" fill="#fff" opacity="0.40"/>
<circle cx="502" cy="89" r="1.3" fill="#fff" opacity="0.44"/>
<circle cx="1182" cy="185" r="1.2" fill="#fff" opacity="0.38"/>
<circle cx="662" cy="380" r="2.1" fill="#fff" opacity="0.22"/>
<circle cx="1127" cy="995" r="1.0" fill="#fff" opacity="0.42"/>
<circle cx="728" cy="546" r="2.3" fill="#fff" opacity="0.50"/>
<circle cx="125" cy="884" r="1.3" fill="#fff" opacity="0.19"/>
<circle cx="123" cy="470" r="1.5" fill="#fff" opacity="0.45"/>
<circle cx="1225" cy="8" r="1.2" fill="#fff" opacity="0.38"/>
  <rect width="1600" height="1000" fill="#000" opacity=".08"/>
</svg>