<svg xmlns="http://www.w3.org/2000/svg" viewBox="0 0 1600 1000" preserveAspectRatio="xMidYMid slice">
  <defs>
    <linearGradient id="g" x1="0" y1="0" x2="1" y2="1">
      <stop offset="0" stop-color="#25323b"/>
      <stop offset=".58" stop-color="#315060"/>
      <stop offset="1" stop-color="#25323b"/>
    </linearGradient>
    <radialGradient id="warm" cx=".18" cy=".12" r=".62">
      <stop offset="0" stop-color="#e8f7ff" stop-opacity=".32"/>
      <stop offset="1" stop-color="#e8f7ff" stop-opacity="0"/>
    </radialGradient>
    <radialGradient id="cool" cx=".86" cy=".24" r=".58">
      <stop offset="0" stop-color="#ffd377" stop-opacity=".24"/>
      <stop offset="1" stop-color="#ffd377" stop-opacity="0"/>
    </radialGradient>
  </defs>
  <rect width="1600" height="1000" fill="url(#g)"/>
  <rect width="1600" height="1000" fill="url(#warm)"/>
  <rect width="1600" height="1000" fill="url(#cool)"/>
  <circle cx="1280" cy="820" r="360" fill="#ffffff" opacity=".06"/>
  <circle cx="130" cy="930" r="310" fill="#ffffff" opacity=".05"/>
  <circle cx="-81" cy="676" r="198" fill="#82e3ad" opacity="0.21"/>
<circle cx="39" cy="169" r="177" fill="#82e3ad" opacity="0.10"/>
<circle cx="990" cy="-92" r="135" fill="#82e3ad" opacity="0.12"/>
<circle cx="-54" cy="486" r="134" fill="#e8f7ff" opacity="0.19"/>
<circle cx="813" cy="335" r="236" fill="#e8f7ff" opacity="0.21"/>
<circle cx="1433" cy="1031" r="116" fill="#82e3ad" opacity="0.17"/>
<circle cx="1602" cy="68" r="183" fill="#e8f7ff" opacity="0.09"/>
<circle cx="853" cy="566" r="225" fill="#ffd377" opacity="0.21"/>
<circle cx="1525" cy="1008" r="91" fill="#ffd377" opacity="0.10"/>
<circle cx="-23" cy="997" r="131" fill="#82e3ad" opacity="0.13"/>
<circle cx="1106" cy="-38" r="168" fill="#ffd377" opacity="0.21"/>
<circle cx="914" cy="140" r="187" fill="#82e3ad" opacity="0.13"/>
<circle cx="531" cy="1013" r="76" fill="#ffd377" opacity="0.11"/>
<circle cx="-48" cy="800" r="77" fill="#e8f7ff" opacity="0.14"/>
<circle cx="1337" cy="970" r="101" fill="#e8f7ff" opacity="0.22"/>
<circle cx="1546" cy="1055" r="165" fill="#ffd377" opacity="0.09"/>
    <pattern id="plaid" width="96" height="96" patternUnits="userSpaceOnUse">
      <rect width="96" height="96" fill="transparent"/>
      <path d="M0 24H96 M0 72H96 M24 0V96 M72 0V96" stroke="#e8f7ff" stroke-width="2" opacity=".18"/>
      <path d="M0 48H96 M48 0V96" stroke="#ffd377" stroke-width="8" opacity=".06"/>
    </pattern>
    <rect width="1600" height="1000" fill="url(#plaid)" opacity=".9"/><path d="M0 120 C280 30, 520 180, 800 90 S1300 40, 1600 120" fill="none" stroke="#fff" stroke-width="2" opacity=".22"/>
<ellipse cx="46" cy="114.0" rx="12" ry="18" fill="#ffd377" opacity=".82"/>
<circle cx="46" cy="114.0" r="38" fill="#ffd377" opacity=".10"/>
<ellipse cx="127" cy="141.1074631814833" rx="12" ry="18" fill="#82e3ad" opacity=".82"/>
<circle cx="127" cy="141.1074631814833" r="38" fill="#82e3ad" opacity=".10"/>
<ellipse cx="212" cy="150.98507610645268" rx="12" ry="18" fill="#ffd377" opacity=".82"/>
<circle cx="212" cy="150.98507610645268" r="38" fill="#ffd377" opacity=".10"/>
<ellipse cx="313" cy="140.64121131929028" rx="12" ry="18" fill="#82e3ad" opacity=".82"/>
<circle cx="313" cy="140.64121131929028" r="38" fill="#82e3ad" opacity=".10"/>
<ellipse cx="403" cy="111.9569049800347" rx="12" ry="18" fill="#ffd377" opacity=".82"/>
<circle cx="403" cy="111.9569049800347" r="38" fill="#ffd377" opacity=".10"/>
<ellipse cx="497" cy="89.5119126642225" rx="12" ry="18" fill="#ffd377" opacity=".82"/>
<circle cx="497" cy="89.5119126642225" r="38" fill="#ffd377" opacity=".10"/>
<ellipse cx="581" cy="82.13423869074558" rx="12" ry="18" fill="#e8f7ff" opacity=".82"/>
<circle cx="581" cy="82.13423869074558" r="38" fill="#e8f7ff" opacity=".10"/>
<ellipse cx="676" cy="82.90566767446877" rx="12" ry="18" fill="#82e3ad" opacity=".82"/>
<circle cx="676" cy="82.90566767446877" r="38" fill="#82e3ad" opacity=".10"/>
<ellipse cx="758" cy="120.07922216976728" rx="12" ry="18" fill="#ffd377" opacity=".82"/>
<circle cx="758" cy="120.07922216976728" r="38" fill="#ffd377" opacity=".10"/>
<ellipse cx="839" cy="132.77837523472036" rx="12" ry="18" fill="#82e3ad" opacity=".82"/>
<circle cx="839" cy="132.77837523472036" r="38" fill="#82e3ad" opacity=".10"/>
<ellipse cx="935" cy="143.62753863181837" rx="12" ry="18" fill="#e8f7ff" opacity=".82"/>
<circle cx="935" cy="143.62753863181837" r="38" fill="#e8f7ff" opacity=".10"/>
<ellipse cx="1022" cy="137.47210175121165" rx="12" ry="18" fill="#e8f7ff" opacity=".82"/>
<circle cx="1022" cy="137.47210175121165" r="38" fill="#e8f7ff" opacity=".10"/>
<ellipse cx="1121" cy="102.89856265719565" rx="12" ry="18" fill="#e8f7ff" opacity=".82"/>
<circle cx="1121" cy="102.89856265719565" r="38" fill="#e8f7ff" opacity=".10"/>
<ellipse cx="1209" cy="86.02607358200211" rx="12" ry="18" fill="#ffd377" opacity=".82"/>
<circle cx="1209" cy="86.02607358200211" r="38" fill="#ffd377" opacity=".10"/>
<ellipse cx="1296" cy="72.72877947970392" rx="12" ry="18" fill="#e8f7ff" opacity=".82"/>
<circle cx="1296" cy="72.72877947970392" r="38" fill="#e8f7ff" opacity=".10"/>
<ellipse cx="1387" cy="96.21994786998478" rx="12" ry="18" fill="#82e3ad" opacity=".82"/>
<circle cx="1387" cy="96.21994786998478" r="38" fill="#82e3ad" opacity=".10"/>
<ellipse cx="1481" cy="121.10284387855387" rx="12" ry="18" fill="#e8f7ff" opacity=".82"/>
<circle cx="1481" cy="121.10284387855387" r="38" fill="#e8f7ff" opacity=".10"/>
<ellipse cx="1559" cy="141.0706635199774" rx="12" ry="18" fill="#ffd377" opacity=".82"/>
<circle cx="1559" cy="141.0706635199774" r="38" fill="#ffd377" opacity=".10"/><path d="M-100 756 C300 596, 600 936, 1000 756 S1400 606, 1700 796" fill="none" stroke="#ffd377" stroke-width="34" opacity="0.12"/>
<path d="M-100 114 C300 -46, 600 294, 1000 114 S1400 -36, 1700 154" fill="none" stroke="#ffd377" stroke-width="34" opacity="0.15"/>
<path d="M-100 170 C300 10, 600 350, 1000 170 S1400 20, 1700 210" fill="none" stroke="#82e3ad" stroke-width="34" opacity="0.16"/>
<path d="M-100 129 C300 -31, 600 309, 1000 129 S1400 -21, 1700 169" fill="none" stroke="#ffd377" stroke-width="34" opacity="0.10"/>
<path d="M-100 479 C300 319, 600 659, 1000 479 S1400 329, 1700 519" fill="none" stroke="#e8f7ff" stroke-width="34" opacity="0.10"/>
<path d="M-100 830 C300 670, 600 1010, 1000 830 S1400 680, 1700 870" fill="none" stroke="#ffd377" stroke-width="34" opacity="0.09"/><circle cx="1440" cy="936" r="1.9" fill="#fff" opacity="0.22"/>
<circle cx="1049" cy="422" r="1.4" fill="#fff" opacity="0.47"/>
<circle cx="888" cy="448" r="1.2" fill="#fff" opacity="0.61"/>
<circle cx="520" cy="318" r="2.2" fill="#fff" opacity="0.52"/>
<circle cx="265" cy="879" r="1.5" fill="#fff" opacity="0.27"/>
<circle cx="346" cy="793" r="0.9" fill="#fff" opacity="0.46"/>
<circle cx="340" cy="366" r="1.0" fill="#fff" opacity="0.31"/>
<circle cx="547" cy="381" r="1.9" fill="#fff" opacity="0.37"/>
<circle cx="1469" cy="916" r="1.6" fill="#fff" opacity="0.55"/>
<circle cx="1237" cy="481" r="1.8" fill="#fff" opacity="0.22"/>
<circle cx="1458" cy="326" r="0.7" fill="#fff" opacity="0.31"/>
<circle cx="724" cy="822" r="2.2" fill="#fff" opacity="0.20"/>
<circle cx="94" cy="429" r="2.0" fill="#fff" opacity="0.53"/>
<circle cx="483" cy="720" r="1.5" fill="#fff" opacity="0.55"/>
<circle cx="128" cy="528" r="1.1" fill="#fff" opacity="0.21"/>
<circle cx="338" cy="281" r="1.9" fill="#fff" opacity="0.42"/>
<circle cx="53" cy="782" r="2.2" fill="#fff" opacity="0.21"/>
<circle cx="308" cy="91" r="1.9" fill="#fff" opacity="0.44"/>
<circle cx="1211" cy="808" r="1.4" fill="#fff" opacity="0.51"/>
<circle cx="1247" cy="363" r="2.3" fill="#fff" opacity="0.36"/>
<circle cx="915" cy="329" r="2.1" fill="#fff" opacity="0.30"/>
<circle cx="1431" cy="149" r="1.0" fill="#fff" opacity="0.26"/>
<circle cx="229" cy="957" r="2.4" fill="#fff" opacity="0.38"/>
<circle cx="256" cy="423" r="1.8" fill="#fff" opacity="0.60"/>
<circle cx="882" cy="421" r="1.6" fill="#fff" opacity="0.57"/>
<circle cx="1308" cy="651" r="1.1" fill="#fff" opacity="0.52"/>
<circle cx="1349" cy="183" r="2.3" fill="#fff" opacity="0.43"/>
<circle cx="105" cy="264" r="0.8" fill="#fff" opacity="0.53"/>
<circle cx="1059" cy="252" r="1.9" fill="#fff" opacity="0.46"/>
<circle cx="267" cy="230" r="1.1" fill="#fff" opacity="0.19"/>
<circle cx="808" cy="968" r="1.6" fill="#fff" opacity="0.39"/>
<circle cx="756" cy="412" r="2.1" fill="#fff" opacity="0.25"/>
<circle cx="69" cy="456" r="1.6" fill="#fff" opacity="0.44"/>
<circle cx="952" cy="338" r="2.3" fill="#fff" opacity="0.33"/>
<circle cx="385" cy="427" r="2.1" fill="#fff" opacity="0.37"/>
<circle cx="598" cy="222" r="0.8" fill="#fff" opacity="0.42"/>
<circle cx="701" cy="390" r="1.7" fill="#fff" opacity="0.46"/>
<circle cx="1022" cy="223" r="1.6" fill="#fff" opacity="0.38"/>
<circle cx="1042" cy="419" r="1.9" fill="#fff" opacity="0.42"/>
<circle cx="98" cy="114" r="1.9" fill="#fff" opacity="0.57"/>
<circle cx="1082" cy="619" r="2.2" fill="#fff" opacity="0.52"/>
<circle cx="1111" cy="921" r="2.2" fill="#fff" opacity="0.40"/>
<circle cx="1296" cy="759" r="2.0" fill="#fff" opacity="0.27"/>
<circle cx="752" cy="585" r="1.5" fill="#fff" opacity="0.47"/>
<circle cx="696" cy="788" r="2.3" fill="#fff" opacity="0.56"/>
<circle cx="892" cy="754" r="1.4" fill="#fff" opacity="0.25"/>
<circle cx="1450" cy="562" r="0.8" fill="#fff" opacity="0.31"/>
<circle cx="1086" cy="679" r="1.5" fill="#fff" opacity="0.38"/>
<circle cx="866" cy="833" r="0.8" fill="#fff" opacity="0.42"/>
<circle cx="1280" cy="723" r="1.2" fill="#fff" opacity="0.43"/>
<circle cx="1289" cy="391" r="2.4" fill="#fff" opacity="0.61"/>
<circle cx="251" cy="892" r="1.5" fill="#fff" opacity="0.26"/>
<circle cx="567" cy="236" r="0.9" fill="#fff" opacity="0.31"/>
<circle cx="1291" cy="743" r="2.1" fill="#fff" opacity="0.20"/>
<circle cx="1409" cy="970" r="2.2" fill="#fff" opacity="0.34"/>
<circle cx="1577" cy="319" r="1.4" fill="#fff" opacity="0.47"/>
<circle cx="1414" cy="819" r="0.9" fill="#fff" opacity="0.42"/>
<circle cx="995" cy="928" r="1.3" fill="#fff" opacity="0.30"/>
<circle cx="1149" cy="957" r="1.1" fill="#fff" opacity="0.62"/>
<circle cx="781" cy="186" r="0.9" fill="#fff" opacity="0.39"/>
<circle cx="1064" cy="818" r="2.0" fill="#fff" opacity="0.58"/>
<circle cx="472" cy="712" r="2.1" fill="#fff" opacity="0.60"/>
<circle cx="981" cy="895" r="1.2" fill="#fff" opacity="0.48"/>
<circle cx="1118" cy="423" r="0.8" fill="#fff" opacity="0.52"/>
<circle cx="1595" cy="778" r="1.8" fill="#fff" opacity="0.20"/>
<circle cx="663" cy="649" r="1.8" fill="#fff" opacity="0.53"/>
<circle cx="1012" cy="689" r="1.1" fill="#fff" opacity="0.61"/>
<circle cx="977" cy="280" r="1.2" fill="#fff" opacity="0.31"/>
<circle cx="1042" cy="305" r="1.3" fill="#fff" opacity="0.61"/>
<circle cx="514" cy="166" r="1.3" fill="#fff" opacity="0.43"/>
  <rect width="1600" height="1000" fill="#000" opacity=".08"/>
</svg>