<svg xmlns="http://www.w3.org/2000/svg" viewBox="0 0 1600 1000" preserveAspectRatio="xMidYMid slice">
  <defs>
    <linearGradient id="g" x1="0" y1="0" x2="1" y2="1">
      <stop offset="0" stop-color="#0e3a2f"/>
      <stop offset=".58" stop-color="#143b4f"/>
      <stop offset="1" stop-color="#0e3a2f"/>
    </linearGradient>
    <radialGradient id="warm" cx=".18" cy=".12" r=".62">
      <stop offset="0" stop-color="#f4c35f" stop-opacity=".32"/>
      <stop offset="1" stop-color="#f4c35f" stop-opacity="0"/>
    </radialGradient>
    <radialGradient id="cool" cx=".86" cy=".24" r=".58">
      <stop offset="0" stop-color="#7ee0a2" stop-opacity=".24"/>
      <stop offset="1" stop-color="#7ee0a2" stop-opacity="0"/>
    </radialGradient>
  </defs>
  <rect width="1600" height="1000" fill="url(#g)"/>
  <rect width="1600" height="1000" fill="url(#warm)"/>
  <rect width="1600" height="1000" fill="url(#cool)"/>
  <circle cx="1280" cy="820" r="360" fill="#ffffff" opacity=".06"/>
  <circle cx="130" cy="930" r="310" fill="#ffffff" opacity=".05"/>
  <circle cx="307" cy="811" r="157" fill="#7ee0a2" opacity="0.22"/>
<circle cx="328" cy="36" r="201" fill="#7ee0a2" opacity="0.15"/>
<circle cx="135" cy="388" r="223" fill="#7ee0a2" opacity="0.18"/>
<circle cx="979" cy="396" r="71" fill="#f4c35f" opacity="0.20"/>
<circle cx="400" cy="191" r="119" fill="#f4c35f" opacity="0.12"/>
<circle cx="379" cy="967" r="237" fill="#ff6c73" opacity="0.13"/>
<circle cx="1655" cy="121" r="147" fill="#f4c35f" opacity="0.19"/>
<circle cx="1492" cy="904" r="199" fill="#ff6c73" opacity="0.13"/>
<circle cx="498" cy="29" r="236" fill="#f4c35f" opacity="0.10"/>
<circle cx="210" cy="4" r="226" fill="#f4c35f" opacity="0.18"/>
<circle cx="1401" cy="1020" r="99" fill="#7ee0a2" opacity="0.09"/>
<circle cx="317" cy="1019" r="119" fill="#7ee0a2" opacity="0.14"/>
<circle cx="1426" cy="624" r="140" fill="#f4c35f" opacity="0.15"/>
<circle cx="1295" cy="57" r="229" fill="#ff6c73" opacity="0.15"/>
<circle cx="1561" cy="361" r="153" fill="#f4c35f" opacity="0.10"/>
<circle cx="681" cy="943" r="217" fill="#ff6c73" opacity="0.18"/><circle cx="812" cy="498" r="0.7" fill="#fff" opacity="0.57"/>
<circle cx="1144" cy="34" r="2.2" fill="#fff" opacity="0.24"/>
<circle cx="1505" cy="378" r="1.1" fill="#fff" opacity="0.40"/>
<circle cx="1309" cy="605" r="0.7" fill="#fff" opacity="0.21"/>
<circle cx="1001" cy="429" r="2.0" fill="#fff" opacity="0.21"/>
<circle cx="1493" cy="848" r="1.0" fill="#fff" opacity="0.56"/>
<circle cx="1125" cy="892" r="0.7" fill="#fff" opacity="0.30"/>
<circle cx="201" cy="52" r="2.2" fill="#fff" opacity="0.31"/>
<circle cx="80" cy="602" r="1.6" fill="#fff" opacity="0.31"/>
<circle cx="14" cy="836" r="2.2" fill="#fff" opacity="0.57"/>
<circle cx="1498" cy="848" r="1.4" fill="#fff" opacity="0.32"/>
<circle cx="1246" cy="376" r="1.5" fill="#fff" opacity="0.33"/>
<circle cx="493" cy="653" r="1.2" fill="#fff" opacity="0.49"/>
<circle cx="1204" cy="848" r="2.1" fill="#fff" opacity="0.21"/>
<circle cx="1300" cy="497" r="2.2" fill="#fff" opacity="0.41"/>
<circle cx="442" cy="677" r="1.7" fill="#fff" opacity="0.20"/>
<circle cx="30" cy="837" r="1.8" fill="#fff" opacity="0.38"/>
<circle cx="1056" cy="186" r="2.4" fill="#fff" opacity="0.51"/>
<circle cx="1452" cy="239" r="0.8" fill="#fff" opacity="0.47"/>
<circle cx="31" cy="687" r="1.2" fill="#fff" opacity="0.51"/>
<circle cx="904" cy="958" r="0.8" fill="#fff" opacity="0.30"/>
<circle cx="752" cy="457" r="1.3" fill="#fff" opacity="0.48"/>
<circle cx="1519" cy="875" r="1.6" fill="#fff" opacity="0.52"/>
<circle cx="1225" cy="198" r="1.4" fill="#fff" opacity="0.45"/>
<circle cx="1018" cy="437" r="2.1" fill="#fff" opacity="0.22"/>
<circle cx="1214" cy="540" r="1.5" fill="#fff" opacity="0.30"/>
<circle cx="1068" cy="264" r="2.1" fill="#fff" opacity="0.29"/>
<circle cx="288" cy="454" r="1.4" fill="#fff" opacity="0.28"/>
<circle cx="1223" cy="655" r="1.3" fill="#fff" opacity="0.46"/>
<circle cx="537" cy="933" r="1.7" fill="#fff" opacity="0.62"/>
<circle cx="630" cy="112" r="2.1" fill="#fff" opacity="0.39"/>
<circle cx="448" cy="507" r="1.8" fill="#fff" opacity="0.58"/>
<circle cx="1490" cy="825" r="1.1" fill="#fff" opacity="0.61"/>
<circle cx="60" cy="762" r="1.7" fill="#fff" opacity="0.35"/>
<circle cx="897" cy="823" r="1.3" fill="#fff" opacity="0.61"/>
<circle cx="781" cy="362" r="1.2" fill="#fff" opacity="0.55"/>
<circle cx="119" cy="814" r="1.3" fill="#fff" opacity="0.36"/>
<circle cx="589" cy="551" r="1.5" fill="#fff" opacity="0.35"/>
<circle cx="364" cy="831" r="1.5" fill="#fff" opacity="0.60"/>
<circle cx="1058" cy="697" r="1.8" fill="#fff" opacity="0.44"/>
<circle cx="1336" cy="556" r="2.1" fill="#fff" opacity="0.43"/>
<circle cx="57" cy="279" r="1.5" fill="#fff" opacity="0.53"/>
<circle cx="685" cy="838" r="2.1" fill="#fff" opacity="0.18"/>
<circle cx="435" cy="561" r="1.1" fill="#fff" opacity="0.27"/>
<circle cx="1172" cy="421" r="1.2" fill="#fff" opacity="0.48"/>
<circle cx="708" cy="358" r="1.9" fill="#fff" opacity="0.24"/>
<circle cx="429" cy="710" r="1.3" fill="#fff" opacity="0.50"/>
<circle cx="705" cy="211" r="2.4" fill="#fff" opacity="0.51"/>
<circle cx="649" cy="623" r="0.7" fill="#fff" opacity="0.33"/>
<circle cx="495" cy="941" r="1.0" fill="#fff" opacity="0.57"/>
<circle cx="700" cy="942" r="0.7" fill="#fff" opacity="0.32"/>
<circle cx="1153" cy="870" r="1.4" fill="#fff" opacity="0.47"/>
<circle cx="1149" cy="947" r="2.0" fill="#fff" opacity="0.57"/>
<circle cx="304" cy="969" r="1.1" fill="#fff" opacity="0.48"/>
<circle cx="1236" cy="734" r="2.0" fill="#fff" opacity="0.18"/>
<circle cx="452" cy="128" r="1.8" fill="#fff" opacity="0.59"/>
<circle cx="162" cy="846" r="1.3" fill="#fff" opacity="0.46"/>
<circle cx="1253" cy="656" r="0.8" fill="#fff" opacity="0.24"/>
<circle cx="321" cy="457" r="1.8" fill="#fff" opacity="0.23"/>
<circle cx="930" cy="328" r="0.8" fill="#fff" opacity="0.58"/>
<circle cx="848" cy="437" r="1.3" fill="#fff" opacity="0.37"/>
<circle cx="1226" cy="837" r="2.2" fill="#fff" opacity="0.24"/>
<circle cx="1172" cy="595" r="1.2" fill="#fff" opacity="0.43"/>
<circle cx="1096" cy="894" r="1.2" fill="#fff" opacity="0.46"/>
<circle cx="396" cy="449" r="1.9" fill="#fff" opacity="0.55"/>
<circle cx="708" cy="683" r="1.0" fill="#fff" opacity="0.32"/>
<circle cx="538" cy="261" r="1.8" fill="#fff" opacity="0.40"/>
<circle cx="1337" cy="54" r="1.4" fill="#fff" opacity="0.40"/>
<circle cx="1407" cy="997" r="2.0" fill="#fff" opacity="0.55"/>
<circle cx="796" cy="709" r="1.0" fill="#fff" opacity="0.37"/>
<circle cx="325" cy="143" r="0.9" fill="#fff" opacity="0.19"/>
<circle cx="984" cy="551" r="0.7" fill="#fff" opacity="0.30"/>
<circle cx="1145" cy="445" r="1.6" fill="#fff" opacity="0.44"/>
<circle cx="1585" cy="145" r="1.3" fill="#fff" opacity="0.45"/>
<circle cx="148" cy="802" r="1.0" fill="#fff" opacity="0.34"/>
<circle cx="1190" cy="543" r="1.0" fill="#fff" opacity="0.38"/>
<circle cx="1039" cy="606" r="1.5" fill="#fff" opacity="0.30"/>
<circle cx="1528" cy="31" r="1.6" fill="#fff" opacity="0.56"/>
<circle cx="201" cy="594" r="0.9" fill="#fff" opacity="0.30"/>
<circle cx="191" cy="782" r="2.0" fill="#fff" opacity="0.56"/>
<circle cx="297" cy="515" r="2.4" fill="#fff" opacity="0.61"/>
<circle cx="327" cy="91" r="1.0" fill="#fff" opacity="0.27"/>
<circle cx="142" cy="859" r="1.4" fill="#fff" opacity="0.57"/>
<circle cx="548" cy="612" r="0.8" fill="#fff" opacity="0.33"/>
<circle cx="1524" cy="551" r="0.8" fill="#fff" opacity="0.20"/>
<circle cx="386" cy="264" r="1.7" fill="#fff" opacity="0.40"/>
<circle cx="212" cy="600" r="1.2" fill="#fff" opacity="0.29"/>
<circle cx="912" cy="140" r="2.1" fill="#fff" opacity="0.19"/>
<circle cx="1517" cy="31" r="0.8" fill="#fff" opacity="0.37"/>
<circle cx="646" cy="729" r="2.0" fill="#fff" opacity="0.54"/>
  <rect width="1600" height="1000" fill="#000" opacity=".08"/>
</svg>