<svg xmlns="http://www.w3.org/2000/svg" viewBox="0 0 1600 1000" preserveAspectRatio="xMidYMid slice">
  <defs>
    <linearGradient id="g" x1="0" y1="0" x2="1" y2="1">
      <stop offset="0" stop-color="#173d35"/>
      <stop offset=".58" stop-color="#2c4d35"/>
      <stop offset="1" stop-color="#173d35"/>
    </linearGradient>
    <radialGradient id="warm" cx=".18" cy=".12" r=".62">
      <stop offset="0" stop-color="#ffe08a" stop-opacity=".32"/>
      <stop offset="1" stop-color="#ffe08a" stop-opacity="0"/>
    </radialGradient>
    <radialGradient id="cool" cx=".86" cy=".24" r=".58">
      <stop offset="0" stop-color="#8be6a7" stop-opacity=".24"/>
      <stop offset="1" stop-color="#8be6a7" stop-opacity="0"/>
    </radialGradient>
  </defs>
  <rect width="1600" height="1000" fill="url(#g)"/>
  <rect width="1600" height="1000" fill="url(#warm)"/>
  <rect width="1600" height="1000" fill="url(#cool)"/>
  <circle cx="1280" cy="820" r="360" fill="#ffffff" opacity=".06"/>
  <circle cx="130" cy="930" r="310" fill="#ffffff" opacity=".05"/>
  <circle cx="342" cy="1006" r="98" fill="#8be6a7" opacity="0.18"/>
<circle cx="1050" cy="378" r="124" fill="#8be6a7" opacity="0.19"/>
<circle cx="981" cy="385" r="160" fill="#ffe08a" opacity="0.15"/>
<circle cx="-86" cy="742" r="149" fill="#ee6570" opacity="0.18"/>
<circle cx="982" cy="262" r="104" fill="#8be6a7" opacity="0.18"/>
<circle cx="0" cy="784" r="80" fill="#ee6570" opacity="0.10"/>
<circle cx="210" cy="17" r="102" fill="#ee6570" opacity="0.10"/>
<circle cx="69" cy="740" r="142" fill="#ee6570" opacity="0.12"/>
<circle cx="476" cy="510" r="116" fill="#8be6a7" opacity="0.13"/>
<circle cx="1474" cy="104" r="223" fill="#ee6570" opacity="0.10"/>
<circle cx="493" cy="989" r="85" fill="#8be6a7" opacity="0.15"/>
<circle cx="1369" cy="24" r="111" fill="#8be6a7" opacity="0.18"/>
<circle cx="921" cy="81" r="129" fill="#8be6a7" opacity="0.09"/>
<circle cx="608" cy="895" r="187" fill="#8be6a7" opacity="0.11"/>
<circle cx="350" cy="69" r="177" fill="#ee6570" opacity="0.08"/>
<circle cx="370" cy="1041" r="157" fill="#ee6570" opacity="0.19"/>
    <pattern id="plaid" width="96" height="96" patternUnits="userSpaceOnUse">
      <rect width="96" height="96" fill="transparent"/>
      <path d="M0 24H96 M0 72H96 M24 0V96 M72 0V96" stroke="#ffe08a" stroke-width="2" opacity=".18"/>
      <path d="M0 48H96 M48 0V96" stroke="#8be6a7" stroke-width="8" opacity=".06"/>
    </pattern>
    <rect width="1600" height="1000" fill="url(#plaid)" opacity=".9"/><path d="M-117 1049 L-47 806 L23 1049 Z" fill="#071f18" opacity="0.42"/>
<path d="M-97 969 L-47 766 L3 969 Z" fill="#071f18" opacity="0.47"/>
<path d="M80 979 L150 603 L220 979 Z" fill="#071f18" opacity="0.33"/>
<path d="M100 899 L150 563 L200 899 Z" fill="#071f18" opacity="0.38"/>
<path d="M273 1024 L343 712 L413 1024 Z" fill="#071f18" opacity="0.25"/>
<path d="M293 944 L343 672 L393 944 Z" fill="#071f18" opacity="0.30"/>
<path d="M499 1007 L569 681 L639 1007 Z" fill="#071f18" opacity="0.42"/>
<path d="M519 927 L569 641 L619 927 Z" fill="#071f18" opacity="0.47"/>
<path d="M640 1023 L710 812 L780 1023 Z" fill="#071f18" opacity="0.29"/>
<path d="M660 943 L710 772 L760 943 Z" fill="#071f18" opacity="0.34"/>
<path d="M833 1061 L903 638 L973 1061 Z" fill="#071f18" opacity="0.31"/>
<path d="M853 981 L903 598 L953 981 Z" fill="#071f18" opacity="0.36"/>
<path d="M1056 1027 L1126 627 L1196 1027 Z" fill="#071f18" opacity="0.37"/>
<path d="M1076 947 L1126 587 L1176 947 Z" fill="#071f18" opacity="0.42"/>
<path d="M1220 973 L1290 656 L1360 973 Z" fill="#071f18" opacity="0.39"/>
<path d="M1240 893 L1290 616 L1340 893 Z" fill="#071f18" opacity="0.44"/>
<path d="M1434 990 L1504 718 L1574 990 Z" fill="#071f18" opacity="0.43"/>
<path d="M1454 910 L1504 678 L1554 910 Z" fill="#071f18" opacity="0.48"/>
<path d="M1610 1012 L1680 769 L1750 1012 Z" fill="#071f18" opacity="0.23"/>
<path d="M1630 932 L1680 729 L1730 932 Z" fill="#071f18" opacity="0.28"/><path d="M1330 681.701460124682 L1331.1544889563613 683.8455110436387 L1333.298539875318 685 L1331.1544889563613 686.1544889563613 L1330 688.298539875318 L1328.8455110436387 686.1544889563613 L1326.701460124682 685 L1328.8455110436387 683.8455110436387 Z" fill="#fff8d8" opacity="0.50"/>
<path d="M1404 202.0696428132408 L1405.3756250153658 204.62437498463427 L1407.9303571867592 206 L1405.3756250153658 207.37562501536573 L1404 209.9303571867592 L1402.6243749846342 207.37562501536573 L1400.0696428132408 206 L1402.6243749846342 204.62437498463427 Z" fill="#fff8d8" opacity="0.25"/>
<path d="M190 92.35159653386737 L190.92694121314642 94.07305878685358 L192.64840346613263 95 L190.92694121314642 95.92694121314642 L190 97.64840346613263 L189.07305878685358 95.92694121314642 L187.35159653386737 95 L189.07305878685358 94.07305878685358 Z" fill="#fff8d8" opacity="0.34"/>
<path d="M665 135.44546163972635 L665.5440884260958 136.45591157390422 L666.5545383602737 137 L665.5440884260958 137.54408842609578 L665 138.55453836027365 L664.4559115739042 137.54408842609578 L663.4454616397263 137 L664.4559115739042 136.45591157390422 Z" fill="#fff8d8" opacity="0.45"/>
<path d="M430 897.9567397798662 L430.71514107704684 899.2848589229532 L432.0432602201338 900 L430.71514107704684 900.7151410770468 L430 902.0432602201338 L429.28485892295316 900.7151410770468 L427.9567397798662 900 L429.28485892295316 899.2848589229532 Z" fill="#fff8d8" opacity="0.24"/>
<path d="M933 423.0904892065087 L934.3683287777219 425.63167122227804 L936.9095107934913 427 L934.3683287777219 428.36832877772196 L933 430.9095107934913 L931.6316712222781 428.36832877772196 L929.0904892065087 427 L931.6316712222781 425.63167122227804 Z" fill="#fff8d8" opacity="0.29"/>
<path d="M1039 636.3182023697884 L1039.9386291705741 638.061370829426 L1041.6817976302116 639 L1039.9386291705741 639.938629170574 L1039 641.6817976302116 L1038.0613708294259 639.938629170574 L1036.3182023697884 639 L1038.0613708294259 638.061370829426 Z" fill="#fff8d8" opacity="0.44"/>
<path d="M220 0.43568692059926306 L220.54750957779027 1.4524904222097421 L221.56431307940073 2 L220.54750957779027 2.547509577790258 L220 3.564313079400737 L219.45249042220973 2.547509577790258 L218.43568692059927 2 L219.45249042220973 1.4524904222097421 Z" fill="#fff8d8" opacity="0.47"/>
<path d="M994 814.5098420027991 L995.2215552990203 816.7784447009797 L997.4901579972009 818 L995.2215552990203 819.2215552990203 L994 821.4901579972009 L992.7784447009797 819.2215552990203 L990.5098420027991 818 L992.7784447009797 816.7784447009797 Z" fill="#fff8d8" opacity="0.40"/>
<path d="M1363 834.4940441301156 L1363.8770845544595 836.1229154455405 L1365.5059558698845 837 L1363.8770845544595 837.8770845544595 L1363 839.5059558698844 L1362.1229154455405 837.8770845544595 L1360.4940441301155 837 L1362.1229154455405 836.1229154455405 Z" fill="#fff8d8" opacity="0.48"/>
<path d="M725 670.386328392105 L726.2647850627633 672.7352149372367 L728.613671607895 674 L726.2647850627633 675.2647850627633 L725 677.613671607895 L723.7352149372367 675.2647850627633 L721.386328392105 674 L723.7352149372367 672.7352149372367 Z" fill="#fff8d8" opacity="0.20"/>
<path d="M1553 6.066109616245918 L1554.026861634314 7.973138365686071 L1555.933890383754 9 L1554.026861634314 10.026861634313928 L1553 11.933890383754083 L1551.973138365686 10.026861634313928 L1550.066109616246 9 L1551.973138365686 7.973138365686071 Z" fill="#fff8d8" opacity="0.34"/>
<path d="M1321 171.107451572762 L1321.6623919495332 172.33760805046668 L1322.8925484272381 173 L1321.6623919495332 173.66239194953332 L1321 174.892548427238 L1320.3376080504668 173.66239194953332 L1319.1074515727619 173 L1320.3376080504668 172.33760805046668 Z" fill="#fff8d8" opacity="0.36"/>
<path d="M1298 2.464832821396764 L1299.2373085125112 4.762691487488867 L1301.5351671786032 6 L1299.2373085125112 7.237308512511133 L1298 9.535167178603237 L1296.7626914874888 7.237308512511133 L1294.4648328213968 6 L1296.7626914874888 4.762691487488867 Z" fill="#fff8d8" opacity="0.55"/>
<path d="M285 743.2869895285211 L286.2995536650176 745.7004463349824 L288.71301047147887 747 L286.2995536650176 748.2995536650176 L285 750.7130104714789 L283.7004463349824 748.2995536650176 L281.28698952852113 747 L283.7004463349824 745.7004463349824 Z" fill="#fff8d8" opacity="0.55"/>
<path d="M1231 362.6025416513664 L1232.1891104220217 364.81088957797823 L1234.3974583486336 366 L1232.1891104220217 367.18911042202177 L1231 369.3974583486336 L1229.8108895779783 367.18911042202177 L1227.6025416513664 366 L1229.8108895779783 364.81088957797823 Z" fill="#fff8d8" opacity="0.19"/>
<path d="M483 969.6395202598827 L483.82616790904103 971.173832090959 L485.3604797401173 972 L483.82616790904103 972.826167909041 L483 974.3604797401173 L482.17383209095897 972.826167909041 L480.6395202598827 972 L482.17383209095897 971.173832090959 Z" fill="#fff8d8" opacity="0.22"/>
<path d="M1334 718.89726163157 L1334.7359584289504 720.2640415710495 L1336.10273836843 721 L1334.7359584289504 721.7359584289505 L1334 723.10273836843 L1333.2640415710496 721.7359584289505 L1331.89726163157 721 L1333.2640415710496 720.2640415710495 Z" fill="#fff8d8" opacity="0.36"/>
<path d="M1135 121.35375317175922 L1135.5761863898842 122.42381361011573 L1136.6462468282407 123 L1135.5761863898842 123.57618638988427 L1135 124.64624682824078 L1134.4238136101158 123.57618638988427 L1133.3537531717593 123 L1134.4238136101158 122.42381361011573 Z" fill="#fff8d8" opacity="0.34"/>
<path d="M1405 154.15946544934766 L1406.3441870927284 156.65581290727167 L1408.8405345506524 158 L1406.3441870927284 159.34418709272833 L1405 161.84053455065234 L1403.6558129072716 159.34418709272833 L1401.1594654493476 158 L1403.6558129072716 156.65581290727167 Z" fill="#fff8d8" opacity="0.54"/>
<path d="M167 104.01948129232969 L167.69318154768462 105.30681845231538 L168.9805187076703 106 L167.69318154768462 106.69318154768462 L167 107.98051870767031 L166.30681845231538 106.69318154768462 L165.0194812923297 106 L166.30681845231538 105.30681845231538 Z" fill="#fff8d8" opacity="0.43"/>
<path d="M826 600.2133174231884 L826.6253389018841 601.3746610981159 L827.7866825768116 602 L826.6253389018841 602.6253389018841 L826 603.7866825768116 L825.3746610981159 602.6253389018841 L824.2133174231884 602 L825.3746610981159 601.3746610981159 Z" fill="#fff8d8" opacity="0.30"/>
<path d="M918 968.3669396644899 L918.5715711174286 969.4284288825714 L919.6330603355101 970 L918.5715711174286 970.5715711174286 L918 971.6330603355101 L917.4284288825714 970.5715711174286 L916.3669396644899 970 L917.4284288825714 969.4284288825714 Z" fill="#fff8d8" opacity="0.46"/>
<path d="M103 338.8231547929683 L104.1118958224611 340.8881041775389 L106.17684520703172 342 L104.1118958224611 343.1118958224611 L103 345.1768452070317 L101.8881041775389 343.1118958224611 L99.82315479296828 342 L101.8881041775389 340.8881041775389 Z" fill="#fff8d8" opacity="0.19"/>
<path d="M321 907.4244448780704 L321.55144429267534 908.4485557073247 L322.5755551219296 909 L321.55144429267534 909.5514442926753 L321 910.5755551219296 L320.44855570732466 909.5514442926753 L319.4244448780704 909 L320.44855570732466 908.4485557073247 Z" fill="#fff8d8" opacity="0.46"/>
<path d="M203 936.1271356501835 L203.65550252243577 937.3444974775642 L204.87286434981647 938 L203.65550252243577 938.6555025224358 L203 939.8728643498165 L202.34449747756423 938.6555025224358 L201.12713565018353 938 L202.34449747756423 937.3444974775642 Z" fill="#fff8d8" opacity="0.40"/>
<path d="M1425 547.2573794366281 L1426.30991719718 549.6900828028198 L1428.742620563372 551 L1426.30991719718 552.3099171971802 L1425 554.7426205633719 L1423.69008280282 552.3099171971802 L1421.257379436628 551 L1423.69008280282 549.6900828028198 Z" fill="#fff8d8" opacity="0.32"/>
<path d="M137 141.00557661558926 L137.69804818454375 142.30195181545625 L138.99442338441074 143 L137.69804818454375 143.69804818454375 L137 144.99442338441074 L136.30195181545625 143.69804818454375 L135.00557661558926 143 L136.30195181545625 142.30195181545625 Z" fill="#fff8d8" opacity="0.45"/>
<path d="M552 671.2266886409955 L552.9706589756516 673.0293410243484 L554.7733113590045 674 L552.9706589756516 674.9706589756516 L552 676.7733113590045 L551.0293410243484 674.9706589756516 L549.2266886409955 674 L551.0293410243484 673.0293410243484 Z" fill="#fff8d8" opacity="0.33"/>
<path d="M931 374.7120443526685 L932.1507844765661 376.849215523434 L934.2879556473315 378 L932.1507844765661 379.150784476566 L931 381.2879556473315 L929.8492155234339 379.150784476566 L927.7120443526685 378 L929.8492155234339 376.849215523434 Z" fill="#fff8d8" opacity="0.28"/>
<path d="M1068 688.2747881180284 L1068.60382415869 689.39617584131 L1069.7252118819717 690 L1068.60382415869 690.60382415869 L1068 691.7252118819716 L1067.39617584131 690.60382415869 L1066.2747881180283 690 L1067.39617584131 689.39617584131 Z" fill="#fff8d8" opacity="0.17"/>
<path d="M1097 66.4564373029171 L1098.240246943979 68.75975305602098 L1100.543562697083 70 L1098.240246943979 71.24024694397902 L1097 73.5435626970829 L1095.759753056021 71.24024694397902 L1093.456437302917 70 L1095.759753056021 68.75975305602098 Z" fill="#fff8d8" opacity="0.31"/>
<path d="M463 149.2776988952759 L464.30280538665346 151.69719461334657 L466.7223011047241 153 L464.30280538665346 154.30280538665343 L463 156.7223011047241 L461.69719461334654 154.30280538665343 L459.2776988952759 153 L461.69719461334654 151.69719461334657 Z" fill="#fff8d8" opacity="0.27"/>
<path d="M1049 91.60521715734666 L1049.8381739949286 93.16182600507133 L1051.3947828426533 94 L1049.8381739949286 94.83817399492867 L1049 96.39478284265334 L1048.1618260050714 94.83817399492867 L1046.6052171573467 94 L1048.1618260050714 93.16182600507133 Z" fill="#fff8d8" opacity="0.54"/>
<path d="M232 34.95650857767286 L232.7152219978145 36.2847780021855 L234.04349142232715 37 L232.7152219978145 37.7152219978145 L232 39.04349142232714 L231.2847780021855 37.7152219978145 L229.95650857767285 37 L231.2847780021855 36.2847780021855 Z" fill="#fff8d8" opacity="0.31"/>
<path d="M1198 936.1347310576734 L1199.0028441298143 937.9971558701857 L1200.8652689423266 939 L1199.0028441298143 940.0028441298143 L1198 941.8652689423266 L1196.9971558701857 940.0028441298143 L1195.1347310576734 939 L1196.9971558701857 937.9971558701857 Z" fill="#fff8d8" opacity="0.49"/>
<path d="M781 286.7586587223248 L781.7844694471863 288.2155305528137 L783.2413412776752 289 L781.7844694471863 289.7844694471863 L781 291.2413412776752 L780.2155305528137 289.7844694471863 L778.7586587223248 289 L780.2155305528137 288.2155305528137 Z" fill="#fff8d8" opacity="0.27"/>
<path d="M1318 216.11108444663697 L1318.661120443677 217.33887955632292 L1319.888915553363 218 L1318.661120443677 218.66112044367708 L1318 219.88891555336303 L1317.338879556323 218.66112044367708 L1316.111084446637 218 L1317.338879556323 217.33887955632292 Z" fill="#fff8d8" opacity="0.25"/><circle cx="862" cy="979" r="2.1" fill="#fff" opacity="0.22"/>
<circle cx="1526" cy="92" r="1.7" fill="#fff" opacity="0.24"/>
<circle cx="604" cy="274" r="2.2" fill="#fff" opacity="0.24"/>
<circle cx="655" cy="573" r="2.0" fill="#fff" opacity="0.35"/>
<circle cx="1345" cy="850" r="2.1" fill="#fff" opacity="0.23"/>
<circle cx="1347" cy="900" r="0.9" fill="#fff" opacity="0.51"/>
<circle cx="1141" cy="838" r="2.3" fill="#fff" opacity="0.24"/>
<circle cx="1048" cy="539" r="1.8" fill="#fff" opacity="0.33"/>
<circle cx="597" cy="246" r="2.2" fill="#fff" opacity="0.57"/>
<circle cx="316" cy="392" r="1.7" fill="#fff" opacity="0.44"/>
<circle cx="1305" cy="886" r="1.6" fill="#fff" opacity="0.19"/>
<circle cx="658" cy="720" r="1.7" fill="#fff" opacity="0.53"/>
<circle cx="1072" cy="150" r="1.4" fill="#fff" opacity="0.57"/>
<circle cx="132" cy="107" r="1.4" fill="#fff" opacity="0.29"/>
<circle cx="736" cy="854" r="1.8" fill="#fff" opacity="0.26"/>
<circle cx="959" cy="882" r="1.1" fill="#fff" opacity="0.61"/>
<circle cx="718" cy="887" r="1.5" fill="#fff" opacity="0.19"/>
<circle cx="186" cy="796" r="1.0" fill="#fff" opacity="0.24"/>
<circle cx="758" cy="579" r="2.4" fill="#fff" opacity="0.55"/>
<circle cx="654" cy="209" r="2.3" fill="#fff" opacity="0.52"/>
<circle cx="1450" cy="82" r="1.3" fill="#fff" opacity="0.19"/>
<circle cx="483" cy="429" r="2.2" fill="#fff" opacity="0.60"/>
<circle cx="820" cy="656" r="2.2" fill="#fff" opacity="0.57"/>
<circle cx="1151" cy="370" r="1.3" fill="#fff" opacity="0.41"/>
<circle cx="1277" cy="525" r="0.9" fill="#fff" opacity="0.36"/>
<circle cx="682" cy="20" r="1.3" fill="#fff" opacity="0.45"/>
<circle cx="980" cy="789" r="1.9" fill="#fff" opacity="0.32"/>
<circle cx="1545" cy="892" r="1.8" fill="#fff" opacity="0.43"/>
<circle cx="1032" cy="655" r="2.1" fill="#fff" opacity="0.24"/>
<circle cx="737" cy="138" r="0.8" fill="#fff" opacity="0.52"/>
<circle cx="1294" cy="230" r="1.1" fill="#fff" opacity="0.49"/>
<circle cx="92" cy="129" r="1.9" fill="#fff" opacity="0.61"/>
<circle cx="1121" cy="752" r="2.2" fill="#fff" opacity="0.41"/>
<circle cx="1185" cy="268" r="1.1" fill="#fff" opacity="0.55"/>
<circle cx="1375" cy="780" r="2.3" fill="#fff" opacity="0.45"/>
<circle cx="264" cy="666" r="1.4" fill="#fff" opacity="0.29"/>
<circle cx="1384" cy="21" r="1.1" fill="#fff" opacity="0.41"/>
<circle cx="242" cy="306" r="1.4" fill="#fff" opacity="0.61"/>
<circle cx="884" cy="157" r="2.2" fill="#fff" opacity="0.18"/>
<circle cx="1091" cy="302" r="2.3" fill="#fff" opacity="0.61"/>
<circle cx="61" cy="746" r="1.0" fill="#fff" opacity="0.45"/>
<circle cx="1500" cy="510" r="0.9" fill="#fff" opacity="0.56"/>
<circle cx="275" cy="749" r="2.0" fill="#fff" opacity="0.55"/>
<circle cx="342" cy="818" r="1.5" fill="#fff" opacity="0.35"/>
<circle cx="962" cy="491" r="1.7" fill="#fff" opacity="0.43"/>
<circle cx="855" cy="183" r="1.6" fill="#fff" opacity="0.40"/>
<circle cx="1412" cy="82" r="2.1" fill="#fff" opacity="0.32"/>
<circle cx="477" cy="722" r="0.7" fill="#fff" opacity="0.47"/>
<circle cx="1238" cy="866" r="1.1" fill="#fff" opacity="0.28"/>
<circle cx="1463" cy="327" r="1.9" fill="#fff" opacity="0.26"/>
<circle cx="871" cy="253" r="1.6" fill="#fff" opacity="0.42"/>
<circle cx="700" cy="296" r="0.8" fill="#fff" opacity="0.32"/>
<circle cx="399" cy="232" r="1.6" fill="#fff" opacity="0.23"/>
<circle cx="202" cy="300" r="1.1" fill="#fff" opacity="0.41"/>
<circle cx="1349" cy="213" r="1.7" fill="#fff" opacity="0.34"/>
<circle cx="1300" cy="392" r="1.8" fill="#fff" opacity="0.60"/>
<circle cx="1085" cy="278" r="1.2" fill="#fff" opacity="0.54"/>
<circle cx="1093" cy="148" r="2.2" fill="#fff" opacity="0.37"/>
<circle cx="191" cy="458" r="1.8" fill="#fff" opacity="0.57"/>
<circle cx="1229" cy="215" r="2.2" fill="#fff" opacity="0.56"/>
<circle cx="1056" cy="948" r="1.7" fill="#fff" opacity="0.51"/>
<circle cx="327" cy="50" r="1.6" fill="#fff" opacity="0.40"/>
<circle cx="1012" cy="71" r="1.2" fill="#fff" opacity="0.51"/>
<circle cx="2" cy="586" r="0.7" fill="#fff" opacity="0.58"/>
<circle cx="811" cy="7" r="1.8" fill="#fff" opacity="0.55"/>
<circle cx="722" cy="20" r="1.1" fill="#fff" opacity="0.23"/>
<circle cx="86" cy="265" r="1.0" fill="#fff" opacity="0.40"/>
<circle cx="1469" cy="557" r="1.4" fill="#fff" opacity="0.21"/>
<circle cx="321" cy="988" r="2.3" fill="#fff" opacity="0.33"/>
<circle cx="1363" cy="776" r="2.1" fill="#fff" opacity="0.38"/>
<circle cx="476" cy="395" r="2.0" fill="#fff" opacity="0.44"/>
<circle cx="1140" cy="756" r="2.2" fill="#fff" opacity="0.48"/>
<circle cx="1078" cy="876" r="1.8" fill="#fff" opacity="0.51"/>
<circle cx="336" cy="468" r="1.9" fill="#fff" opacity="0.38"/>
<circle cx="1280" cy="734" r="0.7" fill="#fff" opacity="0.52"/>
<circle cx="634" cy="596" r="1.7" fill="#fff" opacity="0.46"/>
<circle cx="1457" cy="78" r="0.8" fill="#fff" opacity="0.47"/>
<circle cx="338" cy="392" r="1.5" fill="#fff" opacity="0.42"/>
<circle cx="1150" cy="646" r="1.0" fill="#fff" opacity="0.31"/>
<circle cx="1081" cy="238" r="1.8" fill="#fff" opacity="0.44"/>
<circle cx="1416" cy="607" r="0.8" fill="#fff" opacity="0.54"/>
<circle cx="1175" cy="772" r="1.9" fill="#fff" opacity="0.57"/>
<circle cx="733" cy="616" r="2.1" fill="#fff" opacity="0.29"/>
<circle cx="432" cy="490" r="2.0" fill="#fff" opacity="0.38"/>
<circle cx="174" cy="862" r="0.9" fill="#fff" opacity="0.45"/>
<circle cx="8" cy="310" r="1.6" fill="#fff" opacity="0.35"/>
<circle cx="766" cy="613" r="2.2" fill="#fff" opacity="0.25"/>
<circle cx="1511" cy="939" r="2.4" fill="#fff" opacity="0.55"/>
<circle cx="369" cy="419" r="1.9" fill="#fff" opacity="0.39"/>
<circle cx="1025" cy="640" r="1.3" fill="#fff" opacity="0.49"/>
<circle cx="472" cy="758" r="0.7" fill="#fff" opacity="0.36"/>
<circle cx="1447" cy="607" r="0.9" fill="#fff" opacity="0.59"/>
<circle cx="1544" cy="16" r="2.4" fill="#fff" opacity="0.41"/>
<circle cx="1266" cy="824" r="1.9" fill="#fff" opacity="0.27"/>
<circle cx="336" cy="165" r="1.9" fill="#fff" opacity="0.37"/>
<circle cx="1437" cy="543" r="2.0" fill="#fff" opacity="0.38"/>
<circle cx="985" cy="380" r="1.2" fill="#fff" opacity="0.29"/>
<circle cx="1573" cy="138" r="1.8" fill="#fff" opacity="0.62"/>
<circle cx="1076" cy="390" r="2.0" fill="#fff" opacity="0.35"/>
<circle cx="376" cy="56" r="1.7" fill="#fff" opacity="0.31"/>
<circle cx="952" cy="325" r="1.9" fill="#fff" opacity="0.23"/>
<circle cx="1165" cy="951" r="2.0" fill="#fff" opacity="0.20"/>
<circle cx="1155" cy="607" r="1.5" fill="#fff" opacity="0.33"/>
<circle cx="1281" cy="428" r="2.3" fill="#fff" opacity="0.18"/>
<circle cx="1490" cy="246" r="1.1" fill="#fff" opacity="0.39"/>
<circle cx="1366" cy="77" r="1.1" fill="#fff" opacity="0.47"/>
<circle cx="1105" cy="430" r="2.1" fill="#fff" opacity="0.22"/>
<circle cx="1295" cy="377" r="0.8" fill="#fff" opacity="0.34"/>
<circle cx="385" cy="378" r="0.8" fill="#fff" opacity="0.26"/>
<circle cx="115" cy="653" r="1.3" fill="#fff" opacity="0.30"/>
  <rect width="1600" height="1000" fill="#000" opacity=".08"/>
</svg>