<svg xmlns="http://www.w3.org/2000/svg" viewBox="0 0 1600 1000" preserveAspectRatio="xMidYMid slice">
  <defs>
    <linearGradient id="g" x1="0" y1="0" x2="1" y2="1">
      <stop offset="0" stop-color="#102f46"/>
      <stop offset=".58" stop-color="#1d5b6b"/>
      <stop offset="1" stop-color="#102f46"/>
    </linearGradient>
    <radialGradient id="warm" cx=".18" cy=".12" r=".62">
      <stop offset="0" stop-color="#c8f3ff" stop-opacity=".32"/>
      <stop offset="1" stop-color="#c8f3ff" stop-opacity="0"/>
    </radialGradient>
    <radialGradient id="cool" cx=".86" cy=".24" r=".58">
      <stop offset="0" stop-color="#f7d36b" stop-opacity=".24"/>
      <stop offset="1" stop-color="#f7d36b" stop-opacity="0"/>
    </radialGradient>
  </defs>
  <rect width="1600" height="1000" fill="url(#g)"/>
  <rect width="1600" height="1000" fill="url(#warm)"/>
  <rect width="1600" height="1000" fill="url(#cool)"/>
  <circle cx="1280" cy="820" r="360" fill="#ffffff" opacity=".06"/>
  <circle cx="130" cy="930" r="310" fill="#ffffff" opacity=".05"/>
  <circle cx="502" cy="676" r="92" fill="#c8f3ff" opacity="0.09"/>
<circle cx="657" cy="873" r="110" fill="#c8f3ff" opacity="0.12"/>
<circle cx="1366" cy="1007" r="147" fill="#ff8490" opacity="0.10"/>
<circle cx="158" cy="-43" r="142" fill="#f7d36b" opacity="0.13"/>
<circle cx="1580" cy="136" r="156" fill="#f7d36b" opacity="0.19"/>
<circle cx="93" cy="607" r="190" fill="#f7d36b" opacity="0.10"/>
<circle cx="1398" cy="-100" r="221" fill="#f7d36b" opacity="0.14"/>
<circle cx="1265" cy="120" r="99" fill="#c8f3ff" opacity="0.21"/>
<circle cx="334" cy="70" r="186" fill="#c8f3ff" opacity="0.14"/>
<circle cx="1196" cy="66" r="218" fill="#c8f3ff" opacity="0.18"/>
<circle cx="589" cy="736" r="207" fill="#ff8490" opacity="0.16"/>
<circle cx="733" cy="816" r="195" fill="#ff8490" opacity="0.17"/>
<circle cx="1011" cy="813" r="106" fill="#c8f3ff" opacity="0.16"/>
<circle cx="1550" cy="245" r="133" fill="#c8f3ff" opacity="0.20"/>
<circle cx="393" cy="598" r="144" fill="#ff8490" opacity="0.18"/>
<circle cx="1281" cy="45" r="163" fill="#ff8490" opacity="0.14"/><circle cx="1140" cy="744" r="1.0" fill="#fff" opacity="0.38"/>
<circle cx="1118" cy="963" r="0.8" fill="#fff" opacity="0.22"/>
<circle cx="509" cy="630" r="1.9" fill="#fff" opacity="0.61"/>
<circle cx="1153" cy="517" r="2.1" fill="#fff" opacity="0.54"/>
<circle cx="1039" cy="256" r="2.2" fill="#fff" opacity="0.59"/>
<circle cx="1381" cy="226" r="2.2" fill="#fff" opacity="0.43"/>
<circle cx="339" cy="200" r="1.3" fill="#fff" opacity="0.31"/>
<circle cx="774" cy="852" r="1.9" fill="#fff" opacity="0.35"/>
<circle cx="1443" cy="577" r="0.9" fill="#fff" opacity="0.20"/>
<circle cx="1418" cy="299" r="1.0" fill="#fff" opacity="0.57"/>
<circle cx="1189" cy="234" r="0.9" fill="#fff" opacity="0.55"/>
<circle cx="1275" cy="877" r="1.1" fill="#fff" opacity="0.20"/>
<circle cx="170" cy="455" r="1.5" fill="#fff" opacity="0.21"/>
<circle cx="1425" cy="259" r="1.3" fill="#fff" opacity="0.49"/>
<circle cx="412" cy="626" r="1.2" fill="#fff" opacity="0.59"/>
<circle cx="221" cy="564" r="1.4" fill="#fff" opacity="0.45"/>
<circle cx="704" cy="861" r="2.2" fill="#fff" opacity="0.29"/>
<circle cx="642" cy="474" r="0.7" fill="#fff" opacity="0.33"/>
<circle cx="73" cy="616" r="2.0" fill="#fff" opacity="0.33"/>
<circle cx="562" cy="546" r="1.5" fill="#fff" opacity="0.34"/>
<circle cx="333" cy="528" r="1.8" fill="#fff" opacity="0.30"/>
<circle cx="751" cy="184" r="1.8" fill="#fff" opacity="0.44"/>
<circle cx="1360" cy="178" r="1.5" fill="#fff" opacity="0.22"/>
<circle cx="894" cy="358" r="2.3" fill="#fff" opacity="0.32"/>
<circle cx="539" cy="319" r="1.1" fill="#fff" opacity="0.52"/>
<circle cx="645" cy="391" r="1.9" fill="#fff" opacity="0.23"/>
<circle cx="480" cy="583" r="0.8" fill="#fff" opacity="0.22"/>
<circle cx="1111" cy="238" r="1.0" fill="#fff" opacity="0.60"/>
<circle cx="1218" cy="287" r="1.1" fill="#fff" opacity="0.62"/>
<circle cx="224" cy="758" r="1.8" fill="#fff" opacity="0.39"/>
<circle cx="195" cy="157" r="2.0" fill="#fff" opacity="0.23"/>
<circle cx="1182" cy="543" r="1.4" fill="#fff" opacity="0.42"/>
<circle cx="24" cy="982" r="1.4" fill="#fff" opacity="0.39"/>
<circle cx="1408" cy="304" r="0.7" fill="#fff" opacity="0.48"/>
<circle cx="797" cy="882" r="1.9" fill="#fff" opacity="0.49"/>
<circle cx="1046" cy="729" r="0.7" fill="#fff" opacity="0.60"/>
<circle cx="338" cy="48" r="2.0" fill="#fff" opacity="0.35"/>
<circle cx="757" cy="309" r="2.0" fill="#fff" opacity="0.32"/>
<circle cx="946" cy="217" r="2.3" fill="#fff" opacity="0.25"/>
<circle cx="717" cy="742" r="2.1" fill="#fff" opacity="0.39"/>
<circle cx="547" cy="215" r="1.7" fill="#fff" opacity="0.26"/>
<circle cx="532" cy="755" r="1.5" fill="#fff" opacity="0.38"/>
<circle cx="354" cy="819" r="2.3" fill="#fff" opacity="0.52"/>
<circle cx="52" cy="292" r="1.2" fill="#fff" opacity="0.24"/>
<circle cx="396" cy="674" r="2.1" fill="#fff" opacity="0.59"/>
<circle cx="872" cy="246" r="0.9" fill="#fff" opacity="0.42"/>
<circle cx="1006" cy="132" r="1.5" fill="#fff" opacity="0.22"/>
<circle cx="1437" cy="668" r="1.2" fill="#fff" opacity="0.26"/>
<circle cx="1270" cy="458" r="2.3" fill="#fff" opacity="0.42"/>
<circle cx="937" cy="182" r="1.3" fill="#fff" opacity="0.43"/>
<circle cx="181" cy="763" r="2.3" fill="#fff" opacity="0.54"/>
<circle cx="405" cy="310" r="1.7" fill="#fff" opacity="0.30"/>
<circle cx="915" cy="763" r="2.3" fill="#fff" opacity="0.61"/>
<circle cx="731" cy="736" r="2.4" fill="#fff" opacity="0.44"/>
<circle cx="819" cy="126" r="1.4" fill="#fff" opacity="0.21"/>
<circle cx="1266" cy="19" r="1.5" fill="#fff" opacity="0.37"/>
<circle cx="1058" cy="176" r="1.4" fill="#fff" opacity="0.33"/>
<circle cx="1359" cy="921" r="1.8" fill="#fff" opacity="0.46"/>
<circle cx="1434" cy="293" r="1.0" fill="#fff" opacity="0.30"/>
<circle cx="577" cy="583" r="1.3" fill="#fff" opacity="0.45"/>
<circle cx="95" cy="232" r="0.7" fill="#fff" opacity="0.38"/>
<circle cx="835" cy="730" r="1.9" fill="#fff" opacity="0.39"/>
<circle cx="1210" cy="512" r="0.8" fill="#fff" opacity="0.27"/>
<circle cx="1027" cy="717" r="0.8" fill="#fff" opacity="0.47"/>
<circle cx="185" cy="440" r="2.3" fill="#fff" opacity="0.53"/>
<circle cx="745" cy="769" r="1.8" fill="#fff" opacity="0.57"/>
<circle cx="1155" cy="590" r="0.8" fill="#fff" opacity="0.45"/>
<circle cx="791" cy="14" r="1.4" fill="#fff" opacity="0.26"/>
<circle cx="656" cy="452" r="1.3" fill="#fff" opacity="0.23"/>
<circle cx="953" cy="100" r="1.8" fill="#fff" opacity="0.20"/>
<circle cx="348" cy="221" r="1.0" fill="#fff" opacity="0.40"/>
<circle cx="360" cy="331" r="1.8" fill="#fff" opacity="0.22"/>
<circle cx="1545" cy="599" r="2.1" fill="#fff" opacity="0.19"/>
<circle cx="338" cy="997" r="2.2" fill="#fff" opacity="0.49"/>
<circle cx="1575" cy="500" r="1.7" fill="#fff" opacity="0.57"/>
<circle cx="790" cy="503" r="2.1" fill="#fff" opacity="0.38"/>
<circle cx="1312" cy="870" r="1.2" fill="#fff" opacity="0.53"/>
<circle cx="815" cy="644" r="2.4" fill="#fff" opacity="0.52"/>
<circle cx="582" cy="887" r="1.1" fill="#fff" opacity="0.52"/>
<circle cx="610" cy="250" r="1.2" fill="#fff" opacity="0.54"/>
<circle cx="1532" cy="554" r="1.8" fill="#fff" opacity="0.46"/>
<circle cx="989" cy="667" r="0.8" fill="#fff" opacity="0.32"/>
<circle cx="550" cy="869" r="1.5" fill="#fff" opacity="0.59"/>
<circle cx="850" cy="677" r="1.4" fill="#fff" opacity="0.31"/>
<circle cx="485" cy="419" r="2.4" fill="#fff" opacity="0.47"/>
<circle cx="1307" cy="102" r="1.0" fill="#fff" opacity="0.56"/>
<circle cx="430" cy="603" r="1.0" fill="#fff" opacity="0.61"/>
<circle cx="792" cy="966" r="1.7" fill="#fff" opacity="0.39"/>
<circle cx="165" cy="739" r="1.2" fill="#fff" opacity="0.60"/>
<circle cx="78" cy="196" r="0.8" fill="#fff" opacity="0.39"/>
<circle cx="1543" cy="741" r="1.8" fill="#fff" opacity="0.45"/>
<circle cx="794" cy="648" r="1.3" fill="#fff" opacity="0.46"/>
<circle cx="1222" cy="163" r="0.7" fill="#fff" opacity="0.40"/>
<circle cx="674" cy="38" r="1.1" fill="#fff" opacity="0.20"/>
<circle cx="99" cy="235" r="1.5" fill="#fff" opacity="0.24"/>
<circle cx="1532" cy="890" r="2.3" fill="#fff" opacity="0.30"/>
<circle cx="1028" cy="434" r="1.0" fill="#fff" opacity="0.32"/>
<circle cx="652" cy="943" r="1.9" fill="#fff" opacity="0.54"/>
<circle cx="1551" cy="831" r="1.2" fill="#fff" opacity="0.25"/>
<circle cx="495" cy="231" r="1.3" fill="#fff" opacity="0.30"/>
<circle cx="870" cy="424" r="1.2" fill="#fff" opacity="0.49"/>
<circle cx="129" cy="812" r="1.5" fill="#fff" opacity="0.26"/>
<circle cx="1471" cy="668" r="2.3" fill="#fff" opacity="0.39"/>
<circle cx="1487" cy="872" r="2.1" fill="#fff" opacity="0.54"/>
<circle cx="1407" cy="623" r="0.8" fill="#fff" opacity="0.61"/>
<circle cx="1364" cy="504" r="0.7" fill="#fff" opacity="0.51"/>
<circle cx="830" cy="904" r="2.4" fill="#fff" opacity="0.25"/>
<circle cx="1021" cy="263" r="2.2" fill="#fff" opacity="0.36"/>
<circle cx="109" cy="530" r="0.7" fill="#fff" opacity="0.31"/>
<circle cx="700" cy="990" r="2.3" fill="#fff" opacity="0.30"/>
<circle cx="1377" cy="17" r="1.5" fill="#fff" opacity="0.33"/>
<circle cx="420" cy="199" r="2.1" fill="#fff" opacity="0.57"/>
<circle cx="616" cy="851" r="0.7" fill="#fff" opacity="0.22"/>
<circle cx="1589" cy="501" r="1.3" fill="#fff" opacity="0.26"/>
<circle cx="1309" cy="529" r="2.2" fill="#fff" opacity="0.25"/>
<circle cx="1302" cy="217" r="1.8" fill="#fff" opacity="0.30"/>
<circle cx="1376" cy="367" r="1.7" fill="#fff" opacity="0.29"/>
<circle cx="1238" cy="108" r="1.6" fill="#fff" opacity="0.59"/>
<circle cx="1466" cy="415" r="1.0" fill="#fff" opacity="0.31"/>
<circle cx="153" cy="520" r="1.8" fill="#fff" opacity="0.48"/>
<circle cx="550" cy="167" r="1.5" fill="#fff" opacity="0.52"/>
<circle cx="1059" cy="656" r="1.3" fill="#fff" opacity="0.36"/>
<circle cx="1135" cy="191" r="2.1" fill="#fff" opacity="0.42"/>
<circle cx="1051" cy="425" r="1.8" fill="#fff" opacity="0.56"/>
<circle cx="767" cy="93" r="1.2" fill="#fff" opacity="0.61"/>
<circle cx="29" cy="987" r="1.2" fill="#fff" opacity="0.57"/>
<circle cx="1551" cy="104" r="1.1" fill="#fff" opacity="0.55"/>
<circle cx="536" cy="332" r="2.3" fill="#fff" opacity="0.47"/>
<circle cx="834" cy="829" r="0.7" fill="#fff" opacity="0.36"/>
<circle cx="280" cy="297" r="2.3" fill="#fff" opacity="0.29"/>
  <rect width="1600" height="1000" fill="#000" opacity=".08"/>
</svg>