<svg xmlns="http://www.w3.org/2000/svg" viewBox="0 0 1600 1000" preserveAspectRatio="xMidYMid slice">
  <defs>
    <linearGradient id="g" x1="0" y1="0" x2="1" y2="1">
      <stop offset="0" stop-color="#2b2418"/>
      <stop offset=".58" stop-color="#5a3725"/>
      <stop offset="1" stop-color="#2b2418"/>
    </linearGradient>
    <radialGradient id="warm" cx=".18" cy=".12" r=".62">
      <stop offset="0" stop-color="#ffcf73" stop-opacity=".32"/>
      <stop offset="1" stop-color="#ffcf73" stop-opacity="0"/>
    </radialGradient>
    <radialGradient id="cool" cx=".86" cy=".24" r=".58">
      <stop offset="0" stop-color="#8adf92" stop-opacity=".24"/>
      <stop offset="1" stop-color="#8adf92" stop-opacity="0"/>
    </radialGradient>
  </defs>
  <rect width="1600" height="1000" fill="url(#g)"/>
  <rect width="1600" height="1000" fill="url(#warm)"/>
  <rect width="1600" height="1000" fill="url(#cool)"/>
  <circle cx="1280" cy="820" r="360" fill="#ffffff" opacity=".06"/>
  <circle cx="130" cy="930" r="310" fill="#ffffff" opacity=".05"/>
  <circle cx="139" cy="318" r="169" fill="#ef7460" opacity="0.11"/>
<circle cx="560" cy="89" r="88" fill="#8adf92" opacity="0.19"/>
<circle cx="162" cy="-14" r="222" fill="#ffcf73" opacity="0.11"/>
<circle cx="507" cy="1008" r="107" fill="#8adf92" opacity="0.16"/>
<circle cx="545" cy="865" r="118" fill="#ef7460" opacity="0.21"/>
<circle cx="214" cy="635" r="168" fill="#ffcf73" opacity="0.16"/>
<circle cx="1021" cy="806" r="157" fill="#ef7460" opacity="0.10"/>
<circle cx="515" cy="508" r="156" fill="#ef7460" opacity="0.15"/>
<circle cx="874" cy="641" r="234" fill="#ef7460" opacity="0.21"/>
<circle cx="527" cy="106" r="198" fill="#8adf92" opacity="0.17"/>
<circle cx="1542" cy="-71" r="75" fill="#ef7460" opacity="0.12"/>
<circle cx="739" cy="143" r="95" fill="#ef7460" opacity="0.10"/>
<circle cx="1429" cy="697" r="147" fill="#8adf92" opacity="0.11"/>
<circle cx="435" cy="57" r="174" fill="#ffcf73" opacity="0.16"/>
<circle cx="144" cy="563" r="154" fill="#ef7460" opacity="0.13"/>
<circle cx="12" cy="455" r="229" fill="#ef7460" opacity="0.17"/>
    <pattern id="plaid" width="96" height="96" patternUnits="userSpaceOnUse">
      <rect width="96" height="96" fill="transparent"/>
      <path d="M0 24H96 M0 72H96 M24 0V96 M72 0V96" stroke="#ffcf73" stroke-width="2" opacity=".18"/>
      <path d="M0 48H96 M48 0V96" stroke="#8adf92" stroke-width="8" opacity=".06"/>
    </pattern>
    <rect width="1600" height="1000" fill="url(#plaid)" opacity=".9"/><path d="M0 120 C280 30, 520 180, 800 90 S1300 40, 1600 120" fill="none" stroke="#fff" stroke-width="2" opacity=".22"/>
<ellipse cx="39" cy="112.0" rx="12" ry="18" fill="#ef7460" opacity=".82"/>
<circle cx="39" cy="112.0" r="38" fill="#ef7460" opacity=".10"/>
<ellipse cx="122" cy="136.1074631814833" rx="12" ry="18" fill="#ffcf73" opacity=".82"/>
<circle cx="122" cy="136.1074631814833" r="38" fill="#ffcf73" opacity=".10"/>
<ellipse cx="217" cy="148.98507610645268" rx="12" ry="18" fill="#ffcf73" opacity=".82"/>
<circle cx="217" cy="148.98507610645268" r="38" fill="#ffcf73" opacity=".10"/>
<ellipse cx="309" cy="130.64121131929028" rx="12" ry="18" fill="#ef7460" opacity=".82"/>
<circle cx="309" cy="130.64121131929028" r="38" fill="#ef7460" opacity=".10"/>
<ellipse cx="400" cy="112.9569049800347" rx="12" ry="18" fill="#ffcf73" opacity=".82"/>
<circle cx="400" cy="112.9569049800347" r="38" fill="#ffcf73" opacity=".10"/>
<ellipse cx="479" cy="82.5119126642225" rx="12" ry="18" fill="#8adf92" opacity=".82"/>
<circle cx="479" cy="82.5119126642225" r="38" fill="#8adf92" opacity=".10"/>
<ellipse cx="582" cy="78.13423869074558" rx="12" ry="18" fill="#8adf92" opacity=".82"/>
<circle cx="582" cy="78.13423869074558" r="38" fill="#8adf92" opacity=".10"/>
<ellipse cx="658" cy="92.90566767446877" rx="12" ry="18" fill="#ef7460" opacity=".82"/>
<circle cx="658" cy="92.90566767446877" r="38" fill="#ef7460" opacity=".10"/>
<ellipse cx="763" cy="116.07922216976728" rx="12" ry="18" fill="#ef7460" opacity=".82"/>
<circle cx="763" cy="116.07922216976728" r="38" fill="#ef7460" opacity=".10"/>
<ellipse cx="861" cy="137.77837523472036" rx="12" ry="18" fill="#ffcf73" opacity=".82"/>
<circle cx="861" cy="137.77837523472036" r="38" fill="#ffcf73" opacity=".10"/>
<ellipse cx="952" cy="145.62753863181837" rx="12" ry="18" fill="#ffcf73" opacity=".82"/>
<circle cx="952" cy="145.62753863181837" r="38" fill="#ffcf73" opacity=".10"/>
<ellipse cx="1032" cy="134.47210175121165" rx="12" ry="18" fill="#ffcf73" opacity=".82"/>
<circle cx="1032" cy="134.47210175121165" r="38" fill="#ffcf73" opacity=".10"/>
<ellipse cx="1109" cy="107.89856265719565" rx="12" ry="18" fill="#ef7460" opacity=".82"/>
<circle cx="1109" cy="107.89856265719565" r="38" fill="#ef7460" opacity=".10"/>
<ellipse cx="1219" cy="87.02607358200211" rx="12" ry="18" fill="#ef7460" opacity=".82"/>
<circle cx="1219" cy="87.02607358200211" r="38" fill="#ef7460" opacity=".10"/>
<ellipse cx="1294" cy="79.72877947970392" rx="12" ry="18" fill="#ffcf73" opacity=".82"/>
<circle cx="1294" cy="79.72877947970392" r="38" fill="#ffcf73" opacity=".10"/>
<ellipse cx="1401" cy="94.21994786998478" rx="12" ry="18" fill="#ffcf73" opacity=".82"/>
<circle cx="1401" cy="94.21994786998478" r="38" fill="#ffcf73" opacity=".10"/>
<ellipse cx="1488" cy="118.10284387855387" rx="12" ry="18" fill="#ffcf73" opacity=".82"/>
<circle cx="1488" cy="118.10284387855387" r="38" fill="#ffcf73" opacity=".10"/>
<ellipse cx="1573" cy="138.0706635199774" rx="12" ry="18" fill="#ef7460" opacity=".82"/>
<circle cx="1573" cy="138.0706635199774" r="38" fill="#ef7460" opacity=".10"/><circle cx="208" cy="596" r="2.1" fill="#fff" opacity="0.29"/>
<circle cx="951" cy="487" r="1.1" fill="#fff" opacity="0.55"/>
<circle cx="1430" cy="228" r="2.3" fill="#fff" opacity="0.52"/>
<circle cx="244" cy="574" r="1.0" fill="#fff" opacity="0.30"/>
<circle cx="587" cy="527" r="0.8" fill="#fff" opacity="0.49"/>
<circle cx="117" cy="915" r="1.9" fill="#fff" opacity="0.30"/>
<circle cx="1255" cy="367" r="1.3" fill="#fff" opacity="0.53"/>
<circle cx="953" cy="230" r="1.8" fill="#fff" opacity="0.49"/>
<circle cx="740" cy="783" r="1.2" fill="#fff" opacity="0.45"/>
<circle cx="630" cy="748" r="1.5" fill="#fff" opacity="0.56"/>
<circle cx="675" cy="642" r="2.1" fill="#fff" opacity="0.44"/>
<circle cx="1015" cy="651" r="2.0" fill="#fff" opacity="0.54"/>
<circle cx="439" cy="683" r="2.4" fill="#fff" opacity="0.20"/>
<circle cx="792" cy="986" r="0.8" fill="#fff" opacity="0.34"/>
<circle cx="1155" cy="137" r="1.8" fill="#fff" opacity="0.54"/>
<circle cx="554" cy="665" r="1.9" fill="#fff" opacity="0.25"/>
<circle cx="1369" cy="225" r="0.9" fill="#fff" opacity="0.25"/>
<circle cx="912" cy="242" r="0.7" fill="#fff" opacity="0.25"/>
<circle cx="1186" cy="488" r="2.3" fill="#fff" opacity="0.48"/>
<circle cx="792" cy="946" r="1.3" fill="#fff" opacity="0.31"/>
<circle cx="1245" cy="83" r="1.3" fill="#fff" opacity="0.26"/>
<circle cx="1318" cy="757" r="1.2" fill="#fff" opacity="0.62"/>
<circle cx="772" cy="534" r="2.4" fill="#fff" opacity="0.44"/>
<circle cx="1585" cy="665" r="1.4" fill="#fff" opacity="0.37"/>
<circle cx="218" cy="849" r="1.3" fill="#fff" opacity="0.42"/>
<circle cx="796" cy="174" r="2.1" fill="#fff" opacity="0.59"/>
<circle cx="209" cy="733" r="1.6" fill="#fff" opacity="0.35"/>
<circle cx="404" cy="239" r="1.5" fill="#fff" opacity="0.32"/>
<circle cx="349" cy="909" r="2.4" fill="#fff" opacity="0.43"/>
<circle cx="1230" cy="402" r="2.3" fill="#fff" opacity="0.53"/>
<circle cx="1516" cy="242" r="1.3" fill="#fff" opacity="0.27"/>
<circle cx="1534" cy="533" r="1.6" fill="#fff" opacity="0.55"/>
<circle cx="57" cy="75" r="0.9" fill="#fff" opacity="0.20"/>
<circle cx="1227" cy="685" r="2.0" fill="#fff" opacity="0.40"/>
<circle cx="890" cy="438" r="2.4" fill="#fff" opacity="0.51"/>
<circle cx="1544" cy="255" r="0.9" fill="#fff" opacity="0.38"/>
<circle cx="1418" cy="922" r="1.5" fill="#fff" opacity="0.19"/>
<circle cx="1052" cy="679" r="0.9" fill="#fff" opacity="0.46"/>
<circle cx="1058" cy="114" r="2.0" fill="#fff" opacity="0.43"/>
<circle cx="1270" cy="944" r="1.1" fill="#fff" opacity="0.22"/>
<circle cx="1016" cy="763" r="2.4" fill="#fff" opacity="0.59"/>
<circle cx="387" cy="926" r="1.1" fill="#fff" opacity="0.32"/>
<circle cx="428" cy="326" r="0.8" fill="#fff" opacity="0.24"/>
<circle cx="279" cy="134" r="2.1" fill="#fff" opacity="0.33"/>
<circle cx="64" cy="869" r="0.9" fill="#fff" opacity="0.62"/>
<circle cx="272" cy="677" r="1.5" fill="#fff" opacity="0.47"/>
<circle cx="796" cy="966" r="1.4" fill="#fff" opacity="0.27"/>
<circle cx="1270" cy="821" r="1.0" fill="#fff" opacity="0.22"/>
<circle cx="1521" cy="670" r="1.1" fill="#fff" opacity="0.35"/>
<circle cx="545" cy="319" r="2.0" fill="#fff" opacity="0.49"/>
<circle cx="196" cy="793" r="1.3" fill="#fff" opacity="0.54"/>
<circle cx="651" cy="176" r="1.2" fill="#fff" opacity="0.43"/>
<circle cx="304" cy="260" r="0.8" fill="#fff" opacity="0.21"/>
<circle cx="1256" cy="866" r="2.1" fill="#fff" opacity="0.29"/>
<circle cx="430" cy="534" r="2.3" fill="#fff" opacity="0.46"/>
<circle cx="1584" cy="312" r="2.3" fill="#fff" opacity="0.44"/>
<circle cx="68" cy="828" r="0.8" fill="#fff" opacity="0.26"/>
<circle cx="1135" cy="770" r="0.8" fill="#fff" opacity="0.32"/>
<circle cx="430" cy="931" r="1.8" fill="#fff" opacity="0.60"/>
<circle cx="961" cy="143" r="1.1" fill="#fff" opacity="0.21"/>
<circle cx="810" cy="384" r="1.1" fill="#fff" opacity="0.34"/>
<circle cx="940" cy="697" r="0.9" fill="#fff" opacity="0.49"/>
<circle cx="1258" cy="233" r="1.7" fill="#fff" opacity="0.22"/>
<circle cx="61" cy="229" r="0.9" fill="#fff" opacity="0.58"/>
<circle cx="1352" cy="955" r="1.2" fill="#fff" opacity="0.52"/>
<circle cx="859" cy="644" r="1.3" fill="#fff" opacity="0.39"/>
<circle cx="442" cy="967" r="2.1" fill="#fff" opacity="0.52"/>
<circle cx="1247" cy="241" r="0.8" fill="#fff" opacity="0.57"/>
<circle cx="415" cy="628" r="1.2" fill="#fff" opacity="0.32"/>
<circle cx="1113" cy="301" r="1.7" fill="#fff" opacity="0.52"/>
  <rect width="1600" height="1000" fill="#000" opacity=".08"/>
</svg>