<svg xmlns="http://www.w3.org/2000/svg" viewBox="0 0 1600 1000" preserveAspectRatio="xMidYMid slice">
  <defs>
    <linearGradient id="g" x1="0" y1="0" x2="1" y2="1">
      <stop offset="0" stop-color="#1b243a"/>
      <stop offset=".58" stop-color="#122f4a"/>
      <stop offset="1" stop-color="#1b243a"/>
    </linearGradient>
    <radialGradient id="warm" cx=".18" cy=".12" r=".62">
      <stop offset="0" stop-color="#dcefff" stop-opacity=".32"/>
      <stop offset="1" stop-color="#dcefff" stop-opacity="0"/>
    </radialGradient>
    <radialGradient id="cool" cx=".86" cy=".24" r=".58">
      <stop offset="0" stop-color="#90e4ff" stop-opacity=".24"/>
      <stop offset="1" stop-color="#90e4ff" stop-opacity="0"/>
    </radialGradient>
  </defs>
  <rect width="1600" height="1000" fill="url(#g)"/>
  <rect width="1600" height="1000" fill="url(#warm)"/>
  <rect width="1600" height="1000" fill="url(#cool)"/>
  <circle cx="1280" cy="820" r="360" fill="#ffffff" opacity=".06"/>
  <circle cx="130" cy="930" r="310" fill="#ffffff" opacity=".05"/>
  <circle cx="920" cy="1092" r="185" fill="#ff8a9c" opacity="0.19"/>
<circle cx="1327" cy="273" r="141" fill="#ff8a9c" opacity="0.18"/>
<circle cx="1264" cy="228" r="72" fill="#ff8a9c" opacity="0.22"/>
<circle cx="-79" cy="326" r="192" fill="#dcefff" opacity="0.13"/>
<circle cx="919" cy="618" r="135" fill="#ff8a9c" opacity="0.15"/>
<circle cx="-27" cy="693" r="174" fill="#90e4ff" opacity="0.21"/>
<circle cx="1331" cy="251" r="70" fill="#90e4ff" opacity="0.14"/>
<circle cx="-13" cy="335" r="184" fill="#90e4ff" opacity="0.17"/>
<circle cx="1586" cy="1020" r="217" fill="#90e4ff" opacity="0.18"/>
<circle cx="1653" cy="1063" r="159" fill="#90e4ff" opacity="0.15"/>
<circle cx="952" cy="112" r="219" fill="#dcefff" opacity="0.21"/>
<circle cx="1556" cy="754" r="198" fill="#ff8a9c" opacity="0.17"/>
<circle cx="613" cy="897" r="232" fill="#dcefff" opacity="0.21"/>
<circle cx="1361" cy="871" r="217" fill="#dcefff" opacity="0.09"/>
<circle cx="202" cy="70" r="123" fill="#ff8a9c" opacity="0.12"/>
<circle cx="1217" cy="275" r="199" fill="#dcefff" opacity="0.12"/><path d="M-124 1011 L-54 594 L16 1011 Z" fill="#071f18" opacity="0.33"/>
<path d="M-104 931 L-54 554 L-4 931 Z" fill="#071f18" opacity="0.38"/>
<path d="M111 1028 L181 762 L251 1028 Z" fill="#071f18" opacity="0.45"/>
<path d="M131 948 L181 722 L231 948 Z" fill="#071f18" opacity="0.50"/>
<path d="M303 1055 L373 669 L443 1055 Z" fill="#071f18" opacity="0.21"/>
<path d="M323 975 L373 629 L423 975 Z" fill="#071f18" opacity="0.26"/>
<path d="M488 1006 L558 597 L628 1006 Z" fill="#071f18" opacity="0.34"/>
<path d="M508 926 L558 557 L608 926 Z" fill="#071f18" opacity="0.39"/>
<path d="M673 1015 L743 685 L813 1015 Z" fill="#071f18" opacity="0.40"/>
<path d="M693 935 L743 645 L793 935 Z" fill="#071f18" opacity="0.45"/>
<path d="M863 972 L933 789 L1003 972 Z" fill="#071f18" opacity="0.32"/>
<path d="M883 892 L933 749 L983 892 Z" fill="#071f18" opacity="0.37"/>
<path d="M1065 1076 L1135 777 L1205 1076 Z" fill="#071f18" opacity="0.28"/>
<path d="M1085 996 L1135 737 L1185 996 Z" fill="#071f18" opacity="0.33"/>
<path d="M1258 1004 L1328 701 L1398 1004 Z" fill="#071f18" opacity="0.40"/>
<path d="M1278 924 L1328 661 L1378 924 Z" fill="#071f18" opacity="0.45"/>
<path d="M1436 1006 L1506 708 L1576 1006 Z" fill="#071f18" opacity="0.40"/>
<path d="M1456 926 L1506 668 L1556 926 Z" fill="#071f18" opacity="0.45"/>
<path d="M1580 1039 L1650 728 L1720 1039 Z" fill="#071f18" opacity="0.32"/>
<path d="M1600 959 L1650 688 L1700 959 Z" fill="#071f18" opacity="0.37"/><path d="M-100 420 C300 260, 600 600, 1000 420 S1400 270, 1700 460" fill="none" stroke="#90e4ff" stroke-width="34" opacity="0.14"/>
<path d="M-100 221 C300 61, 600 401, 1000 221 S1400 71, 1700 261" fill="none" stroke="#90e4ff" stroke-width="34" opacity="0.12"/>
<path d="M-100 339 C300 179, 600 519, 1000 339 S1400 189, 1700 379" fill="none" stroke="#dcefff" stroke-width="34" opacity="0.18"/>
<path d="M-100 125 C300 -35, 600 305, 1000 125 S1400 -25, 1700 165" fill="none" stroke="#ff8a9c" stroke-width="34" opacity="0.16"/>
<path d="M-100 703 C300 543, 600 883, 1000 703 S1400 553, 1700 743" fill="none" stroke="#dcefff" stroke-width="34" opacity="0.09"/>
<path d="M-100 642 C300 482, 600 822, 1000 642 S1400 492, 1700 682" fill="none" stroke="#ff8a9c" stroke-width="34" opacity="0.15"/><circle cx="1101" cy="461" r="0.8" fill="#fff" opacity="0.22"/>
<circle cx="1222" cy="26" r="1.8" fill="#fff" opacity="0.22"/>
<circle cx="1312" cy="397" r="0.9" fill="#fff" opacity="0.38"/>
<circle cx="1155" cy="529" r="1.3" fill="#fff" opacity="0.32"/>
<circle cx="592" cy="560" r="1.1" fill="#fff" opacity="0.26"/>
<circle cx="408" cy="275" r="1.1" fill="#fff" opacity="0.18"/>
<circle cx="1372" cy="317" r="0.8" fill="#fff" opacity="0.61"/>
<circle cx="396" cy="579" r="1.0" fill="#fff" opacity="0.28"/>
<circle cx="1108" cy="565" r="1.3" fill="#fff" opacity="0.39"/>
<circle cx="270" cy="200" r="1.5" fill="#fff" opacity="0.31"/>
<circle cx="1346" cy="17" r="1.1" fill="#fff" opacity="0.41"/>
<circle cx="1069" cy="236" r="2.0" fill="#fff" opacity="0.51"/>
<circle cx="1440" cy="225" r="2.2" fill="#fff" opacity="0.28"/>
<circle cx="488" cy="31" r="2.3" fill="#fff" opacity="0.22"/>
<circle cx="1286" cy="49" r="1.1" fill="#fff" opacity="0.50"/>
<circle cx="466" cy="770" r="1.8" fill="#fff" opacity="0.46"/>
<circle cx="311" cy="407" r="1.2" fill="#fff" opacity="0.25"/>
<circle cx="111" cy="192" r="2.4" fill="#fff" opacity="0.20"/>
<circle cx="145" cy="697" r="1.4" fill="#fff" opacity="0.25"/>
<circle cx="288" cy="314" r="2.0" fill="#fff" opacity="0.59"/>
<circle cx="367" cy="882" r="1.5" fill="#fff" opacity="0.44"/>
<circle cx="147" cy="757" r="2.3" fill="#fff" opacity="0.40"/>
<circle cx="530" cy="979" r="1.1" fill="#fff" opacity="0.39"/>
<circle cx="1144" cy="494" r="2.0" fill="#fff" opacity="0.30"/>
<circle cx="612" cy="470" r="1.8" fill="#fff" opacity="0.20"/>
<circle cx="639" cy="154" r="1.5" fill="#fff" opacity="0.30"/>
<circle cx="783" cy="266" r="1.0" fill="#fff" opacity="0.38"/>
<circle cx="1225" cy="7" r="2.1" fill="#fff" opacity="0.61"/>
<circle cx="527" cy="968" r="1.2" fill="#fff" opacity="0.43"/>
<circle cx="1466" cy="987" r="1.2" fill="#fff" opacity="0.62"/>
<circle cx="75" cy="262" r="1.0" fill="#fff" opacity="0.45"/>
<circle cx="1041" cy="277" r="2.3" fill="#fff" opacity="0.40"/>
<circle cx="414" cy="635" r="1.2" fill="#fff" opacity="0.57"/>
<circle cx="1484" cy="266" r="1.5" fill="#fff" opacity="0.39"/>
<circle cx="382" cy="202" r="1.5" fill="#fff" opacity="0.42"/>
<circle cx="13" cy="814" r="2.3" fill="#fff" opacity="0.27"/>
<circle cx="1050" cy="107" r="1.4" fill="#fff" opacity="0.27"/>
<circle cx="68" cy="803" r="1.6" fill="#fff" opacity="0.19"/>
<circle cx="905" cy="337" r="1.9" fill="#fff" opacity="0.26"/>
<circle cx="1536" cy="245" r="1.9" fill="#fff" opacity="0.23"/>
<circle cx="8" cy="170" r="2.3" fill="#fff" opacity="0.24"/>
<circle cx="708" cy="658" r="1.0" fill="#fff" opacity="0.59"/>
<circle cx="395" cy="244" r="1.6" fill="#fff" opacity="0.28"/>
<circle cx="701" cy="654" r="2.4" fill="#fff" opacity="0.42"/>
<circle cx="922" cy="416" r="0.8" fill="#fff" opacity="0.55"/>
<circle cx="1544" cy="286" r="2.2" fill="#fff" opacity="0.38"/>
<circle cx="1246" cy="443" r="1.9" fill="#fff" opacity="0.40"/>
<circle cx="735" cy="244" r="1.0" fill="#fff" opacity="0.27"/>
<circle cx="366" cy="278" r="2.3" fill="#fff" opacity="0.29"/>
<circle cx="431" cy="396" r="1.8" fill="#fff" opacity="0.58"/>
<circle cx="1179" cy="347" r="1.7" fill="#fff" opacity="0.53"/>
<circle cx="1432" cy="263" r="0.9" fill="#fff" opacity="0.50"/>
<circle cx="717" cy="734" r="1.2" fill="#fff" opacity="0.21"/>
<circle cx="358" cy="374" r="1.1" fill="#fff" opacity="0.37"/>
<circle cx="1552" cy="643" r="1.7" fill="#fff" opacity="0.44"/>
<circle cx="680" cy="480" r="1.6" fill="#fff" opacity="0.50"/>
<circle cx="535" cy="589" r="2.3" fill="#fff" opacity="0.48"/>
<circle cx="703" cy="702" r="1.2" fill="#fff" opacity="0.44"/>
<circle cx="349" cy="898" r="1.1" fill="#fff" opacity="0.41"/>
<circle cx="1186" cy="284" r="1.8" fill="#fff" opacity="0.47"/>
<circle cx="19" cy="706" r="2.2" fill="#fff" opacity="0.42"/>
<circle cx="1254" cy="550" r="2.2" fill="#fff" opacity="0.61"/>
<circle cx="24" cy="532" r="1.0" fill="#fff" opacity="0.39"/>
<circle cx="865" cy="534" r="0.7" fill="#fff" opacity="0.41"/>
<circle cx="715" cy="305" r="1.5" fill="#fff" opacity="0.30"/>
<circle cx="312" cy="748" r="1.6" fill="#fff" opacity="0.40"/>
<circle cx="1118" cy="497" r="0.8" fill="#fff" opacity="0.50"/>
<circle cx="928" cy="847" r="1.3" fill="#fff" opacity="0.58"/>
<circle cx="1581" cy="436" r="1.3" fill="#fff" opacity="0.32"/>
<circle cx="1434" cy="812" r="1.3" fill="#fff" opacity="0.28"/>
<circle cx="184" cy="735" r="1.3" fill="#fff" opacity="0.32"/>
<circle cx="142" cy="61" r="1.4" fill="#fff" opacity="0.60"/>
<circle cx="1236" cy="207" r="0.7" fill="#fff" opacity="0.40"/>
<circle cx="125" cy="820" r="1.8" fill="#fff" opacity="0.52"/>
<circle cx="135" cy="393" r="1.0" fill="#fff" opacity="0.38"/>
<circle cx="1159" cy="679" r="1.7" fill="#fff" opacity="0.21"/>
<circle cx="380" cy="963" r="1.0" fill="#fff" opacity="0.30"/>
<circle cx="1220" cy="167" r="2.0" fill="#fff" opacity="0.45"/>
<circle cx="289" cy="972" r="0.7" fill="#fff" opacity="0.40"/>
<circle cx="690" cy="580" r="1.0" fill="#fff" opacity="0.39"/>
<circle cx="1298" cy="160" r="1.5" fill="#fff" opacity="0.38"/>
<circle cx="507" cy="705" r="1.0" fill="#fff" opacity="0.33"/>
<circle cx="296" cy="136" r="1.4" fill="#fff" opacity="0.60"/>
<circle cx="639" cy="301" r="2.1" fill="#fff" opacity="0.52"/>
<circle cx="428" cy="599" r="2.0" fill="#fff" opacity="0.20"/>
<circle cx="1086" cy="57" r="1.7" fill="#fff" opacity="0.51"/>
<circle cx="1301" cy="887" r="1.3" fill="#fff" opacity="0.41"/>
<circle cx="980" cy="224" r="0.8" fill="#fff" opacity="0.54"/>
<circle cx="138" cy="836" r="2.3" fill="#fff" opacity="0.39"/>
<circle cx="849" cy="992" r="0.8" fill="#fff" opacity="0.36"/>
  <rect width="1600" height="1000" fill="#000" opacity=".08"/>
</svg>