<svg xmlns="http://www.w3.org/2000/svg" viewBox="0 0 1600 1000" preserveAspectRatio="xMidYMid slice">
  <defs>
    <linearGradient id="g" x1="0" y1="0" x2="1" y2="1">
      <stop offset="0" stop-color="#2a1320"/>
      <stop offset=".58" stop-color="#4a2938"/>
      <stop offset="1" stop-color="#2a1320"/>
    </linearGradient>
    <radialGradient id="warm" cx=".18" cy=".12" r=".62">
      <stop offset="0" stop-color="#ffd580" stop-opacity=".32"/>
      <stop offset="1" stop-color="#ffd580" stop-opacity="0"/>
    </radialGradient>
    <radialGradient id="cool" cx=".86" cy=".24" r=".58">
      <stop offset="0" stop-color="#96e69b" stop-opacity=".24"/>
      <stop offset="1" stop-color="#96e69b" stop-opacity="0"/>
    </radialGradient>
  </defs>
  <rect width="1600" height="1000" fill="url(#g)"/>
  <rect width="1600" height="1000" fill="url(#warm)"/>
  <rect width="1600" height="1000" fill="url(#cool)"/>
  <circle cx="1280" cy="820" r="360" fill="#ffffff" opacity=".06"/>
  <circle cx="130" cy="930" r="310" fill="#ffffff" opacity=".05"/>
  <circle cx="-66" cy="66" r="203" fill="#ffd580" opacity="0.21"/>
<circle cx="165" cy="76" r="102" fill="#f06776" opacity="0.18"/>
<circle cx="1046" cy="449" r="166" fill="#ffd580" opacity="0.18"/>
<circle cx="1400" cy="233" r="95" fill="#f06776" opacity="0.22"/>
<circle cx="689" cy="483" r="189" fill="#96e69b" opacity="0.15"/>
<circle cx="1402" cy="45" r="162" fill="#f06776" opacity="0.18"/>
<circle cx="897" cy="768" r="165" fill="#96e69b" opacity="0.17"/>
<circle cx="1543" cy="642" r="208" fill="#ffd580" opacity="0.18"/>
<circle cx="375" cy="820" r="105" fill="#f06776" opacity="0.14"/>
<circle cx="1248" cy="579" r="113" fill="#f06776" opacity="0.18"/>
<circle cx="1192" cy="1044" r="96" fill="#ffd580" opacity="0.14"/>
<circle cx="1489" cy="335" r="178" fill="#96e69b" opacity="0.12"/>
<circle cx="1525" cy="1039" r="114" fill="#f06776" opacity="0.17"/>
<circle cx="660" cy="-30" r="130" fill="#96e69b" opacity="0.21"/>
<circle cx="1011" cy="408" r="223" fill="#96e69b" opacity="0.16"/>
<circle cx="1229" cy="191" r="222" fill="#f06776" opacity="0.12"/>
    <pattern id="plaid" width="96" height="96" patternUnits="userSpaceOnUse">
      <rect width="96" height="96" fill="transparent"/>
      <path d="M0 24H96 M0 72H96 M24 0V96 M72 0V96" stroke="#ffd580" stroke-width="2" opacity=".18"/>
      <path d="M0 48H96 M48 0V96" stroke="#96e69b" stroke-width="8" opacity=".06"/>
    </pattern>
    <rect width="1600" height="1000" fill="url(#plaid)" opacity=".9"/><circle cx="859" cy="197" r="1.2" fill="#fff" opacity="0.60"/>
<circle cx="125" cy="409" r="1.3" fill="#fff" opacity="0.53"/>
<circle cx="1420" cy="618" r="1.1" fill="#fff" opacity="0.23"/>
<circle cx="887" cy="291" r="0.9" fill="#fff" opacity="0.23"/>
<circle cx="1117" cy="741" r="1.1" fill="#fff" opacity="0.60"/>
<circle cx="1481" cy="138" r="1.1" fill="#fff" opacity="0.24"/>
<circle cx="1368" cy="510" r="2.4" fill="#fff" opacity="0.45"/>
<circle cx="1106" cy="430" r="1.0" fill="#fff" opacity="0.27"/>
<circle cx="1196" cy="60" r="0.7" fill="#fff" opacity="0.32"/>
<circle cx="709" cy="584" r="1.0" fill="#fff" opacity="0.47"/>
<circle cx="616" cy="604" r="1.4" fill="#fff" opacity="0.30"/>
<circle cx="816" cy="516" r="1.8" fill="#fff" opacity="0.20"/>
<circle cx="1182" cy="844" r="2.1" fill="#fff" opacity="0.31"/>
<circle cx="1001" cy="414" r="1.5" fill="#fff" opacity="0.61"/>
<circle cx="547" cy="199" r="0.8" fill="#fff" opacity="0.19"/>
<circle cx="450" cy="498" r="1.4" fill="#fff" opacity="0.21"/>
<circle cx="572" cy="187" r="2.0" fill="#fff" opacity="0.49"/>
<circle cx="1295" cy="284" r="2.0" fill="#fff" opacity="0.44"/>
<circle cx="1551" cy="964" r="2.3" fill="#fff" opacity="0.59"/>
<circle cx="1542" cy="677" r="2.1" fill="#fff" opacity="0.40"/>
<circle cx="1469" cy="812" r="2.2" fill="#fff" opacity="0.30"/>
<circle cx="1176" cy="268" r="1.8" fill="#fff" opacity="0.40"/>
<circle cx="627" cy="565" r="1.9" fill="#fff" opacity="0.45"/>
<circle cx="1210" cy="15" r="1.3" fill="#fff" opacity="0.52"/>
<circle cx="1446" cy="368" r="2.0" fill="#fff" opacity="0.18"/>
<circle cx="413" cy="958" r="1.9" fill="#fff" opacity="0.52"/>
<circle cx="854" cy="514" r="1.3" fill="#fff" opacity="0.33"/>
<circle cx="1457" cy="500" r="1.9" fill="#fff" opacity="0.49"/>
<circle cx="1424" cy="464" r="1.9" fill="#fff" opacity="0.51"/>
<circle cx="801" cy="779" r="2.0" fill="#fff" opacity="0.55"/>
<circle cx="1520" cy="464" r="2.3" fill="#fff" opacity="0.42"/>
<circle cx="1331" cy="231" r="1.7" fill="#fff" opacity="0.44"/>
<circle cx="341" cy="214" r="1.3" fill="#fff" opacity="0.55"/>
<circle cx="163" cy="51" r="1.9" fill="#fff" opacity="0.41"/>
<circle cx="1141" cy="768" r="1.7" fill="#fff" opacity="0.29"/>
<circle cx="1065" cy="788" r="1.8" fill="#fff" opacity="0.57"/>
<circle cx="1577" cy="293" r="1.8" fill="#fff" opacity="0.28"/>
<circle cx="617" cy="345" r="1.9" fill="#fff" opacity="0.24"/>
<circle cx="228" cy="981" r="1.6" fill="#fff" opacity="0.62"/>
<circle cx="1181" cy="269" r="0.8" fill="#fff" opacity="0.33"/>
<circle cx="431" cy="224" r="2.3" fill="#fff" opacity="0.43"/>
<circle cx="828" cy="215" r="1.3" fill="#fff" opacity="0.59"/>
<circle cx="560" cy="715" r="2.4" fill="#fff" opacity="0.29"/>
<circle cx="243" cy="891" r="1.0" fill="#fff" opacity="0.54"/>
<circle cx="1485" cy="496" r="0.9" fill="#fff" opacity="0.46"/>
<circle cx="417" cy="804" r="2.0" fill="#fff" opacity="0.26"/>
<circle cx="108" cy="260" r="1.7" fill="#fff" opacity="0.50"/>
<circle cx="1594" cy="776" r="1.5" fill="#fff" opacity="0.34"/>
<circle cx="733" cy="356" r="1.3" fill="#fff" opacity="0.59"/>
<circle cx="796" cy="606" r="0.7" fill="#fff" opacity="0.56"/>
<circle cx="1384" cy="297" r="1.5" fill="#fff" opacity="0.52"/>
<circle cx="221" cy="809" r="1.9" fill="#fff" opacity="0.60"/>
<circle cx="644" cy="157" r="0.9" fill="#fff" opacity="0.31"/>
<circle cx="355" cy="252" r="2.0" fill="#fff" opacity="0.29"/>
<circle cx="1329" cy="28" r="0.7" fill="#fff" opacity="0.36"/>
<circle cx="1568" cy="914" r="1.4" fill="#fff" opacity="0.55"/>
<circle cx="192" cy="731" r="2.2" fill="#fff" opacity="0.40"/>
<circle cx="922" cy="905" r="1.8" fill="#fff" opacity="0.24"/>
<circle cx="789" cy="504" r="2.3" fill="#fff" opacity="0.31"/>
<circle cx="1368" cy="522" r="1.3" fill="#fff" opacity="0.58"/>
<circle cx="917" cy="949" r="1.9" fill="#fff" opacity="0.49"/>
<circle cx="667" cy="226" r="0.9" fill="#fff" opacity="0.58"/>
<circle cx="556" cy="981" r="1.0" fill="#fff" opacity="0.56"/>
<circle cx="1528" cy="305" r="2.4" fill="#fff" opacity="0.62"/>
<circle cx="558" cy="342" r="1.5" fill="#fff" opacity="0.31"/>
<circle cx="21" cy="648" r="1.1" fill="#fff" opacity="0.25"/>
<circle cx="1139" cy="34" r="0.8" fill="#fff" opacity="0.46"/>
<circle cx="634" cy="583" r="1.4" fill="#fff" opacity="0.56"/>
<circle cx="1575" cy="124" r="1.7" fill="#fff" opacity="0.53"/>
<circle cx="668" cy="489" r="1.0" fill="#fff" opacity="0.39"/>
<circle cx="746" cy="566" r="1.5" fill="#fff" opacity="0.39"/>
<circle cx="228" cy="710" r="1.1" fill="#fff" opacity="0.47"/>
<circle cx="1472" cy="185" r="2.1" fill="#fff" opacity="0.57"/>
<circle cx="1025" cy="771" r="1.7" fill="#fff" opacity="0.43"/>
<circle cx="584" cy="515" r="1.1" fill="#fff" opacity="0.23"/>
<circle cx="695" cy="653" r="2.3" fill="#fff" opacity="0.41"/>
<circle cx="346" cy="322" r="1.2" fill="#fff" opacity="0.21"/>
<circle cx="1422" cy="481" r="1.4" fill="#fff" opacity="0.48"/>
<circle cx="811" cy="395" r="1.4" fill="#fff" opacity="0.43"/>
<circle cx="701" cy="795" r="1.7" fill="#fff" opacity="0.59"/>
<circle cx="12" cy="8" r="2.3" fill="#fff" opacity="0.41"/>
<circle cx="308" cy="140" r="2.4" fill="#fff" opacity="0.59"/>
<circle cx="1143" cy="506" r="1.5" fill="#fff" opacity="0.24"/>
<circle cx="824" cy="266" r="1.2" fill="#fff" opacity="0.25"/>
<circle cx="472" cy="524" r="1.2" fill="#fff" opacity="0.60"/>
<circle cx="527" cy="565" r="2.3" fill="#fff" opacity="0.25"/>
<circle cx="210" cy="875" r="1.3" fill="#fff" opacity="0.42"/>
<circle cx="641" cy="634" r="1.6" fill="#fff" opacity="0.38"/>
<circle cx="987" cy="372" r="0.8" fill="#fff" opacity="0.61"/>
<circle cx="1208" cy="257" r="1.2" fill="#fff" opacity="0.49"/>
<circle cx="114" cy="917" r="1.0" fill="#fff" opacity="0.46"/>
<circle cx="1571" cy="626" r="1.4" fill="#fff" opacity="0.36"/>
<circle cx="1477" cy="700" r="0.9" fill="#fff" opacity="0.48"/>
<circle cx="883" cy="533" r="1.3" fill="#fff" opacity="0.59"/>
<circle cx="1151" cy="57" r="0.9" fill="#fff" opacity="0.30"/>
<circle cx="136" cy="362" r="1.4" fill="#fff" opacity="0.44"/>
<circle cx="1054" cy="464" r="0.8" fill="#fff" opacity="0.60"/>
<circle cx="1592" cy="221" r="1.2" fill="#fff" opacity="0.38"/>
<circle cx="1168" cy="723" r="2.0" fill="#fff" opacity="0.45"/>
<circle cx="662" cy="764" r="1.9" fill="#fff" opacity="0.25"/>
<circle cx="487" cy="960" r="2.1" fill="#fff" opacity="0.50"/>
<circle cx="1378" cy="244" r="0.8" fill="#fff" opacity="0.25"/>
<circle cx="1107" cy="286" r="1.7" fill="#fff" opacity="0.29"/>
<circle cx="887" cy="314" r="0.7" fill="#fff" opacity="0.29"/>
<circle cx="1515" cy="683" r="2.0" fill="#fff" opacity="0.20"/>
<circle cx="570" cy="166" r="1.8" fill="#fff" opacity="0.53"/>
<circle cx="414" cy="148" r="1.3" fill="#fff" opacity="0.50"/>
<circle cx="1256" cy="229" r="1.9" fill="#fff" opacity="0.43"/>
<circle cx="1341" cy="716" r="1.9" fill="#fff" opacity="0.54"/>
<circle cx="257" cy="310" r="1.1" fill="#fff" opacity="0.26"/>
  <rect width="1600" height="1000" fill="#000" opacity=".08"/>
</svg>