<svg xmlns="http://www.w3.org/2000/svg" viewBox="0 0 1600 1000" preserveAspectRatio="xMidYMid slice">
  <defs>
    <linearGradient id="g" x1="0" y1="0" x2="1" y2="1">
      <stop offset="0" stop-color="#16331f"/>
      <stop offset=".58" stop-color="#364d2c"/>
      <stop offset="1" stop-color="#16331f"/>
    </linearGradient>
    <radialGradient id="warm" cx=".18" cy=".12" r=".62">
      <stop offset="0" stop-color="#fff0b3" stop-opacity=".32"/>
      <stop offset="1" stop-color="#fff0b3" stop-opacity="0"/>
    </radialGradient>
    <radialGradient id="cool" cx=".86" cy=".24" r=".58">
      <stop offset="0" stop-color="#70d494" stop-opacity=".24"/>
      <stop offset="1" stop-color="#70d494" stop-opacity="0"/>
    </radialGradient>
  </defs>
  <rect width="1600" height="1000" fill="url(#g)"/>
  <rect width="1600" height="1000" fill="url(#warm)"/>
  <rect width="1600" height="1000" fill="url(#cool)"/>
  <circle cx="1280" cy="820" r="360" fill="#ffffff" opacity=".06"/>
  <circle cx="130" cy="930" r="310" fill="#ffffff" opacity=".05"/>
  <circle cx="422" cy="92" r="129" fill="#fff0b3" opacity="0.12"/>
<circle cx="754" cy="734" r="230" fill="#70d494" opacity="0.19"/>
<circle cx="1636" cy="1037" r="161" fill="#e85d67" opacity="0.17"/>
<circle cx="901" cy="259" r="160" fill="#fff0b3" opacity="0.11"/>
<circle cx="987" cy="143" r="186" fill="#fff0b3" opacity="0.19"/>
<circle cx="117" cy="843" r="199" fill="#e85d67" opacity="0.20"/>
<circle cx="407" cy="862" r="231" fill="#e85d67" opacity="0.13"/>
<circle cx="677" cy="465" r="114" fill="#70d494" opacity="0.08"/>
<circle cx="836" cy="669" r="121" fill="#70d494" opacity="0.19"/>
<circle cx="904" cy="1022" r="233" fill="#70d494" opacity="0.13"/>
<circle cx="1127" cy="728" r="155" fill="#e85d67" opacity="0.16"/>
<circle cx="284" cy="-73" r="80" fill="#e85d67" opacity="0.22"/>
<circle cx="586" cy="419" r="144" fill="#e85d67" opacity="0.16"/>
<circle cx="1611" cy="1090" r="171" fill="#e85d67" opacity="0.20"/>
<circle cx="741" cy="806" r="202" fill="#e85d67" opacity="0.13"/>
<circle cx="1205" cy="1002" r="239" fill="#e85d67" opacity="0.18"/><circle cx="489" cy="276" r="1.5" fill="#fff" opacity="0.57"/>
<circle cx="391" cy="609" r="1.8" fill="#fff" opacity="0.46"/>
<circle cx="564" cy="420" r="1.1" fill="#fff" opacity="0.24"/>
<circle cx="167" cy="777" r="1.2" fill="#fff" opacity="0.40"/>
<circle cx="1154" cy="803" r="2.2" fill="#fff" opacity="0.45"/>
<circle cx="84" cy="134" r="1.7" fill="#fff" opacity="0.43"/>
<circle cx="971" cy="373" r="0.8" fill="#fff" opacity="0.59"/>
<circle cx="146" cy="81" r="1.0" fill="#fff" opacity="0.19"/>
<circle cx="343" cy="953" r="0.8" fill="#fff" opacity="0.50"/>
<circle cx="931" cy="249" r="2.1" fill="#fff" opacity="0.49"/>
<circle cx="1073" cy="777" r="1.1" fill="#fff" opacity="0.22"/>
<circle cx="1238" cy="23" r="2.3" fill="#fff" opacity="0.36"/>
<circle cx="932" cy="879" r="0.7" fill="#fff" opacity="0.20"/>
<circle cx="1314" cy="793" r="2.1" fill="#fff" opacity="0.24"/>
<circle cx="283" cy="678" r="2.3" fill="#fff" opacity="0.21"/>
<circle cx="922" cy="131" r="2.2" fill="#fff" opacity="0.26"/>
<circle cx="1537" cy="965" r="1.1" fill="#fff" opacity="0.60"/>
<circle cx="582" cy="481" r="1.0" fill="#fff" opacity="0.24"/>
<circle cx="528" cy="116" r="1.0" fill="#fff" opacity="0.36"/>
<circle cx="1164" cy="447" r="1.0" fill="#fff" opacity="0.48"/>
<circle cx="1159" cy="925" r="1.6" fill="#fff" opacity="0.23"/>
<circle cx="393" cy="909" r="2.3" fill="#fff" opacity="0.57"/>
<circle cx="1349" cy="729" r="1.2" fill="#fff" opacity="0.49"/>
<circle cx="526" cy="307" r="1.4" fill="#fff" opacity="0.47"/>
<circle cx="487" cy="509" r="2.2" fill="#fff" opacity="0.31"/>
<circle cx="1200" cy="207" r="1.4" fill="#fff" opacity="0.29"/>
<circle cx="492" cy="430" r="2.0" fill="#fff" opacity="0.19"/>
<circle cx="731" cy="290" r="1.9" fill="#fff" opacity="0.53"/>
<circle cx="721" cy="423" r="2.1" fill="#fff" opacity="0.48"/>
<circle cx="906" cy="186" r="1.8" fill="#fff" opacity="0.39"/>
<circle cx="574" cy="801" r="1.5" fill="#fff" opacity="0.24"/>
<circle cx="739" cy="15" r="1.7" fill="#fff" opacity="0.42"/>
<circle cx="18" cy="495" r="1.0" fill="#fff" opacity="0.19"/>
<circle cx="879" cy="201" r="2.1" fill="#fff" opacity="0.29"/>
<circle cx="1446" cy="866" r="1.2" fill="#fff" opacity="0.20"/>
<circle cx="727" cy="513" r="1.4" fill="#fff" opacity="0.57"/>
<circle cx="1329" cy="595" r="2.0" fill="#fff" opacity="0.28"/>
<circle cx="484" cy="668" r="0.9" fill="#fff" opacity="0.26"/>
<circle cx="634" cy="502" r="2.1" fill="#fff" opacity="0.55"/>
<circle cx="1429" cy="490" r="1.5" fill="#fff" opacity="0.24"/>
<circle cx="312" cy="227" r="1.8" fill="#fff" opacity="0.31"/>
<circle cx="1505" cy="614" r="2.3" fill="#fff" opacity="0.21"/>
<circle cx="1408" cy="532" r="2.2" fill="#fff" opacity="0.50"/>
<circle cx="996" cy="310" r="1.6" fill="#fff" opacity="0.46"/>
<circle cx="417" cy="9" r="1.3" fill="#fff" opacity="0.27"/>
<circle cx="1222" cy="622" r="2.0" fill="#fff" opacity="0.31"/>
<circle cx="1429" cy="983" r="2.1" fill="#fff" opacity="0.55"/>
<circle cx="1435" cy="137" r="0.7" fill="#fff" opacity="0.39"/>
<circle cx="706" cy="164" r="1.0" fill="#fff" opacity="0.60"/>
<circle cx="1251" cy="334" r="1.5" fill="#fff" opacity="0.40"/>
<circle cx="739" cy="207" r="1.4" fill="#fff" opacity="0.33"/>
<circle cx="813" cy="819" r="2.1" fill="#fff" opacity="0.24"/>
<circle cx="286" cy="885" r="2.2" fill="#fff" opacity="0.24"/>
<circle cx="747" cy="866" r="1.8" fill="#fff" opacity="0.43"/>
<circle cx="1073" cy="710" r="1.2" fill="#fff" opacity="0.22"/>
<circle cx="1479" cy="941" r="2.3" fill="#fff" opacity="0.21"/>
<circle cx="5" cy="845" r="2.3" fill="#fff" opacity="0.52"/>
<circle cx="1289" cy="524" r="1.0" fill="#fff" opacity="0.55"/>
<circle cx="1034" cy="269" r="2.3" fill="#fff" opacity="0.28"/>
<circle cx="1576" cy="979" r="1.5" fill="#fff" opacity="0.22"/>
<circle cx="157" cy="912" r="2.0" fill="#fff" opacity="0.48"/>
<circle cx="1142" cy="918" r="0.8" fill="#fff" opacity="0.19"/>
<circle cx="288" cy="198" r="1.0" fill="#fff" opacity="0.55"/>
<circle cx="1590" cy="662" r="2.1" fill="#fff" opacity="0.50"/>
<circle cx="201" cy="887" r="0.9" fill="#fff" opacity="0.30"/>
<circle cx="1395" cy="517" r="0.8" fill="#fff" opacity="0.28"/>
<circle cx="1202" cy="26" r="2.1" fill="#fff" opacity="0.57"/>
<circle cx="576" cy="425" r="1.0" fill="#fff" opacity="0.34"/>
<circle cx="970" cy="971" r="1.7" fill="#fff" opacity="0.57"/>
<circle cx="1301" cy="53" r="1.3" fill="#fff" opacity="0.60"/>
<circle cx="189" cy="829" r="1.8" fill="#fff" opacity="0.24"/>
<circle cx="884" cy="133" r="1.9" fill="#fff" opacity="0.36"/>
<circle cx="234" cy="549" r="1.4" fill="#fff" opacity="0.52"/>
<circle cx="1447" cy="405" r="2.4" fill="#fff" opacity="0.62"/>
<circle cx="314" cy="937" r="0.8" fill="#fff" opacity="0.21"/>
<circle cx="1166" cy="548" r="1.2" fill="#fff" opacity="0.56"/>
<circle cx="792" cy="344" r="1.6" fill="#fff" opacity="0.34"/>
<circle cx="1482" cy="969" r="1.7" fill="#fff" opacity="0.25"/>
<circle cx="318" cy="24" r="1.7" fill="#fff" opacity="0.54"/>
<circle cx="644" cy="22" r="1.4" fill="#fff" opacity="0.59"/>
<circle cx="174" cy="657" r="0.9" fill="#fff" opacity="0.32"/>
<circle cx="1308" cy="831" r="1.8" fill="#fff" opacity="0.60"/>
<circle cx="492" cy="121" r="2.2" fill="#fff" opacity="0.56"/>
<circle cx="714" cy="774" r="0.9" fill="#fff" opacity="0.24"/>
<circle cx="813" cy="277" r="1.6" fill="#fff" opacity="0.30"/>
<circle cx="1481" cy="575" r="1.0" fill="#fff" opacity="0.34"/>
<circle cx="491" cy="808" r="0.8" fill="#fff" opacity="0.24"/>
<circle cx="102" cy="762" r="0.7" fill="#fff" opacity="0.46"/>
<circle cx="1100" cy="889" r="1.5" fill="#fff" opacity="0.56"/>
<circle cx="435" cy="872" r="0.8" fill="#fff" opacity="0.57"/>
<circle cx="513" cy="412" r="1.2" fill="#fff" opacity="0.23"/>
<circle cx="1233" cy="602" r="2.1" fill="#fff" opacity="0.47"/>
<circle cx="1574" cy="665" r="2.1" fill="#fff" opacity="0.40"/>
<circle cx="22" cy="997" r="0.8" fill="#fff" opacity="0.54"/>
<circle cx="1592" cy="759" r="1.1" fill="#fff" opacity="0.19"/>
<circle cx="915" cy="857" r="1.8" fill="#fff" opacity="0.42"/>
<circle cx="1584" cy="882" r="1.5" fill="#fff" opacity="0.18"/>
<circle cx="299" cy="502" r="0.8" fill="#fff" opacity="0.58"/>
<circle cx="696" cy="299" r="1.8" fill="#fff" opacity="0.54"/>
<circle cx="1018" cy="334" r="1.4" fill="#fff" opacity="0.34"/>
<circle cx="1199" cy="823" r="1.0" fill="#fff" opacity="0.33"/>
<circle cx="184" cy="997" r="0.8" fill="#fff" opacity="0.29"/>
<circle cx="490" cy="728" r="1.6" fill="#fff" opacity="0.20"/>
<circle cx="1215" cy="409" r="1.3" fill="#fff" opacity="0.33"/>
<circle cx="390" cy="128" r="1.0" fill="#fff" opacity="0.31"/>
<circle cx="707" cy="849" r="1.4" fill="#fff" opacity="0.56"/>
<circle cx="1384" cy="763" r="1.7" fill="#fff" opacity="0.46"/>
<circle cx="564" cy="91" r="2.3" fill="#fff" opacity="0.50"/>
<circle cx="678" cy="539" r="1.7" fill="#fff" opacity="0.55"/>
<circle cx="895" cy="136" r="1.5" fill="#fff" opacity="0.34"/>
<circle cx="1110" cy="351" r="1.8" fill="#fff" opacity="0.19"/>
<circle cx="1439" cy="412" r="2.2" fill="#fff" opacity="0.45"/>
<circle cx="1119" cy="105" r="1.1" fill="#fff" opacity="0.36"/>
<circle cx="1098" cy="922" r="1.7" fill="#fff" opacity="0.56"/>
<circle cx="995" cy="254" r="1.2" fill="#fff" opacity="0.57"/>
<circle cx="61" cy="579" r="2.0" fill="#fff" opacity="0.48"/>
<circle cx="1279" cy="423" r="1.3" fill="#fff" opacity="0.62"/>
<circle cx="1149" cy="497" r="0.8" fill="#fff" opacity="0.60"/>
<circle cx="257" cy="989" r="1.9" fill="#fff" opacity="0.22"/>
<circle cx="821" cy="763" r="1.3" fill="#fff" opacity="0.21"/>
<circle cx="503" cy="844" r="1.9" fill="#fff" opacity="0.30"/>
<circle cx="63" cy="927" r="0.7" fill="#fff" opacity="0.33"/>
<circle cx="707" cy="616" r="1.0" fill="#fff" opacity="0.26"/>
<circle cx="1270" cy="877" r="1.2" fill="#fff" opacity="0.37"/>
<circle cx="1229" cy="481" r="2.1" fill="#fff" opacity="0.22"/>
<circle cx="1515" cy="673" r="2.2" fill="#fff" opacity="0.32"/>
<circle cx="1535" cy="910" r="2.3" fill="#fff" opacity="0.34"/>
<circle cx="816" cy="862" r="1.8" fill="#fff" opacity="0.59"/>
<circle cx="1068" cy="673" r="1.4" fill="#fff" opacity="0.34"/>
<circle cx="719" cy="258" r="2.1" fill="#fff" opacity="0.44"/>
  <rect width="1600" height="1000" fill="#000" opacity=".08"/>
</svg>