<svg xmlns="http://www.w3.org/2000/svg" viewBox="0 0 1600 1000" preserveAspectRatio="xMidYMid slice">
  <defs>
    <linearGradient id="g" x1="0" y1="0" x2="1" y2="1">
      <stop offset="0" stop-color="#0e3a2f"/>
      <stop offset=".58" stop-color="#143b4f"/>
      <stop offset="1" stop-color="#0e3a2f"/>
    </linearGradient>
    <radialGradient id="warm" cx=".18" cy=".12" r=".62">
      <stop offset="0" stop-color="#f4c35f" stop-opacity=".32"/>
      <stop offset="1" stop-color="#f4c35f" stop-opacity="0"/>
    </radialGradient>
    <radialGradient id="cool" cx=".86" cy=".24" r=".58">
      <stop offset="0" stop-color="#7ee0a2" stop-opacity=".24"/>
      <stop offset="1" stop-color="#7ee0a2" stop-opacity="0"/>
    </radialGradient>
  </defs>
  <rect width="1600" height="1000" fill="url(#g)"/>
  <rect width="1600" height="1000" fill="url(#warm)"/>
  <rect width="1600" height="1000" fill="url(#cool)"/>
  <circle cx="1280" cy="820" r="360" fill="#ffffff" opacity=".06"/>
  <circle cx="130" cy="930" r="310" fill="#ffffff" opacity=".05"/>
  <circle cx="1674" cy="809" r="194" fill="#f4c35f" opacity="0.14"/>
<circle cx="94" cy="402" r="235" fill="#ff6c73" opacity="0.19"/>
<circle cx="1147" cy="122" r="193" fill="#7ee0a2" opacity="0.19"/>
<circle cx="1542" cy="761" r="163" fill="#f4c35f" opacity="0.10"/>
<circle cx="395" cy="931" r="89" fill="#7ee0a2" opacity="0.08"/>
<circle cx="700" cy="417" r="79" fill="#f4c35f" opacity="0.20"/>
<circle cx="902" cy="822" r="183" fill="#7ee0a2" opacity="0.11"/>
<circle cx="1491" cy="779" r="122" fill="#7ee0a2" opacity="0.10"/>
<circle cx="939" cy="289" r="74" fill="#f4c35f" opacity="0.09"/>
<circle cx="751" cy="639" r="226" fill="#ff6c73" opacity="0.11"/>
<circle cx="955" cy="410" r="100" fill="#7ee0a2" opacity="0.18"/>
<circle cx="1592" cy="771" r="233" fill="#ff6c73" opacity="0.10"/>
<circle cx="1285" cy="95" r="181" fill="#7ee0a2" opacity="0.17"/>
<circle cx="336" cy="571" r="200" fill="#ff6c73" opacity="0.17"/>
<circle cx="1506" cy="232" r="183" fill="#f4c35f" opacity="0.10"/>
<circle cx="1392" cy="542" r="222" fill="#7ee0a2" opacity="0.11"/><path d="M541 94.26455228194592 L542.3074067013189 96.69259329868107 L544.735447718054 98 L542.3074067013189 99.30740670131893 L541 101.73544771805408 L539.6925932986811 99.30740670131893 L537.264552281946 98 L539.6925932986811 96.69259329868107 Z" fill="#fff8d8" opacity="0.45"/>
<path d="M547 234.33837772270513 L547.5815677970533 235.4184322029468 L548.6616222772949 236 L547.5815677970533 236.5815677970532 L547 237.66162227729487 L546.4184322029467 236.5815677970532 L545.3383777227051 236 L546.4184322029467 235.4184322029468 Z" fill="#fff8d8" opacity="0.27"/>
<path d="M159 941.5710013024315 L160.200149544149 943.799850455851 L162.4289986975686 945 L160.200149544149 946.200149544149 L159 948.4289986975685 L157.799850455851 946.200149544149 L155.5710013024314 945 L157.799850455851 943.799850455851 Z" fill="#fff8d8" opacity="0.27"/>
<path d="M77 687.0281911146438 L78.04013310987465 688.9598668901253 L79.97180888535614 690 L78.04013310987465 691.0401331098747 L77 692.9718088853562 L75.95986689012535 691.0401331098747 L74.02819111464386 690 L75.95986689012535 688.9598668901253 Z" fill="#fff8d8" opacity="0.41"/>
<path d="M1317 556.241254658356 L1317.6155608695753 557.3844391304245 L1318.758745341644 558 L1317.6155608695753 558.6155608695755 L1317 559.758745341644 L1316.3844391304247 558.6155608695755 L1315.241254658356 558 L1316.3844391304247 557.3844391304245 Z" fill="#fff8d8" opacity="0.28"/>
<path d="M400 625.3995205274701 L401.26016781538544 627.7398321846146 L403.6004794725298 629 L401.26016781538544 630.2601678153854 L400 632.6004794725299 L398.73983218461456 630.2601678153854 L396.3995205274702 629 L398.73983218461456 627.7398321846146 Z" fill="#fff8d8" opacity="0.52"/>
<path d="M371 154.10221630952424 L371.6642242916665 155.3357757083335 L372.89778369047576 156 L371.6642242916665 156.6642242916665 L371 157.89778369047576 L370.3357757083335 156.6642242916665 L369.10221630952424 156 L370.3357757083335 155.3357757083335 Z" fill="#fff8d8" opacity="0.37"/>
<path d="M79 600.053032514795 L80.38143861982176 602.6185613801782 L82.94696748520502 604 L80.38143861982176 605.3814386198218 L79 607.946967485205 L77.61856138017824 605.3814386198218 L75.05303251479498 604 L77.61856138017824 602.6185613801782 Z" fill="#fff8d8" opacity="0.37"/>
<path d="M989 10.094833810514924 L989.6668081663198 11.333191833680223 L990.905166189485 12 L989.6668081663198 12.666808166319777 L989 13.905166189485076 L988.3331918336802 12.666808166319777 L987.094833810515 12 L988.3331918336802 11.333191833680223 Z" fill="#fff8d8" opacity="0.43"/>
<path d="M674 531.1308812669986 L674.6541915565505 532.3458084434495 L675.8691187330014 533 L674.6541915565505 533.6541915565505 L674 534.8691187330014 L673.3458084434495 533.6541915565505 L672.1308812669986 533 L673.3458084434495 532.3458084434495 Z" fill="#fff8d8" opacity="0.26"/>
<path d="M1248 81.39457686697689 L1248.561898096558 82.43810190344192 L1249.6054231330231 83 L1248.561898096558 83.56189809655808 L1248 84.60542313302311 L1247.438101903442 83.56189809655808 L1246.3945768669769 83 L1247.438101903442 82.43810190344192 Z" fill="#fff8d8" opacity="0.30"/>
<path d="M113 922.3632150761697 L114.27287472334059 924.7271252766594 L116.63678492383025 926 L114.27287472334059 927.2728747233406 L113 929.6367849238303 L111.72712527665941 927.2728747233406 L109.36321507616975 926 L111.72712527665941 924.7271252766594 Z" fill="#fff8d8" opacity="0.41"/>
<path d="M500 205.1100539722306 L500.6614811097193 206.3385188902807 L501.8899460277694 207 L500.6614811097193 207.6614811097193 L500 208.8899460277694 L499.3385188902807 207.6614811097193 L498.1100539722306 207 L499.3385188902807 206.3385188902807 Z" fill="#fff8d8" opacity="0.28"/>
<path d="M1142 107.1021156558883 L1143.3642595204392 109.63574047956091 L1145.8978843441116 111 L1143.3642595204392 112.36425952043909 L1142 114.8978843441117 L1140.6357404795608 112.36425952043909 L1138.1021156558884 111 L1140.6357404795608 109.63574047956091 Z" fill="#fff8d8" opacity="0.51"/>
<path d="M746 841.543537198454 L747.2097619805411 843.7902380194589 L749.456462801546 845 L747.2097619805411 846.2097619805411 L746 848.456462801546 L744.7902380194589 846.2097619805411 L742.543537198454 845 L744.7902380194589 843.7902380194589 Z" fill="#fff8d8" opacity="0.52"/>
<path d="M169 965.1679096368017 L169.64123162711942 966.3587683728806 L170.83209036319832 967 L169.64123162711942 967.6412316271194 L169 968.8320903631983 L168.35876837288058 967.6412316271194 L167.16790963680168 967 L168.35876837288058 966.3587683728806 Z" fill="#fff8d8" opacity="0.44"/>
<path d="M1040 738.1977844507217 L1041.3307754422474 740.6692245577526 L1043.8022155492783 742 L1041.3307754422474 743.3307754422474 L1040 745.8022155492783 L1038.6692245577526 743.3307754422474 L1036.1977844507217 742 L1038.6692245577526 740.6692245577526 Z" fill="#fff8d8" opacity="0.30"/>
<path d="M1314 777.4690018866995 L1314.5358493396552 778.4641506603448 L1315.5309981133005 779 L1314.5358493396552 779.5358493396552 L1314 780.5309981133005 L1313.4641506603448 779.5358493396552 L1312.4690018866995 779 L1313.4641506603448 778.4641506603448 Z" fill="#fff8d8" opacity="0.50"/>
<path d="M386 197.87669876138978 L386.74315543351355 199.25684456648642 L388.1233012386102 200 L386.74315543351355 200.74315543351358 L386 202.12330123861022 L385.25684456648645 200.74315543351358 L383.8766987613898 200 L385.25684456648645 199.25684456648642 Z" fill="#fff8d8" opacity="0.39"/>
<path d="M984 210.99040340366705 L985.0533588087166 212.94664119128348 L987.0095965963329 214 L985.0533588087166 215.05335880871652 L984 217.00959659633295 L982.9466411912834 215.05335880871652 L980.9904034036671 214 L982.9466411912834 212.94664119128348 Z" fill="#fff8d8" opacity="0.26"/>
<path d="M6 974.6186421573254 L6.833475244936082 976.166524755064 L8.38135784267452 977 L6.833475244936082 977.833475244936 L6 979.3813578426746 L5.166524755063918 977.833475244936 L3.6186421573254797 977 L5.166524755063918 976.166524755064 Z" fill="#fff8d8" opacity="0.25"/>
<path d="M1540 289.1804879446459 L1540.636829219374 290.36317078062604 L1541.8195120553542 291 L1540.636829219374 291.63682921937396 L1540 292.8195120553541 L1539.363170780626 291.63682921937396 L1538.1804879446458 291 L1539.363170780626 290.36317078062604 Z" fill="#fff8d8" opacity="0.55"/>
<path d="M1318 175.5736597342927 L1318.8492190929976 177.15078090700246 L1320.4263402657073 178 L1318.8492190929976 178.84921909299754 L1318 180.4263402657073 L1317.1507809070024 178.84921909299754 L1315.5736597342927 178 L1317.1507809070024 177.15078090700246 Z" fill="#fff8d8" opacity="0.16"/>
<path d="M1306 336.4622821451693 L1307.2382012491908 338.76179875080925 L1309.5377178548308 340 L1307.2382012491908 341.23820124919075 L1306 343.5377178548307 L1304.7617987508092 341.23820124919075 L1302.4622821451692 340 L1304.7617987508092 338.76179875080925 Z" fill="#fff8d8" opacity="0.47"/>
<path d="M226 558.4814540982785 L226.88149106560255 560.1185089343975 L228.51854590172155 561 L226.88149106560255 561.8814910656025 L226 563.5185459017215 L225.11850893439745 561.8814910656025 L223.48145409827845 561 L225.11850893439745 560.1185089343975 Z" fill="#fff8d8" opacity="0.51"/>
<path d="M984 140.44868813535996 L985.242959152624 142.75704084737598 L987.5513118646401 144 L985.242959152624 145.24295915262402 L984 147.55131186464004 L982.757040847376 145.24295915262402 L980.4486881353599 144 L982.757040847376 142.75704084737598 Z" fill="#fff8d8" opacity="0.29"/>
<path d="M887 244.36619377486562 L887.5718321787971 245.42816782120298 L888.6338062251343 246 L887.5718321787971 246.57183217879702 L887 247.63380622513438 L886.4281678212029 246.57183217879702 L885.3661937748657 246 L886.4281678212029 245.42816782120298 Z" fill="#fff8d8" opacity="0.24"/>
<path d="M497 308.7059017721488 L498.15293437974793 310.84706562025207 L500.2940982278512 312 L498.15293437974793 313.15293437974793 L497 315.2940982278512 L495.84706562025207 313.15293437974793 L493.7059017721488 312 L495.84706562025207 310.84706562025207 Z" fill="#fff8d8" opacity="0.22"/>
<path d="M503 884.0533844881971 L504.031315429131 885.968684570869 L505.94661551180286 887 L504.031315429131 888.031315429131 L503 889.9466155118029 L501.968684570869 888.031315429131 L500.05338448819714 887 L501.968684570869 885.968684570869 Z" fill="#fff8d8" opacity="0.53"/>
<path d="M479 416.8670132515924 L479.74654536194265 418.25345463805735 L481.1329867484076 419 L479.74654536194265 419.74654536194265 L479 421.1329867484076 L478.25345463805735 419.74654536194265 L476.8670132515924 419 L478.25345463805735 418.25345463805735 Z" fill="#fff8d8" opacity="0.48"/>
<path d="M1324 493.24945538233465 L1324.962690616183 495.0373093838171 L1326.7505446176654 496 L1324.962690616183 496.9626906161829 L1324 498.75054461766535 L1323.037309383817 496.9626906161829 L1321.2494553823346 496 L1323.037309383817 495.0373093838171 Z" fill="#fff8d8" opacity="0.19"/>
<path d="M1341 888.0862845326026 L1342.019800413589 889.9801995864109 L1343.9137154673974 891 L1342.019800413589 892.0198004135891 L1341 893.9137154673974 L1339.980199586411 892.0198004135891 L1338.0862845326026 891 L1339.980199586411 889.9801995864109 Z" fill="#fff8d8" opacity="0.34"/>
<path d="M793 604.1258886361052 L794.0059389773631 605.9940610226369 L795.8741113638948 607 L794.0059389773631 608.0059389773631 L793 609.8741113638948 L791.9940610226369 608.0059389773631 L790.1258886361052 607 L791.9940610226369 605.9940610226369 Z" fill="#fff8d8" opacity="0.20"/>
<path d="M257 916.3589797276984 L258.27435709530556 918.7256429046944 L260.6410202723016 920 L258.27435709530556 921.2743570953056 L257 923.6410202723016 L255.72564290469444 921.2743570953056 L253.35897972769837 920 L255.72564290469444 918.7256429046944 Z" fill="#fff8d8" opacity="0.22"/>
<path d="M1369 904.5837948879899 L1369.8456717892036 906.1543282107965 L1371.41620511201 907 L1369.8456717892036 907.8456717892035 L1369 909.4162051120101 L1368.1543282107964 907.8456717892035 L1366.58379488799 907 L1368.1543282107964 906.1543282107965 Z" fill="#fff8d8" opacity="0.38"/>
<path d="M1557 872.1328524250173 L1558.353501651244 874.646498348756 L1560.8671475749827 876 L1558.353501651244 877.353501651244 L1557 879.8671475749827 L1555.646498348756 877.353501651244 L1553.1328524250173 876 L1555.646498348756 874.646498348756 Z" fill="#fff8d8" opacity="0.31"/>
<path d="M561 884.1674741745435 L561.6413840389098 885.3586159610902 L562.8325258254565 886 L561.6413840389098 886.6413840389098 L561 887.8325258254565 L560.3586159610902 886.6413840389098 L559.1674741745435 886 L560.3586159610902 885.3586159610902 Z" fill="#fff8d8" opacity="0.24"/>
<path d="M1448 722.6947539802723 L1448.8068361069047 724.1931638930953 L1450.3052460197277 725 L1448.8068361069047 725.8068361069047 L1448 727.3052460197277 L1447.1931638930953 725.8068361069047 L1445.6947539802723 725 L1447.1931638930953 724.1931638930953 Z" fill="#fff8d8" opacity="0.46"/><circle cx="978" cy="707" r="1.4" fill="#fff" opacity="0.53"/>
<circle cx="444" cy="715" r="1.6" fill="#fff" opacity="0.30"/>
<circle cx="675" cy="310" r="1.9" fill="#fff" opacity="0.36"/>
<circle cx="314" cy="684" r="1.5" fill="#fff" opacity="0.47"/>
<circle cx="1351" cy="742" r="1.3" fill="#fff" opacity="0.62"/>
<circle cx="77" cy="853" r="1.1" fill="#fff" opacity="0.42"/>
<circle cx="873" cy="776" r="2.1" fill="#fff" opacity="0.44"/>
<circle cx="1428" cy="438" r="0.9" fill="#fff" opacity="0.58"/>
<circle cx="997" cy="908" r="1.6" fill="#fff" opacity="0.22"/>
<circle cx="213" cy="113" r="2.4" fill="#fff" opacity="0.49"/>
<circle cx="894" cy="549" r="2.1" fill="#fff" opacity="0.46"/>
<circle cx="190" cy="181" r="2.0" fill="#fff" opacity="0.58"/>
<circle cx="1457" cy="685" r="1.5" fill="#fff" opacity="0.59"/>
<circle cx="723" cy="777" r="1.2" fill="#fff" opacity="0.23"/>
<circle cx="1381" cy="403" r="1.0" fill="#fff" opacity="0.21"/>
<circle cx="904" cy="423" r="1.8" fill="#fff" opacity="0.27"/>
<circle cx="812" cy="979" r="0.7" fill="#fff" opacity="0.26"/>
<circle cx="1358" cy="295" r="2.2" fill="#fff" opacity="0.33"/>
<circle cx="983" cy="189" r="1.1" fill="#fff" opacity="0.62"/>
<circle cx="1238" cy="364" r="1.1" fill="#fff" opacity="0.29"/>
<circle cx="1271" cy="336" r="2.1" fill="#fff" opacity="0.44"/>
<circle cx="1499" cy="10" r="0.9" fill="#fff" opacity="0.60"/>
<circle cx="1537" cy="262" r="1.5" fill="#fff" opacity="0.24"/>
<circle cx="1432" cy="312" r="1.7" fill="#fff" opacity="0.20"/>
<circle cx="707" cy="479" r="1.2" fill="#fff" opacity="0.45"/>
<circle cx="1410" cy="603" r="0.8" fill="#fff" opacity="0.50"/>
<circle cx="536" cy="524" r="1.6" fill="#fff" opacity="0.29"/>
<circle cx="658" cy="384" r="0.9" fill="#fff" opacity="0.56"/>
<circle cx="1421" cy="434" r="1.1" fill="#fff" opacity="0.61"/>
<circle cx="562" cy="400" r="1.8" fill="#fff" opacity="0.38"/>
<circle cx="926" cy="255" r="0.8" fill="#fff" opacity="0.55"/>
<circle cx="535" cy="327" r="1.6" fill="#fff" opacity="0.53"/>
<circle cx="680" cy="984" r="1.9" fill="#fff" opacity="0.26"/>
<circle cx="117" cy="175" r="2.4" fill="#fff" opacity="0.27"/>
<circle cx="1165" cy="499" r="1.5" fill="#fff" opacity="0.34"/>
<circle cx="446" cy="555" r="2.2" fill="#fff" opacity="0.34"/>
<circle cx="518" cy="533" r="1.7" fill="#fff" opacity="0.19"/>
<circle cx="550" cy="154" r="1.6" fill="#fff" opacity="0.37"/>
<circle cx="586" cy="700" r="2.2" fill="#fff" opacity="0.39"/>
<circle cx="1293" cy="235" r="1.4" fill="#fff" opacity="0.23"/>
<circle cx="1496" cy="376" r="1.5" fill="#fff" opacity="0.27"/>
<circle cx="20" cy="166" r="2.4" fill="#fff" opacity="0.35"/>
<circle cx="670" cy="145" r="1.3" fill="#fff" opacity="0.31"/>
<circle cx="477" cy="996" r="1.8" fill="#fff" opacity="0.51"/>
<circle cx="1393" cy="119" r="2.4" fill="#fff" opacity="0.24"/>
<circle cx="1170" cy="651" r="2.1" fill="#fff" opacity="0.32"/>
<circle cx="919" cy="319" r="1.8" fill="#fff" opacity="0.59"/>
<circle cx="1479" cy="187" r="1.7" fill="#fff" opacity="0.52"/>
<circle cx="210" cy="98" r="1.0" fill="#fff" opacity="0.26"/>
<circle cx="383" cy="877" r="0.9" fill="#fff" opacity="0.31"/>
<circle cx="1318" cy="449" r="1.8" fill="#fff" opacity="0.33"/>
<circle cx="995" cy="405" r="1.7" fill="#fff" opacity="0.30"/>
<circle cx="666" cy="694" r="0.8" fill="#fff" opacity="0.58"/>
<circle cx="837" cy="636" r="1.5" fill="#fff" opacity="0.48"/>
<circle cx="1069" cy="851" r="0.7" fill="#fff" opacity="0.31"/>
<circle cx="10" cy="548" r="1.7" fill="#fff" opacity="0.58"/>
<circle cx="673" cy="867" r="1.2" fill="#fff" opacity="0.34"/>
<circle cx="1123" cy="309" r="1.4" fill="#fff" opacity="0.23"/>
<circle cx="1544" cy="138" r="0.7" fill="#fff" opacity="0.26"/>
<circle cx="1175" cy="823" r="1.0" fill="#fff" opacity="0.30"/>
<circle cx="1201" cy="27" r="1.0" fill="#fff" opacity="0.19"/>
<circle cx="831" cy="281" r="1.7" fill="#fff" opacity="0.20"/>
<circle cx="116" cy="981" r="1.0" fill="#fff" opacity="0.23"/>
<circle cx="704" cy="214" r="1.9" fill="#fff" opacity="0.55"/>
<circle cx="174" cy="80" r="0.8" fill="#fff" opacity="0.37"/>
<circle cx="1192" cy="774" r="2.4" fill="#fff" opacity="0.31"/>
<circle cx="732" cy="758" r="1.0" fill="#fff" opacity="0.31"/>
<circle cx="1048" cy="427" r="1.5" fill="#fff" opacity="0.26"/>
<circle cx="380" cy="261" r="1.9" fill="#fff" opacity="0.30"/>
<circle cx="850" cy="484" r="1.0" fill="#fff" opacity="0.25"/>
<circle cx="660" cy="345" r="2.3" fill="#fff" opacity="0.39"/>
<circle cx="1396" cy="232" r="1.1" fill="#fff" opacity="0.22"/>
<circle cx="174" cy="377" r="1.7" fill="#fff" opacity="0.40"/>
<circle cx="962" cy="139" r="1.1" fill="#fff" opacity="0.40"/>
<circle cx="54" cy="270" r="1.4" fill="#fff" opacity="0.60"/>
<circle cx="1576" cy="117" r="2.2" fill="#fff" opacity="0.52"/>
<circle cx="41" cy="345" r="1.3" fill="#fff" opacity="0.26"/>
<circle cx="965" cy="745" r="1.0" fill="#fff" opacity="0.28"/>
<circle cx="972" cy="385" r="1.9" fill="#fff" opacity="0.52"/>
<circle cx="910" cy="415" r="1.2" fill="#fff" opacity="0.39"/>
<circle cx="161" cy="944" r="0.8" fill="#fff" opacity="0.54"/>
<circle cx="1066" cy="898" r="2.4" fill="#fff" opacity="0.41"/>
<circle cx="65" cy="437" r="1.9" fill="#fff" opacity="0.38"/>
<circle cx="314" cy="864" r="1.0" fill="#fff" opacity="0.45"/>
<circle cx="488" cy="571" r="2.3" fill="#fff" opacity="0.50"/>
<circle cx="1028" cy="775" r="0.8" fill="#fff" opacity="0.62"/>
<circle cx="511" cy="889" r="1.2" fill="#fff" opacity="0.20"/>
<circle cx="639" cy="548" r="2.0" fill="#fff" opacity="0.21"/>
<circle cx="1500" cy="555" r="1.2" fill="#fff" opacity="0.54"/>
<circle cx="361" cy="550" r="1.3" fill="#fff" opacity="0.30"/>
  <rect width="1600" height="1000" fill="#000" opacity=".08"/>
</svg>