<svg xmlns="http://www.w3.org/2000/svg" viewBox="0 0 1600 1000" preserveAspectRatio="xMidYMid slice">
  <defs>
    <linearGradient id="g" x1="0" y1="0" x2="1" y2="1">
      <stop offset="0" stop-color="#173d35"/>
      <stop offset=".58" stop-color="#2c4d35"/>
      <stop offset="1" stop-color="#173d35"/>
    </linearGradient>
    <radialGradient id="warm" cx=".18" cy=".12" r=".62">
      <stop offset="0" stop-color="#ffe08a" stop-opacity=".32"/>
      <stop offset="1" stop-color="#ffe08a" stop-opacity="0"/>
    </radialGradient>
    <radialGradient id="cool" cx=".86" cy=".24" r=".58">
      <stop offset="0" stop-color="#8be6a7" stop-opacity=".24"/>
      <stop offset="1" stop-color="#8be6a7" stop-opacity="0"/>
    </radialGradient>
  </defs>
  <rect width="1600" height="1000" fill="url(#g)"/>
  <rect width="1600" height="1000" fill="url(#warm)"/>
  <rect width="1600" height="1000" fill="url(#cool)"/>
  <circle cx="1280" cy="820" r="360" fill="#ffffff" opacity=".06"/>
  <circle cx="130" cy="930" r="310" fill="#ffffff" opacity=".05"/>
  <circle cx="1105" cy="929" r="224" fill="#ffe08a" opacity="0.14"/>
<circle cx="1091" cy="215" r="150" fill="#8be6a7" opacity="0.09"/>
<circle cx="62" cy="824" r="237" fill="#8be6a7" opacity="0.08"/>
<circle cx="1133" cy="-44" r="198" fill="#8be6a7" opacity="0.21"/>
<circle cx="161" cy="1095" r="207" fill="#ffe08a" opacity="0.19"/>
<circle cx="1102" cy="652" r="237" fill="#8be6a7" opacity="0.17"/>
<circle cx="1456" cy="255" r="131" fill="#8be6a7" opacity="0.18"/>
<circle cx="568" cy="703" r="171" fill="#ee6570" opacity="0.13"/>
<circle cx="-59" cy="857" r="134" fill="#8be6a7" opacity="0.11"/>
<circle cx="1678" cy="515" r="221" fill="#8be6a7" opacity="0.15"/>
<circle cx="929" cy="373" r="114" fill="#ffe08a" opacity="0.09"/>
<circle cx="1445" cy="230" r="105" fill="#ffe08a" opacity="0.18"/>
<circle cx="740" cy="377" r="133" fill="#ee6570" opacity="0.12"/>
<circle cx="378" cy="1038" r="187" fill="#ee6570" opacity="0.21"/>
<circle cx="1016" cy="-52" r="91" fill="#8be6a7" opacity="0.12"/>
<circle cx="273" cy="74" r="90" fill="#ee6570" opacity="0.16"/>
    <pattern id="plaid" width="96" height="96" patternUnits="userSpaceOnUse">
      <rect width="96" height="96" fill="transparent"/>
      <path d="M0 24H96 M0 72H96 M24 0V96 M72 0V96" stroke="#ffe08a" stroke-width="2" opacity=".18"/>
      <path d="M0 48H96 M48 0V96" stroke="#8be6a7" stroke-width="8" opacity=".06"/>
    </pattern>
    <rect width="1600" height="1000" fill="url(#plaid)" opacity=".9"/><path d="M-100 729 C300 569, 600 909, 1000 729 S1400 579, 1700 769" fill="none" stroke="#8be6a7" stroke-width="34" opacity="0.09"/>
<path d="M-100 207 C300 47, 600 387, 1000 207 S1400 57, 1700 247" fill="none" stroke="#ffe08a" stroke-width="34" opacity="0.14"/>
<path d="M-100 379 C300 219, 600 559, 1000 379 S1400 229, 1700 419" fill="none" stroke="#ffe08a" stroke-width="34" opacity="0.17"/>
<path d="M-100 546 C300 386, 600 726, 1000 546 S1400 396, 1700 586" fill="none" stroke="#ee6570" stroke-width="34" opacity="0.16"/>
<path d="M-100 122 C300 -38, 600 302, 1000 122 S1400 -28, 1700 162" fill="none" stroke="#8be6a7" stroke-width="34" opacity="0.10"/>
<path d="M-100 602 C300 442, 600 782, 1000 602 S1400 452, 1700 642" fill="none" stroke="#ffe08a" stroke-width="34" opacity="0.10"/><circle cx="1476" cy="901" r="2.0" fill="#fff" opacity="0.41"/>
<circle cx="405" cy="539" r="2.3" fill="#fff" opacity="0.48"/>
<circle cx="1249" cy="608" r="1.9" fill="#fff" opacity="0.43"/>
<circle cx="680" cy="658" r="2.4" fill="#fff" opacity="0.19"/>
<circle cx="602" cy="333" r="1.7" fill="#fff" opacity="0.46"/>
<circle cx="11" cy="428" r="0.9" fill="#fff" opacity="0.35"/>
<circle cx="352" cy="488" r="2.3" fill="#fff" opacity="0.45"/>
<circle cx="349" cy="573" r="0.8" fill="#fff" opacity="0.50"/>
<circle cx="1230" cy="943" r="1.7" fill="#fff" opacity="0.58"/>
<circle cx="929" cy="592" r="0.7" fill="#fff" opacity="0.55"/>
<circle cx="505" cy="988" r="1.8" fill="#fff" opacity="0.58"/>
<circle cx="1072" cy="385" r="1.1" fill="#fff" opacity="0.47"/>
<circle cx="1399" cy="949" r="1.6" fill="#fff" opacity="0.44"/>
<circle cx="1100" cy="152" r="0.8" fill="#fff" opacity="0.51"/>
<circle cx="74" cy="370" r="1.7" fill="#fff" opacity="0.42"/>
<circle cx="796" cy="942" r="0.8" fill="#fff" opacity="0.25"/>
<circle cx="206" cy="583" r="2.2" fill="#fff" opacity="0.34"/>
<circle cx="949" cy="222" r="1.9" fill="#fff" opacity="0.51"/>
<circle cx="502" cy="194" r="1.4" fill="#fff" opacity="0.28"/>
<circle cx="1139" cy="708" r="2.0" fill="#fff" opacity="0.53"/>
<circle cx="617" cy="653" r="1.3" fill="#fff" opacity="0.29"/>
<circle cx="1576" cy="225" r="2.0" fill="#fff" opacity="0.45"/>
<circle cx="670" cy="90" r="1.1" fill="#fff" opacity="0.19"/>
<circle cx="1565" cy="649" r="0.9" fill="#fff" opacity="0.47"/>
<circle cx="900" cy="566" r="1.6" fill="#fff" opacity="0.32"/>
<circle cx="66" cy="759" r="2.2" fill="#fff" opacity="0.18"/>
<circle cx="1511" cy="939" r="2.0" fill="#fff" opacity="0.29"/>
<circle cx="482" cy="997" r="1.2" fill="#fff" opacity="0.51"/>
<circle cx="899" cy="327" r="0.8" fill="#fff" opacity="0.55"/>
<circle cx="127" cy="996" r="1.5" fill="#fff" opacity="0.58"/>
<circle cx="351" cy="965" r="1.1" fill="#fff" opacity="0.32"/>
<circle cx="1077" cy="473" r="0.9" fill="#fff" opacity="0.46"/>
<circle cx="1435" cy="813" r="1.9" fill="#fff" opacity="0.26"/>
<circle cx="776" cy="531" r="1.1" fill="#fff" opacity="0.36"/>
<circle cx="1017" cy="515" r="1.7" fill="#fff" opacity="0.29"/>
<circle cx="686" cy="770" r="1.1" fill="#fff" opacity="0.47"/>
<circle cx="912" cy="152" r="1.0" fill="#fff" opacity="0.28"/>
<circle cx="763" cy="329" r="0.8" fill="#fff" opacity="0.21"/>
<circle cx="952" cy="204" r="1.5" fill="#fff" opacity="0.20"/>
<circle cx="1552" cy="101" r="1.2" fill="#fff" opacity="0.28"/>
<circle cx="363" cy="877" r="2.0" fill="#fff" opacity="0.45"/>
<circle cx="1097" cy="750" r="2.2" fill="#fff" opacity="0.30"/>
<circle cx="1373" cy="482" r="1.2" fill="#fff" opacity="0.43"/>
<circle cx="274" cy="8" r="0.9" fill="#fff" opacity="0.50"/>
<circle cx="900" cy="248" r="1.7" fill="#fff" opacity="0.19"/>
<circle cx="988" cy="861" r="1.6" fill="#fff" opacity="0.22"/>
<circle cx="1546" cy="622" r="0.9" fill="#fff" opacity="0.48"/>
<circle cx="1053" cy="653" r="1.6" fill="#fff" opacity="0.48"/>
<circle cx="344" cy="881" r="1.0" fill="#fff" opacity="0.60"/>
<circle cx="598" cy="470" r="0.9" fill="#fff" opacity="0.20"/>
<circle cx="479" cy="559" r="1.8" fill="#fff" opacity="0.27"/>
<circle cx="159" cy="406" r="1.4" fill="#fff" opacity="0.29"/>
<circle cx="863" cy="496" r="1.2" fill="#fff" opacity="0.50"/>
<circle cx="715" cy="529" r="1.4" fill="#fff" opacity="0.58"/>
<circle cx="103" cy="471" r="1.2" fill="#fff" opacity="0.61"/>
<circle cx="1505" cy="453" r="1.9" fill="#fff" opacity="0.57"/>
<circle cx="1244" cy="222" r="1.2" fill="#fff" opacity="0.21"/>
<circle cx="559" cy="716" r="2.3" fill="#fff" opacity="0.48"/>
<circle cx="293" cy="711" r="1.7" fill="#fff" opacity="0.25"/>
<circle cx="346" cy="290" r="1.1" fill="#fff" opacity="0.20"/>
<circle cx="1415" cy="37" r="2.0" fill="#fff" opacity="0.49"/>
<circle cx="1082" cy="830" r="1.0" fill="#fff" opacity="0.34"/>
<circle cx="82" cy="389" r="1.9" fill="#fff" opacity="0.42"/>
<circle cx="326" cy="776" r="1.8" fill="#fff" opacity="0.33"/>
<circle cx="439" cy="181" r="1.3" fill="#fff" opacity="0.46"/>
<circle cx="1219" cy="562" r="1.8" fill="#fff" opacity="0.44"/>
<circle cx="831" cy="698" r="1.5" fill="#fff" opacity="0.49"/>
<circle cx="525" cy="271" r="1.2" fill="#fff" opacity="0.25"/>
<circle cx="36" cy="96" r="2.4" fill="#fff" opacity="0.55"/>
<circle cx="906" cy="790" r="2.1" fill="#fff" opacity="0.19"/>
<circle cx="466" cy="456" r="1.9" fill="#fff" opacity="0.57"/>
<circle cx="866" cy="550" r="2.2" fill="#fff" opacity="0.38"/>
<circle cx="40" cy="789" r="1.8" fill="#fff" opacity="0.18"/>
<circle cx="642" cy="812" r="1.2" fill="#fff" opacity="0.38"/>
<circle cx="279" cy="706" r="1.2" fill="#fff" opacity="0.56"/>
<circle cx="1191" cy="783" r="1.5" fill="#fff" opacity="0.48"/>
<circle cx="1558" cy="250" r="1.8" fill="#fff" opacity="0.49"/>
<circle cx="276" cy="966" r="0.8" fill="#fff" opacity="0.28"/>
<circle cx="1092" cy="76" r="1.6" fill="#fff" opacity="0.20"/>
<circle cx="1533" cy="174" r="2.1" fill="#fff" opacity="0.34"/>
<circle cx="1184" cy="164" r="1.9" fill="#fff" opacity="0.21"/>
<circle cx="336" cy="977" r="1.1" fill="#fff" opacity="0.31"/>
<circle cx="8" cy="543" r="1.3" fill="#fff" opacity="0.19"/>
<circle cx="512" cy="835" r="1.7" fill="#fff" opacity="0.27"/>
<circle cx="671" cy="278" r="1.2" fill="#fff" opacity="0.59"/>
<circle cx="91" cy="600" r="2.3" fill="#fff" opacity="0.52"/>
<circle cx="318" cy="872" r="1.3" fill="#fff" opacity="0.50"/>
<circle cx="1082" cy="968" r="2.1" fill="#fff" opacity="0.19"/>
<circle cx="210" cy="597" r="1.2" fill="#fff" opacity="0.52"/>
<circle cx="664" cy="967" r="2.3" fill="#fff" opacity="0.20"/>
<circle cx="139" cy="995" r="1.1" fill="#fff" opacity="0.25"/>
<circle cx="1042" cy="278" r="0.9" fill="#fff" opacity="0.20"/>
<circle cx="996" cy="712" r="1.8" fill="#fff" opacity="0.38"/>
<circle cx="1141" cy="24" r="1.9" fill="#fff" opacity="0.55"/>
<circle cx="86" cy="852" r="1.8" fill="#fff" opacity="0.51"/>
<circle cx="873" cy="721" r="1.2" fill="#fff" opacity="0.25"/>
<circle cx="1427" cy="595" r="1.2" fill="#fff" opacity="0.43"/>
<circle cx="879" cy="426" r="1.6" fill="#fff" opacity="0.62"/>
<circle cx="297" cy="491" r="1.6" fill="#fff" opacity="0.32"/>
<circle cx="936" cy="715" r="2.1" fill="#fff" opacity="0.59"/>
<circle cx="849" cy="293" r="2.2" fill="#fff" opacity="0.30"/>
<circle cx="1593" cy="370" r="1.5" fill="#fff" opacity="0.23"/>
<circle cx="1515" cy="676" r="2.1" fill="#fff" opacity="0.19"/>
<circle cx="1110" cy="391" r="0.7" fill="#fff" opacity="0.19"/>
<circle cx="1549" cy="66" r="1.8" fill="#fff" opacity="0.24"/>
<circle cx="1313" cy="28" r="1.3" fill="#fff" opacity="0.31"/>
<circle cx="1136" cy="110" r="2.1" fill="#fff" opacity="0.21"/>
<circle cx="1161" cy="771" r="1.6" fill="#fff" opacity="0.55"/>
<circle cx="115" cy="67" r="2.0" fill="#fff" opacity="0.19"/>
<circle cx="177" cy="308" r="1.6" fill="#fff" opacity="0.60"/>
  <rect width="1600" height="1000" fill="#000" opacity=".08"/>
</svg>